<svg width="485" height="222" viewBox="0 0 485 222" fill="none" xmlns="http://www.w3.org/2000/svg">
<g clip-path="url(#clip0_1185_191)">
<rect width="485" height="222" fill="url(#paint0_linear_1185_191)"/>
<g filter="url(#filter0_f_1185_191)">
<path d="M0 145H110C108.053 141.96 100.07 141.6 96.3224 141.8C95.5111 134 86.3541 132.6 82.7608 134C82.8767 133.4 79.9789 123 68.2719 123C57.8862 123.16 53.8988 130 53.2034 133.4C49.0306 132.44 45.1282 135.267 43.6986 136.8C39.0622 130.2 29.9052 133.8 28.5142 138.4C22.1159 136.08 18.2754 139.967 17.1549 142.2C6.21286 140.76 1.15912 143.467 0 145Z" fill="white"/>
</g>
<path d="M246 229H458.986C459.466 222.7 447.771 219.958 441.863 219.375C438.859 205.667 425.941 204.208 417.53 209.167C412.423 195.75 396.802 195.458 388.091 200.708C384.185 194.875 376.675 187 363.758 187C347.416 187.467 339.726 200.222 337.923 206.542C330.473 204.208 324.405 206.931 322.302 208.583L322.221 208.459C320.076 205.184 315.24 197.799 303.377 198.375C293.764 198.842 287.956 207.514 286.254 211.792C271.835 206.542 267.329 219.375 265.827 219.375C252.609 219.375 247.101 225.792 246 229Z" fill="#FFFEFF"/>
<g filter="url(#filter1_f_1185_191)">
<path d="M362 71H467C465.141 66.9928 457.522 66.5182 453.944 66.7818C453.17 56.5 444.429 54.6545 440.999 56.5C441.11 55.7091 438.344 42 427.169 42C417.255 42.2109 413.449 51.2273 412.785 55.7091C408.802 54.4436 405.077 58.1697 403.712 60.191C399.287 51.4909 390.546 56.2363 389.218 62.3C383.111 59.2419 379.445 64.3652 378.375 67.3091C367.93 65.4109 363.106 68.9788 362 71Z" fill="#FFFEFF"/>
</g>
<g filter="url(#filter2_f_1185_191)">
<path d="M289 169H170C172.107 164.44 180.742 163.9 184.797 164.2C185.674 152.5 195.581 150.4 199.468 152.5C199.342 151.6 202.477 136 215.142 136C226.378 136.24 230.691 146.5 231.444 151.6C235.958 150.16 240.179 154.4 241.726 156.7C246.742 146.8 256.648 152.2 258.153 159.1C265.075 155.62 269.229 161.45 270.442 164.8C282.279 162.64 287.746 166.7 289 169Z" fill="#FFFEFF"/>
</g>
<path d="M228.765 160.768L231.128 162.477C234.078 160.91 240.288 156.711 236.91 150.542C232.743 142.923 219.23 141.137 211.69 148.439L214.712 150.623C210.574 148.485 206.192 146.776 202.143 145.878C198.088 144.98 193.291 144.658 188.47 144.811L192.341 144.153C189.842 134.626 177.006 130.58 169.074 135.524C162.651 139.525 165.726 145.781 167.424 148.378L170.464 147.863C164.556 149.98 161.22 153.062 163.701 156.67C163.701 156.67 146.14 163.38 154.784 169.907C154.784 169.907 154.63 169.983 154.362 170.141C152.279 171.356 143.332 177.295 147.541 187.603C151.726 197.854 165.15 201.043 174.792 201.982C168.665 203.676 164.366 207.636 164.366 212.249C164.366 218.403 172.025 223.393 181.471 223.393C190.916 223.393 200.558 218.403 200.558 212.249C200.558 210.371 197.898 207.452 198.575 207.646C207.243 210.121 218.399 211.31 226.503 205.085C237.183 196.874 230.101 186.582 230.101 186.582C241.339 184.454 229.727 171.289 229.727 171.289C233.93 169.156 232.743 165.084 228.765 160.773V160.768Z" fill="#F8D4AE"/>
<path d="M220.049 153.7C224.169 156.354 227.702 159.313 229.905 162.099C232.552 159.966 236.495 155.838 233.051 152.282C229.4 148.5 223.047 151.782 220.043 153.7H220.049Z" fill="#FFF1E6"/>
<path d="M168.7 148.552C172.197 147.031 176.947 145.903 182.053 145.291C180.497 142.362 176.775 136.851 171.461 138.647C166.444 140.336 167.578 145.582 168.7 148.552Z" fill="#FFF1E6"/>
<path d="M194.301 172.024C186.861 170.376 181.275 179.54 174.72 179.836C164.711 180.285 159.255 176.412 154.778 169.901C154.778 169.901 142.791 175.974 147.535 187.593C154.303 204.171 185.235 202.278 185.235 202.278C185.235 202.278 211.257 216.775 226.497 205.069C237.177 196.859 230.095 186.567 230.095 186.567C222.519 190.414 215.567 191.537 207.053 186.99C201.484 184.01 201.74 173.667 194.301 172.019V172.024Z" fill="#FFF1E6"/>
<path d="M207.208 190.287C208.615 185.582 214.195 182.75 219.669 183.965C225.143 185.174 228.438 189.97 227.025 194.675C225.618 199.38 220.037 202.212 214.563 200.997C209.09 199.788 205.795 194.992 207.208 190.287Z" fill="#FD9DB4"/>
<path d="M171.038 185.723C174.415 181.827 173.479 176.315 168.946 173.412C164.413 170.509 158 171.314 154.623 175.21C151.245 179.106 152.182 184.618 156.715 187.521C161.248 190.424 167.66 189.619 171.038 185.723Z" fill="#FD9DB4"/>
<path d="M237.587 158.89C239.647 156.119 239.855 153.052 238.193 150.021C236.061 146.123 231.573 143.398 226.188 142.734C220.459 142.025 214.742 143.775 210.835 147.429C207.962 146.22 205.118 145.281 202.488 144.699C199.858 144.117 196.842 143.76 193.642 143.627C192.27 138.81 188.251 134.902 182.836 133.141C177.748 131.488 172.286 132.014 168.231 134.539C165.073 136.509 163.529 139.28 163.779 142.561C163.951 144.893 164.978 147.036 165.904 148.546C164.616 149.281 163.589 150.072 162.858 150.909C161.427 152.542 161.077 154.318 161.819 156.099C158.78 157.42 151.821 160.885 151.044 165.273C150.765 166.86 151.287 168.355 152.611 169.738C149.482 171.84 142.144 178.061 146.199 188.011C148.212 192.94 152.397 196.788 158.649 199.451C163.149 201.37 168.629 202.641 174.94 203.227C175.718 203.299 176.418 202.814 176.507 202.146C176.591 201.477 176.027 200.875 175.249 200.798C157.361 199.125 151.038 192.481 148.883 187.2C147.244 183.179 147.559 179.438 149.827 176.076C151.643 173.381 154.167 171.738 155.158 171.157C155.372 171.034 155.496 170.968 155.508 170.963C155.9 170.764 156.155 170.417 156.197 170.024C156.239 169.636 156.06 169.253 155.722 168.993C154.262 167.891 153.65 166.794 153.852 165.641C154.452 162.247 161.582 158.823 164.277 157.788C164.645 157.645 164.93 157.374 165.055 157.042C165.18 156.711 165.132 156.349 164.924 156.053C164.022 154.736 164.087 153.562 165.132 152.368C167.24 149.96 172.933 147.863 180.355 146.76C187.883 145.643 195.898 145.755 201.781 147.056C207.671 148.358 214.747 151.588 220.708 155.69C226.592 159.737 230.397 163.936 230.89 166.921C231.134 168.401 230.534 169.452 229.002 170.233C228.652 170.412 228.408 170.708 228.331 171.05C228.254 171.391 228.349 171.743 228.593 172.024C228.61 172.045 230.273 173.943 231.668 176.341C233.401 179.316 233.971 181.699 233.312 183.23C232.843 184.322 231.692 185.031 229.792 185.388C229.347 185.47 228.978 185.735 228.794 186.092C228.61 186.45 228.64 186.863 228.872 187.2C229.133 187.587 235.206 196.752 225.547 204.171C220.637 207.942 211.257 211.147 194.443 204.998C193.725 204.733 192.888 205.024 192.579 205.641C192.27 206.264 192.608 206.978 193.327 207.243C199.222 209.397 204.779 210.601 209.844 210.83C210.419 210.856 210.983 210.871 211.542 210.871C217.876 210.871 223.214 209.233 227.435 205.993C233.401 201.411 234.138 196.196 233.704 192.629C233.431 190.384 232.683 188.516 232.089 187.332C234.019 186.669 235.319 185.577 235.966 184.072C237.753 179.908 233.603 173.978 231.686 171.56C233.336 170.305 234.025 168.605 233.692 166.585C233.52 165.549 233.069 164.426 232.351 163.253C234.013 162.319 236.115 160.864 237.575 158.895L237.587 158.89ZM179.874 144.352C175.332 145.026 171.413 146.051 168.38 147.332C166.628 144.469 164.847 139.657 169.9 136.509C173.183 134.463 177.647 134.055 181.839 135.417C186.137 136.81 189.379 139.816 190.685 143.556C187.135 143.556 183.448 143.821 179.874 144.352ZM230.878 161.166C228.937 158.788 226.087 156.262 222.489 153.787C219.657 151.838 216.57 150.077 213.465 148.603C216.713 145.873 221.243 144.587 225.784 145.148C230.219 145.699 233.894 147.909 235.622 151.057C238.276 155.91 234.019 159.385 230.872 161.166H230.878Z" fill="#D3A98C"/>
<path d="M172.547 174.622C171.96 176.581 173.331 178.581 175.617 179.087C177.897 179.592 180.224 178.413 180.812 176.448C181.399 174.489 180.028 172.489 177.742 171.984C175.462 171.478 173.135 172.657 172.547 174.622Z" fill="#5F5C5D"/>
<path d="M203.628 181.5C203.04 183.459 204.411 185.46 206.697 185.965C208.977 186.47 211.304 185.291 211.892 183.327C212.48 181.367 211.108 179.367 208.822 178.862C206.537 178.357 204.215 179.535 203.628 181.5Z" fill="#5F5C5D"/>
<path d="M182.967 184.771C182.504 186.317 182.498 187.843 182.872 189.205C183.454 191.338 184.962 193.058 187.081 193.757C187.289 193.833 187.509 193.889 187.734 193.94C190.204 194.486 192.775 193.598 194.657 191.802C195.132 191.348 195.571 190.833 195.945 190.271C196.426 189.552 196.806 188.751 197.061 187.889C197.376 186.837 197.447 185.878 197.328 185.026C197.317 184.939 197.305 184.852 197.275 184.766C196.812 182.454 194.829 180.928 192.163 180.27C192.062 180.245 191.961 180.219 191.855 180.199C191.748 180.173 191.647 180.153 191.546 180.132C188.839 179.607 186.244 180.117 184.534 181.949C184.469 182.01 184.41 182.082 184.35 182.148C183.762 182.847 183.287 183.714 182.973 184.771H182.967Z" fill="#5F5C5D"/>
<path d="M182.872 189.2C183.454 191.333 184.962 193.052 187.081 193.752C187.289 193.828 187.509 193.884 187.734 193.935C190.204 194.481 192.781 193.593 194.657 191.797C194.075 189.664 192.567 187.945 190.447 187.246C190.24 187.169 190.02 187.113 189.794 187.062C187.325 186.516 184.748 187.404 182.872 189.2Z" fill="#E27FA3"/>
<path d="M189.183 195.313C188.583 195.313 187.978 195.247 187.378 195.114C182.735 194.089 180.141 189.307 181.589 184.46C181.94 183.286 182.48 182.266 183.198 181.424L185.49 182.863C184.985 183.454 184.6 184.194 184.338 185.067C183.276 188.613 184.956 192.058 188.085 192.752C191.213 193.446 194.621 191.124 195.684 187.577C195.945 186.71 196.022 185.904 195.915 185.179L198.73 184.873C198.878 185.904 198.783 187.016 198.433 188.185C197.168 192.405 193.244 195.308 189.183 195.308V195.313Z" fill="#F8D4AE"/>
<path d="M198.73 184.878C198.356 182.342 196.497 180.388 193.558 179.382L194.283 176.969L191.534 176.362L190.81 178.775C187.681 178.433 184.956 179.367 183.204 181.423C182.741 181.969 182.878 182.73 183.513 183.128C184.148 183.526 185.033 183.408 185.496 182.862C187.259 180.796 190.014 181.036 191.498 181.367C192.988 181.699 195.541 182.633 195.915 185.179C196.004 185.797 196.616 186.246 197.322 186.246C197.382 186.246 197.441 186.246 197.501 186.235C198.278 186.149 198.83 185.541 198.73 184.873V184.878Z" fill="#D3A98C"/>
<path d="M190.946 174.178C191.765 173.754 192.834 173.984 193.327 174.688L193.446 174.856L193.642 174.754C194.461 174.331 195.53 174.56 196.022 175.264C196.515 175.969 196.248 176.887 195.429 177.311L194.722 177.673C193.357 178.377 191.593 177.994 190.774 176.821L190.352 176.214C189.86 175.509 190.127 174.591 190.946 174.167V174.178Z" fill="#E27FA3"/>
<path d="M164.36 213.117C164.36 213.117 158.946 192.139 159.979 181.765L163.44 182.817L167.774 185.148L175.433 211.79L164.354 213.117H164.36Z" fill="#F8D4AE"/>
<path d="M173.157 212.304L179.529 210.943L164.659 159.49L158.286 160.85L173.157 212.304Z" fill="#FFBE8D"/>
<path d="M173.153 213.524C172.898 213.524 172.642 213.463 172.423 213.351C172.102 213.183 171.871 212.912 171.776 212.601L156.904 161.15C156.743 160.599 157.052 160.022 157.64 159.767C158.233 159.512 158.952 159.639 159.373 160.078L169.027 170.069C169.163 170.212 169.258 170.376 169.312 170.554L180.901 210.657C181.091 211.31 180.628 211.973 179.868 212.136L173.491 213.499C173.379 213.524 173.266 213.535 173.147 213.535L173.153 213.524ZM161.16 165.732L174.192 210.825L177.814 210.055L166.646 171.406L161.166 165.732H161.16Z" fill="#EA9C71"/>
<path d="M167.94 170.84C148.295 163.457 138.101 188.792 118.456 181.403C115.535 171.305 112.62 161.206 109.699 151.108C129.344 158.492 139.538 133.156 159.183 140.545C162.104 150.644 165.019 160.742 167.94 170.84Z" fill="#A3D676"/>
<path d="M125.687 184.005C123.241 184.005 120.652 183.566 117.886 182.526C117.482 182.372 117.185 182.071 117.078 181.704L108.321 151.409C108.191 150.96 108.369 150.48 108.784 150.184C109.2 149.883 109.776 149.812 110.269 150.001C119.364 153.42 126.292 149.251 133.631 144.837C141.283 140.229 149.203 135.468 159.753 139.438C160.157 139.591 160.454 139.892 160.561 140.26L169.318 170.555C169.448 171.004 169.27 171.483 168.855 171.779C168.439 172.08 167.863 172.152 167.37 171.963C158.275 168.544 151.347 172.713 144.014 177.127C138.368 180.525 132.574 184.005 125.693 184.005H125.687ZM119.661 180.515C128.442 183.51 135.222 179.433 142.382 175.121C149.399 170.901 156.63 166.549 165.916 168.906L157.978 141.433C149.197 138.438 142.417 142.515 135.257 146.827C129.611 150.225 123.817 153.705 116.936 153.71C115.267 153.71 113.534 153.506 111.723 153.047L119.661 180.52V180.515Z" fill="#87B758"/>
<path d="M160.181 182.934C159.51 179.122 160.525 175.831 164.96 175.255C169.395 174.678 173.533 177.301 174.204 181.118C174.875 184.929 171.823 188.486 167.382 189.063C162.947 189.639 160.846 186.751 160.175 182.939L160.181 182.934Z" fill="#F8D4AE"/>
<path d="M175.611 180.928C174.827 176.458 169.953 173.366 164.752 174.045C160.804 174.555 158.637 176.974 158.584 180.796C157.551 191.236 162.757 212.519 162.977 213.382C163.125 213.948 163.713 214.336 164.36 214.336C164.461 214.336 164.568 214.326 164.669 214.305C165.435 214.157 165.916 213.509 165.75 212.851C165.708 212.683 162.223 199.074 161.427 188.552C162.71 189.736 164.372 190.348 166.308 190.348C166.729 190.348 167.157 190.317 167.602 190.261C172.803 189.588 176.401 185.398 175.611 180.928ZM167.174 187.853C165.577 188.057 164.354 187.725 163.434 186.832C162.544 185.97 161.902 184.556 161.588 182.75C161.338 181.342 160.584 177.05 165.174 176.458C166.943 176.229 168.712 176.606 170.155 177.52C171.598 178.433 172.536 179.775 172.803 181.296C173.355 184.439 170.832 187.378 167.174 187.853Z" fill="#D3A98C"/>
<path d="M199.715 208.785C205.153 215.173 200.926 226.287 185.769 223.383C169.656 220.296 171.704 206.641 180.153 206.641C188.601 206.641 190.798 212.709 187.841 215.25C187.841 215.25 199.371 208.381 199.715 208.785Z" fill="#F8D4AE"/>
<path d="M190.525 225.092C189.023 225.092 187.342 224.939 185.46 224.577C175.534 222.674 171.722 216.897 172.346 212.009C172.844 208.131 176.05 205.421 180.153 205.421C184.861 205.421 188.524 207.197 189.955 210.167C190.988 212.31 190.554 214.647 188.844 216.112C188.292 216.586 187.39 216.586 186.838 216.112C186.286 215.637 186.286 214.861 186.838 214.387C187.728 213.621 187.924 212.33 187.331 211.101C186.351 209.075 183.667 207.86 180.153 207.86C177.101 207.86 175.451 210.075 175.172 212.274C174.495 217.551 180.165 221.056 186.084 222.189C192.365 223.393 197.233 222.107 199.442 218.653C201.484 215.453 200.701 211.177 197.572 208.488C197.02 208.014 197.02 207.238 197.572 206.763C198.124 206.289 199.026 206.289 199.579 206.763C203.58 210.203 204.566 215.698 201.93 219.826C200.813 221.572 197.679 225.082 190.531 225.082L190.525 225.092Z" fill="#D3A98C"/>
<g filter="url(#filter3_d_1185_191)">
<path d="M216.799 188.299C216.923 188.178 217.009 188.101 217.047 188.068L217.06 188.056H217.064C209.105 184.59 220.781 176.632 220.781 176.632C218.381 174.57 219.587 172.052 222.718 169.7C220.956 167.641 219.25 164.336 222.367 161.102C226.948 156.345 236.639 156.904 241.074 162.686C243.199 162.333 245.278 162.138 247.211 162.138C250.098 162.138 253.331 162.579 256.534 163.326C260.726 156.952 270.943 156.18 275.69 161.105C279.616 165.175 275.895 169.361 274.035 171.03L272.624 170.449C275.044 172.581 275.784 174.787 273.637 176.632C273.637 176.632 285.317 184.59 277.358 188.053C277.358 188.053 277.418 188.104 277.521 188.204C277.923 188.586 278.987 189.667 279.873 191.251C280.929 193.14 281.733 195.746 280.844 198.724C280.484 199.94 279.839 201.223 278.816 202.543C274.852 207.638 269.249 209.112 264.284 209.189C264.417 209.744 264.485 210.314 264.485 210.894C264.485 217.235 256.376 222.378 246.369 222.378C236.361 222.378 228.252 217.239 228.252 210.894C228.252 210.402 228.299 209.917 228.398 209.439C223.535 208.531 218.916 206.494 215.606 202.543C209.849 195.669 215.507 189.556 216.799 188.299Z" fill="#F8D4AE"/>
<path d="M264.271 165.744C268.005 167.233 271.204 169.038 273.086 170.88C274.591 168.821 276.537 165.131 273.192 163.057C269.916 161.021 266.273 163.774 264.271 165.744Z" fill="#FFF1E6"/>
<path d="M215.602 202.543C226.849 215.963 253.096 207.303 253.096 207.303C253.096 207.303 270.002 213.864 278.816 202.543C282.345 198.003 281.361 193.92 279.873 191.255C276.34 193.059 272.397 193.574 267.299 192.203C262.445 190.891 260.315 183.083 254.358 183.083C248.4 183.083 246.189 190.692 241.416 192.203C224.318 197.606 221.888 192.203 217.064 188.057C217.064 188.057 217.056 188.068 217.051 188.071C217.013 188.104 216.927 188.182 216.803 188.303C215.512 189.56 209.849 195.673 215.61 202.547L215.602 202.543Z" fill="#FFF1E6"/>
<path d="M268.15 194.644C268.15 198.412 271.306 201.466 275.198 201.466C277.508 201.466 279.561 200.389 280.844 198.728C281.729 195.754 280.929 193.148 279.873 191.255C278.987 189.67 277.927 188.59 277.521 188.207C276.793 187.961 276.011 187.829 275.198 187.829C271.302 187.829 268.15 190.883 268.15 194.647V194.644Z" fill="#FD9DB4"/>
<path d="M231.319 201.383C226.998 200.762 224.08 197.247 224.802 193.533C225.525 189.819 229.614 187.311 233.935 187.932C238.257 188.553 241.174 192.067 240.452 195.781C239.73 199.496 235.641 202.003 231.319 201.383Z" fill="#FD9DB4"/>
<path d="M241.865 190.259C240.039 190.259 238.559 188.853 238.559 187.119C238.559 185.386 240.039 183.98 241.865 183.98C243.691 183.98 245.171 185.386 245.171 187.119C245.171 188.853 243.691 190.259 241.865 190.259Z" fill="#5F5C5D"/>
<path d="M266.85 190.259C265.024 190.259 263.544 188.853 263.544 187.119C263.544 185.386 265.024 183.98 266.85 183.98C268.676 183.98 270.156 185.386 270.156 187.119C270.156 188.853 268.676 190.259 266.85 190.259Z" fill="#5F5C5D"/>
<path d="M228.522 169.88L233.508 167.829C235.009 167.211 235.322 165.484 234.103 164.509C232.041 162.866 229.189 161.436 226.571 163.061C224.134 164.572 224.506 166.939 225.468 168.909C225.964 169.924 227.367 170.354 228.522 169.88Z" fill="#FFF1E6"/>
<path d="M212.569 193.07C213.296 190.916 214.618 189.222 215.49 188.27C214.169 187.457 213.429 186.425 213.283 185.186C213.07 183.377 214.186 181.256 216.602 178.878C217.62 177.875 218.651 177.044 219.335 176.526C218.736 175.779 218.45 174.967 218.484 174.096C218.54 172.633 219.51 171.111 221.362 169.571C220.845 168.88 220.37 168.097 220.049 167.248C219.134 164.848 219.664 162.532 221.576 160.547C224.04 157.992 227.996 156.702 232.161 157.092C235.946 157.448 239.325 159.139 241.536 161.719C243.546 161.414 245.449 161.256 247.207 161.256C249.867 161.256 252.921 161.631 256.043 162.308C258.279 159.327 262.009 157.386 266.166 157.066C270.224 156.757 274.082 158.055 276.481 160.543C278.393 162.528 278.923 164.844 278.008 167.244C277.324 169.045 275.977 170.538 274.92 171.512C275.151 171.832 275.348 172.148 275.498 172.464C276.203 173.927 276.054 175.313 275.079 176.526C275.763 177.044 276.793 177.875 277.816 178.878C280.232 181.256 281.353 183.377 281.139 185.186C280.993 186.421 280.253 187.457 278.928 188.27C279.638 189.053 280.647 190.343 281.365 192.012C282.486 194.603 283.102 198.621 279.672 203.032C275.356 208.579 269.236 210.078 263.878 210.078C262.462 210.078 261.102 209.975 259.84 209.81C259.28 209.737 258.891 209.288 258.976 208.807C259.062 208.325 259.584 207.994 260.144 208.064C265.593 208.766 273.107 208.292 277.965 202.05C283.581 194.827 276.918 188.924 276.635 188.678C276.4 188.479 276.293 188.193 276.349 187.913C276.4 187.634 276.605 187.391 276.9 187.266C278.269 186.671 278.987 185.932 279.099 185.009C279.415 182.333 274.805 178.555 273.004 177.327C272.773 177.169 272.632 176.937 272.615 176.687C272.598 176.437 272.709 176.191 272.914 176.011C273.915 175.151 274.133 174.239 273.603 173.144C272.555 170.971 268.74 168.439 263.399 166.369C257.989 164.274 251.937 163.024 247.215 163.024C245.813 163.024 244.303 163.131 242.712 163.344C242.951 163.774 242.75 164.289 242.254 164.509C241.75 164.73 241.13 164.561 240.873 164.127C239.115 161.183 235.779 159.209 231.947 158.849C228.47 158.522 225.186 159.576 223.167 161.675C221.756 163.138 220.088 166.226 224.775 170.427C225.169 170.78 225.156 171.339 224.745 171.677C224.544 171.843 224.292 171.924 224.035 171.924C223.766 171.924 223.496 171.832 223.295 171.652C223.082 171.46 222.851 171.243 222.615 171.005C221.298 172.144 220.584 173.225 220.55 174.162C220.524 174.827 220.841 175.434 221.516 176.015C221.722 176.191 221.833 176.437 221.816 176.691C221.799 176.941 221.657 177.176 221.431 177.331C219.63 178.562 215.024 182.337 215.341 185.013C215.448 185.936 216.17 186.675 217.539 187.27C217.834 187.399 218.035 187.638 218.086 187.917C218.138 188.196 218.031 188.479 217.8 188.682C217.791 188.689 217.71 188.762 217.577 188.887C216.008 190.417 211.291 195.879 216.444 202.032C220.601 206.994 227.414 209.395 236.673 209.159C237.242 209.148 237.712 209.531 237.729 210.016C237.747 210.505 237.302 210.909 236.733 210.924C236.314 210.935 235.899 210.939 235.488 210.939C231.575 210.939 228.03 210.461 224.933 209.516C220.699 208.226 217.282 206.053 214.772 203.061C212.176 199.966 211.415 196.511 212.574 193.074L212.569 193.07ZM264.237 164.756C268.381 166.358 271.636 168.222 273.646 170.097C277.893 166.061 276.276 163.098 274.903 161.672C272.936 159.632 269.741 158.566 266.354 158.827C263.048 159.08 260.067 160.543 258.143 162.804C260.204 163.337 262.265 163.991 264.241 164.756H264.237Z" fill="#D3A98C"/>
<path d="M248.712 194.552C248.712 195.243 248.819 195.908 249.016 196.526C249.777 198.923 251.877 200.643 254.353 200.643C254.533 200.643 254.713 200.635 254.884 200.613C257.749 200.327 259.994 197.724 259.994 194.552C259.994 191.185 257.467 189.641 254.353 189.641C251.24 189.641 248.712 191.189 248.712 194.552Z" fill="#5F5C5D"/>
<path d="M249.016 196.526C249.777 198.923 251.877 200.643 254.353 200.643C254.533 200.643 254.713 200.636 254.884 200.614C254.965 200.5 255.042 200.375 255.123 200.25C256.996 197.294 257.039 194.21 255.23 193.365C253.558 192.589 250.889 193.982 249.016 196.53V196.526Z" fill="#E27FA3"/>
<path d="M254.349 201.529C258.027 201.529 261.016 198.4 261.016 194.552C261.016 193.861 260.918 193.214 260.73 192.622L258.75 193.096C258.891 193.534 258.964 194.023 258.964 194.552C258.964 197.426 256.894 199.76 254.349 199.76C251.804 199.76 249.734 197.423 249.734 194.552C249.734 194.023 249.807 193.53 249.948 193.096L247.968 192.622C247.776 193.214 247.682 193.861 247.682 194.552C247.682 198.397 250.671 201.529 254.349 201.529Z" fill="#F8D4AE"/>
<path d="M247.968 192.622C248.665 190.468 250.632 189.086 253.323 188.81V186.822H255.375V188.81C258.061 189.09 260.029 190.468 260.73 192.622C260.884 193.093 260.563 193.578 260.016 193.71C259.468 193.839 258.904 193.567 258.75 193.096C258.023 190.854 255.679 190.52 254.349 190.52C253.019 190.52 250.675 190.854 249.948 193.096C249.82 193.486 249.409 193.743 248.96 193.743C248.87 193.743 248.776 193.732 248.682 193.71C248.135 193.578 247.818 193.093 247.968 192.622Z" fill="#D3A98C"/>
<path d="M256.38 185.278C255.859 184.822 255.008 184.818 254.477 185.267L254.349 185.377L254.225 185.267C253.703 184.811 252.852 184.807 252.322 185.256C251.791 185.704 251.787 186.436 252.309 186.891L252.758 187.281C253.622 188.035 255.038 188.042 255.914 187.299L256.368 186.914C256.898 186.465 256.902 185.734 256.38 185.278Z" fill="#E27FA3"/>
<path d="M274.625 210.894C271.76 208.523 265.725 206.406 260.067 205.678C257.557 205.355 255.67 203.55 255.623 201.374C255.611 200.903 255.688 200.448 255.837 200.018C256.385 198.455 257.916 197.239 259.866 196.923C265.486 196.011 271.422 193.692 274.185 191.229L274.625 210.898V210.894Z" fill="#95A1B3"/>
<path d="M270.911 201.121C270.745 193.767 275.405 187.726 281.318 187.627C287.231 187.529 292.159 193.41 292.325 200.764C292.491 208.118 287.832 214.159 281.918 214.257C276.005 214.356 271.077 208.474 270.911 201.121Z" fill="white"/>
<path d="M273.915 211.53L275.339 210.259C272.384 207.814 266.166 205.572 260.221 204.807C258.194 204.546 256.693 203.094 256.654 201.356C256.616 199.617 258.048 198.117 260.063 197.79C265.969 196.827 272.08 194.379 274.925 191.839L273.445 190.615C270.866 192.916 265.208 195.155 259.678 196.055C256.676 196.544 254.541 198.786 254.597 201.389C254.657 203.991 256.889 206.16 259.913 206.55C265.477 207.266 271.234 209.314 273.915 211.527V211.53Z" fill="#70838E"/>
<path d="M281.772 215.14C281.827 215.14 281.883 215.14 281.938 215.14C285.146 215.085 288.101 213.515 290.257 210.718C292.335 208.02 293.434 204.48 293.353 200.745C293.268 197.011 292.01 193.508 289.812 190.883C287.532 188.159 284.513 186.693 281.301 186.741C278.094 186.796 275.138 188.365 272.983 191.163C270.904 193.861 269.805 197.4 269.886 201.135C269.972 204.87 271.229 208.373 273.428 210.997C275.669 213.673 278.624 215.14 281.772 215.14ZM281.468 188.509C286.75 188.509 291.146 193.982 291.3 200.782C291.454 207.638 287.237 213.287 281.9 213.376C276.554 213.464 272.098 207.957 271.944 201.106C271.867 197.728 272.846 194.544 274.698 192.144C276.473 189.843 278.833 188.556 281.344 188.512C281.387 188.512 281.429 188.512 281.472 188.512L281.468 188.509Z" fill="#E2E2E2"/>
<path d="M285.073 205.157L277.127 205.289L276.272 201.234L277.089 196.327L284.804 196.202C284.829 196.199 284.851 196.202 284.872 196.199C286.707 196.169 288.238 198.15 288.298 200.624C288.354 203.102 286.912 205.131 285.073 205.16V205.157Z" fill="#95A1B3"/>
<path d="M277.106 204.41L281.802 204.333C281.096 203.4 280.655 202.15 280.621 200.753C280.608 200.264 281.062 199.863 281.626 199.852C282.191 199.838 282.661 200.231 282.674 200.716C282.721 202.837 283.961 204.3 285.052 204.274C286.138 204.256 287.314 202.76 287.267 200.639C287.22 198.533 285.993 197.081 284.911 197.081C284.902 197.081 284.894 197.081 284.889 197.081L277.106 197.209C277.106 197.209 277.093 197.209 277.084 197.209C276.528 197.209 276.498 195.452 277.063 195.445L284.812 195.316C284.812 195.316 284.834 195.316 284.847 195.316C284.868 195.316 284.889 195.316 284.911 195.316C287.323 195.316 289.252 197.625 289.32 200.606C289.389 203.613 287.528 205.998 285.09 206.042L277.14 206.175C277.14 206.175 277.127 206.175 277.118 206.175C276.563 206.175 276.533 204.418 277.097 204.41H277.106Z" fill="#70838E"/>
<path d="M281.784 210.545C281.784 210.545 281.819 210.545 281.84 210.545C282.409 210.534 282.858 210.134 282.845 209.645C282.832 209.156 282.37 208.77 281.797 208.781C281.793 208.781 281.789 208.781 281.78 208.781C280.702 208.781 278.397 206.987 277.58 203.363C277.576 203.337 277.568 203.311 277.559 203.286C277.396 202.561 277.307 201.797 277.29 201.014C277.272 200.246 277.328 199.474 277.461 198.724C277.469 198.702 277.473 198.676 277.478 198.65C277.756 197.103 278.337 195.732 279.15 194.68C279.732 193.923 280.638 193.115 281.442 193.1C282.011 193.089 282.46 192.688 282.447 192.199C282.435 191.718 281.977 191.335 281.421 191.335C281.412 191.335 281.408 191.335 281.4 191.335C279.509 191.369 278.102 192.835 277.435 193.706C276.473 194.952 275.788 196.54 275.459 198.308C275.451 198.334 275.446 198.36 275.442 198.386C275.284 199.257 275.215 200.154 275.232 201.047C275.254 201.959 275.361 202.848 275.553 203.69C275.557 203.719 275.566 203.745 275.575 203.771C276.131 206.167 277.213 207.715 278.025 208.597C279.171 209.836 280.531 210.542 281.776 210.542L281.784 210.545Z" fill="#E2E2E2"/>
<path d="M262.774 203.914C265.794 203.634 267.389 205.27 268.052 207.634C269.39 208.939 270.511 210.81 271.127 212.989C272.44 217.643 270.956 221.947 267.812 222.605C264.669 223.26 261.055 220.021 259.738 215.364C259.601 214.879 259.494 214.397 259.417 213.923C258.087 213.019 257.163 211.677 256.966 210.115C256.577 207.027 259.173 204.248 262.77 203.914H262.774Z" fill="#F8D4AE"/>
<path d="M257.578 205.425C258.844 204.069 260.653 203.219 262.663 203.032C264.686 202.844 266.375 203.4 267.551 204.638C268.189 205.311 268.668 206.175 268.988 207.215C270.408 208.66 271.516 210.623 272.128 212.777C272.803 215.177 272.803 217.581 272.128 219.544C271.392 221.676 269.946 223.065 268.056 223.458C267.701 223.532 267.342 223.569 266.978 223.569C265.413 223.569 263.805 222.885 262.351 221.584C260.704 220.106 259.421 217.97 258.741 215.57C258.626 215.166 258.536 214.769 258.463 214.383C257.043 213.306 256.154 211.836 255.949 210.207C255.73 208.48 256.308 206.781 257.578 205.425ZM263.835 220.363C265.097 221.496 266.422 221.984 267.577 221.746C268.727 221.507 269.647 220.547 270.164 219.044C270.738 217.375 270.729 215.298 270.139 213.196C269.946 212.512 269.694 211.854 269.399 211.229C269.301 212.096 269.061 212.857 268.676 213.508C267.838 214.934 266.324 215.791 264.301 215.978C264.023 216.004 263.745 216.019 263.471 216.019C262.582 216.019 261.714 215.883 260.888 215.625C261.508 217.533 262.543 219.202 263.839 220.363H263.835ZM257.993 210.016C258.151 211.277 258.874 212.405 260.02 213.203C261.17 213.997 262.607 214.357 264.074 214.221C265.409 214.096 266.311 213.604 266.837 212.71C267.338 211.861 267.5 210.63 267.312 209.149C267.124 207.667 266.658 206.495 265.956 205.756C265.323 205.09 264.493 204.763 263.424 204.763C263.249 204.763 263.069 204.771 262.881 204.789C261.414 204.925 260.101 205.546 259.173 206.531C258.249 207.52 257.826 208.755 257.989 210.016H257.993Z" fill="#D3A98C"/>
<path d="M226.033 188.038C229.501 187.156 233.141 188.854 234.167 191.835C234.958 194.125 233.97 196.507 231.892 197.886C233.658 201.918 236.874 208.222 241.035 211.799L231.528 217.651C231.528 217.651 224.022 204.859 223.206 194.625C222.179 191.644 222.564 188.921 226.028 188.038H226.033Z" fill="#F8D4AE"/>
<path d="M225.742 187.189C229.745 186.171 233.97 188.141 235.155 191.582C235.728 193.251 235.514 195.008 234.548 196.537C234.163 197.143 233.679 197.684 233.111 198.15C234.744 201.797 237.845 207.807 241.762 211.174C242.164 211.519 242.164 212.078 241.762 212.424C241.561 212.596 241.301 212.681 241.035 212.681C240.77 212.681 240.509 212.596 240.308 212.424C238.097 210.523 234.796 206.7 231.383 199.209C230.959 199.4 230.51 199.555 230.04 199.676C229.415 199.834 228.812 199.915 228.231 199.915C226.999 199.915 225.874 199.558 224.912 198.86C226.939 207.792 232.379 217.143 232.443 217.254C232.7 217.687 232.495 218.22 231.99 218.441C231.84 218.503 231.682 218.536 231.528 218.536C231.152 218.536 230.793 218.36 230.609 218.051C230.532 217.919 228.684 214.761 226.713 210.292C224.069 204.315 222.551 199.099 222.188 194.787C220.87 190.869 222.162 188.104 225.733 187.196L225.742 187.189ZM226.234 197.503C227.119 198.154 228.175 198.308 229.462 197.981C230.878 197.621 232.041 196.809 232.747 195.695C233.448 194.581 233.607 193.298 233.188 192.085C232.478 190.027 230.275 188.689 227.893 188.689C227.375 188.689 226.849 188.751 226.328 188.884C223.873 189.509 223.159 191.357 224.198 194.375C224.69 195.805 225.395 196.886 226.238 197.503H226.234Z" fill="#D3A98C"/>
<path d="M292.793 188.509C292.062 187.799 292.044 186.737 292.759 186.013L297.857 180.844C298.729 179.962 300.307 179.944 301.205 180.811L302.681 182.241C303.575 183.109 303.369 184.454 302.245 185.094L295.667 188.832C294.747 189.354 293.52 189.218 292.789 188.509H292.793Z" fill="#E27FA3"/>
<path d="M294.127 192.945C294.029 192.001 294.752 191.137 295.821 190.92L303.493 189.358C304.806 189.089 306.089 189.883 306.209 191.038L306.41 192.942C306.534 194.096 305.439 195.077 304.092 195.019L296.219 194.677C295.115 194.629 294.226 193.894 294.123 192.949L294.127 192.945Z" fill="#E27FA3"/>
<path d="M287.823 186.84C288.901 187.038 289.987 186.523 290.364 185.634L293.079 179.271C293.546 178.183 292.78 176.996 291.463 176.753L289.286 176.356C287.969 176.114 286.707 176.933 286.613 178.087L286.074 184.847C285.997 185.792 286.746 186.641 287.823 186.84Z" fill="#E27FA3"/>
</g>
<g clip-path="url(#clip1_1185_191)">
<path d="M50.8358 161.531C50.9553 158.336 49.8339 155.712 49.3968 154.814C49.2878 154.596 49.225 154.48 49.225 154.48C57.6821 152.766 49.1715 141.138 49.1715 141.138C52.3514 139.331 51.5247 135.76 48.5987 131.953L50.3506 133.474C52.5817 132.144 57.3 128.555 54.8575 123.132C51.8435 116.433 41.7377 114.712 35.9712 120.989L38.2021 122.928C35.1319 121.014 31.871 119.469 28.8478 118.638C25.8209 117.804 22.2267 117.466 18.6059 117.543L21.5224 117.018C19.7837 108.676 10.2217 104.994 4.20005 109.206C-0.677925 112.617 1.53998 118.108 2.78053 120.395L5.0659 119.983C0.603469 121.759 -1.93787 124.404 -0.126977 127.584C-0.126977 127.584 -13.3968 133.222 -7.01132 139.018C-7.01132 139.018 -10.104 140.771 -11.9992 144.257C-13.3585 146.744 -14.1129 150.113 -12.7014 154.361C-10.0809 162.243 -2.05998 165.479 4.73732 166.79C3.05681 167.611 1.60508 168.946 0.649082 170.714C-1.79447 175.232 -0.113889 180.877 4.40918 183.32C8.93225 185.763 14.5763 184.08 17.0219 179.558C19.2552 175.429 18.0428 170.365 14.3686 167.656C15.0001 167.65 15.3544 167.629 15.3544 167.629C15.3544 167.629 34.6584 180.591 46.2566 170.569C49.6475 167.639 50.7282 164.355 50.8378 161.527L50.8358 161.531Z" fill="#F8D4AE"/>
<path d="M13.789 117.893C9.95762 118.368 6.37444 119.287 3.72834 120.571C2.92953 117.967 2.14884 113.373 5.93981 111.963C9.95802 110.464 12.6698 115.318 13.789 117.893Z" fill="#FFF1E6"/>
<path d="M49.436 133.14C47.8224 130.684 45.2141 128.058 42.1581 125.698C44.4353 124.059 49.259 121.276 51.9395 124.617C54.4663 127.769 51.453 131.313 49.434 133.143L49.436 133.14Z" fill="#FFF1E6"/>
<path d="M46.2578 170.573C34.6588 180.596 15.3536 167.632 15.3536 167.632C15.3536 167.632 -7.8684 168.904 -12.7076 154.362C-14.1193 150.113 -13.3648 146.744 -12.0055 144.257C-7.82489 149.032 -1.73452 151.766 5.27173 151.673C10.7182 151.597 15.3377 143.502 21.5277 145.204C27.7178 146.906 27.5428 156.223 32.1843 159.073C38.1594 162.736 44.794 163.499 50.8335 161.532C50.7239 164.36 49.6432 167.645 46.2521 170.575L46.2578 170.573Z" fill="#FFF1E6"/>
<path d="M-0.405439 160.006C3.70197 158.957 6.18169 154.779 5.13316 150.675C4.08464 146.571 -0.0950657 144.094 -4.20247 145.143C-8.30988 146.192 -10.7896 150.369 -9.74107 154.474C-8.69255 158.578 -4.51284 161.055 -0.405439 160.006Z" fill="#FD9DB4"/>
<path d="M45.6344 165.761C46.7617 161.677 44.3605 157.453 40.2723 156.331C36.1861 155.206 31.9603 157.607 30.8368 161.694C29.7096 165.779 32.1107 170.002 36.1989 171.124C40.2851 172.249 44.511 169.848 45.6344 165.761Z" fill="#FD9DB4"/>
<path d="M50.6376 155.128C52.1116 154.582 53.1093 153.648 53.617 152.343C55.0142 148.733 51.9574 143.489 50.5663 141.39C51.8325 140.326 52.3816 138.855 52.1625 137.09C52.0472 136.178 51.7159 135.183 51.1884 134.14C52.4478 133.347 54.062 132.104 55.1949 130.394C56.7674 128.022 56.9665 125.368 55.7717 122.718C54.2343 119.309 50.9255 116.889 46.9208 116.247C42.6361 115.56 38.3281 117.024 35.3582 120.166C33.2086 119.068 31.08 118.208 29.1123 117.666C27.1445 117.125 24.874 116.777 22.4661 116.621C21.5213 112.402 18.5708 108.944 14.5378 107.345C10.7639 105.847 6.6806 106.235 3.61712 108.38C1.23459 110.044 0.0495561 112.431 0.184822 115.271C0.284613 117.319 1.03197 119.215 1.70836 120.537C0.72035 121.167 -0.0734732 121.849 -0.640574 122.576C-1.73324 123.98 -2.01279 125.524 -1.47151 127.086C-3.7388 128.179 -9.05811 131.12 -9.70336 134.938C-9.93772 136.318 -9.55576 137.631 -8.57382 138.851C-9.47181 139.52 -10.79 140.663 -11.9599 142.281C-13.7806 144.808 -15.5582 149.015 -13.673 154.683C-12.2875 158.855 -9.30284 162.196 -4.90307 164.573C-2.66393 165.782 -0.0536587 166.743 2.89613 167.434C8.56929 168.76 13.7127 168.699 15.0603 168.654C16.1968 169.384 20.5831 172.063 26.1378 173.822C34.7023 176.536 41.883 175.673 46.9048 171.336C53.8804 165.306 51.743 157.835 50.6318 155.13L50.6376 155.128ZM46.6001 118.242C49.937 118.779 52.6762 120.761 53.9349 123.551C54.7922 125.458 55.413 129.106 50.1602 132.406C48.7426 130.303 46.6319 128.052 43.9552 125.838C41.8399 124.087 39.5329 122.503 37.2045 121.173C39.6959 118.781 43.1533 117.694 46.5981 118.246L46.6001 118.242ZM4.7733 110.038C7.28032 108.287 10.6517 107.984 13.7911 109.226C17.0337 110.509 19.4493 113.214 20.3637 116.543C17.6842 116.496 14.8889 116.681 12.1735 117.102C8.73953 117.637 5.77643 118.49 3.47894 119.576C0.65347 114.056 3.05584 111.24 4.77128 110.042L4.7733 110.038ZM45.5942 169.812C41.0768 173.717 34.7528 174.424 26.8016 171.916C20.7271 170.001 15.9612 166.828 15.9146 166.798C15.734 166.676 15.5154 166.616 15.2964 166.628C15.2411 166.632 9.52197 166.918 3.32061 165.461C-4.79626 163.554 -9.86786 159.713 -11.7493 154.047C-14.8256 144.784 -6.85856 140.092 -6.51774 139.899C-6.23684 139.737 -6.04898 139.452 -6.01216 139.134C-5.97707 138.81 -6.09626 138.495 -6.3365 138.278C-7.43223 137.285 -7.88183 136.304 -7.70652 135.283C-7.2023 132.306 -1.78115 129.391 0.264135 128.521C0.528259 128.408 0.732984 128.19 0.823543 127.915C0.917841 127.643 0.887566 127.341 0.745233 127.096C0.0720594 125.911 0.139468 124.875 0.958391 123.826C2.57865 121.741 6.8906 119.975 12.4916 119.104C18.1613 118.221 24.1769 118.414 28.5779 119.628C30.6794 120.208 32.9759 121.168 35.2861 122.416C37.8168 123.783 40.3576 125.489 42.6692 127.404C47.0331 131.017 49.8326 134.736 50.1594 137.355C50.3243 138.676 49.8516 139.604 48.6663 140.277C48.4166 140.417 48.2414 140.661 48.1811 140.942C48.1207 141.223 48.1835 141.518 48.353 141.749C49.6626 143.543 52.8287 148.817 51.7365 151.632C51.3632 152.598 50.4765 153.211 49.022 153.507C48.7061 153.573 48.439 153.781 48.3041 154.075C48.1691 154.369 48.1829 154.71 48.3413 154.989C48.3485 155.002 48.4025 155.099 48.4882 155.271C48.886 156.089 49.8196 158.284 49.8293 161.008C49.8419 164.414 48.4178 167.377 45.5939 169.821L45.5942 169.812Z" fill="#D3A98C"/>
<path d="M34.4467 155.677C33.9795 157.38 32.2152 158.383 30.5133 157.913C28.8094 157.446 27.8068 155.683 28.2777 153.981C28.7486 152.28 30.5092 151.276 32.2111 151.746C33.915 152.212 34.9176 153.976 34.4467 155.677Z" fill="#5F5C5D"/>
<path d="M11.2372 149.294C10.77 150.997 9.0057 152 7.30379 151.53C5.59987 151.063 4.59728 149.3 5.06821 147.599C5.53539 145.895 7.2997 144.893 9.00161 145.363C10.7055 145.83 11.7081 147.593 11.2372 149.294Z" fill="#5F5C5D"/>
<path d="M24.9714 152.831C24.9714 152.831 23.8974 156.264 21.8718 158.535C21.7198 158.709 21.5587 158.873 21.388 159.037C20.1994 160.172 18.7272 160.84 16.986 160.29C15.4142 159.794 14.5911 158.601 14.2064 157.195C14.1432 156.973 14.0955 156.739 14.0536 156.504C13.5222 153.388 14.7347 149.61 14.7347 149.61C14.6595 150.829 15.4174 151.982 16.6333 152.369C18.0638 152.823 19.5972 152.024 20.0519 150.594C19.5972 152.024 20.3924 153.554 21.8267 154.01C23.0446 154.393 24.3275 153.879 24.9673 152.838L24.9714 152.831Z" fill="#5F5C5D"/>
<path d="M21.3906 159.033C20.2019 160.168 18.7297 160.836 16.9884 160.286C15.4166 159.79 14.5935 158.597 14.2088 157.191C15.3992 156.062 16.8755 155.387 18.613 155.934C20.1885 156.433 21.0099 157.62 21.3886 159.036L21.3906 159.033Z" fill="#E27FA3"/>
<path d="M15.7642 160.861C14.8969 160.393 14.2198 159.689 13.7361 158.761C11.9059 155.233 13.6971 149.537 13.7732 149.298L15.6968 149.912C15.2424 151.332 14.334 155.53 15.5302 157.838C15.9207 158.589 16.4946 159.073 17.2908 159.325C18.0871 159.576 18.8384 159.509 19.5888 159.113C21.9035 157.905 23.5627 153.953 24.0038 152.53L25.9297 153.131C25.8536 153.37 24.0455 159.062 20.5203 160.9C19.2865 161.547 17.9937 161.66 16.6779 161.244C16.3523 161.14 16.0445 161.013 15.7604 160.859L15.7642 160.861Z" fill="#F8D4AE"/>
<path d="M25.4989 151.972C25.0234 151.681 24.4025 151.829 24.1079 152.302C23.6965 152.974 22.8826 153.273 22.1315 153.036C21.2486 152.757 20.7517 151.827 20.9967 150.945L21.3887 149.515L19.4415 148.98L19.0821 150.288C18.9446 150.721 18.6461 151.076 18.2382 151.285C17.8302 151.495 17.3668 151.539 16.9301 151.4C16.179 151.163 15.6866 150.448 15.7325 149.666C15.7675 149.111 15.3397 148.633 14.7837 148.598C14.2277 148.564 13.75 148.991 13.7151 149.547C13.6262 151.016 14.4061 152.369 15.6622 153.047C15.8678 153.158 16.0873 153.253 16.3189 153.325C17.2676 153.625 18.2821 153.535 19.1676 153.077C19.2025 153.057 19.2411 153.039 19.276 153.02C19.7073 153.919 20.4941 154.643 21.5183 154.965C23.1522 155.48 24.9227 154.824 25.8195 153.362C26.1104 152.887 25.963 152.266 25.4894 151.972L25.4989 151.972Z" fill="#D3A98C"/>
<path d="M22.6668 148.482C22.3162 147.853 21.5228 147.632 20.8936 147.983L20.7406 148.069L20.6542 147.917C20.3036 147.288 19.5102 147.067 18.881 147.417C18.2518 147.768 18.0305 148.561 18.3811 149.19L18.6833 149.73C19.266 150.769 20.5813 151.142 21.6211 150.559L22.1612 150.257C22.7905 149.906 23.0117 149.113 22.6611 148.484L22.6668 148.482Z" fill="#E27FA3"/>
<path d="M31.8703 205.242C43.7562 201.698 50.519 189.197 46.9756 177.32C43.4322 165.443 30.9243 158.688 19.0385 162.232C7.15272 165.776 0.389864 178.278 3.93327 190.155C7.47668 202.032 19.9845 208.787 31.8703 205.242Z" fill="#B5F6F8"/>
<path d="M47.9274 176.982C46.1303 170.999 42.1145 166.073 36.6158 163.102C36.6158 163.102 36.5971 163.092 36.5896 163.088L36.5746 163.08C36.5522 163.068 36.526 163.054 36.5036 163.042C30.9999 160.107 24.6863 159.483 18.7058 161.28C12.7024 163.083 7.76252 167.117 4.79253 172.635C-1.32765 184.013 2.93396 198.238 14.2978 204.376C14.3128 204.385 14.3277 204.393 14.3427 204.401C25.7394 210.523 39.9928 206.237 46.1248 194.846C49.0948 189.328 49.7335 182.985 47.9312 176.984L47.9274 176.982ZM31.5861 198.48C33.6028 196.368 35.4491 193.874 37.0268 191.1L43.842 194.762C41.4153 198.811 37.8252 201.788 33.7375 203.496C33.2179 201.733 32.4903 200.05 31.5882 198.477L31.5861 198.48ZM4.39433 187.732C3.56603 183.378 4.07194 178.745 6.11155 174.492L12.9267 178.154C11.4856 180.997 10.4186 183.917 9.77039 186.759C7.96041 186.872 6.15324 187.195 4.39433 187.732ZM19.3237 168.997C17.3071 171.109 15.4608 173.603 13.8831 176.377L7.06412 172.713C9.42872 168.76 12.9427 165.728 17.1651 163.968C17.6885 165.733 18.4141 167.419 19.32 168.995L19.3237 168.997ZM46.527 179.741C47.3871 184.233 46.7908 188.836 44.7983 192.985L37.9794 189.321C39.4205 186.478 40.4876 183.558 41.1377 180.712C42.9535 180.597 44.7607 180.274 46.5253 179.736L46.527 179.741ZM36.2035 188.371L26.8219 183.328L29.4564 178.43C32.4785 179.888 35.7562 180.669 39.0619 180.755C38.4414 183.269 37.4843 185.842 36.2055 188.367L36.2035 188.371ZM30.4127 176.653L36.4621 165.405C38.5834 167.029 39.7856 170.04 39.8671 174.024C39.9004 175.534 39.7659 177.122 39.4819 178.746C36.3663 178.719 33.2649 178.015 30.4127 176.653ZM34.6882 164.451L28.6388 175.699C25.9301 174.072 23.6314 171.874 21.8888 169.291C23.0906 168.158 24.3392 167.172 25.6199 166.366C28.9927 164.238 32.1665 163.577 34.692 164.454L34.6882 164.451ZM27.6767 177.478L25.0423 182.376L15.6607 177.332C17.0608 174.877 18.6816 172.658 20.4406 170.754C22.3332 173.462 24.7941 175.762 27.6767 177.478ZM14.7044 179.109L24.0859 184.153L21.4535 189.047C18.4313 187.588 15.1536 186.808 11.8479 186.722C12.4685 184.208 13.4256 181.635 14.7044 179.109ZM20.4972 190.824L14.4477 202.072C12.3265 200.448 11.1243 197.437 11.0428 193.453C11.0094 191.943 11.142 190.358 11.428 188.731C14.5435 188.757 17.645 189.462 20.4972 190.824ZM16.2254 203.027L22.2748 191.78C24.9835 193.407 27.2822 195.605 29.0248 198.188C27.823 199.321 26.5744 200.307 25.2937 201.112C21.9209 203.24 18.7471 203.902 16.2216 203.025L16.2254 203.027ZM23.2331 189.999L25.8656 185.105L35.2471 190.148C33.847 192.603 32.2262 194.823 30.4673 196.727C28.5747 194.019 26.1138 191.719 23.2311 190.003L23.2331 189.999ZM46.0538 177.776C44.5768 178.239 43.0615 178.531 41.5399 178.665C41.7968 177.056 41.9155 175.488 41.8859 173.98C41.8461 172.196 41.6054 170.569 41.1704 169.131C43.3799 171.503 45.0336 174.366 45.9923 177.56C46.0129 177.629 46.0315 177.701 46.0521 177.77L46.0538 177.776ZM28.9792 162.584C27.5394 163.014 26.0473 163.71 24.5375 164.661C23.2625 165.465 22.0183 166.435 20.8157 167.533C20.0887 166.189 19.5011 164.766 19.0696 163.277C19.1388 163.257 19.2099 163.232 19.279 163.212C22.4757 162.249 25.7773 162.048 28.9754 162.582L28.9792 162.584ZM4.86554 189.701C6.34052 189.242 7.85206 188.948 9.36995 188.812C9.11505 190.417 8.99433 191.989 9.02599 193.494C9.06408 195.272 9.30305 196.893 9.73633 198.325C7.43521 195.845 5.78481 192.877 4.86756 189.697L4.86554 189.701ZM21.9459 204.891C23.382 204.46 24.8663 203.769 26.3704 202.819C27.6453 202.016 28.8875 201.05 30.0864 199.949C30.8117 201.288 31.3993 202.711 31.829 204.194C28.6677 205.18 25.2805 205.442 21.9422 204.889L21.9459 204.891Z" fill="#95E0E8"/>
<path d="M44.884 184.943L13.7998 168.151L6.02224 182.532L37.1065 199.324L44.884 184.943Z" fill="white"/>
<path d="M36.6312 200.211L5.54697 183.42C5.05725 183.155 4.87149 182.543 5.13829 182.05L12.9158 167.669C13.1806 167.18 13.7931 166.994 14.2865 167.26L45.3707 184.052C45.8604 184.316 46.0462 184.929 45.7794 185.422L38.0019 199.803C37.7371 200.292 37.1246 200.478 36.6312 200.211ZM7.39301 182.123L36.7015 197.956L43.5169 185.354L14.2084 169.522L7.39301 182.123Z" fill="#E2E2E2"/>
<path d="M5.31813 167.683C-5.25465 169.727 -11.6556 178.775 -6.77755 182.072C-1.9032 185.367 10.595 190.65 10.6319 184.035C10.6688 177.42 0.279498 175.99 0.279498 175.99L5.31813 167.683Z" fill="#F8D4AE"/>
<path d="M-7.34431 182.905C-9.06032 181.747 -9.76266 179.928 -9.32729 177.793C-8.87393 175.57 -7.16273 173.138 -4.63943 171.116C-1.94638 168.959 1.97489 166.746 5.57754 166.051C6.12285 165.945 6.65327 166.304 6.75941 166.849C6.86554 167.394 6.50631 167.924 5.961 168.03C0.502454 169.085 -6.42106 173.669 -7.3475 178.196C-7.62002 179.521 -7.24012 180.543 -6.21264 181.233C-2.08088 184.025 5.97563 187.286 8.71812 185.841C9.10299 185.638 9.62004 185.227 9.62612 184.028C9.65676 178.38 0.239407 177.002 0.144735 176.989C-0.408032 176.913 -0.792834 176.401 -0.718216 175.852C-0.641578 175.299 -0.132919 174.913 0.419849 174.989C0.531493 175.006 3.19288 175.381 5.89339 176.613C9.67324 178.341 11.6617 180.907 11.6451 184.037C11.6329 186.141 10.5605 187.15 9.66114 187.625C5.36936 189.889 -4.305 184.958 -7.33855 182.904L-7.34431 182.905Z" fill="#D3A98C"/>
<path d="M49.0057 169.606C51.3605 172.191 52.3602 175.112 49.7788 177.464C47.1973 179.817 43.1854 179.635 40.8307 177.049C38.4759 174.464 38.6612 170.459 41.2485 168.105C43.8357 165.75 46.6509 167.02 49.0077 169.602L49.0057 169.606Z" fill="#F8D4AE"/>
<path d="M42.0245 179.254C41.3068 178.866 40.65 178.357 40.0843 177.732C37.3584 174.744 37.576 170.09 40.5668 167.365C42.026 166.033 43.7235 165.574 45.4657 166.032C46.8969 166.404 48.3392 167.381 49.748 168.93C51.1606 170.48 51.9978 172.004 52.2382 173.462C52.531 175.242 51.9137 176.884 50.4544 178.216C49.005 179.538 47.1276 180.214 45.1683 180.121C44.0482 180.067 42.9777 179.769 42.0207 179.252L42.0245 179.254ZM45.9437 168.381C45.6073 168.199 45.2789 168.065 44.9564 167.983C43.8741 167.698 42.8838 167.984 41.9241 168.856C39.754 170.832 39.5965 174.205 41.573 176.373C42.5319 177.422 43.8413 178.038 45.2595 178.104C46.6778 178.17 48.0397 177.679 49.0933 176.722C50.0472 175.852 50.4259 174.892 50.2445 173.79C50.071 172.735 49.3815 171.527 48.2536 170.29C47.4748 169.435 46.6873 168.792 45.936 168.387L45.9437 168.381Z" fill="#D3A98C"/>
<path d="M14.3374 182.845C14.1334 182.739 13.997 182.586 13.9282 182.387C13.8697 182.183 13.8935 181.98 13.9996 181.776L17.049 175.911C17.1834 175.653 17.3521 175.495 17.5553 175.436C17.7653 175.381 17.9586 175.4 18.1354 175.492C18.3122 175.584 18.4268 175.704 18.4793 175.852C18.5353 175.993 18.5654 176.151 18.5695 176.326L19.1533 182.629L18.6801 182.966L21.1555 177.956C21.2548 177.749 21.4026 177.614 21.599 177.552C21.8057 177.486 22.011 177.507 22.215 177.613C22.419 177.719 22.5502 177.874 22.6087 178.077C22.6775 178.277 22.6589 178.479 22.5528 178.683L19.4663 184.618C19.3673 184.809 19.2126 184.94 19.0024 185.012C18.7957 185.077 18.5938 185.059 18.3966 184.956C18.2606 184.886 18.1541 184.791 18.0772 184.674C18.0002 184.556 17.9541 184.437 17.9389 184.317L17.2363 177.719L17.787 177.682L15.4071 182.508C15.3078 182.715 15.1548 182.852 14.9481 182.917C14.7517 182.979 14.5482 182.955 14.3374 182.845ZM22.1528 186.909C21.9488 186.803 21.8124 186.65 21.7436 186.45C21.6851 186.247 21.7089 186.044 21.815 185.84L24.8485 180.006C24.951 179.809 25.1056 179.677 25.3123 179.612C25.519 179.547 25.721 179.566 25.9181 179.668L26.6219 180.034L23.2224 186.572C23.1164 186.776 22.96 186.91 22.7533 186.975C22.5569 187.037 22.3568 187.015 22.1528 186.909ZM25.4849 181.049L26.1425 179.785L28.9676 181.254C29.1512 181.349 29.2708 181.485 29.3262 181.661C29.3885 181.84 29.3702 182.025 29.2712 182.215C29.1757 182.399 29.035 182.52 28.8489 182.578C28.6733 182.634 28.4936 182.614 28.31 182.518L25.4849 181.049ZM23.9571 184.012L24.6201 182.738L27.2412 184.101C27.4248 184.196 27.5425 184.335 27.5945 184.517C27.6532 184.703 27.6349 184.888 27.5394 185.072C27.444 185.255 27.3032 185.377 27.1172 185.435C26.9415 185.491 26.7619 185.471 26.5783 185.375L23.9571 184.012ZM30.7962 183.915C30.6058 183.816 30.4796 183.668 30.4176 183.472C30.3556 183.275 30.374 183.082 30.473 182.892C30.5756 182.695 30.7233 182.568 30.9161 182.513C31.1124 182.451 31.3058 182.47 31.4962 182.569L35.8614 184.838C36.0585 184.941 36.1847 185.089 36.24 185.281C36.3055 185.471 36.287 185.664 36.1845 185.862C36.0855 186.052 35.9378 186.178 35.7414 186.24C35.5519 186.306 35.3585 186.287 35.1613 186.185L30.7962 183.915ZM29.9134 190.945C29.7094 190.839 29.5764 190.688 29.5144 190.491C29.4559 190.288 29.4797 190.084 29.5858 189.88L32.6246 184.036L34.0219 184.763L30.9831 190.607C30.877 190.811 30.7206 190.946 30.5139 191.011C30.3176 191.073 30.1174 191.051 29.9134 190.945Z" fill="#DD528B"/>
<path d="M39.949 213.371H-20.4184C-19.9726 209.692 -14.2888 208.404 -11.5026 208.22C-10.7596 200.274 -4.25849 200.249 -1.10081 201.23C-0.357832 198.471 2.6141 192.953 9.48669 192.953C17.8081 193.247 20.0742 199.514 20.4457 202.886C26.0924 201.709 28.7423 206.381 29.1757 208.772C36.1598 208.625 39.2679 211.777 39.949 213.371Z" fill="#FFFEFF"/>
</g>
<path d="M475.832 154.71C475.435 154.513 475.221 154.42 475.221 154.42C485.32 144.7 460.554 136.767 460.554 136.767C463.083 131.569 457.998 127.565 449.697 125.081L453.846 125.558C455.554 121.828 458.311 112.918 448.921 107.872C437.332 101.64 421.133 108.243 419.836 121.648L425.126 122.257C418.678 122.414 412.376 123.234 407.18 124.793C401.983 126.353 396.527 129.06 391.484 132.35L395.031 129.09C383.449 119.556 365.877 123.078 361.955 133.964C358.781 142.779 367.926 148.118 372.183 150.059L374.961 147.51C370.589 153.79 369.882 159.532 375.919 162.16C375.919 162.16 363.289 181.312 378.676 183.385C378.676 183.385 371.453 198.198 387.397 208.75C395.243 213.937 404.132 214.7 412.403 213.481C412.517 215.06 412.901 216.619 413.581 218.137C418.47 229.041 436.694 233.605 454.29 228.326C471.885 223.047 482.18 209.927 477.291 199.022C476.581 197.438 475.587 195.993 474.363 194.686C481.169 191.238 486.826 186.082 488.615 178.382C492.015 163.77 478.86 156.237 475.834 154.716L475.832 154.71Z" fill="#F8D4AE"/>
<path d="M385.319 139.027C380.384 143.046 376.293 147.446 373.941 151.497C369.943 148.73 363.788 143.292 367.629 138.063C371.701 132.509 380.892 136.582 385.319 139.027Z" fill="#FFF1E6"/>
<path d="M422.612 159.637C432.323 156.708 441.865 169.257 450.798 169.16C464.441 168.999 470.981 163.073 475.624 153.479C475.624 153.479 493.151 161.133 489.26 178C483.694 202.049 441.433 201.833 441.433 201.833C441.433 201.833 409.37 224.465 386.208 209.081C369.98 198.289 377.33 183.125 377.33 183.125C388.415 187.975 398.06 189.013 408.598 181.888C415.491 177.218 412.901 162.566 422.612 159.637Z" fill="#FFF1E6"/>
<path d="M403.046 202.175C409.515 199.128 411.468 191.784 407.408 185.772C403.348 179.76 394.813 177.357 388.344 180.405C381.875 183.452 379.922 190.796 383.982 196.808C388.042 202.82 396.577 205.223 403.046 202.175Z" fill="#FD9DB4"/>
<path d="M475.076 179.409C481.542 176.356 483.488 169.01 479.422 163.001C475.356 156.992 466.819 154.595 460.353 157.648C453.887 160.701 451.942 168.047 456.007 174.056C460.073 180.065 468.611 182.461 475.076 179.409Z" fill="#FD9DB4"/>
<path d="M478.498 154.327C480.019 152.298 480.43 150.168 479.715 147.983C477.739 141.929 467.542 137.643 463.312 136.105C463.962 133.566 463.148 131.128 460.896 128.969C456.872 125.114 448.127 122.297 436.893 121.239C426.104 120.227 414.866 121.061 406.82 123.474C403.406 124.498 399.782 126.047 396.171 127.978C390.204 123.175 382.214 121.166 374.718 122.6C367.73 123.938 362.368 128.042 360.37 133.586C358.817 137.885 359.744 142.09 363.04 145.735C365.44 148.394 368.618 150.261 371.042 151.423C370.315 153.152 369.927 154.778 369.918 156.257C369.907 159.094 371.214 161.385 373.718 162.978C371.712 166.386 367.315 175.049 370.595 180.713C371.777 182.758 373.774 184.165 376.539 184.908C375.998 186.581 375.349 189.292 375.47 192.525C375.657 197.488 377.738 204.636 386.626 210.514C400.058 219.387 416.182 216.047 427.347 211.685C428.195 211.354 428.531 210.453 428.096 209.667C427.663 208.887 426.621 208.517 425.768 208.855C415.434 212.899 400.582 216.044 388.553 208.095C382.435 204.048 379.19 198.884 378.926 192.757C378.724 188.08 380.399 184.543 380.415 184.511C380.634 184.073 380.588 183.549 380.294 183.113C380.007 182.675 379.508 182.37 378.956 182.301C376.272 181.94 374.535 181.013 373.641 179.475C371.065 175.027 375.593 166.318 377.555 163.337C377.798 162.968 377.845 162.519 377.687 162.098C377.528 161.677 377.172 161.321 376.719 161.119C374.424 160.125 373.362 158.651 373.37 156.497C373.39 152.264 377.59 146.074 384.621 139.951C391.731 133.751 400.514 128.689 408.127 126.405C415.74 124.122 426.449 123.337 436.775 124.309C446.982 125.267 455.078 127.763 458.442 130.988C460.154 132.633 460.507 134.313 459.541 136.285C459.353 136.672 459.363 137.131 459.577 137.543C459.789 137.948 460.183 138.271 460.65 138.421C464.505 139.657 474.837 143.909 476.388 148.664C476.925 150.316 476.331 151.936 474.571 153.636C474.207 153.986 474.072 154.475 474.199 154.961C474.326 155.447 474.703 155.865 475.212 156.092C475.234 156.106 475.421 156.188 475.732 156.343C477.203 157.08 480.96 159.195 483.981 162.833C487.764 167.38 488.996 172.617 487.652 178.392C486.449 183.573 483.248 187.967 478.146 191.455C474.015 194.281 468.646 196.518 462.184 198.119C461.284 198.334 460.813 199.185 461.126 200.001C461.439 200.818 462.426 201.301 463.323 201.08C464.506 200.787 465.657 200.476 466.769 200.143C480.431 196.045 488.796 188.854 491.038 179.224C494.353 164.983 482.978 156.927 478.489 154.357L478.498 154.327ZM382.124 137.666C377.803 141.431 374.508 145.212 372.441 148.701C362.214 143.81 362.542 137.858 363.675 134.711C365.329 130.133 369.811 126.727 375.682 125.607C381.773 124.442 388.253 125.946 393.254 129.639C389.357 131.959 385.552 134.687 382.127 137.672L382.124 137.666Z" fill="#D3A98C"/>
<path d="M453.586 162.671C452.851 159.844 449.792 157.894 446.754 158.315C443.715 158.737 441.847 161.37 442.582 164.198C443.317 167.025 446.376 168.975 449.414 168.554C452.453 168.132 454.321 165.499 453.586 162.671Z" fill="#5F5C5D"/>
<path d="M412.35 175.715C411.615 172.888 408.555 170.938 405.517 171.361C402.478 171.783 400.612 174.418 401.347 177.245C402.083 180.072 405.143 182.021 408.181 181.599C411.219 181.176 413.086 178.542 412.35 175.715Z" fill="#5F5C5D"/>
<path d="M438.398 177.402C439.058 178.85 439.344 180.305 439.29 181.646C439.194 184.373 437.703 186.621 435.173 187.368C432.643 188.114 429.699 187.174 427.421 185.147C426.302 184.152 425.357 182.892 424.697 181.444C422.697 177.057 424.143 172.599 427.931 171.481C431.72 170.364 436.405 173.013 438.405 177.4L438.398 177.402Z" fill="#5F5C5D"/>
<path d="M439.213 181.49C439.116 184.262 437.601 186.547 435.029 187.305C432.457 188.064 429.465 187.109 427.15 185.049C427.254 182.275 428.762 179.992 431.347 179.23C433.932 178.467 436.911 179.426 439.213 181.49Z" fill="#E27FA3"/>
<path d="M435.753 188.821C431.057 190.206 425.291 187.064 422.901 181.826C422.239 180.375 421.889 178.902 421.86 177.446L425.304 177.679C425.324 178.74 425.586 179.821 426.074 180.891C427.723 184.506 431.465 186.737 434.414 185.868C437.362 184.999 438.422 181.353 436.772 177.738C436.352 176.816 435.793 175.969 435.102 175.224L437.668 173.387C438.605 174.408 439.369 175.557 439.939 176.805C442.329 182.043 440.456 187.435 435.76 188.819L435.753 188.821Z" fill="#F8D4AE"/>
<path d="M438.181 173.836C435.69 171.132 432.335 169.715 429.253 169.961L426.941 164.959L423.781 165.904L426.088 170.894C423.699 172.218 422.312 174.768 422.38 177.886C422.402 178.737 423.184 179.483 424.132 179.545C425.081 179.607 425.839 178.972 425.817 178.121C425.763 175.675 426.962 173.795 428.947 173.21C431.051 172.59 433.669 173.555 435.615 175.673C436.12 176.221 436.91 176.428 437.569 176.233C437.741 176.183 437.901 176.108 438.041 176.004C438.751 175.495 438.811 174.528 438.174 173.838L438.181 173.836Z" fill="#D3A98C"/>
<path d="M428.242 163.288C427.045 162.742 425.676 163.139 425.183 164.169L425.065 164.422L424.772 164.29C423.575 163.745 422.206 164.142 421.713 165.172C421.219 166.202 421.793 167.478 422.99 168.024L424.017 168.493C426 169.396 428.274 168.739 429.091 167.031L429.515 166.148C430.009 165.118 429.435 163.841 428.238 163.296L428.242 163.288Z" fill="#E27FA3"/>
<path d="M442.432 234.935C428.327 220.122 400.407 196.205 394.52 206.394C388.635 216.589 432.338 252.053 432.338 252.053L442.432 234.935Z" fill="#F8D4AE"/>
<path d="M432.903 253.556C432.377 253.671 431.768 253.542 431.304 253.165C431.196 253.073 420.172 244.112 410.018 234.016C395.715 219.794 390.143 210.49 392.979 205.576C394.11 203.615 396.027 202.527 398.516 202.408C403.5 202.183 411.047 205.901 420.932 213.456C428.232 219.03 436.741 226.718 443.685 234.01C444.32 234.68 444.283 235.631 443.602 236.148C442.918 236.659 441.857 236.533 441.216 235.865C434.396 228.701 426.05 221.164 418.896 215.698C410.012 208.91 402.941 205.272 398.998 205.45C397.591 205.515 396.639 206.065 395.987 207.177C393.144 212.094 406.504 226.224 412.379 232.069C422.403 242.039 433.291 250.896 433.396 250.982C434.118 251.571 434.233 252.532 433.651 253.137C433.44 253.35 433.174 253.49 432.881 253.556L432.903 253.556Z" fill="#D3A98C"/>
<path d="M465.472 227.501C463.897 208.842 465.203 175.94 477.933 180.395C490.662 184.851 487.014 234.871 487.014 234.871L465.479 227.499L465.472 227.501Z" fill="#F8D4AE"/>
<path d="M487.835 236.292C487.562 236.4 487.253 236.443 486.915 236.393C485.988 236.255 485.283 235.476 485.343 234.642C485.352 234.516 486.24 222.04 485.575 209.206C485.183 201.676 483.605 183.935 477.46 181.789C476.067 181.302 474.897 181.401 473.799 182.11C470.703 184.096 468.404 190.619 467.319 200.472C466.444 208.405 466.378 218.52 467.142 227.545C467.217 228.387 466.517 229.053 465.595 229.038C464.664 229.019 463.857 228.325 463.785 227.489C463.007 218.303 463.081 207.981 463.97 199.886C465.178 188.919 467.777 182.088 471.686 179.574C473.641 178.317 475.97 178.108 478.415 178.962C484.554 181.11 488 191.056 488.95 209.381C489.628 222.389 488.726 235.013 488.708 235.135C488.672 235.667 488.323 236.092 487.835 236.292Z" fill="#D3A98C"/>
<path d="M210.088 54.4963C209.648 55.9725 208.836 57.104 208.116 58.1092C207.988 58.288 207.864 58.4613 207.746 58.6303C207.584 58.5027 207.419 58.3731 207.248 58.2401C205.827 57.1258 204.217 55.8644 202.986 54.1202L202.078 52.8339L202.195 54.4037C202.573 59.5025 202.453 62.5498 202.095 67.6139C198.91 67.6095 195.211 65.4661 192.662 63.3337C193.239 61.9229 193.714 61.0584 194.6 59.8199L197.174 62.5367L197.278 61.6035C197.591 58.7841 197.603 43.8876 197.423 38.3546C201.267 38.3152 205.329 38.8474 209.819 39.9768C209.972 41.0289 209.665 42.4821 209.436 43.5658C209.423 43.6268 209.411 43.6867 209.398 43.7456C206.585 43.6006 204.845 43.1939 201.929 42.3196L200.983 42.0361L201.41 42.9258C202.844 45.9206 208.165 52.4936 210.088 54.4963H210.088Z" fill="white"/>
<path d="M196.173 38.3972C195.988 47.1516 194.237 51.4373 188.298 57.6733C186.95 56.1678 186.369 55.203 185.686 53.742C188.994 49.8467 190.372 47.4122 191.757 43.06L192.076 42.0548L191.14 42.541C189.825 43.2234 189.003 43.4502 187.655 43.6987C187.31 42.3293 187.226 41.4203 187.307 39.9691C190.851 39.1035 193.622 38.6117 196.173 38.397L196.173 38.3972Z" fill="white"/>
<path d="M216.818 62.2156C216.344 62.2156 215.939 62.0475 215.603 61.7112C215.267 61.3597 215.099 60.947 215.099 60.4732V51.6694C215.099 51.1956 215.267 50.7905 215.603 50.4543C215.939 50.118 216.344 49.9499 216.818 49.9499C217.292 49.9499 217.697 50.118 218.033 50.4543C218.369 50.7905 218.538 51.1956 218.538 51.6694V60.4732C218.538 60.947 218.369 61.3597 218.033 61.7112C217.697 62.0475 217.292 62.2156 216.818 62.2156ZM216.795 48.8724C216.275 48.8724 215.848 48.7042 215.511 48.368C215.175 48.0317 215.007 47.5579 215.007 46.9465C215.007 46.3351 215.175 45.8613 215.511 45.5251C215.848 45.1888 216.275 45.0207 216.795 45.0207C217.345 45.0207 217.789 45.1888 218.125 45.5251C218.461 45.8613 218.629 46.3351 218.629 46.9465C218.629 47.5579 218.461 48.0317 218.125 48.368C217.789 48.7042 217.345 48.8724 216.795 48.8724ZM222.963 61.9863C222.444 61.9863 222.016 61.8335 221.679 61.5278C221.343 61.2068 221.144 60.8171 221.083 60.3585C221.022 59.9 221.144 59.4644 221.45 59.0517L226.494 52.3343L228.626 53.3889H222.849C222.375 53.3889 221.97 53.236 221.634 52.9303C221.297 52.6094 221.129 52.2273 221.129 51.784C221.129 51.3408 221.297 50.9663 221.634 50.6606C221.97 50.3396 222.375 50.1792 222.849 50.1792H228.626C229.161 50.1792 229.589 50.3396 229.91 50.6606C230.246 50.9816 230.445 51.3713 230.506 51.8299C230.567 52.2884 230.437 52.7317 230.116 53.1596L225.187 59.7395L222.963 58.7766H229.245C229.719 58.7766 230.124 58.9371 230.46 59.2581C230.797 59.5638 230.965 59.9382 230.965 60.3815C230.965 60.8094 230.797 61.1839 230.46 61.5049C230.124 61.8258 229.719 61.9863 229.245 61.9863H222.963ZM237.653 62.2156C236.69 62.2156 235.887 62.0322 235.245 61.6654C234.619 61.2985 234.145 60.7712 233.824 60.0834C233.518 59.3956 233.365 58.5779 233.365 57.6303V51.5548C233.365 51.0809 233.534 50.6759 233.87 50.3396C234.206 50.0034 234.611 49.8353 235.085 49.8353C235.559 49.8353 235.964 50.0034 236.3 50.3396C236.636 50.6759 236.804 51.0809 236.804 51.5548V56.9654C236.804 57.7602 236.988 58.2952 237.355 58.5703C237.737 58.8454 238.226 58.983 238.822 58.983C239.326 58.983 239.739 58.8683 240.06 58.6391C240.396 58.4098 240.641 58.1194 240.794 57.7678C240.962 57.401 241.046 57.0113 241.046 56.5986V51.5548C241.046 51.0809 241.214 50.6759 241.55 50.3396C241.887 50.0034 242.292 49.8353 242.765 49.8353C243.254 49.8353 243.66 50.0034 243.98 50.3396C244.317 50.6759 244.485 51.0809 244.485 51.5548V60.4732C244.485 60.947 244.317 61.352 243.98 61.6883C243.66 62.0245 243.254 62.1927 242.765 62.1927C242.292 62.1927 241.887 62.0245 241.55 61.6883C241.214 61.352 241.046 60.947 241.046 60.4732V59.0288L241.734 59.281C241.245 60.2592 240.679 60.9928 240.037 61.4819C239.395 61.971 238.6 62.2156 237.653 62.2156ZM249.715 62.2156C249.226 62.2156 248.805 62.0398 248.454 61.6883C248.102 61.3367 247.927 60.9164 247.927 60.4273V47.726C247.927 47.2369 248.102 46.8166 248.454 46.4651C248.805 46.1135 249.226 45.9378 249.715 45.9378H251.503V60.4273C251.503 60.9164 251.327 61.3367 250.976 61.6883C250.624 62.0398 250.204 62.2156 249.715 62.2156ZM250.815 56.1401V52.9303H254.3C254.652 52.9303 254.957 52.8539 255.217 52.7011C255.492 52.5482 255.706 52.3343 255.859 52.0591C256.012 51.784 256.088 51.4707 256.088 51.1192C256.088 50.7065 256.012 50.3549 255.859 50.0645C255.706 49.7588 255.477 49.5296 255.171 49.3767C254.881 49.2239 254.529 49.1475 254.117 49.1475H250.815V45.9378H254.438C255.462 45.9378 256.371 46.1517 257.166 46.5797C257.961 47.0077 258.587 47.6037 259.046 48.368C259.52 49.1322 259.757 50.0263 259.757 51.0504C259.757 52.0744 259.527 52.9686 259.069 53.7328C258.61 54.497 257.999 55.0931 257.235 55.521C256.47 55.9337 255.63 56.1401 254.713 56.1401H250.815ZM264.859 62.3302C264.202 62.3302 263.56 62.2003 262.933 61.9405C262.322 61.6806 261.81 61.2909 261.397 60.7712C261 60.2363 260.801 59.5638 260.801 58.7537C260.801 57.5768 261.16 56.6827 261.879 56.0713C262.612 55.4446 263.805 55.0014 265.455 54.7415C265.914 54.6651 266.342 54.5963 266.739 54.5352C267.137 54.4741 267.458 54.3824 267.702 54.2601C267.947 54.1225 268.069 53.9162 268.069 53.6411C268.069 53.4271 268.008 53.2513 267.886 53.1138C267.779 52.9609 267.618 52.8539 267.404 52.7928C267.205 52.7164 266.961 52.6782 266.67 52.6782C266.288 52.6782 265.96 52.7469 265.685 52.8845C265.425 53.0221 265.18 53.2055 264.951 53.4347C264.737 53.6487 264.485 53.8245 264.194 53.962C263.919 54.0996 263.606 54.1684 263.254 54.1684C262.781 54.1684 262.398 54.0461 262.108 53.8016C261.818 53.557 261.672 53.2207 261.672 52.7928C261.672 52.3801 261.802 51.998 262.062 51.6465C262.322 51.2949 262.674 50.9892 263.117 50.7294C263.56 50.4543 264.08 50.2403 264.676 50.0875C265.272 49.9346 265.899 49.8582 266.556 49.8582C267.595 49.8582 268.482 50.0492 269.215 50.4314C269.949 50.7982 270.507 51.3178 270.889 51.9904C271.286 52.6629 271.485 53.45 271.485 54.3518V58.5015C271.485 58.7002 271.508 58.8378 271.554 58.9142C271.6 58.9753 271.699 59.0364 271.852 59.0976C272.112 59.2046 272.356 59.3803 272.585 59.6249C272.83 59.8542 272.952 60.1751 272.952 60.5878C272.952 61.0463 272.784 61.4361 272.448 61.7571C272.112 62.078 271.63 62.2309 271.004 62.2156C270.316 62.2003 269.781 62.0398 269.399 61.7341C269.032 61.4132 268.787 61.0005 268.665 60.4961L268.642 60.4044H268.573C268.145 61.0463 267.656 61.5278 267.106 61.8488C266.571 62.1697 265.822 62.3302 264.859 62.3302ZM265.753 59.4415C266.166 59.4415 266.548 59.3574 266.9 59.1893C267.251 59.0212 267.534 58.7766 267.748 58.4556C267.962 58.1194 268.069 57.722 268.069 57.2635V56.6903C268.069 56.6444 268.054 56.6215 268.023 56.6215C268.008 56.6215 267.97 56.6368 267.908 56.6674C267.74 56.7591 267.549 56.8355 267.335 56.8966C267.121 56.9425 266.892 56.9807 266.647 57.0113C266.403 57.0418 266.128 57.0953 265.822 57.1718C265.165 57.3246 264.737 57.508 264.538 57.722C264.355 57.9207 264.263 58.15 264.263 58.4098C264.263 58.7613 264.385 59.0212 264.63 59.1893C264.89 59.3574 265.264 59.4415 265.753 59.4415ZM279.414 62.399C278.39 62.399 277.496 62.2462 276.732 61.9405C275.967 61.6348 275.371 61.2527 274.943 60.7941C274.531 60.3356 274.324 59.8924 274.324 59.4644C274.324 59.1129 274.462 58.769 274.737 58.4327C275.012 58.0965 275.425 57.9283 275.975 57.9283C276.357 57.9283 276.67 58.0048 276.915 58.1576C277.16 58.2952 277.335 58.4174 277.442 58.5244C277.886 58.9065 278.291 59.174 278.657 59.3269C279.024 59.4644 279.376 59.5332 279.712 59.5332C280.109 59.5332 280.385 59.4644 280.537 59.3269C280.706 59.174 280.79 58.9982 280.79 58.7995C280.79 58.6161 280.713 58.448 280.56 58.2952C280.407 58.1423 280.178 57.9971 279.873 57.8596C279.567 57.7067 279.185 57.5539 278.726 57.401C278.191 57.2176 277.679 57.0266 277.19 56.8279C276.716 56.6139 276.296 56.3617 275.929 56.0713C275.562 55.7809 275.272 55.4293 275.058 55.0167C274.859 54.604 274.76 54.0996 274.76 53.5035C274.76 52.7851 274.951 52.1508 275.333 51.6006C275.73 51.0351 276.265 50.5918 276.938 50.2709C277.626 49.9499 278.405 49.7894 279.276 49.7894C280.102 49.7894 280.835 49.927 281.477 50.2021C282.135 50.4772 282.647 50.8364 283.013 51.2796C283.396 51.7076 283.587 52.1814 283.587 52.7011C283.587 53.0832 283.472 53.4118 283.243 53.6869C283.029 53.962 282.685 54.0996 282.211 54.0996C281.814 54.0996 281.485 54.0155 281.225 53.8474C280.965 53.664 280.759 53.5035 280.606 53.366C280.499 53.259 280.377 53.152 280.239 53.045C280.117 52.938 279.964 52.8463 279.781 52.7699C279.613 52.6934 279.399 52.6552 279.139 52.6552C278.772 52.6552 278.52 52.724 278.382 52.8616C278.26 52.9991 278.199 53.152 278.199 53.3201C278.199 53.5494 278.291 53.7404 278.474 53.8933C278.657 54.0308 278.955 54.176 279.368 54.3289C279.781 54.4817 280.331 54.688 281.019 54.9479C281.569 55.1466 282.043 55.3682 282.44 55.6128C282.853 55.842 283.189 56.1019 283.449 56.3923C283.724 56.6674 283.923 56.9807 284.045 57.3322C284.183 57.6685 284.251 58.0582 284.251 58.5015C284.251 59.2963 284.053 59.9917 283.655 60.5878C283.258 61.1686 282.692 61.6195 281.959 61.9405C281.24 62.2462 280.392 62.399 279.414 62.399ZM291.168 62.399C290.144 62.399 289.25 62.2462 288.486 61.9405C287.722 61.6348 287.126 61.2527 286.698 60.7941C286.285 60.3356 286.079 59.8924 286.079 59.4644C286.079 59.1129 286.216 58.769 286.491 58.4327C286.766 58.0965 287.179 57.9283 287.729 57.9283C288.111 57.9283 288.425 58.0048 288.669 58.1576C288.914 58.2952 289.09 58.4174 289.197 58.5244C289.64 58.9065 290.045 59.174 290.412 59.3269C290.779 59.4644 291.13 59.5332 291.466 59.5332C291.864 59.5332 292.139 59.4644 292.292 59.3269C292.46 59.174 292.544 58.9982 292.544 58.7995C292.544 58.6161 292.467 58.448 292.315 58.2952C292.162 58.1423 291.933 57.9971 291.627 57.8596C291.321 57.7067 290.939 57.5539 290.481 57.401C289.946 57.2176 289.434 57.0266 288.944 56.8279C288.471 56.6139 288.05 56.3617 287.683 56.0713C287.317 55.7809 287.026 55.4293 286.812 55.0167C286.614 54.604 286.514 54.0996 286.514 53.5035C286.514 52.7851 286.705 52.1508 287.087 51.6006C287.485 51.0351 288.02 50.5918 288.692 50.2709C289.38 49.9499 290.16 49.7894 291.031 49.7894C291.856 49.7894 292.59 49.927 293.232 50.2021C293.889 50.4772 294.401 50.8364 294.768 51.2796C295.15 51.7076 295.341 52.1814 295.341 52.7011C295.341 53.0832 295.226 53.4118 294.997 53.6869C294.783 53.962 294.439 54.0996 293.965 54.0996C293.568 54.0996 293.239 54.0155 292.979 53.8474C292.72 53.664 292.513 53.5035 292.36 53.366C292.253 53.259 292.131 53.152 291.994 53.045C291.871 52.938 291.719 52.8463 291.535 52.7699C291.367 52.6934 291.153 52.6552 290.893 52.6552C290.526 52.6552 290.274 52.724 290.137 52.8616C290.014 52.9991 289.953 53.152 289.953 53.3201C289.953 53.5494 290.045 53.7404 290.228 53.8933C290.412 54.0308 290.71 54.176 291.122 54.3289C291.535 54.4817 292.085 54.688 292.773 54.9479C293.323 55.1466 293.797 55.3682 294.195 55.6128C294.607 55.842 294.944 56.1019 295.203 56.3923C295.478 56.6674 295.677 56.9807 295.799 57.3322C295.937 57.6685 296.006 58.0582 296.006 58.5015C296.006 59.2963 295.807 59.9917 295.41 60.5878C295.012 61.1686 294.447 61.6195 293.713 61.9405C292.995 62.2462 292.146 62.399 291.168 62.399Z" fill="white"/>
</g>
<defs>
<filter id="filter0_f_1185_191" x="-5.3" y="117.7" width="120.6" height="32.6" filterUnits="userSpaceOnUse" color-interpolation-filters="sRGB">
<feFlood flood-opacity="0" result="BackgroundImageFix"/>
<feBlend mode="normal" in="SourceGraphic" in2="BackgroundImageFix" result="shape"/>
<feGaussianBlur stdDeviation="2.65" result="effect1_foregroundBlur_1185_191"/>
</filter>
<filter id="filter1_f_1185_191" x="360.8" y="40.8" width="107.4" height="31.4" filterUnits="userSpaceOnUse" color-interpolation-filters="sRGB">
<feFlood flood-opacity="0" result="BackgroundImageFix"/>
<feBlend mode="normal" in="SourceGraphic" in2="BackgroundImageFix" result="shape"/>
<feGaussianBlur stdDeviation="0.6" result="effect1_foregroundBlur_1185_191"/>
</filter>
<filter id="filter2_f_1185_191" x="164.4" y="130.4" width="130.2" height="44.2" filterUnits="userSpaceOnUse" color-interpolation-filters="sRGB">
<feFlood flood-opacity="0" result="BackgroundImageFix"/>
<feBlend mode="normal" in="SourceGraphic" in2="BackgroundImageFix" result="shape"/>
<feGaussianBlur stdDeviation="2.8" result="effect1_foregroundBlur_1185_191"/>
</filter>
<filter id="filter3_d_1185_191" x="198.047" y="157.021" width="108.373" height="74.5476" filterUnits="userSpaceOnUse" color-interpolation-filters="sRGB">
<feFlood flood-opacity="0" result="BackgroundImageFix"/>
<feColorMatrix in="SourceAlpha" type="matrix" values="0 0 0 0 0 0 0 0 0 0 0 0 0 0 0 0 0 0 127 0" result="hardAlpha"/>
<feOffset dx="-10" dy="4"/>
<feGaussianBlur stdDeviation="2"/>
<feComposite in2="hardAlpha" operator="out"/>
<feColorMatrix type="matrix" values="0 0 0 0 0 0 0 0 0 0 0 0 0 0 0 0 0 0 0.13 0"/>
<feBlend mode="normal" in2="BackgroundImageFix" result="effect1_dropShadow_1185_191"/>
<feBlend mode="normal" in="SourceGraphic" in2="effect1_dropShadow_1185_191" result="shape"/>
</filter>
<linearGradient id="paint0_linear_1185_191" x1="242.5" y1="0" x2="242.5" y2="169.143" gradientUnits="userSpaceOnUse">
<stop stop-color="#53C3F1"/>
<stop offset="1" stop-color="white"/>
</linearGradient>
<clipPath id="clip0_1185_191">
<rect width="485" height="222" fill="white"/>
</clipPath>
<clipPath id="clip1_1185_191">
<rect width="87" height="131.285" fill="white" transform="translate(0 95.2996)"/>
</clipPath>
</defs>
</svg>
