<svg width="400" height="104" viewBox="0 0 400 104" fill="none" xmlns="http://www.w3.org/2000/svg">
<g clip-path="url(#clip0_1191_476)">
<rect width="400" height="104" fill="url(#paint0_linear_1191_476)"/>
<path d="M182.616 30.3021C182.339 31.2336 181.827 31.9476 181.372 32.5819C181.292 32.6947 181.213 32.8041 181.139 32.9107C181.036 32.8302 180.932 32.7484 180.824 32.6645C179.928 31.9614 178.912 31.1654 178.135 30.0648L177.562 29.2531L177.636 30.2437C177.875 33.4611 177.799 35.3839 177.573 38.5793C175.563 38.5765 173.229 37.224 171.621 35.8785C171.985 34.9883 172.284 34.4428 172.844 33.6613L174.468 35.3756L174.533 34.7867C174.731 33.0077 174.738 23.6081 174.625 20.1168C177.05 20.0919 179.614 20.4277 182.447 21.1404C182.544 21.8042 182.349 22.7212 182.205 23.405C182.197 23.4435 182.189 23.4813 182.181 23.5185C180.406 23.427 179.308 23.1704 177.468 22.6187L176.872 22.4398L177.14 23.0012C178.046 24.8909 181.403 29.0384 182.616 30.3021H182.616Z" fill="white"/>
<path d="M173.836 20.1437C173.719 25.6677 172.614 28.372 168.867 32.3069C168.016 31.3569 167.65 30.7481 167.219 29.8262C169.306 27.3683 170.176 25.8321 171.05 23.0859L171.251 22.4516L170.66 22.7584C169.83 23.189 169.312 23.3322 168.462 23.489C168.243 22.6249 168.191 22.0513 168.242 21.1356C170.478 20.5894 172.227 20.2791 173.836 20.1436L173.836 20.1437Z" fill="white"/>
<path d="M186.863 35.0289C186.564 35.0289 186.309 34.9229 186.096 34.7107C185.884 34.4889 185.778 34.2285 185.778 33.9295V28.3743C185.778 28.0753 185.884 27.8198 186.096 27.6076C186.309 27.3954 186.564 27.2893 186.863 27.2893C187.162 27.2893 187.418 27.3954 187.63 27.6076C187.842 27.8198 187.948 28.0753 187.948 28.3743V33.9295C187.948 34.2285 187.842 34.4889 187.63 34.7107C187.418 34.9229 187.162 35.0289 186.863 35.0289ZM186.849 26.6094C186.521 26.6094 186.251 26.5033 186.039 26.2911C185.826 26.079 185.72 25.78 185.72 25.3942C185.72 25.0084 185.826 24.7095 186.039 24.4973C186.251 24.2851 186.521 24.179 186.849 24.179C187.196 24.179 187.476 24.2851 187.688 24.4973C187.9 24.7095 188.006 25.0084 188.006 25.3942C188.006 25.78 187.9 26.079 187.688 26.2911C187.476 26.5033 187.196 26.6094 186.849 26.6094ZM190.741 34.8843C190.413 34.8843 190.143 34.7878 189.931 34.5949C189.718 34.3924 189.593 34.1465 189.554 33.8572C189.516 33.5678 189.593 33.293 189.786 33.0326L192.969 28.7939L194.314 29.4593H190.668C190.369 29.4593 190.114 29.3629 189.902 29.17C189.689 28.9675 189.583 28.7263 189.583 28.4467C189.583 28.167 189.689 27.9307 189.902 27.7378C190.114 27.5353 190.369 27.434 190.668 27.434H194.314C194.651 27.434 194.922 27.5353 195.124 27.7378C195.336 27.9403 195.462 28.1863 195.5 28.4756C195.539 28.7649 195.457 29.0446 195.254 29.3146L192.144 33.4666L190.741 32.859H194.705C195.004 32.859 195.259 32.9602 195.471 33.1628C195.683 33.3556 195.79 33.5919 195.79 33.8716C195.79 34.1417 195.683 34.3779 195.471 34.5805C195.259 34.783 195.004 34.8843 194.705 34.8843H190.741ZM200.01 35.0289C199.402 35.0289 198.896 34.9132 198.491 34.6817C198.095 34.4503 197.796 34.1175 197.594 33.6836C197.401 33.2496 197.304 32.7336 197.304 32.1356V28.302C197.304 28.003 197.411 27.7474 197.623 27.5353C197.835 27.3231 198.09 27.217 198.389 27.217C198.688 27.217 198.944 27.3231 199.156 27.5353C199.368 27.7474 199.474 28.003 199.474 28.302V31.7161C199.474 32.2176 199.59 32.5552 199.822 32.7288C200.063 32.9024 200.371 32.9892 200.747 32.9892C201.066 32.9892 201.326 32.9168 201.529 32.7722C201.741 32.6275 201.895 32.4442 201.992 32.2224C202.098 31.991 202.151 31.745 202.151 31.4846V28.302C202.151 28.003 202.257 27.7474 202.469 27.5353C202.681 27.3231 202.937 27.217 203.236 27.217C203.544 27.217 203.8 27.3231 204.002 27.5353C204.215 27.7474 204.321 28.003 204.321 28.302V33.9295C204.321 34.2285 204.215 34.484 204.002 34.6962C203.8 34.9084 203.544 35.0145 203.236 35.0145C202.937 35.0145 202.681 34.9084 202.469 34.6962C202.257 34.484 202.151 34.2285 202.151 33.9295V33.0181L202.585 33.1772C202.276 33.7945 201.919 34.2574 201.514 34.566C201.109 34.8746 200.608 35.0289 200.01 35.0289ZM207.621 35.0289C207.312 35.0289 207.047 34.918 206.825 34.6962C206.603 34.4744 206.492 34.2092 206.492 33.9006V25.8861C206.492 25.5775 206.603 25.3122 206.825 25.0904C207.047 24.8686 207.312 24.7577 207.621 24.7577H208.749V33.9006C208.749 34.2092 208.638 34.4744 208.416 34.6962C208.195 34.918 207.929 35.0289 207.621 35.0289ZM208.315 31.1953V29.17H210.514C210.736 29.17 210.929 29.1218 211.093 29.0253C211.266 28.9289 211.401 28.7939 211.498 28.6203C211.594 28.4467 211.643 28.2489 211.643 28.0271C211.643 27.7667 211.594 27.5449 211.498 27.3617C211.401 27.1688 211.257 27.0241 211.064 26.9277C210.881 26.8312 210.659 26.783 210.398 26.783H208.315V24.7577H210.601C211.247 24.7577 211.821 24.8927 212.322 25.1627C212.824 25.4328 213.219 25.8089 213.509 26.2911C213.808 26.7734 213.957 27.3376 213.957 27.9837C213.957 28.6299 213.813 29.1941 213.523 29.6763C213.234 30.1585 212.848 30.5347 212.366 30.8047C211.884 31.0651 211.353 31.1953 210.775 31.1953H208.315ZM217.177 35.1013C216.762 35.1013 216.357 35.0193 215.962 34.8553C215.576 34.6914 215.253 34.4455 214.992 34.1175C214.742 33.78 214.616 33.3556 214.616 32.8445C214.616 32.1019 214.843 31.5377 215.296 31.1519C215.759 30.7565 216.511 30.4768 217.553 30.3128C217.842 30.2646 218.112 30.2212 218.363 30.1826C218.614 30.1441 218.816 30.0862 218.971 30.009C219.125 29.9222 219.202 29.792 219.202 29.6184C219.202 29.4834 219.164 29.3725 219.086 29.2857C219.019 29.1893 218.918 29.1218 218.783 29.0832C218.657 29.035 218.503 29.0109 218.32 29.0109C218.079 29.0109 217.871 29.0542 217.698 29.141C217.534 29.2278 217.379 29.3436 217.235 29.4882C217.1 29.6233 216.941 29.7342 216.757 29.821C216.584 29.9078 216.386 29.9512 216.164 29.9512C215.865 29.9512 215.624 29.874 215.441 29.7197C215.258 29.5654 215.166 29.3532 215.166 29.0832C215.166 28.8228 215.248 28.5817 215.412 28.3599C215.576 28.138 215.798 27.9451 216.077 27.7812C216.357 27.6076 216.685 27.4726 217.061 27.3761C217.437 27.2797 217.833 27.2315 218.247 27.2315C218.903 27.2315 219.463 27.352 219.926 27.5931C220.388 27.8246 220.74 28.1525 220.982 28.5769C221.232 29.0012 221.358 29.4979 221.358 30.0669V32.6854C221.358 32.8107 221.372 32.8975 221.401 32.9458C221.43 32.9843 221.493 33.0229 221.589 33.0615C221.753 33.129 221.907 33.2399 222.052 33.3942C222.206 33.5389 222.284 33.7414 222.284 34.0018C222.284 34.2911 222.177 34.5371 221.965 34.7396C221.753 34.9421 221.449 35.0386 221.054 35.0289C220.62 35.0193 220.282 34.918 220.041 34.7251C219.81 34.5226 219.655 34.2622 219.578 33.944L219.564 33.8861H219.52C219.25 34.2911 218.942 34.5949 218.595 34.7975C218.257 35 217.784 35.1013 217.177 35.1013ZM217.741 33.2785C218.001 33.2785 218.243 33.2254 218.464 33.1194C218.686 33.0133 218.865 32.859 219 32.6564C219.135 32.4442 219.202 32.1935 219.202 31.9042V31.5425C219.202 31.5136 219.193 31.4991 219.173 31.4991C219.164 31.4991 219.14 31.5087 219.101 31.528C218.995 31.5859 218.874 31.6341 218.739 31.6727C218.604 31.7016 218.46 31.7257 218.305 31.745C218.151 31.7643 217.977 31.7981 217.784 31.8463C217.37 31.9427 217.1 32.0585 216.974 32.1935C216.859 32.3189 216.801 32.4635 216.801 32.6275C216.801 32.8493 216.878 33.0133 217.032 33.1194C217.196 33.2254 217.432 33.2785 217.741 33.2785ZM226.361 35.1447C225.715 35.1447 225.151 35.0482 224.668 34.8553C224.186 34.6625 223.81 34.4213 223.54 34.132C223.28 33.8427 223.149 33.563 223.149 33.293C223.149 33.0711 223.236 32.8541 223.41 32.642C223.583 32.4298 223.844 32.3237 224.191 32.3237C224.432 32.3237 224.63 32.3719 224.784 32.4684C224.938 32.5552 225.049 32.6323 225.117 32.6998C225.396 32.9409 225.652 33.1097 225.884 33.2062C226.115 33.293 226.337 33.3364 226.549 33.3364C226.8 33.3364 226.973 33.293 227.07 33.2062C227.176 33.1097 227.229 32.9988 227.229 32.8734C227.229 32.7577 227.181 32.6516 227.084 32.5552C226.988 32.4587 226.843 32.3671 226.65 32.2803C226.457 32.1839 226.216 32.0874 225.927 31.991C225.589 31.8752 225.266 31.7547 224.958 31.6293C224.659 31.4943 224.393 31.3351 224.162 31.1519C223.931 30.9687 223.747 30.7468 223.612 30.4864C223.487 30.226 223.424 29.9078 223.424 29.5316C223.424 29.0784 223.545 28.6781 223.786 28.3309C224.037 27.9741 224.374 27.6944 224.799 27.4919C225.233 27.2893 225.724 27.1881 226.274 27.1881C226.795 27.1881 227.258 27.2749 227.663 27.4485C228.078 27.6221 228.401 27.8487 228.632 28.1284C228.873 28.3984 228.994 28.6974 228.994 29.0253C228.994 29.2664 228.921 29.4738 228.777 29.6474C228.642 29.821 228.425 29.9078 228.126 29.9078C227.875 29.9078 227.668 29.8547 227.504 29.7486C227.34 29.6329 227.21 29.5316 227.113 29.4448C227.046 29.3773 226.968 29.3098 226.882 29.2423C226.805 29.1748 226.708 29.1169 226.592 29.0687C226.486 29.0205 226.351 28.9964 226.187 28.9964C225.956 28.9964 225.797 29.0398 225.71 29.1266C225.633 29.2134 225.594 29.3098 225.594 29.4159C225.594 29.5606 225.652 29.6811 225.768 29.7776C225.884 29.8644 226.072 29.956 226.332 30.0524C226.592 30.1489 226.94 30.2791 227.374 30.443C227.721 30.5684 228.02 30.7083 228.27 30.8626C228.531 31.0072 228.743 31.1712 228.907 31.3544C229.081 31.528 229.206 31.7257 229.283 31.9476C229.37 32.1597 229.413 32.4057 229.413 32.6854C229.413 33.1869 229.288 33.6257 229.037 34.0018C228.786 34.3683 228.43 34.6528 227.967 34.8553C227.513 35.0482 226.978 35.1447 226.361 35.1447ZM233.778 35.1447C233.132 35.1447 232.567 35.0482 232.085 34.8553C231.603 34.6625 231.227 34.4213 230.957 34.132C230.696 33.8427 230.566 33.563 230.566 33.293C230.566 33.0711 230.653 32.8541 230.827 32.642C231 32.4298 231.261 32.3237 231.608 32.3237C231.849 32.3237 232.047 32.3719 232.201 32.4684C232.355 32.5552 232.466 32.6323 232.534 32.6998C232.813 32.9409 233.069 33.1097 233.3 33.2062C233.532 33.293 233.754 33.3364 233.966 33.3364C234.217 33.3364 234.39 33.293 234.487 33.2062C234.593 33.1097 234.646 32.9988 234.646 32.8734C234.646 32.7577 234.598 32.6516 234.501 32.5552C234.405 32.4587 234.26 32.3671 234.067 32.2803C233.874 32.1839 233.633 32.0874 233.344 31.991C233.006 31.8752 232.683 31.7547 232.375 31.6293C232.076 31.4943 231.81 31.3351 231.579 31.1519C231.347 30.9687 231.164 30.7468 231.029 30.4864C230.904 30.226 230.841 29.9078 230.841 29.5316C230.841 29.0784 230.962 28.6781 231.203 28.3309C231.454 27.9741 231.791 27.6944 232.215 27.4919C232.649 27.2893 233.141 27.1881 233.691 27.1881C234.212 27.1881 234.675 27.2749 235.08 27.4485C235.495 27.6221 235.818 27.8487 236.049 28.1284C236.29 28.3984 236.411 28.6974 236.411 29.0253C236.411 29.2664 236.338 29.4738 236.194 29.6474C236.059 29.821 235.842 29.9078 235.543 29.9078C235.292 29.9078 235.085 29.8547 234.921 29.7486C234.757 29.6329 234.627 29.5316 234.53 29.4448C234.463 29.3773 234.385 29.3098 234.299 29.2423C234.221 29.1748 234.125 29.1169 234.009 29.0687C233.903 29.0205 233.768 28.9964 233.604 28.9964C233.373 28.9964 233.214 29.0398 233.127 29.1266C233.05 29.2134 233.011 29.3098 233.011 29.4159C233.011 29.5606 233.069 29.6811 233.185 29.7776C233.3 29.8644 233.489 29.956 233.749 30.0524C234.009 30.1489 234.357 30.2791 234.79 30.443C235.138 30.5684 235.437 30.7083 235.687 30.8626C235.948 31.0072 236.16 31.1712 236.324 31.3544C236.498 31.528 236.623 31.7257 236.7 31.9476C236.787 32.1597 236.83 32.4057 236.83 32.6854C236.83 33.1869 236.705 33.6257 236.454 34.0018C236.203 34.3683 235.847 34.6528 235.384 34.8553C234.93 35.0482 234.395 35.1447 233.778 35.1447Z" fill="white"/>
<g filter="url(#filter0_f_1191_476)">
<path d="M496 105H292.014C291.553 98.8497 302.755 96.1736 308.413 95.6044C311.29 82.2223 323.662 80.7987 331.718 85.639C336.609 72.5417 351.57 72.257 359.913 77.382C363.653 71.6876 370.846 64 383.218 64C398.869 64.4556 406.235 76.9075 407.961 83.0765C415.096 80.7987 420.908 83.4561 422.922 85.0695C424.936 81.9378 429.539 74.5347 441.047 75.1042C450.254 75.5597 455.817 84.0254 457.447 88.2013C471.257 83.0762 475.573 95.6041 477.011 95.6041C489.67 95.6041 494.945 101.868 496 105Z" fill="#FFFEFF"/>
</g>
<path d="M139 104H-45C-41.7427 98.0583 -28.3902 97.3545 -22.1212 97.7454C-20.764 82.5 -5.44678 79.7636 0.563751 82.5C0.369865 81.3272 5.21707 61 24.7998 61C42.1722 61.3127 48.8419 74.6818 50.0053 81.3272C56.9853 79.4509 63.5128 84.9758 65.9041 87.9728C73.6596 75.0727 88.9768 82.109 91.3035 91.1001C102.006 86.5655 108.43 94.1622 110.305 98.5273C128.608 95.7127 137.061 101.003 139 104Z" fill="#FFFEFF"/>
<path d="M276 84H372C370.301 80.96 363.334 80.6 360.063 80.8C359.355 73 351.364 71.6 348.228 73C348.329 72.4 345.8 62 335.583 62C326.519 62.16 323.039 69 322.432 72.4C318.79 71.44 315.385 74.2667 314.137 75.8001C310.091 69.2 302.099 72.8 300.885 77.4C295.301 75.08 291.949 78.9667 290.972 81.2C281.422 79.76 277.012 82.4667 276 84Z" fill="#FFFEFF"/>
<g filter="url(#filter1_f_1191_476)">
<path d="M29 30H-6C-5.74154 27.6576 -2.44615 26.8378 -0.830769 26.7208C-0.4 21.6613 3.36923 21.6457 5.2 22.2703C5.63077 20.5135 7.35385 17 11.3385 17C16.1631 17.1874 17.4769 21.1772 17.6923 23.3243C20.9662 22.5748 22.5026 25.5495 22.7538 27.0721C26.8031 26.9784 28.6051 28.985 29 30Z" fill="#FFFEFF"/>
</g>
<path d="M407 30H367C367.295 27.4774 371.062 26.5946 372.908 26.4685C373.4 21.0198 377.708 21.003 379.8 21.6757C380.292 19.7838 382.262 16 386.815 16C392.329 16.2018 393.831 20.4985 394.077 22.8108C397.818 22.0036 399.574 25.2072 399.862 26.8468C404.489 26.7459 406.549 28.9069 407 30Z" fill="#FFFEFF"/>
<path d="M170.363 71.1638L171.586 72.1906C173.113 71.2497 176.327 68.7273 174.579 65.022C172.421 60.4462 165.427 59.3735 161.525 63.7593L163.089 65.071C160.947 63.7868 158.679 62.7601 156.583 62.2207C154.485 61.6813 152.002 61.4882 149.506 61.5802L151.51 61.1848C150.216 55.4628 143.573 53.0324 139.467 56.0022C136.142 58.405 137.734 62.1625 138.613 63.7225L140.186 63.4129C137.129 64.6848 135.402 66.536 136.686 68.7028C136.686 68.7028 127.596 72.733 132.071 76.6529C132.071 76.6529 131.991 76.6989 131.852 76.7939C130.774 77.5233 126.143 81.0908 128.322 87.2817C130.488 93.4389 137.436 95.3544 142.426 95.9183C139.255 96.9359 137.03 99.3142 137.03 102.085C137.03 105.781 140.994 108.778 145.883 108.778C150.773 108.778 155.763 105.781 155.763 102.085C155.763 100.957 154.386 99.2038 154.737 99.3203C159.223 100.807 164.997 101.521 169.192 97.7818C174.72 92.8505 171.054 86.6687 171.054 86.6687C176.871 85.3907 170.86 77.4835 170.86 77.4835C173.036 76.2024 172.421 73.7567 170.363 71.1669V71.1638Z" fill="#F8D4AE"/>
<path d="M165.851 66.9195C167.984 68.5132 169.812 70.2908 170.953 71.9642C172.323 70.6831 174.364 68.2037 172.581 66.0675C170.691 63.7965 167.403 65.7671 165.848 66.9195H165.851Z" fill="#FFF1E6"/>
<path d="M139.274 63.8271C141.084 62.9138 143.542 62.2365 146.185 61.8687C145.38 60.1095 143.453 56.7995 140.703 57.8783C138.106 58.8928 138.693 62.0434 139.274 63.8271Z" fill="#FFF1E6"/>
<path d="M152.524 77.9251C148.674 76.9352 145.782 82.4396 142.39 82.6173C137.209 82.887 134.385 80.5608 132.068 76.6501C132.068 76.6501 125.863 80.2973 128.319 87.2759C131.822 97.2334 147.832 96.0964 147.832 96.0964C147.832 96.0964 161.3 104.804 169.189 97.7729C174.717 92.8416 171.051 86.6598 171.051 86.6598C167.13 88.9707 163.531 89.645 159.125 86.9142C156.242 85.1244 156.375 78.912 152.524 77.922V77.9251Z" fill="#FFF1E6"/>
<path d="M159.205 88.8942C159.933 86.0684 162.822 84.3674 165.655 85.0969C168.488 85.8232 170.194 88.7042 169.462 91.5299C168.734 94.3557 165.845 96.0566 163.012 95.3272C160.179 94.6009 158.473 91.7199 159.205 88.8942Z" fill="#FD9DB4"/>
<path d="M140.483 86.1532C142.232 83.8132 141.747 80.5028 139.401 78.7593C137.054 77.0157 133.735 77.4993 131.987 79.8392C130.239 82.1792 130.724 85.4896 133.07 87.2331C135.416 88.9767 138.735 88.4932 140.483 86.1532Z" fill="#FD9DB4"/>
<path d="M174.929 70.0362C175.995 68.372 176.103 66.53 175.242 64.7095C174.139 62.368 171.816 60.7314 169.029 60.333C166.064 59.9069 163.104 60.9582 161.082 63.1526C159.595 62.4262 158.123 61.8623 156.762 61.5129C155.4 61.1635 153.839 60.949 152.183 60.8693C151.473 57.9761 149.393 55.6285 146.59 54.5711C143.957 53.5781 141.13 53.8938 139.031 55.4109C137.396 56.5939 136.597 58.2581 136.726 60.2288C136.815 61.6294 137.347 62.9166 137.826 63.8238C137.159 64.2651 136.628 64.7402 136.25 65.2428C135.509 66.2235 135.328 67.2901 135.712 68.3597C134.139 69.1535 130.537 71.2345 130.135 73.8702C129.99 74.8234 130.261 75.7214 130.946 76.5519C129.326 77.8146 125.528 81.5507 127.627 87.527C128.669 90.4877 130.835 92.7985 134.071 94.3984C136.4 95.5507 139.237 96.3139 142.503 96.6663C142.906 96.7092 143.268 96.4181 143.315 96.0166C143.358 95.6151 143.066 95.2534 142.663 95.2075C133.404 94.2022 130.132 90.2118 129.016 87.0397C128.168 84.6247 128.331 82.3782 129.505 80.3584C130.445 78.7402 131.751 77.7534 132.264 77.404C132.375 77.3304 132.439 77.2906 132.446 77.2875C132.648 77.168 132.78 76.9596 132.802 76.7236C132.823 76.4906 132.731 76.2608 132.556 76.1045C131.8 75.4425 131.484 74.7835 131.588 74.0909C131.899 72.0528 135.589 69.9963 136.984 69.3742C137.175 69.2883 137.322 69.1259 137.387 68.9267C137.451 68.7275 137.427 68.5099 137.319 68.3321C136.852 67.5414 136.886 66.8365 137.427 66.1193C138.518 64.6727 141.465 63.4131 145.306 62.7511C149.202 62.0799 153.351 62.1473 156.396 62.9289C159.444 63.7104 163.107 65.6504 166.193 68.1145C169.238 70.5449 171.208 73.0673 171.463 74.8602C171.589 75.749 171.278 76.3803 170.485 76.8492C170.304 76.9565 170.178 77.1343 170.138 77.3396C170.098 77.5449 170.147 77.7564 170.273 77.925C170.283 77.9372 171.143 79.0774 171.865 80.5178C172.763 82.3046 173.058 83.7359 172.716 84.6553C172.474 85.3112 171.878 85.7372 170.894 85.9517C170.664 86.0008 170.473 86.1601 170.378 86.3747C170.283 86.5892 170.298 86.8375 170.418 87.0397C170.553 87.2727 173.697 92.7771 168.697 97.2333C166.156 99.4982 161.3 101.423 152.598 97.7298C152.226 97.5704 151.793 97.7451 151.633 98.116C151.473 98.4899 151.648 98.919 152.02 99.0783C155.072 100.372 157.948 101.095 160.569 101.233C160.867 101.248 161.159 101.257 161.448 101.257C164.727 101.257 167.489 100.274 169.674 98.3275C172.763 95.5752 173.144 92.443 172.919 90.3007C172.778 88.9522 172.391 87.8305 172.083 87.1194C173.082 86.721 173.755 86.0651 174.09 85.161C175.015 82.6601 172.867 79.0988 171.874 77.6461C172.729 76.8921 173.085 75.8716 172.913 74.6579C172.824 74.0357 172.59 73.3615 172.219 72.6566C173.079 72.0957 174.167 71.2222 174.923 70.0392L174.929 70.0362ZM145.057 61.3045C142.706 61.7091 140.678 62.3251 139.108 63.0943C138.201 61.375 137.279 58.4849 139.894 56.5939C141.594 55.3649 143.905 55.1197 146.074 55.938C148.299 56.7747 149.977 58.5799 150.653 60.8264C148.815 60.8264 146.907 60.9858 145.057 61.3045ZM171.457 71.4031C170.452 69.9749 168.977 68.4578 167.114 66.9713C165.649 65.8006 164.051 64.7432 162.444 63.8575C164.125 62.2178 166.469 61.4455 168.82 61.7826C171.115 62.1136 173.018 63.4407 173.912 65.3317C175.285 68.2463 173.082 70.3334 171.453 71.4031H171.457Z" fill="#D3A98C"/>
<path d="M141.265 79.4853C140.961 80.6622 141.67 81.8636 142.854 82.167C144.034 82.4704 145.238 81.7624 145.542 80.5825C145.847 79.4056 145.137 78.2042 143.954 77.9008C142.774 77.5974 141.569 78.3053 141.265 79.4853Z" fill="#5F5C5D"/>
<path d="M157.352 83.6164C157.048 84.7933 157.757 85.9947 158.94 86.2981C160.12 86.6015 161.325 85.8935 161.629 84.7136C161.934 83.5367 161.224 82.3353 160.041 82.0319C158.858 81.7285 157.656 82.4364 157.352 83.6164Z" fill="#5F5C5D"/>
<path d="M146.658 85.5809C146.418 86.5095 146.415 87.4259 146.609 88.2442C146.91 89.5253 147.69 90.5581 148.787 90.978C148.895 91.024 149.009 91.0577 149.126 91.0883C150.404 91.4163 151.734 90.883 152.709 89.8042C152.954 89.5314 153.182 89.2219 153.375 88.8847C153.624 88.4526 153.821 87.9714 153.953 87.4535C154.116 86.8221 154.153 86.2459 154.091 85.7341C154.085 85.682 154.079 85.6299 154.064 85.5778C153.824 84.1894 152.798 83.2731 151.418 82.8777C151.366 82.8624 151.313 82.8471 151.258 82.8348C151.203 82.8195 151.151 82.8072 151.098 82.795C149.697 82.4793 148.354 82.7858 147.469 83.886C147.435 83.9228 147.405 83.9657 147.374 84.0056C147.07 84.4254 146.824 84.9465 146.661 85.5809H146.658Z" fill="#5F5C5D"/>
<path d="M146.609 88.241C146.91 89.522 147.69 90.5549 148.787 90.9748C148.895 91.0207 149.009 91.0545 149.125 91.0851C150.404 91.413 151.737 90.8798 152.708 89.8009C152.407 88.5198 151.627 87.487 150.53 87.0671C150.422 87.0212 150.309 86.9874 150.192 86.9568C148.913 86.6289 147.58 87.1621 146.609 88.241Z" fill="#E27FA3"/>
<path d="M149.875 91.913C149.565 91.913 149.251 91.8731 148.941 91.7935C146.538 91.1774 145.195 88.3057 145.945 85.3941C146.126 84.6892 146.406 84.0763 146.778 83.5706L147.964 84.4348C147.703 84.7904 147.503 85.2348 147.368 85.7588C146.818 87.8889 147.687 89.9576 149.307 90.3744C150.926 90.7913 152.69 89.3968 153.24 87.2667C153.375 86.7457 153.415 86.2615 153.36 85.8263L154.817 85.6424C154.893 86.2615 154.844 86.9296 154.663 87.6314C154.008 90.166 151.977 91.9099 149.875 91.9099V91.913Z" fill="#F8D4AE"/>
<path d="M154.817 85.6452C154.623 84.122 153.661 82.9482 152.14 82.3444L152.515 80.8947L151.092 80.53L150.717 81.9797C149.098 81.7743 147.687 82.3352 146.781 83.5703C146.541 83.8983 146.612 84.3549 146.941 84.594C147.269 84.833 147.727 84.7625 147.967 84.4346C148.88 83.1933 150.305 83.3374 151.074 83.5366C151.845 83.7358 153.166 84.2967 153.36 85.826C153.406 86.1969 153.723 86.4666 154.088 86.4666C154.119 86.4666 154.15 86.4666 154.18 86.4604C154.583 86.4083 154.869 86.0436 154.817 85.6421V85.6452Z" fill="#D3A98C"/>
<path d="M150.788 79.2187C151.212 78.9643 151.765 79.1022 152.02 79.5252L152.082 79.6263L152.183 79.565C152.607 79.3106 153.16 79.4486 153.415 79.8715C153.67 80.2945 153.532 80.8461 153.108 81.1005L152.742 81.3181C152.036 81.741 151.123 81.5112 150.699 80.8063L150.481 80.4416C150.226 80.0186 150.364 79.467 150.788 79.2126V79.2187Z" fill="#E27FA3"/>
<path d="M137.027 102.606C137.027 102.606 134.225 90.0069 134.759 83.7761L136.551 84.4075L138.794 85.8081L142.758 101.809L137.024 102.606H137.027Z" fill="#F8D4AE"/>
<path d="M141.58 102.118L144.879 101.301L137.182 70.3965L133.883 71.2137L141.58 102.118Z" fill="#FFBE8D"/>
<path d="M141.578 102.851C141.446 102.851 141.314 102.814 141.2 102.747C141.034 102.646 140.915 102.483 140.865 102.296L133.168 71.3937C133.085 71.0627 133.244 70.7164 133.549 70.5632C133.856 70.4099 134.228 70.4865 134.446 70.7501L139.443 76.751C139.513 76.8368 139.562 76.9349 139.59 77.0422L145.588 101.129C145.687 101.521 145.447 101.919 145.054 102.017L141.753 102.836C141.695 102.851 141.637 102.857 141.575 102.857L141.578 102.851ZM135.371 74.1459L142.116 101.23L143.991 100.767L138.21 77.554L135.374 74.1459H135.371Z" fill="#EA9C71"/>
<path d="M138.88 77.2142C128.712 72.7794 123.436 87.9962 113.267 83.5583C111.755 77.4931 110.247 71.4278 108.735 65.3626C118.903 69.7973 124.179 54.5805 134.348 59.0184C135.86 65.0837 137.368 71.1489 138.88 77.2142Z" fill="#A3D676"/>
<path d="M117.01 85.1212C115.744 85.1212 114.404 84.8576 112.972 84.2324C112.763 84.1405 112.61 83.9596 112.554 83.739L108.022 65.5432C107.954 65.2735 108.046 64.9854 108.262 64.8076C108.477 64.6268 108.775 64.5839 109.03 64.6973C113.737 66.7507 117.324 64.2468 121.122 61.5957C125.083 58.8282 129.182 55.9687 134.643 58.3531C134.852 58.4451 135.005 58.6259 135.061 58.8466L139.593 77.0424C139.661 77.3121 139.569 77.6002 139.354 77.7779C139.138 77.9587 138.84 78.0017 138.585 77.8883C133.878 75.8348 130.291 78.3388 126.496 80.9898C123.574 83.031 120.575 85.1212 117.013 85.1212H117.01ZM113.891 83.0249C118.436 84.8239 121.945 82.3751 125.651 79.7854C129.284 77.2508 133.026 74.6365 137.832 76.0524L133.724 59.5515C129.179 57.7524 125.67 60.2012 121.964 62.791C119.041 64.8321 116.042 66.9223 112.481 66.9254C111.617 66.9254 110.72 66.8028 109.783 66.527L113.891 83.0279V83.0249Z" fill="#87B758"/>
<path d="M134.864 84.4779C134.517 82.1885 135.042 80.2117 137.338 79.8654C139.633 79.519 141.775 81.0944 142.122 83.3868C142.469 85.6763 140.89 87.8124 138.591 88.1587C136.296 88.5051 135.208 86.7704 134.861 84.481L134.864 84.4779Z" fill="#F8D4AE"/>
<path d="M142.851 83.2733C142.445 80.5885 139.922 78.7313 137.23 79.1389C135.187 79.4454 134.065 80.8981 134.037 83.1936C133.503 89.4642 136.198 102.248 136.311 102.766C136.388 103.106 136.692 103.339 137.027 103.339C137.08 103.339 137.135 103.333 137.187 103.32C137.584 103.231 137.832 102.842 137.746 102.447C137.725 102.346 135.921 94.1718 135.509 87.8521C136.173 88.5632 137.033 88.931 138.035 88.931C138.253 88.931 138.475 88.9126 138.705 88.8789C141.397 88.4743 143.259 85.9581 142.851 83.2733ZM138.484 87.4323C137.657 87.5549 137.024 87.3556 136.548 86.8193C136.087 86.3013 135.755 85.4524 135.592 84.3675C135.463 83.5216 135.073 80.9441 137.448 80.5885C138.364 80.4506 139.28 80.6774 140.027 81.226C140.773 81.7746 141.259 82.5807 141.397 83.494C141.683 85.3819 140.377 87.1472 138.484 87.4323Z" fill="#D3A98C"/>
<path d="M155.327 100.004C158.142 103.841 155.954 110.516 148.108 108.772C139.768 106.918 140.829 98.7168 145.201 98.7168C149.574 98.7168 150.711 102.361 149.181 103.887C149.181 103.887 155.148 99.7619 155.327 100.004Z" fill="#F8D4AE"/>
<path d="M150.57 109.799C149.792 109.799 148.923 109.707 147.949 109.489C142.811 108.346 140.838 104.877 141.16 101.941C141.419 99.6115 143.078 97.9841 145.201 97.9841C147.638 97.9841 149.534 99.0507 150.275 100.834C150.809 102.122 150.585 103.525 149.7 104.405C149.414 104.69 148.947 104.69 148.661 104.405C148.376 104.12 148.376 103.654 148.661 103.369C149.122 102.909 149.224 102.134 148.917 101.395C148.409 100.179 147.021 99.4491 145.201 99.4491C143.622 99.4491 142.768 100.779 142.623 102.1C142.273 105.269 145.207 107.375 148.271 108.055C151.522 108.778 154.042 108.006 155.185 105.931C156.242 104.01 155.837 101.441 154.217 99.8261C153.932 99.5411 153.932 99.0752 154.217 98.7902C154.503 98.5051 154.97 98.5051 155.256 98.7902C157.327 100.856 157.837 104.157 156.473 106.636C155.895 107.684 154.273 109.793 150.573 109.793L150.57 109.799Z" fill="#D3A98C"/>
<g filter="url(#filter2_d_1191_476)">
<path d="M164.169 87.7003C164.233 87.6275 164.278 87.5811 164.298 87.5612L164.304 87.5546H164.306C160.187 85.4727 166.23 80.6928 166.23 80.6928C164.988 79.4543 165.612 77.942 167.233 76.529C166.321 75.2926 165.438 73.3079 167.051 71.365C169.422 68.5082 174.438 68.8437 176.734 72.3166C177.834 72.1046 178.91 71.9876 179.91 71.9876C181.404 71.9876 183.078 72.2525 184.736 72.7007C186.905 68.8724 192.194 68.4088 194.651 71.3672C196.683 73.8112 194.757 76.3259 193.794 77.3282L193.064 76.9794C194.317 78.2599 194.7 79.5845 193.588 80.6928C193.588 80.6928 199.634 85.4727 195.514 87.5524C195.514 87.5524 195.545 87.5833 195.598 87.6429C195.806 87.8725 196.358 88.5216 196.816 89.4731C197.363 90.6079 197.779 92.1733 197.318 93.9615C197.132 94.6923 196.798 95.4628 196.269 96.2554C194.217 99.3154 191.317 100.201 188.747 100.247C188.816 100.58 188.851 100.923 188.851 101.271C188.851 105.08 184.654 108.169 179.474 108.169C174.294 108.169 170.097 105.082 170.097 101.271C170.097 100.976 170.122 100.684 170.173 100.397C167.656 99.8519 165.265 98.6288 163.552 96.2554C160.572 92.1269 163.501 88.4554 164.169 87.7003Z" fill="#F8D4AE"/>
<path d="M188.74 74.1533C190.673 75.0474 192.329 76.1314 193.303 77.2375C194.082 76.0012 195.089 73.7846 193.358 72.5394C191.662 71.3163 189.776 72.9699 188.74 74.1533Z" fill="#FFF1E6"/>
<path d="M163.549 96.2553C169.371 104.316 182.956 99.1144 182.956 99.1144C182.956 99.1144 191.707 103.055 196.269 96.2553C198.095 93.5287 197.586 91.0759 196.816 89.4753C194.987 90.5593 192.946 90.8684 190.308 90.0449C187.795 89.2567 186.693 84.5674 183.609 84.5674C180.526 84.5674 179.381 89.1375 176.911 90.0449C168.061 93.2903 166.803 90.0449 164.306 87.5545C164.306 87.5545 164.302 87.5611 164.3 87.5633C164.28 87.5832 164.236 87.6296 164.171 87.7024C163.503 88.4575 160.572 92.129 163.554 96.2575L163.549 96.2553Z" fill="#FFF1E6"/>
<path d="M190.748 91.5109C190.748 93.7739 192.382 95.6086 194.396 95.6086C195.592 95.6086 196.654 94.9617 197.318 93.9638C197.776 92.1777 197.363 90.6124 196.816 89.4754C196.358 88.5238 195.809 87.8747 195.598 87.6451C195.222 87.4972 194.817 87.4177 194.396 87.4177C192.38 87.4177 190.748 89.2524 190.748 91.5131V91.5109Z" fill="#FD9DB4"/>
<path d="M171.685 95.5585C169.448 95.1856 167.938 93.0748 168.312 90.8439C168.686 88.613 170.802 87.1069 173.039 87.4798C175.276 87.8527 176.786 89.9635 176.412 92.1944C176.038 94.4253 173.922 95.9314 171.685 95.5585Z" fill="#FD9DB4"/>
<path d="M177.143 88.8771C176.198 88.8771 175.432 88.0329 175.432 86.9916C175.432 85.9503 176.198 85.1062 177.143 85.1062C178.088 85.1062 178.854 85.9503 178.854 86.9916C178.854 88.0329 178.088 88.8771 177.143 88.8771Z" fill="#5F5C5D"/>
<path d="M190.075 88.8771C189.13 88.8771 188.364 88.0329 188.364 86.9916C188.364 85.9503 189.13 85.1062 190.075 85.1062C191.02 85.1062 191.786 85.9503 191.786 86.9916C191.786 88.0329 191.02 88.8771 190.075 88.8771Z" fill="#5F5C5D"/>
<path d="M170.237 76.6372L172.818 75.4052C173.595 75.0343 173.756 73.9967 173.126 73.4116C172.059 72.4247 170.582 71.5659 169.227 72.5417C167.966 73.4491 168.158 74.8709 168.656 76.0543C168.913 76.6637 169.639 76.922 170.237 76.6372Z" fill="#FFF1E6"/>
<path d="M161.98 90.5659C162.356 89.2721 163.04 88.2544 163.492 87.6825C162.808 87.1946 162.425 86.5742 162.35 85.8302C162.239 84.744 162.817 83.4701 164.067 82.0417C164.594 81.439 165.128 80.94 165.482 80.6287C165.172 80.1805 165.024 79.6926 165.041 79.1694C165.07 78.2907 165.573 77.3767 166.531 76.4516C166.263 76.0366 166.018 75.5663 165.852 75.0563C165.378 73.6146 165.652 72.2237 166.642 71.0315C167.917 69.4971 169.964 68.7222 172.121 68.9562C174.08 69.1704 175.828 70.186 176.973 71.7358C178.013 71.5526 178.998 71.4576 179.908 71.4576C181.285 71.4576 182.866 71.6828 184.481 72.0891C185.639 70.2986 187.569 69.1329 189.721 68.9408C191.822 68.7553 193.819 69.5347 195.06 71.0293C196.05 72.2215 196.324 73.6124 195.851 75.0541C195.496 76.1359 194.799 77.0323 194.252 77.6173C194.372 77.8094 194.474 77.9993 194.551 78.1891C194.916 79.0678 194.839 79.9002 194.334 80.6287C194.688 80.94 195.222 81.439 195.751 82.0417C197.002 83.4701 197.582 84.744 197.471 85.8302C197.396 86.572 197.013 87.1946 196.327 87.6825C196.694 88.1528 197.216 88.9277 197.588 89.9301C198.168 91.4865 198.487 93.8996 196.712 96.549C194.478 99.8805 191.311 100.781 188.537 100.781C187.804 100.781 187.1 100.719 186.447 100.62C186.157 100.576 185.956 100.307 186 100.017C186.044 99.7281 186.314 99.5294 186.604 99.5714C189.424 99.9931 193.314 99.7083 195.829 95.9595C198.735 91.6212 195.286 88.0755 195.14 87.9276C195.018 87.8084 194.963 87.6362 194.992 87.4684C195.018 87.3006 195.125 87.1549 195.277 87.0798C195.986 86.7222 196.358 86.2784 196.415 85.7243C196.579 84.117 194.193 81.8474 193.261 81.11C193.141 81.0151 193.068 80.876 193.059 80.7259C193.05 80.5757 193.108 80.4278 193.214 80.3196C193.732 79.803 193.845 79.2555 193.571 78.5976C193.028 77.2928 191.054 75.7716 188.289 74.5286C185.489 73.2702 182.356 72.5196 179.913 72.5196C179.186 72.5196 178.405 72.5836 177.582 72.7117C177.706 72.97 177.602 73.2791 177.345 73.4115C177.084 73.544 176.763 73.4424 176.63 73.1819C175.72 71.4135 173.993 70.2279 172.01 70.0115C170.21 69.8151 168.51 70.4487 167.465 71.7093C166.735 72.588 165.871 74.4425 168.298 76.966C168.501 77.178 168.495 77.5136 168.282 77.7167C168.178 77.816 168.047 77.8646 167.915 77.8646C167.775 77.8646 167.636 77.8094 167.532 77.7012C167.421 77.5864 167.302 77.4562 167.18 77.3126C166.498 77.9971 166.128 78.6461 166.111 79.2091C166.097 79.6087 166.261 79.973 166.611 80.3218C166.717 80.4278 166.775 80.5757 166.766 80.7281C166.757 80.8782 166.684 81.0195 166.567 81.1122C165.635 81.8518 163.251 84.1192 163.414 85.7265C163.47 86.2806 163.844 86.7244 164.552 87.082C164.705 87.1593 164.809 87.3028 164.836 87.4706C164.862 87.6384 164.807 87.8084 164.687 87.9298C164.683 87.9342 164.641 87.9784 164.572 88.0535C163.76 88.9719 161.318 92.2526 163.985 95.9484C166.137 98.9289 169.663 100.371 174.456 100.229C174.75 100.223 174.994 100.452 175.003 100.744C175.012 101.037 174.781 101.28 174.487 101.289C174.27 101.296 174.055 101.298 173.843 101.298C171.817 101.298 169.982 101.011 168.38 100.443C166.188 99.6685 164.419 98.3637 163.12 96.5666C161.776 94.7077 161.382 92.6324 161.982 90.5681L161.98 90.5659ZM188.723 73.5594C190.868 74.522 192.552 75.6414 193.593 76.7673C195.791 74.3432 194.954 72.5637 194.244 71.7071C193.225 70.4818 191.572 69.8416 189.819 69.9983C188.107 70.1506 186.564 71.0293 185.568 72.3871C186.635 72.7072 187.702 73.1002 188.725 73.5594H188.723Z" fill="#D3A98C"/>
<path d="M180.687 91.4559C180.687 91.871 180.743 92.2706 180.844 92.6415C181.238 94.081 182.325 95.1142 183.607 95.1142C183.7 95.1142 183.793 95.1098 183.882 95.0965C185.365 94.9243 186.527 93.3612 186.527 91.4559C186.527 89.4336 185.219 88.5063 183.607 88.5063C181.995 88.5063 180.687 89.4358 180.687 91.4559Z" fill="#5F5C5D"/>
<path d="M180.844 92.6414C181.239 94.0808 182.325 95.1141 183.607 95.1141C183.7 95.1141 183.793 95.1097 183.882 95.0964C183.924 95.028 183.963 94.9529 184.006 94.8778C184.975 93.1028 184.997 91.2505 184.061 90.7427C183.195 90.2768 181.814 91.1136 180.844 92.6436V92.6414Z" fill="#E27FA3"/>
<path d="M183.605 95.6461C185.509 95.6461 187.056 93.7672 187.056 91.4557C187.056 91.0406 187.005 90.6521 186.908 90.2966L185.883 90.5814C185.956 90.8442 185.993 91.1378 185.993 91.4557C185.993 93.1822 184.922 94.5841 183.605 94.5841C182.288 94.5841 181.216 93.18 181.216 91.4557C181.216 91.1378 181.254 90.842 181.327 90.5814L180.302 90.2966C180.203 90.6521 180.154 91.0406 180.154 91.4557C180.154 93.765 181.701 95.6461 183.605 95.6461Z" fill="#F8D4AE"/>
<path d="M180.302 90.2966C180.663 89.0029 181.681 88.1727 183.074 88.0071V86.8127H184.136V88.0071C185.526 88.1749 186.545 89.0029 186.908 90.2966C186.987 90.5792 186.821 90.8706 186.538 90.9501C186.255 91.0274 185.962 90.864 185.883 90.5814C185.506 89.2347 184.293 89.0338 183.605 89.0338C182.916 89.0338 181.703 89.2347 181.327 90.5814C181.261 90.8154 181.048 90.97 180.816 90.97C180.769 90.97 180.72 90.9634 180.672 90.9501C180.388 90.8706 180.225 90.5792 180.302 90.2966Z" fill="#D3A98C"/>
<path d="M184.656 85.8855C184.386 85.6117 183.946 85.6095 183.671 85.8789L183.605 85.9451L183.541 85.8789C183.271 85.6051 182.83 85.6029 182.556 85.8722C182.281 86.1416 182.279 86.5809 182.549 86.8547L182.781 87.0887C183.229 87.5413 183.961 87.5457 184.415 87.0998L184.65 86.8679C184.924 86.5986 184.926 86.1593 184.656 85.8855Z" fill="#E27FA3"/>
<path d="M194.1 101.272C192.616 99.8475 189.493 98.5758 186.564 98.1387C185.265 97.9444 184.289 96.8604 184.264 95.5534C184.258 95.2708 184.298 94.997 184.375 94.7387C184.658 93.8004 185.451 93.0697 186.46 92.8798C189.369 92.3323 192.442 90.9392 193.872 89.46L194.1 101.274V101.272Z" fill="#95A1B3"/>
<path d="M192.177 95.4013C192.091 90.9845 194.503 87.3561 197.564 87.2969C200.624 87.2378 203.175 90.7703 203.261 95.1871C203.347 99.6038 200.935 103.232 197.874 103.291C194.814 103.351 192.263 99.818 192.177 95.4013Z" fill="white"/>
<path d="M193.732 101.654L194.469 100.89C192.94 99.4215 189.721 98.0747 186.644 97.6155C185.595 97.4588 184.818 96.5867 184.798 95.5424C184.778 94.4981 185.52 93.5974 186.562 93.4009C189.619 92.8224 192.783 91.3521 194.255 89.8265L193.489 89.0913C192.154 90.4734 189.225 91.8179 186.363 92.3588C184.809 92.6524 183.704 93.9992 183.733 95.5623C183.764 97.1254 184.92 98.428 186.485 98.662C189.365 99.0925 192.344 100.322 193.732 101.651V101.654Z" fill="#70838E"/>
<path d="M197.799 103.821C197.827 103.821 197.856 103.821 197.885 103.821C199.545 103.788 201.075 102.845 202.19 101.165C203.266 99.5446 203.835 97.4186 203.793 95.1755C203.749 92.9324 203.098 90.8284 201.96 89.252C200.78 87.6161 199.218 86.7352 197.555 86.7639C195.895 86.797 194.365 87.7397 193.25 89.4198C192.174 91.0403 191.605 93.1664 191.647 95.4095C191.691 97.6526 192.342 99.7566 193.48 101.333C194.64 102.94 196.169 103.821 197.799 103.821ZM197.641 87.8258C200.375 87.8258 202.651 91.1132 202.731 95.1975C202.81 99.315 200.628 102.708 197.865 102.761C195.098 102.814 192.791 99.5071 192.712 95.3918C192.672 93.3629 193.179 91.451 194.137 90.0093C195.056 88.6272 196.278 87.8545 197.577 87.828C197.599 87.828 197.622 87.828 197.644 87.828L197.641 87.8258Z" fill="#E2E2E2"/>
<path d="M199.507 97.8251L195.395 97.9046L194.952 95.4694L195.375 92.522L199.368 92.447C199.381 92.4448 199.392 92.447 199.403 92.4448C200.353 92.4271 201.146 93.6171 201.177 95.1029C201.205 96.591 200.459 97.8097 199.507 97.8273V97.8251Z" fill="#95A1B3"/>
<path d="M195.383 97.3768L197.814 97.3305C197.449 96.7697 197.221 96.019 197.203 95.1801C197.196 94.8865 197.431 94.6458 197.723 94.6392C198.015 94.6304 198.259 94.8666 198.266 95.158C198.29 96.4319 198.932 97.3106 199.496 97.2951C200.059 97.2841 200.667 96.3855 200.643 95.1116C200.619 93.8466 199.983 92.9745 199.423 92.9745C199.419 92.9745 199.414 92.9745 199.412 92.9745L195.383 93.0518C195.383 93.0518 195.377 93.0518 195.372 93.0518C195.085 93.0518 195.069 91.9965 195.361 91.9921L199.372 91.9148C199.372 91.9148 199.384 91.9148 199.39 91.9148C199.401 91.9148 199.412 91.9148 199.423 91.9148C200.672 91.9148 201.67 93.3013 201.706 95.0918C201.741 96.8977 200.778 98.3306 199.516 98.3571L195.401 98.4365C195.401 98.4365 195.395 98.4365 195.39 98.4365C195.102 98.4365 195.087 97.3812 195.379 97.3768H195.383Z" fill="#70838E"/>
<path d="M197.805 101.062C197.805 101.062 197.823 101.062 197.834 101.062C198.128 101.055 198.361 100.814 198.354 100.521C198.348 100.227 198.109 99.9954 197.812 100.002C197.81 100.002 197.807 100.002 197.803 100.002C197.245 100.002 196.052 98.9246 195.629 96.7478C195.627 96.7323 195.623 96.7168 195.618 96.7014C195.534 96.2665 195.488 95.8072 195.479 95.337C195.47 94.8756 195.499 94.4119 195.567 93.9615C195.572 93.9483 195.574 93.9328 195.576 93.9174C195.72 92.9879 196.021 92.1644 196.442 91.533C196.743 91.0782 197.212 90.5925 197.628 90.5837C197.923 90.577 198.155 90.3364 198.148 90.0428C198.142 89.7535 197.905 89.5239 197.617 89.5239C197.613 89.5239 197.61 89.5239 197.606 89.5239C196.628 89.5438 195.899 90.4247 195.554 90.9479C195.056 91.6964 194.702 92.6501 194.531 93.7121C194.527 93.7275 194.525 93.743 194.522 93.7584C194.441 94.2817 194.405 94.8204 194.414 95.3569C194.425 95.9044 194.48 96.4387 194.58 96.9442C194.582 96.9619 194.587 96.9774 194.591 96.9928C194.879 98.4323 195.439 99.3618 195.859 99.8916C196.453 100.636 197.157 101.06 197.801 101.06L197.805 101.062Z" fill="#E2E2E2"/>
<path d="M187.966 97.0789C189.528 96.9112 190.354 97.8936 190.697 99.3132C191.39 100.097 191.97 101.221 192.289 102.53C192.968 105.325 192.2 107.91 190.573 108.305C188.946 108.698 187.076 106.753 186.394 103.956C186.323 103.665 186.268 103.376 186.228 103.091C185.539 102.548 185.061 101.742 184.96 100.803C184.758 98.9489 186.102 97.2799 187.963 97.0789H187.966Z" fill="#F8D4AE"/>
<path d="M185.276 97.9865C185.931 97.1718 186.868 96.6618 187.908 96.5492C188.955 96.4366 189.83 96.77 190.438 97.514C190.768 97.918 191.016 98.4369 191.182 99.0617C191.917 99.9293 192.49 101.108 192.807 102.402C193.157 103.844 193.157 105.288 192.807 106.467C192.426 107.747 191.678 108.582 190.699 108.818C190.516 108.862 190.33 108.884 190.142 108.884C189.331 108.884 188.499 108.473 187.746 107.692C186.894 106.804 186.23 105.522 185.878 104.08C185.818 103.837 185.772 103.599 185.734 103.367C184.999 102.72 184.539 101.837 184.433 100.859C184.32 99.8211 184.619 98.8011 185.276 97.9865ZM188.515 106.959C189.168 107.639 189.854 107.932 190.452 107.789C191.047 107.645 191.523 107.069 191.791 106.166C192.087 105.164 192.083 103.917 191.778 102.654C191.678 102.243 191.547 101.848 191.395 101.473C191.344 101.994 191.22 102.451 191.02 102.841C190.587 103.698 189.803 104.212 188.756 104.325C188.612 104.34 188.468 104.349 188.326 104.349C187.866 104.349 187.417 104.268 186.989 104.113C187.31 105.259 187.846 106.261 188.517 106.959H188.515ZM185.491 100.744C185.573 101.501 185.947 102.179 186.54 102.658C187.136 103.135 187.879 103.351 188.639 103.27C189.329 103.195 189.796 102.899 190.069 102.362C190.328 101.852 190.412 101.113 190.314 100.223C190.217 99.3332 189.976 98.6289 189.613 98.1852C189.285 97.7856 188.856 97.5891 188.302 97.5891C188.211 97.5891 188.118 97.5935 188.021 97.6045C187.262 97.6862 186.582 98.0593 186.102 98.651C185.624 99.2449 185.404 99.9867 185.489 100.744H185.491Z" fill="#D3A98C"/>
<path d="M168.948 87.5438C170.744 87.014 172.627 88.034 173.159 89.8245C173.568 91.1999 173.057 92.6305 171.981 93.4585C172.895 95.8804 174.56 99.6667 176.714 101.815L171.793 105.33C171.793 105.33 167.908 97.6466 167.485 91.5002C166.954 89.7097 167.153 88.0737 168.946 87.5438H168.948Z" fill="#F8D4AE"/>
<path d="M168.798 87.0334C170.87 86.4219 173.057 87.6052 173.67 89.6717C173.967 90.674 173.856 91.7293 173.356 92.6478C173.157 93.0121 172.906 93.3366 172.612 93.617C173.458 95.8071 175.062 99.4168 177.09 101.439C177.298 101.647 177.298 101.982 177.09 102.19C176.986 102.294 176.851 102.344 176.714 102.344C176.577 102.344 176.442 102.294 176.338 102.19C175.193 101.048 173.484 98.7523 171.718 94.2528C171.499 94.3676 171.266 94.4604 171.023 94.5332C170.699 94.6281 170.387 94.6767 170.086 94.6767C169.449 94.6767 168.867 94.4626 168.368 94.0431C169.418 99.408 172.233 105.025 172.267 105.091C172.399 105.351 172.293 105.671 172.032 105.804C171.955 105.841 171.873 105.861 171.793 105.861C171.598 105.861 171.412 105.755 171.317 105.57C171.277 105.49 170.321 103.594 169.3 100.909C167.932 97.3194 167.147 94.1866 166.958 91.5969C166.277 89.2434 166.945 87.5832 168.793 87.0378L168.798 87.0334ZM169.052 93.2284C169.511 93.6192 170.057 93.7119 170.724 93.5154C171.456 93.2991 172.059 92.8112 172.424 92.1422C172.787 91.4732 172.869 90.7027 172.652 89.9742C172.284 88.7378 171.144 87.9342 169.911 87.9342C169.644 87.9342 169.371 87.9717 169.101 88.0512C167.831 88.4265 167.461 89.537 167.999 91.3496C168.253 92.2084 168.619 92.8575 169.055 93.2284H169.052Z" fill="#D3A98C"/>
<path d="M203.503 87.8259C203.125 87.3998 203.116 86.7618 203.485 86.3268L206.124 83.2227C206.576 82.6928 207.392 82.6818 207.857 83.2028L208.621 84.0617C209.084 84.5827 208.977 85.3907 208.395 85.7749L204.991 88.0202C204.515 88.3337 203.879 88.252 203.501 87.8259H203.503Z" fill="#E27FA3"/>
<path d="M204.194 90.4909C204.143 89.9235 204.517 89.4047 205.07 89.2744L209.042 88.3361C209.721 88.175 210.385 88.6518 210.447 89.3451L210.551 90.4887C210.616 91.1819 210.049 91.7714 209.352 91.7361L205.276 91.5308C204.705 91.5021 204.245 91.0605 204.192 90.4931L204.194 90.4909Z" fill="#E27FA3"/>
<path d="M200.931 86.8239C201.489 86.9431 202.051 86.6341 202.246 86.0998L203.651 82.2781C203.893 81.6246 203.496 80.9115 202.815 80.7658L201.688 80.5274C201.006 80.3816 200.353 80.874 200.304 81.5672L200.026 85.6273C199.986 86.1947 200.373 86.7047 200.931 86.8239Z" fill="#E27FA3"/>
</g>
<g clip-path="url(#clip1_1191_476)">
<path d="M33.7042 73.6523C33.7791 71.6396 33.0727 69.9863 32.7974 69.4207C32.7288 69.2832 32.6892 69.2101 32.6892 69.2101C38.0147 68.1311 32.6543 60.8048 32.6543 60.8048C34.6567 59.6665 34.1357 57.4168 32.2929 55.0184L33.3962 55.9768C34.8011 55.1391 37.7719 52.8787 36.2334 49.4614C34.3349 45.2413 27.9708 44.1559 24.3401 48.1099L25.7451 49.3317C23.8115 48.1254 21.758 47.1523 19.8541 46.6282C17.9479 46.1028 15.6846 45.8893 13.4045 45.9376L15.241 45.607C14.1454 40.3516 8.12366 38.0306 4.33204 40.684C1.26056 42.8323 2.6577 46.2917 3.4391 47.7331L4.87821 47.4736C2.06828 48.5922 0.468163 50.2581 1.6088 52.2618C1.6088 52.2618 -6.74702 55.8124 -2.72544 59.4645C-2.72544 59.4645 -4.67282 60.5686 -5.86598 62.7648C-6.72176 64.3312 -7.19653 66.4534 -6.30726 69.1303C-4.65642 74.0957 0.394825 76.1354 4.67536 76.9616C3.61717 77.4786 2.7031 78.3199 2.10124 79.4335C0.562869 82.2796 1.62166 85.836 4.47015 87.3756C7.31864 88.9153 10.8727 87.8552 12.4123 85.0067C13.8183 82.4054 13.0544 79.2152 10.7405 77.5082C11.1381 77.5042 11.3613 77.4909 11.3613 77.4909C11.3613 77.4909 23.5185 85.659 30.8214 79.346C32.9564 77.5007 33.6366 75.4318 33.7054 73.65L33.7042 73.6523Z" fill="#F8D4AE"/>
<path d="M10.3742 46.1583C7.96156 46.4573 5.70527 47.0355 4.03909 47.8445C3.53585 46.2036 3.04384 43.3095 5.43094 42.4218C7.96112 41.4775 9.66919 44.5362 10.3742 46.1583Z" fill="#FFF1E6"/>
<path d="M32.8211 55.7633C31.8048 54.2162 30.1621 52.5618 28.2375 51.0744C29.6714 50.0425 32.7087 48.2894 34.3969 50.3943C35.9883 52.38 34.0911 54.6124 32.8199 55.7657L32.8211 55.7633Z" fill="#FFF1E6"/>
<path d="M30.8201 79.3483C23.5173 85.6613 11.36 77.4932 11.36 77.4932C11.36 77.4932 -3.26241 78.2925 -6.31086 69.1313C-7.20013 66.4544 -6.72535 64.3322 -5.86958 62.7658C-3.23674 65.7737 0.598509 67.4969 5.01021 67.4389C8.43975 67.3914 11.3479 62.2924 15.2458 63.365C19.1437 64.4376 19.0343 70.3072 21.9573 72.103C25.72 74.4106 29.8978 74.8922 33.7006 73.6533C33.6318 75.4352 32.9515 77.5041 30.8165 79.3494L30.8201 79.3483Z" fill="#FFF1E6"/>
<path d="M1.43645 72.69C4.02254 72.0295 5.58351 69.3976 4.92296 66.8115C4.26242 64.2254 1.6305 62.6644 -0.955594 63.325C-3.54168 63.9855 -5.10264 66.6174 -4.4421 69.2035C-3.78155 71.7896 -1.14963 73.3506 1.43645 72.69Z" fill="#FD9DB4"/>
<path d="M30.4271 76.3161C31.1366 73.7429 29.6242 71.082 27.0497 70.3749C24.4764 69.6654 21.8156 71.1778 21.1084 73.7523C20.399 76.3256 21.9114 78.9864 24.4859 79.6936C27.0591 80.403 29.72 78.8906 30.4271 76.3161Z" fill="#FD9DB4"/>
<path d="M33.5788 69.6181C34.5069 69.2741 35.1351 68.6859 35.4547 67.8639C36.3342 65.5895 34.4089 62.2856 33.5327 60.9633C34.3299 60.2931 34.6756 59.3666 34.5374 58.2546C34.4647 57.68 34.256 57.0531 33.9238 56.3959C34.7168 55.8968 35.7331 55.1138 36.4464 54.0362C37.4363 52.5423 37.5615 50.87 36.8089 49.2008C35.8405 47.053 33.7567 45.5282 31.2348 45.1232C28.5366 44.6899 25.824 45.6116 23.954 47.5911C22.6004 46.8989 21.2599 46.3569 20.0207 46.0156C18.7816 45.6743 17.3517 45.4551 15.8354 45.3565C15.2401 42.6985 13.3818 40.5199 10.8421 39.5122C8.46551 38.5683 5.89421 38.8119 3.96529 40.1633C2.46513 41.211 1.71911 42.7151 1.80454 44.5042C1.86756 45.7946 2.33835 46.989 2.7644 47.8216C2.14229 48.2185 1.64247 48.6479 1.28543 49.1059C0.597484 49.9904 0.421589 50.963 0.762575 51.9473C-0.665066 52.6358 -4.01444 54.4878 -4.42042 56.8935C-4.56788 57.7629 -4.32724 58.5896 -3.70879 59.3588C-4.27421 59.7802 -5.10416 60.4997 -5.84071 61.5191C-6.98705 63.111 -8.10606 65.761 -6.91843 69.3322C-6.04557 71.9607 -4.16581 74.0658 -1.39501 75.5634C0.015113 76.3256 1.65892 76.9312 3.5165 77.3665C7.08907 78.2024 10.3279 78.1644 11.1765 78.1364C11.8922 78.5963 14.6546 80.2841 18.1526 81.393C23.546 83.1037 28.0677 82.5606 31.2296 79.8285C35.6217 76.0305 34.2751 71.3238 33.5751 69.6192L33.5788 69.6181ZM31.0331 46.38C33.1344 46.7188 34.8595 47.9676 35.6523 49.7255C36.1923 50.9269 36.5836 53.2251 33.2761 55.3036C32.3832 53.9784 31.0539 52.5602 29.3682 51.1654C28.036 50.0621 26.5832 49.0638 25.1168 48.2256C26.6855 46.7191 28.8625 46.0342 31.0318 46.3824L31.0331 46.38ZM4.6935 41.2079C6.27204 40.1052 8.39504 39.9142 10.3721 40.6969C12.4141 41.5056 13.9354 43.2101 14.5115 45.3071C12.8242 45.2772 11.064 45.3935 9.35413 45.6586C7.19175 45.9956 5.32593 46.5323 3.87927 47.2166C2.09955 43.739 3.6121 41.9648 4.69223 41.2102L4.6935 41.2079ZM30.4042 78.8682C27.5598 81.3279 23.5776 81.7732 18.5704 80.1922C14.7451 78.9854 11.7436 76.9859 11.7143 76.967C11.6006 76.8903 11.4629 76.8524 11.325 76.86C11.2902 76.8625 7.68882 77.0422 3.78362 76.1237C-1.32784 74.9214 -4.52182 72.5015 -5.7071 68.9314C-7.64511 63.096 -2.62856 60.1404 -2.41396 60.0192C-2.23709 59.9171 -2.11882 59.7376 -2.09566 59.5372C-2.07359 59.3332 -2.14867 59.1344 -2.29998 58.9979C-2.99006 58.3724 -3.27326 57.7539 -3.16295 57.1108C-2.84571 55.2351 0.567796 53.3995 1.85566 52.8515C2.02197 52.7801 2.15087 52.643 2.20787 52.47C2.26723 52.2982 2.24814 52.1085 2.15849 51.9535C1.73448 51.2072 1.77683 50.5548 2.29242 49.8936C3.31254 48.5803 6.02766 47.4683 9.55458 46.9199C13.1248 46.3644 16.9129 46.4864 19.6844 47.2513C21.0077 47.6168 22.454 48.2221 23.9088 49.0085C25.5026 49.8699 27.1027 50.9447 28.5585 52.1514C31.3069 54.4278 33.0701 56.771 33.2761 58.4215C33.38 59.2534 33.0824 59.8378 32.3361 60.2618C32.1789 60.3502 32.0686 60.5036 32.0306 60.6807C31.9926 60.8579 32.0322 61.0436 32.1389 61.1895C32.9638 62.3198 34.958 65.6426 34.2704 67.4155C34.0355 68.0246 33.4772 68.4103 32.5613 68.5966C32.3624 68.6382 32.1942 68.7693 32.1092 68.9546C32.0243 69.1399 32.033 69.3545 32.1328 69.5301C32.1373 69.5386 32.1713 69.5996 32.2253 69.7079C32.4759 70.2235 33.064 71.6061 33.0703 73.3221C33.0785 75.468 32.182 77.3348 30.404 78.8742L30.4042 78.8682Z" fill="#D3A98C"/>
<path d="M23.3821 69.9621C23.0881 71.0352 21.9772 71.6667 20.9054 71.3703C19.8324 71.0762 19.2009 69.9653 19.4973 68.8935C19.7937 67.8218 20.9022 67.189 21.974 67.4854C23.047 67.7794 23.6785 68.8904 23.3821 69.9621Z" fill="#5F5C5D"/>
<path d="M8.76732 65.9413C8.47327 67.0143 7.36234 67.6458 6.29059 67.3494C5.21756 67.0554 4.58606 65.9444 4.88246 64.8727C5.17651 63.7997 6.28744 63.1682 7.3592 63.4646C8.43223 63.7586 9.06372 64.8695 8.76732 65.9413Z" fill="#5F5C5D"/>
<path d="M17.4154 68.1698C17.4154 68.1698 16.7394 70.3322 15.4641 71.7631C15.3684 71.8726 15.2669 71.9759 15.1595 72.079C14.4111 72.7939 13.4841 73.2146 12.3876 72.8683C11.3978 72.5554 10.8793 71.8036 10.637 70.9183C10.5971 70.7781 10.5671 70.6311 10.5407 70.4829C10.2058 68.5194 10.969 66.1394 10.969 66.1394C10.9217 66.9078 11.3991 67.6343 12.1648 67.8778C13.0656 68.164 14.0312 67.6607 14.3174 66.7599C14.0312 67.6607 14.5321 68.625 15.4353 68.9125C16.2023 69.1536 17.01 68.8298 17.4129 68.1745L17.4154 68.1698Z" fill="#5F5C5D"/>
<path d="M15.1607 72.0766C14.4123 72.7915 13.4853 73.2121 12.3888 72.8659C11.399 72.5529 10.8806 71.8012 10.6382 70.9158C11.3877 70.2045 12.3172 69.7792 13.4114 70.1242C14.4036 70.4384 14.9209 71.1865 15.1595 72.079L15.1607 72.0766Z" fill="#E27FA3"/>
<path d="M11.6182 73.228C11.072 72.9328 10.6456 72.4893 10.3409 71.9049C9.18811 69.6818 10.3155 66.0933 10.3634 65.9428L11.5748 66.3298C11.2888 67.2247 10.7171 69.8694 11.4706 71.3231C11.7165 71.7967 12.078 72.1016 12.5794 72.26C13.0808 72.4185 13.5539 72.3761 14.0265 72.1266C15.484 71.3661 16.5284 68.8765 16.8061 67.9802L18.0189 68.3589C17.971 68.5095 16.8329 72.0952 14.6132 73.2529C13.8363 73.6603 13.0222 73.7314 12.1936 73.469C11.9886 73.4038 11.7948 73.3234 11.6158 73.2267L11.6182 73.228Z" fill="#F8D4AE"/>
<path d="M17.7476 67.6282C17.4481 67.445 17.0572 67.5379 16.8717 67.8362C16.6128 68.2589 16.1003 68.4473 15.6273 68.2982C15.0713 68.1224 14.7584 67.5365 14.9126 66.981L15.1592 66.0801L13.9331 65.7429L13.7069 66.5666C13.6203 66.8392 13.4324 67.0631 13.1756 67.195C12.9187 67.3269 12.6269 67.3547 12.3519 67.2669C11.8789 67.1178 11.5688 66.6672 11.5977 66.1749C11.6196 65.8247 11.3502 65.524 11.0001 65.502C10.65 65.4801 10.3492 65.7495 10.3273 66.0996C10.2714 67.0246 10.7627 67.8772 11.5537 68.3047C11.6832 68.3747 11.8213 68.4342 11.9672 68.4796C12.5646 68.6686 13.2034 68.6124 13.761 68.3237C13.7829 68.3112 13.8073 68.3 13.8292 68.2875C14.1009 68.8541 14.5964 69.3106 15.2413 69.5131C16.2702 69.8381 17.385 69.4247 17.9496 68.5039C18.1327 68.2044 18.0398 67.8135 17.7416 67.628L17.7476 67.6282Z" fill="#D3A98C"/>
<path d="M15.9643 65.4294C15.7434 65.0333 15.2438 64.894 14.8476 65.1148L14.7513 65.1692L14.6969 65.0729C14.476 64.6767 13.9764 64.5375 13.5802 64.7583C13.184 64.9792 13.0447 65.4788 13.2656 65.875L13.4559 66.2151C13.823 66.8698 14.6512 67.1046 15.3059 66.7375L15.646 66.5472C16.0422 66.3263 16.1815 65.8267 15.9606 65.4305L15.9643 65.4294Z" fill="#E27FA3"/>
<path d="M21.7612 101.19C29.2447 98.9581 33.5018 91.082 31.2697 83.5985C29.0376 76.115 21.1615 71.8579 13.678 74.09C6.19445 76.3221 1.93735 84.1982 4.16946 91.6817C6.40157 99.1652 14.2776 103.422 21.7612 101.19Z" fill="#B5F6F8"/>
<path d="M31.8706 83.3867C30.7384 79.6173 28.2092 76.5133 24.7462 74.6416C24.7462 74.6416 24.7345 74.6352 24.7298 74.6327L24.7203 74.6276C24.7062 74.6199 24.6897 74.611 24.6756 74.6034C21.2096 72.7543 17.2338 72.3605 13.4679 73.4916C9.68759 74.6271 6.57725 77.1681 4.70748 80.6442C0.854494 87.812 3.53933 96.7736 10.6959 100.642C10.7053 100.647 10.7147 100.652 10.7241 100.657C17.9013 104.515 26.8766 101.816 30.737 94.6404C32.6068 91.1643 33.0084 87.1683 31.8729 83.388L31.8706 83.3867ZM21.5821 96.9288C22.8518 95.5983 24.0142 94.0273 25.0075 92.2797L29.2995 94.5874C27.7717 97.1381 25.5112 99.0129 22.9373 100.089C22.6099 98.9779 22.1516 97.918 21.5834 96.9264L21.5821 96.9288ZM4.45804 90.1552C3.93606 87.4122 4.25424 84.4936 5.53825 81.8142L9.8302 84.1219C8.92296 85.9129 8.25126 87.7522 7.84334 89.5424C6.70358 89.6138 5.5656 89.817 4.45804 90.1552ZM13.8577 78.3533C12.588 79.6838 11.4255 81.2548 10.4323 83.0024L6.13794 80.6934C7.62663 78.2037 9.83918 76.2938 12.498 75.1849C12.8277 76.297 13.2847 77.3592 13.8553 78.3521L13.8577 78.3533ZM30.989 85.1247C31.5309 87.9546 31.1559 90.8546 29.9015 93.4679L25.6072 91.159C26.5144 89.3679 27.1861 87.5287 27.5953 85.7361C28.7387 85.6636 29.8767 85.4604 30.9879 85.1211L30.989 85.1247ZM24.4888 90.5605L18.5806 87.3823L20.2392 84.297C22.1424 85.2162 24.2065 85.7083 26.2882 85.7627C25.8976 87.3463 25.2951 88.9674 24.4901 90.5582L24.4888 90.5605ZM20.8412 83.1775L24.6497 76.0921C25.9856 77.1153 26.7429 79.0121 26.7946 81.5222C26.8157 82.4736 26.7311 83.4743 26.5524 84.4971C24.5905 84.48 22.6374 84.0358 20.8412 83.1775ZM23.5326 75.4913L19.7241 82.5767C18.0183 81.5512 16.5705 80.1664 15.473 78.5389C16.2297 77.8255 17.0158 77.204 17.8223 76.6969C19.946 75.3566 21.9445 74.9401 23.5349 75.4926L23.5326 75.4913ZM19.1184 83.6973L17.4599 86.7826L11.5517 83.6044C12.4332 82.058 13.4536 80.6597 14.5611 79.4606C15.7532 81.1665 17.303 82.6156 19.1184 83.6973ZM10.9497 84.7239L16.8578 87.9021L15.2006 90.9851C13.2973 90.0659 11.2332 89.5738 9.15158 89.5194C9.54213 87.9358 10.1446 86.3147 10.9497 84.7239ZM14.5985 92.1046L10.7901 99.19C9.45412 98.1668 8.69682 96.27 8.64517 93.7599C8.62402 92.8085 8.70734 91.8102 8.88731 90.785C10.8492 90.8021 12.8023 91.2463 14.5985 92.1046ZM11.9095 99.7921L15.718 92.7067C17.4238 93.7321 18.8716 95.1169 19.9691 96.7444C19.2124 97.4579 18.4263 98.0794 17.6199 98.5865C15.4961 99.9268 13.4976 100.343 11.9072 99.7908L11.9095 99.7921ZM16.3213 91.5848L17.9786 88.5018L23.8867 91.68C23.0053 93.2264 21.9848 94.6247 20.8774 95.8239C19.6853 94.118 18.1355 92.6688 16.32 91.5872L16.3213 91.5848ZM30.6908 83.8867C29.7607 84.178 28.8066 84.3619 27.8484 84.4462C28.0101 83.4324 28.0847 82.4446 28.0659 81.4945C28.0406 80.3706 27.8889 79.3456 27.6149 78.4401C29.0065 79.9344 30.0481 81.7385 30.6521 83.7502C30.665 83.7937 30.6767 83.8396 30.6897 83.8831L30.6908 83.8867ZM19.9373 74.3146C19.0307 74.585 18.0912 75.0232 17.1405 75.6227C16.3377 76.1287 15.5543 76.7395 14.7971 77.4314C14.3391 76.5846 13.969 75.688 13.6972 74.7502C13.7407 74.7372 13.7855 74.7219 13.829 74.7089C15.842 74.1026 17.921 73.9761 19.935 74.3133L19.9373 74.3146ZM4.75493 91.3956C5.68371 91.1067 6.63553 90.9215 7.59135 90.8359C7.43098 91.8473 7.3551 92.8375 7.37516 93.7852C7.3993 94.9055 7.54992 95.9269 7.82289 96.8288C6.37362 95.2667 5.33409 93.3968 4.75621 91.3932L4.75493 91.3956ZM15.512 100.967C16.4163 100.695 17.351 100.26 18.298 99.6618C19.1008 99.1557 19.8829 98.5473 20.6378 97.8541C21.0946 98.6973 21.4648 99.5939 21.7355 100.528C19.7448 101.15 17.6119 101.314 15.5097 100.965L15.512 100.967Z" fill="#95E0E8"/>
<path d="M29.9542 88.4013L10.3796 77.821L5.48332 86.8797L25.0579 97.46L29.9542 88.4013Z" fill="white"/>
<path d="M24.7586 98.0194L5.18408 87.4391C4.87569 87.2724 4.75868 86.8867 4.92664 86.576L9.82295 77.5173C9.98964 77.2089 10.3753 77.0919 10.6861 77.2599L30.2606 87.8401C30.569 88.0068 30.686 88.3925 30.5181 88.7033L25.6218 97.7619C25.4551 98.0703 25.0694 98.1873 24.7586 98.0194ZM6.34642 86.6225L24.8028 96.5983L29.0934 88.6602L10.6371 78.6844L6.34642 86.6225Z" fill="#E2E2E2"/>
<path d="M5.03932 77.5262C-1.61829 78.813 -5.64838 84.5132 -2.57636 86.5904C0.493304 88.6663 8.36389 91.9957 8.38664 87.8284C8.40938 83.6612 1.86707 82.7592 1.86707 82.7592L5.03932 77.5262Z" fill="#F8D4AE"/>
<path d="M-2.93321 87.1154C-4.01388 86.3853 -4.45629 85.2397 -4.18229 83.8942C-3.89697 82.494 -2.81959 80.9622 -1.23079 79.6886C0.46489 78.3298 2.93399 76.9358 5.20256 76.4981C5.54594 76.4312 5.87997 76.6574 5.94685 77.0008C6.01373 77.3442 5.78755 77.6782 5.44417 77.7451C2.00695 78.409 -2.35252 81.2968 -2.93557 84.1483C-3.10708 84.9834 -2.86777 85.6268 -2.2207 86.0617C0.381313 87.821 5.45482 89.8758 7.18169 88.9658C7.42403 88.8382 7.74959 88.5792 7.75333 87.8238C7.77221 84.2659 1.8419 83.3967 1.78228 83.3888C1.43419 83.3405 1.19184 83.0179 1.23879 82.6722C1.28701 82.3241 1.60728 82.0805 1.95537 82.1287C2.02568 82.1393 3.70161 82.376 5.40224 83.1522C7.78258 84.2411 9.03493 85.8579 9.02473 87.8296C9.01719 89.1549 8.34196 89.7907 7.77565 90.0899C5.07324 91.516 -1.01917 88.4085 -2.92958 87.1143L-2.93321 87.1154Z" fill="#D3A98C"/>
<path d="M32.5494 78.7378C34.0325 80.3668 34.6622 82.2068 33.0369 83.6888C31.4115 85.1708 28.8852 85.0555 27.4021 83.4265C25.9191 81.7975 26.0354 79.2748 27.6644 77.7917C29.2934 76.3087 31.0663 77.1088 32.5507 78.7354L32.5494 78.7378Z" fill="#F8D4AE"/>
<path d="M28.1539 84.8155C27.7019 84.5712 27.2883 84.2503 26.9321 83.8569C25.2153 81.9738 25.3519 79.0422 27.235 77.3254C28.1537 76.4866 29.2226 76.1975 30.3197 76.4863C31.221 76.721 32.1294 77.3367 33.0166 78.3121C33.9062 79.2887 34.4336 80.2491 34.5851 81.1675C34.7696 82.2893 34.381 83.3234 33.4623 84.1622C32.5497 84.9952 31.3675 85.4209 30.1337 85.3624C29.4283 85.3279 28.7542 85.14 28.1516 84.8142L28.1539 84.8155ZM30.621 77.9663C30.4091 77.8517 30.2023 77.7673 29.9992 77.7153C29.3176 77.5355 28.6941 77.7156 28.0898 78.2651C26.7235 79.5099 26.6246 81.6344 27.8694 83.0008C28.4733 83.6618 29.2979 84.0497 30.191 84.0914C31.0841 84.133 31.9416 83.8239 32.605 83.2213C33.2056 82.6729 33.444 82.0686 33.3297 81.3741C33.2203 80.7097 32.786 79.9487 32.0757 79.1693C31.5852 78.6304 31.0893 78.2254 30.6161 77.9697L30.621 77.9663Z" fill="#D3A98C"/>
<path d="M10.6362 88.3359C10.4943 88.262 10.3994 88.1556 10.3515 88.0164C10.3108 87.875 10.3273 87.7333 10.4011 87.5913L12.5224 83.5097C12.6159 83.3298 12.7333 83.2196 12.8747 83.1789C13.0207 83.1407 13.1553 83.1536 13.2783 83.2176C13.4013 83.2816 13.4811 83.3651 13.5176 83.4683C13.5566 83.5668 13.5776 83.6768 13.5804 83.7986L13.9872 88.1855L13.6579 88.42L15.3799 84.9332C15.449 84.7887 15.5518 84.695 15.6885 84.6518C15.8323 84.6064 15.9752 84.6206 16.1171 84.6945C16.259 84.7683 16.3504 84.8759 16.3911 85.0173C16.439 85.1565 16.426 85.297 16.3522 85.439L14.2051 89.5704C14.1362 89.7029 14.0287 89.7942 13.8824 89.8444C13.7386 89.8898 13.5981 89.8768 13.4608 89.8054C13.3662 89.7562 13.2921 89.6906 13.2386 89.6086C13.185 89.5266 13.1529 89.4438 13.1423 89.3601L12.6529 84.7679L13.0361 84.7418L11.3805 88.1009C11.3114 88.2453 11.205 88.3402 11.0612 88.3856C10.9246 88.4288 10.7829 88.4122 10.6362 88.3359ZM16.0746 91.1652C15.9326 91.0914 15.8377 90.9849 15.7898 90.8457C15.7491 90.7043 15.7657 90.5626 15.8395 90.4207L17.9497 86.3603C18.021 86.223 18.1286 86.1317 18.2724 86.0863C18.4162 86.0409 18.5567 86.0539 18.694 86.1253L19.1836 86.38L16.8188 90.9302C16.7451 91.0722 16.6363 91.1659 16.4924 91.2113C16.3558 91.2544 16.2165 91.2391 16.0746 91.1652ZM18.3926 87.0867L18.8501 86.2065L20.816 87.2292C20.9437 87.2957 21.0269 87.3901 21.0655 87.5124C21.1089 87.6371 21.0961 87.7658 21.0272 87.8983C20.9608 88.026 20.8629 88.1104 20.7335 88.1512C20.6112 88.1898 20.4862 88.1759 20.3585 88.1095L18.3926 87.0867ZM17.3298 89.149L17.791 88.2617L19.6149 89.2106C19.7427 89.277 19.8246 89.3738 19.8608 89.5008C19.9017 89.6303 19.8889 89.7589 19.8225 89.8867C19.7561 90.0145 19.6582 90.0988 19.5287 90.1397C19.4065 90.1783 19.2815 90.1643 19.1538 90.0979L17.3298 89.149ZM7.21331 93.7424C7.08083 93.6734 6.99301 93.5706 6.94985 93.434C6.90668 93.2973 6.91953 93.1627 6.9884 93.0302C7.05972 92.8929 7.16247 92.8051 7.29664 92.7667C7.43326 92.7235 7.56781 92.7364 7.70029 92.8054L10.7378 94.3856C10.875 94.457 10.9628 94.5598 11.0013 94.694C11.0469 94.826 11.034 94.9606 10.9627 95.0978C10.8938 95.2303 10.7911 95.3182 10.6545 95.3613C10.5226 95.4069 10.388 95.394 10.2508 95.3226L7.21331 93.7424ZM6.59968 98.6355C6.45774 98.5616 6.36519 98.4564 6.32202 98.3197C6.28132 98.1783 6.29786 98.0366 6.37164 97.8946L8.48558 93.8271L9.45787 94.333L7.34393 98.4004C7.27014 98.5424 7.16134 98.6361 7.01753 98.6815C6.8809 98.7247 6.74162 98.7093 6.59968 98.6355Z" fill="#DD528B"/>
<path d="M27.3351 104.231H-8.05261C-7.79129 102.074 -4.45939 101.318 -2.82611 101.211C-2.39057 96.5498 1.42042 96.5354 3.27147 97.1108C3.70701 95.4925 5.44918 92.2559 9.47794 92.2559C14.356 92.4285 15.6844 96.1039 15.9022 98.0818C19.2123 97.3913 20.7657 100.132 21.0198 101.534C25.1139 101.448 26.9359 103.296 27.3351 104.231Z" fill="#FFFEFF"/>
</g>
<path d="M400.783 61.0184C400.589 60.9152 400.484 60.8666 400.484 60.8666C405.734 55.2464 393.537 51.2389 393.537 51.2389C394.91 48.2837 392.456 46.1304 388.364 44.885L390.426 45.0795C391.358 42.9607 392.925 37.9229 388.344 35.2619C382.69 31.9754 374.46 35.957 373.526 43.4865L376.155 43.7345C372.932 43.9358 369.767 44.5057 367.139 45.4699C364.511 46.4341 361.729 48.0458 359.14 49.9768L360.981 48.089C355.401 42.9531 346.551 45.2338 344.361 51.3983C342.588 56.3907 347.041 59.2199 349.125 60.232L350.567 58.756C348.249 62.3491 347.774 65.5772 350.733 66.9429C350.733 66.9429 344.017 77.8892 351.657 78.7804C351.657 78.7804 347.734 87.2019 355.471 92.831C359.278 95.5979 363.7 95.8697 367.856 95.042C367.88 95.9238 368.038 96.7901 368.346 97.6282C370.554 103.649 379.557 105.885 388.456 102.62C397.355 99.355 402.776 91.8274 400.567 85.8069C400.246 84.9321 399.781 84.1404 399.197 83.4301C402.669 81.3797 405.604 78.3935 406.662 74.05C408.671 65.8077 402.262 61.8206 400.784 61.0217L400.783 61.0184Z" fill="#F8D4AE"/>
<path d="M355.819 52.7179C353.284 55.0424 351.159 57.5647 349.905 59.8623C347.979 58.3906 345.038 55.4688 347.056 52.4894C349.196 49.325 353.673 51.4331 355.819 52.7179Z" fill="#FFF1E6"/>
<path d="M374.355 65.1488C379.18 63.3788 383.599 70.0811 387.983 69.8745C394.679 69.5509 398.01 66.1957 400.487 60.8655C400.487 60.8655 408.925 64.7521 406.665 74.0489C403.433 87.305 382.708 87.9151 382.708 87.9151C382.708 87.9151 366.508 100.852 355.467 92.8324C347.732 87.2066 351.653 78.7817 351.653 78.7817C356.99 81.2451 361.7 81.6465 367.017 77.5663C370.496 74.8921 369.531 66.9188 374.355 65.1488Z" fill="#FFF1E6"/>
<path d="M364.098 88.4185C367.393 86.5665 368.564 82.4024 366.714 79.1178C364.863 75.8331 360.693 74.6718 357.398 76.5238C354.104 78.3758 352.933 82.5399 354.783 85.8246C356.633 89.1092 360.804 90.2706 364.098 88.4185Z" fill="#FD9DB4"/>
<path d="M399.294 75.51C402.586 73.6551 403.754 69.49 401.901 66.207C400.048 62.924 395.876 61.7663 392.583 63.6212C389.29 65.4761 388.123 69.6411 389.976 72.9242C391.829 76.2072 396.001 77.3649 399.294 75.51Z" fill="#FD9DB4"/>
<path d="M401.785 60.6129C402.584 59.4561 402.833 58.2621 402.524 57.0571C401.671 53.7177 396.697 51.5078 394.628 50.7248C395.005 49.2984 394.652 47.954 393.58 46.7905C391.663 44.7129 387.378 43.2956 381.821 42.9022C376.483 42.5269 370.883 43.1872 366.835 44.6723C365.118 45.3024 363.285 46.2287 361.45 47.3678C358.588 44.7959 354.661 43.8156 350.908 44.7457C347.408 45.6129 344.658 47.9934 343.547 51.1172C342.685 53.54 343.056 55.8665 344.616 57.8402C345.752 59.2798 347.291 60.2647 348.47 60.8701C348.072 61.8458 347.845 62.7589 347.809 63.5828C347.744 65.164 348.344 66.4175 349.554 67.2617C348.486 69.1956 346.118 74.0992 347.627 77.1978C348.17 78.3168 349.133 79.0662 350.49 79.432C350.186 80.3733 349.806 81.8955 349.798 83.6944C349.785 86.457 350.667 90.4032 354.957 93.5234C361.441 98.233 369.521 96.0907 375.16 93.4651C375.588 93.2662 375.774 92.7585 375.575 92.3279C375.376 91.9006 374.866 91.7125 374.436 91.916C369.217 94.3498 361.772 96.3612 355.966 92.1417C353.013 89.9936 351.511 87.1728 351.509 83.7635C351.508 81.1612 352.415 79.1613 352.424 79.143C352.542 78.8952 352.53 78.604 352.393 78.3662C352.26 78.1272 352.019 77.9657 351.746 77.937C350.421 77.7829 349.578 77.2966 349.166 76.4549C347.981 74.0218 350.415 69.0902 351.453 67.3948C351.581 67.1849 351.614 66.934 351.544 66.702C351.474 66.47 351.305 66.2782 351.085 66.1736C349.965 65.6597 349.469 64.8567 349.519 63.6564C349.618 61.2975 351.836 57.7751 355.459 54.241C359.122 50.6618 363.592 47.6882 367.422 46.283C371.252 44.8778 376.588 44.2537 381.697 44.6147C386.747 44.9707 390.715 46.2199 392.318 47.9582C393.133 48.8449 393.273 49.7748 392.752 50.8905C392.65 51.1097 392.645 51.3654 392.743 51.5909C392.839 51.813 393.028 51.9862 393.257 52.0613C395.145 52.6832 400.188 54.872 400.857 57.4943C401.089 58.4056 400.759 59.3185 399.849 60.2964C399.661 60.498 399.583 60.7728 399.636 61.0413C399.689 61.3098 399.867 61.5362 400.115 61.6535C400.126 61.6611 400.217 61.7033 400.368 61.7842C401.083 62.1697 402.905 63.2822 404.328 65.2567C406.111 67.7244 406.611 70.6209 405.821 73.8621C405.114 76.7698 403.431 79.274 400.823 81.307C398.711 82.9532 395.996 84.2938 392.752 85.2983C392.301 85.4337 392.048 85.9165 392.187 86.3658C392.325 86.8152 392.805 87.0672 393.255 86.9284C393.849 86.7448 394.428 86.5514 394.987 86.3463C401.86 83.8246 406.168 79.6718 407.486 74.2669C409.434 66.274 403.955 61.9837 401.78 60.63L401.785 60.6129ZM354.267 53.0113C352.04 55.1845 350.324 57.3487 349.223 59.3286C344.247 56.7822 344.536 53.4596 345.166 51.6866C346.084 49.1068 348.383 47.1306 351.323 46.4045C354.373 45.649 357.56 46.374 359.966 48.3442C357.981 49.7052 356.033 51.2913 354.268 53.0146L354.267 53.0113Z" fill="#D3A98C"/>
<path d="M389.148 66.1363C388.851 64.593 387.356 63.5841 385.809 63.8828C384.262 64.1816 383.249 65.6749 383.545 67.2183C383.842 68.7616 385.337 69.7705 386.884 69.4717C388.431 69.173 389.444 67.6796 389.148 66.1363Z" fill="#5F5C5D"/>
<path d="M368.999 73.532C368.702 71.9888 367.207 70.9804 365.66 71.2797C364.113 71.579 363.1 73.0727 363.398 74.6159C363.695 76.1591 365.19 77.1675 366.737 76.8682C368.283 76.5689 369.296 75.0752 368.999 73.532Z" fill="#5F5C5D"/>
<path d="M381.784 74.4519C382.075 75.2467 382.178 76.0539 382.112 76.8056C381.985 78.3335 381.167 79.626 379.868 80.1026C378.569 80.5792 377.11 80.122 376.018 79.0411C375.482 78.5106 375.041 77.8274 374.749 77.0326C373.866 74.6251 374.724 72.0977 376.67 71.3841C378.615 70.6704 380.904 72.0432 381.787 74.4507L381.784 74.4519Z" fill="#5F5C5D"/>
<path d="M382.112 76.8058C381.985 78.3337 381.167 79.6262 379.868 80.1028C378.569 80.5794 377.11 80.1221 376.018 79.0413C376.149 77.5121 376.963 76.2209 378.268 75.7418C379.574 75.2628 381.027 75.7225 382.112 76.8058Z" fill="#E27FA3"/>
<path d="M380.16 80.9088C377.776 81.7834 374.988 80.1772 373.944 77.3323C373.655 76.5442 373.522 75.7368 373.549 74.9312L375.262 74.981C375.242 75.5681 375.341 76.1605 375.554 76.7415C376.275 78.7049 378.079 79.8539 379.575 79.3048C381.072 78.7558 381.705 76.7125 380.985 74.7491C380.801 74.2483 380.546 73.7923 380.222 73.3959L381.556 72.3195C381.995 72.8632 382.343 73.4817 382.592 74.1595C383.636 77.0045 382.547 80.0331 380.163 80.9076L380.16 80.9088Z" fill="#F8D4AE"/>
<path d="M381.552 72.3209C380.386 70.8811 378.751 70.1737 377.205 70.381L376.194 67.6645L374.589 68.2608L375.598 70.9706C374.368 71.7591 373.603 73.2031 373.548 74.928C373.535 75.3989 373.904 75.7939 374.375 75.8064C374.847 75.819 375.244 75.45 375.257 74.9791C375.3 73.626 375.952 72.5569 376.96 72.1872C378.028 71.7953 379.307 72.2693 380.219 73.3973C380.455 73.6895 380.844 73.7856 381.179 73.6628C381.266 73.6309 381.348 73.5856 381.421 73.5248C381.79 73.2265 381.847 72.69 381.549 72.3221L381.552 72.3209Z" fill="#D3A98C"/>
<path d="M376.752 66.5879C376.174 66.3152 375.483 66.5649 375.208 67.1429L375.143 67.2845L375.001 67.219C374.422 66.9464 373.731 67.1961 373.457 67.7741C373.183 68.352 373.432 69.0411 374.011 69.3137L374.507 69.5484C375.466 69.9996 376.614 69.5862 377.068 68.6279L377.304 68.1321C377.578 67.5542 377.329 66.8651 376.75 66.5924L376.752 66.5879Z" fill="#E27FA3"/>
<path d="M383.826 106.654C377.063 98.645 363.516 85.8352 360.214 91.7141C356.914 97.5963 378.175 116.536 378.175 116.536L383.826 106.654Z" fill="#F8D4AE"/>
<path d="M378.413 117.358C378.141 117.435 377.835 117.377 377.609 117.175C377.557 117.126 372.201 112.344 367.321 106.902C360.448 99.2359 357.88 94.1314 359.469 91.2979C360.103 90.1675 361.111 89.5096 362.383 89.3839C364.93 89.1392 368.667 91.0528 373.484 95.0708C377.041 98.0356 381.152 102.161 384.478 106.101C384.782 106.463 384.735 106.999 384.373 107.306C384.01 107.61 383.473 107.564 383.166 107.203C379.899 103.333 375.867 99.2883 372.38 96.381C368.051 92.7713 364.554 90.8909 362.54 91.0844C361.821 91.1548 361.32 91.4865 360.955 92.128C359.362 94.9627 365.758 102.599 368.581 105.75C373.398 111.124 378.688 115.851 378.739 115.897C379.09 116.212 379.12 116.75 378.806 117.104C378.692 117.229 378.552 117.314 378.401 117.358L378.413 117.358Z" fill="#D3A98C"/>
<path d="M394.086 103.174C393.827 92.6947 395.457 74.12 401.829 76.3287C408.2 78.5374 404.873 106.816 404.873 106.816L394.089 103.173L394.086 103.174Z" fill="#F8D4AE"/>
<path d="M405.243 107.586C405.101 107.653 404.942 107.685 404.771 107.665C404.302 107.609 403.965 107.187 404.02 106.716C404.028 106.645 404.846 99.5976 404.882 92.3861C404.902 88.1544 404.616 78.2007 401.544 77.1378C400.848 76.8969 400.248 76.9806 399.667 77.4059C398.031 78.5975 396.667 82.3256 395.825 87.9005C395.147 92.3888 394.818 98.0864 394.944 103.151C394.958 103.623 394.581 104.015 394.111 104.029C393.637 104.04 393.246 103.668 393.233 103.199C393.105 98.0445 393.444 92.2294 394.134 87.6497C395.071 81.4448 396.597 77.5362 398.664 76.0275C399.698 75.2731 400.892 75.1003 402.114 75.5231C405.183 76.5872 406.65 82.1071 406.598 92.4043C406.564 99.7138 405.735 106.845 405.722 106.914C405.688 107.214 405.498 107.462 405.243 107.586Z" fill="#D3A98C"/>
</g>
<defs>
<filter id="filter0_f_1191_476" x="276.7" y="48.7" width="234.6" height="71.6" filterUnits="userSpaceOnUse" color-interpolation-filters="sRGB">
<feFlood flood-opacity="0" result="BackgroundImageFix"/>
<feBlend mode="normal" in="SourceGraphic" in2="BackgroundImageFix" result="shape"/>
<feGaussianBlur stdDeviation="7.65" result="effect1_foregroundBlur_1191_476"/>
</filter>
<filter id="filter1_f_1191_476" x="-12.2" y="10.8" width="47.4" height="25.4" filterUnits="userSpaceOnUse" color-interpolation-filters="sRGB">
<feFlood flood-opacity="0" result="BackgroundImageFix"/>
<feBlend mode="normal" in="SourceGraphic" in2="BackgroundImageFix" result="shape"/>
<feGaussianBlur stdDeviation="3.1" result="effect1_foregroundBlur_1191_476"/>
</filter>
<filter id="filter2_d_1191_476" x="147.709" y="68.9138" width="62.8469" height="47.9702" filterUnits="userSpaceOnUse" color-interpolation-filters="sRGB">
<feFlood flood-opacity="0" result="BackgroundImageFix"/>
<feColorMatrix in="SourceAlpha" type="matrix" values="0 0 0 0 0 0 0 0 0 0 0 0 0 0 0 0 0 0 127 0" result="hardAlpha"/>
<feOffset dx="-10" dy="4"/>
<feGaussianBlur stdDeviation="2"/>
<feComposite in2="hardAlpha" operator="out"/>
<feColorMatrix type="matrix" values="0 0 0 0 0 0 0 0 0 0 0 0 0 0 0 0 0 0 0.13 0"/>
<feBlend mode="normal" in2="BackgroundImageFix" result="effect1_dropShadow_1191_476"/>
<feBlend mode="normal" in="SourceGraphic" in2="effect1_dropShadow_1191_476" result="shape"/>
</filter>
<linearGradient id="paint0_linear_1191_476" x1="200" y1="104" x2="200" y2="0" gradientUnits="userSpaceOnUse">
<stop stop-color="white"/>
<stop offset="1" stop-color="#53C3F1"/>
</linearGradient>
<clipPath id="clip0_1191_476">
<rect width="400" height="104" fill="white"/>
</clipPath>
<clipPath id="clip1_1191_476">
<rect width="51" height="77" fill="white" transform="translate(0 26)"/>
</clipPath>
</defs>
</svg>
