<svg width="600" height="100" viewBox="0 0 600 100" fill="none" xmlns="http://www.w3.org/2000/svg">
<g clip-path="url(#clip0_1198_286)">
<rect width="600" height="100" fill="url(#paint0_linear_1198_286)"/>
<path d="M62.0859 30.1051C61.7447 31.2488 61.1162 32.1254 60.5579 32.9042C60.4591 33.0427 60.3628 33.1771 60.2716 33.308C60.1456 33.2091 60.0181 33.1087 59.8856 33.0057C58.7849 32.1424 57.5374 31.1651 56.5838 29.8137L55.8802 28.8171L55.9704 30.0333C56.2636 33.9837 56.1707 36.3447 55.8935 40.2682C53.4254 40.2648 50.5595 38.6041 48.5846 36.9521C49.0322 35.859 49.3997 35.1892 50.0864 34.2296L52.0806 36.3345L52.1609 35.6115C52.4033 33.4271 52.4126 21.8858 52.2733 17.599C55.2516 17.5685 58.3989 17.9808 61.8772 18.8559C61.9964 19.6709 61.7581 20.7969 61.5807 21.6365C61.5705 21.6837 61.5614 21.7302 61.5512 21.7758C59.372 21.6634 58.0239 21.3483 55.7644 20.671L55.032 20.4514L55.3622 21.1407C56.4738 23.4609 60.5958 28.5534 62.0857 30.1051H62.0859Z" fill="white"/>
<path d="M51.3054 17.632C51.1617 24.4146 49.8052 27.7351 45.2035 32.5666C44.1594 31.4001 43.7093 30.6526 43.1805 29.5207C45.7433 26.5027 46.8109 24.6165 47.8836 21.2446L48.1312 20.4658L47.4056 20.8425C46.3868 21.3712 45.7501 21.547 44.7061 21.7395C44.4382 20.6785 44.3732 19.9742 44.4358 18.8499C47.1818 18.1793 49.329 17.7982 51.3055 17.6318L51.3054 17.632Z" fill="white"/>
<path d="M67.3003 35.4911C66.9332 35.4911 66.6194 35.3608 66.3589 35.1003C66.0984 34.828 65.9681 34.5082 65.9681 34.1411V27.3202C65.9681 26.9531 66.0984 26.6393 66.3589 26.3788C66.6194 26.1183 66.9332 25.988 67.3003 25.988C67.6674 25.988 67.9812 26.1183 68.2418 26.3788C68.5023 26.6393 68.6325 26.9531 68.6325 27.3202V34.1411C68.6325 34.5082 68.5023 34.828 68.2418 35.1003C67.9812 35.3608 67.6674 35.4911 67.3003 35.4911ZM67.2826 25.1532C66.8799 25.1532 66.5484 25.0229 66.2879 24.7624C66.0273 24.5019 65.8971 24.1348 65.8971 23.6611C65.8971 23.1874 66.0273 22.8203 66.2879 22.5598C66.5484 22.2993 66.8799 22.169 67.2826 22.169C67.7089 22.169 68.0523 22.2993 68.3128 22.5598C68.5733 22.8203 68.7036 23.1874 68.7036 23.6611C68.7036 24.1348 68.5733 24.5019 68.3128 24.7624C68.0523 25.0229 67.7089 25.1532 67.2826 25.1532ZM72.0614 35.3135C71.6588 35.3135 71.3272 35.1951 71.0667 34.9582C70.8062 34.7095 70.6523 34.4076 70.6049 34.0523C70.5575 33.6971 70.6523 33.3596 70.8891 33.0398L74.7969 27.8354L76.4488 28.6524H71.9726C71.6055 28.6524 71.2917 28.534 71.0312 28.2972C70.7707 28.0485 70.6404 27.7525 70.6404 27.4091C70.6404 27.0656 70.7707 26.7755 71.0312 26.5387C71.2917 26.29 71.6055 26.1657 71.9726 26.1657H76.4488C76.8633 26.1657 77.1949 26.29 77.4436 26.5387C77.7041 26.7874 77.858 27.0893 77.9054 27.4446C77.9528 27.7998 77.8521 28.1432 77.6034 28.4748L73.7844 33.5727L72.0614 32.8267H76.9284C77.2955 32.8267 77.6093 32.951 77.8699 33.1997C78.1304 33.4365 78.2606 33.7267 78.2606 34.0701C78.2606 34.4017 78.1304 34.6918 77.8699 34.9405C77.6093 35.1891 77.2955 35.3135 76.9284 35.3135H72.0614ZM83.4424 35.4911C82.6963 35.4911 82.0746 35.349 81.5773 35.0648C81.0918 34.7806 80.7247 34.3721 80.476 33.8392C80.2392 33.3063 80.1207 32.6727 80.1207 31.9386V27.2314C80.1207 26.8643 80.251 26.5505 80.5115 26.29C80.772 26.0295 81.0858 25.8992 81.4529 25.8992C81.82 25.8992 82.1338 26.0295 82.3944 26.29C82.6549 26.5505 82.7851 26.8643 82.7851 27.2314V31.4234C82.7851 32.0392 82.9272 32.4537 83.2115 32.6668C83.5075 32.88 83.8864 32.9866 84.3483 32.9866C84.739 32.9866 85.0588 32.8977 85.3075 32.7201C85.568 32.5425 85.7574 32.3175 85.8759 32.0451C86.0061 31.7609 86.0713 31.459 86.0713 31.1392V27.2314C86.0713 26.8643 86.2015 26.5505 86.462 26.29C86.7226 26.0295 87.0364 25.8992 87.4035 25.8992C87.7824 25.8992 88.0962 26.0295 88.3449 26.29C88.6054 26.5505 88.7357 26.8643 88.7357 27.2314V34.1411C88.7357 34.5082 88.6054 34.822 88.3449 35.0826C88.0962 35.3431 87.7824 35.4733 87.4035 35.4733C87.0364 35.4733 86.7226 35.3431 86.462 35.0826C86.2015 34.822 86.0713 34.5082 86.0713 34.1411V33.0221L86.6041 33.2175C86.2252 33.9753 85.7871 34.5438 85.2897 34.9227C84.7923 35.3016 84.1766 35.4911 83.4424 35.4911ZM92.7877 35.4911C92.4087 35.4911 92.0831 35.3549 91.8107 35.0826C91.5383 34.8102 91.4022 34.4845 91.4022 34.1056V24.265C91.4022 23.8861 91.5383 23.5605 91.8107 23.2881C92.0831 23.0157 92.4087 22.8796 92.7877 22.8796H94.1731V34.1056C94.1731 34.4845 94.037 34.8102 93.7646 35.0826C93.4922 35.3549 93.1666 35.4911 92.7877 35.4911ZM93.6403 30.784V28.2972H96.3402C96.6126 28.2972 96.8494 28.238 97.0507 28.1196C97.2639 28.0011 97.4297 27.8354 97.5481 27.6222C97.6665 27.4091 97.7257 27.1663 97.7257 26.8939C97.7257 26.5742 97.6665 26.3018 97.5481 26.0768C97.4297 25.84 97.252 25.6624 97.0152 25.544C96.7902 25.4255 96.5178 25.3663 96.1981 25.3663H93.6403V22.8796H96.4468C97.2402 22.8796 97.9448 23.0453 98.5605 23.3769C99.1763 23.7085 99.6618 24.1703 100.017 24.7624C100.384 25.3545 100.568 26.0472 100.568 26.8406C100.568 27.634 100.39 28.3268 100.035 28.9189C99.6796 29.511 99.2059 29.9728 98.6138 30.3044C98.0217 30.6241 97.3704 30.784 96.6599 30.784H93.6403ZM104.521 35.5799C104.012 35.5799 103.515 35.4793 103.029 35.278C102.555 35.0766 102.159 34.7747 101.839 34.3721C101.531 33.9576 101.377 33.4365 101.377 32.8089C101.377 31.8971 101.655 31.2044 102.212 30.7307C102.78 30.2452 103.704 29.9018 104.983 29.7004C105.338 29.6412 105.67 29.588 105.978 29.5406C106.285 29.4932 106.534 29.4222 106.724 29.3274C106.913 29.2209 107.008 29.061 107.008 28.8478C107.008 28.682 106.96 28.5459 106.866 28.4393C106.783 28.3209 106.659 28.238 106.493 28.1906C106.339 28.1314 106.149 28.1018 105.924 28.1018C105.628 28.1018 105.374 28.1551 105.161 28.2617C104.959 28.3682 104.77 28.5103 104.592 28.688C104.426 28.8538 104.231 28.9899 104.006 29.0965C103.793 29.2031 103.55 29.2564 103.278 29.2564C102.911 29.2564 102.615 29.1616 102.39 28.9722C102.165 28.7827 102.052 28.5222 102.052 28.1906C102.052 27.8709 102.153 27.5748 102.354 27.3025C102.555 27.0301 102.828 26.7933 103.171 26.592C103.515 26.3788 103.917 26.213 104.379 26.0946C104.841 25.9762 105.326 25.917 105.836 25.917C106.641 25.917 107.328 26.065 107.896 26.3611C108.464 26.6453 108.897 27.0479 109.193 27.5689C109.501 28.09 109.654 28.6998 109.654 29.3985V32.6135C109.654 32.7675 109.672 32.8741 109.708 32.9333C109.743 32.9806 109.82 33.028 109.939 33.0754C110.14 33.1583 110.329 33.2944 110.507 33.4839C110.697 33.6615 110.791 33.9102 110.791 34.2299C110.791 34.5852 110.661 34.8872 110.401 35.1358C110.14 35.3845 109.767 35.5029 109.281 35.4911C108.749 35.4793 108.334 35.3549 108.038 35.1181C107.754 34.8694 107.564 34.5497 107.47 34.1589L107.452 34.0878H107.399C107.067 34.5852 106.688 34.9582 106.262 35.2069C105.847 35.4556 105.267 35.5799 104.521 35.5799ZM105.214 33.3418C105.534 33.3418 105.83 33.2767 106.102 33.1464C106.374 33.0162 106.593 32.8267 106.759 32.578C106.925 32.3175 107.008 32.0096 107.008 31.6544V31.2103C107.008 31.1748 106.996 31.157 106.972 31.157C106.96 31.157 106.931 31.1688 106.884 31.1925C106.753 31.2636 106.605 31.3228 106.439 31.3701C106.274 31.4057 106.096 31.4353 105.907 31.459C105.717 31.4826 105.504 31.5241 105.267 31.5833C104.758 31.7017 104.426 31.8438 104.272 32.0096C104.13 32.1635 104.059 32.3412 104.059 32.5425C104.059 32.8148 104.154 33.0162 104.343 33.1464C104.545 33.2767 104.835 33.3418 105.214 33.3418ZM115.798 35.6332C115.004 35.6332 114.311 35.5148 113.719 35.278C113.127 35.0411 112.665 34.7451 112.334 34.3898C112.014 34.0346 111.854 33.6911 111.854 33.3596C111.854 33.0872 111.961 32.8208 112.174 32.5603C112.387 32.2997 112.707 32.1695 113.133 32.1695C113.429 32.1695 113.672 32.2287 113.861 32.3471C114.051 32.4537 114.187 32.5484 114.27 32.6313C114.613 32.9273 114.927 33.1346 115.211 33.253C115.496 33.3596 115.768 33.4129 116.029 33.4129C116.336 33.4129 116.55 33.3596 116.668 33.253C116.798 33.1346 116.863 32.9984 116.863 32.8445C116.863 32.7024 116.804 32.5721 116.686 32.4537C116.567 32.3353 116.39 32.2228 116.153 32.1162C115.916 31.9978 115.62 31.8793 115.265 31.7609C114.85 31.6188 114.454 31.4708 114.075 31.3169C113.708 31.1511 113.382 30.9557 113.098 30.7307C112.813 30.5057 112.588 30.2333 112.423 29.9136C112.269 29.5939 112.192 29.2031 112.192 28.7413C112.192 28.1847 112.34 27.6933 112.636 27.267C112.944 26.8288 113.358 26.4854 113.879 26.2367C114.412 25.988 115.016 25.8637 115.691 25.8637C116.331 25.8637 116.899 25.9703 117.396 26.1834C117.905 26.3966 118.302 26.6749 118.586 27.0183C118.882 27.3498 119.03 27.7169 119.03 28.1196C119.03 28.4156 118.942 28.6702 118.764 28.8834C118.598 29.0965 118.332 29.2031 117.965 29.2031C117.657 29.2031 117.402 29.138 117.201 29.0077C117 28.8656 116.84 28.7413 116.721 28.6347C116.638 28.5518 116.544 28.4689 116.437 28.386C116.342 28.3031 116.224 28.2321 116.082 28.1729C115.952 28.1136 115.786 28.084 115.584 28.084C115.3 28.084 115.105 28.1373 114.998 28.2439C114.904 28.3505 114.856 28.4689 114.856 28.5992C114.856 28.7768 114.927 28.9248 115.069 29.0432C115.211 29.1498 115.442 29.2623 115.762 29.3807C116.082 29.4991 116.508 29.659 117.041 29.8603C117.467 30.0143 117.834 30.186 118.142 30.3754C118.462 30.5531 118.723 30.7544 118.924 30.9794C119.137 31.1925 119.291 31.4353 119.386 31.7076C119.492 31.9682 119.546 32.2701 119.546 32.6135C119.546 33.2293 119.392 33.7681 119.084 34.2299C118.776 34.6799 118.338 35.0293 117.769 35.278C117.213 35.5148 116.556 35.6332 115.798 35.6332ZM124.905 35.6332C124.111 35.6332 123.418 35.5148 122.826 35.278C122.234 35.0411 121.772 34.7451 121.441 34.3898C121.121 34.0346 120.961 33.6911 120.961 33.3596C120.961 33.0872 121.068 32.8208 121.281 32.5603C121.494 32.2997 121.814 32.1695 122.24 32.1695C122.536 32.1695 122.779 32.2287 122.968 32.3471C123.158 32.4537 123.294 32.5484 123.377 32.6313C123.72 32.9273 124.034 33.1346 124.318 33.253C124.603 33.3596 124.875 33.4129 125.135 33.4129C125.443 33.4129 125.656 33.3596 125.775 33.253C125.905 33.1346 125.97 32.9984 125.97 32.8445C125.97 32.7024 125.911 32.5721 125.793 32.4537C125.674 32.3353 125.497 32.2228 125.26 32.1162C125.023 31.9978 124.727 31.8793 124.372 31.7609C123.957 31.6188 123.56 31.4708 123.182 31.3169C122.814 31.1511 122.489 30.9557 122.205 30.7307C121.92 30.5057 121.695 30.2333 121.53 29.9136C121.376 29.5939 121.299 29.2031 121.299 28.7413C121.299 28.1847 121.447 27.6933 121.743 27.267C122.051 26.8288 122.465 26.4854 122.986 26.2367C123.519 25.988 124.123 25.8637 124.798 25.8637C125.437 25.8637 126.006 25.9703 126.503 26.1834C127.012 26.3966 127.409 26.6749 127.693 27.0183C127.989 27.3498 128.137 27.7169 128.137 28.1196C128.137 28.4156 128.049 28.6702 127.871 28.8834C127.705 29.0965 127.439 29.2031 127.072 29.2031C126.764 29.2031 126.509 29.138 126.308 29.0077C126.106 28.8656 125.947 28.7413 125.828 28.6347C125.745 28.5518 125.651 28.4689 125.544 28.386C125.449 28.3031 125.331 28.2321 125.189 28.1729C125.058 28.1136 124.893 28.084 124.691 28.084C124.407 28.084 124.212 28.1373 124.105 28.2439C124.01 28.3505 123.963 28.4689 123.963 28.5992C123.963 28.7768 124.034 28.9248 124.176 29.0432C124.318 29.1498 124.549 29.2623 124.869 29.3807C125.189 29.4991 125.615 29.659 126.148 29.8603C126.574 30.0143 126.941 30.186 127.249 30.3754C127.569 30.5531 127.829 30.7544 128.031 30.9794C128.244 31.1925 128.398 31.4353 128.493 31.7076C128.599 31.9682 128.652 32.2701 128.652 32.6135C128.652 33.2293 128.499 33.7681 128.191 34.2299C127.883 34.6799 127.445 35.0293 126.876 35.278C126.32 35.5148 125.662 35.6332 124.905 35.6332Z" fill="white"/>
<path d="M497.439 103H383.008C382.749 99.5499 389.033 98.0486 392.207 97.7293C393.821 90.2223 400.762 89.4237 405.281 92.139C408.024 84.7917 416.417 84.632 421.098 87.507C423.196 84.3125 427.231 80 434.171 80C442.951 80.2556 447.083 87.2408 448.051 90.7015C452.054 89.4237 455.314 90.9144 456.444 91.8195C457.574 90.0627 460.156 85.9097 466.612 86.2292C471.777 86.4847 474.897 91.2338 475.812 93.5763C483.559 90.7013 485.98 97.7291 486.787 97.7291C493.888 97.7291 496.847 101.243 497.439 103Z" fill="#FFFEFF"/>
<path d="M123 93.4837H-16C-13.5393 88.9951 -3.45241 88.4635 1.28346 88.7587C2.30875 77.2418 13.8799 75.1747 18.4204 77.2418C18.274 76.3559 21.9357 61 36.7292 61C49.8529 61.2362 54.8915 71.3357 55.7703 76.3559C61.0432 74.9384 65.9744 79.1122 67.7808 81.3762C73.6396 71.631 85.2107 76.9465 86.9684 83.7386C95.0535 80.3131 99.9066 86.0518 101.322 89.3494C115.149 87.2232 121.535 91.2197 123 93.4837Z" fill="#FFFEFF"/>
<path d="M270 84H383C381 80.4073 372.799 79.9818 368.949 80.2181C368.116 71 358.709 69.3454 355.018 71C355.137 70.2909 352.16 58 340.134 58C329.465 58.1891 325.369 66.2727 324.654 70.2909C320.368 69.1563 316.359 72.497 314.89 74.3092C310.128 66.5091 300.721 70.7636 299.292 76.2C292.719 73.4582 288.774 78.0515 287.623 80.6909C276.382 78.9891 271.191 82.1879 270 84Z" fill="#FFFEFF"/>
<path d="M195 54H160C160.258 51.6576 163.554 50.8378 165.169 50.7208C165.6 45.6613 169.369 45.6457 171.2 46.2703C171.631 44.5135 173.354 41 177.338 41C182.163 41.1874 183.477 45.1772 183.692 47.3243C186.966 46.5748 188.503 49.5495 188.754 51.0721C192.803 50.9784 194.605 52.985 195 54Z" fill="#FFFEFF"/>
<path d="M407 30H367C367.295 27.4774 371.062 26.5946 372.908 26.4685C373.4 21.0198 377.708 21.003 379.8 21.6757C380.292 19.7838 382.262 16 386.815 16C392.329 16.2018 393.831 20.4985 394.077 22.8108C397.818 22.0036 399.574 25.2072 399.862 26.8468C404.489 26.7459 406.549 28.9069 407 30Z" fill="#FFFEFF"/>
<g clip-path="url(#clip1_1198_286)">
<path d="M33.7042 73.6523C33.7792 71.6396 33.0728 69.9863 32.7975 69.4207C32.7288 69.2832 32.6893 69.2101 32.6893 69.2101C38.0148 68.1311 32.6544 60.8048 32.6544 60.8048C34.6567 59.6665 34.1358 57.4168 32.2929 55.0184L33.3963 55.9768C34.8011 55.1391 37.772 52.8787 36.2334 49.4614C34.3349 45.2413 27.9709 44.1559 24.3401 48.1099L25.7452 49.3317C23.8116 48.1254 21.758 47.1523 19.8542 46.6282C17.948 46.1028 15.6846 45.8893 13.4045 45.9376L15.241 45.607C14.1454 40.3516 8.12372 38.0306 4.3321 40.684C1.26062 42.8323 2.65776 46.2917 3.43916 47.7331L4.87828 47.4736C2.06834 48.5922 0.468224 50.2581 1.60886 52.2618C1.60886 52.2618 -6.74696 55.8124 -2.72538 59.4645C-2.72538 59.4645 -4.67276 60.5686 -5.86592 62.7648C-6.72169 64.3312 -7.19647 66.4534 -6.3072 69.1303C-4.65636 74.0957 0.394887 76.1354 4.67542 76.9616C3.61723 77.4786 2.70316 78.3199 2.1013 79.4335C0.56293 82.2796 1.62172 85.836 4.47021 87.3756C7.3187 88.9153 10.8727 87.8552 12.4124 85.0067C13.8184 82.4054 13.0545 79.2152 10.7405 77.5082C11.1382 77.5042 11.3613 77.4909 11.3613 77.4909C11.3613 77.4909 23.5186 85.659 30.8214 79.346C32.9565 77.5007 33.6367 75.4318 33.7055 73.65L33.7042 73.6523Z" fill="#F8D4AE"/>
<path d="M10.3742 46.1583C7.96156 46.4573 5.70527 47.0355 4.03909 47.8445C3.53585 46.2036 3.04384 43.3095 5.43094 42.4218C7.96113 41.4775 9.66919 44.5362 10.3742 46.1583Z" fill="#FFF1E6"/>
<path d="M32.8211 55.7633C31.8048 54.2162 30.1621 52.5618 28.2375 51.0744C29.6714 50.0425 32.7087 48.2894 34.3969 50.3943C35.9883 52.38 34.0911 54.6124 32.8199 55.7657L32.8211 55.7633Z" fill="#FFF1E6"/>
<path d="M30.8201 79.3483C23.5173 85.6613 11.36 77.4932 11.36 77.4932C11.36 77.4932 -3.26241 78.2925 -6.31086 69.1313C-7.20013 66.4544 -6.72535 64.3322 -5.86958 62.7658C-3.23674 65.7737 0.598509 67.4969 5.01021 67.4389C8.43975 67.3914 11.3479 62.2924 15.2458 63.365C19.1437 64.4376 19.0343 70.3072 21.9573 72.103C25.72 74.4106 29.8978 74.8922 33.7006 73.6533C33.6318 75.4352 32.9515 77.5041 30.8165 79.3494L30.8201 79.3483Z" fill="#FFF1E6"/>
<path d="M1.43652 72.69C4.02261 72.0295 5.58357 69.3976 4.92302 66.8115C4.26248 64.2254 1.63056 62.6644 -0.955533 63.325C-3.54162 63.9855 -5.10258 66.6174 -4.44204 69.2035C-3.78149 71.7896 -1.14957 73.3506 1.43652 72.69Z" fill="#FD9DB4"/>
<path d="M30.4272 76.3161C31.1366 73.7429 29.6242 71.082 27.0497 70.3749C24.4765 69.6654 21.8156 71.1778 21.1085 73.7523C20.399 76.3256 21.9114 78.9864 24.4859 79.6936C27.0592 80.403 29.72 78.8906 30.4272 76.3161Z" fill="#FD9DB4"/>
<path d="M33.5788 69.6181C34.5069 69.2741 35.1351 68.6859 35.4547 67.8639C36.3342 65.5895 34.4089 62.2856 33.5327 60.9633C34.3299 60.2931 34.6756 59.3666 34.5374 58.2546C34.4647 57.68 34.256 57.0531 33.9238 56.3959C34.7168 55.8968 35.7331 55.1138 36.4464 54.0362C37.4364 52.5423 37.5615 50.87 36.8089 49.2008C35.8405 47.053 33.7567 45.5282 31.2348 45.1232C28.5366 44.6899 25.824 45.6116 23.954 47.5911C22.6004 46.8989 21.2599 46.3569 20.0207 46.0156C18.7816 45.6743 17.3517 45.4551 15.8354 45.3565C15.2401 42.6985 13.3818 40.5199 10.8421 39.5122C8.46551 38.5683 5.89421 38.8119 3.96529 40.1633C2.46513 41.211 1.71911 42.7151 1.80454 44.5042C1.86756 45.7946 2.33835 46.989 2.7644 47.8216C2.14229 48.2185 1.64247 48.6479 1.28543 49.1059C0.597484 49.9904 0.421589 50.963 0.762575 51.9473C-0.665066 52.6358 -4.01444 54.4878 -4.42042 56.8935C-4.56788 57.7629 -4.32724 58.5896 -3.70879 59.3588C-4.27421 59.7802 -5.10416 60.4997 -5.84071 61.5191C-6.98705 63.111 -8.10606 65.761 -6.91843 69.3322C-6.04557 71.9607 -4.1658 74.0658 -1.395 75.5634C0.0151127 76.3256 1.65892 76.9313 3.5165 77.3665C7.08907 78.2024 10.3279 78.1644 11.1765 78.1364C11.8922 78.5963 14.6546 80.2841 18.1526 81.393C23.546 83.1037 28.0677 82.5606 31.2296 79.8285C35.6217 76.0305 34.2751 71.3238 33.5751 69.6192L33.5788 69.6181ZM31.0331 46.38C33.1344 46.7188 34.8595 47.9676 35.6523 49.7255C36.1923 50.9269 36.5836 53.2251 33.2761 55.3036C32.3832 53.9784 31.0539 52.5602 29.3682 51.1654C28.036 50.0621 26.5832 49.0638 25.1168 48.2256C26.6855 46.7191 28.8625 46.0342 31.0318 46.3824L31.0331 46.38ZM4.6935 41.2079C6.27204 40.1052 8.39504 39.9142 10.3721 40.6969C12.4141 41.5056 13.9354 43.2101 14.5115 45.3071C12.8242 45.2772 11.064 45.3935 9.35413 45.6586C7.19175 45.9956 5.32593 46.5323 3.87927 47.2166C2.09955 43.739 3.6121 41.9648 4.69223 41.2102L4.6935 41.2079ZM30.4042 78.8682C27.5598 81.3279 23.5776 81.7732 18.5704 80.1922C14.7451 78.9854 11.7436 76.9859 11.7143 76.967C11.6006 76.8903 11.4629 76.8524 11.325 76.86C11.2902 76.8625 7.68882 77.0422 3.78362 76.1237C-1.32784 74.9214 -4.52182 72.5015 -5.7071 68.9314C-7.64511 63.096 -2.62856 60.1404 -2.41396 60.0192C-2.23709 59.9171 -2.11882 59.7376 -2.09566 59.5372C-2.07359 59.3332 -2.14867 59.1344 -2.29998 58.9979C-2.99006 58.3724 -3.27326 57.7539 -3.16295 57.1108C-2.84571 55.2351 0.567796 53.3995 1.85566 52.8515C2.02197 52.7801 2.15087 52.643 2.20787 52.47C2.26723 52.2982 2.24814 52.1085 2.15849 51.9535C1.73448 51.2072 1.77683 50.5548 2.29242 49.8936C3.31254 48.5803 6.02766 47.4683 9.55458 46.9199C13.1248 46.3644 16.9129 46.4864 19.6844 47.2513C21.0077 47.6168 22.454 48.2221 23.9088 49.0085C25.5026 49.8699 27.1027 50.9447 28.5585 52.1514C31.3069 54.4278 33.0701 56.771 33.2761 58.4215C33.38 59.2534 33.0824 59.8378 32.3361 60.2618C32.1789 60.3502 32.0686 60.5036 32.0306 60.6807C31.9926 60.8579 32.0322 61.0436 32.1389 61.1895C32.9638 62.3198 34.958 65.6426 34.2704 67.4155C34.0355 68.0246 33.4772 68.4103 32.5613 68.5966C32.3624 68.6382 32.1942 68.7693 32.1092 68.9546C32.0243 69.1399 32.033 69.3545 32.1328 69.5301C32.1373 69.5386 32.1713 69.5996 32.2253 69.7079C32.4759 70.2235 33.064 71.6061 33.0703 73.3221C33.0785 75.468 32.182 77.3348 30.404 78.8742L30.4042 78.8682Z" fill="#D3A98C"/>
<path d="M23.3821 69.9621C23.088 71.0352 21.9771 71.6667 20.9053 71.3703C19.8323 71.0762 19.2008 69.9653 19.4972 68.8935C19.7936 67.8218 20.9022 67.189 21.9739 67.4854C23.047 67.7794 23.6785 68.8904 23.3821 69.9621Z" fill="#5F5C5D"/>
<path d="M8.76732 65.9413C8.47327 67.0143 7.36234 67.6458 6.29059 67.3494C5.21756 67.0554 4.58606 65.9444 4.88246 64.8727C5.17651 63.7997 6.28744 63.1682 7.3592 63.4646C8.43223 63.7586 9.06372 64.8695 8.76732 65.9413Z" fill="#5F5C5D"/>
<path d="M17.4154 68.1698C17.4154 68.1698 16.7394 70.3322 15.464 71.7631C15.3684 71.8726 15.2669 71.9759 15.1594 72.079C14.411 72.7939 13.484 73.2146 12.3875 72.8683C11.3977 72.5554 10.8793 71.8036 10.6369 70.9183C10.5971 70.7781 10.567 70.6311 10.5406 70.4829C10.2057 68.5194 10.9689 66.1394 10.9689 66.1394C10.9217 66.9078 11.399 67.6343 12.1647 67.8778C13.0656 68.164 14.0311 67.6607 14.3173 66.7599C14.0311 67.6607 14.532 68.625 15.4352 68.9125C16.2022 69.1536 17.01 68.8298 17.4128 68.1745L17.4154 68.1698Z" fill="#5F5C5D"/>
<path d="M15.1607 72.0766C14.4123 72.7915 13.4853 73.2121 12.3888 72.8659C11.399 72.5529 10.8806 71.8012 10.6382 70.9158C11.3877 70.2045 12.3172 69.7792 13.4114 70.1242C14.4036 70.4384 14.9209 71.1865 15.1595 72.079L15.1607 72.0766Z" fill="#E27FA3"/>
<path d="M11.6181 73.228C11.0719 72.9328 10.6454 72.4893 10.3408 71.9049C9.18799 69.6818 10.3154 66.0933 10.3633 65.9428L11.5747 66.3298C11.2887 67.2247 10.717 69.8694 11.4705 71.3231C11.7164 71.7967 12.0779 72.1016 12.5793 72.26C13.0807 72.4185 13.5538 72.3761 14.0264 72.1266C15.4838 71.3661 16.5283 68.8765 16.8059 67.9802L18.0188 68.3589C17.9708 68.5095 16.8328 72.0952 14.6131 73.2529C13.8362 73.6603 13.0221 73.7314 12.1935 73.469C11.9884 73.4038 11.7946 73.3234 11.6157 73.2267L11.6181 73.228Z" fill="#F8D4AE"/>
<path d="M17.7476 67.6282C17.4481 67.445 17.0572 67.5379 16.8717 67.8362C16.6128 68.2589 16.1003 68.4473 15.6273 68.2982C15.0713 68.1224 14.7584 67.5365 14.9126 66.981L15.1592 66.0801L13.9331 65.7429L13.7069 66.5666C13.6203 66.8392 13.4324 67.0631 13.1756 67.195C12.9187 67.3269 12.6269 67.3547 12.3519 67.2669C11.8789 67.1178 11.5688 66.6672 11.5977 66.1749C11.6196 65.8247 11.3502 65.524 11.0001 65.502C10.65 65.4801 10.3492 65.7495 10.3273 66.0996C10.2714 67.0246 10.7627 67.8772 11.5537 68.3047C11.6832 68.3747 11.8213 68.4342 11.9672 68.4796C12.5646 68.6686 13.2034 68.6124 13.761 68.3237C13.7829 68.3112 13.8073 68.3 13.8292 68.2875C14.1009 68.8541 14.5964 69.3106 15.2413 69.5131C16.2702 69.8381 17.385 69.4247 17.9496 68.5039C18.1327 68.2044 18.0398 67.8135 17.7416 67.628L17.7476 67.6282Z" fill="#D3A98C"/>
<path d="M15.9642 65.4294C15.7433 65.0333 15.2437 64.894 14.8475 65.1148L14.7512 65.1692L14.6968 65.0729C14.4759 64.6767 13.9763 64.5375 13.5801 64.7583C13.1839 64.9792 13.0447 65.4788 13.2655 65.875L13.4558 66.2151C13.8229 66.8698 14.6512 67.1046 15.3058 66.7375L15.646 66.5472C16.0422 66.3263 16.1814 65.8267 15.9606 65.4305L15.9642 65.4294Z" fill="#E27FA3"/>
<path d="M21.7612 101.19C29.2447 98.9581 33.5018 91.082 31.2697 83.5985C29.0376 76.115 21.1615 71.8579 13.678 74.09C6.19452 76.3221 1.93741 84.1982 4.16952 91.6817C6.40163 99.1652 14.2777 103.422 21.7612 101.19Z" fill="#B5F6F8"/>
<path d="M31.8706 83.3867C30.7384 79.6173 28.2092 76.5133 24.7463 74.6416C24.7463 74.6416 24.7345 74.6352 24.7298 74.6327L24.7204 74.6276C24.7063 74.6199 24.6898 74.611 24.6757 74.6034C21.2096 72.7543 17.2338 72.3605 13.468 73.4916C9.68766 74.6271 6.57731 77.1681 4.70754 80.6442C0.854555 87.812 3.53939 96.7736 10.6959 100.642C10.7053 100.647 10.7148 100.652 10.7242 100.657C17.9014 104.515 26.8766 101.816 30.737 94.6404C32.6068 91.1643 33.0085 87.1683 31.873 83.388L31.8706 83.3867ZM21.5821 96.9288C22.8519 95.5983 24.0143 94.0273 25.0076 92.2797L29.2995 94.5874C27.7718 97.1381 25.5112 99.0129 22.9373 100.089C22.61 98.9779 22.1517 97.918 21.5834 96.9264L21.5821 96.9288ZM4.4581 90.1552C3.93612 87.4122 4.25431 84.4936 5.53831 81.8142L9.83026 84.1219C8.92302 85.9129 8.25132 87.7522 7.8434 89.5424C6.70364 89.6138 5.56566 89.817 4.4581 90.1552ZM13.8577 78.3533C12.588 79.6838 11.4256 81.2548 10.4323 83.0024L6.138 80.6934C7.62669 78.2037 9.83924 76.2938 12.498 75.1849C12.8277 76.297 13.2848 77.3592 13.8554 78.3521L13.8577 78.3533ZM30.989 85.1247C31.531 87.9546 31.1559 90.8546 29.9016 93.4679L25.6073 91.159C26.5145 89.3679 27.1862 87.5287 27.5954 85.7361C28.7388 85.6636 29.8768 85.4604 30.988 85.1211L30.989 85.1247ZM24.4889 90.5605L18.5807 87.3823L20.2393 84.297C22.1425 85.2162 24.2066 85.7083 26.2882 85.7627C25.8977 87.3463 25.2952 88.9674 24.4901 90.5582L24.4889 90.5605ZM20.8413 83.1775L24.6498 76.0921C25.9857 77.1153 26.743 79.0121 26.7947 81.5222C26.8158 82.4736 26.7312 83.4743 26.5525 84.4971C24.5906 84.48 22.6375 84.0358 20.8413 83.1775ZM23.5326 75.4913L19.7242 82.5767C18.0183 81.5512 16.5706 80.1664 15.473 78.5389C16.2298 77.8255 17.0159 77.204 17.8223 76.6969C19.9461 75.3566 21.9446 74.9401 23.535 75.4926L23.5326 75.4913ZM19.1185 83.6973L17.46 86.7826L11.5518 83.6044C12.4333 82.058 13.4537 80.6597 14.5612 79.4606C15.7532 81.1665 17.3031 82.6156 19.1185 83.6973ZM10.9497 84.7239L16.8579 87.9021L15.2006 90.9851C13.2974 90.0659 11.2333 89.5738 9.15164 89.5194C9.54219 87.9358 10.1447 86.3147 10.9497 84.7239ZM14.5986 92.1046L10.7901 99.19C9.45418 98.1668 8.69688 96.27 8.64523 93.7599C8.62408 92.8085 8.70741 91.8102 8.88738 90.785C10.8493 90.8021 12.8024 91.2463 14.5986 92.1046ZM11.9096 99.7921L15.7181 92.7067C17.4239 93.7321 18.8716 95.1169 19.9692 96.7444C19.2125 97.4579 18.4263 98.0794 17.6199 98.5865C15.4962 99.9268 13.4977 100.343 11.9073 99.7908L11.9096 99.7921ZM16.3214 91.5848L17.9787 88.5018L23.8868 91.68C23.0053 93.2264 21.9849 94.6247 20.8774 95.8239C19.6854 94.1179 18.1355 92.6688 16.3201 91.5872L16.3214 91.5848ZM30.6909 83.8867C29.7608 84.178 28.8066 84.3619 27.8485 84.4462C28.0101 83.4325 28.0847 82.4446 28.0659 81.4945C28.0407 80.3706 27.889 79.3456 27.615 78.4401C29.0065 79.9344 30.0481 81.7385 30.6521 83.7502C30.6651 83.7937 30.6768 83.8396 30.6898 83.8831L30.6909 83.8867ZM19.9374 74.3146C19.0307 74.585 18.0912 75.0232 17.1406 75.6227C16.3378 76.1287 15.5544 76.7395 14.7971 77.4314C14.3392 76.5846 13.9691 75.688 13.6973 74.7502C13.7408 74.7372 13.7856 74.7219 13.8291 74.7089C15.842 74.1026 17.9211 73.9761 19.935 74.3133L19.9374 74.3146ZM4.75499 91.3956C5.68377 91.1067 6.63559 90.9215 7.59141 90.8359C7.43104 91.8473 7.35516 92.8375 7.37522 93.7852C7.39936 94.9055 7.54999 95.9269 7.82295 96.8288C6.37369 95.2667 5.33415 93.3968 4.75627 91.3932L4.75499 91.3956ZM15.5121 100.967C16.4164 100.695 17.351 100.26 18.2981 99.6618C19.1008 99.1557 19.883 98.5473 20.6379 97.8541C21.0947 98.6973 21.4648 99.5939 21.7356 100.528C19.7449 101.15 17.612 101.314 15.5097 100.965L15.5121 100.967Z" fill="#95E0E8"/>
<path d="M29.9542 88.4013L10.3796 77.821L5.48332 86.8797L25.0579 97.46L29.9542 88.4013Z" fill="white"/>
<path d="M24.7587 98.0194L5.18415 87.4391C4.87575 87.2724 4.75874 86.8867 4.9267 86.576L9.82302 77.5173C9.9897 77.2089 10.3754 77.0919 10.6861 77.2599L30.2607 87.8401C30.5691 88.0068 30.6861 88.3925 30.5181 88.7033L25.6218 97.7619C25.4551 98.0703 25.0694 98.1873 24.7587 98.0194ZM6.34648 86.6225L24.8028 96.5983L29.0935 88.6602L10.6371 78.6844L6.34648 86.6225Z" fill="#E2E2E2"/>
<path d="M5.03926 77.5262C-1.61835 78.813 -5.64844 84.5132 -2.57642 86.5904C0.493244 88.6663 8.36383 91.9957 8.38658 87.8284C8.40932 83.6612 1.86701 82.7592 1.86701 82.7592L5.03926 77.5262Z" fill="#F8D4AE"/>
<path d="M-2.93321 87.1154C-4.01388 86.3853 -4.45629 85.2397 -4.18229 83.8942C-3.89697 82.494 -2.81959 80.9622 -1.23079 79.6886C0.46489 78.3298 2.93399 76.9358 5.20256 76.4981C5.54594 76.4312 5.87997 76.6574 5.94685 77.0008C6.01373 77.3442 5.78755 77.6782 5.44417 77.7451C2.00695 78.409 -2.35252 81.2968 -2.93557 84.1483C-3.10708 84.9834 -2.86777 85.6268 -2.2207 86.0617C0.381313 87.821 5.45482 89.8758 7.18169 88.9658C7.42403 88.8382 7.74959 88.5792 7.75333 87.8238C7.77221 84.2659 1.8419 83.3967 1.78228 83.3888C1.43419 83.3405 1.19184 83.0179 1.23879 82.6722C1.28701 82.3241 1.60728 82.0805 1.95537 82.1287C2.02568 82.1393 3.70161 82.376 5.40224 83.1522C7.78258 84.2411 9.03493 85.8579 9.02473 87.8296C9.01719 89.1549 8.34196 89.7907 7.77565 90.0899C5.07324 91.516 -1.01917 88.4085 -2.92958 87.1143L-2.93321 87.1154Z" fill="#D3A98C"/>
<path d="M32.5494 78.7378C34.0325 80.3668 34.6622 82.2068 33.0369 83.6888C31.4115 85.1708 28.8852 85.0555 27.4021 83.4265C25.9191 81.7975 26.0354 79.2748 27.6644 77.7917C29.2934 76.3087 31.0663 77.1088 32.5507 78.7354L32.5494 78.7378Z" fill="#F8D4AE"/>
<path d="M28.1539 84.8155C27.7019 84.5712 27.2883 84.2503 26.9321 83.8569C25.2153 81.9738 25.3519 79.0422 27.235 77.3254C28.1537 76.4866 29.2226 76.1975 30.3197 76.4863C31.221 76.721 32.1294 77.3367 33.0166 78.3121C33.9062 79.2887 34.4336 80.2491 34.5851 81.1675C34.7696 82.2893 34.381 83.3234 33.4623 84.1622C32.5497 84.9952 31.3675 85.4209 30.1337 85.3624C29.4283 85.3279 28.7542 85.14 28.1516 84.8142L28.1539 84.8155ZM30.621 77.9663C30.4091 77.8517 30.2023 77.7673 29.9992 77.7153C29.3176 77.5355 28.6941 77.7156 28.0898 78.2651C26.7235 79.5099 26.6246 81.6344 27.8694 83.0008C28.4733 83.6618 29.2979 84.0497 30.191 84.0914C31.0841 84.133 31.9416 83.8239 32.605 83.2213C33.2056 82.6729 33.444 82.0686 33.3297 81.3741C33.2203 80.7097 32.786 79.9487 32.0757 79.1693C31.5852 78.6304 31.0893 78.2254 30.6161 77.9697L30.621 77.9663Z" fill="#D3A98C"/>
<path d="M10.6889 87.7197C10.5469 87.6458 10.452 87.5393 10.4041 87.4002C10.3634 87.2588 10.3799 87.1171 10.4537 86.9751L12.575 82.8934C12.6685 82.7136 12.7859 82.6034 12.9273 82.5627C13.0734 82.5245 13.2079 82.5373 13.3309 82.6013C13.4539 82.6653 13.5337 82.7489 13.5702 82.8521C13.6092 82.9505 13.6302 83.0606 13.633 83.1824L14.0398 87.5693L13.7106 87.8038L15.4326 84.317C15.5016 84.1725 15.6045 84.0787 15.7411 84.0356C15.8849 83.9902 16.0278 84.0044 16.1697 84.0782C16.3117 84.1521 16.403 84.2597 16.4437 84.4011C16.4916 84.5403 16.4786 84.6808 16.4049 84.8228L14.2577 88.9542C14.1888 89.0867 14.0813 89.178 13.935 89.2281C13.7912 89.2736 13.6507 89.2606 13.5135 89.1892C13.4188 89.14 13.3447 89.0744 13.2912 88.9924C13.2376 88.9104 13.2055 88.8276 13.1949 88.7439L12.7055 84.1517L13.0887 84.1256L11.4331 87.4846C11.364 87.6291 11.2576 87.724 11.1138 87.7694C10.9772 87.8126 10.8355 87.796 10.6889 87.7197ZM16.1272 90.549C15.9853 90.4752 15.8903 90.3687 15.8424 90.2295C15.8017 90.0881 15.8183 89.9464 15.8921 89.8044L18.0023 85.7441C18.0736 85.6068 18.1812 85.5155 18.325 85.4701C18.4688 85.4247 18.6094 85.4377 18.7466 85.509L19.2363 85.7638L16.8714 90.314C16.7977 90.4559 16.6889 90.5496 16.545 90.5951C16.4084 90.6382 16.2691 90.6229 16.1272 90.549ZM18.4452 86.4705L18.9027 85.5903L20.8686 86.613C20.9963 86.6795 21.0795 86.7739 21.1181 86.8962C21.1615 87.0209 21.1487 87.1495 21.0798 87.2821C21.0134 87.4098 20.9155 87.4942 20.7861 87.535C20.6638 87.5736 20.5388 87.5597 20.4111 87.4932L18.4452 86.4705ZM17.3824 88.5328L17.8436 87.6454L19.6675 88.5944C19.7953 88.6608 19.8772 88.7576 19.9134 88.8846C19.9543 89.0141 19.9415 89.1427 19.8751 89.2705C19.8087 89.3983 19.7108 89.4826 19.5814 89.5235C19.4591 89.5621 19.3341 89.5481 19.2064 89.4817L17.3824 88.5328ZM22.1411 88.4654C22.0086 88.3965 21.9208 88.2937 21.8776 88.157C21.8345 88.0203 21.8473 87.8857 21.9162 87.7532C21.9875 87.616 22.0902 87.5282 22.2244 87.4897C22.361 87.4466 22.4956 87.4595 22.6281 87.5284L25.6656 89.1087C25.8028 89.1801 25.8906 89.2829 25.929 89.4171C25.9747 89.5491 25.9618 89.6836 25.8905 89.8209C25.8216 89.9534 25.7189 90.0412 25.5823 90.0844C25.4504 90.13 25.3158 90.1171 25.1786 90.0457L22.1411 88.4654ZM21.5275 93.3585C21.3855 93.2847 21.293 93.1794 21.2498 93.0427C21.2091 92.9013 21.2256 92.7596 21.2994 92.6177L23.4134 88.5502L24.3856 89.056L22.2717 93.1235C22.1979 93.2655 22.0891 93.3592 21.9453 93.4046C21.8087 93.4477 21.6694 93.4324 21.5275 93.3585Z" fill="#DD528B"/>
<path d="M27.3351 104.231H-8.05261C-7.79129 102.074 -4.45939 101.318 -2.82611 101.211C-2.39057 96.5498 1.42042 96.5354 3.27147 97.1108C3.70701 95.4925 5.44918 92.2559 9.47794 92.2559C14.356 92.4285 15.6844 96.1039 15.9022 98.0818C19.2123 97.3913 20.7657 100.132 21.0198 101.534C25.1139 101.448 26.9359 103.296 27.3351 104.231Z" fill="#FFFEFF"/>
</g>
<path d="M219 54H176C176.761 52.7564 179.882 52.6091 181.347 52.6909C181.664 49.5 185.243 48.9273 186.648 49.5C186.603 49.2545 187.736 45 192.312 45C196.372 45.0655 197.93 47.8636 198.202 49.2545C199.834 48.8618 201.359 50.0182 201.918 50.6455C203.73 47.9455 207.31 49.4182 207.854 51.3C210.355 50.3509 211.856 51.9409 212.294 52.8545C216.571 52.2655 218.547 53.3727 219 54Z" fill="#FFFEFF"/>
<path d="M281.362 71.1638L282.585 72.1906C284.113 71.2497 287.327 68.7273 285.579 65.022C283.421 60.4462 276.427 59.3735 272.525 63.7593L274.089 65.071C271.947 63.7868 269.679 62.7601 267.583 62.2207C265.485 61.6813 263.002 61.4882 260.506 61.5802L262.51 61.1848C261.216 55.4628 254.573 53.0324 250.467 56.0022C247.142 58.405 248.734 62.1625 249.613 63.7225L251.186 63.4129C248.129 64.6848 246.402 66.536 247.686 68.7028C247.686 68.7028 238.596 72.733 243.07 76.6529C243.07 76.6529 242.991 76.6989 242.852 76.7939C241.774 77.5233 237.143 81.0908 239.321 87.2817C241.488 93.4389 248.436 95.3544 253.426 95.9183C250.255 96.9359 248.03 99.3142 248.03 102.085C248.03 105.781 251.994 108.778 256.883 108.778C261.772 108.778 266.763 105.781 266.763 102.085C266.763 100.957 265.386 99.2038 265.737 99.3203C270.223 100.807 275.997 101.521 280.192 97.7818C285.72 92.8505 282.054 86.6687 282.054 86.6687C287.871 85.3907 281.86 77.4835 281.86 77.4835C284.036 76.2024 283.421 73.7567 281.362 71.1669V71.1638Z" fill="#F8D4AE"/>
<path d="M276.851 66.9195C278.984 68.5132 280.812 70.2908 281.953 71.9642C283.323 70.6831 285.364 68.2037 283.581 66.0675C281.691 63.7965 278.403 65.7671 276.848 66.9195H276.851Z" fill="#FFF1E6"/>
<path d="M250.274 63.8271C252.084 62.9138 254.542 62.2365 257.185 61.8687C256.38 60.1095 254.453 56.7995 251.702 57.8783C249.106 58.8928 249.693 62.0434 250.274 63.8271Z" fill="#FFF1E6"/>
<path d="M263.524 77.9251C259.674 76.9352 256.782 82.4396 253.39 82.6173C248.209 82.887 245.385 80.5608 243.068 76.6501C243.068 76.6501 236.863 80.2973 239.319 87.2759C242.822 97.2334 258.832 96.0964 258.832 96.0964C258.832 96.0964 272.3 104.804 280.189 97.7729C285.717 92.8416 282.051 86.6598 282.051 86.6598C278.13 88.9707 274.531 89.645 270.125 86.9142C267.242 85.1244 267.374 78.912 263.524 77.922V77.9251Z" fill="#FFF1E6"/>
<path d="M270.205 88.8942C270.933 86.0684 273.822 84.3674 276.655 85.0969C279.488 85.8232 281.194 88.7042 280.462 91.5299C279.734 94.3557 276.845 96.0566 274.012 95.3272C271.179 94.6009 269.473 91.7199 270.205 88.8942Z" fill="#FD9DB4"/>
<path d="M251.483 86.1532C253.232 83.8132 252.747 80.5028 250.401 78.7593C248.054 77.0157 244.735 77.4993 242.987 79.8392C241.239 82.1792 241.724 85.4896 244.07 87.2331C246.416 88.9767 249.735 88.4932 251.483 86.1532Z" fill="#FD9DB4"/>
<path d="M285.929 70.0362C286.995 68.372 287.103 66.53 286.242 64.7095C285.139 62.368 282.816 60.7314 280.029 60.333C277.063 59.9069 274.104 60.9582 272.082 63.1526C270.595 62.4262 269.123 61.8623 267.762 61.5129C266.4 61.1635 264.839 60.949 263.183 60.8693C262.473 57.9761 260.393 55.6285 257.59 54.5711C254.957 53.5781 252.13 53.8938 250.031 55.4109C248.396 56.5939 247.597 58.2581 247.726 60.2288C247.815 61.6294 248.347 62.9166 248.826 63.8238C248.159 64.2651 247.628 64.7402 247.25 65.2428C246.509 66.2235 246.328 67.2901 246.712 68.3597C245.139 69.1535 241.537 71.2345 241.135 73.8702C240.99 74.8234 241.261 75.7214 241.946 76.5519C240.326 77.8146 236.528 81.5507 238.627 87.527C239.669 90.4877 241.835 92.7985 245.071 94.3984C247.4 95.5507 250.237 96.3139 253.503 96.6663C253.906 96.7092 254.268 96.4181 254.314 96.0166C254.357 95.6151 254.066 95.2534 253.663 95.2075C244.404 94.2022 241.132 90.2118 240.016 87.0397C239.168 84.6247 239.331 82.3782 240.505 80.3584C241.445 78.7402 242.751 77.7534 243.264 77.404C243.375 77.3304 243.439 77.2906 243.445 77.2875C243.648 77.168 243.78 76.9596 243.802 76.7236C243.823 76.4906 243.731 76.2608 243.556 76.1045C242.8 75.4425 242.484 74.7835 242.588 74.0909C242.898 72.0528 246.589 69.9963 247.984 69.3742C248.175 69.2883 248.322 69.1259 248.387 68.9267C248.451 68.7275 248.427 68.5099 248.319 68.3321C247.852 67.5414 247.886 66.8365 248.427 66.1193C249.518 64.6727 252.465 63.4131 256.306 62.7511C260.202 62.0799 264.351 62.1473 267.396 62.9289C270.444 63.7104 274.107 65.6504 277.193 68.1145C280.238 70.5449 282.208 73.0673 282.463 74.8602C282.589 75.749 282.278 76.3803 281.485 76.8492C281.304 76.9565 281.178 77.1343 281.138 77.3396C281.098 77.5449 281.147 77.7564 281.273 77.925C281.283 77.9372 282.143 79.0774 282.865 80.5178C283.762 82.3046 284.057 83.7359 283.716 84.6553C283.474 85.3112 282.877 85.7372 281.894 85.9517C281.664 86.0008 281.473 86.1601 281.378 86.3747C281.283 86.5892 281.298 86.8375 281.418 87.0397C281.553 87.2727 284.697 92.7771 279.697 97.2333C277.156 99.4982 272.3 101.423 263.598 97.7298C263.226 97.5704 262.793 97.7451 262.633 98.116C262.473 98.4899 262.648 98.919 263.02 99.0783C266.072 100.372 268.948 101.095 271.569 101.233C271.867 101.248 272.159 101.257 272.448 101.257C275.727 101.257 278.489 100.274 280.674 98.3275C283.762 95.5752 284.144 92.443 283.919 90.3007C283.778 88.9522 283.391 87.8305 283.083 87.1194C284.082 86.721 284.755 86.0651 285.09 85.161C286.015 82.6601 283.867 79.0988 282.874 77.6461C283.729 76.8921 284.085 75.8716 283.913 74.6579C283.824 74.0357 283.59 73.3615 283.219 72.6566C284.079 72.0957 285.167 71.2222 285.923 70.0392L285.929 70.0362ZM256.057 61.3045C253.706 61.7091 251.678 62.3251 250.108 63.0943C249.201 61.375 248.279 58.4849 250.894 56.5939C252.594 55.3649 254.904 55.1197 257.074 55.938C259.299 56.7747 260.977 58.5799 261.653 60.8264C259.815 60.8264 257.907 60.9858 256.057 61.3045ZM282.456 71.4031C281.452 69.9749 279.977 68.4578 278.114 66.9713C276.649 65.8006 275.051 64.7432 273.444 63.8575C275.124 62.2178 277.469 61.4455 279.82 61.7826C282.115 62.1136 284.018 63.4407 284.912 65.3317C286.285 68.2463 284.082 70.3334 282.453 71.4031H282.456Z" fill="#D3A98C"/>
<path d="M252.265 79.4853C251.961 80.6622 252.67 81.8636 253.854 82.167C255.034 82.4704 256.238 81.7624 256.542 80.5825C256.847 79.4056 256.137 78.2042 254.954 77.9008C253.774 77.5974 252.569 78.3053 252.265 79.4853Z" fill="#5F5C5D"/>
<path d="M268.352 83.6164C268.048 84.7933 268.757 85.9947 269.94 86.2981C271.12 86.6015 272.325 85.8935 272.629 84.7136C272.934 83.5367 272.224 82.3353 271.041 82.0319C269.858 81.7285 268.656 82.4364 268.352 83.6164Z" fill="#5F5C5D"/>
<path d="M257.658 85.5809C257.418 86.5095 257.415 87.4259 257.609 88.2442C257.91 89.5253 258.69 90.5581 259.787 90.978C259.895 91.024 260.009 91.0577 260.125 91.0883C261.404 91.4163 262.734 90.883 263.708 89.8042C263.954 89.5314 264.182 89.2219 264.375 88.8847C264.624 88.4526 264.821 87.9714 264.953 87.4535C265.116 86.8221 265.153 86.2459 265.091 85.7341C265.085 85.682 265.079 85.6299 265.064 85.5778C264.824 84.1894 263.798 83.2731 262.418 82.8777C262.366 82.8624 262.313 82.8471 262.258 82.8348C262.203 82.8195 262.151 82.8072 262.098 82.795C260.697 82.4793 259.354 82.7858 258.469 83.886C258.435 83.9228 258.405 83.9657 258.374 84.0056C258.07 84.4254 257.824 84.9465 257.661 85.5809H257.658Z" fill="#5F5C5D"/>
<path d="M257.609 88.241C257.91 89.522 258.69 90.5549 259.787 90.9748C259.895 91.0207 260.009 91.0545 260.125 91.0851C261.404 91.413 262.737 90.8798 263.708 89.8009C263.407 88.5198 262.627 87.487 261.53 87.0671C261.422 87.0212 261.308 86.9874 261.192 86.9568C259.913 86.6289 258.58 87.1621 257.609 88.241Z" fill="#E27FA3"/>
<path d="M260.875 91.913C260.565 91.913 260.251 91.8731 259.941 91.7935C257.538 91.1774 256.195 88.3057 256.945 85.3941C257.126 84.6892 257.406 84.0763 257.778 83.5706L258.964 84.4348C258.703 84.7904 258.503 85.2348 258.368 85.7588C257.818 87.8889 258.687 89.9576 260.307 90.3744C261.926 90.7913 263.69 89.3968 264.24 87.2667C264.375 86.7457 264.415 86.2615 264.36 85.8263L265.817 85.6424C265.893 86.2615 265.844 86.9296 265.663 87.6314C265.008 90.166 262.977 91.9099 260.875 91.9099V91.913Z" fill="#F8D4AE"/>
<path d="M265.817 85.6452C265.623 84.122 264.661 82.9482 263.14 82.3444L263.515 80.8947L262.092 80.53L261.717 81.9797C260.098 81.7743 258.687 82.3352 257.781 83.5703C257.541 83.8983 257.612 84.3549 257.941 84.594C258.269 84.833 258.727 84.7625 258.967 84.4346C259.88 83.1933 261.305 83.3374 262.074 83.5366C262.845 83.7358 264.166 84.2967 264.36 85.826C264.406 86.1969 264.723 86.4666 265.088 86.4666C265.119 86.4666 265.15 86.4666 265.18 86.4604C265.583 86.4083 265.869 86.0436 265.817 85.6421V85.6452Z" fill="#D3A98C"/>
<path d="M261.788 79.2187C262.212 78.9643 262.765 79.1022 263.02 79.5252L263.082 79.6263L263.183 79.565C263.607 79.3106 264.16 79.4486 264.415 79.8715C264.67 80.2945 264.532 80.8461 264.108 81.1005L263.742 81.3181C263.036 81.741 262.123 81.5112 261.699 80.8063L261.481 80.4416C261.226 80.0186 261.364 79.467 261.788 79.2126V79.2187Z" fill="#E27FA3"/>
<path d="M248.027 102.606C248.027 102.606 245.225 90.0069 245.759 83.7761L247.551 84.4075L249.794 85.8081L253.758 101.809L248.024 102.606H248.027Z" fill="#F8D4AE"/>
<path d="M252.58 102.118L255.879 101.301L248.182 70.3965L244.883 71.2137L252.58 102.118Z" fill="#FFBE8D"/>
<path d="M252.578 102.851C252.446 102.851 252.314 102.814 252.2 102.747C252.034 102.646 251.915 102.483 251.865 102.296L244.168 71.3937C244.085 71.0627 244.244 70.7164 244.549 70.5632C244.856 70.4099 245.228 70.4865 245.446 70.7501L250.443 76.751C250.513 76.8368 250.562 76.9349 250.59 77.0422L256.588 101.129C256.687 101.521 256.447 101.919 256.054 102.017L252.753 102.836C252.695 102.851 252.637 102.857 252.575 102.857L252.578 102.851ZM246.371 74.1459L253.116 101.23L254.991 100.767L249.21 77.554L246.374 74.1459H246.371Z" fill="#EA9C71"/>
<path d="M249.88 77.2142C239.712 72.7794 234.436 87.9962 224.267 83.5583C222.755 77.4931 221.247 71.4278 219.735 65.3626C229.903 69.7973 235.179 54.5805 245.348 59.0184C246.86 65.0837 248.368 71.1489 249.88 77.2142Z" fill="#A3D676"/>
<path d="M228.01 85.1212C226.744 85.1212 225.404 84.8576 223.972 84.2324C223.763 84.1405 223.61 83.9596 223.554 83.739L219.022 65.5432C218.954 65.2735 219.046 64.9854 219.262 64.8076C219.477 64.6268 219.775 64.5839 220.03 64.6973C224.737 66.7507 228.324 64.2468 232.122 61.5957C236.083 58.8282 240.182 55.9687 245.643 58.3531C245.852 58.4451 246.005 58.6259 246.061 58.8466L250.593 77.0424C250.661 77.3121 250.569 77.6002 250.354 77.7779C250.138 77.9587 249.84 78.0017 249.585 77.8883C244.878 75.8348 241.291 78.3388 237.496 80.9898C234.574 83.031 231.575 85.1212 228.013 85.1212H228.01ZM224.891 83.0249C229.436 84.8239 232.945 82.3751 236.651 79.7854C240.284 77.2508 244.026 74.6365 248.832 76.0524L244.724 59.5515C240.179 57.7524 236.67 60.2012 232.964 62.791C230.041 64.8321 227.042 66.9223 223.481 66.9254C222.617 66.9254 221.72 66.8028 220.783 66.527L224.891 83.0279V83.0249Z" fill="#87B758"/>
<path d="M245.864 84.4779C245.517 82.1885 246.042 80.2117 248.338 79.8654C250.633 79.519 252.775 81.0944 253.122 83.3868C253.469 85.6763 251.89 87.8124 249.591 88.1587C247.296 88.5051 246.208 86.7704 245.861 84.481L245.864 84.4779Z" fill="#F8D4AE"/>
<path d="M253.85 83.2733C253.445 80.5885 250.922 78.7313 248.23 79.1389C246.187 79.4454 245.065 80.8981 245.037 83.1936C244.503 89.4642 247.198 102.248 247.311 102.766C247.388 103.106 247.692 103.339 248.027 103.339C248.079 103.339 248.135 103.333 248.187 103.32C248.583 103.231 248.832 102.842 248.746 102.447C248.725 102.346 246.921 94.1718 246.509 87.8521C247.173 88.5632 248.033 88.931 249.035 88.931C249.253 88.931 249.475 88.9126 249.705 88.8789C252.397 88.4743 254.259 85.9581 253.85 83.2733ZM249.484 87.4323C248.657 87.5549 248.024 87.3556 247.548 86.8193C247.087 86.3013 246.755 85.4524 246.592 84.3675C246.463 83.5216 246.073 80.9441 248.448 80.5885C249.364 80.4506 250.28 80.6774 251.026 81.226C251.773 81.7746 252.259 82.5807 252.397 83.494C252.683 85.3819 251.377 87.1472 249.484 87.4323Z" fill="#D3A98C"/>
<path d="M266.327 100.004C269.141 103.841 266.954 110.516 259.108 108.772C250.768 106.918 251.828 98.7168 256.201 98.7168C260.574 98.7168 261.711 102.361 260.181 103.887C260.181 103.887 266.148 99.7619 266.327 100.004Z" fill="#F8D4AE"/>
<path d="M261.57 109.799C260.792 109.799 259.923 109.707 258.949 109.489C253.811 108.346 251.838 104.877 252.16 101.941C252.419 99.6115 254.078 97.9841 256.201 97.9841C258.638 97.9841 260.534 99.0507 261.275 100.834C261.809 102.122 261.585 103.525 260.7 104.405C260.414 104.69 259.947 104.69 259.661 104.405C259.376 104.12 259.376 103.654 259.661 103.369C260.122 102.909 260.224 102.134 259.917 101.395C259.409 100.179 258.021 99.4491 256.201 99.4491C254.622 99.4491 253.768 100.779 253.623 102.1C253.273 105.269 256.207 107.375 259.271 108.055C262.522 108.778 265.042 108.006 266.185 105.931C267.242 104.01 266.837 101.441 265.217 99.8261C264.932 99.5411 264.932 99.0752 265.217 98.7902C265.503 98.5051 265.97 98.5051 266.256 98.7902C268.327 100.856 268.837 104.157 267.473 106.636C266.895 107.684 265.273 109.793 261.573 109.793L261.57 109.799Z" fill="#D3A98C"/>
<path d="M275.169 87.7003C275.233 87.6275 275.278 87.5811 275.298 87.5612L275.304 87.5546H275.306C271.187 85.4727 277.23 80.6928 277.23 80.6928C275.988 79.4543 276.612 77.942 278.233 76.529C277.321 75.2926 276.438 73.3079 278.051 71.365C280.422 68.5082 285.438 68.8437 287.734 72.3166C288.834 72.1046 289.91 71.9876 290.91 71.9876C292.404 71.9876 294.078 72.2525 295.736 72.7007C297.905 68.8724 303.194 68.4088 305.651 71.3672C307.683 73.8112 305.757 76.3259 304.794 77.3282L304.064 76.9794C305.317 78.2599 305.7 79.5845 304.588 80.6928C304.588 80.6928 310.634 85.4727 306.514 87.5524C306.514 87.5524 306.545 87.5833 306.598 87.6429C306.806 87.8725 307.358 88.5216 307.816 89.4731C308.363 90.6079 308.779 92.1733 308.318 93.9615C308.132 94.6923 307.798 95.4628 307.269 96.2554C305.217 99.3154 302.317 100.201 299.747 100.247C299.816 100.58 299.851 100.923 299.851 101.271C299.851 105.08 295.654 108.169 290.474 108.169C285.294 108.169 281.097 105.082 281.097 101.271C281.097 100.976 281.122 100.684 281.173 100.397C278.656 99.8519 276.265 98.6288 274.552 96.2554C271.572 92.1269 274.501 88.4554 275.169 87.7003Z" fill="#F8D4AE"/>
<path d="M299.74 74.1533C301.673 75.0474 303.329 76.1314 304.303 77.2375C305.082 76.0012 306.089 73.7846 304.358 72.5394C302.662 71.3163 300.776 72.9699 299.74 74.1533Z" fill="#FFF1E6"/>
<path d="M274.549 96.2553C280.371 104.316 293.956 99.1144 293.956 99.1144C293.956 99.1144 302.707 103.055 307.269 96.2553C309.095 93.5287 308.586 91.0759 307.816 89.4753C305.987 90.5593 303.946 90.8684 301.308 90.0449C298.795 89.2567 297.693 84.5674 294.609 84.5674C291.526 84.5674 290.381 89.1375 287.911 90.0449C279.061 93.2903 277.803 90.0449 275.306 87.5545C275.306 87.5545 275.302 87.5611 275.3 87.5633C275.28 87.5832 275.236 87.6296 275.171 87.7024C274.503 88.4575 271.572 92.129 274.554 96.2575L274.549 96.2553Z" fill="#FFF1E6"/>
<path d="M301.748 91.5109C301.748 93.7739 303.382 95.6086 305.396 95.6086C306.592 95.6086 307.654 94.9617 308.318 93.9638C308.776 92.1777 308.362 90.6124 307.816 89.4754C307.357 88.5238 306.808 87.8747 306.598 87.6451C306.222 87.4972 305.817 87.4177 305.396 87.4177C303.38 87.4177 301.748 89.2524 301.748 91.5131V91.5109Z" fill="#FD9DB4"/>
<path d="M282.685 95.5585C280.448 95.1856 278.938 93.0748 279.312 90.8439C279.686 88.613 281.802 87.1069 284.039 87.4798C286.276 87.8527 287.786 89.9635 287.412 92.1944C287.038 94.4253 284.922 95.9314 282.685 95.5585Z" fill="#FD9DB4"/>
<path d="M288.143 88.8771C287.198 88.8771 286.432 88.0329 286.432 86.9916C286.432 85.9503 287.198 85.1062 288.143 85.1062C289.088 85.1062 289.854 85.9503 289.854 86.9916C289.854 88.0329 289.088 88.8771 288.143 88.8771Z" fill="#5F5C5D"/>
<path d="M301.075 88.8771C300.13 88.8771 299.364 88.0329 299.364 86.9916C299.364 85.9503 300.13 85.1062 301.075 85.1062C302.02 85.1062 302.786 85.9503 302.786 86.9916C302.786 88.0329 302.02 88.8771 301.075 88.8771Z" fill="#5F5C5D"/>
<path d="M281.237 76.6372L283.818 75.4052C284.595 75.0343 284.756 73.9967 284.125 73.4116C283.059 72.4247 281.582 71.5659 280.227 72.5417C278.966 73.4491 279.158 74.8709 279.656 76.0543C279.913 76.6637 280.639 76.922 281.237 76.6372Z" fill="#FFF1E6"/>
<path d="M272.98 90.5659C273.356 89.2721 274.04 88.2544 274.492 87.6825C273.808 87.1946 273.425 86.5742 273.35 85.8302C273.239 84.744 273.817 83.4701 275.067 82.0417C275.594 81.439 276.128 80.94 276.482 80.6287C276.172 80.1805 276.024 79.6926 276.041 79.1694C276.07 78.2907 276.573 77.3767 277.531 76.4516C277.263 76.0366 277.018 75.5663 276.852 75.0563C276.378 73.6146 276.652 72.2237 277.642 71.0315C278.917 69.4971 280.964 68.7222 283.121 68.9562C285.08 69.1704 286.828 70.186 287.973 71.7358C289.013 71.5526 289.998 71.4576 290.908 71.4576C292.285 71.4576 293.865 71.6828 295.481 72.0891C296.639 70.2986 298.569 69.1329 300.721 68.9408C302.822 68.7553 304.818 69.5347 306.06 71.0293C307.05 72.2215 307.324 73.6124 306.851 75.0541C306.496 76.1359 305.799 77.0323 305.252 77.6173C305.372 77.8094 305.474 77.9993 305.551 78.1891C305.916 79.0678 305.839 79.9002 305.334 80.6287C305.688 80.94 306.222 81.439 306.751 82.0417C308.002 83.4701 308.582 84.744 308.471 85.8302C308.396 86.572 308.013 87.1946 307.327 87.6825C307.694 88.1528 308.216 88.9277 308.588 89.9301C309.168 91.4865 309.487 93.8996 307.712 96.549C305.478 99.8805 302.31 100.781 299.537 100.781C298.804 100.781 298.1 100.719 297.447 100.62C297.157 100.576 296.956 100.307 297 100.017C297.044 99.7281 297.314 99.5294 297.604 99.5714C300.424 99.9931 304.314 99.7083 306.828 95.9595C309.735 91.6212 306.286 88.0755 306.14 87.9276C306.018 87.8084 305.963 87.6362 305.992 87.4684C306.018 87.3006 306.125 87.1549 306.277 87.0798C306.986 86.7222 307.358 86.2784 307.415 85.7243C307.579 84.117 305.193 81.8474 304.261 81.11C304.141 81.0151 304.068 80.876 304.059 80.7259C304.05 80.5757 304.108 80.4278 304.214 80.3196C304.732 79.803 304.845 79.2555 304.571 78.5976C304.028 77.2928 302.054 75.7716 299.289 74.5286C296.489 73.2702 293.356 72.5196 290.912 72.5196C290.186 72.5196 289.405 72.5836 288.582 72.7117C288.705 72.97 288.601 73.279 288.345 73.4115C288.083 73.544 287.762 73.4424 287.63 73.1819C286.72 71.4135 284.993 70.2279 283.01 70.0115C281.21 69.8151 279.51 70.4487 278.465 71.7093C277.735 72.588 276.871 74.4425 279.298 76.966C279.501 77.178 279.495 77.5136 279.282 77.7167C279.178 77.816 279.047 77.8646 278.915 77.8646C278.775 77.8646 278.636 77.8094 278.532 77.7012C278.421 77.5864 278.301 77.4562 278.18 77.3126C277.498 77.9971 277.128 78.6461 277.111 79.2091C277.097 79.6087 277.261 79.973 277.611 80.3218C277.717 80.4278 277.775 80.5757 277.766 80.7281C277.757 80.8782 277.684 81.0195 277.567 81.1122C276.635 81.8518 274.251 84.1192 274.414 85.7265C274.47 86.2806 274.844 86.7244 275.552 87.082C275.705 87.1593 275.809 87.3028 275.835 87.4706C275.862 87.6384 275.807 87.8084 275.687 87.9298C275.683 87.9342 275.641 87.9784 275.572 88.0534C274.76 88.9719 272.318 92.2526 274.985 95.9484C277.137 98.9289 280.663 100.371 285.456 100.229C285.75 100.223 285.994 100.452 286.003 100.744C286.012 101.037 285.781 101.28 285.487 101.289C285.27 101.296 285.055 101.298 284.843 101.298C282.817 101.298 280.982 101.011 279.379 100.443C277.188 99.6685 275.419 98.3637 274.12 96.5666C272.776 94.7077 272.382 92.6324 272.982 90.5681L272.98 90.5659ZM299.723 73.5594C301.868 74.522 303.552 75.6414 304.593 76.7673C306.791 74.3432 305.954 72.5637 305.243 71.7071C304.225 70.4818 302.572 69.8416 300.818 69.9983C299.107 70.1506 297.564 71.0293 296.568 72.3871C297.635 72.7072 298.702 73.1002 299.725 73.5594H299.723Z" fill="#D3A98C"/>
<path d="M291.687 91.4559C291.687 91.871 291.743 92.2706 291.844 92.6415C292.238 94.081 293.325 95.1142 294.607 95.1142C294.7 95.1142 294.793 95.1098 294.881 95.0965C296.365 94.9243 297.527 93.3612 297.527 91.4559C297.527 89.4336 296.218 88.5063 294.607 88.5063C292.995 88.5063 291.687 89.4358 291.687 91.4559Z" fill="#5F5C5D"/>
<path d="M291.844 92.6414C292.238 94.0808 293.325 95.1141 294.607 95.1141C294.7 95.1141 294.793 95.1097 294.881 95.0964C294.923 95.028 294.963 94.9529 295.005 94.8778C295.975 93.1028 295.997 91.2505 295.061 90.7427C294.195 90.2768 292.814 91.1136 291.844 92.6436V92.6414Z" fill="#E27FA3"/>
<path d="M294.605 95.6461C296.508 95.6461 298.056 93.7672 298.056 91.4557C298.056 91.0406 298.005 90.6521 297.907 90.2966L296.883 90.5814C296.956 90.8442 296.993 91.1378 296.993 91.4557C296.993 93.1822 295.922 94.5841 294.605 94.5841C293.288 94.5841 292.216 93.18 292.216 91.4557C292.216 91.1378 292.254 90.842 292.327 90.5814L291.302 90.2966C291.202 90.6521 291.154 91.0406 291.154 91.4557C291.154 93.765 292.701 95.6461 294.605 95.6461Z" fill="#F8D4AE"/>
<path d="M291.302 90.2966C291.663 89.0029 292.681 88.1727 294.073 88.0071V86.8127H295.136V88.0071C296.526 88.1749 297.544 89.0029 297.907 90.2966C297.987 90.5792 297.821 90.8706 297.538 90.9501C297.254 91.0274 296.962 90.864 296.882 90.5814C296.506 89.2347 295.293 89.0338 294.605 89.0338C293.916 89.0338 292.703 89.2347 292.327 90.5814C292.26 90.8154 292.048 90.97 291.816 90.97C291.769 90.97 291.72 90.9634 291.672 90.9501C291.388 90.8706 291.224 90.5792 291.302 90.2966Z" fill="#D3A98C"/>
<path d="M295.656 85.8855C295.386 85.6117 294.946 85.6095 294.671 85.8789L294.605 85.9451L294.54 85.8789C294.27 85.6051 293.83 85.6029 293.555 85.8722C293.281 86.1416 293.279 86.5809 293.549 86.8547L293.781 87.0887C294.228 87.5413 294.961 87.5457 295.415 87.0998L295.65 86.8679C295.924 86.5986 295.926 86.1593 295.656 85.8855Z" fill="#E27FA3"/>
<path d="M305.1 101.272C303.616 99.8475 300.493 98.5758 297.564 98.1387C296.265 97.9444 295.289 96.8604 295.264 95.5534C295.258 95.2708 295.298 94.997 295.375 94.7387C295.658 93.8004 296.451 93.0697 297.46 92.8798C300.369 92.3323 303.442 90.9392 304.872 89.46L305.1 101.274V101.272Z" fill="#95A1B3"/>
<path d="M303.177 95.4013C303.091 90.9845 305.503 87.3561 308.564 87.2969C311.624 87.2378 314.175 90.7703 314.261 95.1871C314.347 99.6038 311.935 103.232 308.874 103.291C305.814 103.351 303.263 99.818 303.177 95.4013Z" fill="white"/>
<path d="M304.732 101.654L305.469 100.89C303.94 99.4215 300.721 98.0747 297.644 97.6155C296.595 97.4588 295.818 96.5867 295.798 95.5424C295.778 94.4981 296.52 93.5974 297.562 93.4009C300.619 92.8224 303.782 91.3521 305.255 89.8265L304.489 89.0913C303.154 90.4734 300.225 91.8179 297.363 92.3588C295.809 92.6524 294.704 93.9992 294.733 95.5623C294.764 97.1254 295.92 98.428 297.485 98.662C300.365 99.0925 303.344 100.322 304.732 101.651V101.654Z" fill="#70838E"/>
<path d="M308.799 103.821C308.827 103.821 308.856 103.821 308.885 103.821C310.545 103.788 312.075 102.845 313.19 101.165C314.266 99.5446 314.835 97.4186 314.793 95.1755C314.749 92.9324 314.098 90.8284 312.96 89.252C311.78 87.6161 310.218 86.7352 308.555 86.7639C306.895 86.797 305.365 87.7397 304.25 89.4198C303.174 91.0403 302.605 93.1664 302.647 95.4095C302.691 97.6526 303.342 99.7566 304.48 101.333C305.64 102.94 307.169 103.821 308.799 103.821ZM308.641 87.8258C311.375 87.8258 313.651 91.1132 313.731 95.1975C313.81 99.315 311.628 102.708 308.865 102.761C306.098 102.814 303.791 99.5071 303.712 95.3918C303.672 93.3629 304.179 91.451 305.137 90.0093C306.056 88.6272 307.278 87.8545 308.577 87.828C308.599 87.828 308.622 87.828 308.644 87.828L308.641 87.8258Z" fill="#E2E2E2"/>
<path d="M310.507 97.8251L306.395 97.9046L305.952 95.4694L306.375 92.522L310.368 92.447C310.381 92.4448 310.392 92.447 310.403 92.4448C311.353 92.4271 312.146 93.6171 312.177 95.1029C312.205 96.591 311.459 97.8097 310.507 97.8273V97.8251Z" fill="#95A1B3"/>
<path d="M306.383 97.3768L308.814 97.3305C308.449 96.7697 308.221 96.019 308.203 95.1801C308.196 94.8865 308.431 94.6458 308.723 94.6392C309.015 94.6304 309.259 94.8666 309.266 95.158C309.29 96.4319 309.932 97.3106 310.496 97.2951C311.059 97.2841 311.667 96.3855 311.643 95.1116C311.619 93.8466 310.983 92.9745 310.423 92.9745C310.419 92.9745 310.414 92.9745 310.412 92.9745L306.383 93.0518C306.383 93.0518 306.377 93.0518 306.372 93.0518C306.085 93.0518 306.069 91.9965 306.361 91.9921L310.372 91.9148C310.372 91.9148 310.384 91.9148 310.39 91.9148C310.401 91.9148 310.412 91.9148 310.423 91.9148C311.672 91.9148 312.67 93.3013 312.706 95.0918C312.741 96.8977 311.778 98.3306 310.516 98.3571L306.401 98.4365C306.401 98.4365 306.395 98.4365 306.39 98.4365C306.102 98.4365 306.087 97.3812 306.379 97.3768H306.383Z" fill="#70838E"/>
<path d="M308.805 101.062C308.805 101.062 308.823 101.062 308.834 101.062C309.128 101.055 309.361 100.814 309.354 100.521C309.348 100.227 309.109 99.9954 308.812 100.002C308.81 100.002 308.807 100.002 308.803 100.002C308.245 100.002 307.052 98.9246 306.629 96.7478C306.627 96.7323 306.623 96.7168 306.618 96.7014C306.534 96.2665 306.488 95.8072 306.479 95.337C306.47 94.8756 306.499 94.4119 306.567 93.9615C306.572 93.9483 306.574 93.9328 306.576 93.9174C306.72 92.9879 307.021 92.1644 307.442 91.533C307.743 91.0782 308.212 90.5925 308.628 90.5837C308.923 90.577 309.155 90.3364 309.148 90.0428C309.142 89.7535 308.905 89.5239 308.617 89.5239C308.613 89.5239 308.61 89.5239 308.606 89.5239C307.628 89.5438 306.899 90.4247 306.554 90.9479C306.056 91.6964 305.702 92.6501 305.531 93.7121C305.527 93.7275 305.525 93.743 305.522 93.7584C305.441 94.2817 305.405 94.8204 305.414 95.3569C305.425 95.9044 305.48 96.4387 305.58 96.9442C305.582 96.9619 305.587 96.9774 305.591 96.9928C305.879 98.4323 306.439 99.3618 306.859 99.8916C307.453 100.636 308.157 101.06 308.801 101.06L308.805 101.062Z" fill="#E2E2E2"/>
<path d="M298.966 97.0789C300.529 96.9112 301.354 97.8936 301.697 99.3132C302.39 100.097 302.97 101.221 303.289 102.53C303.968 105.325 303.2 107.91 301.573 108.305C299.946 108.698 298.076 106.753 297.394 103.956C297.323 103.665 297.268 103.376 297.228 103.091C296.54 102.548 296.061 101.742 295.96 100.803C295.758 98.9489 297.102 97.2799 298.963 97.0789H298.966Z" fill="#F8D4AE"/>
<path d="M296.276 97.9865C296.931 97.1718 297.868 96.6618 298.908 96.5492C299.955 96.4366 300.83 96.77 301.438 97.514C301.768 97.918 302.016 98.4369 302.182 99.0617C302.917 99.9293 303.49 101.108 303.807 102.402C304.157 103.844 304.157 105.288 303.807 106.467C303.426 107.747 302.678 108.582 301.7 108.818C301.516 108.862 301.33 108.884 301.142 108.884C300.332 108.884 299.499 108.473 298.747 107.692C297.894 106.804 297.23 105.522 296.878 104.08C296.818 103.837 296.772 103.599 296.734 103.367C295.999 102.72 295.539 101.837 295.433 100.859C295.32 99.8211 295.619 98.8011 296.276 97.9865ZM299.515 106.959C300.168 107.639 300.854 107.932 301.452 107.789C302.047 107.645 302.523 107.069 302.791 106.166C303.087 105.164 303.083 103.917 302.778 102.654C302.678 102.243 302.547 101.848 302.395 101.473C302.344 101.994 302.22 102.451 302.021 102.841C301.587 103.698 300.803 104.212 299.756 104.325C299.612 104.34 299.468 104.349 299.327 104.349C298.866 104.349 298.417 104.268 297.989 104.113C298.31 105.259 298.846 106.261 299.517 106.959H299.515ZM296.491 100.744C296.573 101.501 296.947 102.179 297.54 102.658C298.136 103.135 298.879 103.351 299.639 103.27C300.329 103.195 300.796 102.899 301.069 102.362C301.328 101.852 301.412 101.113 301.314 100.223C301.217 99.3332 300.976 98.6289 300.613 98.1852C300.285 97.7856 299.856 97.5891 299.302 97.5891C299.211 97.5891 299.118 97.5935 299.021 97.6045C298.262 97.6862 297.582 98.0593 297.102 98.651C296.624 99.2449 296.405 99.9867 296.489 100.744H296.491Z" fill="#D3A98C"/>
<path d="M279.948 87.5438C281.744 87.014 283.628 88.034 284.159 89.8245C284.568 91.1999 284.057 92.6305 282.981 93.4585C283.895 95.8804 285.56 99.6667 287.714 101.815L282.793 105.33C282.793 105.33 278.908 97.6466 278.485 91.5002C277.954 89.7097 278.153 88.0737 279.946 87.5438H279.948Z" fill="#F8D4AE"/>
<path d="M279.798 87.0334C281.87 86.4219 284.057 87.6052 284.67 89.6717C284.967 90.674 284.856 91.7293 284.356 92.6478C284.157 93.0121 283.906 93.3366 283.612 93.617C284.458 95.8071 286.062 99.4168 288.09 101.439C288.298 101.647 288.298 101.982 288.09 102.19C287.986 102.294 287.851 102.344 287.714 102.344C287.577 102.344 287.442 102.294 287.338 102.19C286.193 101.048 284.484 98.7523 282.718 94.2528C282.499 94.3676 282.266 94.4604 282.023 94.5332C281.699 94.6281 281.387 94.6767 281.086 94.6767C280.449 94.6767 279.867 94.4626 279.368 94.0431C280.418 99.408 283.233 105.025 283.267 105.091C283.399 105.351 283.293 105.671 283.032 105.804C282.955 105.841 282.873 105.861 282.793 105.861C282.598 105.861 282.412 105.755 282.317 105.57C282.277 105.49 281.321 103.594 280.3 100.909C278.932 97.3194 278.147 94.1866 277.958 91.5969C277.277 89.2434 277.945 87.5832 279.793 87.0378L279.798 87.0334ZM280.052 93.2284C280.511 93.6192 281.057 93.7119 281.724 93.5154C282.456 93.2991 283.059 92.8112 283.424 92.1422C283.787 91.4732 283.869 90.7027 283.652 89.9742C283.284 88.7378 282.144 87.9342 280.911 87.9342C280.644 87.9342 280.371 87.9717 280.101 88.0512C278.831 88.4265 278.461 89.537 278.999 91.3496C279.253 92.2084 279.619 92.8575 280.055 93.2284H280.052Z" fill="#D3A98C"/>
<path d="M314.503 87.8259C314.125 87.3998 314.116 86.7618 314.485 86.3268L317.124 83.2227C317.576 82.6928 318.392 82.6818 318.857 83.2028L319.621 84.0617C320.084 84.5827 319.977 85.3907 319.395 85.7749L315.991 88.0202C315.515 88.3337 314.879 88.252 314.501 87.8259H314.503Z" fill="#E27FA3"/>
<path d="M315.194 90.4909C315.143 89.9235 315.517 89.4047 316.07 89.2744L320.042 88.3361C320.721 88.175 321.385 88.6518 321.447 89.3451L321.551 90.4887C321.616 91.1819 321.049 91.7714 320.352 91.7361L316.276 91.5308C315.705 91.5021 315.245 91.0605 315.192 90.4931L315.194 90.4909Z" fill="#E27FA3"/>
<path d="M311.931 86.8239C312.489 86.9431 313.051 86.6341 313.246 86.0998L314.651 82.2781C314.893 81.6246 314.496 80.9115 313.815 80.7658L312.688 80.5274C312.006 80.3816 311.353 80.874 311.304 81.5672L311.026 85.6273C310.986 86.1947 311.373 86.7047 311.931 86.8239Z" fill="#E27FA3"/>
<path d="M467 84H580C578 80.4073 569.799 79.9818 565.949 80.2181C565.116 71 555.709 69.3454 552.018 71C552.137 70.2909 549.16 58 537.134 58C526.465 58.1891 522.369 66.2727 521.654 70.2909C517.368 69.1563 513.359 72.497 511.89 74.3092C507.128 66.5091 497.721 70.7636 496.292 76.2C489.719 73.4582 485.774 78.0515 484.623 80.6909C473.382 78.9891 468.191 82.1879 467 84Z" fill="#FFFEFF"/>
<path d="M597.185 61.0184C596.992 60.9152 596.887 60.8666 596.887 60.8666C602.137 55.2464 589.939 51.2389 589.939 51.2389C591.313 48.2837 588.859 46.1304 584.767 44.885L586.829 45.0795C587.761 42.9607 589.328 37.9229 584.746 35.2619C579.092 31.9754 570.863 35.957 569.929 43.4865L572.558 43.7345C569.334 43.9358 566.17 44.5057 563.542 45.4699C560.914 46.4341 558.132 48.0458 555.543 49.9768L557.384 48.089C551.804 42.9531 542.954 45.2338 540.764 51.3983C538.99 56.3907 543.443 59.2199 545.528 60.232L546.969 58.756C544.652 62.3491 544.176 65.5772 547.135 66.9429C547.135 66.9429 540.42 77.8892 548.059 78.7804C548.059 78.7804 544.137 87.2019 551.873 92.831C555.681 95.5979 560.103 95.8697 564.259 95.042C564.282 95.9238 564.441 96.7901 564.748 97.6282C566.957 103.649 575.96 105.885 584.859 102.62C593.758 99.355 599.178 91.8274 596.969 85.8069C596.648 84.9321 596.183 84.1404 595.6 83.4301C599.072 81.3797 602.006 78.3935 603.064 74.05C605.074 65.8077 598.665 61.8206 597.187 61.0217L597.185 61.0184Z" fill="#F8D4AE"/>
<path d="M552.222 52.7179C549.687 55.0424 547.562 57.5647 546.308 59.8623C544.381 58.3906 541.44 55.4688 543.458 52.4894C545.598 49.325 550.076 51.4331 552.222 52.7179Z" fill="#FFF1E6"/>
<path d="M570.758 65.1488C575.582 63.3788 580.001 70.0811 584.385 69.8745C591.081 69.5509 594.412 66.1957 596.89 60.8655C596.89 60.8655 605.328 64.7521 603.068 74.0489C599.836 87.305 579.11 87.9151 579.11 87.9151C579.11 87.9151 562.911 100.852 551.87 92.8324C544.135 87.2066 548.056 78.7817 548.056 78.7817C553.393 81.2451 558.102 81.6465 563.42 77.5663C566.899 74.8921 565.933 66.9188 570.758 65.1488Z" fill="#FFF1E6"/>
<path d="M560.501 88.4185C563.796 86.5665 564.966 82.4024 563.116 79.1178C561.266 75.8331 557.096 74.6718 553.801 76.5238C550.507 78.3758 549.336 82.5399 551.186 85.8246C553.036 89.1092 557.207 90.2706 560.501 88.4185Z" fill="#FD9DB4"/>
<path d="M595.696 75.51C598.989 73.6551 600.156 69.49 598.303 66.207C596.45 62.924 592.279 61.7663 588.986 63.6212C585.693 65.4761 584.526 69.6411 586.379 72.9242C588.232 76.2072 592.403 77.3649 595.696 75.51Z" fill="#FD9DB4"/>
<path d="M598.188 60.6129C598.986 59.4561 599.236 58.2621 598.927 57.0571C598.074 53.7177 593.1 51.5078 591.031 50.7248C591.408 49.2984 591.055 47.954 589.983 46.7905C588.066 44.7129 583.781 43.2956 578.224 42.9022C572.886 42.5269 567.286 43.1872 563.238 44.6723C561.52 45.3024 559.687 46.2287 557.853 47.3678C554.991 44.7959 551.064 43.8156 547.31 44.7457C543.811 45.6129 541.06 47.9934 539.95 51.1172C539.088 53.54 539.459 55.8665 541.019 57.8402C542.155 59.2798 543.694 60.2647 544.873 60.8701C544.475 61.8458 544.248 62.7589 544.212 63.5828C544.146 65.164 544.747 66.4175 545.957 67.2617C544.888 69.1956 542.52 74.0992 544.029 77.1978C544.573 78.3168 545.535 79.0662 546.893 79.432C546.589 80.3733 546.209 81.8955 546.2 83.6944C546.188 86.457 547.07 90.4032 551.36 93.5234C557.844 98.233 565.924 96.0907 571.563 93.4651C571.991 93.2662 572.177 92.7585 571.977 92.3279C571.779 91.9006 571.269 91.7125 570.838 91.916C565.619 94.3498 558.175 96.3612 552.369 92.1417C549.415 89.9936 547.913 87.1728 547.912 83.7635C547.911 81.1612 548.818 79.1613 548.827 79.143C548.945 78.8952 548.933 78.604 548.796 78.3662C548.663 78.1272 548.421 77.9657 548.149 77.937C546.823 77.7829 545.98 77.2966 545.569 76.4549C544.384 74.0218 546.818 69.0902 547.855 67.3948C547.984 67.1849 548.017 66.934 547.947 66.702C547.877 66.47 547.708 66.2782 547.487 66.1736C546.368 65.6597 545.872 64.8567 545.922 63.6564C546.021 61.2975 548.239 57.7751 551.861 54.241C555.525 50.6618 559.995 47.6882 563.825 46.283C567.655 44.8778 572.991 44.2537 578.1 44.6147C583.15 44.9707 587.118 46.2199 588.721 47.9582C589.536 48.8449 589.676 49.7748 589.154 50.8905C589.052 51.1097 589.047 51.3654 589.145 51.5909C589.242 51.813 589.431 51.9862 589.66 52.0613C591.548 52.6832 596.59 54.872 597.26 57.4943C597.492 58.4056 597.162 59.3185 596.252 60.2964C596.064 60.498 595.986 60.7728 596.039 61.0413C596.092 61.3098 596.27 61.5362 596.518 61.6535C596.528 61.6611 596.62 61.7033 596.771 61.7842C597.486 62.1697 599.307 63.2822 600.731 65.2567C602.514 67.7244 603.014 70.6209 602.224 73.8621C601.517 76.7698 599.834 79.274 597.225 81.307C595.113 82.9532 592.399 84.2938 589.155 85.2983C588.703 85.4337 588.451 85.9165 588.589 86.3658C588.728 86.8152 589.208 87.0672 589.658 86.9284C590.252 86.7448 590.83 86.5514 591.389 86.3463C598.263 83.8246 602.57 79.6718 603.888 74.2669C605.837 66.274 600.358 61.9837 598.182 60.63L598.188 60.6129ZM550.67 53.0113C548.443 55.1845 546.726 57.3487 545.626 59.3286C540.65 56.7822 540.939 53.4596 541.568 51.6866C542.487 49.1068 544.786 47.1306 547.725 46.4045C550.776 45.649 553.963 46.374 556.369 48.3442C554.383 49.7052 552.435 51.2913 550.671 53.0146L550.67 53.0113Z" fill="#D3A98C"/>
<path d="M585.55 66.1363C585.254 64.593 583.759 63.5841 582.212 63.8828C580.665 64.1816 579.652 65.6749 579.948 67.2183C580.245 68.7616 581.74 69.7705 583.287 69.4717C584.834 69.173 585.847 67.6796 585.55 66.1363Z" fill="#5F5C5D"/>
<path d="M565.402 73.532C565.105 71.9888 563.61 70.9804 562.063 71.2797C560.516 71.579 559.503 73.0727 559.8 74.6159C560.098 76.1591 561.593 77.1675 563.139 76.8682C564.686 76.5689 565.699 75.0752 565.402 73.532Z" fill="#5F5C5D"/>
<path d="M578.186 74.4519C578.478 75.2467 578.58 76.0539 578.514 76.8056C578.387 78.3335 577.57 79.626 576.271 80.1026C574.972 80.5792 573.513 80.122 572.421 79.0411C571.884 78.5106 571.444 77.8274 571.152 77.0326C570.269 74.6251 571.127 72.0977 573.072 71.3841C575.017 70.6704 577.306 72.0432 578.19 74.4507L578.186 74.4519Z" fill="#5F5C5D"/>
<path d="M578.514 76.8058C578.387 78.3337 577.57 79.6262 576.271 80.1028C574.972 80.5794 573.513 80.1221 572.421 79.0413C572.551 77.5121 573.365 76.2209 574.671 75.7418C575.977 75.2628 577.429 75.7225 578.514 76.8058Z" fill="#E27FA3"/>
<path d="M576.563 80.9088C574.179 81.7834 571.39 80.1772 570.347 77.3323C570.057 76.5442 569.925 75.7368 569.952 74.9312L571.664 74.981C571.644 75.5681 571.744 76.1605 571.957 76.7415C572.677 78.7049 574.482 79.8539 575.978 79.3048C577.475 78.7558 578.108 76.7125 577.387 74.7491C577.204 74.2483 576.949 73.7923 576.625 73.3959L577.959 72.3195C578.397 72.8632 578.746 73.4817 578.994 74.1595C580.038 77.0045 578.95 80.0331 576.566 80.9076L576.563 80.9088Z" fill="#F8D4AE"/>
<path d="M577.955 72.3209C576.789 70.8811 575.154 70.1737 573.608 70.381L572.596 67.6645L570.992 68.2608L572.001 70.9706C570.771 71.7591 570.005 73.2031 569.951 74.928C569.937 75.3989 570.306 75.7939 570.778 75.8064C571.25 75.819 571.646 75.45 571.66 74.9791C571.703 73.626 572.355 72.5569 573.363 72.1872C574.431 71.7953 575.71 72.2693 576.622 73.3973C576.858 73.6895 577.247 73.7856 577.581 73.6628C577.668 73.6309 577.751 73.5856 577.823 73.5248C578.192 73.2265 578.25 72.69 577.952 72.3221L577.955 72.3209Z" fill="#D3A98C"/>
<path d="M573.155 66.5879C572.576 66.3152 571.885 66.5649 571.611 67.1429L571.545 67.2845L571.404 67.219C570.825 66.9464 570.134 67.1961 569.86 67.7741C569.586 68.352 569.835 69.0411 570.413 69.3137L570.91 69.5484C571.869 69.9996 573.017 69.5862 573.47 68.6279L573.706 68.1321C573.98 67.5542 573.731 66.8651 573.153 66.5924L573.155 66.5879Z" fill="#E27FA3"/>
<path d="M580.229 106.654C573.466 98.645 559.919 85.8352 556.617 91.7141C553.316 97.5963 574.578 116.536 574.578 116.536L580.229 106.654Z" fill="#F8D4AE"/>
<path d="M574.815 117.358C574.543 117.435 574.237 117.377 574.011 117.176C573.959 117.126 568.604 112.344 563.724 106.902C556.85 99.2359 554.283 94.1314 555.872 91.2979C556.505 90.1675 557.514 89.5096 558.786 89.3839C561.332 89.1392 565.069 91.0528 569.886 95.0708C573.443 98.0356 577.555 102.161 580.881 106.101C581.185 106.463 581.138 106.999 580.776 107.306C580.413 107.61 579.876 107.564 579.568 107.203C576.302 103.333 572.269 99.2883 568.783 96.381C564.454 92.7713 560.957 90.8909 558.942 91.0844C558.224 91.1548 557.722 91.4865 557.358 92.128C555.765 94.9627 562.16 102.599 564.984 105.75C569.801 111.124 575.091 115.851 575.142 115.897C575.493 116.212 575.523 116.75 575.208 117.104C575.095 117.229 574.955 117.314 574.804 117.358L574.815 117.358Z" fill="#D3A98C"/>
<path d="M590.489 103.174C590.23 92.6947 591.86 74.12 598.232 76.3287C604.603 78.5374 601.276 106.816 601.276 106.816L590.492 103.173L590.489 103.174Z" fill="#F8D4AE"/>
<path d="M601.646 107.586C601.504 107.653 601.344 107.685 601.174 107.665C600.705 107.609 600.368 107.187 600.423 106.716C600.431 106.645 601.249 99.5976 601.285 92.3861C601.305 88.1544 601.019 78.2007 597.947 77.1378C597.251 76.8969 596.651 76.9806 596.07 77.4059C594.433 78.5975 593.07 82.3256 592.228 87.9005C591.55 92.3888 591.221 98.0864 591.347 103.151C591.36 103.623 590.984 104.015 590.514 104.029C590.039 104.04 589.648 103.668 589.636 103.199C589.507 98.0445 589.847 92.2294 590.537 87.6497C591.474 81.4448 592.999 77.5362 595.067 76.0275C596.101 75.2731 597.295 75.1003 598.517 75.5231C601.586 76.5872 603.052 82.1071 603.001 92.4043C602.967 99.7138 602.138 106.845 602.125 106.914C602.091 107.214 601.901 107.462 601.646 107.586Z" fill="#D3A98C"/>
</g>
<defs>
<linearGradient id="paint0_linear_1198_286" x1="300" y1="100" x2="300" y2="0" gradientUnits="userSpaceOnUse">
<stop stop-color="white"/>
<stop offset="1" stop-color="#53C3F1"/>
</linearGradient>
<clipPath id="clip0_1198_286">
<rect width="600" height="100" fill="white"/>
</clipPath>
<clipPath id="clip1_1198_286">
<rect width="51" height="77" fill="white" transform="translate(0 26)"/>
</clipPath>
</defs>
</svg>
