<svg width="430" height="357" viewBox="0 0 430 357" fill="none" xmlns="http://www.w3.org/2000/svg">
<g clip-path="url(#clip0_1147_3109)">
<rect width="430" height="357" fill="url(#paint0_linear_1147_3109)"/>
<g filter="url(#filter0_f_1147_3109)">
<path d="M0 145H110C108.053 141.96 100.07 141.6 96.3224 141.8C95.5111 134 86.3541 132.6 82.7608 134C82.8767 133.4 79.9789 123 68.2719 123C57.8862 123.16 53.8988 130 53.2034 133.4C49.0306 132.44 45.1282 135.267 43.6986 136.8C39.0622 130.2 29.9052 133.8 28.5142 138.4C22.1159 136.08 18.2754 139.967 17.1549 142.2C6.21286 140.76 1.15912 143.467 0 145Z" fill="white"/>
</g>
<path d="M246 229H458.986C459.466 222.7 447.771 219.958 441.863 219.375C438.859 205.667 425.941 204.208 417.53 209.167C412.423 195.75 396.802 195.458 388.091 200.708C384.185 194.875 376.675 187 363.758 187C347.416 187.467 339.726 200.222 337.923 206.542C330.473 204.208 324.405 206.931 322.302 208.583L322.221 208.459C320.076 205.184 315.24 197.799 303.377 198.375C293.764 198.842 287.956 207.514 286.254 211.792C271.835 206.542 267.329 219.375 265.827 219.375C252.609 219.375 247.101 225.792 246 229Z" fill="#FFFEFF"/>
<g filter="url(#filter1_f_1147_3109)">
<path d="M362 71H467C465.141 66.9928 457.522 66.5182 453.944 66.7818C453.17 56.5 444.429 54.6545 440.999 56.5C441.11 55.7091 438.344 42 427.169 42C417.255 42.2109 413.449 51.2273 412.785 55.7091C408.802 54.4436 405.077 58.1697 403.712 60.191C399.287 51.4909 390.546 56.2363 389.218 62.3C383.111 59.2419 379.445 64.3652 378.375 67.3091C367.93 65.4109 363.106 68.9788 362 71Z" fill="#FFFEFF"/>
</g>
<g filter="url(#filter2_f_1147_3109)">
<path d="M289 169H170C172.107 164.44 180.742 163.9 184.797 164.2C185.674 152.5 195.581 150.4 199.468 152.5C199.342 151.6 202.477 136 215.142 136C226.378 136.24 230.691 146.5 231.444 151.6C235.958 150.16 240.179 154.4 241.726 156.7C246.742 146.8 256.648 152.2 258.153 159.1C265.075 155.62 269.229 161.45 270.442 164.8C282.279 162.64 287.746 166.7 289 169Z" fill="#FFFEFF"/>
</g>
<path d="M202.822 165.401L204.917 167.159C207.533 165.548 213.039 161.227 210.044 154.88C206.349 147.042 194.369 145.205 187.684 152.717L190.363 154.964C186.694 152.764 182.81 151.006 179.22 150.082C175.625 149.158 171.372 148.827 167.098 148.984L170.529 148.307C168.313 138.506 156.933 134.343 149.901 139.43C144.206 143.546 146.932 149.982 148.438 152.654L151.133 152.124C145.895 154.302 142.937 157.473 145.137 161.185C145.137 161.185 129.567 168.088 137.231 174.803C137.231 174.803 137.094 174.882 136.857 175.044C135.01 176.294 127.077 182.405 130.809 193.009C134.52 203.556 146.422 206.837 154.97 207.803C149.538 209.546 145.727 213.62 145.727 218.366C145.727 224.697 152.517 229.831 160.892 229.831C169.266 229.831 177.814 224.697 177.814 218.366C177.814 216.434 175.456 213.431 176.056 213.63C183.741 216.177 193.632 217.4 200.817 210.995C210.286 202.548 204.007 191.959 204.007 191.959C213.971 189.77 203.675 176.226 203.675 176.226C207.402 174.031 206.349 169.842 202.822 165.406V165.401Z" fill="#F8D4AE"/>
<path d="M195.095 158.13C198.748 160.86 201.88 163.905 203.833 166.771C206.181 164.577 209.676 160.329 206.623 156.67C203.386 152.78 197.753 156.156 195.09 158.13H195.095Z" fill="#FFF1E6"/>
<path d="M149.569 152.833C152.67 151.268 156.881 150.108 161.407 149.478C160.028 146.465 156.728 140.795 152.017 142.643C147.569 144.381 148.575 149.777 149.569 152.833Z" fill="#FFF1E6"/>
<path d="M172.266 176.982C165.671 175.286 160.718 184.714 154.907 185.019C146.032 185.481 141.195 181.496 137.226 174.798C137.226 174.798 126.598 181.045 130.804 192.999C136.805 210.055 164.229 208.108 164.229 208.108C164.229 208.108 187.3 223.022 200.812 210.979C210.281 202.532 204.001 191.943 204.001 191.943C197.285 195.902 191.121 197.057 183.573 192.379C178.636 189.313 178.862 178.672 172.266 176.976V176.982Z" fill="#FFF1E6"/>
<path d="M183.71 195.771C184.957 190.93 189.905 188.017 194.758 189.266C199.611 190.51 202.533 195.445 201.28 200.285C200.033 205.126 195.085 208.039 190.232 206.79C185.378 205.546 182.457 200.611 183.71 195.771Z" fill="#FD9DB4"/>
<path d="M151.642 191.075C154.636 187.067 153.806 181.396 149.787 178.41C145.768 175.423 140.083 176.252 137.088 180.26C134.094 184.268 134.924 189.938 138.943 192.925C142.962 195.912 148.647 195.083 151.642 191.075Z" fill="#FD9DB4"/>
<path d="M210.644 163.469C212.471 160.618 212.655 157.463 211.181 154.345C209.291 150.334 205.312 147.53 200.538 146.848C195.458 146.118 190.389 147.919 186.926 151.678C184.378 150.433 181.857 149.468 179.525 148.869C177.193 148.271 174.519 147.903 171.682 147.767C170.466 142.811 166.903 138.789 162.102 136.978C157.591 135.277 152.749 135.818 149.154 138.417C146.353 140.443 144.985 143.294 145.206 146.669C145.358 149.069 146.269 151.273 147.09 152.827C145.948 153.583 145.037 154.397 144.39 155.258C143.121 156.938 142.811 158.765 143.469 160.597C140.774 161.957 134.605 165.521 133.915 170.036C133.668 171.669 134.131 173.207 135.305 174.63C132.531 176.793 126.025 183.192 129.62 193.429C131.404 198.501 135.115 202.459 140.658 205.199C144.648 207.173 149.506 208.48 155.102 209.084C155.791 209.158 156.412 208.659 156.491 207.971C156.565 207.283 156.065 206.664 155.375 206.585C139.516 204.863 133.91 198.028 131.999 192.595C130.546 188.458 130.825 184.61 132.836 181.15C134.447 178.378 136.684 176.688 137.563 176.089C137.752 175.963 137.863 175.895 137.873 175.89C138.221 175.685 138.447 175.328 138.484 174.924C138.521 174.525 138.363 174.131 138.063 173.863C136.768 172.729 136.226 171.601 136.405 170.414C136.936 166.923 143.258 163.4 145.648 162.335C145.974 162.188 146.227 161.91 146.337 161.568C146.448 161.227 146.406 160.854 146.222 160.55C145.422 159.195 145.479 157.988 146.406 156.759C148.274 154.282 153.322 152.124 159.902 150.99C166.576 149.84 173.682 149.956 178.899 151.294C184.12 152.633 190.395 155.956 195.679 160.177C200.896 164.34 204.27 168.661 204.707 171.732C204.923 173.254 204.391 174.336 203.033 175.139C202.722 175.323 202.507 175.627 202.438 175.979C202.37 176.331 202.454 176.693 202.67 176.982C202.685 177.003 204.159 178.956 205.396 181.423C206.933 184.484 207.439 186.935 206.854 188.51C206.439 189.634 205.417 190.363 203.733 190.731C203.338 190.815 203.012 191.088 202.849 191.455C202.685 191.823 202.712 192.248 202.917 192.595C203.149 192.994 208.533 202.422 199.969 210.055C195.616 213.935 187.3 217.232 172.393 210.906C171.756 210.633 171.014 210.932 170.74 211.567C170.466 212.208 170.766 212.943 171.403 213.216C176.63 215.431 181.557 216.67 186.047 216.906C186.557 216.933 187.058 216.948 187.552 216.948C193.169 216.948 197.901 215.263 201.643 211.93C206.933 207.215 207.586 201.85 207.202 198.18C206.96 195.87 206.296 193.949 205.77 192.731C207.481 192.049 208.633 190.925 209.207 189.376C210.792 185.093 207.112 178.992 205.412 176.504C206.875 175.212 207.486 173.464 207.191 171.385C207.039 170.32 206.639 169.165 206.002 167.957C207.475 166.997 209.339 165.5 210.634 163.474L210.644 163.469ZM159.476 148.512C155.449 149.205 151.975 150.26 149.285 151.578C147.732 148.633 146.153 143.682 150.633 140.443C153.543 138.338 157.502 137.918 161.218 139.32C165.029 140.753 167.903 143.845 169.061 147.693C165.913 147.693 162.644 147.966 159.476 148.512ZM204.696 165.81C202.975 163.364 200.448 160.765 197.259 158.219C194.748 156.213 192.011 154.402 189.258 152.885C192.137 150.076 196.153 148.754 200.18 149.331C204.112 149.898 207.37 152.171 208.902 155.41C211.255 160.403 207.481 163.978 204.691 165.81H204.696Z" fill="#D3A98C"/>
<path d="M152.98 179.654C152.459 181.67 153.675 183.728 155.702 184.248C157.723 184.767 159.786 183.555 160.307 181.533C160.828 179.517 159.613 177.46 157.586 176.94C155.565 176.42 153.501 177.633 152.98 179.654Z" fill="#5F5C5D"/>
<path d="M180.536 186.73C180.015 188.746 181.231 190.804 183.257 191.324C185.278 191.844 187.342 190.631 187.863 188.61C188.384 186.594 187.168 184.536 185.142 184.016C183.115 183.497 181.057 184.709 180.536 186.73Z" fill="#5F5C5D"/>
<path d="M162.218 190.096C161.807 191.686 161.802 193.256 162.134 194.658C162.65 196.852 163.987 198.621 165.866 199.34C166.05 199.419 166.245 199.477 166.445 199.529C168.635 200.091 170.914 199.178 172.582 197.33C173.003 196.863 173.393 196.332 173.725 195.755C174.151 195.015 174.488 194.19 174.714 193.303C174.993 192.222 175.056 191.235 174.951 190.358C174.94 190.269 174.93 190.18 174.904 190.09C174.493 187.712 172.735 186.142 170.372 185.465C170.282 185.439 170.193 185.413 170.098 185.392C170.003 185.366 169.914 185.345 169.824 185.324C167.424 184.783 165.124 185.308 163.608 187.192C163.55 187.255 163.497 187.329 163.445 187.397C162.923 188.116 162.502 189.009 162.223 190.096H162.218Z" fill="#5F5C5D"/>
<path d="M162.134 194.652C162.65 196.847 163.987 198.616 165.866 199.335C166.05 199.414 166.245 199.472 166.445 199.524C168.635 200.086 170.919 199.172 172.582 197.324C172.066 195.13 170.729 193.361 168.85 192.642C168.666 192.563 168.471 192.505 168.271 192.453C166.082 191.891 163.797 192.804 162.134 194.652Z" fill="#E27FA3"/>
<path d="M167.729 200.942C167.198 200.942 166.661 200.874 166.129 200.737C162.013 199.682 159.713 194.763 160.997 189.775C161.307 188.568 161.786 187.518 162.423 186.652L164.455 188.132C164.008 188.741 163.666 189.502 163.434 190.4C162.492 194.049 163.981 197.592 166.755 198.306C169.529 199.02 172.551 196.632 173.493 192.983C173.725 192.091 173.793 191.261 173.698 190.516L176.193 190.201C176.325 191.261 176.241 192.406 175.93 193.608C174.809 197.949 171.33 200.937 167.729 200.937V200.942Z" fill="#F8D4AE"/>
<path d="M176.193 190.206C175.862 187.597 174.214 185.586 171.609 184.552L172.251 182.069L169.814 181.444L169.171 183.927C166.397 183.575 163.981 184.536 162.429 186.652C162.018 187.213 162.139 187.996 162.702 188.405C163.266 188.815 164.05 188.694 164.46 188.132C166.024 186.006 168.466 186.253 169.782 186.594C171.103 186.935 173.367 187.896 173.698 190.515C173.777 191.151 174.319 191.613 174.946 191.613C174.998 191.613 175.051 191.613 175.104 191.602C175.793 191.513 176.283 190.888 176.193 190.2V190.206Z" fill="#D3A98C"/>
<path d="M169.292 179.197C170.019 178.761 170.966 178.998 171.403 179.722L171.509 179.895L171.682 179.79C172.409 179.355 173.356 179.591 173.793 180.315C174.23 181.04 173.993 181.985 173.267 182.421L172.64 182.793C171.43 183.518 169.866 183.124 169.14 181.917L168.766 181.292C168.329 180.567 168.566 179.622 169.292 179.187V179.197Z" fill="#E27FA3"/>
<path d="M145.722 219.258C145.722 219.258 140.921 197.676 141.837 187.004L144.906 188.085L148.748 190.484L155.538 217.893L145.716 219.258H145.722Z" fill="#F8D4AE"/>
<path d="M153.52 218.422L159.17 217.022L145.986 164.086L140.336 165.486L153.52 218.422Z" fill="#FFBE8D"/>
<path d="M153.517 219.678C153.291 219.678 153.064 219.615 152.87 219.499C152.585 219.326 152.38 219.048 152.296 218.728L139.11 165.794C138.968 165.227 139.242 164.634 139.763 164.371C140.289 164.109 140.926 164.24 141.3 164.692L149.859 174.971C149.98 175.118 150.064 175.286 150.112 175.469L160.386 216.728C160.555 217.4 160.144 218.082 159.47 218.25L153.817 219.652C153.717 219.678 153.617 219.688 153.512 219.688L153.517 219.678ZM142.884 170.508L154.438 216.901L157.649 216.108L147.748 176.346L142.89 170.508H142.884Z" fill="#EA9C71"/>
<path d="M148.896 175.764C131.478 168.167 122.44 194.233 105.023 186.631C102.433 176.242 99.8483 165.852 97.2586 155.463C114.676 163.059 123.714 136.994 141.132 144.596C143.721 154.985 146.306 165.375 148.896 175.764Z" fill="#A3D676"/>
<path d="M111.434 189.308C109.265 189.308 106.97 188.857 104.517 187.786C104.159 187.628 103.896 187.319 103.801 186.941L96.0374 155.773C95.9216 155.311 96.0795 154.817 96.4479 154.513C96.8164 154.203 97.327 154.129 97.7639 154.324C105.828 157.841 111.971 153.552 118.477 149.011C125.262 144.27 132.283 139.372 141.637 143.457C141.995 143.614 142.258 143.924 142.353 144.302L150.117 175.47C150.233 175.932 150.075 176.425 149.706 176.73C149.338 177.039 148.827 177.113 148.39 176.919C140.326 173.401 134.184 177.69 127.683 182.231C122.677 185.728 117.54 189.308 111.439 189.308H111.434ZM106.091 185.717C113.876 188.799 119.887 184.604 126.235 180.168C132.457 175.827 138.868 171.349 147.101 173.774L140.063 145.509C132.278 142.428 126.267 146.622 119.919 151.058C114.913 154.555 109.776 158.135 103.675 158.14C102.196 158.14 100.659 157.93 99.0535 157.458L106.091 185.723V185.717Z" fill="#87B758"/>
<path d="M142.016 188.206C141.421 184.284 142.321 180.898 146.253 180.305C150.185 179.712 153.854 182.41 154.449 186.337C155.044 190.259 152.338 193.918 148.401 194.511C144.469 195.104 142.605 192.133 142.011 188.211L142.016 188.206Z" fill="#F8D4AE"/>
<path d="M155.696 186.142C155.002 181.544 150.68 178.362 146.069 179.06C142.569 179.585 140.647 182.074 140.6 186.006C139.684 196.747 144.3 218.644 144.495 219.531C144.627 220.114 145.148 220.513 145.722 220.513C145.811 220.513 145.906 220.502 145.995 220.481C146.674 220.329 147.101 219.662 146.953 218.985C146.916 218.812 143.827 204.811 143.121 193.986C144.258 195.204 145.732 195.834 147.448 195.834C147.822 195.834 148.201 195.802 148.596 195.744C153.207 195.051 156.396 190.741 155.696 186.142ZM148.217 193.266C146.801 193.476 145.716 193.135 144.9 192.216C144.111 191.329 143.542 189.875 143.263 188.017C143.042 186.568 142.374 182.153 146.443 181.544C148.011 181.307 149.58 181.696 150.859 182.636C152.138 183.575 152.97 184.956 153.207 186.52C153.696 189.754 151.459 192.778 148.217 193.266Z" fill="#D3A98C"/>
<path d="M177.067 214.801C181.889 221.374 178.141 232.808 164.703 229.821C150.417 226.645 152.233 212.596 159.723 212.596C167.213 212.596 169.161 218.838 166.54 221.453C166.54 221.453 176.762 214.387 177.067 214.801Z" fill="#F8D4AE"/>
<path d="M168.919 231.579C167.587 231.579 166.097 231.422 164.429 231.049C155.628 229.091 152.249 223.148 152.801 218.119C153.243 214.129 156.086 211.341 159.723 211.341C163.897 211.341 167.145 213.168 168.413 216.224C169.329 218.429 168.945 220.833 167.429 222.34C166.94 222.828 166.14 222.828 165.65 222.34C165.16 221.851 165.16 221.053 165.65 220.565C166.44 219.778 166.613 218.45 166.087 217.184C165.218 215.1 162.839 213.851 159.723 213.851C157.018 213.851 155.554 216.129 155.307 218.392C154.707 223.82 159.734 227.427 164.982 228.592C170.551 229.831 174.867 228.508 176.825 224.954C178.636 221.662 177.941 217.263 175.167 214.496C174.677 214.008 174.677 213.21 175.167 212.722C175.656 212.234 176.456 212.234 176.946 212.722C180.494 216.26 181.367 221.914 179.03 226.161C178.041 227.957 175.262 231.569 168.924 231.569L168.919 231.579Z" fill="#D3A98C"/>
<g filter="url(#filter3_d_1147_3109)">
<path d="M192.214 193.726C192.323 193.601 192.399 193.521 192.433 193.487L192.445 193.476H192.449C185.392 189.91 195.744 181.722 195.744 181.722C193.616 179.601 194.686 177.01 197.461 174.59C195.899 172.472 194.386 169.072 197.15 165.745C201.211 160.851 209.804 161.426 213.736 167.374C215.62 167.011 217.463 166.811 219.177 166.811C221.736 166.811 224.603 167.265 227.443 168.033C231.159 161.475 240.217 160.681 244.426 165.748C247.907 169.935 244.608 174.242 242.959 175.959L241.708 175.362C243.854 177.555 244.51 179.824 242.606 181.722C242.606 181.722 252.961 189.91 245.905 193.472C245.905 193.472 245.958 193.525 246.049 193.627C246.406 194.021 247.35 195.132 248.135 196.762C249.071 198.706 249.784 201.387 248.995 204.451C248.677 205.702 248.104 207.022 247.198 208.38C243.683 213.621 238.716 215.138 234.314 215.217C234.431 215.788 234.492 216.375 234.492 216.972C234.492 223.496 227.303 228.786 218.43 228.786C209.557 228.786 202.368 223.499 202.368 216.972C202.368 216.465 202.41 215.966 202.497 215.474C198.186 214.54 194.09 212.445 191.156 208.38C186.052 201.308 191.068 195.019 192.214 193.726Z" fill="#F8D4AE"/>
<path d="M234.302 170.521C237.612 172.053 240.449 173.909 242.117 175.804C243.452 173.686 245.177 169.889 242.212 167.757C239.307 165.661 236.077 168.494 234.302 170.521Z" fill="#FFF1E6"/>
<path d="M191.152 208.38C201.124 222.187 224.394 213.277 224.394 213.277C224.394 213.277 239.383 220.028 247.198 208.38C250.326 203.709 249.454 199.508 248.135 196.766C245.003 198.623 241.507 199.152 236.987 197.742C232.683 196.392 230.795 188.359 225.513 188.359C220.231 188.359 218.271 196.188 214.039 197.742C198.879 203.301 196.726 197.742 192.449 193.476C192.449 193.476 192.441 193.487 192.437 193.491C192.403 193.525 192.327 193.605 192.217 193.729C191.072 195.023 186.052 201.312 191.159 208.384L191.152 208.38Z" fill="#FFF1E6"/>
<path d="M237.741 200.253C237.741 204.129 240.54 207.272 243.99 207.272C246.038 207.272 247.858 206.164 248.995 204.455C249.78 201.395 249.071 198.714 248.135 196.766C247.35 195.136 246.409 194.025 246.049 193.631C245.404 193.378 244.711 193.242 243.99 193.242C240.536 193.242 237.741 196.384 237.741 200.257V200.253Z" fill="#FD9DB4"/>
<path d="M205.087 207.186C201.256 206.547 198.669 202.932 199.309 199.111C199.95 195.289 203.575 192.709 207.406 193.348C211.238 193.987 213.825 197.602 213.184 201.424C212.544 205.245 208.918 207.825 205.087 207.186Z" fill="#FD9DB4"/>
<path d="M214.437 195.741C212.818 195.741 211.506 194.295 211.506 192.512C211.506 190.728 212.818 189.282 214.437 189.282C216.056 189.282 217.368 190.728 217.368 192.512C217.368 194.295 216.056 195.741 214.437 195.741Z" fill="#5F5C5D"/>
<path d="M236.589 195.741C234.97 195.741 233.658 194.295 233.658 192.512C233.658 190.728 234.97 189.282 236.589 189.282C238.207 189.282 239.52 190.728 239.52 192.512C239.52 194.295 238.207 195.741 236.589 195.741Z" fill="#5F5C5D"/>
<path d="M202.607 174.775L207.028 172.665C208.359 172.03 208.636 170.252 207.555 169.25C205.727 167.56 203.198 166.089 200.878 167.76C198.716 169.315 199.046 171.75 199.899 173.777C200.339 174.821 201.583 175.263 202.607 174.775Z" fill="#FFF1E6"/>
<path d="M188.463 198.634C189.108 196.418 190.28 194.675 191.053 193.696C189.882 192.86 189.226 191.797 189.097 190.523C188.907 188.662 189.897 186.48 192.039 184.033C192.942 183.001 193.855 182.146 194.462 181.613C193.931 180.845 193.677 180.009 193.707 179.113C193.757 177.608 194.617 176.042 196.259 174.458C195.801 173.747 195.38 172.941 195.095 172.068C194.284 169.598 194.754 167.216 196.449 165.174C198.633 162.545 202.14 161.218 205.834 161.619C209.189 161.986 212.185 163.725 214.145 166.38C215.927 166.066 217.615 165.904 219.173 165.904C221.531 165.904 224.239 166.289 227.007 166.985C228.99 163.918 232.296 161.921 235.982 161.592C239.58 161.275 243.001 162.61 245.128 165.17C246.823 167.212 247.293 169.594 246.481 172.064C245.875 173.917 244.68 175.452 243.744 176.455C243.948 176.784 244.123 177.109 244.256 177.434C244.881 178.939 244.749 180.365 243.884 181.613C244.491 182.146 245.404 183.001 246.311 184.033C248.453 186.48 249.447 188.662 249.257 190.523C249.128 191.793 248.472 192.86 247.297 193.696C247.926 194.501 248.821 195.828 249.458 197.545C250.451 200.211 250.997 204.345 247.956 208.883C244.13 214.59 238.704 216.133 233.953 216.133C232.698 216.133 231.492 216.027 230.374 215.857C229.877 215.781 229.532 215.32 229.608 214.824C229.684 214.329 230.146 213.988 230.643 214.06C235.474 214.783 242.136 214.295 246.443 207.873C251.422 200.442 245.514 194.369 245.264 194.115C245.056 193.911 244.961 193.616 245.01 193.329C245.056 193.041 245.238 192.792 245.499 192.663C246.713 192.05 247.35 191.29 247.448 190.341C247.729 187.588 243.641 183.7 242.045 182.437C241.84 182.275 241.715 182.036 241.7 181.779C241.685 181.522 241.783 181.269 241.965 181.083C242.853 180.198 243.046 179.261 242.576 178.134C241.647 175.899 238.265 173.293 233.529 171.164C228.732 169.008 223.367 167.723 219.181 167.723C217.937 167.723 216.598 167.832 215.188 168.052C215.4 168.494 215.222 169.023 214.782 169.25C214.335 169.477 213.785 169.303 213.557 168.857C211.999 165.828 209.041 163.797 205.644 163.426C202.561 163.09 199.649 164.175 197.859 166.335C196.608 167.84 195.129 171.016 199.285 175.339C199.634 175.702 199.623 176.277 199.259 176.625C199.08 176.795 198.857 176.878 198.629 176.878C198.39 176.878 198.151 176.784 197.973 176.598C197.784 176.402 197.579 176.179 197.37 175.933C196.202 177.105 195.569 178.217 195.539 179.181C195.516 179.866 195.797 180.49 196.396 181.087C196.578 181.269 196.676 181.522 196.661 181.783C196.646 182.04 196.521 182.282 196.32 182.441C194.724 183.708 190.64 187.592 190.921 190.345C191.015 191.294 191.656 192.054 192.869 192.667C193.131 192.799 193.309 193.045 193.355 193.332C193.4 193.62 193.306 193.911 193.101 194.119C193.093 194.127 193.021 194.202 192.904 194.331C191.512 195.904 187.33 201.524 191.899 207.854C195.584 212.96 201.625 215.429 209.834 215.187C210.338 215.176 210.755 215.569 210.77 216.068C210.786 216.571 210.391 216.987 209.887 217.002C209.515 217.014 209.148 217.018 208.784 217.018C205.314 217.018 202.171 216.526 199.425 215.554C195.672 214.227 192.642 211.992 190.416 208.913C188.115 205.729 187.44 202.174 188.467 198.638L188.463 198.634ZM234.272 169.504C237.946 171.153 240.832 173.07 242.614 174.999C246.379 170.846 244.946 167.798 243.729 166.331C241.984 164.232 239.152 163.135 236.149 163.404C233.218 163.665 230.575 165.17 228.869 167.496C230.696 168.044 232.524 168.717 234.276 169.504H234.272Z" fill="#D3A98C"/>
<path d="M220.508 200.159C220.508 200.87 220.603 201.554 220.777 202.189C221.452 204.655 223.314 206.425 225.509 206.425C225.668 206.425 225.828 206.417 225.979 206.395C228.52 206.1 230.51 203.422 230.51 200.159C230.51 196.695 228.269 195.106 225.509 195.106C222.749 195.106 220.508 196.698 220.508 200.159Z" fill="#5F5C5D"/>
<path d="M220.777 202.189C221.452 204.655 223.314 206.425 225.509 206.425C225.668 206.425 225.828 206.417 225.979 206.395C226.051 206.278 226.12 206.149 226.192 206.02C227.852 202.98 227.89 199.807 226.286 198.937C224.804 198.139 222.438 199.573 220.777 202.193V202.189Z" fill="#E27FA3"/>
<path d="M225.505 207.336C228.766 207.336 231.417 204.118 231.417 200.159C231.417 199.448 231.329 198.782 231.163 198.173L229.407 198.661C229.532 199.111 229.597 199.614 229.597 200.159C229.597 203.116 227.761 205.517 225.505 205.517C223.249 205.517 221.414 203.112 221.414 200.159C221.414 199.614 221.478 199.107 221.604 198.661L219.848 198.173C219.677 198.782 219.594 199.448 219.594 200.159C219.594 204.114 222.244 207.336 225.505 207.336Z" fill="#F8D4AE"/>
<path d="M219.848 198.173C220.466 195.957 222.21 194.535 224.595 194.251V192.206H226.415V194.251C228.797 194.539 230.541 195.957 231.163 198.173C231.299 198.657 231.015 199.156 230.529 199.293C230.044 199.425 229.544 199.145 229.407 198.661C228.762 196.354 226.685 196.01 225.505 196.01C224.326 196.01 222.248 196.354 221.604 198.661C221.49 199.062 221.126 199.327 220.728 199.327C220.648 199.327 220.565 199.315 220.481 199.293C219.996 199.156 219.715 198.657 219.848 198.173Z" fill="#D3A98C"/>
<path d="M227.306 190.617C226.844 190.148 226.089 190.144 225.619 190.606L225.505 190.719L225.395 190.606C224.933 190.137 224.178 190.133 223.708 190.594C223.238 191.056 223.234 191.808 223.697 192.277L224.095 192.678C224.861 193.453 226.116 193.461 226.893 192.697L227.295 192.3C227.765 191.839 227.769 191.086 227.306 190.617Z" fill="#E27FA3"/>
<path d="M243.482 216.972C240.942 214.533 235.591 212.355 230.575 211.606C228.349 211.273 226.677 209.416 226.635 207.177C226.624 206.693 226.692 206.224 226.825 205.782C227.31 204.175 228.668 202.923 230.397 202.598C235.379 201.66 240.642 199.274 243.092 196.74L243.482 216.976V216.972Z" fill="#95A1B3"/>
<path d="M240.189 206.917C240.042 199.351 244.173 193.136 249.416 193.035C254.659 192.933 259.028 198.984 259.175 206.55C259.322 214.115 255.191 220.331 249.948 220.432C244.705 220.533 240.336 214.482 240.189 206.917Z" fill="white"/>
<path d="M242.853 217.627L244.115 216.318C241.495 213.803 235.982 211.496 230.711 210.71C228.914 210.441 227.583 208.947 227.549 207.159C227.515 205.37 228.785 203.827 230.571 203.49C235.808 202.5 241.226 199.981 243.747 197.368L242.436 196.108C240.149 198.476 235.133 200.779 230.23 201.705C227.568 202.208 225.676 204.515 225.725 207.193C225.778 209.87 227.758 212.101 230.438 212.502C235.371 213.24 240.475 215.346 242.853 217.623V217.627Z" fill="#70838E"/>
<path d="M249.818 221.34C249.867 221.34 249.917 221.34 249.966 221.34C252.81 221.283 255.43 219.668 257.341 216.791C259.184 214.015 260.158 210.373 260.086 206.531C260.01 202.688 258.896 199.084 256.947 196.384C254.926 193.582 252.249 192.073 249.401 192.122C246.557 192.179 243.937 193.794 242.026 196.672C240.183 199.447 239.209 203.089 239.281 206.932C239.357 210.774 240.471 214.378 242.42 217.078C244.407 219.831 247.027 221.34 249.818 221.34ZM249.549 193.941C254.232 193.941 258.13 199.572 258.266 206.569C258.403 213.621 254.664 219.434 249.932 219.525C245.192 219.616 241.241 213.95 241.105 206.901C241.036 203.426 241.905 200.151 243.547 197.681C245.12 195.314 247.213 193.99 249.439 193.945C249.477 193.945 249.515 193.945 249.553 193.945L249.549 193.941Z" fill="#E2E2E2"/>
<path d="M252.745 211.069L245.7 211.205L244.942 207.034L245.666 201.985L252.506 201.856C252.529 201.853 252.548 201.856 252.567 201.853C254.194 201.822 255.551 203.861 255.604 206.406C255.654 208.955 254.376 211.042 252.745 211.073V211.069Z" fill="#95A1B3"/>
<path d="M245.681 210.301L249.845 210.222C249.219 209.261 248.828 207.975 248.798 206.538C248.787 206.035 249.189 205.623 249.689 205.612C250.19 205.597 250.607 206.001 250.618 206.5C250.66 208.683 251.759 210.188 252.726 210.161C253.69 210.142 254.732 208.603 254.691 206.421C254.649 204.254 253.561 202.76 252.601 202.76C252.594 202.76 252.586 202.76 252.582 202.76L245.681 202.893C245.681 202.893 245.67 202.893 245.662 202.893C245.169 202.893 245.143 201.085 245.643 201.077L252.514 200.945C252.514 200.945 252.533 200.945 252.544 200.945C252.563 200.945 252.582 200.945 252.601 200.945C254.74 200.945 256.45 203.32 256.511 206.387C256.571 209.48 254.922 211.935 252.761 211.98L245.712 212.116C245.712 212.116 245.7 212.116 245.693 212.116C245.2 212.116 245.173 210.309 245.674 210.301H245.681Z" fill="#70838E"/>
<path d="M249.829 216.613C249.829 216.613 249.86 216.613 249.879 216.613C250.383 216.601 250.781 216.189 250.77 215.686C250.758 215.183 250.349 214.786 249.841 214.798C249.837 214.798 249.833 214.798 249.826 214.798C248.87 214.798 246.826 212.952 246.102 209.223C246.098 209.197 246.091 209.17 246.083 209.144C245.939 208.399 245.86 207.612 245.844 206.807C245.829 206.016 245.878 205.222 245.996 204.451C246.004 204.428 246.007 204.402 246.011 204.375C246.258 202.783 246.773 201.372 247.494 200.291C248.009 199.512 248.813 198.68 249.526 198.665C250.03 198.653 250.429 198.241 250.417 197.738C250.406 197.243 250 196.849 249.507 196.849C249.5 196.849 249.496 196.849 249.488 196.849C247.812 196.883 246.565 198.392 245.973 199.289C245.12 200.571 244.513 202.204 244.221 204.023C244.214 204.05 244.21 204.076 244.206 204.103C244.066 204.999 244.005 205.922 244.02 206.841C244.039 207.779 244.134 208.694 244.305 209.56C244.309 209.59 244.316 209.617 244.324 209.643C244.817 212.109 245.776 213.701 246.497 214.608C247.513 215.883 248.718 216.609 249.822 216.609L249.829 216.613Z" fill="#E2E2E2"/>
<path d="M232.975 209.79C235.652 209.503 237.066 211.186 237.654 213.618C238.841 214.96 239.834 216.885 240.38 219.128C241.544 223.915 240.229 228.344 237.442 229.021C234.655 229.694 231.451 226.362 230.283 221.571C230.162 221.071 230.067 220.576 229.999 220.088C228.819 219.158 228 217.778 227.826 216.17C227.481 212.994 229.782 210.135 232.971 209.79H232.975Z" fill="#F8D4AE"/>
<path d="M228.368 211.345C229.49 209.95 231.094 209.076 232.876 208.883C234.67 208.69 236.168 209.261 237.21 210.536C237.775 211.228 238.2 212.116 238.485 213.187C239.743 214.673 240.725 216.692 241.268 218.908C241.867 221.378 241.867 223.851 241.268 225.871C240.615 228.064 239.334 229.494 237.658 229.898C237.343 229.974 237.025 230.012 236.702 230.012C235.315 230.012 233.889 229.308 232.6 227.97C231.14 226.449 230.002 224.252 229.399 221.783C229.297 221.367 229.217 220.958 229.153 220.561C227.894 219.453 227.105 217.94 226.923 216.265C226.73 214.488 227.242 212.74 228.368 211.345ZM233.915 226.714C235.034 227.879 236.209 228.382 237.233 228.136C238.253 227.89 239.068 226.903 239.527 225.356C240.035 223.639 240.028 221.503 239.504 219.34C239.334 218.636 239.11 217.959 238.849 217.316C238.761 218.209 238.549 218.992 238.208 219.661C237.465 221.128 236.122 222.01 234.329 222.202C234.082 222.229 233.836 222.244 233.593 222.244C232.804 222.244 232.035 222.104 231.303 221.839C231.853 223.802 232.77 225.519 233.919 226.714H233.915ZM228.736 216.068C228.876 217.366 229.517 218.527 230.533 219.347C231.553 220.164 232.827 220.535 234.128 220.395C235.311 220.266 236.111 219.759 236.577 218.84C237.021 217.967 237.165 216.7 236.998 215.176C236.831 213.652 236.418 212.445 235.796 211.685C235.235 211.001 234.499 210.664 233.551 210.664C233.396 210.664 233.237 210.672 233.07 210.691C231.769 210.831 230.605 211.47 229.782 212.483C228.963 213.501 228.588 214.771 228.732 216.068H228.736Z" fill="#D3A98C"/>
<path d="M200.4 193.457C203.475 192.55 206.702 194.297 207.612 197.364C208.313 199.72 207.437 202.171 205.595 203.589C207.161 207.737 210.012 214.223 213.701 217.903L205.272 223.923C205.272 223.923 198.618 210.763 197.894 200.234C196.984 197.167 197.325 194.365 200.396 193.457H200.4Z" fill="#F8D4AE"/>
<path d="M200.142 192.584C203.691 191.536 207.437 193.563 208.488 197.103C208.996 198.82 208.806 200.627 207.949 202.201C207.608 202.825 207.18 203.38 206.675 203.861C208.124 207.612 210.873 213.795 214.346 217.259C214.702 217.615 214.702 218.19 214.346 218.545C214.168 218.723 213.937 218.81 213.701 218.81C213.466 218.81 213.235 218.723 213.057 218.545C211.097 216.59 208.169 212.657 205.143 204.95C204.768 205.147 204.37 205.305 203.953 205.43C203.399 205.593 202.865 205.676 202.349 205.676C201.257 205.676 200.26 205.309 199.406 204.591C201.204 213.78 206.027 223.401 206.084 223.514C206.311 223.961 206.129 224.509 205.682 224.736C205.549 224.8 205.409 224.834 205.272 224.834C204.939 224.834 204.62 224.653 204.457 224.335C204.389 224.199 202.751 220.95 201.003 216.352C198.66 210.203 197.313 204.836 196.991 200.4C195.823 196.369 196.968 193.525 200.135 192.591L200.142 192.584ZM200.578 203.195C201.363 203.865 202.3 204.023 203.441 203.687C204.696 203.316 205.727 202.48 206.353 201.335C206.975 200.189 207.115 198.869 206.744 197.621C206.114 195.503 204.161 194.127 202.049 194.127C201.591 194.127 201.124 194.191 200.662 194.327C198.485 194.97 197.852 196.872 198.773 199.977C199.209 201.448 199.835 202.56 200.582 203.195H200.578Z" fill="#D3A98C"/>
<path d="M259.59 193.941C258.941 193.211 258.926 192.118 259.559 191.373L264.079 186.056C264.852 185.149 266.252 185.13 267.048 186.022L268.356 187.493C269.149 188.386 268.967 189.77 267.969 190.428L262.138 194.274C261.322 194.811 260.234 194.671 259.586 193.941H259.59Z" fill="#E27FA3"/>
<path d="M260.773 198.506C260.685 197.534 261.326 196.645 262.274 196.422L269.077 194.815C270.241 194.539 271.378 195.356 271.484 196.543L271.663 198.502C271.772 199.69 270.802 200.699 269.607 200.639L262.627 200.287C261.648 200.238 260.86 199.482 260.769 198.51L260.773 198.506Z" fill="#E27FA3"/>
<path d="M255.183 192.224C256.139 192.428 257.102 191.899 257.436 190.984L259.844 184.438C260.257 183.318 259.578 182.097 258.41 181.847L256.48 181.439C255.312 181.189 254.194 182.032 254.11 183.22L253.633 190.175C253.564 191.146 254.228 192.02 255.183 192.224Z" fill="#E27FA3"/>
</g>
<g clip-path="url(#clip1_1147_3109)">
<path d="M50.8358 161.531C50.9553 158.336 49.8339 155.712 49.3968 154.814C49.2878 154.596 49.225 154.48 49.225 154.48C57.6821 152.766 49.1715 141.138 49.1715 141.138C52.3514 139.331 51.5247 135.76 48.5987 131.953L50.3506 133.474C52.5817 132.144 57.3 128.555 54.8575 123.132C51.8435 116.433 41.7377 114.712 35.9712 120.989L38.2021 122.928C35.1319 121.014 31.871 119.469 28.8478 118.638C25.8209 117.804 22.2267 117.466 18.6059 117.543L21.5224 117.018C19.7837 108.676 10.2217 104.994 4.20005 109.206C-0.677925 112.617 1.53998 118.108 2.78053 120.395L5.0659 119.983C0.603469 121.759 -1.93787 124.404 -0.126977 127.584C-0.126977 127.584 -13.3968 133.222 -7.01132 139.018C-7.01132 139.018 -10.104 140.771 -11.9992 144.257C-13.3585 146.744 -14.1129 150.113 -12.7014 154.361C-10.0809 162.243 -2.05998 165.479 4.73732 166.79C3.05681 167.611 1.60508 168.946 0.649082 170.714C-1.79447 175.232 -0.113889 180.877 4.40918 183.32C8.93225 185.763 14.5763 184.08 17.0219 179.558C19.2552 175.429 18.0428 170.365 14.3686 167.656C15.0001 167.65 15.3544 167.629 15.3544 167.629C15.3544 167.629 34.6584 180.591 46.2566 170.569C49.6475 167.639 50.7282 164.355 50.8378 161.527L50.8358 161.531Z" fill="#F8D4AE"/>
<path d="M13.789 117.893C9.95762 118.368 6.37444 119.287 3.72834 120.571C2.92953 117.967 2.14884 113.373 5.93981 111.963C9.95802 110.464 12.6698 115.318 13.789 117.893Z" fill="#FFF1E6"/>
<path d="M49.436 133.14C47.8224 130.684 45.2141 128.058 42.1581 125.698C44.4353 124.059 49.259 121.276 51.9395 124.617C54.4663 127.769 51.453 131.313 49.434 133.143L49.436 133.14Z" fill="#FFF1E6"/>
<path d="M46.2578 170.573C34.6588 180.596 15.3536 167.632 15.3536 167.632C15.3536 167.632 -7.8684 168.904 -12.7076 154.362C-14.1193 150.113 -13.3648 146.744 -12.0055 144.257C-7.82489 149.032 -1.73452 151.766 5.27173 151.673C10.7182 151.597 15.3377 143.502 21.5277 145.204C27.7178 146.906 27.5428 156.223 32.1843 159.073C38.1594 162.736 44.794 163.499 50.8335 161.532C50.7239 164.36 49.6432 167.645 46.2521 170.575L46.2578 170.573Z" fill="#FFF1E6"/>
<path d="M-0.405439 160.006C3.70197 158.957 6.18169 154.779 5.13316 150.675C4.08464 146.571 -0.0950657 144.094 -4.20247 145.143C-8.30988 146.192 -10.7896 150.369 -9.74107 154.474C-8.69255 158.578 -4.51284 161.055 -0.405439 160.006Z" fill="#FD9DB4"/>
<path d="M45.6344 165.761C46.7617 161.677 44.3605 157.453 40.2723 156.331C36.1861 155.206 31.9603 157.607 30.8368 161.694C29.7096 165.779 32.1107 170.002 36.1989 171.124C40.2851 172.249 44.511 169.848 45.6344 165.761Z" fill="#FD9DB4"/>
<path d="M50.6376 155.128C52.1116 154.582 53.1093 153.648 53.617 152.343C55.0142 148.733 51.9574 143.489 50.5663 141.39C51.8325 140.326 52.3816 138.855 52.1625 137.09C52.0472 136.178 51.7159 135.183 51.1884 134.14C52.4478 133.347 54.062 132.104 55.1949 130.394C56.7674 128.022 56.9665 125.368 55.7717 122.718C54.2343 119.309 50.9255 116.889 46.9208 116.247C42.6361 115.56 38.3281 117.024 35.3582 120.166C33.2086 119.068 31.08 118.208 29.1123 117.666C27.1445 117.125 24.874 116.777 22.4661 116.621C21.5213 112.402 18.5708 108.944 14.5378 107.345C10.7639 105.847 6.6806 106.235 3.61712 108.38C1.23459 110.044 0.0495561 112.431 0.184822 115.271C0.284613 117.319 1.03197 119.215 1.70836 120.537C0.72035 121.167 -0.0734732 121.849 -0.640574 122.576C-1.73324 123.98 -2.01279 125.524 -1.47151 127.086C-3.7388 128.179 -9.05811 131.12 -9.70336 134.938C-9.93772 136.318 -9.55576 137.631 -8.57382 138.851C-9.47181 139.52 -10.79 140.663 -11.9599 142.281C-13.7806 144.808 -15.5582 149.015 -13.673 154.683C-12.2875 158.855 -9.30284 162.196 -4.90307 164.573C-2.66393 165.782 -0.0536587 166.743 2.89613 167.434C8.56929 168.76 13.7127 168.699 15.0603 168.654C16.1968 169.384 20.5831 172.063 26.1378 173.822C34.7023 176.536 41.883 175.673 46.9048 171.336C53.8804 165.306 51.743 157.835 50.6318 155.13L50.6376 155.128ZM46.6001 118.242C49.937 118.779 52.6762 120.761 53.9349 123.551C54.7922 125.458 55.413 129.106 50.1602 132.406C48.7426 130.303 46.6319 128.052 43.9552 125.838C41.8399 124.087 39.5329 122.503 37.2045 121.173C39.6959 118.781 43.1533 117.694 46.5981 118.246L46.6001 118.242ZM4.7733 110.038C7.28032 108.287 10.6517 107.984 13.7911 109.226C17.0337 110.509 19.4493 113.214 20.3637 116.543C17.6842 116.496 14.8889 116.681 12.1735 117.102C8.73953 117.637 5.77643 118.49 3.47894 119.576C0.65347 114.056 3.05584 111.24 4.77128 110.042L4.7733 110.038ZM45.5942 169.812C41.0768 173.717 34.7528 174.424 26.8016 171.916C20.7271 170.001 15.9612 166.828 15.9146 166.798C15.734 166.676 15.5154 166.616 15.2964 166.628C15.2411 166.632 9.52197 166.918 3.32061 165.461C-4.79626 163.554 -9.86786 159.713 -11.7493 154.047C-14.8256 144.784 -6.85856 140.092 -6.51774 139.899C-6.23684 139.737 -6.04898 139.452 -6.01216 139.134C-5.97707 138.81 -6.09626 138.495 -6.3365 138.278C-7.43223 137.285 -7.88183 136.304 -7.70652 135.283C-7.2023 132.306 -1.78115 129.391 0.264135 128.521C0.528259 128.408 0.732984 128.19 0.823543 127.915C0.917841 127.643 0.887566 127.341 0.745233 127.096C0.0720594 125.911 0.139468 124.875 0.958391 123.826C2.57865 121.741 6.8906 119.975 12.4916 119.104C18.1613 118.221 24.1769 118.414 28.5779 119.628C30.6794 120.208 32.9759 121.168 35.2861 122.416C37.8168 123.783 40.3576 125.489 42.6692 127.404C47.0331 131.017 49.8326 134.736 50.1594 137.355C50.3243 138.676 49.8516 139.604 48.6663 140.277C48.4166 140.417 48.2414 140.661 48.1811 140.942C48.1207 141.223 48.1835 141.518 48.353 141.749C49.6626 143.543 52.8287 148.817 51.7365 151.632C51.3632 152.598 50.4765 153.211 49.022 153.507C48.7061 153.573 48.439 153.781 48.3041 154.075C48.1691 154.369 48.1829 154.71 48.3413 154.989C48.3485 155.002 48.4025 155.099 48.4882 155.271C48.886 156.089 49.8196 158.284 49.8293 161.008C49.8419 164.414 48.4178 167.377 45.5939 169.821L45.5942 169.812Z" fill="#D3A98C"/>
<path d="M34.4467 155.677C33.9795 157.38 32.2152 158.383 30.5133 157.913C28.8094 157.446 27.8068 155.683 28.2777 153.981C28.7486 152.28 30.5092 151.276 32.2111 151.746C33.915 152.212 34.9176 153.976 34.4467 155.677Z" fill="#5F5C5D"/>
<path d="M11.2372 149.294C10.77 150.997 9.0057 152 7.30379 151.53C5.59987 151.063 4.59728 149.3 5.06821 147.599C5.53539 145.895 7.2997 144.893 9.00161 145.363C10.7055 145.83 11.7081 147.593 11.2372 149.294Z" fill="#5F5C5D"/>
<path d="M24.9714 152.831C24.9714 152.831 23.8974 156.264 21.8718 158.535C21.7198 158.709 21.5587 158.873 21.388 159.037C20.1994 160.172 18.7272 160.84 16.986 160.29C15.4142 159.794 14.5911 158.601 14.2064 157.195C14.1432 156.973 14.0955 156.739 14.0536 156.504C13.5222 153.388 14.7347 149.61 14.7347 149.61C14.6595 150.829 15.4174 151.982 16.6333 152.369C18.0638 152.823 19.5972 152.024 20.0519 150.594C19.5972 152.024 20.3924 153.554 21.8267 154.01C23.0446 154.393 24.3275 153.879 24.9673 152.838L24.9714 152.831Z" fill="#5F5C5D"/>
<path d="M21.3906 159.033C20.2019 160.168 18.7297 160.836 16.9884 160.286C15.4166 159.79 14.5935 158.597 14.2088 157.191C15.3992 156.062 16.8755 155.387 18.613 155.934C20.1885 156.433 21.0099 157.62 21.3886 159.036L21.3906 159.033Z" fill="#E27FA3"/>
<path d="M15.7642 160.861C14.8969 160.393 14.2198 159.689 13.7361 158.761C11.9059 155.233 13.6971 149.537 13.7732 149.298L15.6968 149.912C15.2424 151.332 14.334 155.53 15.5302 157.838C15.9207 158.589 16.4946 159.073 17.2908 159.325C18.0871 159.576 18.8384 159.509 19.5888 159.113C21.9035 157.905 23.5627 153.953 24.0038 152.53L25.9297 153.131C25.8536 153.37 24.0455 159.062 20.5203 160.9C19.2865 161.547 17.9937 161.66 16.6779 161.244C16.3523 161.14 16.0445 161.013 15.7604 160.859L15.7642 160.861Z" fill="#F8D4AE"/>
<path d="M25.4989 151.972C25.0234 151.681 24.4025 151.829 24.1079 152.302C23.6965 152.974 22.8826 153.273 22.1315 153.036C21.2486 152.757 20.7517 151.827 20.9967 150.945L21.3887 149.515L19.4415 148.98L19.0821 150.288C18.9446 150.721 18.6461 151.076 18.2382 151.285C17.8302 151.495 17.3668 151.539 16.9301 151.4C16.179 151.163 15.6866 150.448 15.7325 149.666C15.7675 149.111 15.3397 148.633 14.7837 148.598C14.2277 148.564 13.75 148.991 13.7151 149.547C13.6262 151.016 14.4061 152.369 15.6622 153.047C15.8678 153.158 16.0873 153.253 16.3189 153.325C17.2676 153.625 18.2821 153.535 19.1676 153.077C19.2025 153.057 19.2411 153.039 19.276 153.02C19.7073 153.919 20.4941 154.643 21.5183 154.965C23.1522 155.48 24.9227 154.824 25.8195 153.362C26.1104 152.887 25.963 152.266 25.4894 151.972L25.4989 151.972Z" fill="#D3A98C"/>
<path d="M22.6668 148.482C22.3162 147.853 21.5228 147.632 20.8936 147.983L20.7406 148.069L20.6542 147.917C20.3036 147.288 19.5102 147.067 18.881 147.417C18.2518 147.768 18.0305 148.561 18.3811 149.19L18.6833 149.73C19.266 150.769 20.5813 151.142 21.6211 150.559L22.1612 150.257C22.7905 149.906 23.0117 149.113 22.6611 148.484L22.6668 148.482Z" fill="#E27FA3"/>
<path d="M31.8703 205.242C43.7562 201.698 50.519 189.197 46.9756 177.32C43.4322 165.443 30.9243 158.688 19.0385 162.232C7.15272 165.776 0.389864 178.278 3.93327 190.155C7.47668 202.032 19.9845 208.787 31.8703 205.242Z" fill="#B5F6F8"/>
<path d="M47.9274 176.982C46.1303 170.999 42.1145 166.073 36.6158 163.102C36.6158 163.102 36.5971 163.092 36.5896 163.088L36.5746 163.08C36.5522 163.068 36.526 163.054 36.5036 163.042C30.9999 160.107 24.6863 159.483 18.7058 161.28C12.7024 163.083 7.76252 167.117 4.79253 172.635C-1.32765 184.013 2.93396 198.238 14.2978 204.376C14.3128 204.385 14.3277 204.393 14.3427 204.401C25.7394 210.523 39.9928 206.237 46.1248 194.846C49.0948 189.328 49.7335 182.985 47.9312 176.984L47.9274 176.982ZM31.5861 198.48C33.6028 196.368 35.4491 193.874 37.0268 191.1L43.842 194.762C41.4153 198.811 37.8252 201.788 33.7375 203.496C33.2179 201.733 32.4903 200.05 31.5882 198.477L31.5861 198.48ZM4.39433 187.732C3.56603 183.378 4.07194 178.745 6.11155 174.492L12.9267 178.154C11.4856 180.997 10.4186 183.917 9.77039 186.759C7.96041 186.872 6.15324 187.195 4.39433 187.732ZM19.3237 168.997C17.3071 171.109 15.4608 173.603 13.8831 176.377L7.06412 172.713C9.42872 168.76 12.9427 165.728 17.1651 163.968C17.6885 165.733 18.4141 167.419 19.32 168.995L19.3237 168.997ZM46.527 179.741C47.3871 184.233 46.7908 188.836 44.7983 192.985L37.9794 189.321C39.4205 186.478 40.4876 183.558 41.1377 180.712C42.9535 180.597 44.7607 180.274 46.5253 179.736L46.527 179.741ZM36.2035 188.371L26.8219 183.328L29.4564 178.43C32.4785 179.888 35.7562 180.669 39.0619 180.755C38.4414 183.269 37.4843 185.842 36.2055 188.367L36.2035 188.371ZM30.4127 176.653L36.4621 165.405C38.5834 167.029 39.7856 170.04 39.8671 174.024C39.9004 175.534 39.7659 177.122 39.4819 178.746C36.3663 178.719 33.2649 178.015 30.4127 176.653ZM34.6882 164.451L28.6388 175.699C25.9301 174.072 23.6314 171.874 21.8888 169.291C23.0906 168.158 24.3392 167.172 25.6199 166.366C28.9927 164.238 32.1665 163.577 34.692 164.454L34.6882 164.451ZM27.6767 177.478L25.0423 182.376L15.6607 177.332C17.0608 174.877 18.6816 172.658 20.4406 170.754C22.3332 173.462 24.7941 175.762 27.6767 177.478ZM14.7044 179.109L24.0859 184.153L21.4535 189.047C18.4313 187.588 15.1536 186.808 11.8479 186.722C12.4685 184.208 13.4256 181.635 14.7044 179.109ZM20.4972 190.824L14.4477 202.072C12.3265 200.448 11.1243 197.437 11.0428 193.453C11.0094 191.943 11.142 190.358 11.428 188.731C14.5435 188.757 17.645 189.462 20.4972 190.824ZM16.2254 203.027L22.2748 191.78C24.9835 193.407 27.2822 195.605 29.0248 198.188C27.823 199.321 26.5744 200.307 25.2937 201.112C21.9209 203.24 18.7471 203.902 16.2216 203.025L16.2254 203.027ZM23.2331 189.999L25.8656 185.105L35.2471 190.148C33.847 192.603 32.2262 194.823 30.4673 196.727C28.5747 194.019 26.1138 191.719 23.2311 190.003L23.2331 189.999ZM46.0538 177.776C44.5768 178.239 43.0615 178.531 41.5399 178.665C41.7968 177.056 41.9155 175.488 41.8859 173.98C41.8461 172.196 41.6054 170.569 41.1704 169.131C43.3799 171.503 45.0336 174.366 45.9923 177.56C46.0129 177.629 46.0315 177.701 46.0521 177.77L46.0538 177.776ZM28.9792 162.584C27.5394 163.014 26.0473 163.71 24.5375 164.661C23.2625 165.465 22.0183 166.435 20.8157 167.533C20.0887 166.189 19.5011 164.766 19.0696 163.277C19.1388 163.257 19.2099 163.232 19.279 163.212C22.4757 162.249 25.7773 162.048 28.9754 162.582L28.9792 162.584ZM4.86554 189.701C6.34052 189.242 7.85206 188.948 9.36995 188.812C9.11505 190.417 8.99433 191.989 9.02599 193.494C9.06408 195.272 9.30305 196.893 9.73633 198.325C7.43521 195.845 5.78481 192.877 4.86756 189.697L4.86554 189.701ZM21.9459 204.891C23.382 204.46 24.8663 203.769 26.3704 202.819C27.6453 202.016 28.8875 201.05 30.0864 199.949C30.8117 201.288 31.3993 202.711 31.829 204.194C28.6677 205.18 25.2805 205.442 21.9422 204.889L21.9459 204.891Z" fill="#95E0E8"/>
<path d="M44.884 184.943L13.7998 168.151L6.02224 182.532L37.1065 199.324L44.884 184.943Z" fill="white"/>
<path d="M36.6312 200.211L5.54697 183.42C5.05725 183.155 4.87149 182.543 5.13829 182.05L12.9158 167.669C13.1806 167.18 13.7931 166.994 14.2865 167.26L45.3707 184.052C45.8604 184.316 46.0462 184.929 45.7794 185.422L38.0019 199.803C37.7371 200.292 37.1246 200.478 36.6312 200.211ZM7.39301 182.123L36.7015 197.956L43.5169 185.354L14.2084 169.522L7.39301 182.123Z" fill="#E2E2E2"/>
<path d="M5.31813 167.683C-5.25465 169.727 -11.6556 178.775 -6.77755 182.072C-1.9032 185.367 10.595 190.65 10.6319 184.035C10.6688 177.42 0.279498 175.99 0.279498 175.99L5.31813 167.683Z" fill="#F8D4AE"/>
<path d="M-7.34431 182.905C-9.06032 181.747 -9.76266 179.928 -9.32729 177.793C-8.87393 175.57 -7.16273 173.138 -4.63943 171.116C-1.94638 168.959 1.97489 166.746 5.57754 166.051C6.12285 165.945 6.65327 166.304 6.75941 166.849C6.86554 167.394 6.50631 167.924 5.961 168.03C0.502454 169.085 -6.42106 173.669 -7.3475 178.196C-7.62002 179.521 -7.24012 180.543 -6.21264 181.233C-2.08088 184.025 5.97563 187.286 8.71812 185.841C9.10299 185.638 9.62004 185.227 9.62612 184.028C9.65676 178.38 0.239407 177.002 0.144735 176.989C-0.408032 176.913 -0.792834 176.401 -0.718216 175.852C-0.641578 175.299 -0.132919 174.913 0.419849 174.989C0.531493 175.006 3.19288 175.381 5.89339 176.613C9.67324 178.341 11.6617 180.907 11.6451 184.037C11.6329 186.141 10.5605 187.15 9.66114 187.625C5.36936 189.889 -4.305 184.958 -7.33855 182.904L-7.34431 182.905Z" fill="#D3A98C"/>
<path d="M49.0057 169.606C51.3605 172.191 52.3602 175.112 49.7788 177.464C47.1973 179.817 43.1855 179.635 40.8307 177.049C38.4759 174.464 38.6612 170.459 41.2485 168.105C43.8357 165.75 46.651 167.02 49.0078 169.602L49.0057 169.606Z" fill="#F8D4AE"/>
<path d="M42.0245 179.254C41.3068 178.866 40.65 178.357 40.0844 177.732C37.3584 174.744 37.576 170.09 40.5668 167.365C42.026 166.033 43.7235 165.574 45.4657 166.032C46.897 166.404 48.3393 167.381 49.7481 168.93C51.1606 170.48 51.9978 172.004 52.2382 173.462C52.531 175.242 51.9137 176.884 50.4545 178.216C49.005 179.538 47.1276 180.214 45.1683 180.121C44.0482 180.067 42.9777 179.769 42.0208 179.252L42.0245 179.254ZM45.9438 168.381C45.6073 168.199 45.2789 168.065 44.9564 167.983C43.8741 167.698 42.8838 167.984 41.9242 168.856C39.7541 170.832 39.5966 174.205 41.573 176.373C42.5319 177.422 43.8413 178.038 45.2595 178.104C46.6778 178.17 48.0397 177.679 49.0934 176.722C50.0472 175.852 50.4259 174.892 50.2445 173.79C50.071 172.735 49.3815 171.527 48.2537 170.29C47.4749 169.435 46.6874 168.792 45.936 168.387L45.9438 168.381Z" fill="#D3A98C"/>
<path d="M14.3374 182.845C14.1334 182.739 13.997 182.586 13.9282 182.387C13.8697 182.183 13.8935 181.98 13.9996 181.776L17.049 175.911C17.1834 175.653 17.3521 175.495 17.5553 175.436C17.7653 175.381 17.9586 175.4 18.1354 175.492C18.3122 175.584 18.4268 175.704 18.4793 175.852C18.5353 175.993 18.5654 176.151 18.5695 176.326L19.1533 182.629L18.6801 182.966L21.1555 177.956C21.2548 177.749 21.4026 177.614 21.599 177.552C21.8057 177.486 22.011 177.507 22.215 177.613C22.419 177.719 22.5502 177.874 22.6087 178.077C22.6775 178.277 22.6589 178.479 22.5528 178.683L19.4663 184.618C19.3673 184.809 19.2126 184.94 19.0024 185.012C18.7957 185.077 18.5938 185.059 18.3966 184.956C18.2606 184.886 18.1541 184.791 18.0772 184.674C18.0002 184.556 17.9541 184.437 17.9389 184.317L17.2363 177.719L17.787 177.682L15.4071 182.508C15.3078 182.715 15.1548 182.852 14.9481 182.917C14.7517 182.979 14.5482 182.955 14.3374 182.845ZM22.1528 186.909C21.9488 186.803 21.8124 186.65 21.7436 186.45C21.6851 186.247 21.7089 186.044 21.815 185.84L24.8485 180.006C24.951 179.809 25.1056 179.677 25.3123 179.612C25.519 179.547 25.721 179.566 25.9181 179.668L26.6219 180.034L23.2224 186.572C23.1164 186.776 22.96 186.91 22.7533 186.975C22.5569 187.037 22.3568 187.015 22.1528 186.909ZM25.4849 181.049L26.1425 179.785L28.9676 181.254C29.1512 181.349 29.2708 181.485 29.3262 181.661C29.3885 181.84 29.3702 182.025 29.2712 182.215C29.1757 182.399 29.035 182.52 28.8489 182.578C28.6733 182.634 28.4936 182.614 28.31 182.518L25.4849 181.049ZM23.9571 184.012L24.6201 182.738L27.2412 184.101C27.4248 184.196 27.5425 184.335 27.5945 184.517C27.6532 184.703 27.6349 184.888 27.5394 185.072C27.444 185.255 27.3032 185.377 27.1172 185.435C26.9415 185.491 26.7619 185.471 26.5783 185.375L23.9571 184.012ZM30.7962 183.915C30.6058 183.816 30.4796 183.668 30.4176 183.472C30.3556 183.275 30.374 183.082 30.473 182.892C30.5756 182.695 30.7233 182.568 30.9161 182.513C31.1124 182.451 31.3058 182.47 31.4962 182.569L35.8614 184.838C36.0585 184.941 36.1847 185.089 36.24 185.281C36.3055 185.471 36.287 185.664 36.1845 185.862C36.0855 186.052 35.9378 186.178 35.7414 186.24C35.5519 186.306 35.3585 186.287 35.1613 186.185L30.7962 183.915ZM29.9134 190.945C29.7094 190.839 29.5764 190.688 29.5144 190.491C29.4559 190.288 29.4797 190.084 29.5858 189.88L32.6246 184.036L34.0219 184.763L30.9831 190.607C30.877 190.811 30.7206 190.946 30.5139 191.011C30.3176 191.073 30.1174 191.051 29.9134 190.945Z" fill="#DD528B"/>
<path d="M39.949 213.371H-20.4184C-19.9726 209.692 -14.2888 208.404 -11.5026 208.22C-10.7596 200.274 -4.25849 200.249 -1.10081 201.23C-0.357832 198.471 2.6141 192.953 9.48669 192.953C17.8081 193.247 20.0742 199.514 20.4457 202.886C26.0924 201.709 28.7423 206.381 29.1757 208.772C36.1598 208.625 39.2679 211.777 39.949 213.371Z" fill="#FFFEFF"/>
</g>
<path d="M423.465 157.876C423.114 157.689 422.923 157.601 422.923 157.601C432.45 147.403 410.317 140.131 410.317 140.131C412.809 134.769 408.357 130.862 400.931 128.602L404.673 128.955C406.364 125.111 409.207 115.97 400.894 111.141C390.635 105.178 375.702 112.402 374.008 126.065L378.778 126.515C372.929 126.88 367.187 127.914 362.419 129.664C357.65 131.413 352.602 134.338 347.905 137.841L351.245 134.416C341.12 125.097 325.062 129.235 321.087 140.421C317.869 149.479 325.949 154.613 329.732 156.45L332.347 153.771C328.143 160.291 327.28 166.148 332.648 168.627C332.648 168.627 320.464 188.489 334.325 190.106C334.325 190.106 327.208 205.387 341.246 215.601C348.154 220.621 356.179 221.114 363.72 219.613C363.762 221.213 364.049 222.785 364.607 224.305C368.615 235.23 384.951 239.287 401.098 233.363C417.245 227.439 427.081 213.78 423.073 202.855C422.491 201.268 421.646 199.832 420.588 198.543C426.887 194.822 432.213 189.404 434.132 181.523C437.778 166.567 426.149 159.332 423.467 157.883L423.465 157.876Z" fill="#F8D4AE"/>
<path d="M341.879 142.815C337.278 147.033 333.422 151.61 331.147 155.779C327.651 153.108 322.315 147.807 325.977 142.401C329.86 136.659 337.984 140.484 341.879 142.815Z" fill="#FFF1E6"/>
<path d="M375.512 165.371C384.266 162.159 392.284 174.321 400.239 173.946C412.389 173.359 418.433 167.271 422.929 157.599C422.929 157.599 438.24 164.651 434.138 181.52C428.275 205.574 390.668 206.681 390.668 206.681C390.668 206.681 361.274 230.155 341.24 215.603C327.204 205.395 334.319 190.108 334.319 190.108C344.003 194.578 352.548 195.306 362.197 187.903C368.509 183.05 366.758 168.583 375.512 165.371Z" fill="#FFF1E6"/>
<path d="M356.901 207.594C362.879 204.234 365.003 196.678 361.646 190.718C358.289 184.758 350.722 182.65 344.744 186.011C338.766 189.371 336.641 196.927 339.999 202.887C343.356 208.847 350.923 210.955 356.901 207.594Z" fill="#FD9DB4"/>
<path d="M420.763 184.171C426.738 180.806 428.856 173.248 425.493 167.291C422.131 161.334 414.562 159.233 408.587 162.599C402.612 165.965 400.494 173.522 403.856 179.479C407.219 185.436 414.788 187.537 420.763 184.171Z" fill="#FD9DB4"/>
<path d="M425.283 157.141C426.733 155.041 427.185 152.875 426.624 150.688C425.077 144.629 416.051 140.619 412.298 139.199C412.982 136.61 412.342 134.171 410.395 132.06C406.917 128.29 399.143 125.718 389.059 125.004C379.373 124.323 369.211 125.522 361.867 128.216C358.75 129.359 355.424 131.04 352.095 133.107C346.902 128.44 339.778 126.662 332.966 128.349C326.617 129.923 321.626 134.242 319.611 139.911C318.046 144.307 318.72 148.528 321.55 152.109C323.611 154.722 326.404 156.509 328.544 157.607C327.821 159.378 327.409 161.034 327.344 162.529C327.225 165.399 328.315 167.673 330.51 169.205C328.572 172.714 324.275 181.612 327.013 187.234C327.999 189.264 329.746 190.624 332.209 191.288C331.657 192.996 330.967 195.758 330.952 199.022C330.93 204.035 332.53 211.195 340.314 216.857C352.079 225.403 366.741 221.515 376.972 216.751C377.75 216.39 378.087 215.469 377.725 214.688C377.364 213.912 376.44 213.571 375.658 213.94C366.188 218.356 352.68 222.006 342.145 214.35C336.786 210.452 334.06 205.334 334.058 199.147C334.056 194.425 335.702 190.797 335.718 190.764C335.932 190.314 335.91 189.785 335.662 189.354C335.42 188.92 334.982 188.627 334.487 188.575C332.083 188.296 330.553 187.413 329.806 185.886C327.656 181.471 332.072 172.523 333.955 169.446C334.188 169.065 334.248 168.61 334.121 168.189C333.995 167.768 333.688 167.42 333.287 167.23C331.256 166.298 330.357 164.841 330.447 162.663C330.627 158.383 334.651 151.991 341.224 145.579C347.871 139.084 355.982 133.688 362.932 131.139C369.882 128.589 379.564 127.457 388.834 128.112C397.997 128.758 405.197 131.024 408.105 134.178C409.585 135.787 409.838 137.475 408.893 139.499C408.708 139.897 408.699 140.361 408.876 140.77C409.052 141.173 409.394 141.487 409.81 141.624C413.236 142.752 422.385 146.724 423.6 151.482C424.021 153.135 423.422 154.792 421.771 156.566C421.43 156.932 421.289 157.431 421.385 157.918C421.481 158.405 421.804 158.816 422.254 159.029C422.273 159.042 422.439 159.119 422.713 159.266C424.011 159.965 427.315 161.984 429.898 165.567C433.133 170.044 434.041 175.3 432.608 181.181C431.325 186.457 428.27 191.001 423.537 194.69C419.705 197.677 414.78 200.11 408.894 201.932C408.074 202.178 407.617 203.054 407.867 203.869C408.118 204.685 408.989 205.142 409.807 204.89C410.884 204.557 411.934 204.206 412.948 203.834C425.42 199.258 433.236 191.723 435.627 181.916C439.164 167.413 429.222 159.628 425.274 157.171L425.283 157.141ZM339.062 143.347C335.022 147.291 331.906 151.218 329.909 154.81C320.88 150.19 321.405 144.161 322.547 140.944C324.214 136.263 328.385 132.677 333.719 131.359C339.254 129.988 345.037 131.304 349.402 134.879C345.801 137.348 342.266 140.226 339.064 143.353L339.062 143.347Z" fill="#D3A98C"/>
<path d="M402.353 167.163C401.814 164.362 399.102 162.532 396.296 163.074C393.489 163.616 391.65 166.326 392.188 169.126C392.726 171.926 395.438 173.757 398.245 173.215C401.052 172.673 402.891 169.963 402.353 167.163Z" fill="#5F5C5D"/>
<path d="M365.794 180.582C365.254 177.782 362.542 175.953 359.735 176.496C356.928 177.039 355.09 179.749 355.629 182.549C356.169 185.349 358.881 187.179 361.688 186.636C364.495 186.093 366.333 183.383 365.794 180.582Z" fill="#5F5C5D"/>
<path d="M388.991 182.252C389.52 183.694 389.706 185.159 389.586 186.522C389.355 189.295 387.872 191.64 385.515 192.505C383.158 193.37 380.51 192.54 378.529 190.579C377.556 189.616 376.756 188.376 376.227 186.934C374.625 182.566 376.182 177.98 379.711 176.685C383.241 175.39 387.394 177.881 388.997 182.25L388.991 182.252Z" fill="#5F5C5D"/>
<path d="M389.586 186.523C389.355 189.295 387.872 191.641 385.515 192.505C383.158 193.37 380.51 192.54 378.529 190.579C378.766 187.805 380.243 185.462 382.612 184.592C384.981 183.723 387.617 184.557 389.586 186.523Z" fill="#E27FA3"/>
<path d="M386.045 193.968C381.72 195.554 376.659 192.64 374.766 187.478C374.241 186.048 374 184.583 374.049 183.121L377.157 183.211C377.12 184.277 377.301 185.352 377.688 186.406C378.995 189.968 382.269 192.053 384.984 191.057C387.7 190.061 388.848 186.353 387.541 182.791C387.208 181.882 386.746 181.055 386.158 180.335L388.577 178.382C389.374 179.369 390.006 180.491 390.457 181.721C392.351 186.883 390.376 192.378 386.051 193.965L386.045 193.968Z" fill="#F8D4AE"/>
<path d="M388.571 178.385C386.455 175.772 383.489 174.489 380.684 174.865L378.848 169.936L375.936 171.018L377.768 175.935C375.536 177.365 374.146 179.985 374.047 183.115C374.023 183.97 374.693 184.686 375.549 184.709C376.405 184.732 377.124 184.062 377.148 183.208C377.226 180.753 378.41 178.813 380.239 178.142C382.177 177.431 384.498 178.291 386.152 180.338C386.581 180.868 387.286 181.042 387.893 180.82C388.051 180.762 388.2 180.679 388.332 180.569C389.002 180.028 389.107 179.055 388.565 178.387L388.571 178.385Z" fill="#D3A98C"/>
<path d="M379.861 167.983C378.811 167.488 377.558 167.941 377.06 168.99L376.941 169.247L376.684 169.128C375.634 168.633 374.38 169.086 373.882 170.135C373.385 171.184 373.837 172.434 374.887 172.929L375.787 173.354C377.528 174.173 379.61 173.423 380.434 171.684L380.862 170.785C381.359 169.736 380.907 168.486 379.857 167.991L379.861 167.983Z" fill="#E27FA3"/>
<path d="M392.698 240.683C380.425 226.15 355.844 202.906 349.853 213.574C343.864 224.247 382.444 258.613 382.444 258.613L392.698 240.683Z" fill="#F8D4AE"/>
<path d="M382.874 260.105C382.381 260.245 381.825 260.139 381.416 259.774C381.321 259.685 371.603 251.007 362.748 241.132C350.277 227.222 345.617 217.96 348.501 212.819C349.651 210.768 351.48 209.574 353.789 209.346C358.409 208.902 365.19 212.374 373.931 219.665C380.385 225.044 387.845 232.53 393.88 239.678C394.431 240.336 394.347 241.308 393.69 241.866C393.031 242.417 392.056 242.334 391.499 241.68C385.572 234.656 378.255 227.318 371.929 222.042C364.074 215.492 357.728 212.08 354.073 212.431C352.769 212.559 351.859 213.161 351.197 214.325C348.308 219.469 359.912 233.325 365.035 239.042C373.775 248.794 383.374 257.371 383.466 257.454C384.103 258.025 384.158 259.002 383.587 259.644C383.381 259.871 383.128 260.026 382.854 260.106L382.874 260.105Z" fill="#D3A98C"/>
<path d="M411.314 234.368C410.845 215.354 413.802 181.65 425.363 185.657C436.924 189.665 430.888 240.977 430.888 240.977L411.32 234.366L411.314 234.368Z" fill="#F8D4AE"/>
<path d="M431.559 242.374C431.3 242.496 431.011 242.554 430.701 242.516C429.851 242.416 429.239 241.65 429.339 240.796C429.354 240.667 430.838 227.879 430.904 214.793C430.94 207.115 430.421 189.054 424.847 187.125C423.584 186.688 422.495 186.84 421.441 187.612C418.471 189.774 415.997 196.538 414.47 206.654C413.239 214.798 412.642 225.137 412.87 234.326C412.895 235.183 412.212 235.895 411.359 235.919C410.498 235.939 409.789 235.264 409.766 234.413C409.533 225.06 410.149 214.509 411.401 206.199C413.102 194.94 415.869 187.848 419.621 185.11C421.496 183.742 423.663 183.428 425.881 184.195C431.449 186.126 434.11 196.142 434.017 214.826C433.955 228.089 432.451 241.029 432.428 241.154C432.366 241.699 432.021 242.149 431.559 242.374Z" fill="#D3A98C"/>
<path d="M54.0879 82.4963C53.6475 83.9725 52.8363 85.104 52.1158 86.1092C51.9882 86.288 51.864 86.4613 51.7462 86.6303C51.5836 86.5027 51.419 86.3731 51.248 86.2401C49.8274 85.1258 48.2172 83.8644 46.9864 82.1202L46.0781 80.8339L46.1947 82.4037C46.573 87.5025 46.4532 90.5498 46.0954 95.6139C42.9098 95.6095 39.2107 93.4661 36.6617 91.3337C37.2394 89.9229 37.7137 89.0584 38.6001 87.8199L41.1741 90.5367L41.2777 89.6035C41.5905 86.7841 41.6026 71.8876 41.4228 66.3546C45.2669 66.3152 49.3291 66.8474 53.8186 67.9768C53.9724 69.0289 53.6648 70.4821 53.4359 71.5658C53.4228 71.6268 53.4109 71.6867 53.3978 71.7456C50.5851 71.6006 48.845 71.1939 45.9287 70.3196L44.9834 70.0361L45.4097 70.9258C46.8444 73.9206 52.1647 80.4936 54.0877 82.4963H54.0879Z" fill="white"/>
<path d="M40.1733 66.3972C39.9878 75.1516 38.2369 79.4373 32.2975 85.6733C30.95 84.1678 30.3689 83.203 29.6865 81.742C32.9943 77.8467 34.3722 75.4122 35.7568 71.06L36.0763 70.0548L35.1398 70.541C33.8249 71.2234 33.003 71.4502 31.6555 71.6987C31.3098 70.3293 31.2259 69.4203 31.3067 67.9691C34.8509 67.1035 37.6224 66.6117 40.1735 66.397L40.1733 66.3972Z" fill="white"/>
<path d="M60.8181 90.2156C60.3443 90.2156 59.9392 90.0475 59.603 89.7112C59.2667 89.3597 59.0986 88.947 59.0986 88.4732V79.6694C59.0986 79.1956 59.2667 78.7905 59.603 78.4543C59.9392 78.118 60.3443 77.9499 60.8181 77.9499C61.2919 77.9499 61.6969 78.118 62.0332 78.4543C62.3695 78.7905 62.5376 79.1956 62.5376 79.6694V88.4732C62.5376 88.947 62.3695 89.3597 62.0332 89.7112C61.6969 90.0475 61.2919 90.2156 60.8181 90.2156ZM60.7952 76.8724C60.2755 76.8724 59.8475 76.7042 59.5113 76.368C59.175 76.0317 59.0069 75.5579 59.0069 74.9465C59.0069 74.3351 59.175 73.8613 59.5113 73.5251C59.8475 73.1888 60.2755 73.0207 60.7952 73.0207C61.3454 73.0207 61.7886 73.1888 62.1249 73.5251C62.4612 73.8613 62.6293 74.3351 62.6293 74.9465C62.6293 75.5579 62.4612 76.0317 62.1249 76.368C61.7886 76.7042 61.3454 76.8724 60.7952 76.8724ZM66.9633 89.9863C66.4436 89.9863 66.0157 89.8335 65.6794 89.5278C65.3432 89.2068 65.1445 88.8171 65.0833 88.3585C65.0222 87.9 65.1445 87.4644 65.4501 87.0517L70.494 80.3343L72.6262 81.3889H66.8487C66.3748 81.3889 65.9698 81.236 65.6336 80.9303C65.2973 80.6094 65.1292 80.2273 65.1292 79.784C65.1292 79.3408 65.2973 78.9663 65.6336 78.6606C65.9698 78.3396 66.3748 78.1792 66.8487 78.1792H72.6262C73.1611 78.1792 73.5891 78.3396 73.91 78.6606C74.2463 78.9816 74.445 79.3713 74.5061 79.8299C74.5673 80.2884 74.4373 80.7317 74.1164 81.1596L69.1872 87.7395L66.9633 86.7766H73.2452C73.719 86.7766 74.124 86.9371 74.4603 87.2581C74.7965 87.5638 74.9647 87.9382 74.9647 88.3815C74.9647 88.8094 74.7965 89.1839 74.4603 89.5049C74.124 89.8258 73.719 89.9863 73.2452 89.9863H66.9633ZM81.6528 90.2156C80.6898 90.2156 79.8874 90.0322 79.2455 89.6654C78.6188 89.2985 78.145 88.7712 77.824 88.0834C77.5183 87.3956 77.3655 86.5779 77.3655 85.6303V79.5548C77.3655 79.0809 77.5336 78.6759 77.8699 78.3396C78.2061 78.0034 78.6112 77.8353 79.085 77.8353C79.5588 77.8353 79.9638 78.0034 80.3001 78.3396C80.6363 78.6759 80.8045 79.0809 80.8045 79.5548V84.9654C80.8045 85.7602 80.9879 86.2952 81.3547 86.5703C81.7368 86.8454 82.2259 86.983 82.822 86.983C83.3264 86.983 83.7391 86.8683 84.06 86.6391C84.3963 86.4098 84.6408 86.1194 84.7937 85.7678C84.9618 85.401 85.0459 85.0113 85.0459 84.5986V79.5548C85.0459 79.0809 85.214 78.6759 85.5503 78.3396C85.8865 78.0034 86.2916 77.8353 86.7654 77.8353C87.2545 77.8353 87.6595 78.0034 87.9805 78.3396C88.3167 78.6759 88.4849 79.0809 88.4849 79.5548V88.4732C88.4849 88.947 88.3167 89.352 87.9805 89.6883C87.6595 90.0245 87.2545 90.1927 86.7654 90.1927C86.2916 90.1927 85.8865 90.0245 85.5503 89.6883C85.214 89.352 85.0459 88.947 85.0459 88.4732V87.0288L85.7337 87.281C85.2446 88.2592 84.6791 88.9928 84.0371 89.4819C83.3952 89.971 82.6004 90.2156 81.6528 90.2156ZM93.7148 90.2156C93.2257 90.2156 92.8054 90.0398 92.4538 89.6883C92.1023 89.3367 91.9265 88.9164 91.9265 88.4273V75.726C91.9265 75.2369 92.1023 74.8166 92.4538 74.4651C92.8054 74.1135 93.2257 73.9378 93.7148 73.9378H95.5031V88.4273C95.5031 88.9164 95.3273 89.3367 94.9758 89.6883C94.6242 90.0398 94.2039 90.2156 93.7148 90.2156ZM94.8153 84.1401V80.9303H98.3001C98.6516 80.9303 98.9573 80.8539 99.2172 80.7011C99.4923 80.5482 99.7063 80.3343 99.8591 80.0591C100.012 79.784 100.088 79.4707 100.088 79.1192C100.088 78.7065 100.012 78.3549 99.8591 78.0645C99.7063 77.7588 99.477 77.5296 99.1713 77.3767C98.8809 77.2239 98.5294 77.1475 98.1167 77.1475H94.8153V73.9378H98.4377C99.4617 73.9378 100.371 74.1517 101.166 74.5797C101.961 75.0077 102.587 75.6037 103.046 76.368C103.52 77.1322 103.757 78.0263 103.757 79.0504C103.757 80.0744 103.527 80.9686 103.069 81.7328C102.61 82.497 101.999 83.0931 101.235 83.521C100.47 83.9337 99.6298 84.1401 98.7128 84.1401H94.8153ZM108.859 90.3302C108.202 90.3302 107.56 90.2003 106.933 89.9405C106.322 89.6806 105.81 89.2909 105.397 88.7712C105 88.2363 104.801 87.5638 104.801 86.7537C104.801 85.5768 105.16 84.6827 105.879 84.0713C106.612 83.4446 107.805 83.0014 109.455 82.7415C109.914 82.6651 110.342 82.5963 110.739 82.5352C111.137 82.4741 111.458 82.3824 111.702 82.2601C111.947 82.1225 112.069 81.9162 112.069 81.6411C112.069 81.4271 112.008 81.2513 111.886 81.1138C111.779 80.9609 111.618 80.8539 111.404 80.7928C111.205 80.7164 110.961 80.6782 110.67 80.6782C110.288 80.6782 109.96 80.7469 109.685 80.8845C109.425 81.0221 109.18 81.2055 108.951 81.4347C108.737 81.6487 108.485 81.8245 108.194 81.962C107.919 82.0996 107.606 82.1684 107.254 82.1684C106.781 82.1684 106.398 82.0461 106.108 81.8016C105.818 81.557 105.672 81.2207 105.672 80.7928C105.672 80.3801 105.802 79.998 106.062 79.6465C106.322 79.2949 106.674 78.9892 107.117 78.7294C107.56 78.4543 108.08 78.2403 108.676 78.0875C109.272 77.9346 109.899 77.8582 110.556 77.8582C111.595 77.8582 112.482 78.0492 113.215 78.4314C113.949 78.7982 114.507 79.3178 114.889 79.9904C115.286 80.6629 115.485 81.45 115.485 82.3518V86.5015C115.485 86.7002 115.508 86.8378 115.554 86.9142C115.6 86.9753 115.699 87.0364 115.852 87.0976C116.112 87.2046 116.356 87.3803 116.585 87.6249C116.83 87.8542 116.952 88.1751 116.952 88.5878C116.952 89.0463 116.784 89.4361 116.448 89.7571C116.112 90.078 115.63 90.2309 115.004 90.2156C114.316 90.2003 113.781 90.0398 113.399 89.7341C113.032 89.4132 112.787 89.0005 112.665 88.4961L112.642 88.4044H112.573C112.145 89.0463 111.656 89.5278 111.106 89.8488C110.571 90.1697 109.822 90.3302 108.859 90.3302ZM109.753 87.4415C110.166 87.4415 110.548 87.3574 110.9 87.1893C111.251 87.0212 111.534 86.7766 111.748 86.4556C111.962 86.1194 112.069 85.722 112.069 85.2635V84.6903C112.069 84.6444 112.054 84.6215 112.023 84.6215C112.008 84.6215 111.97 84.6368 111.908 84.6674C111.74 84.7591 111.549 84.8355 111.335 84.8966C111.121 84.9425 110.892 84.9807 110.647 85.0113C110.403 85.0418 110.128 85.0953 109.822 85.1718C109.165 85.3246 108.737 85.508 108.538 85.722C108.355 85.9207 108.263 86.15 108.263 86.4098C108.263 86.7613 108.385 87.0212 108.63 87.1893C108.89 87.3574 109.264 87.4415 109.753 87.4415ZM123.414 90.399C122.39 90.399 121.496 90.2462 120.732 89.9405C119.967 89.6348 119.371 89.2527 118.943 88.7941C118.531 88.3356 118.324 87.8924 118.324 87.4644C118.324 87.1129 118.462 86.769 118.737 86.4327C119.012 86.0965 119.425 85.9283 119.975 85.9283C120.357 85.9283 120.67 86.0048 120.915 86.1576C121.16 86.2952 121.335 86.4174 121.442 86.5244C121.886 86.9065 122.291 87.174 122.657 87.3269C123.024 87.4644 123.376 87.5332 123.712 87.5332C124.109 87.5332 124.385 87.4644 124.537 87.3269C124.706 87.174 124.79 86.9982 124.79 86.7995C124.79 86.6161 124.713 86.448 124.56 86.2952C124.407 86.1423 124.178 85.9971 123.873 85.8596C123.567 85.7067 123.185 85.5539 122.726 85.401C122.191 85.2176 121.679 85.0266 121.19 84.8279C120.716 84.6139 120.296 84.3617 119.929 84.0713C119.562 83.7809 119.272 83.4293 119.058 83.0167C118.859 82.604 118.76 82.0996 118.76 81.5035C118.76 80.7851 118.951 80.1508 119.333 79.6006C119.73 79.0351 120.265 78.5918 120.938 78.2709C121.626 77.9499 122.405 77.7894 123.276 77.7894C124.102 77.7894 124.835 77.927 125.477 78.2021C126.135 78.4772 126.647 78.8364 127.013 79.2796C127.396 79.7076 127.587 80.1814 127.587 80.7011C127.587 81.0832 127.472 81.4118 127.243 81.6869C127.029 81.962 126.685 82.0996 126.211 82.0996C125.814 82.0996 125.485 82.0155 125.225 81.8474C124.965 81.664 124.759 81.5035 124.606 81.366C124.499 81.259 124.377 81.152 124.239 81.045C124.117 80.938 123.964 80.8463 123.781 80.7699C123.613 80.6934 123.399 80.6552 123.139 80.6552C122.772 80.6552 122.52 80.724 122.382 80.8616C122.26 80.9991 122.199 81.152 122.199 81.3201C122.199 81.5494 122.291 81.7404 122.474 81.8933C122.657 82.0308 122.955 82.176 123.368 82.3289C123.781 82.4817 124.331 82.688 125.019 82.9479C125.569 83.1466 126.043 83.3682 126.44 83.6128C126.853 83.842 127.189 84.1019 127.449 84.3923C127.724 84.6674 127.923 84.9807 128.045 85.3322C128.183 85.6685 128.251 86.0582 128.251 86.5015C128.251 87.2963 128.053 87.9917 127.655 88.5878C127.258 89.1686 126.692 89.6195 125.959 89.9405C125.24 90.2462 124.392 90.399 123.414 90.399ZM135.168 90.399C134.144 90.399 133.25 90.2462 132.486 89.9405C131.722 89.6348 131.126 89.2527 130.698 88.7941C130.285 88.3356 130.079 87.8924 130.079 87.4644C130.079 87.1129 130.216 86.769 130.491 86.4327C130.766 86.0965 131.179 85.9283 131.729 85.9283C132.111 85.9283 132.425 86.0048 132.669 86.1576C132.914 86.2952 133.09 86.4174 133.197 86.5244C133.64 86.9065 134.045 87.174 134.412 87.3269C134.779 87.4644 135.13 87.5332 135.466 87.5332C135.864 87.5332 136.139 87.4644 136.292 87.3269C136.46 87.174 136.544 86.9982 136.544 86.7995C136.544 86.6161 136.467 86.448 136.315 86.2952C136.162 86.1423 135.933 85.9971 135.627 85.8596C135.321 85.7067 134.939 85.5539 134.481 85.401C133.946 85.2176 133.434 85.0266 132.944 84.8279C132.471 84.6139 132.05 84.3617 131.683 84.0713C131.317 83.7809 131.026 83.4293 130.812 83.0167C130.614 82.604 130.514 82.0996 130.514 81.5035C130.514 80.7851 130.705 80.1508 131.087 79.6006C131.485 79.0351 132.02 78.5918 132.692 78.2709C133.38 77.9499 134.16 77.7894 135.031 77.7894C135.856 77.7894 136.59 77.927 137.232 78.2021C137.889 78.4772 138.401 78.8364 138.768 79.2796C139.15 79.7076 139.341 80.1814 139.341 80.7011C139.341 81.0832 139.226 81.4118 138.997 81.6869C138.783 81.962 138.439 82.0996 137.965 82.0996C137.568 82.0996 137.239 82.0155 136.979 81.8474C136.72 81.664 136.513 81.5035 136.36 81.366C136.253 81.259 136.131 81.152 135.994 81.045C135.871 80.938 135.719 80.8463 135.535 80.7699C135.367 80.6934 135.153 80.6552 134.893 80.6552C134.526 80.6552 134.274 80.724 134.137 80.8616C134.014 80.9991 133.953 81.152 133.953 81.3201C133.953 81.5494 134.045 81.7404 134.228 81.8933C134.412 82.0308 134.71 82.176 135.122 82.3289C135.535 82.4817 136.085 82.688 136.773 82.9479C137.323 83.1466 137.797 83.3682 138.195 83.6128C138.607 83.842 138.944 84.1019 139.203 84.3923C139.478 84.6674 139.677 84.9807 139.799 85.3322C139.937 85.6685 140.006 86.0582 140.006 86.5015C140.006 87.2963 139.807 87.9917 139.41 88.5878C139.012 89.1686 138.447 89.6195 137.713 89.9405C136.995 90.2462 136.146 90.399 135.168 90.399Z" fill="white"/>
</g>
<defs>
<filter id="filter0_f_1147_3109" x="-5.3" y="117.7" width="120.6" height="32.6" filterUnits="userSpaceOnUse" color-interpolation-filters="sRGB">
<feFlood flood-opacity="0" result="BackgroundImageFix"/>
<feBlend mode="normal" in="SourceGraphic" in2="BackgroundImageFix" result="shape"/>
<feGaussianBlur stdDeviation="2.65" result="effect1_foregroundBlur_1147_3109"/>
</filter>
<filter id="filter1_f_1147_3109" x="360.8" y="40.8" width="107.4" height="31.4" filterUnits="userSpaceOnUse" color-interpolation-filters="sRGB">
<feFlood flood-opacity="0" result="BackgroundImageFix"/>
<feBlend mode="normal" in="SourceGraphic" in2="BackgroundImageFix" result="shape"/>
<feGaussianBlur stdDeviation="0.6" result="effect1_foregroundBlur_1147_3109"/>
</filter>
<filter id="filter2_f_1147_3109" x="164.4" y="130.4" width="130.2" height="44.2" filterUnits="userSpaceOnUse" color-interpolation-filters="sRGB">
<feFlood flood-opacity="0" result="BackgroundImageFix"/>
<feBlend mode="normal" in="SourceGraphic" in2="BackgroundImageFix" result="shape"/>
<feGaussianBlur stdDeviation="2.8" result="effect1_foregroundBlur_1147_3109"/>
</filter>
<filter id="filter3_d_1147_3109" x="174" y="161.546" width="97.671" height="76.4656" filterUnits="userSpaceOnUse" color-interpolation-filters="sRGB">
<feFlood flood-opacity="0" result="BackgroundImageFix"/>
<feColorMatrix in="SourceAlpha" type="matrix" values="0 0 0 0 0 0 0 0 0 0 0 0 0 0 0 0 0 0 127 0" result="hardAlpha"/>
<feOffset dx="-10" dy="4"/>
<feGaussianBlur stdDeviation="2"/>
<feComposite in2="hardAlpha" operator="out"/>
<feColorMatrix type="matrix" values="0 0 0 0 0 0 0 0 0 0 0 0 0 0 0 0 0 0 0.13 0"/>
<feBlend mode="normal" in2="BackgroundImageFix" result="effect1_dropShadow_1147_3109"/>
<feBlend mode="normal" in="SourceGraphic" in2="effect1_dropShadow_1147_3109" result="shape"/>
</filter>
<linearGradient id="paint0_linear_1147_3109" x1="215" y1="0" x2="215" y2="272" gradientUnits="userSpaceOnUse">
<stop stop-color="#53C3F1"/>
<stop offset="1" stop-color="white"/>
</linearGradient>
<clipPath id="clip0_1147_3109">
<rect width="430" height="357" fill="white"/>
</clipPath>
<clipPath id="clip1_1147_3109">
<rect width="87" height="131.285" fill="white" transform="translate(0 95.2996)"/>
</clipPath>
</defs>
</svg>
