<svg width="400" height="214" viewBox="0 0 400 214" fill="none" xmlns="http://www.w3.org/2000/svg">
<g clip-path="url(#clip0_1191_343)">
<rect width="400" height="214" fill="url(#paint0_linear_1191_343)"/>
<path d="M170.088 53.4963C169.648 54.9725 168.836 56.104 168.116 57.1092C167.988 57.288 167.864 57.4613 167.746 57.6303C167.584 57.5027 167.419 57.3731 167.248 57.2401C165.827 56.1258 164.217 54.8644 162.986 53.1202L162.078 51.8339L162.195 53.4037C162.573 58.5025 162.453 61.5498 162.095 66.6139C158.91 66.6095 155.211 64.4661 152.662 62.3337C153.239 60.9229 153.714 60.0584 154.6 58.8199L157.174 61.5367L157.278 60.6035C157.591 57.7841 157.603 42.8876 157.423 37.3546C161.267 37.3152 165.329 37.8474 169.819 38.9768C169.972 40.0289 169.665 41.4821 169.436 42.5658C169.423 42.6268 169.411 42.6867 169.398 42.7456C166.585 42.6006 164.845 42.1939 161.929 41.3196L160.983 41.0361L161.41 41.9258C162.844 44.9206 168.165 51.4936 170.088 53.4963H170.088Z" fill="white"/>
<path d="M156.173 37.3972C155.988 46.1516 154.237 50.4373 148.298 56.6733C146.95 55.1678 146.369 54.203 145.686 52.742C148.994 48.8467 150.372 46.4122 151.757 42.06L152.076 41.0548L151.14 41.541C149.825 42.2234 149.003 42.4502 147.655 42.6987C147.31 41.3293 147.226 40.4203 147.307 38.9691C150.851 38.1035 153.622 37.6117 156.173 37.397L156.173 37.3972Z" fill="white"/>
<path d="M176.818 60.2156C176.344 60.2156 175.939 60.0475 175.603 59.7112C175.267 59.3597 175.099 58.947 175.099 58.4732V49.6694C175.099 49.1956 175.267 48.7905 175.603 48.4543C175.939 48.118 176.344 47.9499 176.818 47.9499C177.292 47.9499 177.697 48.118 178.033 48.4543C178.369 48.7905 178.538 49.1956 178.538 49.6694V58.4732C178.538 58.947 178.369 59.3597 178.033 59.7112C177.697 60.0475 177.292 60.2156 176.818 60.2156ZM176.795 46.8724C176.275 46.8724 175.848 46.7042 175.511 46.368C175.175 46.0317 175.007 45.5579 175.007 44.9465C175.007 44.3351 175.175 43.8613 175.511 43.5251C175.848 43.1888 176.275 43.0207 176.795 43.0207C177.345 43.0207 177.789 43.1888 178.125 43.5251C178.461 43.8613 178.629 44.3351 178.629 44.9465C178.629 45.5579 178.461 46.0317 178.125 46.368C177.789 46.7042 177.345 46.8724 176.795 46.8724ZM182.963 59.9863C182.444 59.9863 182.016 59.8335 181.679 59.5278C181.343 59.2068 181.144 58.8171 181.083 58.3585C181.022 57.9 181.144 57.4644 181.45 57.0517L186.494 50.3343L188.626 51.3889H182.849C182.375 51.3889 181.97 51.236 181.634 50.9303C181.297 50.6094 181.129 50.2273 181.129 49.784C181.129 49.3408 181.297 48.9663 181.634 48.6606C181.97 48.3396 182.375 48.1792 182.849 48.1792H188.626C189.161 48.1792 189.589 48.3396 189.91 48.6606C190.246 48.9816 190.445 49.3713 190.506 49.8299C190.567 50.2884 190.437 50.7317 190.116 51.1596L185.187 57.7395L182.963 56.7766H189.245C189.719 56.7766 190.124 56.9371 190.46 57.2581C190.797 57.5638 190.965 57.9382 190.965 58.3815C190.965 58.8094 190.797 59.1839 190.46 59.5049C190.124 59.8258 189.719 59.9863 189.245 59.9863H182.963ZM197.653 60.2156C196.69 60.2156 195.887 60.0322 195.245 59.6654C194.619 59.2985 194.145 58.7712 193.824 58.0834C193.518 57.3956 193.365 56.5779 193.365 55.6303V49.5548C193.365 49.0809 193.534 48.6759 193.87 48.3396C194.206 48.0034 194.611 47.8353 195.085 47.8353C195.559 47.8353 195.964 48.0034 196.3 48.3396C196.636 48.6759 196.804 49.0809 196.804 49.5548V54.9654C196.804 55.7602 196.988 56.2952 197.355 56.5703C197.737 56.8454 198.226 56.983 198.822 56.983C199.326 56.983 199.739 56.8683 200.06 56.6391C200.396 56.4098 200.641 56.1194 200.794 55.7678C200.962 55.401 201.046 55.0113 201.046 54.5986V49.5548C201.046 49.0809 201.214 48.6759 201.55 48.3396C201.887 48.0034 202.292 47.8353 202.765 47.8353C203.254 47.8353 203.66 48.0034 203.98 48.3396C204.317 48.6759 204.485 49.0809 204.485 49.5548V58.4732C204.485 58.947 204.317 59.352 203.98 59.6883C203.66 60.0245 203.254 60.1927 202.765 60.1927C202.292 60.1927 201.887 60.0245 201.55 59.6883C201.214 59.352 201.046 58.947 201.046 58.4732V57.0288L201.734 57.281C201.245 58.2592 200.679 58.9928 200.037 59.4819C199.395 59.971 198.6 60.2156 197.653 60.2156ZM209.715 60.2156C209.226 60.2156 208.805 60.0398 208.454 59.6883C208.102 59.3367 207.927 58.9164 207.927 58.4273V45.726C207.927 45.2369 208.102 44.8166 208.454 44.4651C208.805 44.1135 209.226 43.9378 209.715 43.9378H211.503V58.4273C211.503 58.9164 211.327 59.3367 210.976 59.6883C210.624 60.0398 210.204 60.2156 209.715 60.2156ZM210.815 54.1401V50.9303H214.3C214.652 50.9303 214.957 50.8539 215.217 50.7011C215.492 50.5482 215.706 50.3343 215.859 50.0591C216.012 49.784 216.088 49.4707 216.088 49.1192C216.088 48.7065 216.012 48.3549 215.859 48.0645C215.706 47.7588 215.477 47.5296 215.171 47.3767C214.881 47.2239 214.529 47.1475 214.117 47.1475H210.815V43.9378H214.438C215.462 43.9378 216.371 44.1517 217.166 44.5797C217.961 45.0077 218.587 45.6037 219.046 46.368C219.52 47.1322 219.757 48.0263 219.757 49.0504C219.757 50.0744 219.527 50.9686 219.069 51.7328C218.61 52.497 217.999 53.0931 217.235 53.521C216.47 53.9337 215.63 54.1401 214.713 54.1401H210.815ZM224.859 60.3302C224.202 60.3302 223.56 60.2003 222.933 59.9405C222.322 59.6806 221.81 59.2909 221.397 58.7712C221 58.2363 220.801 57.5638 220.801 56.7537C220.801 55.5768 221.16 54.6827 221.879 54.0713C222.612 53.4446 223.805 53.0014 225.455 52.7415C225.914 52.6651 226.342 52.5963 226.739 52.5352C227.137 52.4741 227.458 52.3824 227.702 52.2601C227.947 52.1225 228.069 51.9162 228.069 51.6411C228.069 51.4271 228.008 51.2513 227.886 51.1138C227.779 50.9609 227.618 50.8539 227.404 50.7928C227.205 50.7164 226.961 50.6782 226.67 50.6782C226.288 50.6782 225.96 50.7469 225.685 50.8845C225.425 51.0221 225.18 51.2055 224.951 51.4347C224.737 51.6487 224.485 51.8245 224.194 51.962C223.919 52.0996 223.606 52.1684 223.254 52.1684C222.781 52.1684 222.398 52.0461 222.108 51.8016C221.818 51.557 221.672 51.2207 221.672 50.7928C221.672 50.3801 221.802 49.998 222.062 49.6465C222.322 49.2949 222.674 48.9892 223.117 48.7294C223.56 48.4543 224.08 48.2403 224.676 48.0875C225.272 47.9346 225.899 47.8582 226.556 47.8582C227.595 47.8582 228.482 48.0492 229.215 48.4314C229.949 48.7982 230.507 49.3178 230.889 49.9904C231.286 50.6629 231.485 51.45 231.485 52.3518V56.5015C231.485 56.7002 231.508 56.8378 231.554 56.9142C231.6 56.9753 231.699 57.0364 231.852 57.0976C232.112 57.2046 232.356 57.3803 232.585 57.6249C232.83 57.8542 232.952 58.1751 232.952 58.5878C232.952 59.0463 232.784 59.4361 232.448 59.7571C232.112 60.078 231.63 60.2309 231.004 60.2156C230.316 60.2003 229.781 60.0398 229.399 59.7341C229.032 59.4132 228.787 59.0005 228.665 58.4961L228.642 58.4044H228.573C228.145 59.0463 227.656 59.5278 227.106 59.8488C226.571 60.1697 225.822 60.3302 224.859 60.3302ZM225.753 57.4415C226.166 57.4415 226.548 57.3574 226.9 57.1893C227.251 57.0212 227.534 56.7766 227.748 56.4556C227.962 56.1194 228.069 55.722 228.069 55.2635V54.6903C228.069 54.6444 228.054 54.6215 228.023 54.6215C228.008 54.6215 227.97 54.6368 227.908 54.6674C227.74 54.7591 227.549 54.8355 227.335 54.8966C227.121 54.9425 226.892 54.9807 226.647 55.0113C226.403 55.0418 226.128 55.0953 225.822 55.1718C225.165 55.3246 224.737 55.508 224.538 55.722C224.355 55.9207 224.263 56.15 224.263 56.4098C224.263 56.7613 224.385 57.0212 224.63 57.1893C224.89 57.3574 225.264 57.4415 225.753 57.4415ZM239.414 60.399C238.39 60.399 237.496 60.2462 236.732 59.9405C235.967 59.6348 235.371 59.2527 234.943 58.7941C234.531 58.3356 234.324 57.8924 234.324 57.4644C234.324 57.1129 234.462 56.769 234.737 56.4327C235.012 56.0965 235.425 55.9283 235.975 55.9283C236.357 55.9283 236.67 56.0048 236.915 56.1576C237.16 56.2952 237.335 56.4174 237.442 56.5244C237.886 56.9065 238.291 57.174 238.657 57.3269C239.024 57.4644 239.376 57.5332 239.712 57.5332C240.109 57.5332 240.385 57.4644 240.537 57.3269C240.706 57.174 240.79 56.9982 240.79 56.7995C240.79 56.6161 240.713 56.448 240.56 56.2952C240.407 56.1423 240.178 55.9971 239.873 55.8596C239.567 55.7067 239.185 55.5539 238.726 55.401C238.191 55.2176 237.679 55.0266 237.19 54.8279C236.716 54.6139 236.296 54.3617 235.929 54.0713C235.562 53.7809 235.272 53.4293 235.058 53.0167C234.859 52.604 234.76 52.0996 234.76 51.5035C234.76 50.7851 234.951 50.1508 235.333 49.6006C235.73 49.0351 236.265 48.5918 236.938 48.2709C237.626 47.9499 238.405 47.7894 239.276 47.7894C240.102 47.7894 240.835 47.927 241.477 48.2021C242.135 48.4772 242.647 48.8364 243.013 49.2796C243.396 49.7076 243.587 50.1814 243.587 50.7011C243.587 51.0832 243.472 51.4118 243.243 51.6869C243.029 51.962 242.685 52.0996 242.211 52.0996C241.814 52.0996 241.485 52.0155 241.225 51.8474C240.965 51.664 240.759 51.5035 240.606 51.366C240.499 51.259 240.377 51.152 240.239 51.045C240.117 50.938 239.964 50.8463 239.781 50.7699C239.613 50.6934 239.399 50.6552 239.139 50.6552C238.772 50.6552 238.52 50.724 238.382 50.8616C238.26 50.9991 238.199 51.152 238.199 51.3201C238.199 51.5494 238.291 51.7404 238.474 51.8933C238.657 52.0308 238.955 52.176 239.368 52.3289C239.781 52.4817 240.331 52.688 241.019 52.9479C241.569 53.1466 242.043 53.3682 242.44 53.6128C242.853 53.842 243.189 54.1019 243.449 54.3923C243.724 54.6674 243.923 54.9807 244.045 55.3322C244.183 55.6685 244.251 56.0582 244.251 56.5015C244.251 57.2963 244.053 57.9917 243.655 58.5878C243.258 59.1686 242.692 59.6195 241.959 59.9405C241.24 60.2462 240.392 60.399 239.414 60.399ZM251.168 60.399C250.144 60.399 249.25 60.2462 248.486 59.9405C247.722 59.6348 247.126 59.2527 246.698 58.7941C246.285 58.3356 246.079 57.8924 246.079 57.4644C246.079 57.1129 246.216 56.769 246.491 56.4327C246.766 56.0965 247.179 55.9283 247.729 55.9283C248.111 55.9283 248.425 56.0048 248.669 56.1576C248.914 56.2952 249.09 56.4174 249.197 56.5244C249.64 56.9065 250.045 57.174 250.412 57.3269C250.779 57.4644 251.13 57.5332 251.466 57.5332C251.864 57.5332 252.139 57.4644 252.292 57.3269C252.46 57.174 252.544 56.9982 252.544 56.7995C252.544 56.6161 252.467 56.448 252.315 56.2952C252.162 56.1423 251.933 55.9971 251.627 55.8596C251.321 55.7067 250.939 55.5539 250.481 55.401C249.946 55.2176 249.434 55.0266 248.944 54.8279C248.471 54.6139 248.05 54.3617 247.683 54.0713C247.317 53.7809 247.026 53.4293 246.812 53.0167C246.614 52.604 246.514 52.0996 246.514 51.5035C246.514 50.7851 246.705 50.1508 247.087 49.6006C247.485 49.0351 248.02 48.5918 248.692 48.2709C249.38 47.9499 250.16 47.7894 251.031 47.7894C251.856 47.7894 252.59 47.927 253.232 48.2021C253.889 48.4772 254.401 48.8364 254.768 49.2796C255.15 49.7076 255.341 50.1814 255.341 50.7011C255.341 51.0832 255.226 51.4118 254.997 51.6869C254.783 51.962 254.439 52.0996 253.965 52.0996C253.568 52.0996 253.239 52.0155 252.979 51.8474C252.72 51.664 252.513 51.5035 252.36 51.366C252.253 51.259 252.131 51.152 251.994 51.045C251.871 50.938 251.719 50.8463 251.535 50.7699C251.367 50.6934 251.153 50.6552 250.893 50.6552C250.526 50.6552 250.274 50.724 250.137 50.8616C250.014 50.9991 249.953 51.152 249.953 51.3201C249.953 51.5494 250.045 51.7404 250.228 51.8933C250.412 52.0308 250.71 52.176 251.122 52.3289C251.535 52.4817 252.085 52.688 252.773 52.9479C253.323 53.1466 253.797 53.3682 254.195 53.6128C254.607 53.842 254.944 54.1019 255.203 54.3923C255.478 54.6674 255.677 54.9807 255.799 55.3322C255.937 55.6685 256.006 56.0582 256.006 56.5015C256.006 57.2963 255.807 57.9917 255.41 58.5878C255.012 59.1686 254.447 59.6195 253.713 59.9405C252.995 60.2462 252.146 60.399 251.168 60.399Z" fill="white"/>
<g filter="url(#filter0_f_1191_343)">
<path d="M508 170H261.017C260.459 162.65 274.022 159.451 280.873 158.771C284.356 142.778 299.336 141.077 309.09 146.861C315.012 131.208 333.126 130.868 343.228 136.993C347.757 130.188 356.466 121 371.445 121C390.396 121.544 399.313 136.426 401.404 143.799C410.043 141.077 417.079 144.252 419.518 146.181L419.612 146.036C422.099 142.215 427.707 133.599 441.464 134.271C452.612 134.815 459.346 144.933 461.32 149.923C478.042 143.798 483.267 158.771 485.009 158.771C500.336 158.771 506.723 166.257 508 170Z" fill="#FFFEFF"/>
</g>
<path d="M139 104H-45C-41.7427 98.0583 -28.3902 97.3545 -22.1212 97.7454C-20.764 82.5 -5.44678 79.7636 0.563751 82.5C0.369865 81.3272 5.21707 61 24.7998 61C42.1722 61.3127 48.8419 74.6818 50.0053 81.3272C56.9853 79.4509 63.5128 84.9758 65.9041 87.9728C73.6596 75.0727 88.9768 82.109 91.3035 91.1001C102.006 86.5655 108.43 94.1622 110.305 98.5273C128.608 95.7127 137.061 101.003 139 104Z" fill="#FFFEFF"/>
<path d="M324 165H458C455.628 160.716 445.904 160.209 441.338 160.491C440.35 149.5 429.195 147.527 424.818 149.5C424.959 148.655 421.429 134 407.168 134C394.516 134.225 389.659 143.864 388.811 148.655C383.728 147.302 378.974 151.285 377.233 153.446C371.585 144.145 360.43 149.218 358.736 155.7C350.941 152.431 346.263 157.908 344.898 161.055C331.568 159.025 325.412 162.839 324 165Z" fill="#FFFEFF"/>
<path d="M28 158H133C131.141 154.684 123.522 154.291 119.944 154.509C119.17 146 110.429 144.473 106.999 146C107.11 145.345 104.344 134 93.1686 134C83.255 134.175 79.4489 141.636 78.785 145.345C74.8019 144.298 71.0769 147.382 69.7123 149.055C65.2866 141.855 56.5458 145.782 55.2181 150.8C49.1106 148.269 45.4447 152.509 44.3751 154.945C33.9305 153.375 29.1064 156.327 28 158Z" fill="#FFFEFF"/>
<g filter="url(#filter1_f_1191_343)">
<path d="M61 146H-6C-5.50523 141.856 0.803077 140.405 3.89538 140.198C4.72 131.247 11.9354 131.219 15.44 132.324C16.2646 129.216 19.5631 123 27.1908 123C36.4265 123.332 38.9415 130.39 39.3538 134.189C45.6209 132.863 48.562 138.126 49.0431 140.82C56.7945 140.654 60.2441 144.204 61 146Z" fill="#FFFEFF"/>
</g>
<path d="M333 91H272C272.45 87.2161 278.194 85.8919 281.009 85.7028C281.76 77.5298 288.329 77.5045 291.52 78.5135C292.271 75.6757 295.274 70 302.218 70C310.627 70.3027 312.917 76.7478 313.292 80.2163C318.998 79.0054 321.676 83.8108 322.114 86.2703C329.171 86.1189 332.312 89.3604 333 91Z" fill="#FFFEFF"/>
<path d="M214.107 169.008L215.746 170.385C217.794 169.123 222.103 165.742 219.759 160.775C216.867 154.641 207.491 153.203 202.26 159.082L204.357 160.841C201.485 159.119 198.445 157.743 195.636 157.02C192.823 156.297 189.494 156.038 186.149 156.161L188.835 155.631C187.101 147.961 178.195 144.703 172.692 148.684C168.234 151.905 170.368 156.942 171.546 159.033L173.655 158.618C169.557 160.323 167.242 162.805 168.964 165.709C168.964 165.709 156.779 171.112 162.776 176.367C162.776 176.367 162.669 176.428 162.484 176.556C161.038 177.533 154.83 182.316 157.751 190.615C160.655 198.868 169.969 201.436 176.658 202.192C172.407 203.556 169.425 206.744 169.425 210.458C169.425 215.413 174.739 219.431 181.293 219.431C187.846 219.431 194.536 215.413 194.536 210.458C194.536 208.946 192.691 206.596 193.16 206.752C199.175 208.745 206.915 209.702 212.538 204.69C219.948 198.079 215.034 189.793 215.034 189.793C222.832 188.08 214.774 177.48 214.774 177.48C217.691 175.763 216.867 172.484 214.107 169.013V169.008Z" fill="#F8D4AE"/>
<path d="M208.06 163.319C210.919 165.455 213.37 167.838 214.898 170.081C216.735 168.364 219.47 165.04 217.081 162.177C214.548 159.132 210.14 161.774 208.056 163.319H208.06Z" fill="#FFF1E6"/>
<path d="M172.432 159.173C174.858 157.949 178.154 157.041 181.696 156.548C180.617 154.19 178.034 149.753 174.347 151.199C170.867 152.559 171.653 156.782 172.432 159.173Z" fill="#FFF1E6"/>
<path d="M190.194 178.072C185.033 176.745 181.157 184.123 176.609 184.362C169.664 184.723 165.878 181.605 162.772 176.363C162.772 176.363 154.455 181.252 157.747 190.606C162.443 203.955 183.904 202.43 183.904 202.43C183.904 202.43 201.959 214.102 212.533 204.678C219.944 198.067 215.03 189.781 215.03 189.781C209.773 192.878 204.95 193.782 199.043 190.122C195.179 187.722 195.356 179.395 190.194 178.068V178.072Z" fill="#FFF1E6"/>
<path d="M199.15 192.776C200.126 188.988 203.998 186.708 207.796 187.685C211.594 188.659 213.88 192.521 212.9 196.309C211.924 200.097 208.052 202.377 204.254 201.399C200.456 200.426 198.169 196.564 199.15 192.776Z" fill="#FD9DB4"/>
<path d="M174.054 189.101C176.397 185.964 175.747 181.527 172.602 179.19C169.457 176.852 165.008 177.5 162.664 180.637C160.321 183.774 160.971 188.212 164.116 190.549C167.261 192.886 171.71 192.238 174.054 189.101Z" fill="#FD9DB4"/>
<path d="M220.228 167.497C221.658 165.266 221.802 162.797 220.648 160.356C219.17 157.217 216.055 155.023 212.319 154.489C208.344 153.918 204.377 155.327 201.667 158.269C199.673 157.295 197.7 156.539 195.875 156.071C194.05 155.603 191.957 155.315 189.737 155.208C188.786 151.33 185.997 148.183 182.24 146.766C178.71 145.434 174.92 145.858 172.107 147.891C169.915 149.477 168.844 151.708 169.017 154.35C169.137 156.227 169.849 157.953 170.492 159.169C169.598 159.76 168.885 160.397 168.379 161.071C167.386 162.386 167.143 163.815 167.658 165.249C165.549 166.313 160.721 169.103 160.181 172.636C159.988 173.914 160.35 175.118 161.269 176.231C159.098 177.924 154.006 182.932 156.82 190.943C158.216 194.912 161.12 198.01 165.458 200.154C168.58 201.699 172.383 202.722 176.761 203.195C177.301 203.252 177.787 202.862 177.849 202.324C177.907 201.785 177.515 201.301 176.976 201.239C164.564 199.891 160.177 194.542 158.682 190.29C157.545 187.053 157.763 184.041 159.337 181.334C160.597 179.164 162.348 177.842 163.036 177.373C163.184 177.275 163.271 177.221 163.279 177.217C163.551 177.057 163.728 176.777 163.757 176.461C163.786 176.149 163.662 175.841 163.427 175.631C162.414 174.744 161.99 173.86 162.13 172.932C162.546 170.2 167.493 167.443 169.363 166.609C169.619 166.494 169.816 166.276 169.903 166.009C169.989 165.742 169.956 165.451 169.812 165.212C169.186 164.152 169.231 163.207 169.956 162.246C171.419 160.307 175.369 158.618 180.518 157.731C185.741 156.831 191.303 156.922 195.385 157.969C199.471 159.017 204.381 161.617 208.517 164.921C212.599 168.179 215.24 171.56 215.582 173.963C215.751 175.155 215.335 176.001 214.272 176.63C214.029 176.773 213.86 177.012 213.806 177.287C213.753 177.562 213.819 177.846 213.988 178.072C214 178.088 215.153 179.616 216.121 181.547C217.324 183.943 217.72 185.861 217.262 187.094C216.937 187.973 216.138 188.544 214.82 188.832C214.511 188.897 214.255 189.111 214.128 189.398C214 189.686 214.02 190.019 214.181 190.29C214.362 190.602 218.576 197.981 211.874 203.955C208.468 206.991 201.959 209.571 190.293 204.62C189.795 204.406 189.214 204.641 189 205.138C188.786 205.639 189.02 206.214 189.519 206.428C193.609 208.162 197.465 209.131 200.979 209.316C201.378 209.337 201.77 209.349 202.157 209.349C206.552 209.349 210.255 208.03 213.184 205.421C217.324 201.732 217.835 197.533 217.534 194.661C217.345 192.854 216.826 191.35 216.414 190.397C217.753 189.863 218.655 188.984 219.104 187.772C220.344 184.419 217.464 179.645 216.134 177.698C217.279 176.687 217.757 175.319 217.526 173.692C217.407 172.858 217.093 171.954 216.595 171.009C217.748 170.257 219.207 169.087 220.22 167.501L220.228 167.497ZM180.185 155.792C177.033 156.334 174.315 157.16 172.21 158.191C170.994 155.886 169.759 152.012 173.264 149.477C175.542 147.83 178.64 147.501 181.548 148.598C184.53 149.72 186.78 152.139 187.686 155.151C185.222 155.151 182.664 155.364 180.185 155.792ZM215.573 169.329C214.226 167.414 212.249 165.381 209.753 163.388C207.788 161.819 205.646 160.401 203.492 159.214C205.745 157.016 208.888 155.981 212.039 156.433C215.116 156.876 217.666 158.655 218.865 161.19C220.706 165.097 217.753 167.895 215.569 169.329H215.573Z" fill="#D3A98C"/>
<path d="M175.101 180.163C174.693 181.741 175.645 183.351 177.231 183.758C178.813 184.165 180.428 183.216 180.835 181.634C181.243 180.056 180.292 178.446 178.706 178.039C177.124 177.632 175.509 178.581 175.101 180.163Z" fill="#5F5C5D"/>
<path d="M196.666 185.701C196.258 187.279 197.21 188.889 198.796 189.296C200.377 189.703 201.992 188.754 202.4 187.172C202.808 185.594 201.856 183.984 200.27 183.577C198.684 183.17 197.074 184.119 196.666 185.701Z" fill="#5F5C5D"/>
<path d="M182.331 188.334C182.009 189.579 182.005 190.808 182.265 191.905C182.669 193.622 183.715 195.006 185.185 195.569C185.33 195.631 185.482 195.676 185.639 195.717C187.352 196.157 189.136 195.442 190.442 193.996C190.771 193.63 191.076 193.215 191.336 192.763C191.669 192.184 191.933 191.539 192.11 190.845C192.328 189.998 192.378 189.226 192.295 188.54C192.287 188.47 192.279 188.4 192.258 188.33C191.937 186.469 190.561 185.241 188.712 184.711C188.641 184.69 188.571 184.67 188.497 184.653C188.423 184.633 188.353 184.616 188.283 184.6C186.405 184.177 184.605 184.588 183.418 186.062C183.373 186.112 183.332 186.169 183.291 186.223C182.883 186.786 182.553 187.484 182.335 188.334H182.331Z" fill="#5F5C5D"/>
<path d="M182.265 191.9C182.668 193.618 183.715 195.002 185.185 195.565C185.33 195.627 185.482 195.672 185.638 195.713C187.352 196.153 189.14 195.438 190.442 193.992C190.038 192.274 188.992 190.89 187.521 190.327C187.377 190.265 187.224 190.22 187.068 190.179C185.354 189.739 183.566 190.454 182.265 191.9Z" fill="#E27FA3"/>
<path d="M186.644 196.823C186.228 196.823 185.807 196.769 185.391 196.663C182.17 195.837 180.37 191.987 181.375 188.084C181.618 187.139 181.993 186.318 182.491 185.64L184.081 186.798C183.731 187.275 183.463 187.871 183.282 188.573C182.545 191.428 183.711 194.202 185.881 194.76C188.052 195.319 190.417 193.45 191.154 190.594C191.335 189.896 191.389 189.247 191.315 188.663L193.267 188.417C193.37 189.247 193.304 190.142 193.061 191.083C192.184 194.481 189.461 196.819 186.644 196.819V196.823Z" fill="#F8D4AE"/>
<path d="M193.267 188.421C193.008 186.379 191.719 184.805 189.68 183.996L190.182 182.053L188.275 181.564L187.772 183.507C185.601 183.232 183.711 183.984 182.495 185.639C182.174 186.079 182.269 186.691 182.71 187.011C183.15 187.332 183.764 187.237 184.086 186.798C185.309 185.134 187.22 185.327 188.25 185.594C189.284 185.861 191.055 186.613 191.315 188.663C191.377 189.16 191.801 189.522 192.291 189.522C192.332 189.522 192.374 189.522 192.415 189.513C192.954 189.444 193.337 188.955 193.267 188.417V188.421Z" fill="#D3A98C"/>
<path d="M187.867 179.806C188.435 179.465 189.177 179.65 189.519 180.217L189.601 180.352L189.737 180.27C190.306 179.929 191.047 180.114 191.389 180.681C191.731 181.248 191.546 181.987 190.977 182.328L190.487 182.62C189.539 183.187 188.316 182.879 187.748 181.934L187.455 181.445C187.113 180.878 187.299 180.139 187.867 179.798V179.806Z" fill="#E27FA3"/>
<path d="M169.421 211.157C169.421 211.157 165.664 194.267 166.381 185.915L168.782 186.761L171.789 188.639L177.103 210.089L169.417 211.157H169.421Z" fill="#F8D4AE"/>
<path d="M175.524 210.502L179.946 209.407L169.628 167.98L165.206 169.075L175.524 210.502Z" fill="#FFBE8D"/>
<path d="M175.521 211.485C175.344 211.485 175.167 211.436 175.015 211.345C174.792 211.21 174.632 210.992 174.566 210.742L164.247 169.316C164.136 168.873 164.35 168.409 164.758 168.203C165.17 167.998 165.668 168.1 165.961 168.454L172.659 176.498C172.753 176.613 172.819 176.744 172.856 176.888L180.897 209.176C181.029 209.702 180.708 210.236 180.18 210.368L175.756 211.465C175.678 211.485 175.6 211.493 175.517 211.493L175.521 211.485ZM167.2 173.006L176.242 209.312L178.755 208.691L171.007 177.574L167.205 173.006H167.2Z" fill="#EA9C71"/>
<path d="M171.905 177.119C158.274 171.174 151.201 191.572 137.57 185.623C135.544 177.493 133.521 169.362 131.494 161.232C145.125 167.177 152.198 146.778 165.829 152.727C167.855 160.858 169.878 168.988 171.905 177.119Z" fill="#A3D676"/>
<path d="M142.588 187.718C140.891 187.718 139.095 187.365 137.175 186.527C136.895 186.404 136.689 186.161 136.615 185.865L130.539 161.474C130.448 161.112 130.572 160.726 130.86 160.488C131.148 160.245 131.548 160.188 131.89 160.34C138.201 163.092 143.008 159.736 148.099 156.182C153.409 152.472 158.904 148.639 166.224 151.835C166.504 151.959 166.71 152.201 166.784 152.497L172.86 176.889C172.951 177.25 172.828 177.636 172.539 177.875C172.251 178.117 171.851 178.174 171.509 178.022C165.199 175.27 160.391 178.626 155.304 182.18C151.387 184.916 147.366 187.718 142.592 187.718H142.588ZM138.407 184.908C144.499 187.32 149.203 184.037 154.171 180.566C159.04 177.168 164.058 173.663 170.5 175.561L164.993 153.442C158.9 151.03 154.196 154.313 149.228 157.784C145.311 160.521 141.29 163.323 136.516 163.327C135.358 163.327 134.155 163.162 132.899 162.793L138.407 184.912V184.908Z" fill="#87B758"/>
<path d="M166.521 186.856C166.055 183.787 166.76 181.137 169.837 180.673C172.914 180.208 175.785 182.32 176.251 185.393C176.716 188.462 174.599 191.326 171.518 191.79C168.44 192.254 166.982 189.929 166.517 186.86L166.521 186.856Z" fill="#F8D4AE"/>
<path d="M177.227 185.241C176.683 181.642 173.301 179.152 169.693 179.699C166.953 180.11 165.45 182.057 165.413 185.134C164.696 193.54 168.309 210.676 168.461 211.37C168.564 211.826 168.972 212.139 169.421 212.139C169.491 212.139 169.565 212.131 169.635 212.114C170.166 211.995 170.5 211.473 170.385 210.943C170.356 210.808 167.938 199.85 167.386 191.379C168.276 192.332 169.429 192.825 170.772 192.825C171.064 192.825 171.361 192.8 171.67 192.755C175.278 192.213 177.775 188.84 177.227 185.241ZM171.373 190.816C170.265 190.98 169.417 190.713 168.778 189.994C168.16 189.3 167.715 188.162 167.497 186.708C167.324 185.574 166.801 182.119 169.985 181.642C171.213 181.457 172.44 181.761 173.441 182.497C174.442 183.232 175.093 184.312 175.278 185.537C175.662 188.068 173.911 190.434 171.373 190.816Z" fill="#D3A98C"/>
<path d="M193.951 207.669C197.725 212.813 194.792 221.761 184.275 219.423C173.095 216.937 174.516 205.943 180.378 205.943C186.24 205.943 187.764 210.828 185.713 212.874C185.713 212.874 193.712 207.344 193.951 207.669Z" fill="#F8D4AE"/>
<path d="M187.575 220.799C186.532 220.799 185.367 220.676 184.061 220.384C177.173 218.852 174.529 214.201 174.961 210.265C175.307 207.143 177.532 204.961 180.378 204.961C183.645 204.961 186.186 206.391 187.179 208.782C187.896 210.508 187.595 212.389 186.409 213.568C186.026 213.95 185.4 213.95 185.016 213.568C184.633 213.186 184.633 212.562 185.016 212.18C185.634 211.563 185.77 210.524 185.358 209.534C184.679 207.903 182.817 206.925 180.378 206.925C178.261 206.925 177.116 208.708 176.922 210.479C176.452 214.727 180.386 217.549 184.493 218.461C188.852 219.431 192.229 218.396 193.762 215.614C195.179 213.038 194.635 209.595 192.464 207.43C192.081 207.048 192.081 206.424 192.464 206.042C192.847 205.66 193.473 205.66 193.857 206.042C196.633 208.811 197.317 213.236 195.488 216.559C194.713 217.964 192.538 220.791 187.579 220.791L187.575 220.799Z" fill="#D3A98C"/>
<g filter="url(#filter2_d_1191_343)">
<path d="M205.805 191.175C205.891 191.078 205.95 191.016 205.977 190.989L205.986 190.98H205.989C200.466 188.189 208.567 181.782 208.567 181.782C206.903 180.122 207.739 178.094 209.912 176.2C208.689 174.543 207.505 171.882 209.668 169.278C212.846 165.448 219.57 165.898 222.648 170.553C224.122 170.269 225.565 170.112 226.906 170.112C228.909 170.112 231.152 170.468 233.375 171.068C236.283 165.937 243.372 165.315 246.666 169.281C249.39 172.557 246.808 175.928 245.517 177.272L244.538 176.804C246.218 178.521 246.731 180.296 245.241 181.782C245.241 181.782 253.345 188.189 247.823 190.977C247.823 190.977 247.864 191.019 247.936 191.099C248.215 191.406 248.953 192.276 249.568 193.552C250.301 195.073 250.858 197.171 250.241 199.569C249.992 200.548 249.544 201.581 248.835 202.644C246.084 206.746 242.197 207.932 238.752 207.995C238.844 208.441 238.891 208.9 238.891 209.368C238.891 214.473 233.265 218.613 226.321 218.613C219.378 218.613 213.751 214.476 213.751 209.368C213.751 208.971 213.784 208.58 213.852 208.196C210.478 207.465 207.274 205.825 204.977 202.644C200.983 197.109 204.909 192.188 205.805 191.175Z" fill="#F8D4AE"/>
<path d="M238.743 173.016C241.333 174.214 243.553 175.667 244.858 177.15C245.903 175.493 247.253 172.521 244.933 170.852C242.66 169.213 240.131 171.429 238.743 173.016Z" fill="#FFF1E6"/>
<path d="M204.974 202.644C212.778 213.449 230.989 206.476 230.989 206.476C230.989 206.476 242.719 211.759 248.835 202.644C251.283 198.989 250.6 195.701 249.568 193.555C247.117 195.008 244.381 195.422 240.844 194.318C237.476 193.262 235.998 186.976 231.864 186.976C227.731 186.976 226.197 193.102 222.885 194.318C211.021 198.669 209.336 194.318 205.989 190.98C205.989 190.98 205.983 190.989 205.98 190.992C205.953 191.019 205.894 191.081 205.808 191.178C204.912 192.191 200.983 197.112 204.98 202.647L204.974 202.644Z" fill="#FFF1E6"/>
<path d="M241.434 196.284C241.434 199.317 243.624 201.776 246.324 201.776C247.927 201.776 249.351 200.909 250.241 199.572C250.855 197.177 250.301 195.079 249.568 193.555C248.953 192.279 248.217 191.409 247.936 191.101C247.431 190.903 246.888 190.797 246.324 190.797C243.621 190.797 241.434 193.256 241.434 196.287V196.284Z" fill="#FD9DB4"/>
<path d="M215.879 201.71C212.881 201.21 210.856 198.38 211.358 195.39C211.859 192.399 214.696 190.38 217.694 190.88C220.693 191.38 222.717 194.209 222.216 197.2C221.715 200.19 218.878 202.21 215.879 201.71Z" fill="#FD9DB4"/>
<path d="M223.197 192.753C221.93 192.753 220.903 191.621 220.903 190.225C220.903 188.83 221.93 187.698 223.197 187.698C224.463 187.698 225.49 188.83 225.49 190.225C225.49 191.621 224.463 192.753 223.197 192.753Z" fill="#5F5C5D"/>
<path d="M240.532 192.753C239.265 192.753 238.238 191.621 238.238 190.225C238.238 188.83 239.265 187.698 240.532 187.698C241.799 187.698 242.826 188.83 242.826 190.225C242.826 191.621 241.799 192.753 240.532 192.753Z" fill="#5F5C5D"/>
<path d="M213.938 176.345L217.398 174.694C218.44 174.197 218.656 172.806 217.811 172.021C216.38 170.698 214.401 169.547 212.585 170.855C210.894 172.072 211.152 173.978 211.82 175.564C212.164 176.381 213.137 176.727 213.938 176.345Z" fill="#FFF1E6"/>
<path d="M202.87 195.017C203.374 193.282 204.291 191.918 204.897 191.152C203.98 190.498 203.466 189.666 203.366 188.669C203.217 187.212 203.992 185.505 205.668 183.59C206.374 182.782 207.09 182.113 207.564 181.696C207.149 181.095 206.95 180.441 206.974 179.74C207.012 178.562 207.686 177.336 208.971 176.096C208.612 175.54 208.282 174.91 208.06 174.226C207.425 172.293 207.793 170.429 209.119 168.831C210.828 166.774 213.573 165.735 216.464 166.049C219.09 166.336 221.434 167.697 222.968 169.775C224.363 169.529 225.683 169.402 226.903 169.402C228.749 169.402 230.867 169.704 233.033 170.248C234.585 167.848 237.173 166.286 240.057 166.028C242.873 165.779 245.55 166.824 247.215 168.828C248.541 170.426 248.909 172.29 248.274 174.223C247.799 175.673 246.864 176.875 246.131 177.659C246.292 177.917 246.428 178.171 246.532 178.426C247.022 179.603 246.918 180.719 246.241 181.696C246.716 182.113 247.431 182.782 248.14 183.59C249.817 185.505 250.594 187.212 250.446 188.669C250.345 189.663 249.832 190.498 248.912 191.152C249.404 191.782 250.105 192.821 250.603 194.164C251.381 196.251 251.808 199.486 249.428 203.037C246.434 207.503 242.188 208.71 238.47 208.71C237.487 208.71 236.544 208.628 235.668 208.494C235.28 208.435 235.01 208.074 235.069 207.686C235.128 207.299 235.49 207.032 235.879 207.089C239.66 207.654 244.873 207.272 248.244 202.247C252.14 196.431 247.517 191.678 247.321 191.48C247.158 191.32 247.084 191.089 247.123 190.864C247.158 190.64 247.301 190.444 247.505 190.344C248.455 189.864 248.953 189.269 249.031 188.526C249.25 186.372 246.051 183.33 244.802 182.341C244.642 182.214 244.544 182.027 244.532 181.826C244.52 181.625 244.597 181.427 244.74 181.282C245.434 180.589 245.585 179.855 245.217 178.973C244.49 177.224 241.844 175.185 238.137 173.519C234.384 171.832 230.185 170.825 226.909 170.825C225.935 170.825 224.888 170.911 223.784 171.083C223.95 171.429 223.811 171.844 223.467 172.021C223.116 172.199 222.686 172.063 222.508 171.713C221.289 169.343 218.974 167.753 216.315 167.463C213.903 167.2 211.624 168.049 210.223 169.739C209.244 170.917 208.087 173.403 211.339 176.786C211.612 177.07 211.603 177.52 211.318 177.792C211.179 177.925 211.004 177.991 210.826 177.991C210.639 177.991 210.452 177.917 210.312 177.772C210.164 177.618 210.004 177.443 209.84 177.251C208.926 178.168 208.431 179.038 208.407 179.793C208.389 180.329 208.609 180.817 209.078 181.284C209.22 181.427 209.297 181.625 209.285 181.829C209.274 182.03 209.176 182.22 209.018 182.344C207.769 183.335 204.573 186.375 204.793 188.529C204.867 189.272 205.369 189.867 206.318 190.347C206.523 190.45 206.662 190.643 206.698 190.867C206.733 191.092 206.659 191.32 206.499 191.483C206.493 191.489 206.437 191.548 206.345 191.649C205.256 192.88 201.983 197.278 205.558 202.232C208.443 206.227 213.17 208.16 219.594 207.971C219.989 207.962 220.315 208.27 220.327 208.66C220.339 209.054 220.03 209.379 219.636 209.391C219.345 209.4 219.057 209.403 218.772 209.403C216.057 209.403 213.597 209.018 211.449 208.258C208.511 207.219 206.14 205.47 204.398 203.061C202.597 200.569 202.069 197.787 202.873 195.02L202.87 195.017ZM238.719 172.219C241.594 173.51 243.852 175.01 245.247 176.52C248.194 173.27 247.072 170.885 246.12 169.736C244.755 168.094 242.538 167.236 240.188 167.446C237.894 167.65 235.826 168.828 234.49 170.648C235.921 171.077 237.351 171.604 238.722 172.219H238.719Z" fill="#D3A98C"/>
<path d="M227.947 196.21C227.947 196.766 228.022 197.302 228.158 197.799C228.686 199.729 230.143 201.114 231.861 201.114C231.986 201.114 232.111 201.108 232.229 201.09C234.217 200.859 235.775 198.764 235.775 196.21C235.775 193.499 234.022 192.256 231.861 192.256C229.701 192.256 227.947 193.502 227.947 196.21Z" fill="#5F5C5D"/>
<path d="M228.158 197.799C228.686 199.729 230.143 201.114 231.861 201.114C231.986 201.114 232.111 201.108 232.229 201.09C232.286 200.998 232.339 200.898 232.395 200.797C233.695 198.418 233.725 195.934 232.47 195.254C231.309 194.629 229.458 195.751 228.158 197.802V197.799Z" fill="#E27FA3"/>
<path d="M231.858 201.827C234.41 201.827 236.484 199.308 236.484 196.21C236.484 195.653 236.416 195.132 236.286 194.656L234.912 195.038C235.01 195.39 235.06 195.784 235.06 196.21C235.06 198.524 233.624 200.403 231.858 200.403C230.093 200.403 228.657 198.521 228.657 196.21C228.657 195.784 228.707 195.387 228.805 195.038L227.431 194.656C227.297 195.132 227.232 195.653 227.232 196.21C227.232 199.305 229.306 201.827 231.858 201.827Z" fill="#F8D4AE"/>
<path d="M227.431 194.656C227.915 192.922 229.28 191.809 231.146 191.587V189.986H232.571V191.587C234.434 191.812 235.799 192.922 236.286 194.656C236.392 195.035 236.17 195.425 235.79 195.532C235.41 195.636 235.019 195.417 234.912 195.038C234.407 193.232 232.781 192.963 231.858 192.963C230.935 192.963 229.309 193.232 228.805 195.038C228.716 195.351 228.431 195.559 228.119 195.559C228.057 195.559 227.992 195.55 227.927 195.532C227.547 195.425 227.327 195.035 227.431 194.656Z" fill="#D3A98C"/>
<path d="M233.268 188.743C232.906 188.376 232.315 188.373 231.947 188.734L231.858 188.823L231.772 188.734C231.41 188.367 230.82 188.364 230.452 188.725C230.084 189.086 230.081 189.675 230.443 190.042L230.754 190.356C231.354 190.962 232.336 190.968 232.944 190.37L233.259 190.06C233.627 189.699 233.63 189.11 233.268 188.743Z" fill="#E27FA3"/>
<path d="M245.927 209.368C243.938 207.459 239.752 205.754 235.826 205.168C234.084 204.908 232.775 203.455 232.743 201.702C232.734 201.324 232.787 200.957 232.891 200.61C233.271 199.353 234.333 198.373 235.686 198.118C239.585 197.385 243.704 195.517 245.621 193.534L245.927 209.371V209.368Z" fill="#95A1B3"/>
<path d="M243.35 201.499C243.235 195.578 246.468 190.714 250.57 190.635C254.673 190.555 258.093 195.291 258.208 201.212C258.323 207.132 255.09 211.996 250.987 212.075C246.884 212.155 243.465 207.419 243.35 201.499Z" fill="white"/>
<path d="M245.434 209.88L246.422 208.856C244.372 206.888 240.057 205.082 235.933 204.467C234.526 204.257 233.484 203.088 233.458 201.688C233.431 200.288 234.425 199.08 235.823 198.817C239.921 198.042 244.161 196.071 246.134 194.026L245.108 193.04C243.318 194.893 239.392 196.695 235.556 197.42C233.473 197.814 231.992 199.619 232.03 201.714C232.072 203.81 233.621 205.556 235.719 205.87C239.579 206.447 243.574 208.095 245.434 209.877V209.88Z" fill="#70838E"/>
<path d="M250.885 212.786C250.924 212.786 250.962 212.786 251.001 212.786C253.226 212.741 255.277 211.478 256.772 209.225C258.215 207.053 258.977 204.203 258.921 201.196C258.862 198.189 257.989 195.369 256.464 193.256C254.882 191.063 252.787 189.882 250.559 189.92C248.333 189.965 246.283 191.228 244.787 193.481C243.345 195.653 242.582 198.503 242.639 201.51C242.698 204.517 243.571 207.337 245.096 209.45C246.651 211.605 248.701 212.786 250.885 212.786ZM250.674 191.344C254.339 191.344 257.39 195.751 257.497 201.226C257.603 206.745 254.677 211.294 250.974 211.365C247.265 211.436 244.173 207.003 244.066 201.486C244.013 198.766 244.692 196.203 245.977 194.271C247.209 192.418 248.847 191.382 250.588 191.347C250.618 191.347 250.648 191.347 250.677 191.347L250.674 191.344Z" fill="#E2E2E2"/>
<path d="M253.176 204.748L247.663 204.854L247.069 201.59L247.636 197.639L252.989 197.538C253.007 197.535 253.022 197.538 253.037 197.535C254.31 197.512 255.372 199.107 255.413 201.099C255.452 203.093 254.452 204.727 253.176 204.751V204.748Z" fill="#95A1B3"/>
<path d="M247.648 204.147L250.906 204.085C250.416 203.333 250.111 202.327 250.087 201.202C250.078 200.809 250.393 200.486 250.784 200.477C251.176 200.465 251.502 200.782 251.511 201.173C251.544 202.88 252.404 204.058 253.161 204.038C253.915 204.023 254.731 202.818 254.698 201.111C254.666 199.415 253.814 198.246 253.063 198.246C253.057 198.246 253.051 198.246 253.048 198.246L247.648 198.349C247.648 198.349 247.639 198.349 247.633 198.349C247.247 198.349 247.226 196.935 247.618 196.929L252.995 196.825C252.995 196.825 253.01 196.825 253.019 196.825C253.034 196.825 253.048 196.825 253.063 196.825C254.737 196.825 256.075 198.684 256.123 201.084C256.17 203.505 254.879 205.426 253.188 205.461L247.671 205.568C247.671 205.568 247.663 205.568 247.657 205.568C247.271 205.568 247.25 204.153 247.642 204.147H247.648Z" fill="#70838E"/>
<path d="M250.894 209.087C250.894 209.087 250.918 209.087 250.933 209.087C251.327 209.078 251.639 208.755 251.63 208.362C251.621 207.968 251.301 207.657 250.903 207.666C250.9 207.666 250.897 207.666 250.891 207.666C250.143 207.666 248.544 206.222 247.977 203.304C247.974 203.283 247.968 203.262 247.962 203.242C247.85 202.659 247.787 202.043 247.775 201.413C247.763 200.794 247.802 200.173 247.894 199.569C247.9 199.551 247.903 199.53 247.906 199.51C248.099 198.264 248.502 197.16 249.066 196.313C249.47 195.704 250.099 195.053 250.657 195.041C251.051 195.032 251.363 194.709 251.354 194.316C251.345 193.928 251.028 193.62 250.642 193.62C250.636 193.62 250.633 193.62 250.627 193.62C249.315 193.647 248.339 194.828 247.876 195.529C247.209 196.532 246.734 197.811 246.505 199.234C246.499 199.255 246.496 199.276 246.493 199.297C246.384 199.998 246.336 200.72 246.348 201.439C246.363 202.173 246.437 202.889 246.571 203.567C246.574 203.591 246.579 203.612 246.585 203.632C246.971 205.562 247.722 206.808 248.286 207.518C249.081 208.515 250.025 209.084 250.888 209.084L250.894 209.087Z" fill="#E2E2E2"/>
<path d="M237.704 203.748C239.799 203.523 240.906 204.84 241.366 206.743C242.295 207.793 243.072 209.3 243.499 211.055C244.41 214.802 243.381 218.267 241.2 218.797C239.019 219.324 236.511 216.716 235.597 212.967C235.502 212.576 235.428 212.188 235.375 211.806C234.452 211.078 233.811 209.998 233.674 208.74C233.404 206.254 235.206 204.017 237.701 203.748H237.704Z" fill="#F8D4AE"/>
<path d="M234.099 204.964C234.977 203.872 236.232 203.188 237.627 203.037C239.03 202.887 240.203 203.333 241.019 204.331C241.461 204.872 241.793 205.568 242.016 206.405C243.001 207.569 243.769 209.149 244.194 210.883C244.663 212.816 244.663 214.751 244.194 216.332C243.683 218.048 242.68 219.167 241.369 219.484C241.122 219.543 240.873 219.572 240.621 219.572C239.535 219.572 238.419 219.022 237.41 217.974C236.268 216.784 235.378 215.065 234.906 213.132C234.826 212.807 234.763 212.487 234.713 212.177C233.728 211.309 233.111 210.126 232.968 208.814C232.817 207.423 233.217 206.056 234.099 204.964ZM238.44 216.992C239.315 217.903 240.235 218.297 241.036 218.104C241.835 217.912 242.473 217.14 242.832 215.929C243.229 214.586 243.223 212.913 242.814 211.221C242.68 210.67 242.505 210.14 242.301 209.637C242.232 210.336 242.066 210.948 241.799 211.472C241.217 212.62 240.167 213.31 238.763 213.461C238.571 213.482 238.378 213.493 238.188 213.493C237.571 213.493 236.968 213.384 236.395 213.177C236.826 214.713 237.544 216.056 238.443 216.992H238.44ZM234.387 208.661C234.496 209.676 234.998 210.584 235.793 211.226C236.591 211.866 237.588 212.156 238.606 212.046C239.532 211.946 240.158 211.549 240.523 210.83C240.87 210.146 240.983 209.155 240.852 207.962C240.722 206.769 240.398 205.825 239.912 205.23C239.473 204.695 238.897 204.431 238.155 204.431C238.033 204.431 237.909 204.437 237.778 204.452C236.76 204.562 235.849 205.062 235.206 205.855C234.565 206.651 234.271 207.645 234.384 208.661H234.387Z" fill="#D3A98C"/>
<path d="M212.211 190.966C214.618 190.256 217.143 191.623 217.855 194.023C218.404 195.867 217.719 197.785 216.277 198.894C217.502 202.141 219.734 207.217 222.621 210.096L216.024 214.808C216.024 214.808 210.817 204.509 210.25 196.269C209.538 193.869 209.805 191.676 212.208 190.966H212.211Z" fill="#F8D4AE"/>
<path d="M212.009 190.281C214.787 189.462 217.719 191.048 218.541 193.818C218.938 195.162 218.79 196.576 218.119 197.807C217.852 198.296 217.517 198.731 217.122 199.107C218.256 202.043 220.407 206.881 223.125 209.592C223.404 209.871 223.404 210.32 223.125 210.599C222.986 210.738 222.805 210.806 222.621 210.806C222.437 210.806 222.256 210.738 222.116 210.599C220.582 209.069 218.291 205.991 215.923 199.959C215.63 200.113 215.318 200.237 214.992 200.335C214.558 200.462 214.14 200.527 213.737 200.527C212.882 200.527 212.101 200.24 211.434 199.678C212.84 206.87 216.615 214.399 216.659 214.487C216.837 214.837 216.695 215.266 216.345 215.443C216.241 215.494 216.131 215.52 216.024 215.52C215.763 215.52 215.514 215.378 215.386 215.13C215.333 215.023 214.051 212.481 212.683 208.882C210.849 204.07 209.796 199.87 209.544 196.399C208.63 193.244 209.526 191.018 212.004 190.287L212.009 190.281ZM212.351 198.586C212.965 199.11 213.698 199.234 214.591 198.971C215.573 198.681 216.38 198.026 216.87 197.13C217.357 196.233 217.467 195.2 217.176 194.223C216.683 192.566 215.155 191.489 213.502 191.489C213.143 191.489 212.778 191.539 212.416 191.646C210.713 192.149 210.217 193.637 210.938 196.067C211.28 197.219 211.769 198.089 212.354 198.586H212.351Z" fill="#D3A98C"/>
<path d="M258.532 191.344C258.025 190.773 258.013 189.917 258.508 189.334L262.046 185.173C262.651 184.463 263.746 184.448 264.369 185.147L265.393 186.298C266.013 186.996 265.87 188.08 265.09 188.595L260.526 191.604C259.888 192.025 259.037 191.915 258.529 191.344H258.532Z" fill="#E27FA3"/>
<path d="M259.458 194.916C259.39 194.156 259.891 193.46 260.633 193.286L265.956 192.028C266.867 191.812 267.758 192.451 267.841 193.38L267.98 194.913C268.066 195.843 267.307 196.633 266.372 196.585L260.909 196.31C260.143 196.272 259.526 195.68 259.455 194.919L259.458 194.916Z" fill="#E27FA3"/>
<path d="M255.084 190.001C255.832 190.16 256.586 189.746 256.847 189.03L258.731 183.907C259.054 183.031 258.523 182.075 257.609 181.88L256.099 181.56C255.185 181.365 254.31 182.025 254.244 182.954L253.87 188.397C253.817 189.157 254.336 189.841 255.084 190.001Z" fill="#E27FA3"/>
</g>
<g clip-path="url(#clip1_1191_343)">
<path d="M37.6661 181.219C37.7503 178.971 36.9612 177.124 36.6536 176.492C36.5769 176.339 36.5327 176.257 36.5327 176.257C42.4845 175.051 36.4954 166.869 36.4954 166.869C38.7334 165.597 38.1517 163.085 36.0927 160.406L37.3255 161.476C38.8957 160.541 42.2163 158.015 40.4976 154.199C38.3767 149.486 31.2647 148.274 27.2063 152.692L28.7762 154.056C26.6156 152.709 24.3208 151.623 22.1932 151.038C20.063 150.451 17.5336 150.213 14.9854 150.267L17.0379 149.898C15.8146 144.028 9.08535 141.437 4.84741 144.401C1.41438 146.802 2.97508 150.665 3.84806 152.275L5.45642 151.985C2.31589 153.235 0.527312 155.096 1.80165 157.334C1.80165 157.334 -7.53728 161.301 -3.04363 165.379C-3.04363 165.379 -5.2202 166.613 -6.55408 169.066C-7.51079 170.816 -8.04182 173.186 -7.04854 176.176C-5.20461 181.722 0.440084 183.999 5.22371 184.921C4.041 185.499 3.01929 186.438 2.34645 187.682C0.626633 190.861 1.80918 194.833 4.99225 196.553C8.17533 198.272 12.1474 197.087 13.8687 193.905C15.4405 190.999 14.5874 187.436 12.0018 185.53C12.4462 185.526 12.6956 185.511 12.6956 185.511C12.6956 185.511 26.2805 194.631 34.4432 187.579C36.8296 185.517 37.5903 183.206 37.6675 181.216L37.6661 181.219Z" fill="#F8D4AE"/>
<path d="M11.5944 150.514C8.89796 150.848 6.37622 151.495 4.51395 152.399C3.95186 150.566 3.40258 147.333 6.07057 146.341C8.89849 145.286 10.8068 148.702 11.5944 150.514Z" fill="#FFF1E6"/>
<path d="M36.6815 161.242C35.546 159.514 33.7105 157.667 31.5598 156.006C33.1625 154.853 36.5574 152.894 38.4437 155.245C40.2218 157.463 38.1011 159.956 36.6801 161.245L36.6815 161.242Z" fill="#FFF1E6"/>
<path d="M34.4447 187.581C26.2814 194.635 12.6953 185.513 12.6953 185.513C12.6953 185.513 -3.6478 186.409 -7.05307 176.176C-8.04644 173.186 -7.51536 170.815 -6.55858 169.066C-3.61656 172.425 0.669602 174.349 5.60041 174.283C9.43349 174.23 12.6849 168.533 17.0412 169.731C21.3975 170.928 21.2741 177.484 24.5406 179.49C28.7456 182.067 33.4148 182.604 37.6653 181.219C37.588 183.21 36.8273 185.521 34.4407 187.583L34.4447 187.581Z" fill="#FFF1E6"/>
<path d="M1.6046 180.147C4.49538 179.408 6.24072 176.469 5.50291 173.581C4.7651 170.693 1.82354 168.95 -1.06724 169.689C-3.95803 170.427 -5.70335 173.366 -4.96555 176.254C-4.22774 179.142 -1.28618 180.885 1.6046 180.147Z" fill="#FD9DB4"/>
<path d="M34.0062 184.196C34.7996 181.322 33.1099 178.35 30.2328 177.561C27.3571 176.769 24.3831 178.459 23.5923 181.335C22.7989 184.209 24.4886 187.181 27.3657 187.97C30.2413 188.762 33.2154 187.072 34.0062 184.196Z" fill="#FD9DB4"/>
<path d="M37.5265 176.714C38.5638 176.329 39.266 175.672 39.6233 174.754C40.6068 172.213 38.4557 168.523 37.4767 167.047C38.3679 166.298 38.7543 165.263 38.6002 164.021C38.5191 163.379 38.2859 162.679 37.9147 161.945C38.8011 161.387 39.9371 160.513 40.7345 159.309C41.8412 157.64 41.9814 155.772 41.1406 153.908C40.0588 151.509 37.7302 149.806 34.9119 149.355C31.8965 148.871 28.8647 149.901 26.7745 152.112C25.2618 151.34 23.7637 150.734 22.3789 150.354C20.9941 149.973 19.3962 149.728 17.7017 149.618C17.0369 146.649 14.9605 144.216 12.1223 143.091C9.46648 142.038 6.59278 142.31 4.43677 143.82C2.75999 144.991 1.92594 146.671 2.02105 148.669C2.09122 150.11 2.61712 151.444 3.0931 152.374C2.39776 152.818 1.83908 153.297 1.43996 153.809C0.670938 154.797 0.474161 155.884 0.855044 156.983C-0.740613 157.752 -4.48421 159.821 -4.93843 162.509C-5.10341 163.48 -4.83463 164.403 -4.14362 165.262C-4.77561 165.733 -5.7033 166.537 -6.52667 167.675C-7.80813 169.454 -9.05927 172.414 -7.73271 176.402C-6.75774 179.338 -4.65737 181.689 -1.56105 183.361C0.0147234 184.212 1.8517 184.888 3.92762 185.374C7.92012 186.307 11.5398 186.264 12.4882 186.233C13.288 186.746 16.3748 188.631 20.284 189.869C26.3112 191.778 31.3648 191.171 34.899 188.118C39.8083 183.875 38.3044 178.619 37.5224 176.715L37.5265 176.714ZM34.6862 150.758C37.0345 151.136 38.9622 152.531 39.8479 154.494C40.4512 155.836 40.888 158.403 37.1912 160.725C36.1936 159.245 34.7082 157.661 32.8246 156.104C31.336 154.872 29.7124 153.757 28.0738 152.821C29.8273 151.138 32.2605 150.373 34.6847 150.761L34.6862 150.758ZM5.25039 144.987C7.01478 143.755 9.38746 143.541 11.5968 144.415C13.8788 145.318 15.5787 147.221 16.2221 149.563C14.3364 149.53 12.3692 149.66 10.4582 149.957C8.04144 150.334 5.9561 150.934 4.33919 151.698C2.3509 147.814 4.04168 145.832 5.24897 144.989L5.25039 144.987ZM33.9767 187.046C30.7974 189.794 26.3468 190.292 20.7512 188.527C16.4762 187.18 13.1223 184.947 13.0895 184.926C12.9624 184.841 12.8086 184.798 12.6544 184.807C12.6155 184.81 8.59063 185.011 4.22641 183.986C-1.48586 182.644 -5.05493 179.942 -6.37886 175.955C-8.54357 169.437 -2.93653 166.135 -2.69667 165.999C-2.49897 165.885 -2.36676 165.685 -2.34084 165.461C-2.31613 165.233 -2.4 165.011 -2.56907 164.859C-3.34017 164.16 -3.65655 163.469 -3.53314 162.751C-3.17821 160.656 0.637064 158.605 2.07648 157.993C2.26236 157.913 2.40644 157.76 2.47019 157.566C2.53656 157.375 2.51526 157.163 2.4151 156.99C1.94138 156.156 1.98885 155.427 2.56521 154.689C3.70554 153.222 6.74016 151.979 10.6819 151.366C14.6721 150.745 18.9056 150.88 22.0028 151.734C23.4817 152.142 25.0979 152.818 26.7237 153.696C28.5046 154.658 30.2927 155.858 31.9194 157.205C34.9905 159.747 36.9606 162.364 37.1905 164.208C37.3065 165.137 36.9738 165.79 36.1396 166.263C35.9638 166.362 35.8406 166.533 35.7981 166.731C35.7556 166.929 35.7998 167.137 35.919 167.3C36.8407 168.562 39.0687 172.273 38.2999 174.253C38.0372 174.934 37.4132 175.365 36.3895 175.573C36.1672 175.619 35.9792 175.766 35.8843 175.973C35.7893 176.18 35.799 176.419 35.9105 176.616C35.9155 176.625 35.9535 176.693 36.0138 176.814C36.2938 177.39 36.9507 178.934 36.9575 180.851C36.9662 183.248 35.9639 185.333 33.9765 187.053L33.9767 187.046Z" fill="#D3A98C"/>
<path d="M26.1327 177.1C25.8038 178.299 24.5621 179.004 23.3644 178.674C22.1653 178.345 21.4597 177.105 21.7912 175.907C22.1227 174.71 23.3617 174.003 24.5595 174.334C25.7586 174.662 26.4641 175.903 26.1327 177.1Z" fill="#5F5C5D"/>
<path d="M9.79849 172.609C9.46965 173.808 8.22797 174.514 7.03024 174.183C5.8311 173.855 5.12558 172.614 5.45705 171.417C5.78589 170.218 7.02757 169.513 8.2253 169.843C9.42444 170.172 10.13 171.412 9.79849 172.609Z" fill="#5F5C5D"/>
<path d="M19.4643 175.098C19.4643 175.098 18.7083 177.513 17.2827 179.112C17.1758 179.234 17.0623 179.349 16.9422 179.465C16.1057 180.263 15.0696 180.733 13.8442 180.347C12.7381 179.997 12.1588 179.158 11.8882 178.169C11.8437 178.012 11.8101 177.848 11.7807 177.683C11.4068 175.49 12.2602 172.831 12.2602 172.831C12.2072 173.689 12.7405 174.501 13.5963 174.773C14.603 175.092 15.6822 174.53 16.0022 173.524C15.6822 174.53 16.2417 175.607 17.2511 175.928C18.1082 176.197 19.0111 175.835 19.4614 175.103L19.4643 175.098Z" fill="#5F5C5D"/>
<path d="M16.9442 179.462C16.1076 180.26 15.0715 180.73 13.846 180.344C12.7399 179.994 12.1606 179.155 11.8899 178.166C12.7277 177.371 13.7667 176.896 14.9895 177.281C16.0983 177.632 16.6763 178.467 16.9427 179.464L16.9442 179.462Z" fill="#E27FA3"/>
<path d="M12.9843 180.749C12.374 180.419 11.8975 179.924 11.5571 179.271C10.2692 176.788 11.53 172.78 11.5835 172.612L12.9372 173.044C12.6175 174.043 11.978 176.998 12.8198 178.621C13.0945 179.15 13.4984 179.49 14.0588 179.667C14.6191 179.844 15.1479 179.797 15.676 179.518C17.3051 178.668 18.4729 175.887 18.7834 174.886L20.1387 175.309C20.0852 175.477 18.8125 179.482 16.3315 180.776C15.4632 181.231 14.5533 181.311 13.6274 181.018C13.3982 180.945 13.1816 180.855 12.9817 180.747L12.9843 180.749Z" fill="#F8D4AE"/>
<path d="M19.8355 174.493C19.5009 174.289 19.0639 174.393 18.8565 174.726C18.567 175.198 17.9942 175.409 17.4656 175.242C16.8443 175.046 16.4946 174.391 16.6671 173.771L16.9429 172.764L15.5726 172.388L15.3196 173.308C15.2228 173.613 15.0127 173.863 14.7256 174.01C14.4385 174.158 14.1124 174.189 13.805 174.091C13.2764 173.924 12.9299 173.421 12.9623 172.871C12.9869 172.48 12.6859 172.144 12.2946 172.12C11.9032 172.095 11.5671 172.396 11.5425 172.787C11.4799 173.82 12.0287 174.773 12.9127 175.25C13.0574 175.328 13.2118 175.395 13.3748 175.445C14.0425 175.656 14.7565 175.594 15.3797 175.271C15.4043 175.257 15.4314 175.244 15.456 175.23C15.7595 175.863 16.3132 176.373 17.034 176.599C18.1839 176.962 19.4299 176.5 20.0611 175.471C20.2659 175.137 20.1621 174.7 19.8289 174.493L19.8355 174.493Z" fill="#D3A98C"/>
<path d="M17.8424 172.038C17.5957 171.595 17.0373 171.44 16.5944 171.687L16.4868 171.747L16.426 171.64C16.1793 171.197 15.6209 171.042 15.1781 171.289C14.7352 171.535 14.5795 172.094 14.8262 172.536L15.0388 172.916C15.4489 173.647 16.3746 173.909 17.1063 173.499L17.4865 173.286C17.9293 173.04 18.0851 172.481 17.8383 172.039L17.8424 172.038Z" fill="#E27FA3"/>
<path d="M24.319 211.977C32.6842 209.483 37.4442 200.686 34.9508 192.329C32.4573 183.972 23.6547 179.219 15.2895 181.714C6.92425 184.208 2.16424 193.005 4.65767 201.362C7.15111 209.718 15.9538 214.471 24.319 211.977Z" fill="#B5F6F8"/>
<path d="M35.6201 192.092C34.3555 187.882 31.5295 184.415 27.6598 182.325C27.6598 182.325 27.6466 182.318 27.6414 182.315L27.6309 182.31C27.6151 182.301 27.5967 182.291 27.5809 182.283C23.7076 180.218 19.2644 179.779 15.0555 181.043C10.8305 182.312 7.35386 185.151 5.26352 189.034C0.956016 197.041 3.95472 207.05 11.952 211.369C11.9625 211.375 11.973 211.38 11.9836 211.386C20.0039 215.694 30.0351 212.678 34.3509 204.662C36.4412 200.779 36.8909 196.315 35.6227 192.093L35.6201 192.092ZM24.119 207.219C25.5383 205.733 26.8378 203.978 27.9482 202.026L32.7443 204.603C31.0364 207.452 28.5097 209.547 25.6329 210.749C25.2673 209.508 24.7553 208.324 24.1204 207.217L24.119 207.219ZM4.98281 199.657C4.40002 196.594 4.7562 193.334 6.19173 190.341L10.9879 192.917C9.97361 194.918 9.22255 196.972 8.7663 198.972C7.4925 199.052 6.22067 199.279 4.98281 199.657ZM15.4901 186.473C14.0708 187.96 12.7714 189.715 11.661 191.667L6.86217 189.089C8.52642 186.307 10.9995 184.174 13.9712 182.935C14.3394 184.177 14.85 185.363 15.4875 186.472L15.4901 186.473ZM34.6344 194.033C35.2396 197.194 34.8198 200.433 33.4174 203.352L28.6186 200.774C29.6329 198.773 30.384 196.719 30.8416 194.717C32.1195 194.635 33.3913 194.408 34.6332 194.029L34.6344 194.033ZM27.3688 200.106L20.7666 196.557L22.6208 193.111C24.7476 194.137 27.0543 194.686 29.3808 194.747C28.944 196.515 28.2703 198.326 27.3703 200.103L27.3688 200.106ZM23.2939 191.86L27.5516 183.945C29.0444 185.088 29.8904 187.206 29.9476 190.01C29.971 191.073 29.8763 192.19 29.6764 193.333C27.4838 193.314 25.3011 192.818 23.2939 191.86ZM26.3032 183.275L22.0455 191.189C20.1393 190.044 18.5216 188.498 17.2953 186.68C18.1412 185.883 19.0199 185.189 19.9212 184.622C22.295 183.125 24.5285 182.659 26.3059 183.276L26.3032 183.275ZM21.3684 192.441L19.5142 195.888L12.912 192.339C13.8974 190.611 15.0381 189.049 16.2761 187.71C17.6079 189.615 19.3397 191.233 21.3684 192.441ZM12.2389 193.589L18.8411 197.138L16.9883 200.582C14.8615 199.556 12.5548 199.006 10.2284 198.946C10.6652 197.177 11.3388 195.366 12.2389 193.589ZM16.3153 201.833L12.0576 209.747C10.5647 208.605 9.71877 206.486 9.66155 203.683C9.63811 202.62 9.73144 201.505 9.93278 200.36C12.1254 200.378 14.308 200.874 16.3153 201.833ZM13.3085 210.42L17.5663 202.505C19.4725 203.65 21.0902 205.196 22.3165 207.014C21.4706 207.811 20.5919 208.505 19.6906 209.072C17.3168 210.569 15.0832 211.035 13.3059 210.418L13.3085 210.42ZM18.2408 201.252L20.0935 197.808L26.6958 201.356C25.7103 203.084 24.5696 204.646 23.3317 205.985C21.9998 204.08 20.268 202.462 18.2393 201.254L18.2408 201.252ZM34.3015 192.65C33.262 192.976 32.1956 193.181 31.1247 193.276C31.3056 192.143 31.3892 191.04 31.3684 189.979C31.3404 188.724 31.1711 187.579 30.865 186.567C32.4199 188.236 33.5836 190.251 34.2582 192.498C34.2727 192.546 34.2858 192.598 34.3003 192.646L34.3015 192.65ZM22.2855 181.961C21.2722 182.263 20.2221 182.753 19.1595 183.423C18.2622 183.988 17.3866 184.67 16.5402 185.443C16.0286 184.498 15.6151 183.496 15.3115 182.449C15.3601 182.434 15.4102 182.417 15.4588 182.403C17.7086 181.725 20.0321 181.583 22.2828 181.96L22.2855 181.961ZM5.31436 201.043C6.35241 200.72 7.41619 200.513 8.48442 200.417C8.30498 201.547 8.21998 202.653 8.24221 203.711C8.26896 204.962 8.43709 206.103 8.74197 207.111C7.1226 205.366 5.96121 203.278 5.31579 201.04L5.31436 201.043ZM17.3344 211.731C18.3451 211.427 19.3897 210.941 20.4482 210.273C21.3455 209.707 22.2197 209.028 23.0635 208.253C23.5739 209.195 23.9874 210.196 24.2898 211.24C22.0649 211.934 19.6811 212.118 17.3318 211.729L17.3344 211.731Z" fill="#95E0E8"/>
<path d="M33.4782 197.693L11.6024 185.878L6.12842 195.998L28.0042 207.813L33.4782 197.693Z" fill="white"/>
<path d="M27.6696 208.437L5.79392 196.623C5.44928 196.436 5.31856 196.006 5.50634 195.658L10.9803 185.539C11.1667 185.194 11.5978 185.064 11.945 185.251L33.8208 197.066C34.1654 197.252 34.2961 197.683 34.1083 198.03L28.6344 208.15C28.448 208.494 28.0169 208.625 27.6696 208.437ZM7.09315 195.71L27.7192 206.85L32.516 197.982L11.89 186.842L7.09315 195.71Z" fill="#E2E2E2"/>
<path d="M5.63312 185.548C-1.80767 186.987 -6.31271 193.354 -2.87978 195.674C0.550527 197.992 9.34614 201.709 9.37229 197.055C9.39844 192.4 2.08689 191.394 2.08689 191.394L5.63312 185.548Z" fill="#F8D4AE"/>
<path d="M-3.27865 196.26C-4.48628 195.445 -4.98052 194.166 -4.67406 192.663C-4.35494 191.099 -3.15059 189.388 -1.37473 187.965C0.5206 186.447 3.2803 184.889 5.81574 184.4C6.19951 184.325 6.57279 184.578 6.64747 184.961C6.72215 185.345 6.46932 185.718 6.08555 185.793C2.24399 186.535 -2.62865 189.761 -3.28077 192.946C-3.47259 193.879 -3.20526 194.598 -2.48217 195.083C0.425533 197.048 6.09532 199.342 8.02543 198.325C8.29629 198.183 8.66018 197.894 8.66449 197.05C8.68621 193.076 2.05866 192.106 1.99203 192.097C1.60301 192.043 1.33222 191.683 1.38475 191.297C1.4387 190.908 1.79668 190.636 2.1857 190.69C2.26427 190.702 4.13725 190.966 6.03774 191.832C8.69781 193.048 10.0972 194.854 10.0854 197.056C10.0768 198.536 9.322 199.247 8.68904 199.581C5.66858 201.174 -1.13975 197.704 -3.27459 196.259L-3.27865 196.26Z" fill="#D3A98C"/>
<path d="M36.3791 186.902C38.0362 188.721 38.7397 190.776 36.9228 192.432C35.106 194.087 32.2826 193.959 30.6255 192.14C28.9684 190.32 29.099 187.503 30.9198 185.846C32.7407 184.189 34.7219 185.082 36.3805 186.899L36.3791 186.902Z" fill="#F8D4AE"/>
<path d="M31.4655 193.691C30.9604 193.418 30.4982 193.06 30.1001 192.62C28.1818 190.517 28.3351 187.243 30.44 185.325C31.467 184.388 32.6616 184.065 33.8877 184.387C34.8949 184.649 35.9099 185.336 36.9013 186.426C37.8954 187.517 38.4845 188.589 38.6537 189.615C38.8597 190.868 38.4252 192.023 37.3982 192.96C36.3781 193.891 35.0568 194.366 33.6779 194.301C32.8897 194.263 32.1363 194.053 31.4629 193.689L31.4655 193.691ZM34.224 186.04C33.9873 185.912 33.7561 185.818 33.5292 185.76C32.7675 185.559 32.0706 185.76 31.3952 186.374C29.8679 187.765 29.757 190.138 31.1478 191.664C31.8227 192.402 32.7441 192.835 33.7422 192.882C34.7403 192.928 35.6988 192.583 36.4403 191.909C37.1117 191.297 37.3782 190.622 37.2506 189.846C37.1285 189.104 36.6433 188.254 35.8496 187.383C35.3015 186.782 34.7473 186.329 34.2186 186.044L34.224 186.04Z" fill="#D3A98C"/>
<path d="M12.1997 196.718C12.0577 196.645 11.9628 196.538 11.9149 196.399C11.8742 196.258 11.8908 196.116 11.9646 195.974L14.0871 191.893C14.1806 191.713 14.298 191.603 14.4394 191.562C14.5855 191.524 14.7201 191.537 14.8432 191.601C14.9662 191.665 15.046 191.748 15.0825 191.851C15.1215 191.95 15.1424 192.06 15.1452 192.182L15.5514 196.567L15.222 196.802L16.945 193.316C17.0141 193.171 17.117 193.077 17.2536 193.034C17.3975 192.989 17.5404 193.003 17.6824 193.077C17.8243 193.151 17.9157 193.258 17.9563 193.4C18.0042 193.539 17.9913 193.679 17.9174 193.821L15.7691 197.952C15.7002 198.084 15.5926 198.176 15.4463 198.226C15.3024 198.271 15.1619 198.258 15.0247 198.187C14.93 198.138 14.8559 198.072 14.8024 197.99C14.7488 197.908 14.7167 197.826 14.7061 197.742L14.2173 193.151L14.6006 193.125L12.9441 196.483C12.875 196.628 12.7686 196.723 12.6247 196.768C12.488 196.811 12.3464 196.795 12.1997 196.718ZM17.6388 199.546C17.4968 199.472 17.4019 199.366 17.354 199.227C17.3133 199.085 17.3299 198.944 17.4037 198.802L19.5151 194.742C19.5865 194.605 19.6941 194.513 19.838 194.468C19.9818 194.423 20.1224 194.436 20.2596 194.507L20.7493 194.762L18.3833 199.311C18.3094 199.453 18.2006 199.547 18.0567 199.592C17.9201 199.635 17.7808 199.62 17.6388 199.546ZM19.958 195.468L20.4157 194.588L22.3819 195.61C22.5097 195.677 22.5928 195.771 22.6315 195.893C22.6748 196.018 22.662 196.147 22.5931 196.279C22.5267 196.407 22.4287 196.491 22.2992 196.532C22.177 196.571 22.0519 196.557 21.9242 196.49L19.958 195.468ZM18.8947 197.53L19.3561 196.643L21.1803 197.591C21.308 197.658 21.39 197.755 21.4261 197.881C21.467 198.011 21.4542 198.14 21.3878 198.267C21.3213 198.395 21.2234 198.479 21.0939 198.52C20.9716 198.559 20.8466 198.545 20.7189 198.479L18.8947 197.53ZM23.6544 197.462C23.5219 197.393 23.4341 197.29 23.3909 197.154C23.3478 197.017 23.3607 196.883 23.4296 196.75C23.5009 196.613 23.6037 196.525 23.7379 196.487C23.8746 196.443 24.0092 196.456 24.1416 196.525L27.1796 198.105C27.3168 198.176 27.4047 198.279 27.4431 198.413C27.4887 198.545 27.4758 198.679 27.4045 198.817C27.3355 198.949 27.2328 199.037 27.0961 199.08C26.9642 199.126 26.8296 199.113 26.6924 199.042L23.6544 197.462ZM23.0398 202.354C22.8979 202.28 22.8053 202.175 22.7622 202.038C22.7215 201.897 22.7381 201.755 22.8119 201.613L24.927 197.547L25.8994 198.052L23.7843 202.119C23.7105 202.261 23.6016 202.355 23.4578 202.4C23.3211 202.443 23.1818 202.428 23.0398 202.354Z" fill="#DD528B"/>
<path d="M30.551 215.375H-9C-8.70793 212.965 -4.98405 212.122 -3.15862 212.001C-2.67184 206.796 1.5875 206.78 3.65633 207.422C4.14311 205.615 6.09023 202 10.593 202C16.0449 202.193 17.5296 206.298 17.773 208.507C21.4725 207.736 23.2087 210.796 23.4927 212.363C28.0684 212.266 30.1048 214.331 30.551 215.375Z" fill="#FFFEFF"/>
</g>
<path d="M402.522 162.115C402.291 161.992 402.165 161.934 402.165 161.934C408.425 155.234 393.883 150.456 393.883 150.456C395.52 146.933 392.595 144.366 387.716 142.881L390.174 143.113C391.286 140.587 393.153 134.581 387.692 131.408C380.951 127.49 371.14 132.237 370.027 141.214L373.16 141.509C369.317 141.749 365.545 142.429 362.412 143.578C359.279 144.728 355.962 146.649 352.876 148.951L355.071 146.701C348.418 140.578 337.867 143.297 335.256 150.646C333.142 156.598 338.45 159.971 340.936 161.178L342.654 159.418C339.892 163.702 339.324 167.55 342.852 169.178C342.852 169.178 334.846 182.229 343.954 183.291C343.954 183.291 339.277 193.331 348.501 200.042C353.04 203.341 358.312 203.665 363.267 202.678C363.295 203.729 363.483 204.762 363.85 205.761C366.483 212.939 377.216 215.605 387.826 211.712C398.435 207.82 404.897 198.846 402.264 191.668C401.881 190.625 401.327 189.681 400.631 188.834C404.77 186.39 408.269 182.83 409.53 177.651C411.926 167.825 404.285 163.072 402.523 162.119L402.522 162.115Z" fill="#F8D4AE"/>
<path d="M348.917 152.219C345.894 154.991 343.36 157.998 341.865 160.737C339.569 158.982 336.063 155.499 338.468 151.947C341.02 148.174 346.357 150.688 348.917 152.219Z" fill="#FFF1E6"/>
<path d="M371.015 167.039C376.766 164.929 382.035 172.92 387.261 172.673C395.244 172.288 399.216 168.288 402.169 161.933C402.169 161.933 412.229 166.566 409.534 177.65C405.682 193.454 380.973 194.181 380.973 194.181C380.973 194.181 361.66 209.605 348.497 200.044C339.275 193.337 343.95 183.293 343.95 183.293C350.312 186.229 355.927 186.708 362.267 181.843C366.414 178.655 365.263 169.15 371.015 167.039Z" fill="#FFF1E6"/>
<path d="M358.787 194.781C362.714 192.573 364.11 187.609 361.904 183.693C359.699 179.777 354.727 178.393 350.799 180.6C346.871 182.808 345.475 187.773 347.681 191.689C349.887 195.605 354.859 196.989 358.787 194.781Z" fill="#FD9DB4"/>
<path d="M400.746 179.392C404.672 177.181 406.063 172.215 403.854 168.301C401.645 164.387 396.672 163.007 392.746 165.218C388.82 167.429 387.429 172.395 389.638 176.309C391.847 180.223 396.82 181.603 400.746 179.392Z" fill="#FD9DB4"/>
<path d="M403.716 161.632C404.669 160.253 404.966 158.829 404.597 157.392C403.581 153.411 397.651 150.777 395.184 149.843C395.634 148.143 395.213 146.54 393.934 145.153C391.649 142.676 386.541 140.986 379.915 140.517C373.551 140.07 366.875 140.857 362.049 142.627C360.002 143.379 357.816 144.483 355.629 145.841C352.217 142.775 347.536 141.606 343.061 142.715C338.889 143.749 335.61 146.587 334.286 150.311C333.258 153.199 333.7 155.973 335.56 158.326C336.914 160.042 338.749 161.217 340.155 161.938C339.68 163.102 339.41 164.19 339.367 165.172C339.289 167.057 340.004 168.552 341.447 169.558C340.173 171.864 337.35 177.71 339.149 181.404C339.797 182.738 340.945 183.632 342.563 184.068C342.2 185.19 341.747 187.005 341.737 189.149C341.723 192.443 342.774 197.148 347.889 200.867C355.619 206.482 365.252 203.928 371.974 200.798C372.485 200.561 372.707 199.955 372.468 199.442C372.232 198.933 371.624 198.709 371.111 198.951C364.889 201.853 356.014 204.251 349.091 199.22C345.57 196.659 343.779 193.296 343.778 189.232C343.777 186.129 344.858 183.745 344.869 183.723C345.009 183.428 344.995 183.081 344.832 182.797C344.673 182.512 344.385 182.32 344.06 182.285C342.48 182.102 341.475 181.522 340.985 180.518C339.572 177.618 342.473 171.738 343.711 169.717C343.863 169.467 343.903 169.168 343.82 168.891C343.736 168.614 343.535 168.386 343.272 168.261C341.937 167.648 341.346 166.691 341.405 165.26C341.524 162.448 344.168 158.248 348.487 154.035C352.854 149.768 358.183 146.223 362.749 144.548C367.316 142.872 373.677 142.128 379.768 142.559C385.788 142.983 390.519 144.472 392.43 146.545C393.402 147.602 393.568 148.711 392.947 150.041C392.825 150.302 392.82 150.607 392.936 150.876C393.052 151.14 393.277 151.347 393.55 151.437C395.801 152.178 401.812 154.787 402.61 157.914C402.887 159 402.493 160.088 401.409 161.254C401.184 161.495 401.092 161.822 401.155 162.142C401.218 162.463 401.43 162.732 401.726 162.872C401.738 162.881 401.847 162.932 402.028 163.028C402.88 163.488 405.051 164.814 406.748 167.168C408.874 170.11 409.47 173.563 408.529 177.427C407.686 180.894 405.679 183.879 402.569 186.303C400.051 188.266 396.815 189.864 392.948 191.061C392.409 191.223 392.109 191.798 392.273 192.334C392.438 192.87 393.01 193.17 393.548 193.005C394.255 192.786 394.945 192.555 395.612 192.311C403.806 189.305 408.941 184.354 410.513 177.91C412.836 168.381 406.304 163.266 403.71 161.652L403.716 161.632ZM347.066 152.569C344.411 155.16 342.364 157.74 341.052 160.101C335.12 157.065 335.464 153.104 336.215 150.99C337.31 147.914 340.051 145.558 343.555 144.692C347.192 143.792 350.992 144.656 353.86 147.005C351.493 148.628 349.171 150.518 347.067 152.573L347.066 152.569Z" fill="#D3A98C"/>
<path d="M388.65 168.217C388.296 166.377 386.515 165.174 384.67 165.53C382.826 165.886 381.618 167.667 381.971 169.507C382.325 171.347 384.107 172.549 385.951 172.193C387.796 171.837 389.004 170.057 388.65 168.217Z" fill="#5F5C5D"/>
<path d="M364.629 177.034C364.275 175.194 362.493 173.992 360.649 174.349C358.804 174.705 357.597 176.486 357.951 178.326C358.305 180.166 360.088 181.368 361.932 181.011C363.776 180.654 364.984 178.874 364.629 177.034Z" fill="#5F5C5D"/>
<path d="M379.871 178.131C380.218 179.078 380.341 180.04 380.262 180.937C380.11 182.758 379.136 184.299 377.587 184.867C376.039 185.435 374.299 184.89 372.997 183.602C372.358 182.969 371.832 182.155 371.485 181.207C370.432 178.337 371.455 175.324 373.774 174.473C376.093 173.622 378.822 175.259 379.875 178.129L379.871 178.131Z" fill="#5F5C5D"/>
<path d="M380.262 180.937C380.11 182.758 379.136 184.299 377.587 184.867C376.039 185.436 374.299 184.891 372.997 183.602C373.153 181.779 374.123 180.239 375.68 179.668C377.236 179.097 378.968 179.645 380.262 180.937Z" fill="#E27FA3"/>
<path d="M377.935 185.828C375.093 186.871 371.769 184.956 370.524 181.564C370.18 180.625 370.021 179.662 370.054 178.702L372.095 178.761C372.071 179.461 372.19 180.167 372.444 180.86C373.303 183.201 375.454 184.571 377.238 183.916C379.022 183.261 379.777 180.825 378.918 178.485C378.699 177.888 378.396 177.344 378.009 176.871L379.599 175.588C380.122 176.236 380.538 176.974 380.834 177.782C382.079 181.174 380.781 184.784 377.939 185.827L377.935 185.828Z" fill="#F8D4AE"/>
<path d="M379.595 175.59C378.205 173.873 376.256 173.03 374.413 173.277L373.206 170.039L371.293 170.75L372.497 173.98C371.03 174.92 370.118 176.642 370.052 178.698C370.036 179.26 370.476 179.73 371.039 179.745C371.601 179.76 372.074 179.32 372.09 178.759C372.141 177.146 372.919 175.871 374.12 175.431C375.394 174.963 376.919 175.529 378.006 176.873C378.287 177.222 378.75 177.336 379.15 177.19C379.253 177.152 379.351 177.098 379.438 177.025C379.878 176.67 379.947 176.03 379.591 175.591L379.595 175.59Z" fill="#D3A98C"/>
<path d="M373.872 168.755C373.183 168.43 372.359 168.728 372.032 169.417L371.953 169.586L371.784 169.508C371.095 169.183 370.271 169.48 369.944 170.169C369.617 170.858 369.914 171.68 370.604 172.005L371.196 172.285C372.339 172.823 373.707 172.33 374.248 171.187L374.53 170.596C374.857 169.907 374.56 169.086 373.87 168.761L373.872 168.755Z" fill="#E27FA3"/>
<path d="M382.306 216.522C374.243 206.973 358.092 191.702 354.156 198.71C350.221 205.723 375.569 228.303 375.569 228.303L382.306 216.522Z" fill="#F8D4AE"/>
<path d="M375.852 229.283C375.528 229.375 375.163 229.305 374.894 229.065C374.831 229.007 368.446 223.305 362.629 216.817C354.434 207.678 351.373 201.592 353.267 198.214C354.023 196.867 355.225 196.082 356.742 195.932C359.778 195.641 364.233 197.922 369.976 202.712C374.216 206.247 379.118 211.165 383.083 215.862C383.445 216.294 383.39 216.933 382.958 217.299C382.525 217.661 381.885 217.607 381.519 217.177C377.624 212.562 372.817 207.74 368.66 204.274C363.499 199.971 359.33 197.729 356.928 197.96C356.072 198.044 355.474 198.439 355.039 199.204C353.14 202.583 360.765 211.688 364.131 215.444C369.874 221.851 376.18 227.487 376.241 227.541C376.659 227.916 376.695 228.558 376.32 228.98C376.185 229.129 376.018 229.231 375.838 229.283L375.852 229.283Z" fill="#D3A98C"/>
<path d="M394.538 212.373C394.23 199.88 396.172 177.735 403.769 180.368C411.365 183.001 407.399 216.715 407.399 216.715L394.542 212.371L394.538 212.373Z" fill="#F8D4AE"/>
<path d="M407.839 217.633C407.67 217.713 407.48 217.751 407.276 217.727C406.717 217.661 406.316 217.158 406.381 216.596C406.391 216.511 407.366 208.109 407.409 199.511C407.433 194.467 407.092 182.6 403.43 181.333C402.6 181.045 401.884 181.145 401.192 181.652C399.24 183.073 397.615 187.517 396.611 194.164C395.803 199.515 395.41 206.307 395.56 212.345C395.577 212.909 395.128 213.376 394.568 213.392C394.002 213.405 393.536 212.962 393.521 212.403C393.368 206.257 393.772 199.325 394.595 193.865C395.713 186.467 397.531 181.808 399.996 180.009C401.228 179.11 402.652 178.903 404.109 179.408C407.767 180.676 409.516 187.257 409.455 199.533C409.414 208.248 408.426 216.749 408.41 216.832C408.37 217.19 408.143 217.485 407.839 217.633Z" fill="#D3A98C"/>
</g>
<defs>
<filter id="filter0_f_1191_343" x="245.7" y="105.7" width="277.6" height="79.6" filterUnits="userSpaceOnUse" color-interpolation-filters="sRGB">
<feFlood flood-opacity="0" result="BackgroundImageFix"/>
<feBlend mode="normal" in="SourceGraphic" in2="BackgroundImageFix" result="shape"/>
<feGaussianBlur stdDeviation="7.65" result="effect1_foregroundBlur_1191_343"/>
</filter>
<filter id="filter1_f_1191_343" x="-12.2" y="116.8" width="79.4" height="35.4" filterUnits="userSpaceOnUse" color-interpolation-filters="sRGB">
<feFlood flood-opacity="0" result="BackgroundImageFix"/>
<feBlend mode="normal" in="SourceGraphic" in2="BackgroundImageFix" result="shape"/>
<feGaussianBlur stdDeviation="3.1" result="effect1_foregroundBlur_1191_343"/>
</filter>
<filter id="filter2_d_1191_343" x="188.507" y="165.992" width="79.4796" height="61.5803" filterUnits="userSpaceOnUse" color-interpolation-filters="sRGB">
<feFlood flood-opacity="0" result="BackgroundImageFix"/>
<feColorMatrix in="SourceAlpha" type="matrix" values="0 0 0 0 0 0 0 0 0 0 0 0 0 0 0 0 0 0 127 0" result="hardAlpha"/>
<feOffset dx="-10" dy="4"/>
<feGaussianBlur stdDeviation="2"/>
<feComposite in2="hardAlpha" operator="out"/>
<feColorMatrix type="matrix" values="0 0 0 0 0 0 0 0 0 0 0 0 0 0 0 0 0 0 0.13 0"/>
<feBlend mode="normal" in2="BackgroundImageFix" result="effect1_dropShadow_1191_343"/>
<feBlend mode="normal" in="SourceGraphic" in2="effect1_dropShadow_1191_343" result="shape"/>
</filter>
<linearGradient id="paint0_linear_1191_343" x1="200" y1="214" x2="200" y2="0" gradientUnits="userSpaceOnUse">
<stop stop-color="white"/>
<stop offset="1" stop-color="#53C3F1"/>
</linearGradient>
<clipPath id="clip0_1191_343">
<rect width="400" height="214" fill="white"/>
</clipPath>
<clipPath id="clip1_1191_343">
<rect width="57" height="86" fill="white" transform="translate(0 128)"/>
</clipPath>
</defs>
</svg>
