<svg width="1920" height="1080" viewBox="0 0 1920 1080" fill="none" xmlns="http://www.w3.org/2000/svg">
<g clip-path="url(#clip0_1171_220)">
<rect width="1920" height="1080" fill="url(#paint0_linear_1171_220)" style="mix-blend-mode:multiply"/>
<g filter="url(#filter0_f_1171_220)">
<path d="M2160 954H1294.06C1292.1 927.749 1339.66 916.327 1363.68 913.897C1375.89 856.778 1428.41 850.702 1462.61 871.362C1483.37 815.459 1546.88 814.243 1582.3 836.118C1598.18 811.813 1628.71 779 1681.23 779C1747.67 780.944 1778.94 834.093 1786.27 860.424C1816.55 850.702 1841.23 862.044 1849.78 868.931L1850.11 868.413C1858.83 854.767 1878.49 823.996 1926.72 826.396C1965.8 828.34 1989.42 864.474 1996.34 882.298C2054.96 860.423 2073.28 913.896 2079.39 913.896C2133.13 913.896 2155.52 940.632 2160 954Z" fill="#FFFEFF"/>
</g>
<path d="M476 720H-169C-157.582 699.411 -110.776 696.973 -88.7998 698.327C-84.0421 645.5 -30.3488 636.018 -9.27924 645.5C-9.95889 641.436 7.03267 571 75.6786 571C136.576 572.084 159.957 618.409 164.035 641.436C188.503 634.934 211.385 654.079 219.767 664.464C246.954 619.764 300.647 644.145 308.803 675.3C346.32 659.588 368.84 685.911 375.41 701.036C439.57 691.284 469.203 709.615 476 720Z" fill="#FFFEFF"/>
<path d="M1514 307H1983C1974.7 292.215 1940.66 290.464 1924.68 291.436C1921.22 253.5 1882.18 246.691 1866.86 253.5C1867.36 250.582 1855 200 1805.09 200C1760.81 200.778 1743.81 234.045 1740.84 250.582C1723.05 245.913 1706.41 259.661 1700.32 267.118C1680.55 235.018 1641.5 252.527 1635.57 274.9C1608.29 263.617 1591.92 282.52 1587.14 293.382C1540.49 286.378 1518.94 299.542 1514 307Z" fill="#FFFEFF"/>
<path d="M-175 160H192C185.503 148.393 158.871 147.018 146.367 147.782C143.66 118 113.109 112.654 101.12 118C101.507 115.709 91.8388 76 52.7798 76C18.1294 76.6109 4.82614 102.727 2.5058 115.709C-11.4162 112.044 -24.4359 122.836 -29.2055 128.691C-44.6744 103.491 -75.2255 117.236 -79.8662 134.8C-101.213 125.942 -114.027 140.782 -117.765 149.309C-154.272 143.811 -171.133 154.145 -175 160Z" fill="#FFFEFF"/>
<g filter="url(#filter1_f_1171_220)">
<path d="M592 240H358C359.728 225.585 381.76 220.541 392.56 219.82C395.44 188.685 420.64 188.589 432.88 192.433C435.76 181.622 447.28 160 473.92 160C506.176 161.153 514.96 185.706 516.4 198.919C538.288 194.306 548.56 212.613 550.24 221.982C577.312 221.405 589.36 233.754 592 240Z" fill="#FFFEFF"/>
</g>
<path d="M1548 676H1332C1333.6 662.666 1353.93 658 1363.9 657.334C1366.56 628.533 1389.82 628.445 1401.12 632C1403.78 622 1414.41 602 1439 602C1468.78 603.067 1476.89 625.778 1478.22 638C1498.42 633.733 1507.9 650.667 1509.45 659.333C1534.44 658.8 1545.56 670.222 1548 676Z" fill="#FFFEFF"/>
<path d="M1928.14 927.342C1927.42 926.959 1927.03 926.778 1927.03 926.778C1946.51 905.927 1901.25 891.058 1901.25 891.058C1906.35 880.094 1897.25 872.104 1882.06 867.484L1889.71 868.205C1893.17 860.344 1898.98 841.653 1881.99 831.781C1861.01 819.587 1830.48 834.359 1827.01 862.295L1836.77 863.215C1824.81 863.962 1813.07 866.077 1803.32 869.654C1793.56 873.231 1783.24 879.211 1773.64 886.375L1780.47 879.371C1759.77 860.316 1726.93 868.778 1718.8 891.649C1712.22 910.172 1728.75 920.669 1736.48 924.424L1741.83 918.948C1733.23 932.279 1731.47 944.256 1742.44 949.323C1742.44 949.323 1717.53 989.935 1745.87 993.242C1745.87 993.242 1731.32 1024.49 1760.02 1045.37C1774.15 1055.64 1790.56 1056.65 1805.98 1053.58C1806.06 1056.85 1806.65 1060.06 1807.79 1063.17C1815.99 1085.51 1849.39 1093.8 1882.4 1081.69C1915.42 1069.58 1935.53 1041.65 1927.34 1019.31C1926.15 1016.07 1924.42 1013.13 1922.26 1010.49C1935.14 1002.89 1946.03 991.806 1949.95 975.691C1957.41 945.111 1933.63 930.318 1928.14 927.354L1928.14 927.342Z" fill="#F8D4AE"/>
<path d="M1761.32 896.546C1751.91 905.17 1744.03 914.529 1739.37 923.053C1732.23 917.593 1721.32 906.752 1728.8 895.698C1736.74 883.958 1753.35 891.779 1761.32 896.546Z" fill="#FFF1E6"/>
<path d="M1830.09 942.666C1847.99 936.099 1864.38 960.965 1880.65 960.199C1905.49 958.998 1917.85 946.55 1927.04 926.774C1927.04 926.774 1958.35 941.194 1949.96 975.687C1937.97 1024.87 1861.08 1027.13 1861.08 1027.13C1861.08 1027.13 1800.97 1075.13 1760.01 1045.38C1731.31 1024.5 1745.86 993.246 1745.86 993.246C1765.66 1002.39 1783.13 1003.87 1802.86 988.737C1815.77 978.815 1812.19 949.233 1830.09 942.666Z" fill="#FFF1E6"/>
<path d="M1792.03 1029C1804.26 1022.13 1808.6 1006.68 1801.74 994.492C1794.87 982.305 1779.4 977.997 1767.18 984.868C1754.95 991.739 1750.61 1007.19 1757.47 1019.38C1764.34 1031.56 1779.81 1035.87 1792.03 1029Z" fill="#FD9DB4"/>
<path d="M1922.61 981.106C1934.83 974.224 1939.16 958.771 1932.29 946.591C1925.41 934.41 1909.93 930.115 1897.72 936.997C1885.5 943.879 1881.17 959.332 1888.04 971.512C1894.92 983.693 1910.4 987.988 1922.61 981.106Z" fill="#FD9DB4"/>
<path d="M1931.86 925.837C1934.82 921.545 1935.75 917.115 1934.6 912.644C1931.43 900.254 1912.98 892.055 1905.3 889.15C1906.7 883.858 1905.39 878.87 1901.41 874.553C1894.3 866.845 1878.41 861.587 1857.79 860.127C1837.98 858.734 1817.21 861.184 1802.19 866.694C1795.82 869.032 1789.01 872.469 1782.21 876.695C1771.59 867.153 1757.02 863.516 1743.09 866.967C1730.11 870.184 1719.91 879.016 1715.79 890.606C1712.59 899.595 1713.96 908.227 1719.75 915.549C1723.97 920.891 1729.68 924.545 1734.05 926.791C1732.57 930.411 1731.73 933.799 1731.6 936.855C1731.35 942.722 1733.58 947.373 1738.07 950.505C1734.11 957.68 1725.32 975.873 1730.92 987.369C1732.94 991.521 1736.51 994.301 1741.54 995.659C1740.42 999.151 1739.01 1004.8 1738.98 1011.47C1738.93 1021.72 1742.2 1036.36 1758.12 1047.94C1782.17 1065.41 1812.15 1057.47 1833.07 1047.72C1834.66 1046.99 1835.35 1045.1 1834.61 1043.5C1833.88 1041.92 1831.98 1041.22 1830.39 1041.98C1811.02 1051.01 1783.4 1058.47 1761.86 1042.81C1750.9 1034.84 1745.33 1024.38 1745.33 1011.73C1745.32 1002.07 1748.69 994.654 1748.72 994.587C1749.16 993.667 1749.11 992.587 1748.61 991.704C1748.11 990.817 1747.22 990.219 1746.2 990.112C1741.29 989.54 1738.16 987.736 1736.63 984.613C1732.24 975.586 1741.27 957.289 1745.12 950.998C1745.59 950.22 1745.72 949.289 1745.46 948.428C1745.2 947.567 1744.57 946.856 1743.75 946.468C1739.6 944.561 1737.76 941.582 1737.94 937.128C1738.31 928.377 1746.54 915.308 1759.98 902.196C1773.57 888.916 1790.16 877.884 1804.37 872.67C1818.58 867.457 1838.37 865.141 1857.33 866.48C1876.06 867.801 1890.79 872.436 1896.73 878.885C1899.76 882.175 1900.28 885.625 1898.34 889.765C1897.96 890.578 1897.95 891.527 1898.31 892.363C1898.67 893.187 1899.37 893.83 1900.22 894.109C1907.22 896.416 1925.93 904.537 1928.42 914.266C1929.28 917.647 1928.05 921.034 1924.68 924.662C1923.98 925.41 1923.69 926.43 1923.89 927.426C1924.08 928.422 1924.74 929.262 1925.66 929.698C1925.7 929.726 1926.04 929.882 1926.6 930.182C1929.25 931.613 1936.01 935.74 1941.29 943.066C1947.91 952.221 1949.76 962.968 1946.83 974.993C1944.21 985.781 1937.96 995.073 1928.29 1002.62C1920.45 1008.72 1910.38 1013.7 1898.34 1017.42C1896.67 1017.93 1895.73 1019.72 1896.25 1021.38C1896.76 1023.05 1898.54 1023.99 1900.21 1023.47C1902.41 1022.79 1904.56 1022.07 1906.63 1021.31C1932.14 1011.96 1948.12 996.548 1953.01 976.495C1960.24 946.84 1939.91 930.922 1931.84 925.9L1931.86 925.837ZM1755.56 897.633C1747.3 905.696 1740.93 913.726 1736.84 921.072C1718.38 911.624 1719.45 899.297 1721.79 892.719C1725.2 883.147 1733.73 875.815 1744.63 873.121C1755.95 870.318 1767.78 873.008 1776.7 880.318C1769.34 885.367 1762.11 891.252 1755.56 897.646L1755.56 897.633Z" fill="#D3A98C"/>
<path d="M1884.97 946.329C1883.87 940.603 1878.32 936.86 1872.58 937.969C1866.85 939.077 1863.09 944.618 1864.19 950.344C1865.29 956.07 1870.83 959.813 1876.57 958.704C1882.31 957.596 1886.07 952.055 1884.97 946.329Z" fill="#5F5C5D"/>
<path d="M1810.22 973.769C1809.11 968.044 1803.57 964.302 1797.83 965.413C1792.09 966.523 1788.33 972.065 1789.43 977.791C1790.54 983.516 1796.08 987.257 1801.82 986.147C1807.56 985.037 1811.32 979.495 1810.22 973.769Z" fill="#5F5C5D"/>
<path d="M1857.65 977.182C1858.73 980.13 1859.11 983.126 1858.87 985.914C1858.39 991.583 1855.36 996.379 1850.54 998.147C1845.72 999.915 1840.31 998.219 1836.26 994.209C1834.27 992.24 1832.63 989.705 1831.55 986.757C1828.27 977.824 1831.46 968.447 1838.67 965.8C1845.89 963.152 1854.38 968.245 1857.66 977.177L1857.65 977.182Z" fill="#5F5C5D"/>
<path d="M1858.87 985.915C1858.39 991.584 1855.36 996.38 1850.54 998.148C1845.72 999.916 1840.31 998.22 1836.26 994.21C1836.74 988.536 1839.76 983.745 1844.61 981.968C1849.45 980.191 1854.84 981.896 1858.87 985.915Z" fill="#E27FA3"/>
<path d="M1851.63 1001.14C1842.78 1004.38 1832.43 998.424 1828.56 987.869C1827.49 984.945 1827 981.949 1827.1 978.96L1833.45 979.145C1833.38 981.323 1833.75 983.521 1834.54 985.677C1837.21 992.961 1843.9 997.224 1849.46 995.187C1855.01 993.15 1857.36 985.569 1854.68 978.285C1854 976.426 1853.06 974.735 1851.86 973.264L1856.8 969.27C1858.43 971.288 1859.72 973.582 1860.65 976.097C1864.52 986.653 1860.48 997.889 1851.64 1001.13L1851.63 1001.14Z" fill="#F8D4AE"/>
<path d="M1856.79 969.275C1852.46 963.933 1846.4 961.308 1840.66 962.077L1836.91 951.999L1830.96 954.211L1834.7 964.265C1830.14 967.19 1827.3 972.548 1827.09 978.948C1827.04 980.695 1828.41 982.16 1830.16 982.207C1831.91 982.253 1833.38 980.884 1833.43 979.137C1833.59 974.117 1836.01 970.15 1839.75 968.779C1843.72 967.325 1848.46 969.084 1851.84 973.269C1852.72 974.353 1854.16 974.709 1855.4 974.253C1855.73 974.135 1856.03 973.967 1856.3 973.741C1857.67 972.635 1857.89 970.644 1856.78 969.279L1856.79 969.275Z" fill="#D3A98C"/>
<path d="M1838.98 948.006C1836.83 946.994 1834.27 947.921 1833.25 950.065L1833.01 950.59L1832.48 950.347C1830.34 949.336 1827.77 950.262 1826.76 952.407C1825.74 954.551 1826.66 957.108 1828.81 958.119L1830.65 958.99C1834.21 960.664 1838.47 959.13 1840.15 955.574L1841.03 953.735C1842.04 951.591 1841.12 949.034 1838.97 948.023L1838.98 948.006Z" fill="#E27FA3"/>
<path d="M1865.23 1096.66C1840.13 1066.94 1789.87 1019.42 1777.62 1041.23C1765.38 1063.05 1844.26 1133.32 1844.26 1133.32L1865.23 1096.66Z" fill="#F8D4AE"/>
<path d="M1845.14 1136.37C1844.13 1136.66 1843 1136.44 1842.16 1135.69C1841.97 1135.51 1822.09 1117.77 1803.99 1097.58C1778.49 1069.13 1768.96 1050.2 1774.86 1039.68C1777.21 1035.49 1780.95 1033.05 1785.67 1032.58C1795.12 1031.67 1808.98 1038.77 1826.85 1053.68C1840.05 1064.68 1855.31 1079.99 1867.65 1094.6C1868.77 1095.95 1868.6 1097.94 1867.26 1099.08C1865.91 1100.2 1863.92 1100.04 1862.78 1098.7C1850.66 1084.33 1835.7 1069.33 1822.76 1058.54C1806.7 1045.15 1793.72 1038.17 1786.25 1038.89C1783.58 1039.15 1781.72 1040.38 1780.37 1042.76C1774.46 1053.28 1798.19 1081.61 1808.67 1093.3C1826.54 1113.24 1846.16 1130.78 1846.35 1130.95C1847.65 1132.12 1847.77 1134.11 1846.6 1135.43C1846.18 1135.89 1845.66 1136.21 1845.1 1136.37L1845.14 1136.37Z" fill="#D3A98C"/>
<path d="M1903.29 1083.75C1902.33 1044.87 1908.38 975.951 1932.02 984.146C1955.66 992.341 1943.32 1097.26 1943.32 1097.26L1903.31 1083.74L1903.29 1083.75Z" fill="#F8D4AE"/>
<path d="M1944.69 1100.12C1944.16 1100.37 1943.57 1100.48 1942.93 1100.41C1941.2 1100.2 1939.95 1098.64 1940.15 1096.89C1940.18 1096.63 1943.21 1070.48 1943.35 1043.72C1943.42 1028.02 1942.36 991.091 1930.96 987.148C1928.38 986.254 1926.16 986.565 1924 988.143C1917.93 992.564 1912.87 1006.4 1909.75 1027.08C1907.23 1043.73 1906.01 1064.87 1906.48 1083.66C1906.53 1085.41 1905.13 1086.87 1903.39 1086.92C1901.63 1086.96 1900.17 1085.58 1900.13 1083.84C1899.65 1064.72 1900.91 1043.14 1903.47 1026.15C1906.95 1003.13 1912.61 988.626 1920.28 983.028C1924.11 980.23 1928.54 979.588 1933.08 981.157C1944.46 985.105 1949.91 1005.58 1949.72 1043.79C1949.59 1070.91 1946.51 1097.37 1946.47 1097.62C1946.34 1098.74 1945.63 1099.66 1944.69 1100.12Z" fill="#D3A98C"/>
<path d="M879.476 115.355C878.314 119.251 876.174 122.236 874.272 124.889C873.936 125.361 873.608 125.818 873.297 126.264C872.868 125.927 872.434 125.585 871.982 125.234C868.234 122.294 863.985 118.965 860.737 114.363L858.34 110.968L858.648 115.111C859.646 128.565 859.33 136.606 858.386 149.969C849.98 149.958 840.219 144.302 833.493 138.675C835.017 134.952 836.269 132.671 838.608 129.403L845.4 136.572L845.673 134.109C846.499 126.67 846.531 87.3614 846.056 72.7612C856.2 72.6574 866.919 74.0616 878.766 77.042C879.172 79.818 878.36 83.6529 877.756 86.5124C877.721 86.6733 877.69 86.8315 877.655 86.9869C870.233 86.6041 865.642 85.531 857.946 83.224L855.452 82.476L856.577 84.8237C860.363 92.7262 874.401 110.071 879.476 115.355H879.476Z" fill="white"/>
<path d="M842.759 72.8736C842.27 95.9744 837.649 107.283 821.977 123.739C818.421 119.766 816.888 117.22 815.087 113.365C823.815 103.086 827.451 96.6619 831.105 85.1777L831.948 82.5252L829.477 83.8081C826.007 85.6088 823.838 86.2074 820.283 86.8631C819.37 83.2496 819.149 80.8508 819.362 77.0215C828.715 74.7375 836.028 73.4398 842.76 72.873L842.759 72.8736Z" fill="white"/>
<path d="M897.236 134.394C895.985 134.394 894.916 133.95 894.029 133.063C893.142 132.135 892.698 131.047 892.698 129.796V106.565C892.698 105.315 893.142 104.246 894.029 103.359C894.916 102.472 895.985 102.028 897.236 102.028C898.486 102.028 899.555 102.472 900.442 103.359C901.329 104.246 901.773 105.315 901.773 106.565V129.796C901.773 131.047 901.329 132.135 900.442 133.063C899.555 133.95 898.486 134.394 897.236 134.394ZM897.175 99.1845C895.804 99.1845 894.674 98.7408 893.787 97.8535C892.9 96.9662 892.456 95.716 892.456 94.1027C892.456 92.4894 892.9 91.2391 893.787 90.3518C894.674 89.4645 895.804 89.0209 897.175 89.0209C898.627 89.0209 899.797 89.4645 900.684 90.3518C901.571 91.2391 902.015 92.4894 902.015 94.1027C902.015 95.716 901.571 96.9662 900.684 97.8535C899.797 98.7408 898.627 99.1845 897.175 99.1845ZM913.451 133.789C912.08 133.789 910.951 133.386 910.063 132.579C909.176 131.732 908.652 130.704 908.49 129.494C908.329 128.284 908.652 127.134 909.458 126.045L922.768 108.32L928.394 111.102H913.149C911.898 111.102 910.83 110.699 909.942 109.893C909.055 109.046 908.611 108.037 908.611 106.868C908.611 105.698 909.055 104.71 909.942 103.903C910.83 103.056 911.898 102.633 913.149 102.633H928.394C929.806 102.633 930.935 103.056 931.782 103.903C932.669 104.75 933.194 105.779 933.355 106.989C933.516 108.199 933.173 109.368 932.326 110.498L919.319 127.86L913.451 125.319H930.028C931.278 125.319 932.347 125.743 933.234 126.59C934.121 127.396 934.565 128.385 934.565 129.554C934.565 130.684 934.121 131.672 933.234 132.519C932.347 133.366 931.278 133.789 930.028 133.789H913.451ZM952.213 134.394C949.672 134.394 947.555 133.91 945.861 132.942C944.207 131.974 942.957 130.583 942.11 128.768C941.303 126.953 940.9 124.795 940.9 122.295V106.263C940.9 105.012 941.344 103.944 942.231 103.056C943.118 102.169 944.187 101.725 945.437 101.725C946.688 101.725 947.756 102.169 948.644 103.056C949.531 103.944 949.975 105.012 949.975 106.263V120.54C949.975 122.637 950.459 124.049 951.427 124.775C952.435 125.501 953.726 125.864 955.298 125.864C956.629 125.864 957.718 125.561 958.565 124.956C959.453 124.351 960.098 123.585 960.501 122.658C960.945 121.69 961.167 120.661 961.167 119.572V106.263C961.167 105.012 961.61 103.944 962.498 103.056C963.385 102.169 964.454 101.725 965.704 101.725C966.995 101.725 968.063 102.169 968.91 103.056C969.798 103.944 970.241 105.012 970.241 106.263V129.796C970.241 131.047 969.798 132.115 968.91 133.003C968.063 133.89 966.995 134.334 965.704 134.334C964.454 134.334 963.385 133.89 962.498 133.003C961.61 132.115 961.167 131.047 961.167 129.796V125.985L962.982 126.65C961.691 129.232 960.199 131.168 958.505 132.458C956.811 133.749 954.714 134.394 952.213 134.394ZM984.042 134.394C982.751 134.394 981.642 133.93 980.715 133.003C979.787 132.075 979.323 130.966 979.323 129.675V96.1596C979.323 94.869 979.787 93.7599 980.715 92.8322C981.642 91.9046 982.751 91.4408 984.042 91.4408H988.761V129.675C988.761 130.966 988.297 132.075 987.369 133.003C986.442 133.93 985.332 134.394 984.042 134.394ZM986.946 118.362V109.893H996.141C997.069 109.893 997.876 109.691 998.561 109.288C999.287 108.884 999.852 108.32 1000.26 107.594C1000.66 106.868 1000.86 106.041 1000.86 105.113C1000.86 104.024 1000.66 103.097 1000.26 102.33C999.852 101.524 999.247 100.919 998.44 100.515C997.674 100.112 996.746 99.9105 995.657 99.9105H986.946V91.4408H996.504C999.207 91.4408 1001.61 92.0054 1003.7 93.1347C1005.8 94.264 1007.45 95.837 1008.66 97.8535C1009.91 99.8701 1010.54 102.23 1010.54 104.932C1010.54 107.634 1009.93 109.993 1008.72 112.01C1007.51 114.027 1005.9 115.599 1003.89 116.729C1001.87 117.818 999.65 118.362 997.23 118.362H986.946ZM1024 134.697C1022.27 134.697 1020.58 134.354 1018.92 133.668C1017.31 132.982 1015.96 131.954 1014.87 130.583C1013.82 129.171 1013.3 127.396 1013.3 125.259C1013.3 122.153 1014.24 119.794 1016.14 118.181C1018.08 116.527 1021.22 115.357 1025.58 114.672C1026.79 114.47 1027.92 114.289 1028.97 114.127C1030.01 113.966 1030.86 113.724 1031.51 113.401C1032.15 113.038 1032.47 112.494 1032.47 111.768C1032.47 111.203 1032.31 110.74 1031.99 110.377C1031.71 109.973 1031.28 109.691 1030.72 109.53C1030.2 109.328 1029.55 109.227 1028.78 109.227C1027.78 109.227 1026.91 109.409 1026.18 109.772C1025.5 110.135 1024.85 110.619 1024.25 111.223C1023.68 111.788 1023.02 112.252 1022.25 112.615C1021.52 112.978 1020.7 113.159 1019.77 113.159C1018.52 113.159 1017.51 112.837 1016.74 112.191C1015.98 111.546 1015.6 110.659 1015.6 109.53C1015.6 108.441 1015.94 107.432 1016.62 106.505C1017.31 105.577 1018.24 104.77 1019.41 104.085C1020.58 103.359 1021.95 102.794 1023.52 102.391C1025.09 101.988 1026.75 101.786 1028.48 101.786C1031.22 101.786 1033.56 102.29 1035.5 103.298C1037.43 104.266 1038.91 105.638 1039.92 107.412C1040.96 109.187 1041.49 111.264 1041.49 113.643V124.593C1041.49 125.118 1041.55 125.481 1041.67 125.682C1041.79 125.844 1042.05 126.005 1042.46 126.166C1043.14 126.449 1043.79 126.913 1044.39 127.558C1045.04 128.163 1045.36 129.01 1045.36 130.099C1045.36 131.309 1044.92 132.337 1044.03 133.184C1043.14 134.031 1041.87 134.434 1040.22 134.394C1038.4 134.354 1036.99 133.93 1035.98 133.124C1035.01 132.277 1034.37 131.188 1034.05 129.857L1033.99 129.615H1033.8C1032.68 131.309 1031.38 132.579 1029.93 133.426C1028.52 134.273 1026.55 134.697 1024 134.697ZM1026.36 127.074C1027.45 127.074 1028.46 126.852 1029.39 126.408C1030.32 125.965 1031.06 125.319 1031.63 124.472C1032.19 123.585 1032.47 122.537 1032.47 121.327V119.814C1032.47 119.693 1032.43 119.633 1032.35 119.633C1032.31 119.633 1032.21 119.673 1032.05 119.754C1031.61 119.996 1031.1 120.197 1030.54 120.359C1029.97 120.48 1029.37 120.58 1028.72 120.661C1028.08 120.742 1027.35 120.883 1026.55 121.085C1024.81 121.488 1023.68 121.972 1023.16 122.537C1022.67 123.061 1022.43 123.666 1022.43 124.351C1022.43 125.279 1022.75 125.965 1023.4 126.408C1024.08 126.852 1025.07 127.074 1026.36 127.074ZM1062.41 134.878C1059.71 134.878 1057.35 134.475 1055.33 133.668C1053.32 132.861 1051.74 131.853 1050.61 130.643C1049.52 129.433 1048.98 128.264 1048.98 127.134C1048.98 126.207 1049.34 125.299 1050.07 124.412C1050.8 123.525 1051.88 123.081 1053.34 123.081C1054.34 123.081 1055.17 123.283 1055.82 123.686C1056.46 124.049 1056.93 124.372 1057.21 124.654C1058.38 125.662 1059.45 126.368 1060.41 126.771C1061.38 127.134 1062.31 127.316 1063.2 127.316C1064.25 127.316 1064.97 127.134 1065.38 126.771C1065.82 126.368 1066.04 125.904 1066.04 125.38C1066.04 124.896 1065.84 124.452 1065.44 124.049C1065.03 123.646 1064.43 123.262 1063.62 122.9C1062.81 122.496 1061.81 122.093 1060.6 121.69C1059.18 121.206 1057.83 120.701 1056.54 120.177C1055.29 119.612 1054.18 118.947 1053.22 118.181C1052.25 117.414 1051.48 116.487 1050.92 115.398C1050.39 114.309 1050.13 112.978 1050.13 111.405C1050.13 109.509 1050.63 107.836 1051.64 106.384C1052.69 104.891 1054.1 103.722 1055.88 102.875C1057.69 102.028 1059.75 101.604 1062.05 101.604C1064.23 101.604 1066.16 101.967 1067.86 102.693C1069.59 103.419 1070.94 104.367 1071.91 105.537C1072.92 106.666 1073.42 107.916 1073.42 109.288C1073.42 110.296 1073.12 111.163 1072.51 111.889C1071.95 112.615 1071.04 112.978 1069.79 112.978C1068.74 112.978 1067.88 112.756 1067.19 112.312C1066.5 111.828 1065.96 111.405 1065.56 111.042C1065.27 110.76 1064.95 110.477 1064.59 110.195C1064.27 109.913 1063.86 109.671 1063.38 109.469C1062.94 109.267 1062.37 109.167 1061.68 109.167C1060.72 109.167 1060.05 109.348 1059.69 109.711C1059.37 110.074 1059.2 110.477 1059.2 110.921C1059.2 111.526 1059.45 112.03 1059.93 112.433C1060.41 112.796 1061.2 113.18 1062.29 113.583C1063.38 113.986 1064.83 114.531 1066.65 115.216C1068.1 115.741 1069.35 116.325 1070.4 116.971C1071.49 117.576 1072.37 118.261 1073.06 119.028C1073.78 119.754 1074.31 120.58 1074.63 121.508C1074.99 122.395 1075.18 123.424 1075.18 124.593C1075.18 126.691 1074.65 128.526 1073.6 130.099C1072.55 131.631 1071.06 132.821 1069.13 133.668C1067.23 134.475 1064.99 134.878 1062.41 134.878ZM1093.43 134.878C1090.73 134.878 1088.37 134.475 1086.35 133.668C1084.33 132.861 1082.76 131.853 1081.63 130.643C1080.54 129.433 1080 128.264 1080 127.134C1080 126.207 1080.36 125.299 1081.09 124.412C1081.81 123.525 1082.9 123.081 1084.35 123.081C1085.36 123.081 1086.19 123.283 1086.83 123.686C1087.48 124.049 1087.94 124.372 1088.22 124.654C1089.39 125.662 1090.46 126.368 1091.43 126.771C1092.4 127.134 1093.33 127.316 1094.21 127.316C1095.26 127.316 1095.99 127.134 1096.39 126.771C1096.84 126.368 1097.06 125.904 1097.06 125.38C1097.06 124.896 1096.86 124.452 1096.45 124.049C1096.05 123.646 1095.44 123.262 1094.64 122.9C1093.83 122.496 1092.82 122.093 1091.61 121.69C1090.2 121.206 1088.85 120.701 1087.56 120.177C1086.31 119.612 1085.2 118.947 1084.23 118.181C1083.26 117.414 1082.5 116.487 1081.93 115.398C1081.41 114.309 1081.15 112.978 1081.15 111.405C1081.15 109.509 1081.65 107.836 1082.66 106.384C1083.71 104.891 1085.12 103.722 1086.89 102.875C1088.71 102.028 1090.77 101.604 1093.06 101.604C1095.24 101.604 1097.18 101.967 1098.87 102.693C1100.61 103.419 1101.96 104.367 1102.93 105.537C1103.93 106.666 1104.44 107.916 1104.44 109.288C1104.44 110.296 1104.14 111.163 1103.53 111.889C1102.97 112.615 1102.06 112.978 1100.81 112.978C1099.76 112.978 1098.89 112.756 1098.21 112.312C1097.52 111.828 1096.98 111.405 1096.57 111.042C1096.29 110.76 1095.97 110.477 1095.61 110.195C1095.28 109.913 1094.88 109.671 1094.4 109.469C1093.95 109.267 1093.39 109.167 1092.7 109.167C1091.73 109.167 1091.07 109.348 1090.71 109.711C1090.38 110.074 1090.22 110.477 1090.22 110.921C1090.22 111.526 1090.46 112.03 1090.95 112.433C1091.43 112.796 1092.22 113.18 1093.31 113.583C1094.4 113.986 1095.85 114.531 1097.66 115.216C1099.11 115.741 1100.36 116.325 1101.41 116.971C1102.5 117.576 1103.39 118.261 1104.08 119.028C1104.8 119.754 1105.33 120.58 1105.65 121.508C1106.01 122.395 1106.19 123.424 1106.19 124.593C1106.19 126.691 1105.67 128.526 1104.62 130.099C1103.57 131.631 1102.08 132.821 1100.14 133.668C1098.25 134.475 1096.01 134.878 1093.43 134.878Z" fill="white"/>
<path d="M940.291 923.695L945.827 928.342C952.74 924.083 967.29 912.666 959.375 895.893C949.61 875.18 917.951 870.325 900.286 890.177L907.366 896.115C897.671 890.302 887.405 885.655 877.918 883.213C868.418 880.771 857.179 879.897 845.884 880.313L854.953 878.524C849.097 852.623 819.023 841.621 800.44 855.064C785.389 865.941 792.595 882.949 796.573 890.011L803.695 888.61C789.854 894.367 782.037 902.746 787.851 912.555C787.851 912.555 746.706 930.798 766.958 948.542C766.958 948.542 766.597 948.75 765.971 949.18C761.088 952.482 740.126 968.63 749.988 996.654C759.795 1024.53 791.245 1033.2 813.835 1035.75C799.48 1040.35 789.409 1051.12 789.409 1063.66C789.409 1080.39 807.353 1093.96 829.484 1093.96C851.615 1093.96 874.204 1080.39 874.204 1063.66C874.204 1058.56 867.973 1050.62 869.558 1051.15C889.867 1057.88 916.004 1061.11 934.991 1044.18C960.015 1021.86 943.42 993.879 943.42 993.879C969.752 988.094 942.544 952.301 942.544 952.301C952.392 946.502 949.61 935.432 940.291 923.709V923.695Z" fill="#F8D4AE"/>
<path d="M919.871 904.48C929.524 911.694 937.801 919.74 942.961 927.315C949.165 921.516 958.401 910.293 950.334 900.623C941.779 890.343 926.895 899.264 919.857 904.48H919.871Z" fill="#FFF1E6"/>
<path d="M799.563 890.482C807.756 886.348 818.884 883.282 830.847 881.617C827.203 873.654 818.481 858.671 806.032 863.554C794.278 868.146 796.934 882.408 799.563 890.482Z" fill="#FFF1E6"/>
<path d="M859.543 954.298C842.114 949.817 829.025 974.733 813.668 975.537C790.216 976.758 777.433 966.229 766.944 948.526C766.944 948.526 738.86 965.035 749.974 996.625C765.832 1041.7 838.303 1036.55 838.303 1036.55C838.303 1036.55 899.27 1075.97 934.977 1044.14C960.001 1021.82 943.406 993.836 943.406 993.836C925.657 1004.3 909.369 1007.35 889.422 994.988C876.374 986.886 876.972 958.765 859.543 954.284V954.298Z" fill="#FFF1E6"/>
<path d="M889.784 1003.95C893.08 991.16 906.156 983.46 918.981 986.762C931.806 990.05 939.526 1003.09 936.215 1015.88C932.918 1028.67 919.843 1036.37 907.018 1033.07C894.193 1029.78 886.473 1016.74 889.784 1003.95Z" fill="#FD9DB4"/>
<path d="M805.04 991.543C812.953 980.951 810.759 965.966 800.138 958.074C789.518 950.181 774.494 952.37 766.58 962.962C758.667 973.554 760.862 988.539 771.482 996.431C782.102 1004.32 797.127 1002.13 805.04 991.543Z" fill="#FD9DB4"/>
<path d="M960.961 918.589C965.788 911.056 966.274 902.718 962.38 894.478C957.386 883.879 946.87 876.47 934.254 874.667C920.831 872.738 907.435 877.497 898.283 887.43C891.55 884.142 884.887 881.589 878.725 880.008C872.563 878.426 865.497 877.455 857.999 877.095C854.786 863.998 845.369 853.371 832.683 848.585C820.762 844.09 807.965 845.519 798.465 852.386C791.064 857.741 787.448 865.275 788.032 874.195C788.435 880.535 790.842 886.362 793.012 890.468C789.993 892.466 787.587 894.616 785.876 896.892C782.524 901.331 781.703 906.159 783.442 911.001C776.32 914.594 760.017 924.014 758.195 935.945C757.541 940.259 758.765 944.324 761.867 948.084C754.537 953.799 737.344 970.711 746.845 997.763C751.56 1011.16 761.367 1021.63 776.014 1028.87C786.558 1034.08 799.396 1037.54 814.183 1039.13C816.005 1039.33 817.646 1038.01 817.855 1036.19C818.05 1034.37 816.728 1032.74 814.906 1032.53C772.995 1027.98 758.181 1009.92 753.132 995.558C749.293 984.626 750.03 974.456 755.344 965.314C759.6 957.989 765.512 953.522 767.835 951.94C768.336 951.607 768.628 951.427 768.655 951.413C769.574 950.872 770.172 949.929 770.269 948.86C770.366 947.806 769.949 946.766 769.156 946.058C765.734 943.061 764.302 940.079 764.775 936.943C766.179 927.718 782.885 918.409 789.2 915.593C790.063 915.204 790.731 914.469 791.023 913.567C791.315 912.665 791.204 911.68 790.717 910.876C788.602 907.296 788.755 904.106 791.204 900.859C796.142 894.311 809.481 888.609 826.869 885.613C844.507 882.574 863.285 882.88 877.07 886.417C890.869 889.955 907.449 898.737 921.415 909.891C935.2 920.892 944.116 932.31 945.27 940.426C945.841 944.449 944.436 947.307 940.847 949.429C940.026 949.915 939.456 950.719 939.275 951.649C939.094 952.578 939.317 953.536 939.887 954.299C939.929 954.354 943.824 959.515 947.093 966.035C951.154 974.124 952.49 980.602 950.946 984.764C949.847 987.733 947.148 989.661 942.697 990.633C941.654 990.855 940.791 991.576 940.36 992.547C939.929 993.518 939.999 994.642 940.541 995.558C941.153 996.612 955.383 1021.53 932.751 1041.7C921.248 1051.95 899.27 1060.66 859.877 1043.95C858.194 1043.23 856.233 1044.02 855.509 1045.7C854.786 1047.39 855.579 1049.33 857.262 1050.05C871.075 1055.91 884.094 1059.18 895.96 1059.8C897.309 1059.87 898.63 1059.92 899.938 1059.92C914.78 1059.92 927.285 1055.46 937.175 1046.65C951.154 1034.19 952.879 1020.02 951.864 1010.32C951.224 1004.21 949.471 999.137 948.08 995.918C952.601 994.115 955.647 991.146 957.163 987.053C961.35 975.733 951.627 959.612 947.134 953.036C951.001 949.623 952.615 945.004 951.836 939.51C951.433 936.694 950.375 933.642 948.692 930.451C952.587 927.912 957.511 923.958 960.933 918.603L960.961 918.589ZM825.742 879.065C815.101 880.896 805.92 883.684 798.812 887.166C794.709 879.384 790.536 866.301 802.373 857.741C810.065 852.178 820.526 851.068 830.346 854.773C840.417 858.56 848.012 866.731 851.072 876.9C842.754 876.9 834.116 877.622 825.742 879.065ZM945.243 924.777C940.694 918.312 934.017 911.445 925.588 904.716C918.953 899.416 911.72 894.63 904.445 890.621C912.053 883.199 922.667 879.703 933.308 881.229C943.699 882.727 952.309 888.734 956.357 897.294C962.574 910.487 952.601 919.935 945.229 924.777H945.243Z" fill="#D3A98C"/>
<path d="M808.577 961.359C807.2 966.687 810.413 972.125 815.769 973.498C821.11 974.872 826.563 971.667 827.94 966.326C829.317 960.999 826.104 955.56 820.748 954.187C815.407 952.813 809.954 956.018 808.577 961.359Z" fill="#5F5C5D"/>
<path d="M881.396 980.062C880.019 985.389 883.232 990.827 888.587 992.201C893.929 993.574 899.382 990.369 900.759 985.028C902.136 979.701 898.922 974.263 893.567 972.889C888.212 971.516 882.773 974.72 881.396 980.062Z" fill="#5F5C5D"/>
<path d="M832.989 988.954C831.904 993.158 831.89 997.306 832.766 1001.01C834.129 1006.81 837.663 1011.48 842.628 1013.39C843.115 1013.59 843.63 1013.75 844.159 1013.88C849.945 1015.37 855.968 1012.96 860.378 1008.07C861.49 1006.84 862.52 1005.44 863.396 1003.91C864.523 1001.95 865.413 999.776 866.011 997.431C866.748 994.573 866.915 991.965 866.637 989.648C866.609 989.412 866.581 989.176 866.512 988.941C865.427 982.656 860.781 978.508 854.535 976.718C854.299 976.649 854.062 976.58 853.812 976.524C853.562 976.455 853.325 976.399 853.089 976.344C846.746 974.915 840.667 976.302 836.661 981.283C836.508 981.449 836.369 981.643 836.23 981.824C834.853 983.724 833.74 986.083 833.003 988.954H832.989Z" fill="#5F5C5D"/>
<path d="M832.767 1001C834.13 1006.8 837.663 1011.47 842.629 1013.37C843.116 1013.58 843.63 1013.73 844.159 1013.87C849.945 1015.35 855.982 1012.94 860.378 1008.06C859.015 1002.26 855.482 997.583 850.516 995.683C850.029 995.475 849.514 995.322 848.986 995.183C843.199 993.699 837.162 996.113 832.767 1001Z" fill="#E27FA3"/>
<path d="M847.553 1017.62C846.148 1017.62 844.729 1017.44 843.324 1017.07C832.446 1014.29 826.368 1001.29 829.762 988.108C830.582 984.917 831.848 982.142 833.531 979.853L838.901 983.765C837.718 985.375 836.814 987.386 836.202 989.758C833.712 999.4 837.649 1008.76 844.979 1010.65C852.31 1012.54 860.294 1006.23 862.784 996.584C863.396 994.226 863.577 992.034 863.327 990.064L869.92 989.231C870.268 992.034 870.045 995.058 869.224 998.235C866.262 1009.71 857.067 1017.6 847.553 1017.6V1017.62Z" fill="#F8D4AE"/>
<path d="M869.92 989.245C869.044 982.35 864.69 977.037 857.804 974.304L859.501 967.742L853.061 966.091L851.364 972.653C844.033 971.723 837.649 974.262 833.545 979.853C832.46 981.337 832.78 983.405 834.269 984.487C835.757 985.569 837.83 985.25 838.915 983.765C843.046 978.147 849.5 978.799 852.978 979.7C856.469 980.602 862.45 983.141 863.327 990.064C863.535 991.742 864.968 992.963 866.623 992.963C866.762 992.963 866.901 992.963 867.041 992.935C868.863 992.7 870.156 991.049 869.92 989.231V989.245Z" fill="#D3A98C"/>
<path d="M851.684 960.153C853.604 959.002 856.108 959.626 857.262 961.541L857.54 961.999L857.999 961.721C859.919 960.57 862.423 961.194 863.577 963.108C864.732 965.023 864.106 967.52 862.186 968.672L860.531 969.657C857.332 971.571 853.2 970.531 851.281 967.34L850.293 965.689C849.139 963.774 849.765 961.277 851.684 960.126V960.153Z" fill="#E27FA3"/>
<path d="M789.395 1066.02C789.395 1066.02 776.709 1008.99 779.13 980.782L787.239 983.64L797.393 989.98L815.337 1062.41L789.381 1066.02H789.395Z" fill="#F8D4AE"/>
<path d="M810.004 1063.81L824.935 1060.11L790.094 920.22L775.163 923.919L810.004 1063.81Z" fill="#FFBE8D"/>
<path d="M809.996 1067.13C809.397 1067.13 808.799 1066.96 808.285 1066.66C807.533 1066.2 806.991 1065.46 806.768 1064.62L771.924 924.734C771.548 923.236 772.272 921.668 773.649 920.975C775.04 920.281 776.723 920.628 777.71 921.821L800.328 948.984C800.648 949.373 800.871 949.817 800.996 950.302L828.148 1059.33C828.593 1061.11 827.508 1062.91 825.728 1063.35L810.788 1067.06C810.524 1067.13 810.26 1067.16 809.982 1067.16L809.996 1067.13ZM781.897 937.192L812.43 1059.79L820.915 1057.69L794.75 952.619L781.911 937.192H781.897Z" fill="#EA9C71"/>
<path d="M797.783 951.081C751.755 931.006 727.871 999.887 681.843 979.798C674.999 952.343 668.17 924.888 661.326 897.433C707.354 917.508 731.237 848.627 777.266 868.716C784.109 896.171 790.939 923.626 797.783 951.081Z" fill="#A3D676"/>
<path d="M698.785 986.873C693.055 986.873 686.99 985.68 680.508 982.85C679.562 982.433 678.866 981.615 678.616 980.616L658.099 898.251C657.793 897.03 658.21 895.726 659.184 894.921C660.157 894.103 661.507 893.909 662.661 894.422C683.971 903.717 700.204 892.383 717.397 880.382C735.327 867.855 753.883 854.911 778.601 865.705C779.547 866.121 780.242 866.939 780.493 867.938L801.01 950.303C801.316 951.524 800.899 952.828 799.925 953.633C798.951 954.451 797.602 954.646 796.447 954.132C775.137 944.837 758.904 956.172 741.726 968.172C728.497 977.411 714.921 986.873 698.799 986.873H698.785ZM684.667 977.384C705.24 985.527 721.125 974.443 737.9 962.72C754.342 951.247 771.284 939.413 793.039 945.822L774.442 871.129C753.869 862.985 737.984 874.07 721.208 885.793C707.98 895.032 694.404 904.494 678.282 904.508C674.373 904.508 670.312 903.953 666.069 902.704L684.667 977.398V977.384Z" fill="#87B758"/>
<path d="M779.603 983.96C778.031 973.597 780.409 964.648 790.8 963.081C801.191 961.513 810.886 968.644 812.458 979.021C814.03 989.384 806.88 999.054 796.475 1000.62C786.085 1002.19 781.16 994.337 779.589 983.974L779.603 983.96Z" fill="#F8D4AE"/>
<path d="M815.754 978.508C813.918 966.355 802.498 957.947 790.313 959.793C781.063 961.18 775.986 967.756 775.861 978.147C773.44 1006.53 785.639 1064.4 786.154 1066.74C786.502 1068.28 787.879 1069.34 789.395 1069.34C789.631 1069.34 789.882 1069.31 790.118 1069.25C791.913 1068.85 793.039 1067.09 792.65 1065.3C792.553 1064.84 784.387 1027.84 782.523 999.234C785.528 1002.45 789.423 1004.12 793.958 1004.12C794.945 1004.12 795.947 1004.03 796.99 1003.88C809.175 1002.05 817.604 990.66 815.754 978.508ZM795.988 997.333C792.247 997.888 789.381 996.987 787.225 994.559C785.139 992.214 783.636 988.371 782.899 983.46C782.315 979.631 780.548 967.964 791.301 966.355C795.446 965.73 799.591 966.757 802.971 969.24C806.351 971.724 808.549 975.372 809.175 979.506C810.469 988.052 804.557 996.043 795.988 997.333Z" fill="#D3A98C"/>
<path d="M872.229 1054.24C884.97 1071.61 875.066 1101.83 839.554 1093.93C801.803 1085.54 806.602 1048.41 826.395 1048.41C846.189 1048.41 851.336 1064.91 844.409 1071.82C844.409 1071.82 871.422 1053.15 872.229 1054.24Z" fill="#F8D4AE"/>
<path d="M850.696 1098.58C847.177 1098.58 843.241 1098.16 838.831 1097.18C815.574 1092 806.644 1076.3 808.104 1063.01C809.272 1052.47 816.784 1045.1 826.396 1045.1C837.426 1045.1 846.009 1049.93 849.361 1058C851.781 1063.83 850.766 1070.18 846.76 1074.16C845.466 1075.45 843.352 1075.45 842.058 1074.16C840.765 1072.87 840.765 1070.76 842.058 1069.47C844.145 1067.39 844.604 1063.88 843.213 1060.54C840.918 1055.03 834.63 1051.73 826.396 1051.73C819.246 1051.73 815.379 1057.75 814.725 1063.73C813.139 1078.08 826.423 1087.61 840.292 1090.69C855.008 1093.96 866.415 1090.46 871.589 1081.07C876.374 1072.37 874.538 1060.75 867.208 1053.44C865.914 1052.15 865.914 1050.04 867.208 1048.75C868.501 1047.46 870.615 1047.46 871.909 1048.75C881.284 1058.1 883.593 1073.04 877.417 1084.26C874.802 1089.01 867.458 1098.55 850.71 1098.55L850.696 1098.58Z" fill="#D3A98C"/>
<g filter="url(#filter2_d_1171_220)">
<path d="M912.255 998.547C912.546 998.217 912.746 998.007 912.837 997.917L912.867 997.887H912.877C894.229 988.463 921.584 966.827 921.584 966.827C915.963 961.22 918.789 954.374 926.123 947.978C921.995 942.382 917.997 933.398 925.302 924.603C936.033 911.671 958.739 913.19 969.13 928.911C974.11 927.951 978.98 927.421 983.509 927.421C990.273 927.421 997.848 928.621 1005.35 930.649C1015.17 913.32 1039.11 911.222 1050.23 924.613C1059.43 935.676 1050.71 947.059 1046.36 951.596L1043.05 950.017C1048.72 955.814 1050.45 961.81 1045.42 966.827C1045.42 966.827 1072.79 988.463 1054.14 997.877C1054.14 997.877 1054.28 998.017 1054.52 998.287C1055.46 999.326 1057.96 1002.26 1060.03 1006.57C1062.51 1011.71 1064.39 1018.79 1062.31 1026.89C1061.47 1030.2 1059.95 1033.68 1057.56 1037.27C1048.27 1051.12 1035.14 1055.13 1023.51 1055.34C1023.82 1056.85 1023.98 1058.4 1023.98 1059.98C1023.98 1077.22 1004.98 1091.2 981.535 1091.2C958.088 1091.2 939.09 1077.23 939.09 1059.98C939.09 1058.64 939.2 1057.32 939.43 1056.02C928.037 1053.55 917.215 1048.02 909.46 1037.27C895.973 1018.58 909.229 1001.96 912.255 998.547Z" fill="#F8D4AE"/>
<path d="M1023.48 937.225C1032.23 941.272 1039.72 946.179 1044.13 951.186C1047.66 945.589 1052.22 935.556 1044.38 929.919C1036.71 924.383 1028.17 931.868 1023.48 937.225Z" fill="#FFF1E6"/>
<path d="M909.45 1037.27C935.803 1073.76 997.297 1050.21 997.297 1050.21C997.297 1050.21 1036.91 1068.05 1057.56 1037.27C1065.82 1024.93 1063.52 1013.83 1060.03 1006.58C1051.76 1011.49 1042.52 1012.89 1030.57 1009.16C1019.2 1005.59 1014.21 984.366 1000.25 984.366C986.294 984.366 981.114 1005.05 969.932 1009.16C929.871 1023.85 924.179 1009.16 912.877 997.887C912.877 997.887 912.856 997.917 912.846 997.927C912.756 998.017 912.556 998.227 912.265 998.557C909.239 1001.97 895.972 1018.59 909.47 1037.28L909.45 1037.27Z" fill="#FFF1E6"/>
<path d="M1032.57 1015.8C1032.57 1026.04 1039.96 1034.34 1049.08 1034.34C1054.49 1034.34 1059.3 1031.42 1062.31 1026.9C1064.38 1018.81 1062.51 1011.73 1060.03 1006.58C1057.96 1002.27 1055.47 999.337 1054.52 998.297C1052.82 997.628 1050.98 997.268 1049.08 997.268C1039.95 997.268 1032.57 1005.57 1032.57 1015.81V1015.8Z" fill="#FD9DB4"/>
<path d="M946.275 1034.12C936.15 1032.43 929.314 1022.87 931.007 1012.78C932.699 1002.68 942.279 995.86 952.404 997.548C962.529 999.236 969.365 1008.79 967.673 1018.89C965.98 1028.99 956.4 1035.81 946.275 1034.12Z" fill="#FD9DB4"/>
<path d="M970.984 1003.87C966.706 1003.87 963.238 1000.05 963.238 995.338C963.238 990.624 966.706 986.803 970.984 986.803C975.262 986.803 978.729 990.624 978.729 995.338C978.729 1000.05 975.262 1003.87 970.984 1003.87Z" fill="#5F5C5D"/>
<path d="M1029.52 1003.87C1025.24 1003.87 1021.78 1000.05 1021.78 995.338C1021.78 990.624 1025.24 986.803 1029.52 986.803C1033.8 986.803 1037.27 990.624 1037.27 995.338C1037.27 1000.05 1033.8 1003.87 1029.52 1003.87Z" fill="#5F5C5D"/>
<path d="M939.721 948.469L951.404 942.892C954.921 941.213 955.653 936.516 952.797 933.868C947.967 929.401 941.284 925.513 935.151 929.93C929.44 934.038 930.312 940.474 932.566 945.83C933.729 948.588 937.015 949.758 939.721 948.469Z" fill="#FFF1E6"/>
<path d="M902.345 1011.52C904.049 1005.66 907.145 1001.06 909.189 998.467C906.093 996.258 904.359 993.45 904.019 990.082C903.518 985.165 906.133 979.399 911.794 972.933C914.179 970.205 916.594 967.946 918.197 966.537C916.795 964.508 916.123 962.3 916.203 959.931C916.334 955.954 918.608 951.816 922.947 947.629C921.734 945.75 920.622 943.621 919.871 941.313C917.726 934.787 918.969 928.491 923.448 923.094C929.22 916.149 938.488 912.641 948.248 913.7C957.116 914.67 965.032 919.267 970.212 926.282C974.922 925.453 979.381 925.023 983.499 925.023C989.732 925.023 996.886 926.043 1004.2 927.881C1009.44 919.776 1018.18 914.5 1027.92 913.63C1037.43 912.791 1046.47 916.319 1052.09 923.084C1056.57 928.481 1057.81 934.777 1055.66 941.303C1054.06 946.2 1050.9 950.257 1048.43 952.906C1048.97 953.775 1049.43 954.634 1049.78 955.494C1051.44 959.471 1051.09 963.239 1048.8 966.537C1050.4 967.946 1052.82 970.205 1055.21 972.933C1060.87 979.399 1063.5 985.165 1063 990.082C1062.66 993.44 1060.93 996.258 1057.82 998.467C1059.48 1000.6 1061.85 1004.1 1063.53 1008.64C1066.16 1015.69 1067.6 1026.61 1059.56 1038.6C1049.45 1053.68 1035.11 1057.76 1022.56 1057.76C1019.24 1057.76 1016.05 1057.48 1013.1 1057.03C1011.79 1056.83 1010.87 1055.61 1011.07 1054.3C1011.27 1052.99 1012.5 1052.09 1013.81 1052.28C1026.58 1054.19 1044.18 1052.9 1055.56 1035.93C1068.72 1016.3 1053.11 1000.25 1052.45 999.576C1051.9 999.036 1051.65 998.257 1051.78 997.497C1051.9 996.738 1052.38 996.078 1053.07 995.738C1056.28 994.12 1057.96 992.111 1058.22 989.602C1058.96 982.327 1048.16 972.053 1043.94 968.716C1043.4 968.286 1043.07 967.656 1043.03 966.977C1042.99 966.297 1043.25 965.628 1043.73 965.138C1046.08 962.799 1046.59 960.321 1045.34 957.343C1042.89 951.436 1033.95 944.551 1021.44 938.924C1008.76 933.228 994.581 929.83 983.519 929.83C980.232 929.83 976.695 930.12 972.968 930.7C973.529 931.869 973.058 933.268 971.896 933.868C970.713 934.467 969.26 934.007 968.659 932.828C964.541 924.823 956.725 919.457 947.747 918.477C939.601 917.588 931.905 920.456 927.175 926.162C923.869 930.14 919.961 938.535 930.943 949.957C931.865 950.917 931.835 952.436 930.873 953.355C930.402 953.805 929.811 954.025 929.21 954.025C928.578 954.025 927.947 953.775 927.476 953.285C926.975 952.766 926.434 952.176 925.883 951.526C922.797 954.624 921.123 957.563 921.043 960.111C920.983 961.92 921.724 963.569 923.308 965.148C923.789 965.628 924.049 966.297 924.009 966.987C923.969 967.666 923.638 968.306 923.107 968.726C918.889 972.073 908.097 982.337 908.838 989.612C909.089 992.121 910.782 994.13 913.989 995.748C914.68 996.098 915.151 996.748 915.271 997.507C915.392 998.267 915.141 999.036 914.6 999.586C914.58 999.606 914.39 999.806 914.079 1000.15C910.402 1004.3 899.349 1019.15 911.424 1035.88C921.163 1049.37 937.126 1055.9 958.819 1055.26C960.152 1055.23 961.254 1056.27 961.294 1057.59C961.334 1058.92 960.292 1060.02 958.96 1060.06C957.978 1060.09 957.006 1060.1 956.044 1060.1C946.875 1060.1 938.568 1058.8 931.314 1056.23C921.394 1052.72 913.388 1046.82 907.506 1038.68C901.424 1030.27 899.64 1020.87 902.355 1011.53L902.345 1011.52ZM1023.4 934.537C1033.11 938.894 1040.73 943.961 1045.44 949.058C1055.39 938.085 1051.61 930.03 1048.39 926.152C1043.78 920.606 1036.3 917.708 1028.36 918.417C1020.61 919.107 1013.63 923.084 1009.12 929.23C1013.95 930.68 1018.78 932.458 1023.41 934.537H1023.4Z" fill="#D3A98C"/>
<path d="M987.026 1015.55C987.026 1017.42 987.277 1019.23 987.738 1020.91C989.521 1027.43 994.441 1032.11 1000.24 1032.11C1000.66 1032.11 1001.08 1032.09 1001.49 1032.03C1008.2 1031.25 1013.46 1024.17 1013.46 1015.55C1013.46 1006.39 1007.54 1002.19 1000.24 1002.19C992.948 1002.19 987.026 1006.4 987.026 1015.55Z" fill="#5F5C5D"/>
<path d="M987.738 1020.91C989.521 1027.43 994.441 1032.1 1000.24 1032.1C1000.66 1032.1 1001.08 1032.08 1001.49 1032.02C1001.68 1031.72 1001.86 1031.38 1002.05 1031.04C1006.44 1023 1006.54 1014.62 1002.3 1012.32C998.379 1010.21 992.126 1014 987.738 1020.92V1020.91Z" fill="#E27FA3"/>
<path d="M1000.23 1034.51C1008.85 1034.51 1015.85 1026.01 1015.85 1015.55C1015.85 1013.67 1015.62 1011.91 1015.18 1010.3L1010.54 1011.59C1010.87 1012.78 1011.04 1014.11 1011.04 1015.55C1011.04 1023.36 1006.19 1029.71 1000.23 1029.71C994.271 1029.71 989.421 1023.35 989.421 1015.55C989.421 1014.11 989.591 1012.77 989.922 1011.59L985.283 1010.3C984.832 1011.91 984.611 1013.67 984.611 1015.55C984.611 1026 991.615 1034.51 1000.23 1034.51Z" fill="#F8D4AE"/>
<path d="M985.283 1010.3C986.916 1004.44 991.525 1000.68 997.828 999.935V994.528H1002.64V999.935C1008.93 1000.69 1013.54 1004.44 1015.18 1010.3C1015.54 1011.58 1014.79 1012.9 1013.51 1013.26C1012.23 1013.61 1010.9 1012.87 1010.54 1011.59C1008.84 1005.49 1003.35 1004.58 1000.23 1004.58C997.116 1004.58 991.625 1005.49 989.922 1011.59C989.621 1012.65 988.659 1013.35 987.607 1013.35C987.397 1013.35 987.176 1013.32 986.956 1013.26C985.673 1012.9 984.932 1011.58 985.283 1010.3Z" fill="#D3A98C"/>
<path d="M1004.99 990.331C1003.77 989.092 1001.78 989.082 1000.53 990.301L1000.23 990.601L999.942 990.301C998.72 989.062 996.726 989.052 995.483 990.271C994.241 991.49 994.231 993.479 995.453 994.718L996.505 995.778C998.529 997.826 1001.85 997.846 1003.9 995.828L1004.96 994.778C1006.2 993.559 1006.21 991.57 1004.99 990.331Z" fill="#E27FA3"/>
<path d="M1047.74 1059.98C1041.02 1053.53 1026.89 1047.78 1013.63 1045.8C1007.75 1044.92 1003.33 1040.01 1003.22 1034.09C1003.19 1032.82 1003.37 1031.58 1003.72 1030.41C1005 1026.16 1008.59 1022.85 1013.16 1021.99C1026.33 1019.51 1040.23 1013.21 1046.71 1006.51L1047.74 1059.99V1059.98Z" fill="#95A1B3"/>
<path d="M1039.04 1033.41C1038.65 1013.41 1049.56 996.989 1063.42 996.721C1077.27 996.453 1088.82 1012.44 1089.21 1032.44C1089.6 1052.43 1078.68 1068.85 1064.83 1069.12C1050.97 1069.39 1039.43 1053.4 1039.04 1033.41Z" fill="white"/>
<path d="M1046.07 1061.71L1049.41 1058.25C1042.49 1051.6 1027.92 1045.51 1013.99 1043.43C1009.24 1042.72 1005.72 1038.77 1005.63 1034.04C1005.54 1029.32 1008.9 1025.24 1013.62 1024.35C1027.46 1021.73 1041.78 1015.08 1048.44 1008.17L1044.97 1004.84C1038.93 1011.1 1025.67 1017.19 1012.72 1019.63C1005.68 1020.96 1000.68 1027.06 1000.81 1034.13C1000.95 1041.21 1006.18 1047.11 1013.27 1048.17C1026.31 1050.11 1039.79 1055.68 1046.07 1061.7V1061.71Z" fill="#70838E"/>
<path d="M1064.48 1071.52C1064.61 1071.52 1064.74 1071.52 1064.87 1071.52C1072.39 1071.37 1079.31 1067.1 1084.36 1059.5C1089.23 1052.16 1091.81 1042.54 1091.62 1032.39C1091.42 1022.23 1088.47 1012.71 1083.32 1005.57C1077.98 998.167 1070.91 994.179 1063.38 994.309C1055.86 994.459 1048.94 998.726 1043.89 1006.33C1039.02 1013.67 1036.45 1023.29 1036.64 1033.44C1036.84 1043.6 1039.78 1053.12 1044.93 1060.26C1050.18 1067.53 1057.11 1071.52 1064.48 1071.52ZM1063.77 999.116C1076.15 999.116 1086.45 1014 1086.81 1032.49C1087.17 1051.12 1077.29 1066.48 1064.78 1066.72C1052.26 1066.96 1041.82 1051.99 1041.46 1033.36C1041.28 1024.18 1043.57 1015.53 1047.91 1009C1052.07 1002.74 1057.6 999.246 1063.48 999.126C1063.58 999.126 1063.68 999.126 1063.78 999.126L1063.77 999.116Z" fill="#E2E2E2"/>
<path d="M1072.22 1044.38L1053.6 1044.74L1051.6 1033.72L1053.51 1020.37L1071.59 1020.03C1071.65 1020.02 1071.7 1020.03 1071.75 1020.02C1076.05 1019.94 1079.63 1025.33 1079.77 1032.06C1079.9 1038.79 1076.53 1044.31 1072.22 1044.39V1044.38Z" fill="#95A1B3"/>
<path d="M1053.55 1042.35L1064.55 1042.14C1062.9 1039.6 1061.87 1036.2 1061.79 1032.41C1061.76 1031.08 1062.82 1029.99 1064.14 1029.96C1065.46 1029.92 1066.57 1030.99 1066.6 1032.31C1066.71 1038.07 1069.61 1042.05 1072.17 1041.98C1074.71 1041.93 1077.47 1037.86 1077.36 1032.1C1077.25 1026.37 1074.37 1022.42 1071.84 1022.42C1071.82 1022.42 1071.8 1022.42 1071.79 1022.42L1053.55 1022.77C1053.55 1022.77 1053.52 1022.77 1053.5 1022.77C1052.2 1022.77 1052.13 1018 1053.45 1017.98L1071.61 1017.63C1071.61 1017.63 1071.66 1017.63 1071.69 1017.63C1071.74 1017.63 1071.79 1017.63 1071.84 1017.63C1077.49 1017.63 1082.01 1023.9 1082.17 1032.01C1082.33 1040.18 1077.97 1046.67 1072.26 1046.79L1053.63 1047.15C1053.63 1047.15 1053.6 1047.15 1053.58 1047.15C1052.28 1047.15 1052.21 1042.37 1053.53 1042.35H1053.55Z" fill="#70838E"/>
<path d="M1064.51 1059.03C1064.51 1059.03 1064.59 1059.03 1064.64 1059.03C1065.98 1059 1067.03 1057.91 1067 1056.58C1066.97 1055.25 1065.89 1054.2 1064.54 1054.23C1064.53 1054.23 1064.52 1054.23 1064.5 1054.23C1061.98 1054.23 1056.58 1049.35 1054.66 1039.5C1054.65 1039.43 1054.63 1039.36 1054.61 1039.29C1054.23 1037.32 1054.02 1035.24 1053.98 1033.12C1053.94 1031.03 1054.07 1028.93 1054.38 1026.89C1054.4 1026.83 1054.41 1026.76 1054.42 1026.69C1055.07 1022.48 1056.44 1018.75 1058.34 1015.9C1059.7 1013.84 1061.83 1011.64 1063.71 1011.6C1065.04 1011.57 1066.1 1010.48 1066.07 1009.15C1066.04 1007.84 1064.96 1006.8 1063.66 1006.8C1063.64 1006.8 1063.63 1006.8 1063.61 1006.8C1059.18 1006.89 1055.89 1010.88 1054.32 1013.25C1052.07 1016.64 1050.46 1020.95 1049.69 1025.76C1049.67 1025.83 1049.66 1025.9 1049.65 1025.97C1049.28 1028.34 1049.12 1030.78 1049.16 1033.21C1049.21 1035.68 1049.46 1038.1 1049.91 1040.39C1049.92 1040.47 1049.94 1040.54 1049.96 1040.61C1051.27 1047.13 1053.8 1051.33 1055.7 1053.73C1058.39 1057.1 1061.58 1059.02 1064.49 1059.02L1064.51 1059.03Z" fill="#E2E2E2"/>
<path d="M1019.97 1041C1027.05 1040.24 1030.78 1044.69 1032.34 1051.11C1035.47 1054.66 1038.1 1059.75 1039.54 1065.67C1042.62 1078.33 1039.14 1090.03 1031.78 1091.82C1024.41 1093.6 1015.94 1084.79 1012.86 1072.13C1012.54 1070.81 1012.29 1069.5 1012.11 1068.21C1008.99 1065.75 1006.83 1062.11 1006.37 1057.86C1005.45 1049.46 1011.54 1041.91 1019.96 1041H1019.97Z" fill="#F8D4AE"/>
<path d="M1007.8 1045.11C1010.76 1041.42 1015 1039.11 1019.71 1038.6C1024.45 1038.09 1028.41 1039.6 1031.17 1042.97C1032.66 1044.8 1033.78 1047.15 1034.53 1049.97C1037.86 1053.9 1040.45 1059.24 1041.89 1065.09C1043.47 1071.62 1043.47 1078.16 1041.89 1083.49C1040.16 1089.29 1036.78 1093.07 1032.35 1094.14C1031.52 1094.34 1030.67 1094.44 1029.82 1094.44C1026.16 1094.44 1022.39 1092.58 1018.98 1089.04C1015.12 1085.02 1012.12 1079.22 1010.52 1072.69C1010.25 1071.59 1010.04 1070.51 1009.87 1069.46C1006.55 1066.53 1004.46 1062.54 1003.98 1058.11C1003.47 1053.41 1004.82 1048.79 1007.8 1045.11ZM1022.46 1085.72C1025.41 1088.8 1028.52 1090.13 1031.23 1089.48C1033.92 1088.83 1036.08 1086.22 1037.29 1082.13C1038.63 1077.6 1038.61 1071.95 1037.23 1066.23C1036.78 1064.37 1036.19 1062.59 1035.49 1060.89C1035.26 1063.25 1034.7 1065.31 1033.8 1067.08C1031.84 1070.96 1028.29 1073.29 1023.55 1073.8C1022.9 1073.87 1022.25 1073.91 1021.61 1073.91C1019.52 1073.91 1017.49 1073.54 1015.55 1072.84C1017.01 1078.03 1019.43 1082.56 1022.47 1085.72H1022.46ZM1008.77 1057.59C1009.14 1061.02 1010.83 1064.09 1013.52 1066.25C1016.22 1068.41 1019.58 1069.39 1023.02 1069.02C1026.15 1068.68 1028.26 1067.34 1029.49 1064.91C1030.66 1062.61 1031.04 1059.26 1030.6 1055.23C1030.16 1051.2 1029.07 1048.02 1027.43 1046.01C1025.94 1044.2 1024 1043.31 1021.5 1043.31C1021.08 1043.31 1020.66 1043.33 1020.22 1043.38C1016.79 1043.75 1013.71 1045.44 1011.54 1048.12C1009.37 1050.8 1008.38 1054.16 1008.76 1057.59H1008.77Z" fill="#D3A98C"/>
<path d="M933.889 997.836C942.015 995.438 950.543 1000.05 952.947 1008.16C954.801 1014.39 952.487 1020.86 947.617 1024.61C951.755 1035.57 959.29 1052.71 969.04 1062.44L946.765 1078.35C946.765 1078.35 929.18 1043.57 927.266 1015.74C924.861 1007.64 925.763 1000.23 933.879 997.836H933.889Z" fill="#F8D4AE"/>
<path d="M933.208 995.528C942.587 992.759 952.487 998.116 955.262 1007.47C956.605 1012.01 956.104 1016.78 953.839 1020.94C952.938 1022.59 951.805 1024.06 950.473 1025.33C954.3 1035.24 961.565 1051.58 970.743 1060.74C971.685 1061.68 971.685 1063.19 970.743 1064.13C970.272 1064.6 969.661 1064.83 969.04 1064.83C968.419 1064.83 967.807 1064.6 967.337 1064.13C962.156 1058.97 954.421 1048.57 946.424 1028.21C945.432 1028.73 944.38 1029.15 943.278 1029.48C941.815 1029.91 940.402 1030.13 939.04 1030.13C936.154 1030.13 933.518 1029.16 931.264 1027.26C936.013 1051.54 948.759 1076.97 948.909 1077.27C949.511 1078.45 949.03 1079.89 947.847 1080.49C947.497 1080.66 947.126 1080.75 946.765 1080.75C945.883 1080.75 945.042 1080.27 944.611 1079.43C944.43 1079.07 940.102 1070.49 935.482 1058.34C929.29 1042.09 925.733 1027.91 924.881 1016.18C921.795 1005.53 924.821 998.016 933.188 995.548L933.208 995.528ZM934.36 1023.57C936.434 1025.34 938.909 1025.76 941.925 1024.87C945.242 1023.89 947.968 1021.68 949.621 1018.65C951.264 1015.62 951.635 1012.14 950.653 1008.84C948.99 1003.24 943.829 999.605 938.248 999.605C937.035 999.605 935.803 999.775 934.581 1000.13C928.829 1001.83 927.156 1006.86 929.59 1015.07C930.743 1018.95 932.396 1021.89 934.37 1023.57H934.36Z" fill="#D3A98C"/>
<path d="M1090.3 999.115C1088.59 997.187 1088.55 994.298 1090.22 992.33L1102.17 978.278C1104.21 975.88 1107.91 975.83 1110.01 978.189L1113.47 982.076C1115.57 984.435 1115.08 988.092 1112.45 989.831L1097.04 999.995C1094.88 1001.41 1092.01 1001.04 1090.29 999.115H1090.3Z" fill="#E27FA3"/>
<path d="M1093.43 1011.18C1093.2 1008.61 1094.89 1006.26 1097.4 1005.67L1115.37 1001.42C1118.45 1000.69 1121.46 1002.85 1121.74 1005.99L1122.21 1011.17C1122.5 1014.31 1119.93 1016.97 1116.78 1016.81L1098.33 1015.88C1095.75 1015.76 1093.66 1013.76 1093.42 1011.19L1093.43 1011.18Z" fill="#E27FA3"/>
<path d="M1078.66 994.579C1081.19 995.118 1083.73 993.719 1084.61 991.301L1090.98 974.002C1092.07 971.043 1090.27 967.815 1087.19 967.156L1082.09 966.077C1079 965.417 1076.05 967.646 1075.83 970.784L1074.56 989.162C1074.38 991.73 1076.14 994.039 1078.66 994.579Z" fill="#E27FA3"/>
</g>
<g clip-path="url(#clip1_1171_220)">
<path d="M140.237 540.707C140.566 531.893 137.473 524.654 136.267 522.178C135.966 521.576 135.793 521.256 135.793 521.256C159.123 516.528 135.645 484.451 135.645 484.451C144.418 479.465 142.137 469.614 134.065 459.113L138.898 463.309C145.053 459.64 158.069 449.741 151.331 434.778C143.017 416.3 115.138 411.551 99.2308 428.867L105.385 434.216C96.9155 428.935 87.9201 424.676 79.5803 422.382C71.2301 420.083 61.3151 419.149 51.3267 419.362L59.372 417.913C54.5757 394.901 28.1979 384.742 11.5863 396.363C-1.87015 405.772 4.24821 420.919 7.67042 427.23L13.9749 426.093C1.66473 430.992 -5.34586 438.288 -0.350294 447.061C-0.350294 447.061 -36.9567 462.614 -19.3416 478.603C-19.3416 478.603 -27.8731 483.439 -33.1013 493.056C-36.8511 499.916 -38.9323 509.208 -35.0383 520.93C-27.8094 542.671 -5.68271 551.6 13.0685 555.215C8.43257 557.479 4.4278 561.164 1.79057 566.04C-4.95027 578.504 -0.31419 594.076 12.1632 600.816C24.6407 607.556 40.2104 602.912 46.9568 590.438C53.1178 579.046 49.7731 565.078 39.6375 557.605C41.3795 557.587 42.357 557.528 42.357 557.528C42.357 557.528 95.6093 593.288 127.605 565.64C136.959 557.558 139.94 548.499 140.242 540.696L140.237 540.707Z" fill="#F8D4AE"/>
<path d="M38.0386 420.328C27.4693 421.638 17.5847 424.172 10.2851 427.715C8.08146 420.53 5.92783 407.857 16.3857 403.969C27.4704 399.833 34.9512 413.225 38.0386 420.328Z" fill="#FFF1E6"/>
<path d="M136.375 462.387C131.924 455.613 124.729 448.369 116.298 441.857C122.58 437.338 135.887 429.659 143.281 438.876C150.252 447.57 141.939 457.346 136.37 462.397L136.375 462.387Z" fill="#FFF1E6"/>
<path d="M127.608 565.651C95.6105 593.301 42.3549 557.539 42.3549 557.539C42.3549 557.539 -21.7059 561.048 -35.0555 520.932C-38.9498 509.21 -36.8685 499.916 -33.1185 493.056C-21.5859 506.227 -4.78486 513.77 14.5427 513.513C29.5674 513.303 42.311 490.973 59.3869 495.667C76.4628 500.362 75.9802 526.066 88.7844 533.928C105.267 544.031 123.57 546.138 140.23 540.71C139.928 548.513 136.947 557.573 127.592 565.655L127.608 565.651Z" fill="#FFF1E6"/>
<path d="M-1.11838 536.5C10.2124 533.606 17.053 522.082 14.1605 510.76C11.2681 499.438 -0.262175 492.605 -11.5929 495.498C-22.9237 498.392 -29.7643 509.916 -26.8718 521.239C-23.9794 532.561 -12.4492 539.394 -1.11838 536.5Z" fill="#FD9DB4"/>
<path d="M125.888 552.378C128.998 541.11 122.374 529.459 111.096 526.364C99.8239 523.259 88.1664 529.883 85.0672 541.157C81.9576 552.425 88.5814 564.076 99.8592 567.171C111.131 570.276 122.789 563.652 125.888 552.378Z" fill="#FD9DB4"/>
<path d="M139.69 523.044C143.756 521.537 146.508 518.961 147.909 515.362C151.763 505.402 143.331 490.936 139.493 485.146C142.986 482.211 144.501 478.154 143.896 473.285C143.578 470.769 142.664 468.024 141.209 465.146C144.684 462.96 149.137 459.531 152.262 454.812C156.599 448.27 157.149 440.947 153.853 433.638C149.612 424.234 140.484 417.558 129.436 415.787C117.617 413.891 105.733 417.928 97.5397 426.597C91.6099 423.567 85.7378 421.195 80.3096 419.701C74.8814 418.208 68.6178 417.248 61.9753 416.817C59.3689 405.179 51.2296 395.64 40.1041 391.229C29.6935 387.098 18.4291 388.166 9.97814 394.085C3.40563 398.673 0.13658 405.26 0.50973 413.094C0.785016 418.745 2.84668 423.974 4.71259 427.62C1.98705 429.358 -0.202805 431.239 -1.76722 433.245C-4.78149 437.118 -5.55264 441.377 -4.05946 445.687C-10.3141 448.702 -24.988 456.814 -26.768 467.349C-27.4145 471.156 -26.3608 474.775 -23.652 478.143C-26.1293 479.989 -29.7655 483.14 -32.9928 487.604C-38.0156 494.575 -42.9194 506.18 -37.7188 521.817C-33.8967 533.327 -25.6631 542.543 -13.5258 549.099C-7.3489 552.436 -0.148138 555.087 7.98921 556.991C23.6393 560.65 37.8279 560.481 41.5455 560.358C44.6807 562.371 56.7808 569.76 72.1041 574.614C95.7302 582.101 115.539 579.721 129.393 567.755C148.635 551.122 142.739 530.513 139.674 523.049L139.69 523.044ZM128.552 421.29C137.757 422.772 145.314 428.24 148.786 435.936C151.151 441.197 152.863 451.26 138.373 460.364C134.462 454.561 128.639 448.352 121.256 442.246C115.42 437.415 109.056 433.045 102.633 429.375C109.506 422.777 119.044 419.777 128.546 421.3L128.552 421.29ZM13.1676 398.658C20.0835 393.829 29.384 392.991 38.0443 396.417C46.9895 399.957 53.6532 407.42 56.1757 416.602C48.784 416.472 41.0728 416.982 33.582 418.145C24.1089 419.621 15.9349 421.973 9.59694 424.97C1.80255 409.743 8.42978 401.974 13.162 398.669L13.1676 398.658ZM125.777 563.551C113.315 574.323 95.8697 576.275 73.9353 569.356C57.1781 564.074 44.0307 555.32 43.9022 555.237C43.4041 554.902 42.801 554.736 42.1967 554.769C42.0443 554.78 26.2674 555.569 9.16018 551.55C-13.2312 546.288 -27.2218 535.693 -32.412 520.062C-40.8984 494.51 -18.9203 481.565 -17.9801 481.034C-17.2052 480.587 -16.687 479.801 -16.5854 478.924C-16.4886 478.03 -16.8174 477.16 -17.4801 476.562C-20.5028 473.824 -21.7431 471.115 -21.2595 468.3C-19.8685 460.086 -4.91364 452.046 0.728525 449.645C1.45714 449.333 2.0219 448.732 2.27172 447.975C2.53186 447.223 2.44833 446.392 2.05569 445.713C0.198663 442.446 0.384618 439.589 2.64371 436.693C7.1134 430.942 19.0084 426.071 34.4594 423.667C50.1001 421.233 66.6949 421.765 78.8354 425.112C84.6326 426.712 90.9679 429.362 97.3408 432.804C104.322 436.575 111.331 441.28 117.708 446.563C129.746 456.53 137.469 466.789 138.371 474.016C138.826 477.659 137.521 480.218 134.252 482.075C133.563 482.462 133.08 483.134 132.913 483.91C132.747 484.686 132.92 485.499 133.387 486.138C137 491.086 145.734 505.635 142.721 513.399C141.692 516.066 139.246 517.756 135.233 518.572C134.362 518.754 133.625 519.328 133.252 520.14C132.88 520.951 132.918 521.891 133.355 522.66C133.375 522.697 133.524 522.964 133.76 523.438C134.858 525.696 137.433 531.749 137.46 539.264C137.495 548.66 133.566 556.835 125.776 563.577L125.777 563.551Z" fill="#D3A98C"/>
<path d="M95.0253 524.558C93.7366 529.257 88.8695 532.023 84.1746 530.726C79.4741 529.439 76.7083 524.575 78.0074 519.882C79.3065 515.188 84.1633 512.417 88.8582 513.714C93.5587 515.001 96.3244 519.865 95.0253 524.558Z" fill="#5F5C5D"/>
<path d="M30.9991 506.951C29.7103 511.65 24.8433 514.416 20.1484 513.118C15.4479 511.831 12.6821 506.967 13.9812 502.274C15.27 497.575 20.1371 494.809 24.832 496.106C29.5325 497.393 32.2982 502.258 30.9991 506.951Z" fill="#5F5C5D"/>
<path d="M68.8865 516.708C68.8865 516.708 65.9237 526.177 60.336 532.443C59.9167 532.923 59.4721 533.375 59.0013 533.827C55.7223 536.958 51.6611 538.8 46.8578 537.285C42.5219 535.915 40.2513 532.624 39.1901 528.747C39.0157 528.133 38.8842 527.489 38.7686 526.841C37.3027 518.243 40.6475 507.821 40.6475 507.821C40.44 511.186 42.5306 514.366 45.8849 515.432C49.8311 516.685 54.0613 514.481 55.3154 510.536C54.0613 514.481 56.2549 518.703 60.2115 519.961C63.5713 521.016 67.1102 519.598 68.8754 516.728L68.8865 516.708Z" fill="#5F5C5D"/>
<path d="M59.0084 533.816C55.7294 536.947 51.6681 538.79 46.8646 537.274C42.5286 535.904 40.2579 532.613 39.1967 528.736C42.4805 525.621 46.5529 523.757 51.3461 525.268C55.6924 526.643 57.9584 529.918 59.0029 533.826L59.0084 533.816Z" fill="#E27FA3"/>
<path d="M43.4873 538.86C41.0949 537.568 39.2268 535.626 37.8926 533.067C32.8438 523.333 37.7849 507.619 37.9949 506.96L43.3013 508.654C42.048 512.573 39.542 524.154 42.8419 530.519C43.9189 532.593 45.5022 533.928 47.6987 534.621C49.8953 535.315 51.9679 535.129 54.0381 534.036C60.4235 530.705 65.0005 519.803 66.2173 515.878L71.5302 517.535C71.3202 518.195 66.3323 533.897 56.6076 538.967C53.2039 540.752 49.6376 541.064 46.0079 539.915C45.1097 539.63 44.2607 539.278 43.477 538.855L43.4873 538.86Z" fill="#F8D4AE"/>
<path d="M70.3419 514.338C69.0299 513.536 67.3174 513.943 66.5044 515.249C65.3697 517.101 63.1244 517.926 61.0524 517.273C58.6169 516.504 57.2461 513.938 57.922 511.506L59.0032 507.56L53.6318 506.084L52.6402 509.692C52.261 510.885 51.4375 511.866 50.3122 512.444C49.1869 513.022 47.9083 513.144 46.7036 512.759C44.6316 512.106 43.2733 510.134 43.4001 507.977C43.4964 506.444 42.3164 505.127 40.7825 505.031C39.2487 504.935 37.931 506.115 37.8346 507.649C37.5894 511.699 39.7411 515.433 43.2061 517.304C43.7733 517.611 44.3787 517.871 45.0175 518.07C47.6347 518.897 50.4333 518.651 52.8762 517.386C52.9724 517.331 53.0789 517.282 53.1751 517.227C54.365 519.709 56.5355 521.707 59.3607 522.594C63.8682 524.016 68.7521 522.205 71.2261 518.173C72.0287 516.861 71.622 515.149 70.3157 514.337L70.3419 514.338Z" fill="#D3A98C"/>
<path d="M62.5292 504.711C61.5619 502.976 59.3732 502.367 57.6374 503.334L57.2154 503.572L56.9771 503.151C56.0099 501.416 53.8211 500.806 52.0854 501.774C50.3496 502.741 49.7392 504.929 50.7065 506.664L51.54 508.153C53.1476 511.02 56.776 512.047 59.6443 510.439L61.1344 509.606C62.8702 508.639 63.4806 506.451 62.5133 504.716L62.5292 504.711Z" fill="#E27FA3"/>
<path d="M87.9182 661.291C120.707 651.514 139.363 617.027 129.588 584.263C119.813 551.499 85.3085 532.865 52.5201 542.642C19.7316 552.42 1.07547 586.906 10.8504 619.67C20.6253 652.434 55.1297 671.068 87.9182 661.291Z" fill="#B5F6F8"/>
<path d="M132.214 583.332C127.256 566.827 116.178 553.237 101.009 545.043C101.009 545.043 100.957 545.015 100.937 545.004L100.896 544.981C100.834 544.948 100.761 544.909 100.7 544.875C85.5169 536.781 68.1001 535.059 51.6023 540.014C35.041 544.988 21.4138 556.117 13.2208 571.339C-3.66248 602.728 8.09368 641.968 39.4423 658.902C39.4835 658.924 39.5248 658.947 39.566 658.969C71.0053 675.858 110.325 664.035 127.241 632.611C135.434 617.388 137.196 599.89 132.224 583.338L132.214 583.332ZM87.1342 642.637C92.6973 636.81 97.7906 629.93 102.143 622.277L120.943 632.379C114.249 643.55 104.345 651.76 93.0691 656.473C91.6356 651.609 89.6285 646.968 87.1398 642.626L87.1342 642.637ZM12.1223 612.987C9.83732 600.976 11.2329 588.195 16.8594 576.462L35.66 586.564C31.6845 594.407 28.7409 602.462 26.9528 610.301C21.9597 610.614 16.9744 611.505 12.1223 612.987ZM53.3068 561.302C47.7437 567.129 42.6504 574.009 38.2981 581.662L19.4872 571.554C26.0103 560.651 35.704 552.287 47.3521 547.429C48.7959 552.298 50.7974 556.95 53.2965 561.297L53.3068 561.302ZM128.35 590.943C130.723 603.334 129.078 616.033 123.582 627.477L104.771 617.369C108.746 609.526 111.69 601.472 113.483 593.622C118.492 593.304 123.478 592.414 128.346 590.927L128.35 590.943ZM99.8716 614.749L73.9914 600.836L81.259 587.325C89.5959 591.349 98.6379 593.502 107.757 593.739C106.045 600.674 103.405 607.773 99.8772 614.739L99.8716 614.749ZM83.8971 582.422L100.585 551.394C106.437 555.874 109.753 564.179 109.978 575.171C110.07 579.337 109.699 583.718 108.916 588.197C100.321 588.124 91.7652 586.18 83.8971 582.422ZM95.6917 548.764L79.0036 579.792C71.5313 575.303 65.19 569.24 60.3829 562.114C63.6983 558.99 67.1425 556.268 70.6756 554.047C79.9799 548.176 88.7351 546.352 95.702 548.77L95.6917 548.764ZM76.3496 584.699L69.0821 598.211L43.2019 584.297C47.0643 577.525 51.5354 571.402 56.3878 566.15C61.6087 573.62 68.3974 579.964 76.3496 584.699ZM40.5638 589.2L66.444 603.113L59.182 616.614C50.8451 612.59 41.803 610.437 32.6839 610.2C34.3957 603.265 37.036 596.166 40.5638 589.2ZM56.5439 621.517L39.8558 652.545C34.004 648.065 30.6876 639.76 30.4628 628.768C30.3708 624.602 30.7364 620.231 31.5254 615.742C40.1201 615.815 48.6757 617.759 56.5439 621.517ZM44.7596 655.18L61.4477 624.152C68.92 628.641 75.2613 634.704 80.0684 641.83C76.753 644.955 73.3088 647.677 69.7757 649.898C60.4713 655.768 51.7162 657.593 44.7493 655.175L44.7596 655.18ZM64.0914 619.239L71.3533 605.738L97.2335 619.652C93.3711 626.424 88.8999 632.547 84.0476 637.799C78.8267 630.33 72.038 623.985 64.0858 619.25L64.0914 619.239ZM127.045 585.522C122.97 586.798 118.79 587.604 114.593 587.974C115.302 583.534 115.629 579.209 115.547 575.049C115.437 570.127 114.774 565.639 113.574 561.674C119.669 568.217 124.231 576.116 126.875 584.924C126.932 585.115 126.983 585.316 127.04 585.506L127.045 585.522ZM79.9426 543.614C75.9706 544.798 71.8546 546.718 67.6896 549.343C64.1724 551.56 60.7402 554.235 57.4225 557.265C55.417 553.557 53.7962 549.631 52.6059 545.525C52.7966 545.468 52.9928 545.401 53.1835 545.344C62.002 542.688 71.1098 542.133 79.9323 543.608L79.9426 543.614ZM13.4222 618.418C17.4911 617.152 21.6609 616.341 25.8481 615.965C25.145 620.394 24.812 624.73 24.8993 628.88C25.0043 633.786 25.6636 638.258 26.8588 642.207C20.5109 635.368 15.9581 627.181 13.4278 618.407L13.4222 618.418ZM60.5405 660.321C64.5021 659.131 68.5967 657.227 72.7458 654.606C76.263 652.39 79.6896 649.725 82.997 646.689C84.9978 650.381 86.6186 654.307 87.8041 658.397C79.0832 661.12 69.7392 661.84 60.5302 660.316L60.5405 660.321Z" fill="#95E0E8"/>
<path d="M123.818 605.292L38.0682 558.971L16.613 598.642L102.363 644.963L123.818 605.292Z" fill="white"/>
<path d="M101.051 647.412L15.302 601.091C13.951 600.361 13.4386 598.672 14.1746 597.311L35.6297 557.641C36.3601 556.29 38.0499 555.778 39.4111 556.513L125.161 602.834C126.512 603.564 127.024 605.253 126.288 606.613L104.833 646.284C104.102 647.635 102.413 648.147 101.051 647.412ZM20.3945 597.514L101.245 641.189L120.047 606.426L39.1956 562.751L20.3945 597.514Z" fill="#E2E2E2"/>
<path d="M14.6707 557.678C-14.4956 563.316 -32.1535 588.278 -18.6967 597.372C-5.25024 606.461 29.2274 621.036 29.3292 602.788C29.431 584.54 0.771011 580.594 0.771011 580.594L14.6707 557.678Z" fill="#F8D4AE"/>
<path d="M-20.2601 599.671C-24.994 596.475 -26.9314 591.459 -25.7304 585.567C-24.4798 579.436 -19.7592 572.728 -12.7984 567.15C-5.36927 561.199 5.44801 555.094 15.3864 553.176C16.8907 552.883 18.3539 553.873 18.6467 555.377C18.9395 556.88 17.9485 558.343 16.4442 558.636C1.38612 561.545 -17.7132 574.193 -20.2689 586.679C-21.0207 590.336 -19.9727 593.153 -17.1383 595.057C-5.74032 602.759 16.4845 611.754 24.05 607.769C25.1117 607.21 26.5381 606.076 26.5548 602.768C26.6394 587.188 0.66047 583.385 0.399308 583.351C-1.12557 583.14 -2.18709 581.727 -1.98125 580.213C-1.76983 578.689 -0.366636 577.622 1.15824 577.833C1.46623 577.879 8.80799 578.915 16.2577 582.313C26.6848 587.08 32.1703 594.159 32.1246 602.793C32.0909 608.596 29.1325 611.38 26.6514 612.691C14.8121 618.937 -11.8758 605.333 -20.2442 599.667L-20.2601 599.671Z" fill="#D3A98C"/>
<path d="M135.188 562.982C141.684 570.114 144.442 578.171 137.321 584.662C130.199 591.152 119.132 590.649 112.636 583.517C106.14 576.384 106.652 565.338 113.789 558.842C120.926 552.347 128.692 555.85 135.194 562.972L135.188 562.982Z" fill="#F8D4AE"/>
<path d="M115.93 589.597C113.95 588.528 112.138 587.123 110.577 585.401C103.058 577.156 103.658 564.319 111.908 556.8C115.934 553.127 120.616 551.86 125.423 553.124C129.371 554.151 133.35 556.846 137.236 561.117C141.133 565.393 143.442 569.598 144.105 573.62C144.913 578.532 143.21 583.06 139.185 586.734C135.186 590.382 130.007 592.246 124.602 591.991C121.512 591.84 118.559 591.018 115.919 589.592L115.93 589.597ZM126.741 559.604C125.813 559.103 124.907 558.733 124.018 558.506C121.032 557.719 118.3 558.508 115.653 560.914C109.666 566.366 109.232 575.669 114.684 581.651C117.329 584.546 120.941 586.244 124.854 586.426C128.766 586.607 132.523 585.253 135.43 582.614C138.061 580.212 139.106 577.566 138.605 574.525C138.127 571.616 136.225 568.284 133.113 564.871C130.965 562.512 128.793 560.739 126.72 559.619L126.741 559.604Z" fill="#D3A98C"/>
<path d="M39.5992 599.414C39.0365 599.122 38.6602 598.7 38.4704 598.148C38.3091 597.588 38.3747 597.026 38.6673 596.464L47.0795 580.286C47.4502 579.573 47.9157 579.136 48.4762 578.975C49.0554 578.823 49.5888 578.874 50.0765 579.128C50.5641 579.381 50.8804 579.713 51.0252 580.121C51.1798 580.512 51.2627 580.948 51.2739 581.43L52.8845 598.817L51.5791 599.746L58.4079 585.926C58.6817 585.354 59.0895 584.982 59.6312 584.811C60.2014 584.631 60.7678 584.687 61.3305 584.98C61.8932 585.272 62.2552 585.699 62.4166 586.259C62.6064 586.811 62.555 587.368 62.2624 587.931L53.7478 604.305C53.4747 604.83 53.0482 605.192 52.4682 605.391C51.898 605.571 51.3409 605.52 50.797 605.237C50.4219 605.042 50.1281 604.782 49.9158 604.457C49.7035 604.132 49.5763 603.804 49.5343 603.472L47.5962 585.272L49.1154 585.169L42.55 598.482C42.2762 599.055 41.8541 599.431 41.2839 599.611C40.7422 599.782 40.1807 599.717 39.5992 599.414ZM61.1589 610.625C60.5962 610.332 60.2199 609.91 60.0301 609.359C59.8688 608.799 59.9344 608.237 60.227 607.674L68.5953 591.581C68.8782 591.037 69.3047 590.675 69.8749 590.495C70.4451 590.315 71.0022 590.366 71.5461 590.649L73.4874 591.659L64.1096 609.693C63.8171 610.256 63.3857 610.627 62.8155 610.807C62.2738 610.978 61.7216 610.918 61.1589 610.625ZM70.351 594.46L72.1651 590.971L79.9585 595.023C80.4649 595.287 80.7947 595.661 80.9477 596.145C81.1196 596.64 81.0689 597.15 80.7958 597.675C80.5325 598.181 80.1442 598.516 79.6311 598.678C79.1464 598.831 78.6508 598.776 78.1444 598.512L70.351 594.46ZM66.1364 602.634L67.9652 599.117L75.1959 602.877C75.7023 603.14 76.0272 603.523 76.1705 604.027C76.3326 604.54 76.2819 605.05 76.0186 605.556C75.7553 606.063 75.367 606.397 74.8538 606.559C74.3691 606.712 73.8736 606.657 73.3672 606.393L66.1364 602.634ZM85.0027 602.364C84.4775 602.091 84.1294 601.684 83.9583 601.142C83.7872 600.601 83.8382 600.067 84.1113 599.542C84.3942 598.998 84.8016 598.65 85.3335 598.497C85.8752 598.326 86.4086 598.377 86.9338 598.651L98.9757 604.912C99.5196 605.195 99.8678 605.602 100.02 606.134C100.201 606.657 100.15 607.191 99.867 607.735C99.5939 608.26 99.1865 608.608 98.6448 608.779C98.1219 608.96 97.5885 608.909 97.0445 608.626L85.0027 602.364ZM82.5675 621.757C82.0048 621.465 81.6379 621.048 81.4669 620.506C81.3055 619.945 81.3712 619.384 81.6638 618.821L90.0467 602.7L93.9012 604.704L85.5183 620.825C85.2257 621.388 84.7943 621.76 84.2241 621.94C83.6824 622.111 83.1302 622.05 82.5675 621.757Z" fill="#DD528B"/>
</g>
<path d="M55.5797 1095.47C78.2266 1095.47 96.5856 1082.8 96.5856 1067.18C96.5856 1051.56 78.2266 1038.89 55.5797 1038.89C32.9327 1038.89 14.5738 1051.56 14.5738 1067.18C14.5738 1082.8 32.9327 1095.47 55.5797 1095.47Z" fill="#FFD5AE"/>
<path d="M41.0831 970.583L7.85909 986.497C4.37153 982.869 -2.58456 973.753 4.75903 964.891C13.8242 953.946 33.5616 955.909 41.0831 970.583Z" fill="#FFD5AE"/>
<path d="M28.9751 978.657C28.9751 978.657 18.4552 962.623 9.43453 969.134C0.413865 975.646 11.9375 989.425 11.9375 989.425L28.9751 978.651V978.657Z" fill="#FFF1E6"/>
<path d="M103.307 986.497L70.0762 970.583C77.604 955.909 97.3415 953.946 106.4 964.891C113.744 973.753 106.788 982.869 103.307 986.497Z" fill="#FFD5AE"/>
<path d="M82.1906 978.657C82.1906 978.657 92.7105 962.623 101.731 969.134C110.752 975.646 99.2282 989.425 99.2282 989.425L82.1906 978.651V978.657Z" fill="#FFF1E6"/>
<path d="M114.735 1057.82C98.25 1082.47 55.586 1068.18 55.586 1068.18C55.586 1068.18 12.9221 1082.47 -3.56289 1057.82C-10.6397 1047.24 -8.02875 1037.79 -4.9414 1032.06C-4.93504 1032.05 -4.93505 1032.04 -4.92869 1032.03C-2.97845 1028.4 -0.837627 1026.27 -0.837627 1026.27C-15.7281 1018.73 6.13116 1001.41 6.13116 1001.41C-6.02769 989.253 31.2493 969.853 55.586 969.853C79.9228 969.853 117.2 989.253 105.047 1001.41C105.047 1001.41 126.9 1018.73 112.003 1026.27C112.003 1026.27 112.181 1026.45 112.499 1026.8C113.248 1027.65 114.729 1029.48 116.113 1032.05C116.113 1032.06 116.12 1032.06 116.12 1032.06C119.207 1037.79 121.805 1047.24 114.735 1057.81V1057.82Z" fill="#FFD5AE"/>
<path d="M114.735 1057.82C98.25 1082.47 55.586 1068.18 55.586 1068.18C55.586 1068.18 12.9221 1082.47 -3.56289 1057.82C-10.6397 1047.24 -8.02875 1037.79 -4.9414 1032.06C-4.93504 1032.05 -4.93505 1032.04 -4.92869 1032.03C-4.87152 1031.94 -4.83975 1031.9 -4.83975 1031.9C4.82888 1040.93 17.4896 1045.28 31.37 1040.93C40.4542 1038.07 44.4436 1021.07 55.5924 1021.07C66.7411 1021.07 70.7369 1038.07 79.8211 1040.93C93.6952 1045.28 106.356 1040.93 116.018 1031.9C116.018 1031.9 116.056 1031.96 116.12 1032.06C116.12 1032.06 116.126 1032.06 116.126 1032.06C119.213 1037.8 121.812 1047.25 114.741 1057.82H114.735Z" fill="#FFF1E6"/>
<path d="M25.4105 1056.76C31.2082 1050.96 31.2082 1041.56 25.4105 1035.76C19.6128 1029.96 10.2128 1029.96 4.41512 1035.76C-1.3826 1041.56 -1.3826 1050.96 4.41511 1056.76C10.2128 1062.56 19.6128 1062.56 25.4105 1056.76Z" fill="#FF9EB6"/>
<path d="M99.697 1060.7C107.672 1058.8 112.595 1050.79 110.692 1042.81C108.789 1034.84 100.781 1029.92 92.8059 1031.82C84.8306 1033.72 79.9079 1041.73 81.8109 1049.71C83.7138 1057.68 91.7217 1062.6 99.697 1060.7Z" fill="#FF9EB6"/>
<path d="M114.925 1026.74C117.403 1024.97 118.794 1022.72 119.061 1020.03C119.461 1016.09 117.371 1011.47 112.848 1006.3C110.942 1004.11 109.011 1002.3 107.728 1001.18C109.558 998.541 109.831 995.517 108.516 992.334C107.83 990.683 106.699 988.999 105.168 987.316C107.112 985.194 109.494 982.037 110.733 978.257C112.442 973.035 111.457 967.991 107.874 963.671C103.269 958.107 95.8614 955.299 88.0668 956.15C79.7258 957.065 72.4521 962.007 68.5326 969.395C63.9524 968.449 59.5373 967.934 55.5733 967.934C51.6093 967.934 47.2006 968.442 42.6204 969.395C38.7009 962.007 31.4272 957.065 23.0862 956.15C15.2916 955.299 7.88448 958.107 3.27886 963.671C-0.297643 967.991 -1.28865 973.035 0.420199 978.257C1.65895 982.037 4.03482 985.194 5.98506 987.309C4.45409 988.993 3.32333 990.676 2.63725 992.328C1.32227 995.511 1.59543 998.534 3.42497 1001.17C2.14175 1002.3 0.210563 1004.11 -1.69521 1006.29C-6.21825 1011.47 -8.30825 1016.09 -7.91439 1020.03C-7.64123 1022.72 -6.25637 1024.97 -3.77886 1026.74C-5.10655 1028.44 -6.99326 1031.26 -8.34636 1034.89C-10.4427 1040.53 -11.5925 1049.28 -5.17643 1058.88C-1.1743 1064.86 4.60655 1069.16 12.0073 1071.65C17.0703 1073.35 22.8893 1074.21 29.3372 1074.21C30.2964 1074.21 31.2683 1074.19 32.253 1074.16C43.5288 1073.72 53.0958 1070.96 55.5733 1070.19C58.0508 1070.96 67.6178 1073.72 78.8937 1074.16C86.5167 1074.45 93.3267 1073.6 99.1393 1071.65C106.54 1069.16 112.315 1064.86 116.317 1058.88C126.239 1044.04 118.369 1031.19 114.919 1026.74H114.925ZM88.4924 959.962C95.0038 959.25 101.147 961.55 104.927 966.117C107.518 969.243 110.568 975.767 102.417 984.648C98.6946 981.44 93.5935 978.32 87.4506 975.551C82.5972 973.365 77.4643 971.587 72.4267 970.297C75.8508 964.529 81.7587 960.698 88.4924 959.968V959.962ZM6.23916 966.117C10.019 961.55 16.1683 959.25 22.6733 959.962C29.4007 960.698 35.3149 964.529 38.739 970.291C33.7014 971.58 28.5685 973.359 23.7151 975.551C17.5722 978.314 12.471 981.44 8.74843 984.641C0.598069 975.76 3.64731 969.243 6.23916 966.111V966.117ZM113.134 1056.75C109.621 1062 104.52 1065.79 97.9641 1068.01C92.6089 1069.82 86.2754 1070.6 79.1351 1070.33C66.8174 1069.87 56.2975 1066.4 56.1895 1066.37C55.7957 1066.23 55.3637 1066.23 54.9698 1066.37C54.8682 1066.4 44.4245 1069.85 32.1132 1070.33C24.9602 1070.6 18.6076 1069.83 13.2397 1068.03C6.66479 1065.81 1.54461 1062.02 -1.97472 1056.76C-6.37706 1050.17 -7.3236 1043.31 -4.78892 1036.36C-2.85138 1031.06 0.483727 1027.66 0.515489 1027.63C0.953817 1027.2 1.15075 1026.57 1.05546 1025.97C0.960169 1025.36 0.579015 1024.84 0.0263395 1024.56C-2.5401 1023.27 -3.88685 1021.65 -4.09013 1019.64C-4.68092 1013.81 3.94588 1005.59 7.31275 1002.91C7.74473 1002.57 8.00518 1002.07 8.03695 1001.52C8.06871 1000.97 7.86542 1000.44 7.47792 1000.05C5.6039 998.179 5.19099 996.197 6.18199 993.802C8.13859 989.069 15.2789 983.555 25.2842 979.051C35.4102 974.49 46.7305 971.771 55.5733 971.771C64.4161 971.771 75.7428 974.49 85.8688 979.051C95.8678 983.555 103.014 989.069 104.971 993.802C105.962 996.197 105.549 998.179 103.681 1000.05C103.294 1000.44 103.091 1000.97 103.122 1001.52C103.154 1002.07 103.415 1002.57 103.847 1002.91C107.22 1005.59 115.84 1013.82 115.249 1019.64C115.046 1021.65 113.699 1023.26 111.133 1024.56C110.587 1024.84 110.206 1025.36 110.11 1025.96C110.015 1026.57 110.212 1027.19 110.644 1027.62C110.644 1027.62 110.803 1027.78 111.063 1028.07C112.232 1029.4 115.097 1033.02 116.52 1038.11C118.299 1044.47 117.162 1050.74 113.14 1056.76L113.134 1056.75Z" fill="#E2AB8C"/>
<path d="M61.5765 1038.54C60.0773 1038.54 58.7051 1037.86 58 1036.75C58 1036.75 57.9873 1036.73 57.981 1036.73C57.6633 1036.25 57.5045 1035.73 57.5045 1035.16V1028.57C57.5045 1027.51 56.6469 1026.65 55.586 1026.65C54.5251 1026.65 53.6676 1027.51 53.6676 1028.57V1035.16C53.6676 1035.73 53.5087 1036.26 53.1784 1036.75C52.4669 1037.86 51.0884 1038.54 49.5892 1038.54C48.5283 1038.54 47.6707 1039.4 47.6707 1040.46C47.6707 1041.52 48.5283 1042.38 49.5892 1042.38C51.9142 1042.38 54.1122 1041.44 55.5924 1039.87C57.0725 1041.44 59.2642 1042.38 61.5765 1042.38C62.6374 1042.38 63.495 1041.52 63.495 1040.46C63.495 1039.4 62.6374 1038.54 61.5765 1038.54Z" fill="#E2AB8C"/>
<path d="M59.3913 1025.81C58.413 1024.82 56.8185 1024.82 55.8338 1025.79L55.5924 1026.02L55.3574 1025.78C54.3791 1024.79 52.7846 1024.78 51.7999 1025.76C50.8089 1026.73 50.8026 1028.33 51.7745 1029.31L52.6131 1030.16C54.233 1031.8 56.8757 1031.82 58.521 1030.2L59.3722 1029.36C60.3632 1028.39 60.3696 1026.79 59.3976 1025.81L59.3913 1025.81Z" fill="#FF7AA8"/>
<path d="M81.5236 1042.98C88.4703 1042.98 94.1017 1037.35 94.1017 1030.4C94.1017 1023.45 88.4703 1017.82 81.5236 1017.82C74.5769 1017.82 68.9455 1023.45 68.9455 1030.4C68.9455 1037.35 74.5769 1042.98 81.5236 1042.98Z" fill="#605C5D"/>
<path d="M85.6002 1031.6C88.5225 1030.31 89.8491 1026.9 88.5633 1023.98C87.2775 1021.06 83.8661 1019.73 80.9438 1021.02C78.0215 1022.3 76.6949 1025.71 77.9807 1028.64C79.2666 1031.56 82.6779 1032.88 85.6002 1031.6Z" fill="white"/>
<path d="M86.5104 1036.41C86.5104 1034.45 84.9159 1032.85 82.9466 1032.85C80.9773 1032.85 79.3828 1034.45 79.3828 1036.41C79.3828 1038.38 80.9773 1039.98 82.9466 1039.98C84.9159 1039.98 86.5104 1038.38 86.5104 1036.41Z" fill="white"/>
<path d="M78.5633 1033.14C78.5633 1031.62 77.3373 1030.4 75.8254 1030.4C74.3134 1030.4 73.0874 1031.62 73.0874 1033.14C73.0874 1034.65 74.3134 1035.87 75.8254 1035.87C77.3373 1035.87 78.5633 1034.65 78.5633 1033.14Z" fill="white"/>
<path d="M29.6357 1041.34C36.1298 1041.34 41.3943 1036.07 41.3943 1029.58C41.3943 1023.09 36.1298 1017.82 29.6357 1017.82C23.1416 1017.82 17.8771 1023.09 17.8771 1029.58C17.8771 1036.07 23.1416 1041.34 29.6357 1041.34Z" fill="#605C5D"/>
<path d="M33.497 1031.69C36.4696 1030.53 37.935 1027.17 36.77 1024.2C35.6051 1021.23 32.251 1019.76 29.2784 1020.93C26.3059 1022.09 24.8405 1025.45 26.0054 1028.42C27.1704 1031.39 30.5245 1032.86 33.497 1031.69Z" fill="white"/>
<path d="M34.6225 1036.41C34.6225 1034.45 33.028 1032.85 31.0587 1032.85C29.0894 1032.85 27.4949 1034.45 27.4949 1036.41C27.4949 1038.38 29.0894 1039.98 31.0587 1039.98C33.028 1039.98 34.6225 1038.38 34.6225 1036.41Z" fill="white"/>
<path d="M26.6754 1033.14C26.6754 1031.62 25.4493 1030.4 23.9374 1030.4C22.4255 1030.4 21.1995 1031.62 21.1995 1033.14C21.1995 1034.65 22.4255 1035.87 23.9374 1035.87C25.4493 1035.87 26.6754 1034.65 26.6754 1033.14Z" fill="white"/>
<path d="M50.2054 1078.68C49.945 1078.78 49.6845 1078.87 49.4177 1078.94C50.1737 1086.52 46.1334 1094.87 37.856 1094.24C27.838 1093.48 29.3499 1085.11 29.5151 1072.74C29.7247 1057.48 44.4754 1056.02 51.3044 1061.58C58.1271 1067.14 55.0588 1076.79 50.2118 1078.67L50.2054 1078.68Z" fill="#FFD5AE"/>
<path d="M60.954 1078.68C61.2144 1078.78 61.4749 1078.87 61.7417 1078.94C60.9857 1086.52 65.026 1094.87 73.3034 1094.24C83.3214 1093.48 81.8095 1085.11 81.6443 1072.74C81.4347 1057.48 66.684 1056.02 59.855 1061.58C53.0323 1067.14 56.1006 1076.79 60.9476 1078.67L60.954 1078.68Z" fill="#FFD5AE"/>
<path d="M83.6581 1076.75C83.6263 1075.46 83.5882 1074.12 83.5692 1072.73C83.4358 1063.32 78.3029 1059.53 75.2536 1058.11C69.9556 1055.63 63.1265 1056.45 58.6543 1060.1C57.3775 1061.14 56.3483 1062.35 55.586 1063.69C54.8237 1062.35 53.7946 1061.14 52.5177 1060.1C48.0455 1056.46 41.2165 1055.64 35.9184 1058.11C32.8692 1059.53 27.7363 1063.32 27.6029 1072.73C27.5838 1074.12 27.5457 1075.46 27.514 1076.75C27.3742 1081.9 27.2599 1086.35 28.4033 1089.68C29.7691 1093.66 32.8184 1095.78 37.7226 1096.15C38.0656 1096.17 38.4087 1096.19 38.739 1096.19C41.9534 1096.19 44.8057 1094.99 47.0418 1092.7C49.9322 1089.75 51.5521 1085.07 51.4314 1080.23C53.1149 1079.42 54.5696 1077.95 55.5924 1076.07C56.6215 1077.95 58.0699 1079.43 59.7533 1080.23C59.6326 1085.07 61.2525 1089.75 64.143 1092.7C66.3791 1094.99 69.2314 1096.19 72.4458 1096.19C72.7825 1096.19 73.1192 1096.17 73.4622 1096.15C78.3664 1095.78 81.4156 1093.66 82.7814 1089.68C83.9249 1086.34 83.8042 1081.9 83.6708 1076.75H83.6581ZM53.2292 1071.23C52.81 1073.88 51.2853 1076.2 49.5003 1076.89C49.316 1076.97 49.1128 1077.03 48.8841 1077.1C47.1498 1077.6 45.4727 1077.38 44.1641 1076.49C42.5759 1075.42 41.5913 1073.4 41.3118 1070.65C41.2038 1069.59 40.2636 1068.83 39.2091 1068.93C38.1545 1069.04 37.3859 1069.98 37.4939 1071.04C38.0021 1075.98 40.2318 1078.46 42.0169 1079.66C43.6305 1080.76 45.5807 1081.27 47.5945 1081.18C47.5119 1084.68 46.3176 1087.95 44.2975 1090.02C42.6268 1091.74 40.5114 1092.51 38.0084 1092.32C31.497 1091.83 31.046 1088.14 31.3509 1076.85C31.389 1075.54 31.4208 1074.19 31.4399 1072.77C31.5352 1065.83 34.8131 1062.85 37.5447 1061.58C39.0693 1060.87 40.7909 1060.52 42.5188 1060.52C45.2758 1060.52 48.0582 1061.4 50.1038 1063.06C53.5214 1065.85 53.5405 1069.37 53.2483 1071.23L53.2292 1071.23ZM73.1636 1092.33C70.6671 1092.52 68.5517 1091.75 66.8746 1090.04C64.8545 1087.97 63.6602 1084.69 63.5776 1081.19C65.5914 1081.28 67.5416 1080.77 69.1551 1079.68C70.9402 1078.47 73.17 1075.99 73.6782 1071.05C73.7862 1069.99 73.0175 1069.05 71.963 1068.95C70.9085 1068.84 69.9683 1069.61 69.8603 1070.66C69.5808 1073.41 68.5898 1075.43 67.008 1076.51C65.693 1077.4 64.0159 1077.61 62.288 1077.12C62.0593 1077.05 61.856 1076.98 61.6591 1076.9C59.8867 1076.21 58.3558 1073.89 57.9428 1071.25C57.6506 1069.39 57.6697 1065.87 61.0874 1063.08C64.4098 1060.38 69.6888 1059.75 73.6464 1061.6C76.378 1062.87 79.6496 1065.85 79.7449 1072.79C79.764 1074.21 79.8021 1075.56 79.8338 1076.87C80.1324 1088.16 79.6877 1091.85 73.17 1092.34L73.1636 1092.33Z" fill="#E2AB8C"/>
</g>
<defs>
<filter id="filter0_f_1171_220" x="1278.7" y="763.7" width="896.6" height="205.6" filterUnits="userSpaceOnUse" color-interpolation-filters="sRGB">
<feFlood flood-opacity="0" result="BackgroundImageFix"/>
<feBlend mode="normal" in="SourceGraphic" in2="BackgroundImageFix" result="shape"/>
<feGaussianBlur stdDeviation="7.65" result="effect1_foregroundBlur_1171_220"/>
</filter>
<filter id="filter1_f_1171_220" x="340.8" y="142.8" width="268.4" height="114.4" filterUnits="userSpaceOnUse" color-interpolation-filters="sRGB">
<feFlood flood-opacity="0" result="BackgroundImageFix"/>
<feBlend mode="normal" in="SourceGraphic" in2="BackgroundImageFix" result="shape"/>
<feGaussianBlur stdDeviation="8.6" result="effect1_foregroundBlur_1171_220"/>
</filter>
<filter id="filter2_d_1171_220" x="864.124" y="913.508" width="258.107" height="202.069" filterUnits="userSpaceOnUse" color-interpolation-filters="sRGB">
<feFlood flood-opacity="0" result="BackgroundImageFix"/>
<feColorMatrix in="SourceAlpha" type="matrix" values="0 0 0 0 0 0 0 0 0 0 0 0 0 0 0 0 0 0 127 0" result="hardAlpha"/>
<feOffset dx="-26.4262" dy="10.5705"/>
<feGaussianBlur stdDeviation="5.28523"/>
<feComposite in2="hardAlpha" operator="out"/>
<feColorMatrix type="matrix" values="0 0 0 0 0 0 0 0 0 0 0 0 0 0 0 0 0 0 0.13 0"/>
<feBlend mode="normal" in2="BackgroundImageFix" result="effect1_dropShadow_1171_220"/>
<feBlend mode="normal" in="SourceGraphic" in2="effect1_dropShadow_1171_220" result="shape"/>
</filter>
<linearGradient id="paint0_linear_1171_220" x1="960" y1="1080" x2="960" y2="0" gradientUnits="userSpaceOnUse">
<stop stop-color="white"/>
<stop offset="1" stop-color="#53C3F1"/>
</linearGradient>
<clipPath id="clip0_1171_220">
<rect width="1920" height="1080" fill="white"/>
</clipPath>
<clipPath id="clip1_1171_220">
<rect width="240" height="362.166" fill="white" transform="translate(0 358)"/>
</clipPath>
</defs>
</svg>
