<svg width="400" height="200" viewBox="0 0 400 200" fill="none" xmlns="http://www.w3.org/2000/svg">
<g clip-path="url(#clip0_1198_63)">
<rect width="400" height="200" fill="url(#paint0_linear_1198_63)"/>
<path d="M171.494 60.7879C171.048 62.2833 170.226 63.4296 169.496 64.448C169.367 64.6291 169.241 64.8047 169.122 64.9759C168.957 64.8467 168.791 64.7153 168.617 64.5806C167.178 63.4518 165.547 62.1739 164.3 60.4069L163.38 59.1037L163.498 60.694C163.881 65.8595 163.76 68.9466 163.397 74.0769C160.17 74.0725 156.423 71.9011 153.84 69.7408C154.426 68.3116 154.906 67.4358 155.804 66.1811L158.412 68.9333L158.517 67.9879C158.834 65.1317 158.846 50.0405 158.664 44.4352C162.558 44.3953 166.673 44.9344 171.222 46.0786C171.377 47.1444 171.066 48.6167 170.834 49.7145C170.82 49.7763 170.808 49.837 170.795 49.8967C167.946 49.7497 166.183 49.3377 163.228 48.452L162.271 48.1649L162.703 49.0662C164.156 52.1001 169.546 58.759 171.494 60.7879H171.494Z" fill="white"/>
<path d="M157.398 44.4782C157.21 53.3471 155.436 57.6888 149.419 64.0064C148.054 62.4812 147.465 61.5037 146.774 60.0236C150.125 56.0774 151.521 53.611 152.924 49.202L153.247 48.1837L152.298 48.6762C150.966 49.3675 150.134 49.5974 148.769 49.8491C148.418 48.4618 148.333 47.5409 148.415 46.0707C152.006 45.1938 154.813 44.6956 157.398 44.478L157.398 44.4782Z" fill="white"/>
<path d="M178.312 68.294C177.832 68.294 177.422 68.1237 177.081 67.7831C176.741 67.4269 176.57 67.0088 176.57 66.5288V57.61C176.57 57.13 176.741 56.7196 177.081 56.379C177.422 56.0383 177.832 55.868 178.312 55.868C178.792 55.868 179.203 56.0383 179.543 56.379C179.884 56.7196 180.054 57.13 180.054 57.61V66.5288C180.054 67.0088 179.884 67.4269 179.543 67.7831C179.203 68.1237 178.792 68.294 178.312 68.294ZM178.289 54.7764C177.763 54.7764 177.329 54.6061 176.988 54.2654C176.648 53.9248 176.478 53.4447 176.478 52.8254C176.478 52.206 176.648 51.726 176.988 51.3854C177.329 51.0447 177.763 50.8744 178.289 50.8744C178.847 50.8744 179.296 51.0447 179.636 51.3854C179.977 51.726 180.147 52.206 180.147 52.8254C180.147 53.4447 179.977 53.9248 179.636 54.2654C179.296 54.6061 178.847 54.7764 178.289 54.7764ZM184.538 68.0618C184.011 68.0618 183.578 67.9069 183.237 67.5972C182.897 67.2721 182.695 66.8772 182.633 66.4127C182.571 65.9482 182.695 65.5069 183.005 65.0888L188.115 58.2835L190.275 59.3519H184.422C183.942 59.3519 183.531 59.1971 183.191 58.8874C182.85 58.5623 182.68 58.1751 182.68 57.7261C182.68 57.2771 182.85 56.8977 183.191 56.588C183.531 56.2629 183.942 56.1003 184.422 56.1003H190.275C190.817 56.1003 191.25 56.2629 191.575 56.588C191.916 56.9132 192.117 57.308 192.179 57.7726C192.241 58.2371 192.11 58.6861 191.784 59.1197L186.791 65.7856L184.538 64.8101H190.902C191.382 64.8101 191.792 64.9727 192.133 65.2979C192.474 65.6075 192.644 65.9869 192.644 66.4359C192.644 66.8695 192.474 67.2489 192.133 67.574C191.792 67.8992 191.382 68.0618 190.902 68.0618H184.538ZM199.419 68.294C198.444 68.294 197.631 68.1082 196.981 67.7366C196.346 67.365 195.866 66.8308 195.541 66.134C195.231 65.4372 195.076 64.6088 195.076 63.6488V57.4938C195.076 57.0138 195.246 56.6035 195.587 56.2629C195.928 55.9222 196.338 55.7519 196.818 55.7519C197.298 55.7519 197.708 55.9222 198.049 56.2629C198.39 56.6035 198.56 57.0138 198.56 57.4938V62.9752C198.56 63.7804 198.746 64.3223 199.117 64.6011C199.505 64.8798 200 65.0191 200.604 65.0191C201.115 65.0191 201.533 64.903 201.858 64.6707C202.199 64.4385 202.447 64.1443 202.601 63.7881C202.772 63.4165 202.857 63.0217 202.857 62.6036V57.4938C202.857 57.0138 203.027 56.6035 203.368 56.2629C203.708 55.9222 204.119 55.7519 204.599 55.7519C205.094 55.7519 205.505 55.9222 205.83 56.2629C206.17 56.6035 206.341 57.0138 206.341 57.4938V66.5288C206.341 67.0088 206.17 67.4192 205.83 67.7598C205.505 68.1005 205.094 68.2708 204.599 68.2708C204.119 68.2708 203.708 68.1005 203.368 67.7598C203.027 67.4192 202.857 67.0088 202.857 66.5288V65.0656L203.554 65.3211C203.058 66.3121 202.485 67.0553 201.835 67.5508C201.185 68.0463 200.379 68.294 199.419 68.294ZM211.639 68.294C211.144 68.294 210.718 68.116 210.362 67.7598C210.005 67.4037 209.827 66.9779 209.827 66.4824V53.6151C209.827 53.1196 210.005 52.6938 210.362 52.3376C210.718 51.9815 211.144 51.8034 211.639 51.8034H213.451V66.4824C213.451 66.9779 213.273 67.4037 212.917 67.7598C212.56 68.116 212.135 68.294 211.639 68.294ZM212.754 62.1391V58.8874H216.284C216.64 58.8874 216.95 58.81 217.213 58.6552C217.492 58.5003 217.709 58.2835 217.864 58.0048C218.019 57.7261 218.096 57.4087 218.096 57.0525C218.096 56.6345 218.019 56.2783 217.864 55.9841C217.709 55.6745 217.477 55.4422 217.167 55.2874C216.873 55.1325 216.517 55.0551 216.098 55.0551H212.754V51.8034H216.424C217.461 51.8034 218.382 52.0202 219.188 52.4538C219.993 52.8873 220.628 53.4912 221.092 54.2654C221.572 55.0396 221.812 55.9454 221.812 56.9829C221.812 58.0203 221.58 58.9261 221.115 59.7003C220.651 60.4745 220.031 61.0784 219.257 61.512C218.483 61.9301 217.631 62.1391 216.702 62.1391H212.754ZM226.981 68.4102C226.316 68.4102 225.665 68.2785 225.03 68.0153C224.411 67.7521 223.892 67.3572 223.474 66.8308C223.072 66.2888 222.87 65.6075 222.87 64.7869C222.87 63.5946 223.234 62.6888 223.962 62.0694C224.705 61.4346 225.913 60.9855 227.585 60.7223C228.05 60.6449 228.483 60.5752 228.886 60.5133C229.289 60.4513 229.614 60.3584 229.861 60.2345C230.109 60.0952 230.233 59.8861 230.233 59.6074C230.233 59.3907 230.171 59.2126 230.047 59.0732C229.939 58.9184 229.776 58.81 229.56 58.7481C229.358 58.6706 229.11 58.6319 228.816 58.6319C228.429 58.6319 228.096 58.7016 227.818 58.841C227.554 58.9803 227.307 59.1661 227.074 59.3984C226.858 59.6152 226.602 59.7932 226.308 59.9326C226.029 60.072 225.712 60.1416 225.356 60.1416C224.876 60.1416 224.488 60.0178 224.194 59.77C223.9 59.5223 223.753 59.1816 223.753 58.7481C223.753 58.33 223.885 57.9429 224.148 57.5868C224.411 57.2306 224.767 56.9209 225.216 56.6577C225.665 56.379 226.192 56.1622 226.796 56.0074C227.399 55.8525 228.034 55.7751 228.7 55.7751C229.753 55.7751 230.651 55.9687 231.394 56.3558C232.138 56.7274 232.703 57.2538 233.09 57.9351C233.493 58.6164 233.694 59.4139 233.694 60.3274V64.5314C233.694 64.7327 233.717 64.872 233.763 64.9495C233.81 65.0114 233.911 65.0733 234.065 65.1353C234.329 65.2437 234.576 65.4217 234.809 65.6695C235.056 65.9017 235.18 66.2269 235.18 66.645C235.18 67.1095 235.01 67.5043 234.669 67.8295C234.329 68.1547 233.841 68.3095 233.206 68.294C232.509 68.2785 231.967 68.116 231.58 67.8063C231.209 67.4811 230.961 67.063 230.837 66.5521L230.814 66.4592H230.744C230.311 67.1095 229.815 67.5972 229.258 67.9224C228.716 68.2476 227.957 68.4102 226.981 68.4102ZM227.887 65.4837C228.305 65.4837 228.692 65.3985 229.049 65.2282C229.405 65.0578 229.691 64.8101 229.908 64.4849C230.125 64.1443 230.233 63.7417 230.233 63.2772V62.6965C230.233 62.6501 230.218 62.6268 230.187 62.6268C230.171 62.6268 230.132 62.6423 230.071 62.6733C229.9 62.7662 229.707 62.8436 229.49 62.9056C229.273 62.952 229.041 62.9907 228.793 63.0217C228.545 63.0527 228.267 63.1068 227.957 63.1843C227.291 63.3391 226.858 63.5249 226.656 63.7417C226.47 63.943 226.378 64.1753 226.378 64.4385C226.378 64.7946 226.501 65.0578 226.749 65.2282C227.012 65.3985 227.392 65.4837 227.887 65.4837ZM241.726 68.4798C240.689 68.4798 239.783 68.325 239.009 68.0153C238.235 67.7056 237.631 67.3185 237.197 66.854C236.779 66.3895 236.57 65.9404 236.57 65.5069C236.57 65.1508 236.71 64.8024 236.988 64.4617C237.267 64.1211 237.685 63.9507 238.242 63.9507C238.63 63.9507 238.947 64.0282 239.195 64.183C239.443 64.3223 239.621 64.4462 239.729 64.5546C240.178 64.9417 240.588 65.2127 240.96 65.3675C241.332 65.5069 241.688 65.5766 242.028 65.5766C242.431 65.5766 242.71 65.5069 242.865 65.3675C243.035 65.2127 243.12 65.0346 243.12 64.8333C243.12 64.6475 243.043 64.4772 242.888 64.3223C242.733 64.1675 242.501 64.0204 242.191 63.8811C241.881 63.7262 241.494 63.5714 241.03 63.4165C240.488 63.2307 239.969 63.0372 239.473 62.8359C238.993 62.6191 238.568 62.3636 238.196 62.0694C237.824 61.7752 237.53 61.4191 237.313 61.001C237.112 60.5829 237.012 60.072 237.012 59.4681C237.012 58.7403 237.205 58.0977 237.592 57.5403C237.995 56.9674 238.537 56.5183 239.218 56.1932C239.915 55.868 240.704 55.7054 241.587 55.7054C242.423 55.7054 243.166 55.8448 243.817 56.1235C244.483 56.4022 245.001 56.7661 245.373 57.2151C245.76 57.6487 245.954 58.1287 245.954 58.6552C245.954 59.0423 245.837 59.3752 245.605 59.6539C245.388 59.9326 245.04 60.072 244.56 60.072C244.157 60.072 243.825 59.9868 243.561 59.8165C243.298 59.6307 243.089 59.4681 242.934 59.3287C242.826 59.2203 242.702 59.1119 242.563 59.0036C242.439 58.8952 242.284 58.8023 242.098 58.7248C241.928 58.6474 241.711 58.6087 241.448 58.6087C241.076 58.6087 240.821 58.6784 240.681 58.8177C240.557 58.9571 240.495 59.1119 240.495 59.2823C240.495 59.5145 240.588 59.7081 240.774 59.8629C240.96 60.0023 241.262 60.1494 241.68 60.3042C242.098 60.4591 242.655 60.6681 243.352 60.9313C243.91 61.1326 244.39 61.3571 244.792 61.6049C245.21 61.8371 245.551 62.1004 245.814 62.3946C246.093 62.6733 246.294 62.9907 246.418 63.3468C246.557 63.6875 246.627 64.0823 246.627 64.5314C246.627 65.3366 246.426 66.0411 246.023 66.645C245.621 67.2334 245.048 67.6901 244.305 68.0153C243.577 68.325 242.717 68.4798 241.726 68.4798ZM253.634 68.4798C252.597 68.4798 251.691 68.325 250.917 68.0153C250.143 67.7056 249.539 67.3185 249.105 66.854C248.687 66.3895 248.478 65.9404 248.478 65.5069C248.478 65.1508 248.618 64.8024 248.896 64.4617C249.175 64.1211 249.593 63.9507 250.15 63.9507C250.538 63.9507 250.855 64.0282 251.103 64.183C251.35 64.3223 251.529 64.4462 251.637 64.5546C252.086 64.9417 252.496 65.2127 252.868 65.3675C253.24 65.5069 253.596 65.5766 253.936 65.5766C254.339 65.5766 254.618 65.5069 254.772 65.3675C254.943 65.2127 255.028 65.0346 255.028 64.8333C255.028 64.6475 254.951 64.4772 254.796 64.3223C254.641 64.1675 254.409 64.0204 254.099 63.8811C253.789 63.7262 253.402 63.5714 252.938 63.4165C252.396 63.2307 251.877 63.0372 251.381 62.8359C250.901 62.6191 250.476 62.3636 250.104 62.0694C249.732 61.7752 249.438 61.4191 249.221 61.001C249.02 60.5829 248.919 60.072 248.919 59.4681C248.919 58.7403 249.113 58.0977 249.5 57.5403C249.903 56.9674 250.445 56.5183 251.126 56.1932C251.823 55.868 252.612 55.7054 253.495 55.7054C254.331 55.7054 255.074 55.8448 255.725 56.1235C256.391 56.4022 256.909 56.7661 257.281 57.2151C257.668 57.6487 257.862 58.1287 257.862 58.6552C257.862 59.0423 257.745 59.3752 257.513 59.6539C257.296 59.9326 256.948 60.072 256.468 60.072C256.065 60.072 255.732 59.9868 255.469 59.8165C255.206 59.6307 254.997 59.4681 254.842 59.3287C254.734 59.2203 254.61 59.1119 254.471 59.0036C254.347 58.8952 254.192 58.8023 254.006 58.7248C253.836 58.6474 253.619 58.6087 253.356 58.6087C252.984 58.6087 252.729 58.6784 252.589 58.8177C252.465 58.9571 252.403 59.1119 252.403 59.2823C252.403 59.5145 252.496 59.7081 252.682 59.8629C252.868 60.0023 253.17 60.1494 253.588 60.3042C254.006 60.4591 254.563 60.6681 255.26 60.9313C255.818 61.1326 256.298 61.3571 256.7 61.6049C257.118 61.8371 257.459 62.1004 257.722 62.3946C258.001 62.6733 258.202 62.9907 258.326 63.3468C258.465 63.6875 258.535 64.0823 258.535 64.5314C258.535 65.3366 258.334 66.0411 257.931 66.645C257.529 67.2334 256.956 67.6901 256.212 68.0153C255.485 68.325 254.625 68.4798 253.634 68.4798Z" fill="white"/>
<g filter="url(#filter0_f_1198_63)">
<path d="M144 128H-59.9862C-60.4466 121.85 -49.2451 119.174 -43.5868 118.604C-40.7097 105.222 -28.3382 103.799 -20.2823 108.639C-15.3912 95.5417 -0.430313 95.257 7.91327 100.382C11.6535 94.6876 18.8462 87 31.2178 87C46.8692 87.4556 54.2346 99.9075 55.9608 106.077C63.096 103.799 68.9077 106.456 70.9217 108.07C72.9357 104.938 77.539 97.5347 89.0474 98.1042C98.2541 98.5597 103.817 107.025 105.447 111.201C119.257 106.076 123.573 118.604 125.011 118.604C137.67 118.604 142.945 124.868 144 128Z" fill="#FFFEFF"/>
</g>
<path d="M146 185H-38C-34.7427 179.058 -21.3902 178.355 -15.1212 178.745C-13.764 163.5 1.55322 160.764 7.56375 163.5C7.36987 162.327 12.2171 142 31.7998 142C49.1722 142.313 55.8419 155.682 57.0053 162.327C63.9853 160.451 70.5128 165.976 72.9041 168.973C80.6596 156.073 95.9768 163.109 98.3035 172.1C109.006 167.566 115.43 175.162 117.305 179.527C135.608 176.713 144.061 182.003 146 185Z" fill="#FFFEFF"/>
<path d="M256 168H390C387.628 163.716 377.904 163.209 373.338 163.491C372.35 152.5 361.195 150.527 356.818 152.5C356.959 151.655 353.429 137 339.168 137C326.516 137.225 321.659 146.864 320.811 151.655C315.728 150.302 310.974 154.285 309.233 156.446C303.585 147.145 292.43 152.218 290.736 158.7C282.941 155.431 278.263 160.908 276.898 164.055C263.568 162.025 257.412 165.839 256 168Z" fill="#FFFEFF"/>
<path d="M323 73H436C434 69.4073 425.799 68.9818 421.949 69.2181C421.116 60 411.709 58.3454 408.018 60C408.137 59.2909 405.16 47 393.134 47C382.465 47.1891 378.369 55.2727 377.654 59.2909C373.368 58.1563 369.359 61.497 367.89 63.3092C363.128 55.5091 353.721 59.7636 352.292 65.2C345.719 62.4582 341.774 67.0515 340.623 69.6909C329.382 67.9891 324.191 71.1879 323 73Z" fill="#FFFEFF"/>
<g filter="url(#filter1_f_1198_63)">
<path d="M29 30H-6C-5.74154 27.6576 -2.44615 26.8378 -0.830769 26.7208C-0.4 21.6613 3.36923 21.6457 5.2 22.2703C5.63077 20.5135 7.35385 17 11.3385 17C16.1631 17.1874 17.4769 21.1772 17.6923 23.3243C20.9662 22.5748 22.5026 25.5495 22.7538 27.0721C26.8031 26.9784 28.6051 28.985 29 30Z" fill="#FFFEFF"/>
</g>
<path d="M407 30H367C367.295 27.4774 371.062 26.5946 372.908 26.4685C373.4 21.0198 377.708 21.003 379.8 21.6757C380.292 19.7838 382.262 16 386.815 16C392.329 16.2018 393.831 20.4985 394.077 22.8108C397.818 22.0036 399.574 25.2072 399.862 26.8468C404.489 26.7459 406.549 28.9069 407 30Z" fill="#FFFEFF"/>
<g clip-path="url(#clip1_1198_63)">
<path d="M42.9486 165.64C43.0451 163.078 42.1457 160.974 41.7952 160.255C41.7077 160.08 41.6573 159.987 41.6573 159.987C48.4443 158.611 41.6169 149.288 41.6169 149.288C44.1691 147.838 43.5063 144.975 41.159 141.923L42.5646 143.142C44.3553 142.076 48.1422 139.197 46.1832 134.848C43.7659 129.478 35.6565 128.099 31.0278 133.134L32.8177 134.688C30.3543 133.153 27.7379 131.916 25.312 131.25C22.8831 130.582 19.999 130.311 17.0933 130.374L19.4338 129.952C18.0401 123.263 10.3676 120.312 5.53458 123.691C1.61949 126.427 3.39826 130.83 4.39334 132.664L6.22736 132.333C2.64604 133.758 0.606184 135.879 2.05878 138.429C2.05878 138.429 -8.59097 142.952 -3.46789 147.599C-3.46789 147.599 -5.95002 149.005 -7.47154 151.801C-8.56282 153.795 -9.16885 156.497 -8.0369 159.903C-5.93554 166.223 0.500429 168.817 5.95484 169.866C4.60612 170.525 3.44089 171.596 2.67339 173.014C0.711651 176.637 2.0592 181.163 5.68839 183.122C9.31757 185.08 13.8471 183.729 15.8104 180.103C17.6034 176.791 16.6314 172.731 13.6835 170.559C14.1903 170.554 14.4746 170.537 14.4746 170.537C14.4746 170.537 29.9631 180.928 39.2723 172.889C41.9939 170.539 42.8617 167.905 42.9503 165.637L42.9486 165.64Z" fill="#F8D4AE"/>
<path d="M13.2213 130.654C10.1465 131.036 7.27086 131.773 5.14712 132.804C4.50658 130.715 3.88094 127.031 6.92345 125.9C10.1483 124.697 12.3236 128.59 13.2213 130.654Z" fill="#FFF1E6"/>
<path d="M41.8288 142.881C40.5344 140.912 38.4417 138.807 35.9897 136.914C37.8174 135.6 41.689 133.367 43.8395 136.046C45.8667 138.572 43.4478 141.415 41.8272 142.884L41.8288 142.881Z" fill="#FFF1E6"/>
<path d="M39.2777 172.892C29.9669 180.932 14.4757 170.539 14.4757 170.539C14.4757 170.539 -4.16159 171.564 -8.04263 159.902C-9.17478 156.495 -8.56864 153.793 -7.47717 151.798C-4.12292 155.626 0.764461 157.818 6.38741 157.742C10.7585 157.68 14.4675 151.187 19.4351 152.551C24.4026 153.915 24.2604 161.387 27.985 163.672C32.7797 166.608 38.1042 167.219 42.9516 165.64C42.8631 167.909 41.9952 170.543 39.273 172.893L39.2777 172.892Z" fill="#FFF1E6"/>
<path d="M1.82881 164.422C5.12585 163.58 7.11701 160.23 6.27619 156.94C5.43536 153.649 2.08096 151.664 -1.21609 152.506C-4.51313 153.348 -6.50429 156.698 -5.66346 159.988C-4.82264 163.278 -1.46824 165.263 1.82881 164.422Z" fill="#FD9DB4"/>
<path d="M38.7783 169.036C39.6837 165.761 37.7576 162.374 34.477 161.475C31.1981 160.574 27.8065 162.5 26.9041 165.777C25.9988 169.053 27.9249 172.439 31.2054 173.338C34.4843 174.24 37.8759 172.314 38.7783 169.036Z" fill="#FD9DB4"/>
<path d="M42.7902 160.507C43.9731 160.069 44.774 159.32 45.1816 158.274C46.3036 155.378 43.8515 151.174 42.7355 149.491C43.7519 148.637 44.1928 147.458 44.0172 146.043C43.9249 145.311 43.6592 144.513 43.2361 143.677C44.2469 143.041 45.5426 142.044 46.452 140.672C47.7143 138.77 47.8746 136.641 46.9163 134.517C45.6832 131.784 43.0283 129.844 39.8147 129.33C36.3764 128.779 32.9191 129.954 30.5351 132.474C28.8104 131.594 27.1023 130.905 25.5233 130.471C23.9444 130.037 22.1223 129.759 20.19 129.634C19.4326 126.251 17.0655 123.479 13.8294 122.197C10.8012 120.997 7.5243 121.308 5.06549 123.029C3.15322 124.363 2.2018 126.278 2.30982 128.556C2.38952 130.198 2.98891 131.718 3.53146 132.778C2.73847 133.283 2.10131 133.83 1.64608 134.413C0.768964 135.539 0.544345 136.777 0.978422 138.03C-0.841256 138.907 -5.1105 141.266 -5.62902 144.329C-5.81735 145.435 -5.51107 146.487 -4.7233 147.466C-5.44406 148.003 -6.50207 148.919 -7.4412 150.217C-8.90282 152.244 -10.3301 155.617 -8.81833 160.163C-7.70722 163.508 -5.3127 166.187 -1.78237 168.092C0.0142868 169.061 2.10882 169.831 4.47587 170.384C9.02827 171.447 13.1558 171.397 14.2373 171.361C15.1491 171.946 18.6686 174.093 23.1259 175.503C29.9982 177.678 35.7609 176.984 39.7917 173.505C45.3906 168.669 43.6768 162.678 42.7855 160.509L42.7902 160.507ZM39.5571 130.929C42.2348 131.36 44.4326 132.948 45.4421 135.186C46.1297 136.715 46.6273 139.64 42.4113 142.287C41.2741 140.601 39.5807 138.796 37.4331 137.021C35.736 135.618 33.8849 134.348 32.0166 133.281C34.0164 131.363 36.7911 130.49 39.5554 130.932L39.5571 130.929ZM5.993 124.358C8.00518 122.954 10.7108 122.71 13.2299 123.705C15.8318 124.734 17.7698 126.903 18.5029 129.571C16.3527 129.534 14.1094 129.683 11.9303 130.021C9.17444 130.451 6.79643 131.135 4.95251 132.007C2.68613 127.581 4.61453 125.322 5.99138 124.361L5.993 124.358ZM38.7401 172.283C35.1143 175.415 30.0392 175.984 23.6589 173.974C18.7845 172.44 14.9605 169.896 14.9232 169.872C14.7783 169.774 14.6029 169.726 14.4271 169.736C14.3827 169.739 9.79313 169.97 4.81688 168.802C-1.69647 167.274 -5.76565 164.196 -7.27445 159.652C-9.74143 152.225 -3.34706 148.461 -3.07352 148.306C-2.84807 148.176 -2.69726 147.948 -2.66765 147.693C-2.63943 147.433 -2.73502 147.18 -2.92777 147.006C-3.8069 146.21 -4.16751 145.423 -4.02663 144.605C-3.62145 142.217 0.72951 139.879 2.37099 139.181C2.58297 139.09 2.7473 138.915 2.82002 138.695C2.89575 138.476 2.87151 138.235 2.75733 138.037C2.21734 137.088 2.27163 136.257 2.929 135.415C4.22963 133.743 7.69025 132.326 12.1851 131.627C16.7352 130.918 21.5626 131.071 25.0941 132.044C26.7804 132.508 28.6232 133.278 30.4769 134.278C32.5075 135.374 34.5461 136.741 36.4008 138.277C39.9021 141.173 42.148 144.155 42.4097 146.256C42.5419 147.314 42.1623 148.059 41.211 148.599C41.0106 148.711 40.87 148.906 40.8215 149.132C40.773 149.358 40.8234 149.594 40.9593 149.779C42.0099 151.218 44.5497 155.446 43.6727 157.703C43.373 158.479 42.6613 158.97 41.494 159.208C41.2405 159.261 41.0261 159.428 40.9177 159.663C40.8094 159.899 40.8204 160.173 40.9475 160.396C40.9532 160.407 40.9965 160.484 41.0653 160.622C41.3844 161.279 42.1332 163.038 42.1405 165.222C42.1499 167.954 41.0065 170.33 38.7399 172.291L38.7401 172.283Z" fill="#D3A98C"/>
<path d="M29.8001 160.951C29.4249 162.317 28.0088 163.121 26.6432 162.744C25.2759 162.37 24.4716 160.957 24.8499 159.592C25.2281 158.228 26.6411 157.422 28.0068 157.799C29.3741 158.173 30.1783 159.586 29.8001 160.951Z" fill="#5F5C5D"/>
<path d="M11.1734 155.833C10.7982 157.199 9.38215 158.003 8.01647 157.627C6.64918 157.253 5.84495 155.839 6.22318 154.475C6.59841 153.109 8.01444 152.304 9.38011 152.681C10.7474 153.055 11.5516 154.469 11.1734 155.833Z" fill="#5F5C5D"/>
<path d="M22.1961 158.668C22.1961 158.668 21.3336 161.421 19.7076 163.243C19.5857 163.382 19.4563 163.514 19.3193 163.645C18.3652 164.556 17.1837 165.092 15.7865 164.651C14.5252 164.253 13.8649 163.297 13.5565 162.17C13.5058 161.992 13.4676 161.804 13.434 161.616C13.0082 159.117 13.9819 156.087 13.9819 156.087C13.9213 157.065 14.5293 157.989 15.505 158.299C16.6529 158.663 17.8836 158.022 18.2487 156.875C17.8836 158.022 18.5214 159.249 19.6723 159.614C20.6496 159.921 21.6792 159.508 22.1929 158.674L22.1961 158.668Z" fill="#5F5C5D"/>
<path d="M19.3221 163.642C18.3679 164.552 17.1863 165.088 15.789 164.648C14.5277 164.25 13.8673 163.293 13.5589 162.166C14.5144 161.26 15.6993 160.719 17.0936 161.157C18.3579 161.557 19.0169 162.509 19.3205 163.645L19.3221 163.642Z" fill="#E27FA3"/>
<path d="M14.8059 165.109C14.11 164.734 13.5668 164.169 13.1788 163.426C11.7108 160.596 13.1493 156.028 13.2104 155.837L14.7539 156.329C14.3891 157.468 13.6592 160.835 14.6188 162.685C14.9319 163.287 15.3924 163.675 16.0313 163.877C16.6703 164.078 17.2732 164.024 17.8755 163.706C19.7333 162.737 21.0656 159.568 21.4198 158.427L22.9652 158.908C22.9041 159.1 21.452 163.665 18.6227 165.139C17.6324 165.659 16.5949 165.749 15.5391 165.416C15.2778 165.333 15.0309 165.231 14.8029 165.108L14.8059 165.109Z" fill="#F8D4AE"/>
<path d="M22.6196 157.98C22.2379 157.747 21.7397 157.865 21.5031 158.245C21.1728 158.783 20.5196 159.023 19.9168 158.834C19.2083 158.61 18.8097 157.864 19.0065 157.157L19.3213 156.01L17.7587 155.581L17.47 156.63C17.3596 156.977 17.1199 157.262 16.7925 157.43C16.4651 157.598 16.0931 157.634 15.7427 157.522C15.1399 157.333 14.7449 156.759 14.7819 156.132C14.81 155.687 14.4668 155.304 14.0206 155.276C13.5744 155.248 13.1909 155.591 13.1628 156.037C13.0912 157.215 13.7169 158.3 14.7248 158.844C14.8898 158.933 15.0659 159.009 15.2517 159.066C16.0131 159.307 16.8273 159.235 17.5381 158.867C17.5661 158.851 17.5971 158.837 17.6251 158.821C17.9711 159.542 18.6024 160.123 19.4242 160.381C20.7355 160.794 22.1565 160.267 22.8765 159.094C23.1101 158.713 22.9919 158.215 22.6119 157.979L22.6196 157.98Z" fill="#D3A98C"/>
<path d="M20.3466 155.182C20.0654 154.678 19.4287 154.501 18.9237 154.782L18.8009 154.851L18.7316 154.729C18.4503 154.224 17.8136 154.047 17.3086 154.329C16.8036 154.61 16.6259 155.246 16.9071 155.75L17.1495 156.183C17.617 157.016 18.6724 157.315 19.507 156.847L19.9405 156.605C20.4456 156.324 20.6233 155.687 20.342 155.183L20.3466 155.182Z" fill="#E27FA3"/>
<path d="M27.7295 200.691C37.2702 197.848 42.7008 187.824 39.8589 178.302C37.0171 168.781 26.979 163.367 17.4382 166.211C7.89737 169.055 2.46681 179.079 5.30867 188.601C8.15053 198.122 18.1887 203.535 27.7295 200.691Z" fill="#B5F6F8"/>
<path d="M40.6194 178.031C39.1784 173.233 35.9567 169.284 31.5446 166.903C31.5446 166.903 31.5296 166.895 31.5236 166.891L31.5116 166.885C31.4936 166.875 31.4726 166.864 31.4546 166.854C27.0385 164.502 21.972 164.003 17.1724 165.444C12.3543 166.891 8.38938 170.127 6.00495 174.553C1.09142 183.678 4.50862 195.084 13.6269 200.004C13.6388 200.011 13.6508 200.017 13.6628 200.024C22.8074 204.931 34.2464 201.492 39.1695 192.356C41.5539 187.93 42.0676 182.844 40.6224 178.032L40.6194 178.031ZM27.5017 195.273C29.1204 193.579 30.6025 191.579 31.8691 189.354L37.3375 192.289C35.3894 195.536 32.5078 197.924 29.2272 199.294C28.8105 197.881 28.227 196.532 27.5033 195.27L27.5017 195.273ZM5.68254 186.659C5.01866 183.168 5.42553 179.453 7.0631 176.042L12.5315 178.977C11.3745 181.257 10.5176 183.599 9.99696 185.877C8.54445 185.969 7.09415 186.228 5.68254 186.659ZM17.6668 171.632C16.048 173.327 14.5659 175.327 13.2993 177.552L7.82786 174.615C9.72618 171.445 12.5467 169.013 15.9355 167.6C16.3551 169.015 16.9371 170.367 17.6638 171.631L17.6668 171.632ZM39.4951 180.243C40.1844 183.845 39.7051 187.537 38.1053 190.864L32.6339 187.927C33.7909 185.647 34.6478 183.305 35.1701 181.023C36.6272 180.93 38.0775 180.671 39.4937 180.239L39.4951 180.243ZM31.2089 187.166L23.6813 183.123L25.7963 179.195C28.2213 180.364 30.8515 180.989 33.5043 181.058C33.0058 183.074 32.2372 185.137 31.2105 187.163L31.2089 187.166ZM26.5641 177.77L31.4208 168.749C33.1228 170.051 34.087 172.465 34.1516 175.66C34.1781 176.871 34.0698 178.145 33.8416 179.447C31.3414 179.426 28.8527 178.861 26.5641 177.77ZM29.9975 167.985L25.1408 177.005C22.9674 175.701 21.1231 173.939 19.7251 171.868C20.6898 170.959 21.692 170.168 22.7199 169.522C25.4269 167.815 27.974 167.284 30.0005 167.986L29.9975 167.985ZM24.3684 178.432L22.2533 182.36L14.7256 178.317C15.8497 176.349 17.1508 174.568 18.5627 173.041C20.081 175.212 22.0554 177.056 24.3684 178.432ZM13.9579 179.743L21.4855 183.785L19.3721 187.71C16.9471 186.541 14.3169 185.916 11.6641 185.848C12.1626 183.832 12.9312 181.768 13.9579 179.743ZM18.6043 189.136L13.7476 198.156C12.0456 196.854 11.0814 194.44 11.0168 191.245C10.9903 190.034 11.0969 188.764 11.3268 187.459C13.827 187.479 16.3157 188.044 18.6043 189.136ZM15.1739 198.922L20.0307 189.901C22.2041 191.206 24.0483 192.968 25.4463 195.039C24.4816 195.947 23.4795 196.739 22.4515 197.385C19.7445 199.092 17.1975 199.623 15.1709 198.92L15.1739 198.922ZM20.8 188.473L22.9135 184.548L30.4411 188.591C29.3171 190.56 28.016 192.34 26.6041 193.867C25.0858 191.696 23.1114 189.852 20.7984 188.476L20.8 188.473ZM39.1157 178.668C37.9304 179.039 36.7143 179.273 35.4932 179.381C35.6997 178.091 35.7952 176.833 35.7717 175.624C35.7401 174.193 35.5473 172.889 35.1985 171.736C36.9711 173.638 38.2977 175.934 39.0664 178.494C39.0829 178.549 39.0978 178.608 39.1143 178.663L39.1157 178.668ZM25.4164 166.489C24.2609 166.833 23.0634 167.392 21.8516 168.155C20.8283 168.8 19.8297 169.577 18.8643 170.458C18.2812 169.381 17.8099 168.24 17.464 167.046C17.5194 167.03 17.5765 167.01 17.632 166.994C20.1975 166.221 22.847 166.059 25.4134 166.487L25.4164 166.489ZM6.06031 188.238C7.24405 187.87 8.45711 187.634 9.67522 187.524C9.47036 188.812 9.37319 190.072 9.39831 191.278C9.42854 192.704 9.62 194.004 9.96744 195.152C8.12128 193.165 6.79741 190.785 6.06193 188.235L6.06031 188.238ZM19.7643 200.415C20.9168 200.069 22.1081 199.515 23.3152 198.753C24.3385 198.109 25.3355 197.334 26.2978 196.451C26.8796 197.524 27.3509 198.665 27.6955 199.854C25.1583 200.646 22.4401 200.856 19.7613 200.414L19.7643 200.415Z" fill="#95E0E8"/>
<path d="M38.1769 184.415L13.2328 170.954L6.98856 182.488L31.9327 195.949L38.1769 184.415Z" fill="white"/>
<path d="M31.551 196.661L6.60705 183.2C6.21406 182.988 6.06508 182.497 6.27928 182.102L12.5235 170.568C12.736 170.175 13.2277 170.026 13.6236 170.24L38.5676 183.701C38.9606 183.913 39.1095 184.404 38.8954 184.799L32.6512 196.333C32.4386 196.726 31.947 196.875 31.551 196.661ZM8.0888 182.16L31.6078 194.852L37.0796 184.745L13.5606 172.053L8.0888 182.16Z" fill="#E2E2E2"/>
<path d="M6.42491 170.578C-2.06013 172.218 -7.19844 179.476 -3.28428 182.118C0.626873 184.759 10.6559 188.994 10.6865 183.69C10.7172 178.385 2.38003 177.24 2.38003 177.24L6.42491 170.578Z" fill="#F8D4AE"/>
<path d="M-3.73925 182.786C-5.11616 181.858 -5.6795 180.4 -5.32976 178.687C-4.96558 176.905 -3.59194 174.954 -1.56666 173.333C0.594869 171.602 3.74205 169.827 6.6333 169.269C7.07093 169.184 7.49653 169.471 7.58161 169.908C7.6667 170.345 7.37833 170.771 6.9407 170.856C2.56004 171.702 -2.99684 175.38 -3.74104 179.01C-3.95996 180.073 -3.65525 180.892 -2.83081 181.445C0.48448 183.683 6.94931 186.297 9.1504 185.138C9.45929 184.975 9.87429 184.645 9.87936 183.684C9.90487 179.155 2.34765 178.051 2.27168 178.041C1.8281 177.98 1.51938 177.569 1.57935 177.129C1.64094 176.686 2.0492 176.376 2.49279 176.437C2.58238 176.451 4.71809 176.751 6.88505 177.738C9.9181 179.123 11.5134 181.181 11.4996 183.691C11.4895 185.378 10.6287 186.187 9.90688 186.568C6.46235 188.385 -1.30053 184.432 -3.73463 182.785L-3.73925 182.786Z" fill="#D3A98C"/>
<path d="M41.4854 172.119C43.3746 174.192 44.1763 176.534 42.1043 178.421C40.0322 180.309 36.8127 180.163 34.9235 178.09C33.0343 176.017 33.1838 172.806 35.2605 170.918C37.3372 169.029 39.5962 170.047 41.487 172.116L41.4854 172.119Z" fill="#F8D4AE"/>
<path d="M35.8812 179.858C35.3053 179.547 34.7783 179.139 34.3246 178.639C32.1376 176.242 32.3129 172.51 34.7133 170.324C35.8845 169.256 37.2467 168.887 38.6447 169.255C39.7932 169.553 40.9504 170.336 42.0806 171.578C43.2139 172.82 43.8854 174.043 44.0781 175.212C44.3128 176.64 43.8172 177.956 42.646 179.024C41.4827 180.085 39.976 180.628 38.4038 180.554C37.505 180.51 36.646 180.271 35.8782 179.857L35.8812 179.858ZM39.0279 171.138C38.758 170.993 38.4945 170.885 38.2357 170.819C37.3672 170.591 36.5725 170.82 35.8023 171.52C34.0606 173.105 33.9337 175.81 35.5193 177.548C36.2887 178.39 37.3393 178.883 38.4773 178.936C39.6154 178.988 40.7084 178.594 41.554 177.827C42.3196 177.129 42.6236 176.359 42.4782 175.475C42.3392 174.63 41.7861 173.661 40.8812 172.669C40.2564 171.983 39.6246 171.468 39.0217 171.143L39.0279 171.138Z" fill="#D3A98C"/>
<path d="M14.3519 181.444C14.2099 181.37 14.115 181.264 14.0671 181.125C14.0264 180.984 14.043 180.842 14.1169 180.7L16.2405 176.62C16.3341 176.44 16.4516 176.33 16.593 176.289C16.7392 176.251 16.8738 176.263 16.9969 176.327C17.1199 176.391 17.1997 176.475 17.2362 176.578C17.2752 176.676 17.2961 176.786 17.2989 176.908L17.7044 181.293L17.375 181.527L19.0989 178.042C19.1681 177.897 19.271 177.803 19.4077 177.76C19.5516 177.715 19.6945 177.729 19.8365 177.803C19.9785 177.876 20.0698 177.984 20.1105 178.125C20.1584 178.264 20.1454 178.405 20.0715 178.547L17.922 182.677C17.853 182.809 17.7454 182.901 17.599 182.951C17.4551 182.996 17.3146 182.983 17.1773 182.912C17.0827 182.863 17.0085 182.797 16.955 182.715C16.9014 182.634 16.8693 182.551 16.8588 182.467L16.3706 177.877L16.754 177.851L15.0965 181.209C15.0274 181.353 14.9209 181.448 14.777 181.494C14.6403 181.537 14.4986 181.52 14.3519 181.444ZM19.7918 184.27C19.6499 184.197 19.5549 184.09 19.5071 183.951C19.4664 183.81 19.483 183.668 19.5568 183.526L21.6694 179.467C21.7408 179.33 21.8485 179.239 21.9924 179.193C22.1363 179.148 22.2768 179.161 22.4141 179.232L22.9039 179.486L20.5365 184.035C20.4626 184.177 20.3538 184.271 20.2099 184.316C20.0732 184.36 19.9338 184.344 19.7918 184.27ZM22.1123 180.193L22.5703 179.313L24.5367 180.335C24.6645 180.401 24.7477 180.495 24.7863 180.618C24.8296 180.742 24.8168 180.871 24.7479 181.003C24.6814 181.131 24.5834 181.215 24.4539 181.256C24.3316 181.295 24.2065 181.281 24.0788 181.215L22.1123 180.193ZM21.0483 182.255L21.51 181.368L23.3345 182.316C23.4623 182.382 23.5442 182.479 23.5804 182.606C23.6212 182.735 23.6084 182.864 23.5419 182.991C23.4755 183.119 23.3775 183.203 23.248 183.244C23.1256 183.283 23.0006 183.269 22.8728 183.203L21.0483 182.255ZM25.8092 182.186C25.6767 182.117 25.5889 182.014 25.5457 181.878C25.5026 181.741 25.5155 181.607 25.5844 181.474C25.6559 181.337 25.7587 181.249 25.8929 181.211C26.0296 181.167 26.1642 181.18 26.2967 181.249L29.3352 182.828C29.4724 182.899 29.5602 183.002 29.5987 183.136C29.6443 183.268 29.6314 183.402 29.5599 183.539C29.491 183.672 29.3882 183.76 29.2515 183.803C29.1195 183.849 28.9849 183.836 28.8476 183.764L25.8092 182.186ZM25.1937 187.077C25.0517 187.003 24.9592 186.898 24.916 186.761C24.8753 186.62 24.8919 186.478 24.9658 186.336L27.0821 182.27L28.0546 182.775L25.9384 186.842C25.8645 186.984 25.7556 187.077 25.6117 187.123C25.475 187.166 25.3357 187.151 25.1937 187.077Z" fill="#DD528B"/>
<path d="M34.8389 204.567H-10.2632C-9.93012 201.821 -5.68359 200.86 -3.60196 200.723C-3.04686 194.791 1.81029 194.772 4.16947 195.505C4.72457 193.445 6.94498 189.326 12.0797 189.326C18.2968 189.545 19.9899 194.223 20.2674 196.741C24.4862 195.862 26.4661 199.349 26.7899 201.134C32.0078 201.025 34.33 203.377 34.8389 204.567Z" fill="#FFFEFF"/>
</g>
<path d="M53 30H10C10.7612 28.7564 13.8816 28.6091 15.3467 28.6909C15.6639 25.5 19.2434 24.9273 20.6481 25.5C20.6027 25.2545 21.7355 21 26.3119 21C30.3718 21.0655 31.9305 23.8636 32.2023 25.2545C33.8335 24.8618 35.359 26.0182 35.9178 26.6455C37.7302 23.9455 41.3098 25.4182 41.8535 27.3C44.3547 26.3509 45.856 27.9409 46.294 28.8545C50.5713 28.2655 52.5469 29.3727 53 30Z" fill="#FFFEFF"/>
<path d="M196.656 156.004L198.14 157.249C199.993 156.108 203.892 153.048 201.771 148.553C199.154 143.001 190.669 141.7 185.934 147.021L187.832 148.612C185.233 147.054 182.482 145.809 179.94 145.154C177.394 144.5 174.381 144.266 171.354 144.377L173.785 143.898C172.215 136.956 164.155 134.007 159.175 137.61C155.141 140.525 157.072 145.084 158.138 146.976L160.047 146.601C156.338 148.144 154.243 150.389 155.801 153.018C155.801 153.018 144.774 157.907 150.202 162.663C150.202 162.663 150.105 162.719 149.937 162.834C148.628 163.719 143.01 168.047 145.653 175.557C148.282 183.027 156.711 185.351 162.765 186.035C158.918 187.269 156.219 190.155 156.219 193.516C156.219 198 161.028 201.636 166.959 201.636C172.89 201.636 178.944 198 178.944 193.516C178.944 192.148 177.274 190.021 177.699 190.162C183.142 191.965 190.147 192.832 195.236 188.296C201.942 182.313 197.495 174.814 197.495 174.814C204.552 173.263 197.26 163.671 197.26 163.671C199.899 162.116 199.154 159.149 196.656 156.007V156.004Z" fill="#F8D4AE"/>
<path d="M191.183 150.855C193.771 152.788 195.989 154.944 197.372 156.975C199.034 155.42 201.51 152.412 199.348 149.821C197.055 147.066 193.066 149.457 191.18 150.855H191.183Z" fill="#FFF1E6"/>
<path d="M158.94 147.103C161.136 145.995 164.118 145.173 167.324 144.727C166.348 142.593 164.01 138.577 160.674 139.886C157.523 141.117 158.235 144.939 158.94 147.103Z" fill="#FFF1E6"/>
<path d="M175.015 164.206C170.344 163.005 166.836 169.683 162.72 169.899C156.435 170.226 153.009 167.404 150.198 162.659C150.198 162.659 142.671 167.084 145.65 175.55C149.9 187.63 169.322 186.251 169.322 186.251C169.322 186.251 185.662 196.814 195.232 188.285C201.939 182.302 197.491 174.803 197.491 174.803C192.734 177.606 188.369 178.424 183.023 175.111C179.526 172.94 179.686 165.403 175.015 164.202V164.206Z" fill="#FFF1E6"/>
<path d="M183.12 177.514C184.003 174.085 187.508 172.022 190.945 172.907C194.382 173.788 196.451 177.283 195.564 180.711C194.68 184.139 191.176 186.203 187.739 185.318C184.301 184.437 182.232 180.942 183.12 177.514Z" fill="#FD9DB4"/>
<path d="M160.408 174.188C162.529 171.349 161.94 167.333 159.094 165.218C156.248 163.103 152.221 163.69 150.1 166.528C147.98 169.367 148.568 173.383 151.414 175.498C154.26 177.614 158.287 177.027 160.408 174.188Z" fill="#FD9DB4"/>
<path d="M202.196 154.636C203.489 152.617 203.62 150.382 202.576 148.174C201.238 145.333 198.419 143.347 195.038 142.864C191.441 142.347 187.851 143.623 185.398 146.285C183.593 145.404 181.808 144.719 180.156 144.296C178.505 143.872 176.611 143.611 174.601 143.515C173.74 140.005 171.216 137.157 167.816 135.874C164.621 134.669 161.192 135.052 158.646 136.893C156.662 138.328 155.693 140.347 155.85 142.738C155.958 144.437 156.603 145.998 157.184 147.099C156.375 147.634 155.73 148.211 155.272 148.821C154.373 150.01 154.153 151.304 154.619 152.602C152.711 153.565 148.341 156.089 147.853 159.287C147.678 160.443 148.006 161.533 148.837 162.54C146.873 164.072 142.265 168.605 144.811 175.855C146.075 179.447 148.703 182.25 152.629 184.191C155.454 185.589 158.895 186.515 162.858 186.942C163.347 186.994 163.786 186.641 163.842 186.154C163.895 185.667 163.54 185.228 163.052 185.173C151.82 183.953 147.849 179.112 146.496 175.264C145.467 172.334 145.665 169.609 147.089 167.158C148.23 165.195 149.814 163.998 150.437 163.574C150.571 163.485 150.649 163.436 150.656 163.433C150.903 163.288 151.063 163.035 151.089 162.749C151.115 162.466 151.003 162.187 150.791 161.998C149.874 161.194 149.49 160.395 149.616 159.555C149.993 157.082 154.47 154.587 156.163 153.833C156.394 153.728 156.573 153.531 156.651 153.29C156.729 153.048 156.7 152.784 156.569 152.568C156.002 151.609 156.043 150.754 156.7 149.884C158.023 148.129 161.598 146.601 166.258 145.798C170.985 144.983 176.018 145.065 179.712 146.013C183.411 146.961 187.854 149.315 191.597 152.304C195.292 155.253 197.681 158.313 197.991 160.488C198.144 161.566 197.767 162.332 196.805 162.901C196.585 163.031 196.432 163.247 196.384 163.496C196.335 163.745 196.395 164.002 196.548 164.206C196.559 164.221 197.603 165.604 198.479 167.352C199.568 169.519 199.926 171.256 199.512 172.371C199.217 173.167 198.494 173.684 197.301 173.944C197.021 174.003 196.79 174.197 196.675 174.457C196.559 174.717 196.578 175.018 196.723 175.264C196.887 175.546 200.701 182.224 194.636 187.63C191.552 190.378 185.662 192.713 175.105 188.233C174.654 188.039 174.128 188.251 173.934 188.701C173.74 189.155 173.953 189.675 174.404 189.869C178.106 191.438 181.595 192.315 184.775 192.482C185.137 192.501 185.491 192.512 185.841 192.512C189.819 192.512 193.17 191.319 195.821 188.958C199.568 185.619 200.03 181.819 199.758 179.22C199.586 177.584 199.117 176.223 198.744 175.36C199.955 174.877 200.772 174.081 201.178 172.985C202.3 169.951 199.694 165.63 198.49 163.868C199.527 162.953 199.959 161.715 199.75 160.243C199.642 159.488 199.359 158.67 198.908 157.815C199.952 157.134 201.271 156.075 202.188 154.639L202.196 154.636ZM165.956 144.043C163.104 144.534 160.644 145.281 158.739 146.214C157.639 144.128 156.521 140.622 159.693 138.328C161.755 136.837 164.558 136.54 167.19 137.532C169.889 138.547 171.925 140.737 172.745 143.463C170.515 143.463 168.2 143.656 165.956 144.043ZM197.983 156.294C196.764 154.561 194.975 152.721 192.716 150.918C190.937 149.497 188.999 148.214 187.049 147.14C189.088 145.151 191.933 144.214 194.785 144.623C197.569 145.024 199.877 146.634 200.962 148.928C202.628 152.464 199.955 154.996 197.98 156.294H197.983Z" fill="#D3A98C"/>
<path d="M161.356 166.099C160.987 167.527 161.848 168.984 163.283 169.352C164.715 169.72 166.176 168.862 166.545 167.43C166.914 166.002 166.053 164.545 164.618 164.177C163.186 163.809 161.725 164.668 161.356 166.099Z" fill="#5F5C5D"/>
<path d="M180.872 171.111C180.503 172.538 181.364 173.996 182.799 174.364C184.231 174.732 185.692 173.873 186.061 172.442C186.43 171.014 185.569 169.557 184.134 169.188C182.698 168.82 181.241 169.679 180.872 171.111Z" fill="#5F5C5D"/>
<path d="M167.898 173.494C167.608 174.621 167.604 175.732 167.839 176.725C168.204 178.279 169.151 179.532 170.482 180.042C170.612 180.097 170.75 180.138 170.892 180.175C172.443 180.573 174.057 179.926 175.239 178.618C175.537 178.287 175.813 177.911 176.048 177.502C176.35 176.978 176.588 176.394 176.749 175.766C176.946 175 176.991 174.301 176.916 173.68C176.909 173.617 176.902 173.553 176.883 173.49C176.592 171.806 175.347 170.694 173.673 170.215C173.61 170.196 173.546 170.177 173.479 170.163C173.412 170.144 173.349 170.129 173.285 170.114C171.585 169.731 169.956 170.103 168.883 171.438C168.842 171.482 168.804 171.535 168.767 171.583C168.398 172.092 168.1 172.724 167.902 173.494H167.898Z" fill="#5F5C5D"/>
<path d="M167.839 176.721C168.204 178.275 169.151 179.528 170.482 180.037C170.612 180.093 170.75 180.134 170.892 180.171C172.443 180.569 174.061 179.922 175.239 178.613C174.873 177.059 173.926 175.806 172.596 175.297C172.465 175.241 172.327 175.2 172.186 175.163C170.635 174.765 169.017 175.412 167.839 176.721Z" fill="#E27FA3"/>
<path d="M171.802 181.176C171.425 181.176 171.045 181.127 170.668 181.031C167.753 180.283 166.124 176.799 167.033 173.267C167.253 172.412 167.593 171.668 168.044 171.055L169.483 172.103C169.166 172.535 168.924 173.074 168.76 173.71C168.092 176.294 169.147 178.804 171.112 179.309C173.077 179.815 175.216 178.123 175.884 175.539C176.048 174.907 176.096 174.319 176.029 173.791L177.796 173.568C177.889 174.319 177.83 175.13 177.61 175.981C176.816 179.056 174.352 181.172 171.802 181.172V181.176Z" fill="#F8D4AE"/>
<path d="M177.796 173.572C177.561 171.724 176.394 170.3 174.549 169.568L175.004 167.809L173.278 167.366L172.823 169.125C170.858 168.876 169.147 169.556 168.047 171.055C167.757 171.453 167.842 172.007 168.241 172.297C168.64 172.587 169.196 172.501 169.486 172.103C170.594 170.598 172.323 170.772 173.255 171.014C174.191 171.256 175.794 171.936 176.029 173.791C176.085 174.241 176.469 174.568 176.913 174.568C176.95 174.568 176.987 174.568 177.024 174.561C177.513 174.498 177.86 174.055 177.796 173.568V173.572Z" fill="#D3A98C"/>
<path d="M172.909 165.775C173.423 165.467 174.094 165.634 174.404 166.147L174.478 166.27L174.601 166.196C175.116 165.887 175.787 166.054 176.096 166.567C176.406 167.081 176.238 167.75 175.723 168.058L175.28 168.322C174.422 168.835 173.315 168.557 172.801 167.701L172.536 167.259C172.227 166.746 172.394 166.077 172.909 165.768V165.775Z" fill="#E27FA3"/>
<path d="M156.215 194.149C156.215 194.149 152.815 178.863 153.464 171.304L155.637 172.07L158.358 173.77L163.168 193.182L156.211 194.149H156.215Z" fill="#F8D4AE"/>
<path d="M161.738 193.556L165.74 192.565L156.402 155.073L152.401 156.064L161.738 193.556Z" fill="#FFBE8D"/>
<path d="M161.736 194.445C161.576 194.445 161.415 194.401 161.277 194.319C161.076 194.196 160.931 193.999 160.871 193.772L151.532 156.283C151.432 155.881 151.626 155.461 151.995 155.275C152.368 155.089 152.819 155.182 153.083 155.502L159.145 162.782C159.231 162.886 159.29 163.005 159.324 163.135L166.601 192.356C166.72 192.832 166.43 193.315 165.952 193.434L161.948 194.427C161.878 194.445 161.807 194.453 161.732 194.453L161.736 194.445ZM154.205 159.621L162.388 192.478L164.662 191.917L157.65 163.756L154.209 159.621H154.205Z" fill="#EA9C71"/>
<path d="M158.463 163.344C146.127 157.964 139.726 176.424 127.39 171.04C125.556 163.682 123.726 156.324 121.891 148.966C134.227 154.346 140.628 135.885 152.964 141.269C154.798 148.627 156.629 155.986 158.463 163.344Z" fill="#A3D676"/>
<path d="M131.931 172.936C130.395 172.936 128.769 172.616 127.032 171.858C126.779 171.746 126.592 171.527 126.525 171.259L121.026 149.185C120.944 148.858 121.056 148.508 121.317 148.292C121.578 148.073 121.94 148.021 122.249 148.159C127.961 150.65 132.311 147.612 136.919 144.396C141.724 141.038 146.697 137.569 153.322 140.462C153.576 140.574 153.762 140.793 153.829 141.061L159.328 163.135C159.41 163.462 159.298 163.812 159.037 164.028C158.776 164.247 158.414 164.299 158.105 164.161C152.394 161.67 148.043 164.708 143.439 167.924C139.894 170.4 136.255 172.936 131.935 172.936H131.931ZM128.147 170.393C133.661 172.576 137.918 169.605 142.414 166.463C146.82 163.388 151.361 160.216 157.192 161.934L152.207 141.916C146.694 139.733 142.436 142.704 137.94 145.846C134.395 148.322 130.757 150.858 126.436 150.862C125.388 150.862 124.3 150.713 123.163 150.378L128.147 170.397V170.393Z" fill="#87B758"/>
<path d="M153.59 172.156C153.169 169.378 153.807 166.98 156.591 166.56C159.376 166.14 161.975 168.051 162.396 170.832C162.817 173.61 160.901 176.201 158.112 176.621C155.328 177.041 154.008 174.937 153.587 172.16L153.59 172.156Z" fill="#F8D4AE"/>
<path d="M163.279 170.694C162.787 167.437 159.727 165.184 156.461 165.679C153.982 166.05 152.621 167.813 152.588 170.598C151.939 178.205 155.208 193.713 155.346 194.342C155.439 194.754 155.809 195.037 156.215 195.037C156.278 195.037 156.345 195.03 156.409 195.015C156.89 194.907 157.192 194.435 157.087 193.955C157.061 193.832 154.873 183.916 154.373 176.249C155.179 177.112 156.222 177.558 157.438 177.558C157.702 177.558 157.971 177.536 158.25 177.495C161.516 177.004 163.775 173.952 163.279 170.694ZM157.982 175.74C156.979 175.889 156.211 175.647 155.633 174.996C155.074 174.368 154.672 173.338 154.474 172.022C154.317 170.996 153.844 167.869 156.726 167.437C157.837 167.27 158.948 167.545 159.853 168.211C160.759 168.876 161.348 169.854 161.516 170.962C161.863 173.252 160.278 175.394 157.982 175.74Z" fill="#D3A98C"/>
<path d="M178.415 190.992C181.83 195.647 179.176 203.745 169.658 201.629C159.54 199.38 160.826 189.43 166.131 189.43C171.436 189.43 172.816 193.851 170.959 195.702C170.959 195.702 178.199 190.698 178.415 190.992Z" fill="#F8D4AE"/>
<path d="M172.644 202.874C171.701 202.874 170.646 202.763 169.464 202.499C163.231 201.112 160.838 196.903 161.229 193.341C161.542 190.515 163.555 188.541 166.131 188.541C169.088 188.541 171.388 189.835 172.286 191.999C172.935 193.56 172.663 195.263 171.589 196.33C171.242 196.676 170.676 196.676 170.329 196.33C169.982 195.985 169.982 195.42 170.329 195.074C170.888 194.516 171.011 193.575 170.638 192.679C170.023 191.203 168.338 190.318 166.131 190.318C164.215 190.318 163.179 191.932 163.004 193.534C162.579 197.379 166.139 199.933 169.856 200.759C173.8 201.636 176.857 200.699 178.244 198.182C179.526 195.851 179.034 192.735 177.069 190.776C176.723 190.43 176.723 189.865 177.069 189.519C177.416 189.173 177.983 189.173 178.329 189.519C180.842 192.025 181.461 196.029 179.806 199.037C179.105 200.309 177.136 202.867 172.648 202.867L172.644 202.874Z" fill="#D3A98C"/>
<path d="M189.142 176.065C189.22 175.977 189.274 175.92 189.298 175.896L189.306 175.888H189.309C184.311 173.363 191.643 167.564 191.643 167.564C190.136 166.061 190.893 164.227 192.859 162.512C191.753 161.013 190.681 158.605 192.639 156.248C195.515 152.782 201.6 153.189 204.385 157.402C205.72 157.145 207.025 157.003 208.239 157.003C210.052 157.003 212.082 157.324 214.093 157.868C216.725 153.224 223.141 152.661 226.122 156.25C228.587 159.215 226.251 162.266 225.082 163.482L224.196 163.059C225.716 164.612 226.181 166.219 224.833 167.564C224.833 167.564 232.167 173.363 227.169 175.886C227.169 175.886 227.207 175.923 227.271 175.995C227.524 176.274 228.192 177.061 228.748 178.216C229.411 179.593 229.916 181.492 229.358 183.661C229.132 184.548 228.727 185.482 228.085 186.444C225.595 190.156 222.077 191.23 218.96 191.286C219.043 191.691 219.086 192.106 219.086 192.529C219.086 197.149 213.994 200.896 207.71 200.896C201.426 200.896 196.334 197.152 196.334 192.529C196.334 192.17 196.364 191.817 196.426 191.469C193.372 190.807 190.472 189.323 188.393 186.444C184.779 181.435 188.331 176.981 189.142 176.065Z" fill="#F8D4AE"/>
<path d="M218.951 159.63C221.296 160.715 223.305 162.03 224.486 163.372C225.432 161.872 226.653 159.183 224.553 157.672C222.496 156.189 220.208 158.195 218.951 159.63Z" fill="#FFF1E6"/>
<path d="M188.391 186.444C195.453 196.223 211.934 189.912 211.934 189.912C211.934 189.912 222.55 194.693 228.085 186.444C230.3 183.136 229.683 180.16 228.748 178.218C226.53 179.534 224.054 179.909 220.853 178.909C217.805 177.953 216.467 172.264 212.726 172.264C208.986 172.264 207.597 177.809 204.6 178.909C193.864 182.847 192.338 178.909 189.309 175.888C189.309 175.888 189.304 175.896 189.301 175.899C189.277 175.923 189.223 175.979 189.145 176.068C188.334 176.984 184.779 181.438 188.396 186.446L188.391 186.444Z" fill="#FFF1E6"/>
<path d="M221.387 180.688C221.387 183.433 223.369 185.659 225.813 185.659C227.263 185.659 228.552 184.874 229.358 183.664C229.914 181.497 229.411 179.598 228.748 178.218C228.192 177.064 227.526 176.277 227.271 175.998C226.815 175.819 226.323 175.722 225.813 175.722C223.366 175.722 221.387 177.948 221.387 180.691V180.688Z" fill="#FD9DB4"/>
<path d="M198.26 185.598C195.546 185.146 193.714 182.585 194.168 179.879C194.622 177.172 197.189 175.345 199.903 175.798C202.616 176.25 204.448 178.811 203.995 181.517C203.541 184.224 200.974 186.051 198.26 185.598Z" fill="#FD9DB4"/>
<path d="M204.882 177.493C203.736 177.493 202.806 176.469 202.806 175.205C202.806 173.942 203.736 172.918 204.882 172.918C206.029 172.918 206.958 173.942 206.958 175.205C206.958 176.469 206.029 177.493 204.882 177.493Z" fill="#5F5C5D"/>
<path d="M220.571 177.493C219.424 177.493 218.495 176.469 218.495 175.205C218.495 173.942 219.424 172.918 220.571 172.918C221.717 172.918 222.647 173.942 222.647 175.205C222.647 176.469 221.717 177.493 220.571 177.493Z" fill="#5F5C5D"/>
<path d="M196.503 162.644L199.635 161.149C200.577 160.699 200.773 159.44 200.008 158.731C198.714 157.533 196.922 156.491 195.279 157.675C193.748 158.776 193.982 160.501 194.586 161.937C194.898 162.676 195.778 162.989 196.503 162.644Z" fill="#FFF1E6"/>
<path d="M186.487 179.541C186.943 177.972 187.773 176.737 188.321 176.043C187.491 175.452 187.026 174.699 186.935 173.796C186.801 172.479 187.502 170.933 189.019 169.2C189.658 168.469 190.305 167.864 190.735 167.486C190.359 166.942 190.179 166.35 190.201 165.716C190.236 164.65 190.845 163.541 192.008 162.419C191.683 161.915 191.385 161.344 191.183 160.726C190.609 158.977 190.942 157.289 192.142 155.843C193.689 153.982 196.173 153.041 198.789 153.325C201.165 153.585 203.287 154.817 204.675 156.697C205.938 156.475 207.133 156.36 208.236 156.36C209.907 156.36 211.824 156.633 213.785 157.126C215.189 154.954 217.531 153.54 220.141 153.307C222.69 153.082 225.112 154.027 226.619 155.84C227.819 157.287 228.152 158.974 227.577 160.723C227.148 162.036 226.302 163.123 225.638 163.833C225.783 164.066 225.907 164.296 226.001 164.526C226.444 165.592 226.35 166.602 225.738 167.486C226.167 167.864 226.815 168.469 227.456 169.2C228.974 170.933 229.677 172.479 229.543 173.796C229.452 174.696 228.987 175.452 228.155 176.043C228.6 176.614 229.234 177.554 229.685 178.77C230.389 180.658 230.776 183.586 228.622 186.8C225.912 190.842 222.069 191.934 218.704 191.934C217.816 191.934 216.962 191.859 216.169 191.739C215.818 191.685 215.573 191.359 215.627 191.008C215.681 190.657 216.008 190.416 216.36 190.467C219.781 190.978 224.5 190.633 227.55 186.085C231.077 180.822 226.893 176.52 226.715 176.341C226.568 176.196 226.5 175.987 226.535 175.784C226.568 175.58 226.696 175.403 226.882 175.312C227.741 174.878 228.192 174.34 228.262 173.668C228.461 171.718 225.566 168.965 224.435 168.07C224.29 167.955 224.202 167.786 224.191 167.604C224.18 167.422 224.25 167.242 224.379 167.111C225.007 166.484 225.144 165.82 224.811 165.022C224.153 163.439 221.758 161.594 218.404 160.086C215.006 158.559 211.207 157.648 208.242 157.648C207.361 157.648 206.413 157.726 205.414 157.881C205.564 158.195 205.438 158.57 205.127 158.73C204.81 158.891 204.42 158.768 204.259 158.452C203.155 156.306 201.061 154.868 198.655 154.606C196.471 154.367 194.409 155.136 193.141 156.665C192.255 157.731 191.208 159.981 194.151 163.043C194.398 163.3 194.39 163.707 194.132 163.953C194.006 164.074 193.847 164.133 193.686 164.133C193.517 164.133 193.348 164.066 193.222 163.934C193.087 163.795 192.942 163.637 192.795 163.463C191.968 164.293 191.519 165.081 191.498 165.764C191.482 166.249 191.68 166.691 192.105 167.114C192.234 167.242 192.303 167.422 192.293 167.607C192.282 167.789 192.193 167.96 192.051 168.073C190.92 168.97 188.028 171.721 188.227 173.67C188.294 174.343 188.748 174.881 189.607 175.315C189.792 175.409 189.919 175.583 189.951 175.786C189.983 175.99 189.916 176.196 189.771 176.343C189.766 176.349 189.715 176.402 189.631 176.493C188.646 177.608 185.684 181.588 188.92 186.071C191.53 189.687 195.808 191.436 201.622 191.265C201.979 191.257 202.275 191.535 202.285 191.889C202.296 192.245 202.017 192.54 201.66 192.55C201.396 192.558 201.136 192.561 200.878 192.561C198.421 192.561 196.195 192.213 194.25 191.525C191.592 190.584 189.446 189.002 187.87 186.821C186.239 184.566 185.761 182.048 186.489 179.544L186.487 179.541ZM218.93 158.91C221.532 160.078 223.576 161.436 224.838 162.802C227.505 159.861 226.49 157.702 225.628 156.663C224.392 155.176 222.386 154.399 220.259 154.59C218.183 154.774 216.312 155.84 215.103 157.488C216.398 157.876 217.692 158.353 218.933 158.91H218.93Z" fill="#D3A98C"/>
<path d="M209.182 180.621C209.182 181.125 209.249 181.61 209.372 182.06C209.85 183.806 211.169 185.059 212.724 185.059C212.837 185.059 212.949 185.054 213.057 185.038C214.856 184.829 216.266 182.933 216.266 180.621C216.266 178.168 214.679 177.043 212.724 177.043C210.769 177.043 209.182 178.171 209.182 180.621Z" fill="#5F5C5D"/>
<path d="M209.372 182.059C209.85 183.806 211.169 185.059 212.724 185.059C212.837 185.059 212.949 185.054 213.057 185.038C213.108 184.955 213.156 184.864 213.207 184.773C214.383 182.619 214.41 180.372 213.274 179.756C212.224 179.191 210.549 180.206 209.372 182.062V182.059Z" fill="#E27FA3"/>
<path d="M212.721 185.705C215.031 185.705 216.908 183.425 216.908 180.621C216.908 180.117 216.846 179.646 216.728 179.215L215.485 179.56C215.573 179.879 215.619 180.235 215.619 180.621C215.619 182.715 214.319 184.416 212.721 184.416C211.123 184.416 209.824 182.713 209.824 180.621C209.824 180.235 209.869 179.876 209.958 179.56L208.714 179.215C208.594 179.646 208.534 180.117 208.534 180.621C208.534 183.423 210.412 185.705 212.721 185.705Z" fill="#F8D4AE"/>
<path d="M208.714 179.215C209.152 177.645 210.387 176.638 212.077 176.437V174.988H213.366V176.437C215.052 176.641 216.287 177.645 216.728 179.215C216.825 179.558 216.623 179.911 216.279 180.008C215.936 180.101 215.581 179.903 215.485 179.56C215.028 177.926 213.556 177.683 212.721 177.683C211.886 177.683 210.414 177.926 209.958 179.56C209.877 179.844 209.619 180.032 209.337 180.032C209.281 180.032 209.222 180.024 209.163 180.008C208.819 179.911 208.62 179.558 208.714 179.215Z" fill="#D3A98C"/>
<path d="M213.997 173.863C213.669 173.531 213.135 173.529 212.802 173.855L212.721 173.936L212.643 173.855C212.316 173.523 211.781 173.521 211.448 173.847C211.115 174.174 211.113 174.707 211.44 175.039L211.722 175.323C212.265 175.872 213.154 175.878 213.704 175.337L213.989 175.055C214.322 174.729 214.324 174.196 213.997 173.863Z" fill="#E27FA3"/>
<path d="M225.453 192.529C223.654 190.802 219.864 189.259 216.312 188.729C214.735 188.493 213.551 187.178 213.521 185.592C213.513 185.249 213.562 184.917 213.656 184.604C213.999 183.466 214.961 182.579 216.185 182.349C219.714 181.685 223.442 179.994 225.176 178.2L225.453 192.532V192.529Z" fill="#95A1B3"/>
<path d="M223.121 185.408C223.017 180.049 225.942 175.648 229.655 175.576C233.369 175.504 236.463 179.79 236.567 185.148C236.671 190.506 233.746 194.908 230.032 194.98C226.319 195.052 223.225 190.766 223.121 185.408Z" fill="white"/>
<path d="M225.007 192.993L225.901 192.066C224.046 190.285 220.141 188.651 216.408 188.094C215.135 187.904 214.193 186.846 214.169 185.579C214.144 184.312 215.044 183.219 216.309 182.981C220.018 182.279 223.855 180.495 225.641 178.645L224.712 177.753C223.092 179.429 219.54 181.06 216.067 181.717C214.182 182.073 212.842 183.707 212.877 185.603C212.914 187.499 214.316 189.08 216.215 189.364C219.709 189.886 223.323 191.378 225.007 192.99V192.993Z" fill="#70838E"/>
<path d="M229.941 195.622C229.975 195.622 230.01 195.622 230.045 195.622C232.059 195.582 233.915 194.438 235.269 192.4C236.574 190.434 237.264 187.855 237.213 185.134C237.159 182.412 236.37 179.86 234.989 177.948C233.558 175.963 231.662 174.894 229.645 174.929C227.631 174.969 225.775 176.113 224.422 178.151C223.117 180.117 222.426 182.696 222.478 185.418C222.531 188.139 223.321 190.691 224.701 192.604C226.108 194.554 227.964 195.622 229.941 195.622ZM229.75 176.217C233.066 176.217 235.827 180.205 235.924 185.16C236.02 190.156 233.373 194.272 230.021 194.337C226.664 194.401 223.866 190.389 223.769 185.396C223.721 182.935 224.336 180.615 225.499 178.866C226.613 177.19 228.096 176.252 229.672 176.22C229.699 176.22 229.726 176.22 229.753 176.22L229.75 176.217Z" fill="#E2E2E2"/>
<path d="M232.014 188.348L227.024 188.445L226.487 185.49L227 181.915L231.844 181.824C231.861 181.821 231.874 181.824 231.887 181.821C233.04 181.8 234.001 183.243 234.039 185.046C234.073 186.851 233.168 188.33 232.014 188.351V188.348Z" fill="#95A1B3"/>
<path d="M227.011 187.804L229.959 187.748C229.516 187.068 229.24 186.157 229.218 185.139C229.21 184.783 229.495 184.491 229.849 184.483C230.204 184.472 230.499 184.759 230.507 185.113C230.537 186.658 231.315 187.724 232 187.705C232.682 187.692 233.421 186.602 233.391 185.056C233.362 183.522 232.591 182.464 231.912 182.464C231.906 182.464 231.901 182.464 231.898 182.464L227.011 182.557C227.011 182.557 227.002 182.557 226.997 182.557C226.648 182.557 226.629 181.277 226.984 181.272L231.85 181.178C231.85 181.178 231.863 181.178 231.871 181.178C231.885 181.178 231.898 181.178 231.912 181.178C233.426 181.178 234.637 182.86 234.68 185.032C234.723 187.223 233.555 188.961 232.024 188.994L227.032 189.09C227.032 189.09 227.024 189.09 227.019 189.09C226.669 189.09 226.651 187.81 227.005 187.804H227.011Z" fill="#70838E"/>
<path d="M229.949 192.275C229.949 192.275 229.97 192.275 229.983 192.275C230.341 192.267 230.623 191.975 230.615 191.618C230.607 191.262 230.316 190.981 229.957 190.989C229.954 190.989 229.951 190.989 229.946 190.989C229.269 190.989 227.822 189.682 227.309 187.041C227.306 187.022 227.301 187.004 227.295 186.985C227.193 186.457 227.137 185.9 227.126 185.33C227.115 184.77 227.15 184.207 227.234 183.661C227.239 183.645 227.242 183.626 227.244 183.607C227.419 182.48 227.784 181.481 228.294 180.715C228.66 180.163 229.229 179.574 229.734 179.563C230.091 179.555 230.373 179.263 230.365 178.907C230.357 178.556 230.069 178.277 229.72 178.277C229.715 178.277 229.712 178.277 229.707 178.277C228.52 178.301 227.636 179.37 227.217 180.005C226.613 180.913 226.184 182.07 225.977 183.358C225.971 183.377 225.969 183.396 225.966 183.414C225.867 184.049 225.824 184.703 225.834 185.354C225.848 186.018 225.915 186.666 226.036 187.279C226.038 187.301 226.044 187.32 226.049 187.338C226.398 189.085 227.078 190.212 227.588 190.855C228.308 191.758 229.162 192.272 229.943 192.272L229.949 192.275Z" fill="#E2E2E2"/>
<path d="M218.011 187.443C219.907 187.239 220.909 188.431 221.325 190.154C222.166 191.104 222.87 192.468 223.256 194.056C224.081 197.447 223.149 200.583 221.175 201.063C219.201 201.539 216.932 199.18 216.105 195.786C216.019 195.433 215.952 195.082 215.903 194.736C215.068 194.077 214.488 193.1 214.365 191.961C214.12 189.712 215.75 187.687 218.009 187.443H218.011Z" fill="#F8D4AE"/>
<path d="M214.749 188.544C215.544 187.556 216.679 186.937 217.942 186.8C219.212 186.664 220.273 187.068 221.011 187.971C221.411 188.461 221.712 189.09 221.913 189.848C222.805 190.901 223.501 192.331 223.885 193.901C224.309 195.65 224.309 197.401 223.885 198.832C223.423 200.385 222.515 201.398 221.328 201.684C221.105 201.738 220.88 201.765 220.651 201.765C219.668 201.765 218.659 201.266 217.746 200.318C216.712 199.241 215.906 197.685 215.479 195.936C215.407 195.642 215.35 195.352 215.305 195.071C214.413 194.286 213.854 193.215 213.725 192.029C213.588 190.77 213.951 189.532 214.749 188.544ZM218.677 199.429C219.47 200.254 220.302 200.61 221.027 200.436C221.75 200.262 222.327 199.563 222.652 198.467C223.012 197.251 223.006 195.738 222.636 194.206C222.515 193.708 222.357 193.228 222.171 192.773C222.11 193.405 221.959 193.96 221.717 194.434C221.191 195.473 220.24 196.097 218.97 196.234C218.796 196.252 218.621 196.263 218.449 196.263C217.891 196.263 217.345 196.164 216.827 195.977C217.217 197.367 217.866 198.583 218.68 199.429H218.677ZM215.009 191.889C215.108 192.808 215.562 193.63 216.282 194.211C217.004 194.79 217.907 195.052 218.828 194.953C219.666 194.862 220.232 194.503 220.563 193.853C220.877 193.234 220.979 192.337 220.861 191.257C220.743 190.178 220.45 189.323 220.009 188.785C219.612 188.3 219.091 188.062 218.42 188.062C218.31 188.062 218.197 188.067 218.079 188.081C217.157 188.18 216.333 188.632 215.75 189.35C215.17 190.071 214.904 190.971 215.006 191.889H215.009Z" fill="#D3A98C"/>
<path d="M194.94 175.875C197.118 175.232 199.404 176.47 200.048 178.642C200.545 180.311 199.925 182.046 198.62 183.051C199.729 185.989 201.748 190.582 204.361 193.188L198.391 197.452C198.391 197.452 193.678 188.132 193.165 180.675C192.521 178.503 192.762 176.518 194.938 175.875H194.94Z" fill="#F8D4AE"/>
<path d="M194.758 175.256C197.272 174.514 199.925 175.95 200.669 178.457C201.029 179.673 200.894 180.953 200.287 182.067C200.046 182.509 199.742 182.903 199.385 183.243C200.411 185.9 202.358 190.279 204.818 192.732C205.07 192.984 205.07 193.391 204.818 193.643C204.692 193.769 204.528 193.831 204.361 193.831C204.195 193.831 204.031 193.769 203.905 193.643C202.516 192.258 200.443 189.473 198.3 184.014C198.034 184.154 197.752 184.266 197.457 184.354C197.065 184.47 196.686 184.529 196.321 184.529C195.547 184.529 194.841 184.269 194.237 183.76C195.51 190.268 198.926 197.082 198.966 197.163C199.127 197.479 198.998 197.867 198.681 198.028C198.587 198.073 198.488 198.097 198.391 198.097C198.155 198.097 197.929 197.969 197.814 197.744C197.766 197.647 196.606 195.347 195.367 192.09C193.708 187.735 192.755 183.934 192.526 180.792C191.699 177.937 192.51 175.923 194.753 175.261L194.758 175.256ZM195.067 182.772C195.623 183.246 196.286 183.358 197.094 183.12C197.983 182.857 198.714 182.265 199.157 181.454C199.597 180.642 199.697 179.707 199.433 178.824C198.988 177.324 197.605 176.349 196.109 176.349C195.784 176.349 195.453 176.394 195.126 176.491C193.584 176.946 193.136 178.293 193.788 180.492C194.097 181.534 194.54 182.322 195.069 182.772H195.067Z" fill="#D3A98C"/>
<path d="M236.861 176.218C236.402 175.701 236.391 174.927 236.84 174.399L240.041 170.633C240.588 169.99 241.579 169.977 242.143 170.609L243.07 171.651C243.631 172.283 243.502 173.263 242.796 173.729L238.666 176.453C238.088 176.834 237.318 176.734 236.858 176.218H236.861Z" fill="#E27FA3"/>
<path d="M237.699 179.451C237.637 178.762 238.091 178.133 238.762 177.975L243.58 176.836C244.405 176.641 245.21 177.219 245.285 178.061L245.412 179.448C245.49 180.289 244.802 181.004 243.956 180.961L239.012 180.712C238.319 180.677 237.761 180.142 237.696 179.453L237.699 179.451Z" fill="#E27FA3"/>
<path d="M233.74 175.002C234.417 175.147 235.099 174.772 235.336 174.123L237.041 169.487C237.334 168.694 236.853 167.829 236.026 167.652L234.659 167.363C233.832 167.186 233.04 167.784 232.98 168.625L232.642 173.55C232.594 174.239 233.064 174.857 233.74 175.002Z" fill="#E27FA3"/>
<path d="M395.868 142.695C395.633 142.57 395.505 142.511 395.505 142.511C401.875 135.693 387.077 130.831 387.077 130.831C388.743 127.246 385.766 124.634 380.802 123.123L383.303 123.359C384.434 120.788 386.335 114.677 380.777 111.449C373.918 107.461 363.934 112.292 362.801 121.426L365.99 121.727C362.079 121.971 358.241 122.663 355.052 123.833C351.864 125.002 348.489 126.958 345.349 129.3L347.582 127.01C340.812 120.779 330.076 123.546 327.419 131.025C325.267 137.081 330.67 140.514 333.198 141.741L334.947 139.951C332.136 144.31 331.559 148.226 335.148 149.883C335.148 149.883 327.002 163.163 336.27 164.244C336.27 164.244 331.511 174.46 340.897 181.289C345.515 184.646 350.881 184.976 355.922 183.972C355.951 185.041 356.143 186.092 356.516 187.109C359.196 194.413 370.117 197.126 380.913 193.165C391.709 189.204 398.285 180.072 395.605 172.768C395.216 171.707 394.652 170.746 393.944 169.885C398.156 167.397 401.716 163.774 403 158.505C405.437 148.506 397.662 143.669 395.869 142.7L395.868 142.695Z" fill="#F8D4AE"/>
<path d="M341.32 132.626C338.244 135.446 335.666 138.506 334.144 141.293C331.807 139.508 328.24 135.963 330.688 132.349C333.284 128.51 338.715 131.067 341.32 132.626Z" fill="#FFF1E6"/>
<path d="M363.807 147.706C369.659 145.559 375.02 153.69 380.339 153.439C388.462 153.047 392.504 148.976 395.509 142.51C395.509 142.51 405.746 147.225 403.004 158.504C399.083 174.585 373.94 175.326 373.94 175.326C373.94 175.326 354.287 191.02 340.892 181.291C331.508 174.466 336.265 164.245 336.265 164.245C342.74 167.234 348.453 167.721 354.905 162.771C359.125 159.527 357.954 149.854 363.807 147.706Z" fill="#FFF1E6"/>
<path d="M351.363 175.937C355.36 173.69 356.78 168.638 354.536 164.653C352.291 160.668 347.232 159.259 343.235 161.506C339.239 163.753 337.818 168.805 340.063 172.79C342.307 176.774 347.367 178.183 351.363 175.937Z" fill="#FD9DB4"/>
<path d="M394.061 160.276C398.056 158.026 399.472 152.973 397.224 148.99C394.976 145.007 389.915 143.603 385.92 145.853C381.925 148.104 380.509 153.156 382.757 157.139C385.005 161.122 390.066 162.527 394.061 160.276Z" fill="#FD9DB4"/>
<path d="M397.083 142.204C398.052 140.8 398.355 139.352 397.98 137.89C396.945 133.839 390.911 131.158 388.401 130.208C388.858 128.477 388.43 126.846 387.129 125.435C384.804 122.914 379.606 121.195 372.864 120.718C366.388 120.262 359.594 121.063 354.683 122.865C352.6 123.629 350.376 124.753 348.15 126.135C344.678 123.015 339.915 121.826 335.361 122.954C331.115 124.006 327.779 126.894 326.432 130.684C325.385 133.623 325.836 136.445 327.728 138.84C329.106 140.586 330.973 141.781 332.404 142.516C331.921 143.699 331.645 144.807 331.602 145.806C331.522 147.725 332.251 149.245 333.719 150.27C332.423 152.616 329.55 158.565 331.381 162.324C332.04 163.681 333.208 164.59 334.854 165.034C334.485 166.176 334.024 168.023 334.014 170.205C333.999 173.557 335.069 178.344 340.274 182.129C348.14 187.843 357.942 185.244 364.783 182.059C365.303 181.817 365.528 181.201 365.286 180.679C365.045 180.161 364.427 179.933 363.904 180.179C357.573 183.132 348.541 185.572 341.497 180.453C337.915 177.847 336.092 174.425 336.091 170.289C336.089 167.132 337.19 164.706 337.2 164.684C337.344 164.383 337.329 164.03 337.163 163.741C337.002 163.451 336.709 163.255 336.378 163.22C334.77 163.034 333.747 162.444 333.248 161.423C331.81 158.471 334.763 152.488 336.022 150.431C336.178 150.176 336.218 149.872 336.133 149.591C336.048 149.309 335.843 149.076 335.575 148.95C334.218 148.326 333.616 147.352 333.676 145.896C333.797 143.034 336.487 138.761 340.882 134.473C345.326 130.131 350.749 126.524 355.396 124.819C360.042 123.114 366.516 122.357 372.713 122.795C378.84 123.227 383.654 124.742 385.598 126.851C386.587 127.927 386.757 129.055 386.124 130.409C386.001 130.675 385.995 130.985 386.114 131.258C386.231 131.528 386.46 131.738 386.738 131.829C389.028 132.584 395.146 135.239 395.958 138.42C396.239 139.526 395.839 140.633 394.735 141.82C394.507 142.064 394.412 142.397 394.477 142.723C394.541 143.049 394.757 143.324 395.058 143.466C395.071 143.475 395.181 143.526 395.365 143.625C396.232 144.092 398.442 145.442 400.169 147.837C402.332 150.831 402.939 154.345 401.98 158.277C401.122 161.804 399.08 164.843 395.916 167.309C393.354 169.306 390.061 170.932 386.125 172.151C385.577 172.315 385.271 172.901 385.439 173.446C385.607 173.991 386.189 174.297 386.736 174.129C387.456 173.906 388.158 173.671 388.836 173.422C397.175 170.363 402.4 165.325 403.999 158.768C406.363 149.071 399.716 143.867 397.077 142.224L397.083 142.204ZM339.436 132.982C336.735 135.618 334.652 138.244 333.317 140.645C327.28 137.556 327.631 133.525 328.395 131.374C329.509 128.245 332.298 125.847 335.864 124.966C339.565 124.05 343.431 124.929 346.35 127.32C343.942 128.971 341.578 130.895 339.438 132.986L339.436 132.982Z" fill="#D3A98C"/>
<path d="M381.752 148.904C381.392 147.032 379.579 145.808 377.702 146.171C375.825 146.533 374.596 148.345 374.956 150.217C375.316 152.089 377.129 153.313 379.006 152.951C380.882 152.588 382.112 150.777 381.752 148.904Z" fill="#5F5C5D"/>
<path d="M357.309 157.877C356.948 156.005 355.135 154.781 353.258 155.144C351.381 155.507 350.152 157.319 350.513 159.192C350.874 161.064 352.687 162.287 354.564 161.924C356.441 161.561 357.669 159.749 357.309 157.877Z" fill="#5F5C5D"/>
<path d="M372.818 158.993C373.172 159.957 373.296 160.936 373.216 161.848C373.062 163.702 372.071 165.27 370.495 165.848C368.919 166.426 367.148 165.871 365.824 164.56C365.173 163.916 364.639 163.088 364.285 162.123C363.213 159.203 364.254 156.137 366.614 155.271C368.974 154.405 371.751 156.07 372.823 158.991L372.818 158.993Z" fill="#5F5C5D"/>
<path d="M373.216 161.848C373.062 163.702 372.071 165.27 370.495 165.848C368.919 166.426 367.148 165.872 365.824 164.56C365.982 162.705 366.97 161.139 368.554 160.558C370.138 159.976 371.9 160.534 373.216 161.848Z" fill="#E27FA3"/>
<path d="M370.849 166.826C367.957 167.887 364.574 165.938 363.308 162.487C362.957 161.531 362.796 160.551 362.829 159.574L364.906 159.634C364.882 160.347 365.003 161.065 365.261 161.77C366.135 164.152 368.324 165.546 370.14 164.88C371.955 164.214 372.723 161.735 371.849 159.353C371.626 158.745 371.317 158.192 370.924 157.711L372.542 156.406C373.074 157.065 373.497 157.815 373.799 158.638C375.065 162.089 373.745 165.763 370.853 166.824L370.849 166.826Z" fill="#F8D4AE"/>
<path d="M372.538 156.407C371.123 154.661 369.14 153.802 367.264 154.054L366.037 150.758L364.09 151.482L365.315 154.769C363.822 155.726 362.894 157.477 362.827 159.57C362.811 160.141 363.259 160.621 363.831 160.636C364.404 160.651 364.884 160.203 364.901 159.632C364.953 157.991 365.744 156.694 366.967 156.245C368.263 155.77 369.815 156.345 370.92 157.713C371.207 158.068 371.678 158.184 372.085 158.035C372.19 157.996 372.29 157.942 372.378 157.868C372.826 157.506 372.896 156.855 372.534 156.409L372.538 156.407Z" fill="#D3A98C"/>
<path d="M366.715 149.452C366.013 149.122 365.174 149.425 364.842 150.126L364.762 150.297L364.59 150.218C363.888 149.887 363.05 150.19 362.717 150.891C362.384 151.593 362.686 152.429 363.388 152.759L363.991 153.044C365.155 153.591 366.547 153.09 367.097 151.927L367.383 151.326C367.716 150.625 367.414 149.789 366.712 149.458L366.715 149.452Z" fill="#E27FA3"/>
<path d="M375.297 198.059C367.091 188.343 350.657 172.802 346.651 179.934C342.647 187.071 368.441 210.047 368.441 210.047L375.297 198.059Z" fill="#F8D4AE"/>
<path d="M368.729 211.045C368.399 211.138 368.028 211.068 367.754 210.823C367.69 210.764 361.193 204.962 355.273 198.36C346.935 189.06 343.819 182.867 345.747 179.43C346.516 178.058 347.739 177.26 349.282 177.108C352.372 176.811 356.906 179.132 362.749 184.007C367.064 187.604 372.053 192.608 376.087 197.388C376.456 197.827 376.4 198.477 375.96 198.85C375.519 199.219 374.868 199.164 374.495 198.726C370.533 194.03 365.64 189.123 361.411 185.596C356.159 181.217 351.916 178.936 349.472 179.171C348.601 179.256 347.992 179.658 347.55 180.437C345.618 183.876 353.376 193.14 356.802 196.962C362.645 203.482 369.063 209.217 369.125 209.272C369.55 209.654 369.587 210.307 369.206 210.737C369.068 210.888 368.898 210.992 368.715 211.045L368.729 211.045Z" fill="#D3A98C"/>
<path d="M387.743 193.837C387.43 181.124 389.407 158.59 397.136 161.269C404.866 163.949 400.83 198.256 400.83 198.256L387.747 193.836L387.743 193.837Z" fill="#F8D4AE"/>
<path d="M401.279 199.19C401.106 199.272 400.913 199.31 400.706 199.285C400.137 199.218 399.728 198.706 399.795 198.135C399.805 198.048 400.797 189.498 400.841 180.75C400.865 175.616 400.518 163.54 396.792 162.251C395.947 161.959 395.219 162.06 394.515 162.576C392.529 164.022 390.875 168.545 389.854 175.308C389.031 180.753 388.631 187.665 388.784 193.809C388.801 194.382 388.344 194.858 387.774 194.874C387.198 194.888 386.724 194.437 386.709 193.868C386.553 187.614 386.965 180.56 387.802 175.004C388.939 167.476 390.789 162.734 393.297 160.904C394.551 159.989 396 159.779 397.483 160.292C401.206 161.583 402.985 168.28 402.923 180.772C402.881 189.639 401.875 198.291 401.86 198.374C401.819 198.739 401.588 199.04 401.279 199.19Z" fill="#D3A98C"/>
</g>
<defs>
<filter id="filter0_f_1198_63" x="-75.3" y="71.7" width="234.6" height="71.6" filterUnits="userSpaceOnUse" color-interpolation-filters="sRGB">
<feFlood flood-opacity="0" result="BackgroundImageFix"/>
<feBlend mode="normal" in="SourceGraphic" in2="BackgroundImageFix" result="shape"/>
<feGaussianBlur stdDeviation="7.65" result="effect1_foregroundBlur_1198_63"/>
</filter>
<filter id="filter1_f_1198_63" x="-12.2" y="10.8" width="47.4" height="25.4" filterUnits="userSpaceOnUse" color-interpolation-filters="sRGB">
<feFlood flood-opacity="0" result="BackgroundImageFix"/>
<feBlend mode="normal" in="SourceGraphic" in2="BackgroundImageFix" result="shape"/>
<feGaussianBlur stdDeviation="3.1" result="effect1_foregroundBlur_1198_63"/>
</filter>
<linearGradient id="paint0_linear_1198_63" x1="200" y1="200" x2="200" y2="0" gradientUnits="userSpaceOnUse">
<stop stop-color="white"/>
<stop offset="1" stop-color="#53C3F1"/>
</linearGradient>
<clipPath id="clip0_1198_63">
<rect width="400" height="200" fill="white"/>
</clipPath>
<clipPath id="clip1_1198_63">
<rect width="65" height="98" fill="white" transform="translate(0 105)"/>
</clipPath>
</defs>
</svg>
