<svg width="829" height="879" viewBox="0 0 829 879" fill="none" xmlns="http://www.w3.org/2000/svg">
<g clip-path="url(#clip0_1134_3372)">
<path d="M0 48.9037C0 21.8949 30.8924 0 69 0C107.108 0 138 21.8949 138 48.9037V830.096C138 857.105 107.108 879 69 879C30.8924 879 0 857.105 0 830.096V48.9037Z" fill="url(#paint0_linear_1134_3372)"/>
<path d="M138 49.4723C138 22.1495 168.892 0 207 0C245.108 0 276 22.1495 276 49.4723V829.528C276 856.851 245.108 879 207 879C168.892 879 138 856.851 138 829.528V49.4723Z" fill="url(#paint1_linear_1134_3372)"/>
<path d="M276 48.9037C276 21.8949 306.892 0 345 0C383.108 0 414 21.8949 414 48.9037V830.096C414 857.105 383.108 879 345 879C306.892 879 276 857.105 276 830.096V48.9037Z" fill="url(#paint2_linear_1134_3372)"/>
<path d="M414 49.4723C414 22.1495 445.116 0 483.5 0C521.884 0 553 22.1495 553 49.4723V829.528C553 856.851 521.884 879 483.5 879C445.116 879 414 856.851 414 829.528V49.4723Z" fill="url(#paint3_linear_1134_3372)"/>
<path d="M553 49.4723C553 22.1495 583.892 0 622 0C660.108 0 691 22.1495 691 49.4723V829.528C691 856.851 660.108 879 622 879C583.892 879 553 856.851 553 829.528V49.4723Z" fill="url(#paint4_linear_1134_3372)"/>
<path d="M691 48.9037C691 21.8949 721.892 0 760 0C798.108 0 829 21.8949 829 48.9037V830.096C829 857.105 798.108 879 760 879C721.892 879 691 857.105 691 830.096V48.9037Z" fill="url(#paint5_linear_1134_3372)"/>
<g filter="url(#filter0_d_1134_3372)">
<circle cx="103" cy="591" r="9" fill="white"/>
</g>
<g filter="url(#filter1_d_1134_3372)">
<circle cx="632.5" cy="514.5" r="8.5" fill="white"/>
</g>
<g filter="url(#filter2_d_1134_3372)">
<circle cx="221.403" cy="138.303" r="6" fill="white"/>
</g>
<g filter="url(#filter3_d_1134_3372)">
<path d="M606.023 195.81C606.67 192.772 607.355 184.446 602.504 179.672C604.988 180.11 610.871 174.428 612.941 168.28C612.454 171.794 613.085 179.624 617.838 181.635C615.296 181.467 608.238 188.689 606.023 195.81Z" fill="white"/>
</g>
<g filter="url(#filter4_d_1134_3372)">
<path d="M148.403 438.413C148.774 442.031 148.525 451.809 142.277 456.757C145.224 456.56 151.359 463.914 152.996 471.331C152.87 467.179 154.589 458.143 160.376 456.4C157.395 456.276 150.086 446.981 148.403 438.413Z" fill="white"/>
</g>
<g filter="url(#filter5_d_1134_3372)">
<path d="M681.564 543.156C681.722 546.694 680.115 554.747 672.423 558.651C675.887 558.868 683.153 561.146 684.501 568.52C684.672 564.501 686.74 556.243 693.647 555.364C690.168 554.832 682.879 551.646 681.564 543.156Z" fill="white"/>
</g>
<path d="M567.172 620.648C565.905 619.23 565.194 618.521 565.194 618.521C624.693 588.465 537.407 519.443 537.407 519.443C557.405 499.498 543.867 474.651 514.287 452.302L530.483 460.039C544.392 445.582 572.179 409.267 542.847 373.94C506.653 330.319 427.804 338.15 397.73 396.628L418.377 406.493C391.548 398.509 364.101 393.7 339.838 393.7C315.574 393.7 288.127 398.509 261.299 406.493L281.915 396.628C251.841 338.18 173.023 330.319 136.798 373.94C107.466 409.267 135.253 445.582 149.193 460.039L165.327 452.333C135.747 474.651 122.24 499.498 142.238 519.443C142.238 519.443 54.9207 588.465 114.42 618.521C114.42 618.521 57.3625 675.335 103.509 744.234C126.227 778.113 161.401 793.526 197.688 799.198C195.247 806.443 193.948 813.964 193.948 821.702C193.948 877.283 260.526 922.352 342.681 922.352C424.837 922.352 491.415 877.283 491.415 821.702C491.415 813.625 489.993 805.795 487.365 798.273C521.736 791.954 554.53 776.417 576.105 744.234C617.059 683.165 576.815 631.592 567.172 620.679V620.648Z" fill="#F8D4AE"/>
<path d="M226.094 418.885C198.523 430.23 173.703 444.41 156.642 459.361C145.36 441.636 130.153 409.082 155.467 390.864C182.327 371.504 212.463 402.023 226.094 418.885Z" fill="#FFF1E6"/>
<path d="M339.807 575.363C384.347 575.363 400.296 643.09 436.582 654.496C492.033 671.852 529.154 654.496 565.225 618.521C565.225 618.521 622.282 675.335 576.136 744.234C510.269 842.448 339.807 785.542 339.807 785.542C339.807 785.542 169.376 842.448 103.479 744.234C57.3318 675.366 114.389 618.521 114.389 618.521C150.46 654.496 187.581 671.821 243.032 654.496C279.319 643.121 295.268 575.363 339.807 575.363Z" fill="#FFF1E6"/>
<path d="M186.883 734.087C219.218 728.852 241.176 698.465 235.927 666.215C230.679 633.966 200.211 612.066 167.876 617.301C135.541 622.536 113.584 652.923 118.832 685.172C124.081 717.422 154.549 739.321 186.883 734.087Z" fill="#FD9DB4"/>
<path d="M511.794 734.117C544.125 728.854 566.056 698.448 560.779 666.203C555.502 633.958 525.015 612.085 492.685 617.348C460.355 622.611 438.424 653.017 443.7 685.262C448.977 717.507 479.464 739.38 511.794 734.117Z" fill="#FD9DB4"/>
<path d="M576.538 620.34C586.49 613.311 592.085 604.341 593.167 593.613C596.196 563.896 562.32 531.065 547.824 518.518C555.149 508.037 556.293 496.045 551.038 483.375C541.642 460.748 511.011 436.426 466.966 416.635C424.652 397.646 377.114 386.301 339.746 386.301C323.889 386.301 306.21 388.367 287.881 392.158C272.272 362.688 243.248 342.989 209.929 339.352C178.865 335.961 149.378 347.12 131.019 369.223C116.77 386.363 112.844 406.4 119.644 427.116C124.59 442.221 134.171 454.83 141.96 463.276C135.81 470.027 131.235 476.778 128.484 483.375C123.23 496.045 124.373 508.037 131.699 518.518C117.233 531.065 83.3264 563.896 86.3555 593.613C87.4373 604.341 93.0318 613.311 102.984 620.34C97.699 627.091 90.0645 638.343 84.6246 652.955C76.2792 675.397 71.6738 710.139 97.2663 748.334C135.964 806.011 208.105 812.7 261.825 808.169C265.905 807.83 268.934 804.254 268.594 800.154C268.254 796.085 264.668 793.033 260.557 793.403C210.825 797.626 144.248 791.769 109.599 740.103C91.9809 713.807 88.1791 686.371 98.3481 658.627C106.106 637.449 119.459 623.885 119.582 623.762C121.282 622.097 122.055 619.692 121.653 617.35C121.282 615.007 119.799 612.972 117.666 611.924C107.343 606.714 101.933 600.241 101.099 592.164C98.719 568.828 133.244 535.966 146.751 525.269C148.42 523.944 149.44 522.002 149.564 519.905C149.688 517.809 148.884 515.744 147.4 514.233C139.828 506.711 138.189 498.696 142.177 489.078C150.028 470.181 178.587 448.14 218.614 430.199C259.105 412.011 304.355 401.16 339.715 401.16C375.074 401.16 420.356 412.011 460.846 430.199C500.873 448.171 529.433 470.181 537.284 489.109C541.271 498.758 539.633 506.742 532.06 514.264C530.576 515.744 529.773 517.809 529.896 519.936C530.02 522.033 531.04 524.005 532.678 525.3C546.185 535.997 580.68 568.859 578.3 592.195C577.465 600.302 572.056 606.745 561.732 611.986C559.6 613.065 558.147 615.068 557.776 617.411C557.405 619.754 558.178 622.128 559.847 623.823C559.909 623.916 560.527 624.532 561.516 625.642C566.183 630.913 577.681 645.402 583.369 665.717C590.509 691.119 585.934 716.181 569.831 740.195C555.396 761.743 534.224 777.095 506.931 785.85C484.831 792.94 458.744 795.746 429.35 794.235C425.27 793.988 421.778 797.164 421.561 801.233C421.345 805.302 424.497 808.785 428.577 809.001C433.956 809.279 439.241 809.433 444.403 809.433C507.858 809.433 555.303 788.501 582.163 748.457C621.881 689.238 590.107 637.973 576.445 620.463L576.538 620.34ZM212.587 416.635C187.984 427.671 167.553 440.156 152.686 452.98C119.799 417.406 132.07 391.233 142.486 378.687C157.662 360.437 182.265 351.22 208.352 354.087C235.428 357.046 259.197 372.46 272.89 395.673C252.676 400.821 232.09 407.911 212.587 416.666V416.635Z" fill="#D3A98C"/>
<path d="M457.222 627.556C459.415 614.112 450.265 601.441 436.786 599.254C423.307 597.067 410.602 606.192 408.41 619.636C406.217 633.079 415.366 645.75 428.845 647.937C442.325 650.124 455.029 640.999 457.222 627.556Z" fill="#5F5C5D"/>
<path d="M271.202 627.587C273.39 614.142 264.236 601.474 250.756 599.292C237.276 597.11 224.575 606.239 222.386 619.684C220.198 633.128 229.352 645.796 242.832 647.978C256.312 650.16 269.013 641.031 271.202 627.587Z" fill="#5F5C5D"/>
<path d="M372.478 673.239C372.478 680.576 370.902 687.45 368.12 693.369C362.526 705.422 352.017 713.499 340.024 713.499C328.031 713.499 317.522 705.422 311.866 693.369C309.084 687.45 307.539 680.576 307.539 673.239C307.539 651.013 322.066 633.01 340.024 633.01C357.982 633.01 372.509 651.013 372.509 673.239H372.478Z" fill="#5F5C5D"/>
<path d="M368.119 693.369C362.525 705.422 352.016 713.499 340.023 713.499C328.031 713.499 317.522 705.422 311.865 693.369C317.491 681.316 327.969 673.239 340.023 673.239C352.078 673.239 362.525 681.316 368.119 693.369Z" fill="#E27FA3"/>
<path d="M339.993 720.928C317.986 720.928 300.089 699.534 300.089 673.27C300.089 665.995 301.418 659.028 304.046 652.554L317.831 658.072C315.915 662.789 314.956 667.906 314.956 673.27C314.956 691.396 326.207 706.131 340.023 706.131C353.84 706.131 365.091 691.396 365.091 673.27C365.091 668.646 364.38 664.176 362.927 659.983L376.99 655.205C378.938 660.939 379.927 667.012 379.927 673.27C379.927 699.534 362.031 720.928 340.023 720.928H339.993Z" fill="#F8D4AE"/>
<path d="M376.959 655.205C371.767 640.007 360.578 629.372 347.38 626.444L347.256 601.32L332.42 601.381L332.544 626.444C320.18 629.187 309.64 638.651 304.046 652.523C302.531 656.315 304.355 660.631 308.157 662.141C311.958 663.652 316.286 661.833 317.8 658.041C322.189 647.159 330.689 640.408 339.993 640.408C349.852 640.408 358.847 648.084 362.896 659.983C363.947 663.066 366.821 665.008 369.912 665.008C370.716 665.008 371.52 664.885 372.292 664.607C376.187 663.282 378.258 659.089 376.929 655.205H376.959Z" fill="#D3A98C"/>
<path d="M355.014 594.229C351.12 590.284 344.752 590.253 340.796 594.137L339.838 595.093L338.88 594.137C334.985 590.191 328.618 590.16 324.662 594.044C320.705 597.929 320.675 604.279 324.569 608.225L327.907 611.616C334.367 618.151 344.938 618.213 351.491 611.77L354.891 608.441C358.847 604.556 358.878 598.206 354.983 594.26L355.014 594.229Z" fill="#E27FA3"/>
<path d="M293.383 818.434C262.258 733.074 190.271 588.403 145.855 626.382C101.439 664.392 217.904 881.969 217.904 881.969L293.383 818.434Z" fill="#F8D4AE"/>
<path d="M217.378 889.367C214.936 889.182 212.618 887.795 211.381 885.483C211.103 884.928 181.802 830.025 158.342 771.176C125.3 688.283 119.644 639.083 141.033 620.771C149.564 613.465 159.733 611.123 170.458 613.897C191.909 619.508 216.605 646.235 243.805 693.307C263.895 728.049 285.037 773.889 300.337 815.876C301.728 819.729 299.749 823.952 295.886 825.37C292.022 826.757 287.788 824.785 286.366 820.931C271.344 779.685 250.604 734.739 230.916 700.675C206.467 658.38 183.625 632.64 166.656 628.201C160.598 626.629 155.529 627.831 150.646 631.962C129.226 650.273 158.465 731.502 172.034 765.566C195.185 823.675 224.116 877.93 224.394 878.454C226.31 882.061 224.95 886.531 221.334 888.473C220.036 889.151 218.645 889.429 217.285 889.336L217.378 889.367Z" fill="#D3A98C"/>
<path d="M387.252 820.746C416.43 734.708 485.14 588.434 530.391 625.426C575.641 662.419 464.153 882.585 464.153 882.585L387.283 820.746H387.252Z" fill="#F8D4AE"/>
<path d="M464.864 889.953C463.504 890.076 462.113 889.86 460.784 889.182C457.137 887.333 455.653 882.894 457.508 879.225C457.786 878.67 485.48 823.767 507.302 765.196C520.098 730.824 547.483 648.978 525.662 631.16C520.716 627.122 515.585 626.012 509.589 627.738C492.713 632.547 470.49 658.812 446.999 701.662C428.083 736.157 408.394 781.534 394.299 823.12C393.001 827.004 388.767 829.07 384.903 827.775C381.009 826.449 378.938 822.257 380.236 818.403C394.578 776.078 414.699 729.776 433.986 694.571C460.135 646.882 484.213 619.631 505.54 613.527C516.204 610.475 526.434 612.633 535.12 619.723C556.911 637.541 552.367 686.834 521.211 770.467C499.111 829.84 471.077 885.391 470.768 885.915C469.593 888.257 467.306 889.706 464.864 889.953Z" fill="#D3A98C"/>
<path d="M667.75 249.398H435.903C394.392 249.398 360.733 282.969 360.733 324.37V438.029C360.733 472.894 384.594 502.18 416.894 510.565C405.829 526.903 394.485 549.314 410.558 555.387C430.927 563.094 475.126 538.186 497.226 513H667.78C709.291 513 742.951 479.43 742.951 438.029V324.37C742.951 282.969 709.291 249.398 667.78 249.398H667.75Z" fill="white"/>
<path d="M419.397 564.235C415.379 564.235 411.484 563.649 407.93 562.293C401.995 560.042 397.915 555.911 396.154 550.332C393.372 541.577 396.463 529.863 405.519 514.634C374.363 502.365 353.345 472.124 353.345 438.029V324.37C353.345 278.962 390.405 242 435.933 242H667.78C713.309 242 750.368 278.962 750.368 324.37V438.029C750.368 483.437 713.309 520.399 667.78 520.399H500.533C489.096 532.668 472.931 544.721 456.642 553.106C445.948 558.593 431.946 564.235 419.397 564.235ZM435.902 256.797C398.534 256.797 368.15 287.1 368.15 324.37V438.029C368.15 468.763 388.952 495.675 418.748 503.413C421.066 504.03 422.982 505.725 423.817 507.975C424.652 510.226 424.373 512.754 423.013 514.727C411.639 531.496 408.981 541.824 410.248 545.893C410.526 546.787 411.083 547.711 413.153 548.482C428.546 554.308 469.593 533.192 491.6 508.13C493.022 506.527 495.031 505.602 497.194 505.602H667.749C705.118 505.602 735.501 475.299 735.501 438.029V324.37C735.501 287.1 705.118 256.797 667.749 256.797H435.902Z" fill="#E6E6E6"/>
<path d="M449.41 372.213C461.588 369.531 468.666 354.364 459.764 344.87C455.962 340.277 444.897 338.581 438.561 337.225C426.908 335.344 432.101 326.034 441.312 326.682C444.866 326.682 449.101 327.453 452.346 328.871C454.015 329.58 455.468 329.765 456.704 329.487C461.99 328.285 462.329 320.455 457.57 318.266C443.908 310.559 417.574 313.981 417.265 333.186C417.079 347.305 430.833 349.062 442.208 351.343C448.019 352.207 451.728 355.937 446.875 359.821C441.497 362.873 430.864 360.869 425.054 358.156C419.552 355.228 414.452 361.825 417.079 366.757C418.717 369.809 422.55 370.579 425.888 371.689C433.213 373.724 442.239 374.34 449.379 372.244L449.41 372.213Z" fill="white"/>
<path d="M478.526 373.354C483.317 373.385 485.944 370.425 485.913 365.74V352.854C494.197 352.761 507.951 354.149 513.545 347.86C520.593 341.818 520.593 326.435 513.545 320.393C510.022 317.064 505.046 315.399 498.586 315.399H478.588C473.704 315.399 470.922 318.081 470.953 323.013V365.709C470.953 370.456 473.673 373.354 478.495 373.323L478.526 373.354ZM485.913 326.836H495.897C501.151 326.836 504.551 328.809 504.582 334.142C504.582 339.444 501.151 341.417 495.897 341.448H485.913V326.867V326.836Z" fill="white"/>
<path d="M533.698 372.552H561.331C563.185 372.552 564.607 372.059 565.596 371.104C568.78 367.682 566.894 360.561 561.331 361.054H540.127V349.309H559.476C563.216 349.309 565.256 347.243 565.256 343.544C565.256 339.752 563.278 337.78 559.476 337.78H540.127V326.928H561.331C566.863 327.422 568.811 320.331 565.596 316.879C564.607 315.892 563.185 315.43 561.331 315.43H533.698C528.629 315.43 525.878 318.143 525.909 323.198V364.784C525.909 369.84 528.629 372.583 533.698 372.552Z" fill="white"/>
<path d="M574.25 372.152C576.445 373.878 581.421 373.755 583.183 371.874C585.223 370.117 587.386 363.828 588.684 361.054H614.401C615.73 363.89 617.801 370.086 620.15 371.843C622.128 373.724 626.919 373.94 629.175 372.213C631.679 370.333 631.74 367.189 630.319 364.229L610.012 320.794C606.921 312.594 596.226 312.656 593.104 320.794L572.859 364.229C571.53 367.25 571.654 370.271 574.25 372.183V372.152ZM601.45 330.967H601.604L609.393 349.525H593.661L601.45 330.967Z" fill="white"/>
<path d="M685.151 362.657L667.347 342.527L684.069 324.74C686.418 322.397 686.82 318.883 684.625 316.447C681.565 313.241 675.229 314.783 672.509 318.205L652.758 339.938H652.604V322.274C652.604 319.777 651.955 317.896 650.657 316.602C645.958 312.409 637.026 314.968 637.644 322.274V365.801C637.057 373.015 646.082 375.759 650.688 371.381C651.955 370.025 652.604 368.175 652.604 365.801V346.75H652.758L672.664 368.946C678.505 377.701 692.569 372.46 685.089 362.719L685.151 362.657Z" fill="white"/>
<path d="M472.776 436.426H452.871V399.156C452.871 396.721 452.222 394.871 450.924 393.576C446.318 389.415 437.262 391.943 437.911 399.156V441.204C437.911 446.044 440.693 448.849 445.546 448.818H472.776C481.276 449.404 481.338 435.809 472.776 436.426Z" fill="white"/>
<path d="M528.351 394.409C508.538 383.835 482.884 396.227 483.904 420.211C483.131 442.468 505.076 455.415 524.951 447.647C546.556 439.879 548.163 404.952 528.351 394.409ZM525.012 429.366C521.922 438.306 508.631 439.909 503.067 432.727C498.925 428.133 498.369 416.974 501.089 411.055C504.242 402.177 517.625 400.605 523.065 407.757C527.145 412.35 527.671 423.448 525.012 429.366Z" fill="white"/>
<path d="M594.464 390.864C589.674 390.864 587.108 393.669 587.139 398.478V424.558C587.139 432.233 583.955 437.135 576.321 437.197C568.625 437.135 565.503 432.264 565.503 424.558V398.478C565.503 395.981 564.854 394.1 563.556 392.806C558.888 388.613 549.925 391.172 550.543 398.478V424.403C550.574 431.894 552.119 438.491 557.127 443.393C565.008 451.038 581.019 451.346 590.323 446.969C598.884 442.591 601.697 434.33 601.728 424.403V398.478C601.728 393.669 599.194 390.864 594.403 390.864H594.464Z" fill="white"/>
<path d="M635.511 391.696H619.655C614.586 391.696 611.835 394.409 611.866 399.464V441.05C611.866 443.578 612.515 445.52 613.844 446.845C615.173 448.171 617.12 448.818 619.655 448.818H635.511C653.376 449.435 667.409 438.676 666.791 420.211C666.853 401.252 654.396 391.573 635.511 391.696ZM650.347 427.517C647.287 437.659 635.573 436.919 626.826 436.765V403.78H634.615C649.297 403.102 653.778 415.186 650.347 427.517Z" fill="white"/>
<path d="M433.735 454.565C432.455 454.565 431.4 454.151 430.572 453.322C429.743 452.494 429.329 451.439 429.329 450.159L429.555 418.808C429.555 417.151 429.988 415.927 430.854 415.136C431.72 414.308 432.85 413.893 434.244 413.893C435.562 413.893 436.616 414.176 437.407 414.741C438.198 415.305 438.763 416.002 439.102 416.831L449.608 443.098L460.115 416.831C460.454 416.002 461.019 415.305 461.81 414.741C462.638 414.176 463.693 413.893 464.973 413.893C466.404 413.893 467.534 414.308 468.363 415.136C469.229 415.927 469.662 417.151 469.662 418.808L469.888 450.159C469.888 451.439 469.473 452.494 468.645 453.322C467.816 454.151 466.762 454.565 465.482 454.565C464.201 454.565 463.128 454.151 462.262 453.322C461.433 452.494 461.038 451.439 461.076 450.159L461.527 434.06L454.692 450.724C454.127 452.117 453.393 453.115 452.489 453.718C451.623 454.282 450.663 454.565 449.608 454.565C448.554 454.565 447.575 454.282 446.671 453.718C445.805 453.115 445.089 452.117 444.524 450.724L437.689 434.06L438.141 450.159C438.179 451.439 437.784 452.494 436.955 453.322C436.127 454.151 435.053 454.565 433.735 454.565ZM482.594 454.565C481.426 454.565 480.428 454.151 479.6 453.322C478.771 452.456 478.357 451.439 478.357 450.272V428.58C478.357 427.413 478.771 426.415 479.6 425.586C480.428 424.758 481.426 424.344 482.594 424.344C483.761 424.344 484.759 424.758 485.588 425.586C486.416 426.415 486.83 427.413 486.83 428.58V450.272C486.83 451.439 486.416 452.456 485.588 453.322C484.759 454.151 483.761 454.565 482.594 454.565ZM482.537 421.689C481.257 421.689 480.202 421.274 479.374 420.446C478.545 419.617 478.131 418.45 478.131 416.944C478.131 415.437 478.545 414.27 479.374 413.441C480.202 412.613 481.257 412.199 482.537 412.199C483.893 412.199 484.985 412.613 485.813 413.441C486.642 414.27 487.056 415.437 487.056 416.944C487.056 418.45 486.642 419.617 485.813 420.446C484.985 421.274 483.893 421.689 482.537 421.689ZM497.735 454C496.454 454 495.4 453.623 494.571 452.87C493.743 452.079 493.253 451.119 493.103 449.989C492.952 448.86 493.253 447.786 494.006 446.769L506.434 430.218L511.687 432.817H497.452C496.285 432.817 495.287 432.44 494.458 431.687C493.63 430.896 493.216 429.955 493.216 428.863C493.216 427.771 493.63 426.848 494.458 426.095C495.287 425.304 496.285 424.909 497.452 424.909H511.687C513.005 424.909 514.06 425.304 514.851 426.095C515.679 426.886 516.169 427.846 516.319 428.976C516.47 430.105 516.15 431.198 515.359 432.252L503.214 448.464L497.735 446.092H513.213C514.38 446.092 515.378 446.487 516.206 447.278C517.035 448.031 517.449 448.954 517.449 450.046C517.449 451.1 517.035 452.023 516.206 452.814C515.378 453.605 514.38 454 513.213 454H497.735ZM533.928 454.565C531.555 454.565 529.578 454.113 527.997 453.209C526.453 452.305 525.285 451.006 524.494 449.311C523.741 447.617 523.365 445.602 523.365 443.267V428.298C523.365 427.13 523.779 426.132 524.607 425.304C525.436 424.475 526.434 424.061 527.601 424.061C528.769 424.061 529.767 424.475 530.595 425.304C531.424 426.132 531.838 427.13 531.838 428.298V441.629C531.838 443.587 532.29 444.905 533.193 445.583C534.135 446.261 535.34 446.6 536.809 446.6C538.051 446.6 539.068 446.318 539.859 445.753C540.688 445.188 541.29 444.472 541.667 443.606C542.081 442.702 542.288 441.742 542.288 440.725V428.298C542.288 427.13 542.702 426.132 543.531 425.304C544.359 424.475 545.357 424.061 546.525 424.061C547.73 424.061 548.728 424.475 549.519 425.304C550.347 426.132 550.761 427.13 550.761 428.298V450.272C550.761 451.439 550.347 452.437 549.519 453.266C548.728 454.094 547.73 454.508 546.525 454.508C545.357 454.508 544.359 454.094 543.531 453.266C542.702 452.437 542.288 451.439 542.288 450.272V446.713L543.983 447.334C542.778 449.745 541.384 451.552 539.803 452.757C538.221 453.962 536.263 454.565 533.928 454.565ZM563.647 454.565C562.442 454.565 561.407 454.132 560.54 453.266C559.674 452.399 559.241 451.364 559.241 450.159V418.864C559.241 417.659 559.674 416.624 560.54 415.757C561.407 414.891 562.442 414.458 563.647 414.458H568.053V450.159C568.053 451.364 567.62 452.399 566.754 453.266C565.888 454.132 564.852 454.565 563.647 454.565ZM566.359 439.595V431.687H574.945C575.811 431.687 576.564 431.499 577.205 431.122C577.882 430.746 578.41 430.218 578.786 429.541C579.163 428.863 579.351 428.091 579.351 427.225C579.351 426.208 579.163 425.342 578.786 424.626C578.41 423.873 577.845 423.308 577.092 422.931C576.376 422.555 575.51 422.367 574.493 422.367H566.359V414.458H575.284C577.807 414.458 580.048 414.985 582.006 416.04C583.964 417.094 585.508 418.563 586.638 420.446C587.805 422.329 588.389 424.532 588.389 427.055C588.389 429.578 587.824 431.781 586.695 433.664C585.565 435.547 584.058 437.016 582.175 438.07C580.293 439.087 578.221 439.595 575.962 439.595H566.359ZM600.961 454.847C599.342 454.847 597.76 454.527 596.216 453.887C594.71 453.247 593.448 452.287 592.432 451.006C591.453 449.688 590.963 448.031 590.963 446.035C590.963 443.135 591.848 440.932 593.618 439.426C595.426 437.882 598.363 436.79 602.43 436.15C603.56 435.961 604.614 435.792 605.593 435.641C606.573 435.491 607.363 435.265 607.966 434.963C608.568 434.625 608.87 434.116 608.87 433.438C608.87 432.911 608.719 432.478 608.418 432.139C608.154 431.762 607.759 431.499 607.232 431.348C606.742 431.16 606.139 431.066 605.424 431.066C604.482 431.066 603.673 431.235 602.995 431.574C602.355 431.913 601.752 432.365 601.187 432.93C600.66 433.457 600.039 433.89 599.323 434.229C598.645 434.568 597.873 434.737 597.007 434.737C595.84 434.737 594.898 434.436 594.183 433.834C593.467 433.231 593.11 432.403 593.11 431.348C593.11 430.331 593.43 429.39 594.07 428.524C594.71 427.658 595.576 426.904 596.668 426.264C597.76 425.586 599.041 425.059 600.509 424.683C601.978 424.306 603.522 424.118 605.142 424.118C607.702 424.118 609.887 424.588 611.694 425.53C613.502 426.434 614.876 427.714 615.818 429.371C616.797 431.028 617.287 432.968 617.287 435.189V445.414C617.287 445.903 617.343 446.242 617.456 446.431C617.569 446.581 617.814 446.732 618.19 446.882C618.831 447.146 619.433 447.579 619.998 448.182C620.6 448.747 620.902 449.537 620.902 450.554C620.902 451.684 620.488 452.644 619.659 453.435C618.831 454.226 617.644 454.603 616.1 454.565C614.406 454.527 613.088 454.132 612.146 453.379C611.242 452.588 610.64 451.571 610.338 450.328L610.282 450.102H610.112C609.058 451.684 607.853 452.87 606.497 453.661C605.179 454.452 603.334 454.847 600.961 454.847ZM603.164 447.73C604.181 447.73 605.123 447.523 605.989 447.108C606.855 446.694 607.552 446.092 608.079 445.301C608.606 444.472 608.87 443.493 608.87 442.363V440.951C608.87 440.838 608.832 440.782 608.757 440.782C608.719 440.782 608.625 440.819 608.474 440.895C608.06 441.121 607.589 441.309 607.062 441.46C606.535 441.573 605.97 441.667 605.367 441.742C604.765 441.817 604.087 441.949 603.334 442.137C601.715 442.514 600.66 442.966 600.171 443.493C599.719 443.983 599.493 444.548 599.493 445.188C599.493 446.054 599.794 446.694 600.396 447.108C601.037 447.523 601.959 447.73 603.164 447.73ZM636.823 455.017C634.3 455.017 632.096 454.64 630.214 453.887C628.331 453.134 626.862 452.192 625.807 451.063C624.791 449.933 624.282 448.841 624.282 447.786C624.282 446.92 624.621 446.073 625.299 445.244C625.977 444.416 626.994 444.002 628.349 444.002C629.291 444.002 630.063 444.19 630.665 444.566C631.268 444.905 631.701 445.207 631.965 445.47C633.057 446.412 634.055 447.071 634.959 447.447C635.862 447.786 636.728 447.956 637.557 447.956C638.536 447.956 639.214 447.786 639.591 447.447C640.005 447.071 640.212 446.638 640.212 446.148C640.212 445.696 640.024 445.282 639.647 444.905C639.27 444.529 638.706 444.171 637.952 443.832C637.199 443.456 636.258 443.079 635.128 442.702C633.81 442.25 632.548 441.78 631.343 441.29C630.176 440.763 629.14 440.142 628.236 439.426C627.333 438.71 626.617 437.844 626.09 436.828C625.6 435.811 625.356 434.568 625.356 433.099C625.356 431.329 625.826 429.767 626.768 428.411C627.747 427.017 629.065 425.925 630.722 425.134C632.417 424.344 634.337 423.948 636.484 423.948C638.517 423.948 640.325 424.287 641.907 424.965C643.526 425.643 644.787 426.528 645.691 427.62C646.633 428.674 647.104 429.842 647.104 431.122C647.104 432.064 646.821 432.873 646.256 433.551C645.729 434.229 644.882 434.568 643.714 434.568C642.735 434.568 641.925 434.361 641.285 433.947C640.645 433.495 640.137 433.099 639.76 432.76C639.496 432.497 639.195 432.233 638.856 431.97C638.555 431.706 638.178 431.48 637.726 431.292C637.312 431.103 636.785 431.009 636.145 431.009C635.241 431.009 634.62 431.179 634.281 431.518C633.979 431.857 633.829 432.233 633.829 432.647C633.829 433.212 634.055 433.683 634.507 434.06C634.959 434.399 635.693 434.756 636.71 435.133C637.726 435.509 639.082 436.018 640.777 436.658C642.133 437.148 643.3 437.694 644.279 438.296C645.296 438.861 646.124 439.501 646.765 440.217C647.442 440.895 647.932 441.667 648.233 442.533C648.572 443.361 648.742 444.322 648.742 445.414C648.742 447.372 648.252 449.086 647.273 450.554C646.294 451.985 644.9 453.096 643.093 453.887C641.323 454.64 639.233 455.017 636.823 455.017ZM665.784 455.017C663.261 455.017 661.058 454.64 659.175 453.887C657.292 453.134 655.823 452.192 654.769 451.063C653.752 449.933 653.244 448.841 653.244 447.786C653.244 446.92 653.582 446.073 654.26 445.244C654.938 444.416 655.955 444.002 657.311 444.002C658.252 444.002 659.024 444.19 659.627 444.566C660.229 444.905 660.662 445.207 660.926 445.47C662.018 446.412 663.016 447.071 663.92 447.447C664.824 447.786 665.69 447.956 666.518 447.956C667.497 447.956 668.175 447.786 668.552 447.447C668.966 447.071 669.173 446.638 669.173 446.148C669.173 445.696 668.985 445.282 668.608 444.905C668.232 444.529 667.667 444.171 666.914 443.832C666.161 443.456 665.219 443.079 664.089 442.702C662.771 442.25 661.51 441.78 660.305 441.29C659.137 440.763 658.102 440.142 657.198 439.426C656.294 438.71 655.578 437.844 655.051 436.828C654.562 435.811 654.317 434.568 654.317 433.099C654.317 431.329 654.788 429.767 655.729 428.411C656.708 427.017 658.026 425.925 659.683 425.134C661.378 424.344 663.298 423.948 665.445 423.948C667.479 423.948 669.286 424.287 670.868 424.965C672.487 425.643 673.749 426.528 674.653 427.62C675.594 428.674 676.065 429.842 676.065 431.122C676.065 432.064 675.782 432.873 675.217 433.551C674.69 434.229 673.843 434.568 672.676 434.568C671.696 434.568 670.887 434.361 670.247 433.947C669.606 433.495 669.098 433.099 668.721 432.76C668.458 432.497 668.156 432.233 667.818 431.97C667.516 431.706 667.14 431.48 666.688 431.292C666.273 431.103 665.746 431.009 665.106 431.009C664.202 431.009 663.581 431.179 663.242 431.518C662.941 431.857 662.79 432.233 662.79 432.647C662.79 433.212 663.016 433.683 663.468 434.06C663.92 434.399 664.654 434.756 665.671 435.133C666.688 435.509 668.043 436.018 669.738 436.658C671.094 437.148 672.261 437.694 673.24 438.296C674.257 438.861 675.086 439.501 675.726 440.217C676.404 440.895 676.893 441.667 677.195 442.533C677.534 443.361 677.703 444.322 677.703 445.414C677.703 447.372 677.213 449.086 676.234 450.554C675.255 451.985 673.862 453.096 672.054 453.887C670.284 454.64 668.194 455.017 665.784 455.017Z" fill="#53C3F1"/>
<path d="M587.996 348.799C586.6 353.48 584.027 357.069 581.742 360.256C581.337 360.823 580.943 361.373 580.57 361.909C580.054 361.505 579.532 361.093 578.99 360.672C574.485 357.138 569.378 353.138 565.475 347.606L562.595 343.527L562.964 348.505C564.164 364.675 563.784 374.339 562.65 390.399C552.547 390.385 540.816 383.587 532.732 376.825C534.565 372.351 536.069 369.609 538.88 365.682L547.043 374.297L547.371 371.338C548.363 362.397 548.401 315.155 547.831 297.609C560.022 297.484 572.905 299.171 587.142 302.753C587.63 306.09 586.654 310.698 585.928 314.135C585.887 314.328 585.849 314.518 585.808 314.705C576.888 314.245 571.369 312.956 562.121 310.183L559.123 309.284L560.475 312.106C565.025 321.603 581.897 342.448 587.996 348.799H587.996Z" fill="#53C3F1"/>
<path d="M543.869 297.743C543.281 325.506 537.729 339.098 518.893 358.874C514.619 354.099 512.777 351.04 510.613 346.406C521.103 334.053 525.472 326.332 529.863 312.531L530.877 309.343L527.907 310.885C523.737 313.049 521.13 313.768 516.857 314.556C515.761 310.213 515.495 307.33 515.751 302.728C526.99 299.983 535.78 298.424 543.87 297.743L543.869 297.743Z" fill="#53C3F1"/>
<path d="M128.298 182.56C128.587 174.823 125.871 168.468 124.813 166.294C124.549 165.765 124.397 165.484 124.397 165.484C144.877 161.334 124.267 133.174 124.267 133.174C131.968 128.798 129.966 120.15 122.88 110.932L127.123 114.615C132.526 111.394 143.952 102.704 138.037 89.5685C130.738 73.3472 106.264 69.1783 92.2997 84.3795L97.7024 89.0753C90.2672 84.4392 82.3704 80.6997 75.0491 78.6861C67.7188 76.6676 59.0147 75.8482 50.2461 76.0348L57.3089 74.7631C53.0983 54.5619 29.9421 45.6434 15.3593 55.8448C3.54626 64.1045 8.91738 77.4017 11.9216 82.942L17.4561 81.944C6.64942 86.2451 0.495033 92.65 4.8805 100.351C4.8805 100.351 -27.2551 114.005 -11.7914 128.041C-11.7914 128.041 -19.281 132.286 -23.8706 140.729C-27.1625 146.751 -28.9895 154.909 -25.571 165.198C-19.225 184.284 0.199335 192.122 16.6604 195.296C12.5907 197.284 9.07504 200.519 6.7599 204.799C0.842328 215.741 4.9122 229.411 15.8658 235.328C26.8193 241.245 40.4875 237.168 46.41 226.217C51.8185 216.217 48.8823 203.955 39.9846 197.394C41.5139 197.378 42.3719 197.327 42.3719 197.327C42.3719 197.327 89.1205 228.719 117.208 204.448C125.42 197.354 128.037 189.4 128.302 182.551L128.298 182.56Z" fill="#F8D4AE"/>
<path d="M38.581 76.8824C29.3025 78.0331 20.6251 80.257 14.217 83.3676C12.2825 77.0603 10.3919 65.9353 19.5726 62.5215C29.3035 58.8904 35.8707 70.6471 38.581 76.8824Z" fill="#FFF1E6"/>
<path d="M124.908 113.805C121 107.859 114.683 101.5 107.283 95.7829C112.797 91.8154 124.479 85.0749 130.97 93.1655C137.09 100.798 129.792 109.38 124.903 113.814L124.908 113.805Z" fill="#FFF1E6"/>
<path d="M117.211 204.457C89.1218 228.73 42.3704 197.336 42.3704 197.336C42.3704 197.336 -13.8667 200.416 -25.5859 165.199C-29.0046 154.909 -27.1775 146.751 -23.8854 140.728C-13.7613 152.29 0.987799 158.913 17.9549 158.687C31.1446 158.503 42.3318 138.899 57.3222 143.021C72.3127 147.142 71.889 169.706 83.1294 176.609C97.5993 185.478 113.666 187.327 128.292 182.562C128.027 189.412 125.41 197.366 117.197 204.461L117.211 204.457Z" fill="#FFF1E6"/>
<path d="M4.20633 178.867C14.1533 176.327 20.1584 166.21 17.6192 156.27C15.08 146.331 4.95796 140.333 -4.98898 142.873C-14.9359 145.413 -20.9411 155.53 -18.4019 165.469C-15.8626 175.409 -5.74061 181.407 4.20633 178.867Z" fill="#FD9DB4"/>
<path d="M115.702 192.806C118.432 182.914 112.617 172.686 102.716 169.969C92.8207 167.243 82.587 173.058 79.8662 182.955C77.1364 192.847 82.9513 203.075 92.8517 205.792C102.747 208.518 112.981 202.703 115.702 192.806Z" fill="#FD9DB4"/>
<path d="M127.818 167.054C131.387 165.732 133.804 163.47 135.033 160.31C138.417 151.567 131.014 138.867 127.645 133.785C130.711 131.208 132.041 127.646 131.511 123.372C131.231 121.163 130.429 118.753 129.152 116.227C132.202 114.308 136.111 111.298 138.854 107.155C142.662 101.412 143.144 94.9835 140.251 88.5675C136.528 80.3118 128.515 74.4513 118.817 72.8961C108.44 71.232 98.0077 74.7764 90.8154 82.3865C85.6099 79.7266 80.4549 77.6436 75.6897 76.3325C70.9244 75.0214 65.4257 74.1794 59.5945 73.801C57.3065 63.584 50.1613 55.2104 40.3945 51.3379C31.2553 47.7109 21.3667 48.6489 13.9478 53.8446C8.17802 57.873 5.30822 63.655 5.6358 70.5326C5.87746 75.4928 7.68734 80.0839 9.32536 83.2842C6.93269 84.81 5.01028 86.4612 3.63693 88.2218C0.990797 91.6221 0.313823 95.361 1.62464 99.1447C-3.86607 101.792 -16.7479 108.913 -18.3105 118.161C-18.8781 121.503 -17.9531 124.68 -15.5751 127.637C-17.7498 129.257 -20.9419 132.024 -23.7751 135.943C-28.1844 142.062 -32.4893 152.25 -27.9239 165.977C-24.5685 176.081 -17.3406 184.172 -6.6856 189.927C-1.26306 192.856 5.05827 195.183 12.2018 196.855C25.9405 200.067 38.3963 199.919 41.6599 199.811C44.4121 201.578 55.0345 208.065 68.4863 212.326C89.227 218.899 106.617 216.809 118.778 206.305C135.671 191.703 130.495 173.611 127.804 167.058L127.818 167.054ZM118.04 77.7274C126.121 79.0287 132.755 83.8281 135.803 90.585C137.879 95.203 139.382 104.037 126.662 112.029C123.228 106.935 118.117 101.484 111.635 96.1236C106.512 91.883 100.925 88.0465 95.2867 84.8252C101.32 79.0331 109.693 76.3992 118.035 77.7364L118.04 77.7274ZM16.7477 57.8596C22.819 53.6199 30.9836 52.8849 38.5863 55.8924C46.439 59 52.2888 65.5512 54.5032 73.6118C48.0143 73.4979 41.2449 73.9458 34.6689 74.966C26.3528 76.2624 19.177 78.3268 13.6132 80.9578C6.77073 67.5907 12.5886 60.77 16.7429 57.8687L16.7477 57.8596ZM115.604 202.614C104.664 212.07 89.3494 213.784 70.0939 207.71C55.3832 203.073 43.8415 195.388 43.7287 195.315C43.2915 195.021 42.762 194.875 42.2315 194.904C42.0977 194.914 28.2477 195.607 13.2298 192.078C-6.42693 187.459 -18.7089 178.158 -23.2652 164.436C-30.7152 142.005 -11.4212 130.641 -10.5959 130.175C-9.9156 129.782 -9.46065 129.092 -9.3715 128.322C-9.28651 127.538 -9.57515 126.774 -10.1569 126.249C-12.8105 123.845 -13.8993 121.468 -13.4747 118.996C-12.2537 111.785 0.874783 104.727 5.82787 102.62C6.4675 102.345 6.96328 101.818 7.1826 101.153C7.41096 100.493 7.33764 99.7633 6.99295 99.1678C5.36272 96.2992 5.52596 93.7913 7.50915 91.2491C11.433 86.2002 21.8752 81.9243 35.4391 79.8141C49.1697 77.677 63.7377 78.144 74.3955 81.0828C79.4847 82.4871 85.0463 84.8131 90.6408 87.8352C96.7695 91.1457 102.922 95.2764 108.521 99.9141C119.089 108.663 125.868 117.67 126.66 124.014C127.059 127.212 125.914 129.459 123.044 131.089C122.439 131.429 122.015 132.018 121.869 132.699C121.723 133.381 121.875 134.094 122.285 134.655C125.457 138.999 133.124 151.771 130.479 158.587C129.575 160.929 127.428 162.412 123.905 163.128C123.14 163.288 122.493 163.792 122.167 164.504C121.84 165.217 121.873 166.042 122.257 166.717C122.274 166.749 122.405 166.984 122.613 167.4C123.576 169.382 125.837 174.696 125.86 181.293C125.891 189.542 122.442 196.718 115.603 202.637L115.604 202.614Z" fill="#D3A98C"/>
<path d="M88.6081 168.383C87.4767 172.508 83.2041 174.936 79.0826 173.797C74.9562 172.668 72.5282 168.397 73.6686 164.277C74.8091 160.157 79.0727 157.724 83.1942 158.863C87.3206 159.993 89.7486 164.263 88.6081 168.383Z" fill="#5F5C5D"/>
<path d="M32.4012 152.927C31.2698 157.052 26.9972 159.48 22.8757 158.341C18.7493 157.211 16.3213 152.941 17.4617 148.821C18.5931 144.696 22.8658 142.268 26.9873 143.407C31.1137 144.537 33.5417 148.807 32.4012 152.927Z" fill="#5F5C5D"/>
<path d="M65.6617 161.492C65.6617 161.492 63.0608 169.805 58.1555 175.306C57.7874 175.727 57.3971 176.124 56.9838 176.521C54.1053 179.269 50.5401 180.887 46.3234 179.556C42.517 178.354 40.5237 175.464 39.5921 172.061C39.439 171.522 39.3236 170.957 39.2221 170.388C37.9352 162.84 40.8715 153.691 40.8715 153.691C40.6894 156.644 42.5246 159.437 45.4693 160.372C48.9336 161.472 52.6471 159.537 53.7481 156.074C52.6471 159.537 54.5728 163.243 58.0462 164.348C60.9957 165.275 64.1023 164.029 65.6519 161.51L65.6617 161.492Z" fill="#5F5C5D"/>
<path d="M56.9901 176.511C54.1115 179.26 50.5462 180.877 46.3294 179.547C42.523 178.344 40.5296 175.455 39.598 172.051C42.4807 169.317 46.0558 167.681 50.2635 169.007C54.0791 170.214 56.0683 173.09 56.9852 176.52L56.9901 176.511Z" fill="#E27FA3"/>
<path d="M43.3647 180.94C41.2645 179.805 39.6245 178.101 38.4533 175.854C34.0211 167.309 38.3588 153.514 38.5431 152.935L43.2014 154.423C42.1012 157.863 39.9012 168.029 42.7981 173.617C43.7436 175.438 45.1335 176.609 47.0618 177.218C48.99 177.827 50.8095 177.664 52.6269 176.704C58.2324 173.78 62.2505 164.21 63.3187 160.764L67.9827 162.219C67.7984 162.798 63.4196 176.582 54.8826 181.034C51.8946 182.6 48.7639 182.874 45.5775 181.866C44.7889 181.615 44.0436 181.306 43.3556 180.935L43.3647 180.94Z" fill="#F8D4AE"/>
<path d="M66.9393 159.411C65.7876 158.708 64.2842 159.065 63.5705 160.211C62.5744 161.837 60.6033 162.561 58.7843 161.988C56.6463 161.313 55.4429 159.06 56.0363 156.925L56.9854 153.462L52.2701 152.166L51.3995 155.333C51.0666 156.381 50.3437 157.242 49.3558 157.749C48.3679 158.256 47.2455 158.363 46.188 158.026C44.369 157.452 43.1766 155.721 43.2879 153.828C43.3725 152.482 42.3366 151.326 40.9901 151.242C39.6435 151.157 38.4867 152.193 38.4022 153.539C38.1869 157.095 40.0758 160.372 43.1176 162.016C43.6155 162.285 44.147 162.513 44.7078 162.688C47.0054 163.414 49.4621 163.197 51.6067 162.087C51.6912 162.039 51.7847 161.996 51.8691 161.948C52.9137 164.126 54.8191 165.881 57.2992 166.659C61.2563 167.908 65.5437 166.318 67.7155 162.778C68.4201 161.627 68.0631 160.124 66.9163 159.411L66.9393 159.411Z" fill="#D3A98C"/>
<path d="M60.0806 150.96C59.2315 149.437 57.31 148.902 55.7863 149.751L55.4158 149.961L55.2066 149.59C54.3575 148.068 52.436 147.532 50.9123 148.382C49.3885 149.231 48.8527 151.152 49.7018 152.674L50.4335 153.982C51.8448 156.498 55.03 157.4 57.548 155.989L58.8562 155.257C60.3799 154.408 60.9158 152.487 60.0666 150.964L60.0806 150.96Z" fill="#E27FA3"/>
<path d="M82.3687 288.417C111.153 279.833 127.53 249.559 118.949 220.796C110.368 192.034 80.0777 175.675 51.2938 184.259C22.5098 192.842 6.13214 223.117 14.7132 251.879C23.2943 280.642 53.5847 297 82.3687 288.417Z" fill="#B5F6F8"/>
<path d="M121.254 219.98C116.902 205.49 107.177 193.56 93.8608 186.367C93.8608 186.367 93.8155 186.342 93.7974 186.332L93.7612 186.313C93.7069 186.283 93.6435 186.249 93.5892 186.22C80.2608 179.114 64.9711 177.602 50.4882 181.952C35.9495 186.319 23.9866 196.088 16.7942 209.452C1.97291 237.007 12.2933 271.455 39.8133 286.32C39.8495 286.34 39.8857 286.359 39.9219 286.379C67.5214 301.206 102.039 290.827 116.889 263.24C124.081 249.877 125.628 234.516 121.263 219.985L121.254 219.98ZM81.6805 272.041C86.5642 266.926 91.0355 260.887 94.8562 254.168L111.361 263.037C105.484 272.843 96.7897 280.051 86.8906 284.188C85.6322 279.918 83.8702 275.844 81.6854 272.032L81.6805 272.041ZM15.8299 246.013C13.824 235.469 15.0491 224.249 19.9885 213.949L36.4929 222.817C33.003 229.703 30.4188 236.773 28.8491 243.655C24.4659 243.93 20.0894 244.712 15.8299 246.013ZM51.9845 200.641C47.1008 205.756 42.6295 211.795 38.8088 218.514L22.2953 209.64C28.0217 200.069 36.5316 192.726 46.757 188.462C48.0245 192.736 49.7816 196.819 51.9754 200.636L51.9845 200.641ZM117.863 226.661C119.946 237.539 118.502 248.687 113.677 258.733L97.1631 249.86C100.653 242.975 103.237 235.904 104.812 229.013C109.209 228.734 113.585 227.952 117.859 226.647L117.863 226.661ZM92.8623 247.56L70.1429 235.346L76.5229 223.485C83.8416 227.017 91.7793 228.908 99.7848 229.116C98.282 235.204 95.9641 241.436 92.8672 247.551L92.8623 247.56ZM78.8388 219.181L93.4887 191.942C98.6259 195.875 101.537 203.166 101.735 212.815C101.815 216.472 101.489 220.319 100.802 224.251C93.2567 224.186 85.746 222.48 78.8388 219.181ZM89.1929 189.634L74.5429 216.872C67.9832 212.931 62.4164 207.609 58.1964 201.353C61.1069 198.61 64.1304 196.221 67.232 194.271C75.4 189.118 83.0859 187.516 89.2019 189.639L89.1929 189.634ZM72.2131 221.18L65.8331 233.041L43.1137 220.827C46.5044 214.882 50.4295 209.507 54.6892 204.896C59.2725 211.454 65.2321 217.023 72.2131 221.18ZM40.7978 225.131L63.5172 237.345L57.1422 249.197C49.8234 245.665 41.8857 243.774 33.8803 243.566C35.3831 237.478 37.7009 231.246 40.7978 225.131ZM54.8262 253.501L40.1763 280.739C35.0392 276.807 32.1278 269.516 31.9305 259.867C31.8497 256.21 32.1706 252.372 32.8633 248.431C40.4083 248.496 47.919 250.202 54.8262 253.501ZM44.4812 283.053L59.1312 255.815C65.6908 259.756 71.2577 265.078 75.4777 271.334C72.5672 274.076 69.5436 276.466 66.4421 278.416C58.274 283.569 50.5882 285.171 44.4721 283.048L44.4812 283.053ZM61.452 251.502L67.827 239.65L90.5464 251.864C87.1557 257.809 83.2306 263.184 78.9709 267.795C74.3876 261.237 68.4281 255.668 61.4471 251.511L61.452 251.502ZM116.717 221.902C113.14 223.022 109.471 223.73 105.786 224.055C106.408 220.157 106.695 216.36 106.624 212.708C106.527 208.388 105.944 204.448 104.891 200.967C110.242 206.71 114.246 213.645 116.568 221.377C116.618 221.545 116.663 221.721 116.713 221.888L116.717 221.902ZM75.3672 185.112C71.8804 186.152 68.267 187.837 64.6107 190.142C61.5231 192.088 58.5101 194.436 55.5976 197.096C53.837 193.841 52.4141 190.395 51.3692 186.79C51.5366 186.74 51.7089 186.681 51.8762 186.631C59.6177 184.299 67.6132 183.812 75.3582 185.107L75.3672 185.112ZM16.971 250.78C20.543 249.669 24.2035 248.957 27.8794 248.627C27.2621 252.515 26.9697 256.322 27.0464 259.965C27.1386 264.271 27.7174 268.197 28.7666 271.664C23.194 265.66 19.1972 258.473 16.9759 250.771L16.971 250.78ZM58.3347 287.566C61.8125 286.521 65.4071 284.85 69.0494 282.549C72.137 280.603 75.1451 278.264 78.0486 275.599C79.805 278.84 81.2279 282.286 82.2686 285.877C74.6128 288.267 66.41 288.9 58.3257 287.561L58.3347 287.566Z" fill="#95E0E8"/>
<path d="M113.884 239.257L38.6072 198.593L19.7723 233.419L95.0494 274.083L113.884 239.257Z" fill="white"/>
<path d="M93.8981 276.233L18.6213 235.569C17.4353 234.929 16.9855 233.446 17.6316 232.251L36.4664 197.426C37.1076 196.24 38.591 195.79 39.786 196.435L115.063 237.099C116.249 237.74 116.699 239.223 116.053 240.417L97.2177 275.243C96.5765 276.429 95.0932 276.879 93.8981 276.233ZM23.0919 232.429L94.0685 270.77L110.573 240.252L39.5968 201.912L23.0919 232.429Z" fill="#E2E2E2"/>
<path d="M18.0672 197.459C-7.53698 202.408 -23.0383 224.322 -11.225 232.305C0.579241 240.284 30.8461 253.079 30.9355 237.059C31.0249 221.04 5.86511 217.576 5.86511 217.576L18.0672 197.459Z" fill="#F8D4AE"/>
<path d="M-12.5977 234.324C-16.7534 231.517 -18.4542 227.114 -17.3999 221.942C-16.302 216.559 -12.1579 210.671 -6.04724 205.774C0.47455 200.55 9.97072 195.19 18.6953 193.507C20.0159 193.249 21.3004 194.119 21.5574 195.439C21.8145 196.759 20.9445 198.043 19.6239 198.3C6.4049 200.853 -10.3618 211.957 -12.6054 222.918C-13.2654 226.128 -12.3454 228.601 -9.85709 230.273C0.14882 237.034 19.6593 244.931 26.3009 241.432C27.2329 240.942 28.485 239.946 28.4998 237.042C28.574 223.365 5.76788 220.026 5.53861 219.996C4.19997 219.811 3.26809 218.571 3.44879 217.242C3.63439 215.904 4.86621 214.967 6.20486 215.152C6.47523 215.193 12.9203 216.102 19.4602 219.085C28.6139 223.27 33.4294 229.484 33.3893 237.064C33.3597 242.158 30.7626 244.602 28.5846 245.753C18.1911 251.236 -5.23735 239.294 -12.5837 234.319L-12.5977 234.324Z" fill="#D3A98C"/>
<path d="M123.865 202.115C129.568 208.376 131.989 215.449 125.738 221.147C119.486 226.844 109.77 226.403 104.068 220.141C98.3653 213.88 98.8142 204.183 105.08 198.481C111.345 192.779 118.163 195.854 123.87 202.106L123.865 202.115Z" fill="#F8D4AE"/>
<path d="M106.959 225.48C105.221 224.541 103.63 223.308 102.261 221.796C95.6592 214.558 96.186 203.289 103.429 196.689C106.963 193.464 111.074 192.352 115.293 193.461C118.759 194.363 122.252 196.729 125.663 200.478C129.084 204.232 131.111 207.924 131.694 211.454C132.403 215.766 130.908 219.741 127.374 222.966C123.864 226.169 119.317 227.806 114.572 227.582C111.86 227.449 109.268 226.727 106.95 225.476L106.959 225.48ZM116.45 199.15C115.636 198.71 114.84 198.386 114.059 198.186C111.438 197.495 109.04 198.188 106.716 200.3C101.461 205.086 101.079 213.253 105.866 218.505C108.188 221.046 111.359 222.536 114.793 222.696C118.228 222.856 121.526 221.667 124.078 219.35C126.388 217.241 127.305 214.919 126.866 212.249C126.445 209.695 124.776 206.77 122.044 203.774C120.158 201.703 118.251 200.146 116.432 199.163L116.45 199.15Z" fill="#D3A98C"/>
<path d="M42.1309 234.935C41.6525 234.686 41.3325 234.327 41.1711 233.858C41.034 233.382 41.0898 232.904 41.3386 232.426L48.4914 218.67C48.8066 218.064 49.2024 217.692 49.679 217.555C50.1715 217.426 50.625 217.47 51.0397 217.685C51.4544 217.901 51.7233 218.183 51.8464 218.53C51.9778 218.862 52.0483 219.233 52.0579 219.643L53.4274 234.427L52.3174 235.217L58.1239 223.466C58.3567 222.979 58.7034 222.663 59.164 222.518C59.6489 222.365 60.1305 222.412 60.609 222.661C61.0874 222.91 61.3953 223.273 61.5324 223.749C61.6938 224.218 61.6501 224.692 61.4013 225.17L54.1614 239.094C53.9292 239.54 53.5665 239.848 53.0734 240.017C52.5886 240.17 52.1149 240.126 51.6524 239.886C51.3334 239.72 51.0836 239.499 50.9031 239.223C50.7225 238.947 50.6144 238.668 50.5787 238.386L48.9307 222.91L50.2225 222.822L44.64 234.143C44.4071 234.629 44.0483 234.949 43.5634 235.102C43.1028 235.248 42.6253 235.192 42.1309 234.935ZM60.463 244.467C59.9845 244.219 59.6646 243.86 59.5032 243.391C59.366 242.914 59.4219 242.437 59.6707 241.958L66.7862 228.274C67.0267 227.812 67.3894 227.504 67.8742 227.351C68.359 227.198 68.8327 227.241 69.2952 227.482L70.9459 228.34L62.9721 243.675C62.7233 244.154 62.3564 244.469 61.8716 244.622C61.411 244.768 60.9415 244.716 60.463 244.467ZM68.279 230.722L69.8215 227.756L76.4483 231.201C76.8789 231.425 77.1593 231.743 77.2894 232.155C77.4355 232.576 77.3925 233.009 77.1602 233.456C76.9363 233.887 76.6062 234.171 76.1698 234.309C75.7577 234.439 75.3364 234.392 74.9057 234.168L68.279 230.722ZM64.6954 237.672L66.2504 234.682L72.3986 237.879C72.8293 238.103 73.1055 238.429 73.2273 238.857C73.3651 239.293 73.3221 239.727 73.0982 240.157C72.8743 240.588 72.5441 240.872 72.1078 241.01C71.6957 241.14 71.2743 241.093 70.8437 240.869L64.6954 237.672ZM80.7373 237.443C80.2907 237.211 79.9947 236.865 79.8493 236.404C79.7038 235.944 79.7472 235.49 79.9794 235.043C80.2199 234.581 80.5663 234.285 81.0186 234.155C81.4792 234.01 81.9328 234.053 82.3794 234.286L92.6185 239.61C93.081 239.85 93.377 240.197 93.5065 240.649C93.6603 241.094 93.6169 241.547 93.3764 242.01C93.1442 242.456 92.7978 242.752 92.3372 242.898C91.8925 243.051 91.4389 243.008 90.9764 242.768L80.7373 237.443ZM78.6667 253.933C78.1882 253.684 77.8763 253.33 77.7308 252.869C77.5936 252.392 77.6495 251.915 77.8983 251.436L85.0262 237.728L88.3037 239.433L81.1757 253.141C80.9269 253.619 80.5601 253.935 80.0753 254.088C79.6147 254.234 79.1452 254.182 78.6667 253.933Z" fill="#DD528B"/>
</g>
<defs>
<filter id="filter0_d_1134_3372" x="90" y="582" width="26" height="26" filterUnits="userSpaceOnUse" color-interpolation-filters="sRGB">
<feFlood flood-opacity="0" result="BackgroundImageFix"/>
<feColorMatrix in="SourceAlpha" type="matrix" values="0 0 0 0 0 0 0 0 0 0 0 0 0 0 0 0 0 0 127 0" result="hardAlpha"/>
<feOffset dy="4"/>
<feGaussianBlur stdDeviation="2"/>
<feComposite in2="hardAlpha" operator="out"/>
<feColorMatrix type="matrix" values="0 0 0 0 0 0 0 0 0 0 0 0 0 0 0 0 0 0 0.16 0"/>
<feBlend mode="normal" in2="BackgroundImageFix" result="effect1_dropShadow_1134_3372"/>
<feBlend mode="normal" in="SourceGraphic" in2="effect1_dropShadow_1134_3372" result="shape"/>
</filter>
<filter id="filter1_d_1134_3372" x="620" y="506" width="25" height="25" filterUnits="userSpaceOnUse" color-interpolation-filters="sRGB">
<feFlood flood-opacity="0" result="BackgroundImageFix"/>
<feColorMatrix in="SourceAlpha" type="matrix" values="0 0 0 0 0 0 0 0 0 0 0 0 0 0 0 0 0 0 127 0" result="hardAlpha"/>
<feOffset dy="4"/>
<feGaussianBlur stdDeviation="2"/>
<feComposite in2="hardAlpha" operator="out"/>
<feColorMatrix type="matrix" values="0 0 0 0 0 0 0 0 0 0 0 0 0 0 0 0 0 0 0.25 0"/>
<feBlend mode="normal" in2="BackgroundImageFix" result="effect1_dropShadow_1134_3372"/>
<feBlend mode="normal" in="SourceGraphic" in2="effect1_dropShadow_1134_3372" result="shape"/>
</filter>
<filter id="filter2_d_1134_3372" x="211.403" y="132.303" width="20" height="20" filterUnits="userSpaceOnUse" color-interpolation-filters="sRGB">
<feFlood flood-opacity="0" result="BackgroundImageFix"/>
<feColorMatrix in="SourceAlpha" type="matrix" values="0 0 0 0 0 0 0 0 0 0 0 0 0 0 0 0 0 0 127 0" result="hardAlpha"/>
<feOffset dy="4"/>
<feGaussianBlur stdDeviation="2"/>
<feComposite in2="hardAlpha" operator="out"/>
<feColorMatrix type="matrix" values="0 0 0 0 0 0 0 0 0 0 0 0 0 0 0 0 0 0 0.16 0"/>
<feBlend mode="normal" in2="BackgroundImageFix" result="effect1_dropShadow_1134_3372"/>
<feBlend mode="normal" in="SourceGraphic" in2="effect1_dropShadow_1134_3372" result="shape"/>
</filter>
<filter id="filter3_d_1134_3372" x="598.504" y="168.28" width="23.3342" height="35.5296" filterUnits="userSpaceOnUse" color-interpolation-filters="sRGB">
<feFlood flood-opacity="0" result="BackgroundImageFix"/>
<feColorMatrix in="SourceAlpha" type="matrix" values="0 0 0 0 0 0 0 0 0 0 0 0 0 0 0 0 0 0 127 0" result="hardAlpha"/>
<feOffset dy="4"/>
<feGaussianBlur stdDeviation="2"/>
<feComposite in2="hardAlpha" operator="out"/>
<feColorMatrix type="matrix" values="0 0 0 0 0 0 0 0 0 0 0 0 0 0 0 0 0 0 0.16 0"/>
<feBlend mode="normal" in2="BackgroundImageFix" result="effect1_dropShadow_1134_3372"/>
<feBlend mode="normal" in="SourceGraphic" in2="effect1_dropShadow_1134_3372" result="shape"/>
</filter>
<filter id="filter4_d_1134_3372" x="138.277" y="438.413" width="26.0984" height="40.9187" filterUnits="userSpaceOnUse" color-interpolation-filters="sRGB">
<feFlood flood-opacity="0" result="BackgroundImageFix"/>
<feColorMatrix in="SourceAlpha" type="matrix" values="0 0 0 0 0 0 0 0 0 0 0 0 0 0 0 0 0 0 127 0" result="hardAlpha"/>
<feOffset dy="4"/>
<feGaussianBlur stdDeviation="2"/>
<feComposite in2="hardAlpha" operator="out"/>
<feColorMatrix type="matrix" values="0 0 0 0 0 0 0 0 0 0 0 0 0 0 0 0 0 0 0.16 0"/>
<feBlend mode="normal" in2="BackgroundImageFix" result="effect1_dropShadow_1134_3372"/>
<feBlend mode="normal" in="SourceGraphic" in2="effect1_dropShadow_1134_3372" result="shape"/>
</filter>
<filter id="filter5_d_1134_3372" x="668.423" y="543.156" width="29.2244" height="33.3638" filterUnits="userSpaceOnUse" color-interpolation-filters="sRGB">
<feFlood flood-opacity="0" result="BackgroundImageFix"/>
<feColorMatrix in="SourceAlpha" type="matrix" values="0 0 0 0 0 0 0 0 0 0 0 0 0 0 0 0 0 0 127 0" result="hardAlpha"/>
<feOffset dy="4"/>
<feGaussianBlur stdDeviation="2"/>
<feComposite in2="hardAlpha" operator="out"/>
<feColorMatrix type="matrix" values="0 0 0 0 0 0 0 0 0 0 0 0 0 0 0 0 0 0 0.16 0"/>
<feBlend mode="normal" in2="BackgroundImageFix" result="effect1_dropShadow_1134_3372"/>
<feBlend mode="normal" in="SourceGraphic" in2="effect1_dropShadow_1134_3372" result="shape"/>
</filter>
<linearGradient id="paint0_linear_1134_3372" x1="805.385" y1="2.7159e-05" x2="23.6148" y2="879" gradientUnits="userSpaceOnUse">
<stop stop-color="#D4F9F8"/>
<stop offset="1" stop-color="#DAF4B5"/>
</linearGradient>
<linearGradient id="paint1_linear_1134_3372" x1="805.385" y1="2.7159e-05" x2="23.6148" y2="879" gradientUnits="userSpaceOnUse">
<stop stop-color="#D4F9F8"/>
<stop offset="1" stop-color="#DAF4B5"/>
</linearGradient>
<linearGradient id="paint2_linear_1134_3372" x1="805.385" y1="2.7159e-05" x2="23.6148" y2="879" gradientUnits="userSpaceOnUse">
<stop stop-color="#D4F9F8"/>
<stop offset="1" stop-color="#DAF4B5"/>
</linearGradient>
<linearGradient id="paint3_linear_1134_3372" x1="805.385" y1="2.7159e-05" x2="23.6148" y2="879" gradientUnits="userSpaceOnUse">
<stop stop-color="#D4F9F8"/>
<stop offset="1" stop-color="#DAF4B5"/>
</linearGradient>
<linearGradient id="paint4_linear_1134_3372" x1="805.385" y1="2.7159e-05" x2="23.6148" y2="879" gradientUnits="userSpaceOnUse">
<stop stop-color="#D4F9F8"/>
<stop offset="1" stop-color="#DAF4B5"/>
</linearGradient>
<linearGradient id="paint5_linear_1134_3372" x1="805.385" y1="2.7159e-05" x2="23.6148" y2="879" gradientUnits="userSpaceOnUse">
<stop stop-color="#D4F9F8"/>
<stop offset="1" stop-color="#DAF4B5"/>
</linearGradient>
<clipPath id="clip0_1134_3372">
<rect width="829" height="879" fill="white"/>
</clipPath>
</defs>
</svg>
