<svg width="405" height="405" viewBox="0 0 405 405" fill="none" xmlns="http://www.w3.org/2000/svg">
<path d="M45.3234 405C20.292 405 -9.88477e-07 382.386 -2.20783e-06 354.491C-3.42717e-06 326.595 20.292 303.982 45.3234 303.982L359.677 303.982C384.708 303.982 405 326.595 405 354.491C405 382.386 384.708 405 359.677 405L45.3234 405Z" fill="url(#paint0_linear_1145_98)"/>
<path d="M45.3234 303.982C20.292 303.982 -5.40413e-06 281.368 -6.62348e-06 253.473C-7.84282e-06 225.577 20.292 202.963 45.3234 202.963L359.677 202.963C384.708 202.963 405 225.577 405 253.473C405 281.368 384.708 303.982 359.677 303.982L45.3234 303.982Z" fill="url(#paint1_linear_1145_98)"/>
<path d="M45.7392 202.963C20.4781 202.963 -9.82885e-06 180.142 -1.10594e-05 151.991C-1.22899e-05 123.84 20.4781 101.018 45.7392 101.018L359.261 101.018C384.522 101.018 405 123.839 405 151.991C405 180.142 384.522 202.963 359.261 202.963L45.7392 202.963Z" fill="url(#paint2_linear_1145_98)"/>
<path d="M45.3234 101.018C20.292 101.018 -1.42759e-05 78.4046 -1.54953e-05 50.5092C-1.67146e-05 22.6137 20.292 -8.86991e-07 45.3234 -1.98115e-06L359.677 -1.5722e-05C384.708 -1.68161e-05 405 22.6137 405 50.5091C405 78.4046 384.708 101.018 359.677 101.018L45.3234 101.018Z" fill="url(#paint3_linear_1145_98)"/>
<g filter="url(#filter0_d_1145_98)">
<circle cx="258.5" cy="185.235" r="2.5" fill="white"/>
</g>
<g filter="url(#filter1_d_1145_98)">
<ellipse cx="207" cy="362.5" rx="4" ry="3.5" fill="white"/>
</g>
<g filter="url(#filter2_d_1145_98)">
<path d="M78.1571 26.1761C78.3156 27.7192 78.2091 31.8895 75.5446 33.9997C76.8012 33.9154 79.4178 37.0521 80.1159 40.2155C80.0623 38.4445 80.7954 34.5908 83.2634 33.8474C81.9921 33.7945 78.8752 29.8303 78.1571 26.1761Z" fill="white"/>
</g>
<g filter="url(#filter3_d_1145_98)">
<path d="M327.639 95.5939C328.097 93.4418 328.582 87.5445 325.146 84.1628C326.905 84.4731 331.073 80.4481 332.539 76.0933C332.194 78.5826 332.641 84.1289 336.008 85.5531C334.207 85.4341 329.208 90.5499 327.639 95.5939Z" fill="white"/>
</g>
<g filter="url(#filter4_d_1145_98)">
<path d="M132.157 169.176C132.316 170.719 132.209 174.889 129.545 177C130.801 176.915 133.418 180.052 134.116 183.215C134.062 181.445 134.795 177.591 137.263 176.847C135.992 176.795 132.875 172.83 132.157 169.176Z" fill="white"/>
</g>
<g filter="url(#filter5_d_1145_98)">
<path d="M49.1571 317.176C49.3156 318.719 49.2091 322.889 46.5446 325C47.8012 324.915 50.4178 328.052 51.1159 331.215C51.0623 329.445 51.7954 325.591 54.2634 324.847C52.9921 324.795 49.8752 320.83 49.1571 317.176Z" fill="white"/>
</g>
<g filter="url(#filter6_d_1145_98)">
<path d="M355.99 261.154C356.057 262.663 355.372 266.097 352.091 267.762C353.569 267.855 356.668 268.826 357.243 271.971C357.315 270.257 358.197 266.736 361.143 266.36C359.659 266.134 356.551 264.775 355.99 261.154Z" fill="white"/>
</g>
<defs>
<filter id="filter0_d_1145_98" x="252" y="182.735" width="13" height="13" filterUnits="userSpaceOnUse" color-interpolation-filters="sRGB">
<feFlood flood-opacity="0" result="BackgroundImageFix"/>
<feColorMatrix in="SourceAlpha" type="matrix" values="0 0 0 0 0 0 0 0 0 0 0 0 0 0 0 0 0 0 127 0" result="hardAlpha"/>
<feOffset dy="4"/>
<feGaussianBlur stdDeviation="2"/>
<feComposite in2="hardAlpha" operator="out"/>
<feColorMatrix type="matrix" values="0 0 0 0 0 0 0 0 0 0 0 0 0 0 0 0 0 0 0.16 0"/>
<feBlend mode="normal" in2="BackgroundImageFix" result="effect1_dropShadow_1145_98"/>
<feBlend mode="normal" in="SourceGraphic" in2="effect1_dropShadow_1145_98" result="shape"/>
</filter>
<filter id="filter1_d_1145_98" x="199" y="359" width="16" height="15" filterUnits="userSpaceOnUse" color-interpolation-filters="sRGB">
<feFlood flood-opacity="0" result="BackgroundImageFix"/>
<feColorMatrix in="SourceAlpha" type="matrix" values="0 0 0 0 0 0 0 0 0 0 0 0 0 0 0 0 0 0 127 0" result="hardAlpha"/>
<feOffset dy="4"/>
<feGaussianBlur stdDeviation="2"/>
<feComposite in2="hardAlpha" operator="out"/>
<feColorMatrix type="matrix" values="0 0 0 0 0 0 0 0 0 0 0 0 0 0 0 0 0 0 0.16 0"/>
<feBlend mode="normal" in2="BackgroundImageFix" result="effect1_dropShadow_1145_98"/>
<feBlend mode="normal" in="SourceGraphic" in2="effect1_dropShadow_1145_98" result="shape"/>
</filter>
<filter id="filter2_d_1145_98" x="71.5446" y="26.1761" width="15.7188" height="22.0394" filterUnits="userSpaceOnUse" color-interpolation-filters="sRGB">
<feFlood flood-opacity="0" result="BackgroundImageFix"/>
<feColorMatrix in="SourceAlpha" type="matrix" values="0 0 0 0 0 0 0 0 0 0 0 0 0 0 0 0 0 0 127 0" result="hardAlpha"/>
<feOffset dy="4"/>
<feGaussianBlur stdDeviation="2"/>
<feComposite in2="hardAlpha" operator="out"/>
<feColorMatrix type="matrix" values="0 0 0 0 0 0 0 0 0 0 0 0 0 0 0 0 0 0 0.16 0"/>
<feBlend mode="normal" in2="BackgroundImageFix" result="effect1_dropShadow_1145_98"/>
<feBlend mode="normal" in="SourceGraphic" in2="effect1_dropShadow_1145_98" result="shape"/>
</filter>
<filter id="filter3_d_1145_98" x="321.146" y="76.0933" width="18.862" height="27.5005" filterUnits="userSpaceOnUse" color-interpolation-filters="sRGB">
<feFlood flood-opacity="0" result="BackgroundImageFix"/>
<feColorMatrix in="SourceAlpha" type="matrix" values="0 0 0 0 0 0 0 0 0 0 0 0 0 0 0 0 0 0 127 0" result="hardAlpha"/>
<feOffset dy="4"/>
<feGaussianBlur stdDeviation="2"/>
<feComposite in2="hardAlpha" operator="out"/>
<feColorMatrix type="matrix" values="0 0 0 0 0 0 0 0 0 0 0 0 0 0 0 0 0 0 0.16 0"/>
<feBlend mode="normal" in2="BackgroundImageFix" result="effect1_dropShadow_1145_98"/>
<feBlend mode="normal" in="SourceGraphic" in2="effect1_dropShadow_1145_98" result="shape"/>
</filter>
<filter id="filter4_d_1145_98" x="125.545" y="169.176" width="15.7188" height="22.0394" filterUnits="userSpaceOnUse" color-interpolation-filters="sRGB">
<feFlood flood-opacity="0" result="BackgroundImageFix"/>
<feColorMatrix in="SourceAlpha" type="matrix" values="0 0 0 0 0 0 0 0 0 0 0 0 0 0 0 0 0 0 127 0" result="hardAlpha"/>
<feOffset dy="4"/>
<feGaussianBlur stdDeviation="2"/>
<feComposite in2="hardAlpha" operator="out"/>
<feColorMatrix type="matrix" values="0 0 0 0 0 0 0 0 0 0 0 0 0 0 0 0 0 0 0.16 0"/>
<feBlend mode="normal" in2="BackgroundImageFix" result="effect1_dropShadow_1145_98"/>
<feBlend mode="normal" in="SourceGraphic" in2="effect1_dropShadow_1145_98" result="shape"/>
</filter>
<filter id="filter5_d_1145_98" x="42.5446" y="317.176" width="15.7188" height="22.0394" filterUnits="userSpaceOnUse" color-interpolation-filters="sRGB">
<feFlood flood-opacity="0" result="BackgroundImageFix"/>
<feColorMatrix in="SourceAlpha" type="matrix" values="0 0 0 0 0 0 0 0 0 0 0 0 0 0 0 0 0 0 127 0" result="hardAlpha"/>
<feOffset dy="4"/>
<feGaussianBlur stdDeviation="2"/>
<feComposite in2="hardAlpha" operator="out"/>
<feColorMatrix type="matrix" values="0 0 0 0 0 0 0 0 0 0 0 0 0 0 0 0 0 0 0.16 0"/>
<feBlend mode="normal" in2="BackgroundImageFix" result="effect1_dropShadow_1145_98"/>
<feBlend mode="normal" in="SourceGraphic" in2="effect1_dropShadow_1145_98" result="shape"/>
</filter>
<filter id="filter6_d_1145_98" x="348.091" y="261.154" width="17.052" height="18.8174" filterUnits="userSpaceOnUse" color-interpolation-filters="sRGB">
<feFlood flood-opacity="0" result="BackgroundImageFix"/>
<feColorMatrix in="SourceAlpha" type="matrix" values="0 0 0 0 0 0 0 0 0 0 0 0 0 0 0 0 0 0 127 0" result="hardAlpha"/>
<feOffset dy="4"/>
<feGaussianBlur stdDeviation="2"/>
<feComposite in2="hardAlpha" operator="out"/>
<feColorMatrix type="matrix" values="0 0 0 0 0 0 0 0 0 0 0 0 0 0 0 0 0 0 0.16 0"/>
<feBlend mode="normal" in2="BackgroundImageFix" result="effect1_dropShadow_1145_98"/>
<feBlend mode="normal" in="SourceGraphic" in2="effect1_dropShadow_1145_98" result="shape"/>
</filter>
<linearGradient id="paint0_linear_1145_98" x1="0.348422" y1="-11.2764" x2="359.972" y2="395.483" gradientUnits="userSpaceOnUse">
<stop stop-color="#F8D2CF"/>
<stop offset="1" stop-color="#F8A39B"/>
</linearGradient>
<linearGradient id="paint1_linear_1145_98" x1="0.348422" y1="-11.2764" x2="359.972" y2="395.483" gradientUnits="userSpaceOnUse">
<stop stop-color="#F8D2CF"/>
<stop offset="1" stop-color="#F8A39B"/>
</linearGradient>
<linearGradient id="paint2_linear_1145_98" x1="0.348422" y1="-11.2764" x2="359.972" y2="395.483" gradientUnits="userSpaceOnUse">
<stop stop-color="#F8D2CF"/>
<stop offset="1" stop-color="#F8A39B"/>
</linearGradient>
<linearGradient id="paint3_linear_1145_98" x1="0.348422" y1="-11.2764" x2="359.972" y2="395.483" gradientUnits="userSpaceOnUse">
<stop stop-color="#F8D2CF"/>
<stop offset="1" stop-color="#F8A39B"/>
</linearGradient>
</defs>
</svg>
