<svg width="304" height="335" viewBox="0 0 304 335" fill="none" xmlns="http://www.w3.org/2000/svg">
<path d="M286.048 183.45C285.383 182.709 285.005 182.331 285.005 182.331C316.137 166.576 270.459 130.363 270.459 130.363C280.922 119.9 273.846 106.867 258.363 95.1488L266.846 99.2161C274.118 91.6258 288.664 72.5746 273.317 54.0526C254.387 31.1761 213.124 35.2887 197.399 65.9521L208.195 71.1231C194.164 66.9349 179.8 64.425 167.099 64.425C154.398 64.425 140.049 66.95 126.018 71.1231L136.814 65.9521C121.089 35.2887 79.8415 31.1761 60.8961 54.0526C45.5493 72.5746 60.0948 91.6258 67.3826 99.2161L75.8347 95.1639C60.3518 106.867 53.2908 119.9 63.7538 130.363C63.7538 130.363 18.0612 166.576 49.1933 182.331C49.1933 182.331 19.3313 212.147 43.4779 248.269C58.734 271.07 84.695 277.934 108.902 278.494C108.116 281.518 107.708 284.633 107.708 287.838C107.708 313.603 134.304 334.483 167.114 334.483C199.925 334.483 226.521 313.603 226.521 287.838C226.521 284.633 226.112 281.518 225.326 278.494C249.533 277.934 275.494 271.07 290.735 248.269C312.16 216.245 291.113 189.18 286.063 183.45H286.048Z" fill="#F8D4AE"/>
<path d="M262.93 98.8532C253.994 91.0059 241.036 83.5669 226.581 77.6096C233.718 68.7795 249.503 52.7674 263.534 62.913C276.78 72.4688 268.826 89.5544 262.93 98.8381V98.8532Z" fill="#FFF1E6"/>
<path d="M269.461 101.726L264.215 96.7062C282.752 77.3677 276.114 63.1398 270.52 56.366C262.536 46.7194 249.563 41.8659 235.835 43.3628C220.715 45.0109 207.545 54.0678 200.62 67.585L194.164 64.2738C202.208 48.5792 217.494 38.0557 235.048 36.1354C251.212 34.3664 266.573 40.1876 276.114 51.7242C283.508 60.645 285.549 71.0626 282.011 81.8583C279.229 90.3558 273.65 97.3563 269.461 101.726Z" fill="#D3A98C"/>
<path d="M167.099 159.696C190.399 159.696 198.745 195.228 217.721 201.201C246.721 210.303 266.15 201.201 285.02 182.331C285.02 182.331 314.882 212.147 290.735 248.269C256.277 299.798 167.099 269.936 167.099 269.936C167.099 269.936 77.9212 299.798 43.4628 248.269C19.3161 212.147 49.1781 182.331 49.1781 182.331C68.0479 201.201 87.4771 210.303 116.477 201.201C135.468 195.228 143.814 159.696 167.099 159.696Z" fill="#FFF1E6"/>
<path d="M82.0944 243.37C99.2297 243.37 113.121 229.479 113.121 212.344C113.121 195.209 99.2297 181.318 82.0944 181.318C64.9591 181.318 51.0681 195.209 51.0681 212.344C51.0681 229.479 64.9591 243.37 82.0944 243.37Z" fill="#FD9DB4"/>
<path d="M252.089 243.37C269.224 243.37 283.115 229.479 283.115 212.344C283.115 195.209 269.224 181.318 252.089 181.318C234.953 181.318 221.062 195.209 221.062 212.344C221.062 229.479 234.953 243.37 252.089 243.37Z" fill="#FD9DB4"/>
<path d="M221.773 282.168C217.358 282.168 213.079 281.972 208.997 281.654C207.001 281.503 205.504 279.749 205.655 277.753C205.806 275.757 207.56 274.26 209.556 274.412C235.26 276.422 269.673 273.187 287.681 246.258C296.148 233.588 298.537 220.373 294.787 206.976C291.794 196.271 285.761 188.636 283.296 185.854C282.767 185.264 282.449 184.931 282.404 184.901C281.588 184.07 281.21 182.905 281.391 181.756C281.573 180.607 282.298 179.624 283.326 179.095C288.815 176.313 291.703 172.85 292.141 168.511C293.396 156.128 275.267 138.83 268.176 133.206C267.36 132.556 266.861 131.603 266.8 130.575C266.74 129.547 267.133 128.534 267.859 127.793C271.896 123.756 272.773 119.477 270.641 114.321C266.513 104.342 251.514 92.7447 230.512 83.2947C209.299 73.7389 185.576 68.0386 167.039 68.0386C148.501 68.0386 124.778 73.7389 103.58 83.2947C82.5933 92.7447 67.5943 104.342 63.4665 114.321C61.3346 119.477 62.2116 123.771 66.2486 127.793C66.9744 128.519 67.3675 129.532 67.307 130.575C67.2465 131.603 66.7476 132.571 65.9311 133.206C58.8398 138.83 40.6958 156.158 41.9508 168.511C42.3892 172.85 45.2772 176.313 50.7506 179.08C51.7939 179.609 52.5197 180.592 52.7011 181.741C52.8825 182.89 52.5045 184.054 51.688 184.886C51.6276 184.946 44.5968 192.098 40.5295 203.257C35.177 217.908 37.1577 232.363 46.4414 246.243C56.2392 260.879 77.4525 277.662 122.994 274.517C124.99 274.381 126.729 275.893 126.865 277.889C127.001 279.885 125.489 281.624 123.493 281.76C96.4432 283.635 60.0797 279.688 40.4085 250.28C27.0727 230.337 29.4767 212.193 33.8162 200.475C36.7041 192.688 40.7865 186.716 43.5535 183.223C38.2766 179.549 35.3131 174.861 34.7385 169.237C33.9221 161.117 38.2615 151.562 47.6359 140.826C51.7485 136.124 55.9065 132.268 58.5677 129.925C54.6516 124.451 54.0165 118.161 56.7684 111.524C61.6673 99.6999 77.6491 86.9991 100.616 76.657C122.722 66.7081 147.549 60.7659 167.054 60.7659C186.558 60.7659 211.401 66.7081 233.506 76.657C256.473 86.9991 272.455 99.715 277.354 111.524C280.106 118.161 279.471 124.451 275.555 129.925C278.216 132.253 282.374 136.124 286.471 140.826C295.846 151.562 300.185 161.117 299.369 169.237C298.794 174.861 295.846 179.564 290.554 183.238C297.585 192.174 314.549 219.118 293.699 250.28C276.689 275.727 247.19 282.153 221.743 282.153L221.773 282.168Z" fill="#D3A98C"/>
<path d="M107.647 186.186C106.71 186.186 105.787 185.838 105.077 185.128C103.656 183.706 103.656 181.408 105.077 179.987C105.591 179.473 117.959 167.362 137.222 169.675C139.218 169.917 140.639 171.716 140.397 173.712C140.155 175.708 138.356 177.114 136.36 176.887C120.575 174.997 110.308 185.022 110.203 185.128C109.492 185.838 108.57 186.186 107.632 186.186H107.647Z" fill="#5F5C5D"/>
<path d="M226.536 186.186C225.613 186.186 224.691 185.839 223.981 185.128C223.527 184.689 213.457 174.998 197.823 176.872C195.827 177.099 194.028 175.693 193.786 173.697C193.544 171.701 194.965 169.902 196.961 169.66C216.224 167.347 228.592 179.458 229.106 179.972C230.527 181.393 230.527 183.692 229.106 185.113C228.396 185.823 227.473 186.171 226.536 186.171V186.186Z" fill="#5F5C5D"/>
<path d="M191.306 210.983C185.727 215.67 177.668 219.254 167.114 219.435C156.56 219.254 148.501 215.701 142.922 210.983C133.079 202.697 130.977 190.843 136.768 187.729C144.555 181.635 153.37 190.662 167.129 190.405C180.858 190.662 189.673 181.635 197.49 187.729C203.266 190.843 201.149 202.682 191.336 210.983H191.306Z" fill="#5F5C5D"/>
<path d="M191.306 210.983C185.727 215.67 177.668 219.254 167.114 219.435C156.56 219.254 148.501 215.701 142.922 210.983C148.501 206.251 156.56 202.697 167.114 202.516C177.668 202.697 185.727 206.266 191.306 210.983Z" fill="#E27FA3"/>
<path d="M167.114 223.064C167.114 223.064 167.069 223.064 167.054 223.064C154.005 222.837 145.462 217.878 140.579 213.765C133.502 207.808 129.783 201.896 129.541 196.211C129.36 192.144 130.932 188.424 134.198 185.158L139.339 190.299C137.555 192.083 136.723 193.928 136.799 195.893C136.95 199.416 139.883 203.665 145.266 208.201C149.242 211.558 156.258 215.595 167.129 215.791C177.97 215.595 185.001 211.558 188.993 208.201C194.36 203.665 197.279 199.386 197.415 195.848C197.49 193.867 196.674 192.053 194.92 190.299L200.061 185.158C203.251 188.348 204.854 192.144 204.687 196.15C204.445 201.851 200.756 207.778 193.68 213.75C188.766 217.878 180.193 222.837 167.205 223.049C167.19 223.049 167.16 223.049 167.144 223.049L167.114 223.064Z" fill="#F8D4AE"/>
<path d="M199.698 184.871C193.68 180.184 187.284 182.195 181.085 184.145C177.819 185.173 174.462 186.217 170.743 186.625V176.646H163.485V186.64C159.751 186.247 156.379 185.188 153.113 184.16C146.929 182.21 140.518 180.199 134.531 184.901C132.958 186.141 132.671 188.424 133.911 189.997C135.15 191.569 137.434 191.856 139.006 190.616C141.864 188.379 144.903 189.195 150.951 191.085C155.184 192.416 160.431 194.064 166.57 194.064C166.751 194.064 166.948 194.064 167.129 194.064C173.525 194.17 178.923 192.461 183.293 191.085C189.174 189.241 192.395 188.379 195.252 190.616C196.84 191.856 199.108 191.569 200.348 189.981C201.588 188.394 201.3 186.126 199.713 184.886L199.698 184.871Z" fill="#D3A98C"/>
<path d="M175.052 169.6C173.011 167.528 169.685 167.513 167.613 169.554L167.114 170.053L166.615 169.554C164.574 167.483 161.248 167.468 159.176 169.509C157.105 171.55 157.09 174.877 159.131 176.948L160.885 178.717C164.272 182.149 169.806 182.18 173.223 178.793L174.992 177.039C177.063 174.998 177.078 171.671 175.037 169.6H175.052Z" fill="#E27FA3"/>
<path d="M129.949 297.984C122.858 314.978 109.628 325.623 100.39 321.767C91.1512 317.912 89.4125 301.023 96.5038 284.028C103.595 267.033 116.825 256.388 126.063 260.244C135.302 264.1 137.04 280.989 129.949 297.984Z" fill="#F8D4AE"/>
<path d="M204.234 297.984C211.325 314.978 224.555 325.623 233.793 321.767C243.032 317.912 244.771 301.023 237.679 284.028C230.588 267.033 217.358 256.388 208.12 260.244C198.881 264.1 197.143 280.989 204.234 297.984Z" fill="#F8D4AE"/>
<path d="M209.254 255.738L184.502 262.285C184.502 262.285 173.827 250.053 178.696 243.521C183.58 236.99 197.445 245.23 209.254 255.723V255.738Z" fill="#F8D4AE"/>
<path d="M216.451 262.376L223.693 275.44C227.927 283.075 225.16 292.661 217.554 296.895L211.763 300.1C204.143 304.334 194.557 301.582 190.323 293.962L183.791 282.213C179.331 283.257 175.097 282.954 173.192 279.114C169.987 272.612 178.756 265.249 189.204 259.458L194.995 256.252C202.616 252.019 212.232 254.771 216.451 262.376Z" fill="#F8D4AE"/>
<path d="M241.021 282.637C235.336 269.029 225.825 258.914 216.481 256.419C214.939 254.861 213.17 253.591 211.249 252.639C204.234 246.455 191.563 236.687 182.521 237.625C179.709 237.912 177.381 239.197 175.778 241.344C171 247.755 175.899 256.676 179.255 261.454C171.892 266.882 166.434 273.64 169.911 280.717C171.197 283.347 173.389 285.147 176.231 285.918C177.32 286.22 178.484 286.341 179.679 286.341C180.389 286.341 181.115 286.296 181.841 286.205L187.118 295.716C190.626 302.036 197.173 305.634 203.931 305.695C210.947 318.411 220.956 326.167 229.787 326.167C231.646 326.167 233.461 325.82 235.184 325.109C246.434 320.407 248.989 301.748 241.006 282.622L241.021 282.637ZM181.599 245.699C181.871 245.336 182.279 244.958 183.262 244.852C186.347 244.534 191.639 246.923 197.808 251.248C196.25 251.656 194.708 252.261 193.241 253.077L187.541 256.237C187.541 256.237 187.481 256.268 187.435 256.283C186.74 256.661 186.044 257.069 185.349 257.477C182.612 253.591 179.83 248.073 181.599 245.699ZM193.483 292.208L189.129 284.345C194.648 282.274 199.35 279.28 200.212 278.721C201.89 277.617 202.359 275.379 201.255 273.701C200.151 272.023 197.914 271.554 196.235 272.642C191.215 275.924 182.279 280.036 178.167 278.902C177.32 278.675 176.836 278.267 176.458 277.496C174.856 274.245 180.556 268.394 190.989 262.618L196.78 259.412C202.631 256.162 210.04 258.279 213.291 264.13L220.533 277.194C223.784 283.045 221.667 290.469 215.801 293.72L210.01 296.94C204.143 300.191 196.734 298.074 193.483 292.208ZM232.402 318.426C226.717 320.8 217.872 314.585 211.506 304.258C212.187 303.971 212.867 303.654 213.533 303.291L219.323 300.07C228.683 294.884 232.07 283.045 226.883 273.686L225.356 270.934C228.819 274.79 231.994 279.824 234.338 285.449C239.751 298.407 240.295 315.145 232.417 318.441L232.402 318.426Z" fill="#D3A98C"/>
<path d="M123.296 255.738L148.048 262.285C148.048 262.285 158.723 250.053 153.854 243.521C148.97 236.99 135.105 245.23 123.296 255.723V255.738Z" fill="#F8D4AE"/>
<path d="M116.099 262.376L108.857 275.44C104.623 283.075 107.39 292.661 114.996 296.895L120.787 300.1C128.407 304.334 137.993 301.582 142.227 293.962L148.759 282.213C153.219 283.257 157.452 282.954 159.358 279.114C162.563 272.612 153.793 265.249 143.346 259.458L137.555 256.252C129.934 252.019 120.318 254.771 116.099 262.376Z" fill="#F8D4AE"/>
<path d="M153.279 261.469C156.651 256.691 161.55 247.77 156.757 241.359C155.154 239.212 152.826 237.927 150.013 237.64C140.987 236.717 128.301 246.485 121.285 252.654C119.048 253.758 117.006 255.285 115.313 257.22C106.725 260.682 98.303 270.299 93.1471 282.637C85.1638 301.764 87.719 320.422 98.9834 325.124C100.707 325.835 102.506 326.182 104.381 326.182C113.226 326.182 123.281 318.396 130.297 305.619C136.436 305.014 142.196 301.522 145.417 295.731L150.694 286.22C151.42 286.311 152.145 286.356 152.856 286.356C154.05 286.356 155.215 286.22 156.303 285.933C159.146 285.162 161.323 283.362 162.624 280.732C166.101 273.655 160.643 266.897 153.279 261.469ZM149.288 244.852C150.271 244.958 150.679 245.336 150.951 245.699C152.72 248.072 149.938 253.606 147.201 257.477C146.506 257.069 145.81 256.661 145.115 256.283C145.084 256.267 145.054 256.252 145.009 256.237L139.308 253.077C137.842 252.261 136.3 251.656 134.742 251.248C140.911 246.923 146.203 244.534 149.288 244.852ZM101.796 318.426C93.9182 315.13 94.4475 298.407 99.8604 285.434C101.1 282.455 102.582 279.658 104.185 277.103C101.372 285.751 104.971 295.504 113.226 300.07L119.017 303.291C120.106 303.895 121.225 304.379 122.374 304.757C116.039 314.782 107.375 320.754 101.781 318.426H101.796ZM156.107 277.526C155.729 278.297 155.23 278.69 154.398 278.932C150.286 280.066 141.35 275.954 136.33 272.673C134.652 271.569 132.399 272.038 131.31 273.716C130.206 275.394 130.675 277.647 132.353 278.736C133.215 279.295 137.902 282.289 143.436 284.36L139.082 292.208C135.831 298.059 128.422 300.191 122.556 296.94L116.765 293.72C110.913 290.469 108.781 283.06 112.032 277.194L119.274 264.13C122.525 258.278 129.934 256.162 135.786 259.412L141.576 262.633C152.009 268.424 157.71 274.26 156.107 277.511V277.526Z" fill="#D3A98C"/>
<path d="M43.493 4.4288H104.623C126.351 4.4288 143.95 22.0436 143.95 43.7559V64.047C143.95 82.327 131.476 97.7041 114.572 102.104C120.363 110.677 126.29 122.425 117.899 125.616C107.239 129.668 84.1205 116.589 72.5537 103.374H43.493C21.7656 103.374 4.16589 85.7593 4.16589 64.047V43.7559C4.16589 22.0285 21.7807 4.4288 43.493 4.4288Z" fill="white"/>
<path d="M43.8711 61.2347L62.4686 79.8625C68.8644 86.2734 79.2518 86.2734 85.6325 79.8625L104.23 61.2347C107.934 57.4093 109.779 52.4499 109.779 47.5057C109.779 42.5614 107.768 37.1938 103.776 33.3231C95.9443 25.748 83.4552 25.9294 75.8649 33.7616L74.0354 35.6516L72.1908 33.7616C68.3201 29.7699 63.1793 27.759 58.0233 27.759C52.8674 27.759 48.1198 29.6187 44.2944 33.3231C36.4622 40.8982 36.2657 53.3874 43.8408 61.2347H43.8711Z" fill="#E27FA3"/>
<path d="M113.317 130C100.027 130 81.036 117.859 70.9358 107.018H43.493C19.8 107.018 0.537109 87.74 0.537109 64.0621V43.771C0.537109 20.078 19.8151 0.815125 43.493 0.815125H104.623C128.316 0.815125 147.579 20.0931 147.579 43.771V64.0621C147.579 81.949 136.526 97.7948 120.167 104.13C124.99 112.174 126.638 118.343 125.201 122.909C124.294 125.767 122.223 127.884 119.184 129.033C117.415 129.698 115.434 130.016 113.317 130.016V130ZM43.493 8.0576C23.8068 8.0576 7.79469 24.0697 7.79469 43.7559V64.047C7.79469 83.7332 23.8068 99.7453 43.493 99.7453H72.5537C73.597 99.7453 74.5949 100.199 75.2904 100.985C86.8572 114.2 108.479 125.313 116.613 122.214C117.808 121.76 118.125 121.185 118.277 120.686C118.609 119.628 119.123 115.289 111.563 104.13C110.898 103.147 110.762 101.923 111.17 100.819C111.578 99.715 112.516 98.8834 113.65 98.581C129.344 94.4835 140.306 80.2858 140.306 64.0318V43.7408C140.306 24.0546 124.294 8.04249 104.608 8.04249H43.4779L43.493 8.0576Z" fill="#E2E2E2"/>
</svg>
