<svg width="335" height="274" viewBox="0 0 335 274" fill="none" xmlns="http://www.w3.org/2000/svg">
<path d="M317.387 128.789C316.948 128.292 316.646 127.975 316.51 127.839L316.464 127.794H316.449C344.587 113.574 303.31 80.9255 303.31 80.9255C311.792 72.4656 307.528 62.1358 296.461 52.4846C302.69 44.0398 308.723 30.4829 297.7 17.2125C281.507 -2.30103 247.245 -0.00887251 231.565 23.712C224.051 22.2643 216.702 21.465 209.868 21.465C199.662 21.465 188.232 23.2747 176.907 26.3359C162.089 0.187169 125.967 -2.97963 109.184 17.2276C95.304 33.9211 108.458 51.0972 115.036 57.9436L120.025 55.5609C111.467 64.3073 108.852 73.3553 116.442 80.9255C116.442 80.9255 75.1491 113.574 103.287 127.779C103.287 127.779 103.076 127.99 102.713 128.397C101.292 129.966 97.5267 134.399 94.3968 140.899C90.6622 148.65 87.8196 159.341 90.9646 171.556C92.2347 176.548 94.5178 181.811 98.1315 187.224C112.148 208.125 131.955 214.172 149.509 214.489C149.041 216.766 148.799 219.104 148.799 221.486C148.799 247.499 177.466 268.596 212.847 268.596C248.228 268.596 276.895 247.514 276.895 221.486C276.895 219.465 276.729 217.475 276.381 215.514C293.573 211.79 309.902 203.435 321.605 187.224C341.957 159.025 321.953 133.947 317.387 128.789Z" fill="#F8D4AE"/>
<path d="M149.555 36.2586C136.355 42.366 125.045 49.7702 118.392 57.3253C113.07 48.8805 106.19 33.7402 118.014 25.2351C129.596 16.8808 142.478 28.1757 149.555 36.2586Z" fill="#FFF1E6"/>
<path d="M321.62 187.224C281.855 242.281 189.063 206.753 189.063 206.753C189.063 206.753 129.294 233.671 98.1315 187.224C85.6575 168.601 89.1351 151.847 94.3969 140.914C106.886 148.318 120.827 150.429 138.85 144.804C156.011 139.421 163.541 107.391 184.603 107.391C205.665 107.391 213.482 138.606 230.356 144.804C290.806 166.972 299.394 144.804 316.449 127.794C316.449 127.794 316.479 127.839 316.495 127.854C316.631 127.99 316.933 128.307 317.372 128.804C321.938 133.962 341.957 159.04 321.59 187.239L321.62 187.224Z" fill="#FFF1E6"/>
<path d="M135.841 154.817C135.841 170.274 124.682 182.806 110.923 182.806C102.758 182.806 95.5005 178.387 90.9645 171.571C87.8347 159.372 90.6621 148.68 94.3967 140.914C97.5266 134.414 101.276 129.981 102.713 128.412C105.283 127.402 108.05 126.859 110.923 126.859C124.697 126.859 135.841 139.391 135.841 154.833V154.817Z" fill="#FD9DB4"/>
<path d="M266.052 182.463C281.331 179.916 291.646 165.498 289.092 150.261C286.538 135.023 272.082 124.735 256.804 127.282C241.525 129.829 231.21 144.247 233.764 159.485C236.318 174.723 250.774 185.01 266.052 182.463Z" fill="#FD9DB4"/>
<path d="M228.768 136.827C235.223 136.827 240.456 131.061 240.456 123.949C240.456 116.836 235.223 111.07 228.768 111.07C222.313 111.07 217.08 116.836 217.08 123.949C217.08 131.061 222.313 136.827 228.768 136.827Z" fill="#5F5C5D"/>
<path d="M140.437 136.827C146.892 136.827 152.125 131.061 152.125 123.949C152.125 116.836 146.892 111.07 140.437 111.07C133.982 111.07 128.749 116.836 128.749 123.949C128.749 131.061 133.982 136.827 140.437 136.827Z" fill="#5F5C5D"/>
<path d="M275.943 53.2235L258.313 44.8089C253.006 42.2755 251.902 35.1879 256.211 31.1917C263.499 24.4509 273.584 18.5848 282.837 25.2501C291.456 31.448 290.14 41.1595 286.738 49.2424C284.984 53.4045 280.025 55.1689 275.943 53.2235Z" fill="#FFF1E6"/>
<path d="M332.34 148.363C329.77 139.526 325.098 132.574 322.013 128.669C326.685 125.336 329.301 121.099 329.815 116.017C330.571 108.597 326.625 99.8961 318.082 90.1393C314.484 86.0225 310.84 82.6144 308.42 80.4881C310.537 77.4269 311.55 74.0942 311.429 70.5203C311.233 64.5184 307.8 58.2753 301.254 51.9568C303.083 49.1217 304.761 45.9097 305.895 42.4262C309.131 32.579 307.256 23.0786 300.498 14.9354C291.788 4.45478 277.802 -0.838303 263.076 0.760177C249.694 2.22294 237.75 9.15974 229.932 19.7459C222.826 18.4943 216.098 17.8458 209.883 17.8458C200.479 17.8458 189.683 19.384 178.645 22.1587C170.738 9.92882 157.553 1.96658 142.856 0.654617C128.508 -0.612103 114.869 4.71114 106.387 14.9203C99.6283 23.0635 97.7535 32.5639 100.989 42.4111C103.408 49.8003 108.171 55.9228 111.906 59.919C111.089 61.231 110.394 62.5279 109.865 63.8247C107.37 69.8266 107.899 75.5117 111.346 80.4881C108.927 82.6144 105.283 86.0225 101.67 90.1393C93.1267 99.8961 89.1653 108.597 89.9213 116.017C90.4354 121.084 93.0511 125.336 97.7383 128.669C95.2284 131.881 91.6601 137.174 89.1199 144.02C85.1585 154.652 82.9812 171.134 95.1074 189.23C110.364 211.986 132 218.138 150.946 218.138C155.95 218.138 160.758 217.716 165.219 217.038C167.2 216.736 168.576 214.896 168.273 212.921C167.971 210.945 166.126 209.588 164.145 209.875C144.882 212.755 118.317 210.81 101.14 185.204C81.2877 155.571 104.845 131.353 105.843 130.343C106.674 129.528 107.052 128.352 106.856 127.206C106.674 126.06 105.948 125.065 104.905 124.552C100.067 122.109 97.5266 119.078 97.1335 115.293C96.0146 104.315 112.314 88.8123 118.68 83.7756C119.496 83.1271 119.995 82.1771 120.055 81.1517C120.116 80.1262 119.723 79.1159 118.997 78.3769C115.459 74.8482 114.688 71.1084 116.563 66.6145C120.267 57.7023 133.754 47.3121 152.639 38.8221C171.766 30.2265 193.161 25.0993 209.853 25.0993C214.812 25.0993 220.15 25.5366 225.775 26.4113C224.928 28.1756 225.638 30.2868 227.392 31.1916C229.176 32.0964 231.369 31.4027 232.276 29.6233C238.49 17.5442 250.284 9.44626 263.832 7.96842C276.124 6.6263 287.736 10.9543 294.873 19.5649C299.862 25.5668 305.759 38.234 289.188 55.4704C287.797 56.9181 287.842 59.2103 289.294 60.5976C290.004 61.2762 290.896 61.608 291.804 61.608C292.756 61.608 293.709 61.231 294.419 60.4921C295.175 59.7079 295.992 58.8182 296.823 57.838C301.48 62.5128 304.005 66.9463 304.126 70.7917C304.217 73.5212 303.098 76.0094 300.709 78.392C299.983 79.1159 299.59 80.1262 299.651 81.1667C299.711 82.1922 300.21 83.1573 301.012 83.7907C307.377 88.8425 323.661 104.33 322.542 115.308C322.165 119.093 319.609 122.124 314.771 124.567C313.728 125.095 313.017 126.075 312.835 127.221C312.654 128.367 313.032 129.528 313.848 130.358C313.879 130.388 314.166 130.689 314.635 131.202C320.184 137.475 336.861 159.884 318.642 185.128C303.945 205.486 279.859 215.334 247.124 214.368C245.113 214.323 243.45 215.891 243.389 217.882C243.329 219.888 244.901 221.546 246.912 221.607C248.394 221.652 249.861 221.667 251.312 221.667C265.147 221.667 277.681 219.707 288.628 215.831C303.597 210.538 315.678 201.626 324.553 189.351C333.731 176.653 336.423 162.478 332.325 148.378L332.34 148.363ZM149.676 32.202C135.024 38.7769 123.518 46.4224 116.412 54.1132C101.397 37.5554 107.113 25.4009 111.966 19.5499C118.921 11.1805 130.216 6.80726 142.191 7.87794C153.879 8.91846 164.418 14.9203 171.222 24.1945C163.934 26.3811 156.646 29.0653 149.66 32.202H149.676Z" fill="#D3A98C"/>
<path d="M204.561 154.44C204.561 157.275 204.183 160.005 203.488 162.538C200.796 172.371 193.372 179.428 184.618 179.428C183.983 179.428 183.348 179.398 182.743 179.307C172.613 178.131 164.675 167.455 164.675 154.44C164.675 140.627 173.61 134.294 184.618 134.294C195.625 134.294 204.561 140.642 204.561 154.44Z" fill="#5F5C5D"/>
<path d="M203.488 162.538C200.796 172.371 193.372 179.428 184.618 179.428C183.983 179.428 183.348 179.398 182.743 179.307C182.456 178.84 182.184 178.327 181.896 177.815C175.274 165.69 175.122 153.038 181.518 149.57C187.43 146.388 196.865 152.103 203.488 162.554V162.538Z" fill="#E27FA3"/>
<path d="M184.633 183.062C171.63 183.062 161.061 170.229 161.061 154.44C161.061 151.605 161.409 148.951 162.074 146.523L169.075 148.469C168.576 150.263 168.319 152.269 168.319 154.44C168.319 166.233 175.637 175.809 184.633 175.809C193.629 175.809 200.947 166.218 200.947 154.44C200.947 152.269 200.69 150.248 200.191 148.469L207.192 146.523C207.872 148.951 208.205 151.605 208.205 154.44C208.205 170.214 197.636 183.062 184.633 183.062Z" fill="#F8D4AE"/>
<path d="M207.192 146.524C204.728 137.687 197.772 132.017 188.262 130.886V122.727H181.004V130.886C171.509 132.032 164.554 137.687 162.074 146.524C161.53 148.454 162.664 150.444 164.599 150.987C166.534 151.515 168.53 150.399 169.075 148.469C171.645 139.27 179.931 137.898 184.633 137.898C189.335 137.898 197.621 139.27 200.192 148.469C200.645 150.067 202.097 151.123 203.684 151.123C204.002 151.123 204.334 151.078 204.667 150.987C206.602 150.444 207.721 148.454 207.192 146.524Z" fill="#D3A98C"/>
<path d="M177.451 116.394C179.296 114.524 182.305 114.509 184.179 116.348L184.633 116.801L185.071 116.348C186.916 114.478 189.925 114.463 191.8 116.303C193.675 118.143 193.69 121.144 191.845 123.014L190.258 124.612C187.203 127.704 182.199 127.734 179.099 124.688L177.496 123.104C175.621 121.264 175.606 118.264 177.451 116.394Z" fill="#E27FA3"/>
<path d="M112.949 221.486C123.079 211.76 144.414 203.074 164.417 200.088C173.293 198.761 179.961 191.356 180.127 182.429C180.172 180.499 179.9 178.629 179.371 176.864C177.436 170.455 172.023 165.464 165.128 164.167C145.26 160.427 124.274 150.912 114.506 140.808L112.949 221.501V221.486Z" fill="#95A1B3"/>
<path d="M126.08 181.39C126.666 151.221 110.193 126.437 89.2874 126.033C68.3816 125.629 50.9589 149.758 50.3728 179.927C49.7868 210.095 66.2592 234.879 87.165 235.283C108.071 235.687 125.494 211.558 126.08 181.39Z" fill="white"/>
<path d="M115.459 224.095L110.424 218.877C120.872 208.849 142.856 199.65 163.873 196.514C171.04 195.443 176.347 189.486 176.483 182.354C176.619 175.221 171.554 169.068 164.433 167.726C143.552 163.775 121.945 153.732 111.891 143.311L117.122 138.29C126.239 147.73 146.243 156.914 165.793 160.608C176.408 162.614 183.953 171.813 183.756 182.489C183.544 193.166 175.652 202.063 164.962 203.662C145.291 206.602 124.939 215.002 115.459 224.08V224.095Z" fill="#70838E"/>
<path d="M87.6834 238.904C87.4869 238.904 87.2903 238.904 87.0938 238.904C75.7538 238.677 65.3058 232.238 57.6854 220.762C50.337 209.694 46.4512 195.172 46.7385 179.85C47.0409 164.529 51.4862 150.158 59.2579 139.391C67.3168 128.216 77.9915 122.199 89.3466 122.396C100.687 122.622 111.135 129.061 118.755 140.537C126.103 151.605 129.989 166.128 129.702 181.449C129.4 196.77 124.954 211.141 117.183 221.908C109.26 232.887 98.8117 238.904 87.6834 238.904ZM88.757 129.649C70.0838 129.649 54.5404 152.103 53.9961 180.001C53.4518 208.125 68.3601 231.303 87.2298 231.665C106.13 232.027 121.885 209.437 122.429 181.328C122.701 167.47 119.239 154.41 112.692 144.563C106.417 135.123 98.0709 129.845 89.1954 129.664C89.0442 129.664 88.893 129.664 88.7418 129.664L88.757 129.649Z" fill="#E2E2E2"/>
<path d="M76.0108 197.946L104.104 198.489L107.128 181.856L104.24 161.724L76.9634 161.211C76.8727 161.196 76.797 161.211 76.7214 161.196C70.235 161.076 64.822 169.204 64.6104 179.353C64.4138 189.517 69.5092 197.841 76.0108 197.961V197.946Z" fill="#95A1B3"/>
<path d="M104.179 194.885L87.5777 194.568C90.0725 190.738 91.6298 185.611 91.7508 179.88C91.7961 177.875 90.1934 176.231 88.1976 176.186C86.2017 176.126 84.5386 177.739 84.4932 179.73C84.3269 188.431 79.9421 194.433 76.0865 194.327C72.246 194.252 68.088 188.114 68.2543 179.413C68.4206 170.772 72.7601 164.816 76.5854 164.816C76.6157 164.816 76.6459 164.816 76.661 164.816L104.179 165.343C104.179 165.343 104.225 165.343 104.255 165.343C106.221 165.343 106.326 158.135 104.331 158.105L76.9332 157.577C76.9332 157.577 76.8576 157.577 76.8122 157.577C76.7366 157.577 76.661 157.577 76.5854 157.577C68.0577 157.577 61.2386 167.047 60.9967 179.277C60.7548 191.613 67.332 201.4 75.9504 201.581L104.058 202.123C104.058 202.123 104.104 202.123 104.134 202.123C106.1 202.123 106.206 194.915 104.21 194.885H104.179Z" fill="#70838E"/>
<path d="M87.638 220.054C87.638 220.054 87.517 220.054 87.4414 220.054C85.4305 220.008 83.8429 218.365 83.8883 216.359C83.9336 214.353 85.5666 212.77 87.5926 212.815C87.6078 212.815 87.6229 212.815 87.6531 212.815C91.4634 212.815 99.6131 205.456 102.501 190.587C102.516 190.482 102.546 190.376 102.577 190.271C103.151 187.3 103.469 184.163 103.529 180.951C103.59 177.799 103.393 174.633 102.924 171.556C102.894 171.466 102.879 171.36 102.864 171.255C101.881 164.906 99.8247 159.281 96.9519 154.968C94.8956 151.862 91.6902 148.544 88.8476 148.484C86.8367 148.439 85.2491 146.795 85.2944 144.789C85.3398 142.814 86.9576 141.245 88.9232 141.245C88.9535 141.245 88.9686 141.245 88.9988 141.245C95.6818 141.381 100.656 147.398 103.015 150.972C106.417 156.084 108.836 162.599 110.001 169.852C110.031 169.958 110.046 170.063 110.061 170.169C110.62 173.743 110.862 177.422 110.802 181.087C110.726 184.827 110.348 188.476 109.668 191.929C109.653 192.05 109.623 192.156 109.592 192.261C107.627 202.093 103.801 208.442 100.929 212.061C96.8763 217.143 92.0682 220.038 87.6683 220.038L87.638 220.054Z" fill="#E2E2E2"/>
<path d="M154.847 192.849C144.172 191.703 138.532 198.414 136.188 208.11C131.456 213.463 127.494 221.139 125.317 230.082C120.675 249.173 125.922 266.832 137.035 269.531C148.148 272.215 160.925 258.93 165.582 239.823C166.066 237.833 166.444 235.857 166.716 233.912C171.418 230.202 174.684 224.698 175.379 218.289C176.755 205.622 167.578 194.221 154.862 192.849H154.847Z" fill="#F8D4AE"/>
<path d="M173.217 199.047C168.742 193.483 162.346 189.999 155.24 189.23C148.088 188.461 142.116 190.738 137.958 195.82C135.705 198.58 134.011 202.123 132.877 206.391C127.857 212.317 123.941 220.37 121.779 229.207C119.39 239.054 119.39 248.917 121.779 256.969C124.38 265.716 129.49 271.416 136.173 273.03C137.428 273.331 138.698 273.482 139.984 273.482C145.518 273.482 151.203 270.677 156.343 265.339C162.165 259.277 166.701 250.515 169.105 240.668C169.513 239.009 169.83 237.38 170.088 235.797C175.107 231.379 178.252 225.347 178.978 218.666C179.749 211.579 177.708 204.612 173.217 199.047ZM151.097 260.332C146.636 264.977 141.949 266.982 137.867 266.002C133.8 265.022 130.549 261.086 128.719 254.918C126.693 248.072 126.723 239.552 128.81 230.926C129.49 228.121 130.382 225.422 131.426 222.858C131.773 226.417 132.62 229.539 133.981 232.208C136.944 238.059 142.297 241.573 149.449 242.342C150.432 242.447 151.414 242.508 152.382 242.508C155.527 242.508 158.596 241.95 161.515 240.894C159.322 248.721 155.663 255.567 151.082 260.332H151.097ZM171.751 217.882C171.191 223.054 168.636 227.684 164.584 230.956C160.517 234.214 155.436 235.691 150.25 235.133C145.533 234.621 142.342 232.6 140.483 228.936C138.714 225.452 138.139 220.4 138.804 214.323C139.47 208.246 141.118 203.435 143.597 200.404C145.835 197.675 148.768 196.333 152.548 196.333C153.168 196.333 153.803 196.363 154.469 196.438C159.655 196.996 164.297 199.545 167.578 203.586C170.844 207.643 172.34 212.71 171.766 217.882H171.751Z" fill="#D3A98C"/>
<path d="M284.743 127.719C272.48 124.099 259.613 131.066 255.984 143.296C253.187 152.691 256.68 162.463 264.028 168.118C257.784 184.661 246.413 210.523 231.702 225.196L265.313 249.203C265.313 249.203 291.849 196.725 294.737 154.742C298.366 142.512 297.005 131.338 284.758 127.719H284.743Z" fill="#F8D4AE"/>
<path d="M285.771 124.235C271.618 120.058 256.68 128.141 252.492 142.256C250.465 149.102 251.221 156.31 254.639 162.584C255.999 165.072 257.708 167.289 259.719 169.204C253.943 184.163 242.981 208.819 229.131 222.632C227.71 224.05 227.71 226.342 229.131 227.759C229.842 228.468 230.764 228.815 231.702 228.815C232.639 228.815 233.561 228.468 234.272 227.759C242.089 219.963 253.762 204.28 265.827 173.547C267.324 174.331 268.912 174.964 270.575 175.462C272.783 176.11 274.914 176.442 276.971 176.442C281.325 176.442 285.302 174.979 288.704 172.114C281.537 208.759 262.304 247.122 262.078 247.574C261.17 249.354 261.896 251.541 263.68 252.445C264.21 252.702 264.769 252.837 265.313 252.837C266.644 252.837 267.914 252.114 268.564 250.847C268.836 250.304 275.368 237.35 282.338 219.013C291.683 194.493 297.05 173.094 298.335 155.406C302.992 139.33 298.426 127.99 285.801 124.265L285.771 124.235ZM284.032 166.55C280.902 169.219 277.167 169.852 272.616 168.51C267.612 167.032 263.499 163.7 261.004 159.13C258.524 154.561 257.965 149.298 259.447 144.322C261.957 135.877 269.743 130.388 278.165 130.388C279.995 130.388 281.855 130.644 283.699 131.187C292.378 133.751 294.903 141.336 291.229 153.717C289.49 159.583 286.995 164.016 284.017 166.55H284.032Z" fill="#D3A98C"/>
<path d="M48.7192 129.649C51.3048 126.738 51.3652 122.38 48.8402 119.41L30.8172 98.2071C27.7327 94.5879 22.1534 94.5125 18.9782 98.0714L13.7618 103.938C10.6017 107.496 11.3275 113.016 15.304 115.64L38.5586 130.976C41.8094 133.117 46.1489 132.559 48.7344 129.649H48.7192Z" fill="#E27FA3"/>
<path d="M44.0018 147.85C44.3495 143.975 41.7942 140.431 38.0142 139.541L10.889 133.132C6.24715 132.032 1.71114 135.289 1.28778 140.024L0.57714 147.835C0.13866 152.57 4.00935 156.597 8.77215 156.356L36.6081 154.953C40.509 154.757 43.654 151.741 44.0169 147.866L44.0018 147.85Z" fill="#E27FA3"/>
<path d="M66.2887 122.803C62.4785 123.617 58.638 121.506 57.3074 117.856L47.7062 91.7529C46.0582 87.2892 48.7646 82.4184 53.4216 81.4231L61.1177 79.7945C65.7747 78.7992 70.2351 82.162 70.5677 86.8971L72.4728 114.629C72.745 118.505 70.099 121.988 66.2887 122.803Z" fill="#E27FA3"/>
</svg>
