<svg width="284" height="335" viewBox="0 0 284 335" fill="none" xmlns="http://www.w3.org/2000/svg">
<path d="M142.047 334.2C186.096 334.2 221.805 307.901 221.805 275.459C221.805 243.017 186.096 216.718 142.047 216.718C97.9977 216.718 62.2888 243.017 62.2888 275.459C62.2888 307.901 97.9977 334.2 142.047 334.2Z" fill="#FFD5AE"/>
<path d="M95.5982 43.8204L30.3857 84.9468C22.2511 78.2486 5.58889 60.9816 18.7131 40.7813C34.9066 15.8182 76.4109 15.1378 95.5982 43.8204Z" fill="#FFD5AE"/>
<path d="M72.3891 63.5368C72.3891 63.5368 46.6397 32.7525 29.4634 48.4773C12.2871 64.2021 39.5787 90.0573 39.5787 90.0573L72.3891 63.5368Z" fill="#FFF1E6"/>
<path d="M228.805 61.8434L155.867 36.8047C167.963 4.47815 208.514 -4.38214 230 16.1811C247.418 32.8282 235.156 53.4669 228.805 61.8434Z" fill="#FFD5AE"/>
<path d="M183.007 50.6546C183.007 50.6546 201 14.7748 221.321 26.13C241.642 37.4851 221.034 68.9195 221.034 68.9195L183.007 50.6546Z" fill="#FFF1E6"/>
<path d="M269.826 207.328C241.536 262.561 149.365 243.208 149.365 243.208C149.365 243.208 64.1335 283.246 23.884 235.98C-4.32987 202.853 21.9185 169.74 21.9185 169.74C-10.8617 157.674 30.3705 116.366 30.3705 116.366C2.1415 94.049 74.9443 44.6822 125.536 38.7854C176.142 32.8886 258.32 64.2022 236.003 92.4009C236.003 92.4009 285.626 123.125 256.49 142.403C256.49 142.403 256.913 142.735 257.654 143.401C263.339 148.511 287.41 172.991 269.811 207.328H269.826Z" fill="#FFD5AE"/>
<path d="M136.604 133.558C159.768 130.851 172.196 165.234 191.761 168.969C221.669 174.654 239.934 163.359 256.52 142.403C256.52 142.403 289.679 168.591 269.841 207.328C241.537 262.577 149.38 243.208 149.38 243.208C149.38 243.208 64.1487 283.246 23.8992 235.981C-4.31471 202.853 21.9336 169.74 21.9336 169.74C42.8899 186.326 63.2717 193.115 91.0622 180.717C109.252 172.582 113.44 136.264 136.604 133.573V133.558Z" fill="#FFF1E6"/>
<path d="M178.834 210.533C171.607 215.266 159.783 216.869 146.492 218.426C126.761 220.724 110.174 222.161 104.323 210.594C103.309 208.613 102.629 206.224 102.296 203.412C100.815 190.681 107.74 178.6 119.291 171.101C124.568 167.683 130.798 165.204 137.647 164.07C138.463 163.934 139.28 163.813 140.112 163.722C141.351 163.571 142.576 163.48 143.786 163.435C150.847 163.117 157.575 164.297 163.517 166.655C175.749 171.524 184.61 181.412 186.046 193.66C186.999 201.839 184.171 207.041 178.834 210.549V210.533Z" fill="#605C5D"/>
<path d="M178.834 210.534C171.607 215.266 159.783 216.869 146.492 218.426C126.761 220.724 110.174 222.161 104.323 210.594C110.885 200.887 122.648 193.675 136.71 192.042C154.884 189.925 171.486 197.757 178.834 210.549V210.534Z" fill="#FF7AA8"/>
<path d="M131.811 188.836C124.281 189.713 120.592 186.961 119.473 177.315C119.216 175.077 119.155 172.975 119.306 171.07C124.583 167.653 130.813 165.173 137.662 164.039C139.492 166.625 140.641 170.314 141.17 174.775C142.289 184.421 139.34 187.944 131.811 188.821V188.836Z" fill="white"/>
<path d="M155.231 186.115C147.702 186.992 144.012 184.24 142.894 174.578C142.379 170.148 142.637 166.338 143.801 163.404C150.862 163.087 157.59 164.266 163.532 166.625C164.016 168.258 164.364 170.088 164.591 172.053C165.71 181.7 162.761 185.238 155.231 186.115Z" fill="white"/>
<path d="M73.253 222.926C88.2517 214.588 93.6513 195.67 85.3134 180.672C76.9756 165.673 58.0577 160.273 43.059 168.611C28.0604 176.949 22.6608 195.867 30.9986 210.866C39.3364 225.864 58.2544 231.264 73.253 222.926Z" fill="#FF9EB6"/>
<path d="M258.108 172.476C256.127 155.436 240.69 143.219 223.649 145.2C206.609 147.181 194.392 162.618 196.373 179.658C198.354 196.699 213.791 208.916 230.831 206.935C247.872 204.954 260.089 189.517 258.108 172.476Z" fill="#FF9EB6"/>
<path d="M263.566 142.705C268.117 138.396 270.37 133.376 270.28 127.706C270.038 112.012 250.971 97.0277 242.323 91.0401C245.271 85.0829 245.029 78.6115 241.567 72.3972C239.783 69.2069 237.121 66.0317 233.674 62.9774C237.167 58.0634 241.204 51.0327 242.837 43.0191C245.165 31.543 241.839 21.1101 233.19 12.8395C222.122 2.25551 205.838 -1.85712 189.645 1.84728C172.483 5.77848 158.482 17.7838 151.981 34.068C142.349 33.2364 133.156 33.2515 125.022 34.2041C116.887 35.1566 107.936 37.2432 98.7583 40.2672C88.764 26.0242 72.5402 17.5721 55.0766 17.5721C54.9557 17.5721 54.8196 17.5721 54.6986 17.5721C38.0817 17.693 23.1885 25.4194 14.8574 38.2714C8.34068 48.2959 7.49397 59.2277 12.408 69.8571C15.8402 77.281 21.3741 83.208 25.9101 87.1846C23.2641 90.9646 21.3892 94.6538 20.3913 98.1768C18.456 105.026 19.7109 111.377 23.9445 116.487C16.8986 124.304 1.77863 143.265 5.15039 158.596C6.37511 164.13 9.71659 168.5 15.1296 171.645C12.786 175.576 9.71659 181.73 7.85683 189.335C4.83283 201.703 4.54555 220.362 20.3762 238.959C34.2564 255.258 54.9103 263.62 80.8108 263.62C87.6602 263.62 94.8725 263.03 102.417 261.866C125.566 258.267 144.663 250.329 149.909 248.016C155.549 249.059 175.961 252.401 199.321 250.586C235.776 247.759 261.57 233.531 273.908 209.445C290.828 176.408 272.094 151.626 263.536 142.72L263.566 142.705ZM191.716 10.8286C204.886 7.81969 218.01 11.0553 226.84 19.4923C240.266 32.3292 232.903 48.1296 226.371 57.3831C217.859 51.7131 206.624 46.542 193.379 42.3386C182.992 39.0425 172.136 36.6233 161.567 35.1415C167.312 22.8641 178.35 13.8828 191.716 10.8286ZM22.5837 43.2912C29.2365 33.055 41.2569 26.886 54.7742 26.7801C68.4729 26.6743 81.2947 32.8735 89.7014 43.518C79.7524 47.3887 69.7581 52.2422 60.3988 57.8366C48.4843 64.9582 38.747 72.5786 31.7616 80.0479C23.2641 72.5484 12.4836 58.8497 22.5837 43.2761V43.2912ZM265.728 205.226C254.797 226.561 232.298 238.732 198.838 241.363C173.194 243.389 150.544 238.732 150.317 238.687C149.335 238.475 148.322 238.596 147.414 239.02C147.203 239.11 126.231 248.848 100.815 252.779C67.6413 257.904 42.9504 251.237 27.407 232.987C16.8079 220.528 13.2093 206.693 16.7323 191.845C19.4387 180.46 25.4868 172.658 25.5473 172.597C26.4696 171.433 26.772 169.906 26.3788 168.485C25.9857 167.064 24.9273 165.914 23.5363 165.4C18.0931 163.404 15.0237 160.517 14.1619 156.616C12.9523 151.142 15.8704 142.902 22.372 133.406C27.7094 125.604 33.6062 119.662 33.6667 119.602C34.589 118.664 35.088 117.394 35.0124 116.079C34.9368 114.763 34.3017 113.554 33.2736 112.737C29.1458 109.471 27.8606 105.631 29.2668 100.687C32.1547 90.511 45.5661 77.4624 65.1465 65.7444C85.0293 53.8601 107.815 45.4836 126.11 43.3517C130.057 42.8981 134.29 42.6713 138.705 42.6713C154.733 42.6713 173.3 45.6499 190.597 51.1385C212.34 58.0332 228.397 67.6646 233.538 76.9029C236.048 81.4087 235.685 85.4155 232.419 89.5584C231.603 90.5866 231.27 91.9171 231.497 93.2174C231.724 94.5178 232.495 95.6517 233.614 96.3321C233.689 96.3775 240.69 100.732 247.675 107.067C256.233 114.839 260.996 122.218 261.087 127.857C261.147 131.864 258.819 135.372 253.98 138.577C252.755 139.394 251.984 140.74 251.924 142.221C251.863 143.688 252.498 145.109 253.663 146.032C253.708 146.077 254.056 146.349 254.615 146.848C257.337 149.282 264.096 156.056 268.238 166.171C273.409 178.782 272.578 191.936 265.744 205.257L265.728 205.226Z" fill="#E2AB8C"/>
<path d="M99.4387 167.094C99.2421 167.094 99.0456 167.094 98.8339 167.048L76.0027 164.07C73.4776 163.737 71.6935 161.424 72.0261 158.899C72.3587 156.374 74.657 154.589 77.1972 154.922L100.028 157.901C102.553 158.233 104.338 160.547 104.005 163.072C103.702 165.385 101.722 167.079 99.4387 167.079V167.094Z" fill="#605C5D"/>
<path d="M179.423 157.78C177.564 157.78 175.81 156.646 175.114 154.801C174.207 152.427 175.417 149.766 177.79 148.859L199.321 140.724C201.695 139.832 204.356 141.027 205.264 143.401C206.171 145.775 204.961 148.436 202.587 149.343L181.056 157.477C180.527 157.674 179.968 157.78 179.423 157.78Z" fill="#605C5D"/>
<path d="M126.246 224.595C122.391 224.595 118.838 224.323 115.602 223.627C105.003 221.359 98.985 214.722 97.7301 203.926C96.4298 192.707 100.815 181.352 109.796 172.733C111.625 170.964 114.544 171.04 116.313 172.87C118.066 174.699 118.006 177.617 116.177 179.386C109.312 185.979 105.925 194.537 106.893 202.853C107.694 209.762 110.779 213.164 117.537 214.616C124.613 216.128 134.593 215.16 145.963 213.83C157.333 212.499 167.267 211.153 173.799 208.054C180.043 205.09 182.266 201.068 181.465 194.159C180.467 185.54 174.933 177.844 166.284 173.021C164.062 171.781 163.26 168.969 164.5 166.746C165.74 164.523 168.537 163.722 170.775 164.962C182.039 171.252 189.282 181.488 190.627 193.085C191.882 203.881 187.558 211.713 177.76 216.37C169.958 220.074 159.223 221.556 147.036 222.977C139.492 223.854 132.491 224.58 126.262 224.58L126.246 224.595Z" fill="#FFD5AE"/>
<path d="M170.775 164.992C162.958 160.637 153.659 158.49 144.194 158.793L142.999 148.602C142.697 146.077 140.414 144.263 137.889 144.565C135.364 144.852 133.549 147.15 133.852 149.675L135.031 159.851C125.354 161.802 116.509 166.292 109.796 172.733C107.966 174.487 107.906 177.406 109.66 179.25C110.567 180.188 111.777 180.671 112.986 180.671C114.135 180.671 115.284 180.248 116.177 179.386C122.497 173.323 131.191 169.377 140.656 168.273C149.773 167.215 158.875 168.893 166.284 173.021C168.507 174.261 171.319 173.459 172.559 171.237C173.799 169.014 172.997 166.202 170.775 164.962V164.992Z" fill="#E2AB8C"/>
<path d="M145.66 142.478C143.392 140.664 140.081 141.027 138.252 143.295L137.813 143.839L137.269 143.401C135.001 141.586 131.69 141.949 129.86 144.217C128.031 146.485 128.409 149.796 130.677 151.626L132.627 153.183C136.392 156.207 141.896 155.603 144.92 151.838L146.477 149.887C148.291 147.619 147.928 144.308 145.66 142.478Z" fill="#FF7AA8"/>
<path d="M218.584 286.481C218.584 286.481 292.34 213.104 276.161 186.281C259.983 159.458 183.007 255.153 183.007 255.153" fill="#FFD5AE"/>
<path d="M67.7623 297.564C67.7623 297.564 -9.09262 228.496 7.08578 201.673C23.2642 174.85 103.34 266.236 103.34 266.236" fill="#FFD5AE"/>
<path d="M218.584 291.078C217.405 291.078 216.226 290.624 215.318 289.717C213.519 287.918 213.534 284.999 215.334 283.2C215.515 283.019 233.78 264.769 249.822 243.571C269.735 217.232 277.704 197.712 272.215 188.64C271.232 187.007 270.038 186.266 268.223 186.145C264.156 185.873 251.319 188.7 219.733 220.891C201.831 239.125 186.742 257.844 186.59 258.025C185.003 260.006 182.1 260.324 180.119 258.721C178.138 257.118 177.821 254.23 179.424 252.25C179.575 252.053 194.922 233.032 213.126 214.48C238.694 188.413 256.929 176.136 268.858 176.952C273.682 177.285 277.583 179.674 280.123 183.892C288.015 196.971 280.486 218.335 257.125 249.21C240.705 270.923 222.606 288.976 221.85 289.732C220.958 290.624 219.779 291.078 218.599 291.078H218.584Z" fill="#E2AB8C"/>
<path d="M67.7623 302.176C66.6585 302.176 65.5699 301.783 64.6778 300.997C63.8765 300.286 45.0218 283.276 27.8153 262.637C3.26039 233.198 -4.8137 212.469 3.13942 199.299C5.67958 195.096 9.59569 192.647 14.5097 192.208C26.651 191.135 45.4149 202.611 71.8749 227.302C90.7296 244.901 106.651 263.03 106.817 263.212C108.496 265.132 108.299 268.035 106.394 269.713C104.474 271.392 101.571 271.195 99.8923 269.29C76.1841 242.24 32.2757 199.904 15.3261 201.401C13.3454 201.583 12.0602 202.369 11.0321 204.062C5.60398 213.059 14.0712 231.732 34.8461 256.665C51.6293 276.805 70.6502 293.966 70.8468 294.147C72.7368 295.841 72.888 298.759 71.1945 300.649C70.2874 301.662 69.0324 302.176 67.7623 302.176Z" fill="#E2AB8C"/>
<path d="M42.1339 131.985C40.0927 131.985 38.2329 130.624 37.6886 128.553C37.0384 126.088 38.5051 123.578 40.9545 122.913C41.6954 122.717 42.3304 122.233 42.7084 121.567C43.1015 120.902 43.2074 120.116 42.9957 119.375C42.3456 116.91 43.8122 114.401 46.2616 113.735C48.7262 113.085 51.2361 114.552 51.9014 117.001C52.733 120.131 52.2945 123.382 50.6767 126.179C49.0588 128.976 46.4431 130.972 43.3132 131.804C42.9201 131.91 42.527 131.955 42.1339 131.955V131.985Z" fill="#FE518E"/>
<path d="M68.5636 124.697C66.4619 124.697 64.3754 124.138 62.5005 123.049C59.7033 121.431 57.7074 118.816 56.8758 115.686C56.2257 113.221 57.6923 110.711 60.1418 110.046C62.6063 109.396 65.1162 110.862 65.7815 113.312C65.978 114.053 66.4619 114.688 67.1272 115.066C67.7925 115.459 68.5787 115.55 69.3196 115.353C71.7842 114.703 74.3092 116.17 74.9593 118.619C75.6095 121.084 74.1429 123.609 71.6934 124.259C70.6653 124.531 69.6069 124.667 68.5636 124.667V124.697Z" fill="#FE518E"/>
<path d="M54.9859 151.172C52.9447 151.172 51.0849 149.812 50.5406 147.74C50.3441 146.999 49.8602 146.364 49.1949 145.986C48.5296 145.593 47.7434 145.487 47.0025 145.699C44.538 146.349 42.0129 144.882 41.3628 142.433C40.7126 139.968 42.1793 137.443 44.6287 136.793C47.7585 135.962 51.0093 136.4 53.8065 138.018C56.6037 139.636 58.5996 142.252 59.4312 145.381C60.0813 147.846 58.6147 150.356 56.1653 151.021C55.7721 151.127 55.3639 151.172 54.9859 151.172Z" fill="#FE518E"/>
<path d="M68.8661 147.498C66.8249 147.498 64.9651 146.137 64.4208 144.066C63.5892 140.936 64.0276 137.685 65.6455 134.888C67.2633 132.091 69.8791 130.095 73.0089 129.264C75.4735 128.613 77.9834 130.08 78.6487 132.529C79.2989 134.994 77.8322 137.504 75.3828 138.169C74.6419 138.366 74.0068 138.85 73.6288 139.515C73.2357 140.18 73.1299 140.966 73.3416 141.707C73.9917 144.172 72.5251 146.682 70.0757 147.347C69.6826 147.453 69.2743 147.498 68.8963 147.498H68.8661Z" fill="#FE518E"/>
</svg>
