<svg width="313" height="335" viewBox="0 0 313 335" fill="none" xmlns="http://www.w3.org/2000/svg">
<path d="M156.937 332.76C210.84 332.76 254.537 302.615 254.537 265.43C254.537 228.245 210.84 198.101 156.937 198.101C103.034 198.101 59.3375 228.245 59.3375 265.43C59.3375 302.615 103.034 332.76 156.937 332.76Z" fill="#FFD5AE"/>
<path d="M122.433 35.5155L43.3557 73.3911C35.0548 64.7576 18.4984 43.0604 35.9771 21.968C57.5534 -4.08378 104.531 0.588296 122.433 35.5155Z" fill="#FFD5AE"/>
<path d="M93.6146 54.733C93.6146 54.733 68.5759 16.5701 47.1055 32.0681C25.6351 47.5661 53.0627 80.3614 53.0627 80.3614L93.6146 54.7179V54.733Z" fill="#FFF1E6"/>
<path d="M270.534 73.3911L191.441 35.5155C209.358 0.588296 256.336 -4.08378 277.897 21.968C295.376 43.0604 278.819 64.7576 270.534 73.3911Z" fill="#FFD5AE"/>
<path d="M220.275 54.733C220.275 54.733 245.314 16.5701 266.784 32.0681C288.254 47.5661 260.827 80.3614 260.827 80.3614L220.275 54.7179V54.733Z" fill="#FFF1E6"/>
<path d="M297.734 243.143C258.498 301.824 156.952 267.819 156.952 267.819C156.952 267.819 55.4062 301.824 16.1698 243.143C-0.673844 217.969 5.54048 195.47 12.8888 181.832C12.9039 181.817 12.9039 181.802 12.919 181.771C17.5609 173.138 22.6563 168.057 22.6563 168.057C-12.785 150.11 39.243 108.878 39.243 108.878C10.3033 79.9532 99.0274 33.7767 156.952 33.7767C214.877 33.7767 303.601 79.9532 274.676 108.878C274.676 108.878 326.689 150.11 291.233 168.057C291.233 168.057 291.656 168.481 292.412 169.328C294.196 171.354 297.719 175.693 301.016 181.817C301.016 181.832 301.031 181.832 301.031 181.832C308.379 195.485 314.563 217.969 297.734 243.128V243.143Z" fill="#FFD5AE"/>
<path d="M297.734 243.143C258.498 301.824 156.952 267.819 156.952 267.819C156.952 267.819 55.4062 301.824 16.1698 243.143C-0.673844 217.969 5.54048 195.47 12.8888 181.832C12.9039 181.817 12.9039 181.802 12.919 181.771C13.0551 181.56 13.1307 181.469 13.1307 181.469C36.1434 202.954 66.2775 213.312 99.3147 202.954C120.936 196.15 130.432 155.689 156.967 155.689C183.503 155.689 193.013 196.15 214.635 202.954C247.657 213.312 277.791 202.954 300.789 181.469C300.789 181.469 300.879 181.605 301.031 181.832C301.031 181.847 301.046 181.847 301.046 181.847C308.394 195.5 314.578 217.984 297.75 243.143H297.734Z" fill="#FFF1E6"/>
<path d="M85.1304 240.622C98.9297 226.822 98.9297 204.449 85.1304 190.65C71.331 176.851 48.9579 176.851 35.1585 190.65C21.3592 204.449 21.3592 226.822 35.1585 240.622C48.9579 254.421 71.3311 254.421 85.1304 240.622Z" fill="#FF9EB6"/>
<path d="M261.942 250.007C280.925 245.478 292.641 226.418 288.112 207.436C283.583 188.453 264.523 176.737 245.541 181.266C226.558 185.795 214.842 204.855 219.371 223.837C223.9 242.82 242.96 254.536 261.942 250.007Z" fill="#FF9EB6"/>
<path d="M298.188 169.176C304.085 164.958 307.396 159.605 308.031 153.194C308.984 143.82 304.009 132.828 293.244 120.52C288.708 115.319 284.111 111.01 281.057 108.333C285.412 102.059 286.062 94.8615 282.932 87.2864C281.299 83.3552 278.608 79.3484 274.964 75.3416C279.59 70.2915 285.261 62.7769 288.209 53.7805C292.276 41.3518 289.933 29.3466 281.405 19.065C270.443 5.81983 252.813 -0.863209 234.261 1.16287C214.408 3.34015 197.096 15.1035 187.767 32.6881C176.865 30.4352 166.357 29.2105 156.922 29.2105C147.487 29.2105 136.994 30.4201 126.092 32.6881C116.763 15.1035 99.4508 3.34015 79.5983 1.16287C61.046 -0.863209 43.4161 5.81983 32.4541 19.065C23.9415 29.3466 21.5828 41.3518 25.6501 53.7805C28.5985 62.7769 34.2534 70.2915 38.8952 75.3265C35.2513 79.3333 32.5599 83.3401 30.927 87.2713C27.7971 94.8464 28.4473 102.044 32.8019 108.318C29.7476 111.01 25.1511 115.304 20.6151 120.505C9.8497 132.828 4.87523 143.82 5.81267 153.194C6.46283 159.605 9.75899 164.958 15.6558 169.176C12.4957 173.228 8.00507 179.927 4.78451 188.575C-0.205092 202.002 -2.94182 222.822 12.3294 245.668C21.855 259.911 35.6142 270.133 53.229 276.06C65.2796 280.112 79.1295 282.168 94.4763 282.168C96.7595 282.168 99.0728 282.123 101.416 282.032C128.254 281.004 151.025 274.427 156.922 272.597C162.819 274.427 185.589 281.004 212.427 282.032C230.571 282.728 246.78 280.717 260.615 276.06C278.23 270.133 291.974 259.896 301.499 245.668C325.117 210.348 306.383 179.76 298.173 169.176H298.188ZM235.274 10.2349C250.772 8.54143 265.393 14.0149 274.389 24.8862C280.558 32.3252 287.816 47.8534 268.417 68.9912C259.556 61.3556 247.415 53.9317 232.794 47.3394C221.242 42.1381 209.025 37.9045 197.035 34.8351C205.185 21.1061 219.247 11.9888 235.274 10.25V10.2349ZM39.5 24.8862C48.4964 14.0149 63.1326 8.54143 78.6155 10.2349C94.6275 11.9888 108.704 21.1062 116.854 34.82C104.864 37.8894 92.6468 42.123 81.0951 47.3394C66.4741 53.9165 54.3327 61.3556 45.4724 68.9761C26.0735 47.8383 33.3311 32.3252 39.5 24.871V24.8862ZM293.924 240.603C285.563 253.107 273.422 262.119 257.818 267.396C245.072 271.705 229.997 273.565 213.002 272.93C183.684 271.841 158.646 263.57 158.389 263.495C157.451 263.177 156.423 263.177 155.486 263.495C155.244 263.57 130.386 271.796 101.084 272.93C84.0587 273.58 68.9387 271.735 56.1623 267.441C40.5131 262.164 28.3263 253.153 19.9499 240.618C9.47171 224.954 7.21883 208.624 13.2517 192.083C17.8633 179.458 25.8013 171.369 25.8769 171.293C26.9202 170.265 27.3889 168.783 27.1621 167.347C26.9353 165.895 26.0281 164.655 24.7127 163.99C18.6042 160.906 15.3987 157.065 14.9149 152.287C13.5087 138.407 34.0417 118.827 42.0553 112.461C43.0835 111.66 43.7034 110.45 43.779 109.15C43.8546 107.85 43.3707 106.58 42.4484 105.657C37.988 101.197 37.0052 96.4794 39.3639 90.7791C44.0209 79.5147 61.0158 66.3906 84.8298 55.6705C108.931 44.8143 135.875 38.343 156.922 38.343C177.969 38.343 204.928 44.8143 229.029 55.6705C252.828 66.3906 269.838 79.5147 274.495 90.7791C276.854 96.4794 275.871 101.197 271.426 105.657C270.503 106.58 270.02 107.85 270.095 109.15C270.171 110.45 270.791 111.66 271.819 112.461C279.848 118.842 300.365 138.422 298.959 152.287C298.475 157.065 295.27 160.891 289.161 163.99C287.861 164.655 286.954 165.895 286.727 167.332C286.5 168.768 286.969 170.25 287.997 171.278C287.997 171.278 288.375 171.656 288.995 172.352C291.777 175.496 298.596 184.13 301.983 196.241C306.217 211.376 303.51 226.3 293.939 240.618L293.924 240.603Z" fill="#E2AB8C"/>
<path d="M171.21 197.269C167.642 197.269 164.376 195.636 162.698 193.005C162.698 192.99 162.668 192.96 162.652 192.945C161.896 191.811 161.518 190.571 161.518 189.225V173.531C161.518 171.006 159.477 168.965 156.952 168.965C154.427 168.965 152.386 171.006 152.386 173.531V189.225C152.386 190.571 152.008 191.826 151.222 193.005C149.528 195.636 146.247 197.269 142.679 197.269C140.154 197.269 138.113 199.311 138.113 201.836C138.113 204.361 140.154 206.402 142.679 206.402C148.213 206.402 153.444 204.164 156.967 200.429C160.49 204.164 165.707 206.402 171.21 206.402C173.735 206.402 175.777 204.361 175.777 201.836C175.777 199.311 173.735 197.269 171.21 197.269Z" fill="#E2AB8C"/>
<path d="M166.009 166.969C163.681 164.61 159.886 164.595 157.542 166.908L156.967 167.468L156.408 166.893C154.079 164.535 150.284 164.519 147.941 166.833C145.582 169.161 145.567 172.956 147.88 175.3L149.876 177.326C153.732 181.227 160.022 181.272 163.938 177.417L165.964 175.421C168.322 173.092 168.338 169.297 166.024 166.954L166.009 166.969Z" fill="#FF7AA8"/>
<path d="M218.687 207.823C235.221 207.823 248.625 194.42 248.625 177.885C248.625 161.351 235.221 147.948 218.687 147.948C202.153 147.948 188.75 161.351 188.75 177.885C188.75 194.42 202.153 207.823 218.687 207.823Z" fill="#605C5D"/>
<path d="M228.39 180.743C235.345 177.683 238.503 169.563 235.443 162.608C232.382 155.652 224.263 152.495 217.307 155.555C210.352 158.616 207.194 166.735 210.255 173.691C213.315 180.646 221.435 183.804 228.39 180.743Z" fill="white"/>
<path d="M230.556 192.204C230.556 187.517 226.761 183.722 222.074 183.722C217.387 183.722 213.592 187.517 213.592 192.204C213.592 196.891 217.387 200.686 222.074 200.686C226.761 200.686 230.556 196.891 230.556 192.204Z" fill="white"/>
<path d="M211.641 184.402C211.641 180.804 208.723 177.885 205.125 177.885C201.526 177.885 198.608 180.804 198.608 184.402C198.608 188.001 201.526 190.919 205.125 190.919C208.723 190.919 211.641 188.001 211.641 184.402Z" fill="white"/>
<path d="M95.187 203.922C110.644 203.922 123.174 191.392 123.174 175.935C123.174 160.478 110.644 147.948 95.187 147.948C79.7301 147.948 67.1998 160.478 67.1998 175.935C67.1998 191.392 79.7301 203.922 95.187 203.922Z" fill="#605C5D"/>
<path d="M104.377 180.967C111.452 178.194 114.94 170.211 112.168 163.136C109.395 156.061 101.412 152.573 94.3366 155.346C87.2615 158.118 83.7737 166.102 86.5464 173.177C89.3191 180.252 97.3023 183.74 104.377 180.967Z" fill="white"/>
<path d="M107.056 192.204C107.056 187.517 103.261 183.722 98.5739 183.722C93.8867 183.722 90.0916 187.517 90.0916 192.204C90.0916 196.891 93.8867 200.686 98.5739 200.686C103.261 200.686 107.056 196.891 107.056 192.204Z" fill="white"/>
<path d="M88.141 184.402C88.141 180.804 85.2228 177.885 81.6243 177.885C78.0257 177.885 75.1075 180.804 75.1075 184.402C75.1075 188.001 78.0257 190.919 81.6243 190.919C85.2228 190.919 88.141 188.001 88.141 184.402Z" fill="white"/>
<path d="M144.146 292.797C143.526 293.039 142.906 293.251 142.271 293.432C144.07 311.456 134.454 331.338 114.752 329.826C90.9081 328.027 94.5066 308.099 94.8997 278.675C95.3987 242.342 130.507 238.864 146.761 252.094C163 265.324 155.697 288.307 144.161 292.782L144.146 292.797Z" fill="#FFD5AE"/>
<path d="M169.729 292.797C170.349 293.039 170.968 293.251 171.603 293.432C169.804 311.456 179.421 331.338 199.122 329.826C222.966 328.027 219.368 308.099 218.974 278.675C218.475 242.342 183.367 238.864 167.113 252.094C150.874 265.324 158.177 288.307 169.713 292.782L169.729 292.797Z" fill="#FFD5AE"/>
<path d="M223.767 288.216C223.692 285.132 223.601 281.941 223.556 278.63C223.238 256.252 211.021 247.226 203.764 243.839C191.154 237.942 174.9 239.893 164.255 248.571C161.216 251.051 158.767 253.939 156.952 257.129C155.138 253.939 152.688 251.051 149.649 248.571C139.005 239.908 122.751 237.957 110.141 243.839C102.883 247.226 90.6661 256.252 90.3486 278.63C90.3032 281.941 90.2125 285.132 90.1369 288.216C89.8043 300.463 89.5321 311.047 92.2537 318.985C95.5045 328.466 102.762 333.5 114.435 334.377C115.251 334.438 116.068 334.468 116.854 334.468C124.505 334.468 131.294 331.626 136.616 326.182C143.495 319.152 147.351 308.008 147.064 296.502C151.071 294.566 154.533 291.059 156.967 286.598C159.417 291.059 162.864 294.582 166.871 296.502C166.584 308.008 170.439 319.152 177.319 326.182C182.641 331.626 189.43 334.468 197.081 334.468C197.882 334.468 198.683 334.438 199.5 334.377C211.173 333.5 218.43 328.466 221.681 318.985C224.403 311.032 224.115 300.463 223.798 288.216H223.767ZM151.343 275.077C150.345 281.367 146.716 286.901 142.467 288.549C142.029 288.73 141.545 288.881 141.001 289.048C136.873 290.227 132.881 289.713 129.766 287.596C125.986 285.041 123.643 280.233 122.978 273.686C122.721 271.176 120.483 269.346 117.973 269.603C115.463 269.86 113.633 272.098 113.89 274.608C115.1 286.387 120.407 292.268 124.656 295.141C128.496 297.742 133.138 298.966 137.931 298.74C137.735 307.086 134.892 314.873 130.084 319.802C126.107 323.884 121.072 325.714 115.115 325.26C99.6172 324.096 98.5436 315.311 99.2694 288.443C99.3601 285.328 99.4357 282.108 99.4811 278.736C99.7079 262.21 107.51 255.134 114.011 252.094C117.64 250.401 121.738 249.584 125.85 249.584C132.412 249.584 139.035 251.671 143.904 255.632C152.038 262.255 152.084 270.647 151.388 275.062L151.343 275.077ZM198.789 325.29C192.847 325.744 187.812 323.899 183.82 319.832C179.012 314.903 176.17 307.116 175.973 298.77C180.766 298.997 185.408 297.772 189.249 295.171C193.497 292.298 198.804 286.402 200.014 274.638C200.271 272.128 198.441 269.891 195.932 269.634C193.422 269.377 191.184 271.206 190.927 273.716C190.262 280.263 187.903 285.071 184.138 287.626C181.008 289.743 177.016 290.257 172.904 289.078C172.359 288.912 171.876 288.76 171.407 288.564C167.188 286.931 163.545 281.397 162.562 275.107C161.866 270.692 161.912 262.3 170.046 255.678C177.954 249.237 190.519 247.755 199.938 252.14C206.44 255.179 214.227 262.255 214.454 278.781C214.499 282.153 214.59 285.374 214.665 288.488C215.376 315.356 214.317 324.141 198.804 325.305L198.789 325.29Z" fill="#E2AB8C"/>
</svg>
