<svg width="335" height="331" viewBox="0 0 335 331" fill="none" xmlns="http://www.w3.org/2000/svg">
<path d="M312.473 179.921C311.671 179.016 311.202 178.564 311.202 178.564C349.169 159.382 293.467 115.333 293.467 115.333C306.228 102.606 297.625 86.7719 278.755 72.5213L289.037 77.4374C297.927 68.1933 315.663 45.0305 296.944 22.4859C273.826 -5.35182 223.506 -0.34526 204.319 36.9476L217.519 43.251C200.388 38.154 182.849 35.0777 167.351 35.0777C151.853 35.0777 134.329 38.154 117.213 43.2359L130.397 36.9325C111.21 -0.375423 60.8909 -5.3669 37.7724 22.4708C19.0539 45.0154 36.7896 68.1783 45.6801 77.4223L55.9466 72.5213C37.092 86.7568 28.5038 102.606 41.2651 115.318C41.2651 115.318 -14.4672 159.367 23.4991 178.549C23.4991 178.549 -12.925 214.816 16.5288 258.774C58.5775 321.462 167.351 285.134 167.351 285.134C167.351 285.134 276.139 321.462 318.173 258.774C344.3 219.808 318.641 186.873 312.473 179.906V179.921Z" fill="#FFD5AE"/>
<path d="M94.79 51.1529C77.1752 58.3913 61.3445 67.4393 50.4279 76.985C43.2308 65.675 33.5237 44.9098 49.687 33.2681C66.8179 20.9326 86.0808 40.416 94.7748 51.1529H94.79Z" fill="#FFF1E6"/>
<path d="M284.274 76.985C273.372 67.4393 257.527 58.3913 239.912 51.1529C248.621 40.416 267.884 20.9326 285 33.2681C301.163 44.9098 291.456 65.675 284.259 76.985H284.274Z" fill="#FFF1E6"/>
<path d="M167.366 171.702C195.776 171.702 205.967 204.954 229.131 212.207C264.512 223.276 288.22 201.5 311.233 178.549C311.233 178.549 347.657 214.816 318.203 258.774C276.154 321.462 167.381 285.134 167.381 285.134C167.381 285.134 58.5927 321.462 16.5591 258.774C-12.8947 214.816 23.5294 178.549 23.5294 178.549C46.542 201.5 70.2502 223.276 105.631 212.207C128.795 204.939 138.971 171.702 167.396 171.702H167.366Z" fill="#FFF1E6"/>
<path d="M185.056 222.477C181.337 218.767 176.74 216.475 171.917 215.6V195.906C171.917 193.387 169.876 191.352 167.351 191.352C164.826 191.352 162.785 193.387 162.785 195.906V215.6C157.961 216.49 153.365 218.767 149.645 222.477C147.861 224.256 147.861 227.137 149.645 228.916C151.429 230.695 154.317 230.695 156.101 228.916C159.11 225.915 163.102 224.271 167.351 224.271C171.599 224.271 175.591 225.915 178.6 228.916C179.492 229.806 180.656 230.243 181.821 230.243C182.985 230.243 184.149 229.806 185.041 228.916C186.825 227.137 186.825 224.256 185.041 222.477H185.056Z" fill="#E2AB8C"/>
<path d="M177.058 189.859C174.563 187.34 170.511 187.31 167.986 189.798L167.381 190.402L166.776 189.798C164.281 187.28 160.229 187.25 157.704 189.738C155.179 192.226 155.149 196.268 157.644 198.786L159.776 200.943C163.903 205.12 170.647 205.165 174.835 201.033L176.997 198.907C179.522 196.419 179.553 192.377 177.058 189.859Z" fill="#FF7AA8"/>
<path d="M79.0146 276.575C99.3526 271.731 111.903 251.361 107.046 231.077C102.19 210.793 81.7658 198.276 61.4278 203.12C41.0899 207.963 28.5396 228.333 33.396 248.617C38.2525 268.902 58.6766 281.419 79.0146 276.575Z" fill="#FF9EB6"/>
<path d="M296.748 254.08C304.628 234.764 295.316 212.733 275.948 204.874C256.58 197.014 234.491 206.302 226.61 225.619C218.73 244.936 228.043 266.966 247.411 274.826C266.779 282.685 288.868 273.397 296.748 254.08Z" fill="#FF9EB6"/>
<path d="M329.997 200.611C326.489 191.201 321.56 183.962 318.173 179.695C324.584 175.216 328.182 169.501 328.878 162.654C329.876 152.747 324.584 141.09 313.123 128.001C308.148 122.315 303.113 117.656 299.863 114.806C302.796 110.674 304.202 106.165 304.051 101.324C303.824 94.2516 300.21 86.9227 293.346 79.4883C298.32 74.1198 304.474 66.052 307.649 56.3706C311.974 43.2058 309.479 30.4933 300.422 19.6056C288.749 5.55101 269.985 -1.55168 250.224 0.604765C228.98 2.92708 210.473 15.5189 200.554 34.3236C188.806 31.8807 177.496 30.5687 167.336 30.5687C157.175 30.5687 145.865 31.8807 134.117 34.3236C124.198 15.5038 105.691 2.912 84.4479 0.604765C64.686 -1.55168 45.9221 5.55101 34.2494 19.6056C25.2077 30.4933 22.7129 43.2058 27.0221 56.3706C30.1973 66.052 36.3662 74.1198 41.3256 79.4883C34.4611 86.9378 30.8626 94.2516 30.6206 101.324C30.4543 106.165 31.8605 110.674 34.8089 114.806C31.5581 117.656 26.5231 122.331 21.5486 128.001C10.0877 141.09 4.78054 152.747 5.79358 162.654C6.4891 169.501 10.0726 175.216 16.4986 179.695C13.1268 183.962 8.18255 191.201 4.67471 200.611C-0.647526 214.892 -3.56568 236.999 12.7186 261.293C23.2118 276.946 38.4982 288.03 58.1693 294.243C60.5582 294.997 63.3101 286.356 60.9211 285.602C43.261 280.022 29.5925 270.16 20.2786 256.256C8.98393 239.412 6.56471 221.859 13.0814 204.079C18.0559 190.522 26.5987 181.851 26.6743 181.776C27.7025 180.75 28.1863 179.288 27.9595 177.855C27.7327 176.422 26.8255 175.186 25.5252 174.522C18.8724 171.16 15.3797 166.982 14.8354 161.75C13.3082 146.775 35.3986 125.739 44.0321 118.892C45.0451 118.093 45.665 116.887 45.7406 115.605C45.8162 114.308 45.3324 113.056 44.4101 112.136C41.1139 108.849 39.5717 105.411 39.6926 101.626C39.9043 95.3826 44.6369 88.0537 53.3762 80.4081C63.5822 71.4808 78.8837 62.5836 96.4682 55.3602C120.811 45.3622 146.621 39.6318 167.305 39.6318C187.99 39.6318 213.799 45.3622 238.128 55.3602C255.712 62.5836 271.014 71.4808 281.22 80.4081C289.959 88.0537 294.691 95.3826 294.903 101.626C295.024 105.411 293.482 108.849 290.186 112.136C289.263 113.056 288.795 114.308 288.87 115.605C288.946 116.902 289.566 118.093 290.579 118.892C299.212 125.739 321.303 146.775 319.776 161.75C319.246 166.982 315.754 171.16 309.086 174.522C307.785 175.171 306.893 176.422 306.651 177.855C306.425 179.288 306.893 180.75 307.921 181.776C308.012 181.866 316.555 190.537 321.529 204.079C328.046 221.859 325.627 239.412 314.332 256.256C305.018 270.145 291.35 280.022 273.69 285.602C271.301 286.356 273.13 294.454 275.066 294.454C275.519 294.454 275.988 294.378 276.442 294.243C296.113 288.03 311.399 276.946 321.892 261.293C338.177 236.999 335.258 214.876 329.936 200.611H329.997ZM93.0662 46.9607C74.8466 54.4554 58.8497 63.7447 47.9179 73.1848C26.6743 50.2934 34.5821 33.449 41.2802 25.3661C51.0024 13.664 66.7726 7.76776 83.4953 9.59244C100.914 11.4925 116.2 21.4453 124.939 36.4348C114.355 39.1191 103.575 42.6478 93.0662 46.9607ZM241.651 46.9607C231.157 42.6478 220.362 39.1191 209.778 36.4348C218.517 21.4604 233.803 11.4925 251.221 9.59244C267.929 7.76776 283.714 13.664 293.437 25.3661C300.135 33.4339 308.058 50.2783 286.799 73.1848C275.867 63.7598 259.87 54.4554 241.651 46.9607Z" fill="#E2AB8C"/>
<path d="M237.16 203.521C230.492 203.521 224.232 200.928 219.53 196.238C217.761 194.473 217.761 191.593 219.53 189.829C221.299 188.064 224.187 188.064 225.956 189.829C228.95 192.814 232.926 194.458 237.16 194.458C241.393 194.458 245.37 192.814 248.364 189.829C250.133 188.064 253.021 188.064 254.79 189.829C256.559 191.593 256.559 194.473 254.79 196.238C250.072 200.943 243.813 203.521 237.16 203.521Z" fill="#605C5D"/>
<path d="M97.5569 203.521C90.8889 203.521 84.6293 200.928 79.9269 196.238C78.1579 194.473 78.1579 191.593 79.9269 189.829C81.696 188.064 84.5839 188.064 86.3529 189.829C89.3467 192.814 93.3233 194.458 97.5569 194.458C101.79 194.458 105.767 192.814 108.761 189.829C110.53 188.064 113.418 188.064 115.187 189.829C116.956 191.593 116.956 194.473 115.187 196.238C110.469 200.943 104.21 203.521 97.5569 203.521Z" fill="#605C5D"/>
<path d="M120.932 326.468C155.545 326.468 183.605 312.905 183.605 296.173C183.605 279.441 155.545 265.877 120.932 265.877C86.3194 265.877 58.26 279.441 58.26 296.173C58.26 312.905 86.3194 326.468 120.932 326.468Z" fill="#FFD5AE"/>
<path d="M213.784 326.468C248.397 326.468 276.457 312.905 276.457 296.173C276.457 279.441 248.397 265.877 213.784 265.877C179.171 265.877 151.112 279.441 151.112 296.173C151.112 312.905 179.171 326.468 213.784 326.468Z" fill="#FFD5AE"/>
<path d="M213.784 261.338C195.625 261.338 179.371 264.882 167.396 270.748C154.937 264.671 138.562 261.338 120.932 261.338C83.2383 261.338 53.7089 276.629 53.7089 296.158C53.7089 315.686 83.2383 330.977 120.932 330.977C138.562 330.977 154.937 327.645 167.396 321.567C179.371 327.434 195.64 330.977 213.784 330.977C251.478 330.977 281.008 315.686 281.008 296.158C281.008 276.629 251.478 261.338 213.784 261.338ZM120.932 321.929C104.86 321.929 89.8306 318.944 78.5964 313.515C68.5567 308.659 62.796 302.34 62.796 296.173C62.796 290.005 68.5567 283.686 78.5964 278.831C89.8306 273.402 104.86 270.416 120.932 270.416C134.465 270.416 147.498 272.618 157.916 276.554C150.719 282.103 146.561 288.844 146.561 296.173C146.561 303.502 150.719 310.242 157.916 315.792C147.498 319.728 134.465 321.929 120.932 321.929ZM256.12 313.515C244.886 318.944 229.857 321.929 213.784 321.929C197.712 321.929 182.682 318.944 171.448 313.515C161.409 308.659 155.648 302.34 155.648 296.173C155.648 290.005 161.409 283.686 171.448 278.831C182.682 273.402 197.712 270.416 213.784 270.416C229.857 270.416 244.886 273.402 256.12 278.831C266.16 283.686 271.921 290.005 271.921 296.173C271.921 302.34 266.16 308.659 256.12 313.515Z" fill="#E2AB8C"/>
<path d="M66.3189 220.637L72.881 214.092C74.6954 212.283 77.6438 212.283 79.4733 214.092L86.0354 220.637C91.4786 226.066 91.4786 234.873 86.0354 240.316C80.5922 245.745 71.7622 245.745 66.3038 240.316C60.8606 234.888 60.8606 226.081 66.3038 220.637H66.3189Z" fill="#93F6F8"/>
<path d="M248.681 220.637L255.243 214.092C257.058 212.283 260.006 212.283 261.836 214.092L268.398 220.637C273.841 226.066 273.841 234.873 268.398 240.316C262.955 245.745 254.124 245.745 248.666 240.316C243.223 234.888 243.223 226.081 248.666 220.637H248.681Z" fill="#93F6F8"/>
</svg>
