<svg width="335" height="327" viewBox="0 0 335 327" fill="none" xmlns="http://www.w3.org/2000/svg">
<path d="M227.131 228.198L119.129 254.12C119.129 254.12 39.5072 192.534 10.5524 221.427C-18.4024 250.32 82.5841 297.415 82.5841 297.415C82.5841 297.415 133.206 354.432 252.019 309.554L227.131 228.183V228.198Z" fill="#FFD5AE"/>
<path d="M301.068 101.345L309.203 107.482C318.653 100.953 338.384 83.7917 325.986 60.6741C310.7 32.1276 265.642 27.5282 242.115 56.8438L252.563 64.7306C238.456 57.2057 223.608 51.3848 210.015 48.6101C196.438 45.8504 180.501 45.4131 164.565 46.8306L177.266 43.6488C167.12 7.48691 123.862 -5.8589 98.581 14.4388C78.1086 30.876 89.5242 54.3706 95.6629 64.0671L105.551 61.594C86.4548 70.7324 76.0674 83.098 84.9882 96.5343C84.9882 96.5343 28.1823 125.247 58.0594 148.847C58.0594 148.847 19.5942 174.181 37.5567 218.004C63.2002 280.51 165.17 268.039 165.17 268.039C165.17 268.039 254.12 319.326 302.232 271.809C332.155 242.267 315.538 208.805 311.38 201.597C310.836 200.662 310.518 200.179 310.518 200.179C347.275 190.121 306.284 141.533 306.284 141.533C319.756 132.651 315.054 117.209 301.053 101.345H301.068Z" fill="#FFD5AE"/>
<path d="M143.472 49.7863C126.719 52.9983 111.206 58.1105 99.9116 64.5345C95.6326 53.315 90.8396 33.3793 107.094 26.0504C124.346 18.2691 137.757 38.8231 143.457 49.8014L143.472 49.7863Z" fill="#FFF1E6"/>
<path d="M305.105 106.246C297.243 95.931 284.965 85.1488 270.813 75.6635C280.369 67.7917 300.781 54.1142 313.603 68.0029C325.699 81.1074 313.451 97.5898 305.105 106.231V106.246Z" fill="#FFF1E6"/>
<path d="M189.241 150.355C214.173 155.422 217.863 191.568 234.374 205.683C261.559 228.922 286.22 216.224 310.533 200.179C310.533 200.179 335.995 238.497 302.263 271.809C263.147 310.414 197.073 283.783 173.697 272.442C168.088 269.713 161.873 268.461 155.644 268.763C129.698 270.075 58.4223 268.793 37.5718 217.989C19.6093 174.166 58.0745 148.832 58.0745 148.832C74.1622 173.08 89.1613 193.68 125.994 183.621C146.965 177.891 164.308 145.258 189.241 150.325V150.355Z" fill="#FFF1E6"/>
<path d="M216.517 190.573C215.67 199.304 213.07 211.957 205.449 221.427C204.209 222.965 202.849 224.413 201.321 225.77C198.207 228.514 194.487 230.746 190.042 232.3C188.817 232.707 187.577 233.069 186.322 233.34H186.262C175.708 235.617 164.459 232.707 156.355 225.453C154.631 223.915 153.134 222.256 151.879 220.567C150.548 218.788 149.46 216.948 148.553 215.048C142.293 201.974 145.256 186.456 148.341 176.73C149.263 173.804 153.164 173.322 154.888 175.87C155.871 177.303 157.095 178.615 158.502 179.685C160.467 181.239 162.811 185.808 165.442 186.351C170.96 187.482 176.404 182.294 180.244 178.735C182.724 176.443 184.538 173.382 185.264 169.808C184.523 173.382 185.007 176.911 186.398 180.002C188.53 184.752 189.921 191.403 195.44 192.503C198.071 193.046 203.589 190 206.024 189.352C207.747 188.899 209.38 188.175 210.862 187.225C213.448 185.551 216.85 187.527 216.547 190.588L216.517 190.573Z" fill="#605C5D"/>
<path d="M179.73 191.764C177.628 202.124 173.349 204.763 165.26 203.135C157.156 201.491 154.283 197.374 156.385 187.014C156.838 184.767 157.428 182.731 158.169 180.937C160.135 182.49 162.478 183.606 165.109 184.149C170.628 185.28 176.071 183.546 179.912 179.987C180.773 183.214 180.668 187.225 179.73 191.764Z" fill="white"/>
<path d="M205.691 190.618C205.661 192.549 205.404 194.645 204.95 196.892C202.833 207.236 198.57 209.891 190.465 208.232C182.361 206.603 179.488 202.501 181.605 192.141C182.527 187.602 183.994 183.878 186.065 181.254C188.197 186.004 192.537 189.714 198.056 190.829C200.686 191.372 203.272 191.267 205.691 190.618Z" fill="white"/>
<path d="M215.247 182.852C213.024 181.706 210.272 182.566 209.123 184.797C207.158 188.598 202.123 190.618 197.148 189.623C194.155 189.02 191.554 187.436 189.86 185.19C188.288 183.109 187.683 180.681 188.152 178.373L190.102 168.813C190.601 166.355 189.014 163.972 186.549 163.459C184.085 162.962 181.696 164.545 181.182 166.988L179.231 176.549C178.203 181.54 172.518 184.601 166.545 183.395C161.571 182.385 157.73 178.554 157.413 174.287C157.216 171.783 155.039 169.914 152.544 170.11C150.034 170.306 148.16 172.477 148.356 174.965C148.991 183.32 155.72 190.437 164.731 192.277C170.885 193.529 176.918 192.081 181.363 188.794C181.726 189.427 182.149 190.03 182.588 190.633C185.627 194.66 190.148 197.45 195.319 198.505C196.801 198.807 198.282 198.958 199.734 198.958C207.143 198.958 213.947 195.203 217.167 188.975C218.316 186.758 217.454 184.013 215.217 182.867L215.247 182.852Z" fill="#E2AB8C"/>
<path d="M195.591 162.66C193.852 160.006 190.299 159.267 187.638 160.986L186.988 161.408L186.564 160.775C184.826 158.121 181.272 157.382 178.611 159.101C175.95 160.835 175.209 164.379 176.933 167.033L178.415 169.31C181.287 173.714 187.199 174.95 191.614 172.085L193.898 170.607C196.559 168.873 197.3 165.329 195.576 162.675L195.591 162.66Z" fill="#FF7AA8"/>
<path d="M315.432 257.619C314.313 257.619 313.179 257.197 312.302 256.367C310.821 254.965 310.503 252.793 311.365 251.059C312.106 249.566 313.648 248.526 315.447 248.526C317.957 248.526 319.998 250.561 319.998 253.065C319.998 254.226 319.53 255.372 318.728 256.216C317.836 257.151 316.642 257.619 315.432 257.619Z" fill="#E2AB8C"/>
<path d="M193.64 293.087C193.64 293.087 294.052 199.003 316.385 226.946C338.717 254.889 252.034 314.953 252.034 314.953L193.64 293.087Z" fill="#FFD5AE"/>
<path d="M312.635 142.257C315.855 139.15 317.836 135.441 318.562 131.203C319.62 124.945 317.836 117.888 313.255 110.182C318.562 106.321 325.275 100.38 329.736 92.5531C335.965 81.6201 336.056 69.8728 329.993 58.5477C322.191 43.9955 306.859 34.3142 288.972 32.6704C269.875 30.9061 251.338 38.612 239.167 53.2999C229.384 49.1227 219.783 45.9861 210.923 44.1916C202.062 42.3971 192.008 41.5224 181.363 41.5526C175.92 23.2907 161.873 8.96469 143.624 3.12873C126.523 -2.34531 108.606 0.580209 95.7234 10.9251C85.6988 18.9778 81.1628 29.8354 82.6143 42.3217C83.6576 51.2641 87.4981 59.347 90.8698 64.9869C83.6273 70.2951 79.1972 76.0858 77.7305 82.2686C76.7326 86.4457 77.1106 90.638 78.8343 94.7397C75.4474 96.6851 70.3671 99.8217 65.1507 103.788C52.6313 113.303 45.8273 122.698 44.9201 131.716C44.3002 137.853 46.3565 143.508 51.0437 148.59C47.294 151.802 41.8357 157.201 37.209 164.62C31.0098 174.558 25.3246 189.849 29.9513 209.242C20.6072 209.559 13.0169 212.575 7.33182 218.245C2.05494 223.508 -0.0920967 229.902 1.1175 236.748C3.3855 249.596 17.6285 264.48 43.4837 280.963C62.1569 292.876 79.923 301.2 80.6638 301.547C81.2838 301.833 81.9339 301.969 82.5841 301.969C84.2926 301.969 85.9256 301.004 86.6967 299.36C87.7551 297.098 86.7874 294.399 84.5043 293.328C65.0449 284.25 13.7427 256.096 10.0685 235.18C9.37302 231.214 10.5373 227.866 13.7578 224.654C18.2787 220.145 24.5233 218.064 32.7939 218.29C32.9753 218.773 33.1568 219.255 33.3533 219.738C40.9587 238.286 55.5495 252.341 76.7024 261.494C91.9585 268.084 110.314 272.035 131.286 273.242C131.376 273.242 131.467 273.242 131.558 273.242C133.947 273.242 135.958 271.387 136.094 268.974C136.245 266.471 134.325 264.329 131.815 264.194C72.2118 260.786 49.9551 236.281 41.7601 216.315C34.9409 199.681 35.9389 183.998 44.7387 169.702C51.4671 158.785 60.4635 152.722 60.5542 152.677C61.7638 151.878 62.535 150.536 62.5954 149.088C62.6559 147.64 62.0209 146.238 60.8718 145.333C55.7763 141.307 53.5083 137.145 53.9619 132.636C55.2925 119.426 78.2749 105.039 87.0142 100.606C88.1633 100.018 89.0252 98.9772 89.3578 97.7256C89.6905 96.4739 89.4637 95.1469 88.753 94.0611C86.5304 90.6983 85.8046 87.5315 86.5606 84.3647C87.8307 79.0565 93.2134 73.5674 102.149 68.4855C112.673 62.4987 127.657 57.4469 144.319 54.2499C167.392 49.8315 190.994 49.3942 209.093 53.0737C227.192 56.7532 248.753 66.3592 268.243 79.4486C282.319 88.8736 294.113 99.3693 301.461 109.005C307.676 117.164 310.488 124.312 309.566 129.695C309.021 132.907 307.116 135.546 303.744 137.763C302.656 138.472 301.945 139.618 301.748 140.9C301.567 142.181 301.93 143.478 302.762 144.458C302.822 144.534 308.628 151.441 313.739 160.413C320.134 171.633 322.508 180.771 320.618 186.833C319.257 191.161 315.553 194.117 309.278 195.821C307.872 196.213 306.738 197.238 306.224 198.596C305.71 199.953 305.891 201.476 306.693 202.697C306.753 202.788 311.017 209.318 313.466 219.105C311.289 218.109 308.84 217.506 306.118 217.31C291.043 216.224 266.912 228.228 234.344 252.959C221.809 262.475 210.348 272.156 202.289 279.198C197.541 277.63 192.779 275.881 188.091 273.95C185.763 273 183.117 274.101 182.164 276.424C181.212 278.746 182.316 281.385 184.644 282.335C187.91 283.677 191.221 284.929 194.517 286.12C191.992 288.397 190.541 289.754 190.496 289.8C188.666 291.519 188.575 294.384 190.299 296.209C192.023 298.033 194.895 298.124 196.725 296.405C218.195 276.288 279.583 224.488 305.498 226.358C308.764 226.599 311.153 227.715 312.801 229.796C315.084 232.661 315.901 236.07 315.296 240.217C311.894 263.379 266.579 299.345 249.418 311.243C247.362 312.676 246.848 315.496 248.284 317.547C249.161 318.813 250.582 319.492 252.019 319.492C252.911 319.492 253.818 319.236 254.604 318.678C257.25 316.838 319.635 273.302 324.292 241.528C324.701 238.754 324.67 236.13 324.247 233.657C324.549 220.145 320.134 208.82 317.08 202.667C323.385 199.817 327.483 195.414 329.327 189.533C332.034 180.892 329.448 169.582 321.677 155.934C318.441 150.249 314.978 145.378 312.635 142.272V142.257ZM142.626 45.3377C125.464 48.6251 109.876 53.8579 98.5659 60.101C84.5648 36.7722 94.2718 23.728 101.439 17.9674C111.947 9.53773 126.674 7.20033 140.872 11.7394C155.478 16.3991 166.878 27.5131 171.913 41.7939C162.312 42.2764 152.408 43.4527 142.626 45.3377ZM308.099 102.702C300.146 92.523 287.853 81.6201 273.338 71.9086C265.067 66.3592 256.419 61.4129 247.77 57.2207C258.006 46.0464 272.869 40.2859 288.14 41.6883C302.973 43.0606 315.629 50.9474 321.979 62.8154C326.318 70.9133 330.129 86.7172 308.099 102.717V102.702Z" fill="#E2AB8C"/>
<path d="M205.449 221.427C204.209 222.965 202.849 224.413 201.321 225.77C198.207 228.514 194.487 230.746 190.042 232.299C188.817 232.707 187.577 233.069 186.322 233.34C186.307 233.34 186.307 233.325 186.292 233.325C186.292 233.325 186.292 233.34 186.277 233.34C178.596 243.851 161.48 251.843 148.568 244.756C140.463 240.307 138.846 228.846 146.587 220.432C151.199 215.41 162.554 211.564 168.435 210.675C182.709 208.548 201.911 219.331 205.464 221.427H205.449Z" fill="#FF7AA8"/>
<path d="M275.077 182.551C277.904 168.722 268.953 155.226 255.088 152.406C241.223 149.586 227.691 158.513 224.863 172.341C222.036 186.17 230.987 199.666 244.852 202.486C258.717 205.306 272.249 196.379 275.077 182.551Z" fill="white"/>
<path d="M135.334 172.219C145.315 165.426 147.884 151.849 141.073 141.895C134.262 131.941 120.65 129.378 110.669 136.171C100.688 142.964 98.1188 156.54 104.93 166.495C111.741 176.449 125.353 179.012 135.334 172.219Z" fill="white"/>
<path d="M140.463 159.629C141.643 153.853 137.908 148.198 132.102 147.022C126.311 145.846 120.641 149.571 119.462 155.361C118.282 161.152 122.017 166.792 127.823 167.968C133.614 169.144 139.284 165.42 140.463 159.629Z" fill="#605C5D"/>
<path d="M261.287 171.783C262.739 164.696 258.158 157.789 251.051 156.342C243.945 154.894 237.02 159.463 235.568 166.551C234.117 173.638 238.698 180.545 245.804 181.993C252.911 183.44 259.836 178.871 261.287 171.783Z" fill="#605C5D"/>
</svg>
