<svg width="303" height="335" viewBox="0 0 303 335" fill="none" xmlns="http://www.w3.org/2000/svg">
<path d="M267.051 126.376C275.639 116.623 273.523 108.156 267.369 101.352C256.603 89.4526 233.53 82.5579 233.53 82.5579C239.503 68.6475 227.83 58.9555 208.673 53.7089L218.274 54.3439C222.311 44.3798 228.904 20.7775 207.312 8.99906C180.641 -5.54637 143.037 14.0038 139.726 49.0822L151.973 49.8986C137.05 51.2443 122.429 54.2986 110.363 59.1219C98.3121 63.93 85.6113 71.7773 73.8782 81.0761L82.1791 72.0646C55.6133 48.9159 14.88 60.649 5.58117 89.5584C-1.96371 112.964 19.0682 125.544 28.8509 129.989L35.3676 122.913C25.1011 139.908 23.3169 154.983 37.2273 160.94C37.2273 160.94 25.2523 181.836 25.6605 197.878C25.8873 207.056 30.1814 214.646 43.1241 215.81C43.1241 215.81 42.9125 216.309 42.5647 217.262C39.9338 224.61 30.2268 258.283 62.7045 280.585C75.1332 289.112 88.7563 292.091 102.304 291.683C107.656 315.784 137.261 334.215 172.975 334.215C212.483 334.215 244.523 311.671 244.523 283.85C244.523 269.94 236.509 257.345 223.566 248.228C252.4 240.622 289.641 223.764 297.488 186.825C306.726 143.37 267.066 126.376 267.066 126.376H267.051Z" fill="#F8D4AE"/>
<path d="M171.871 49.0822C187.823 49.2636 202.973 51.4107 214.434 55.4628C216.52 44.395 217.594 25.1624 201.385 21.1102C184.194 16.801 175.288 37.9841 171.871 49.0671V49.0822Z" fill="#FFF1E6"/>
<path d="M32.4343 128.145C37.938 117.304 47.4333 105.329 58.8943 94.2002C48.7639 88.5151 27.7168 79.3071 18.2366 94.2607C9.28557 108.353 23.3018 121.552 32.4343 128.145Z" fill="#FFF1E6"/>
<path d="M62.6894 280.569C114.944 316.434 188.291 254.261 188.291 254.261C188.291 254.261 284.273 248.802 297.473 186.81C306.711 143.355 267.051 126.36 267.051 126.36C275.639 116.608 273.523 108.141 267.369 101.337C254.986 125.68 238.248 141.42 205.694 144.731C183.649 146.954 161.499 116.684 137.231 126.376C112.979 136.067 117.756 173.278 100.247 186.84C74.3772 206.859 51.3796 206.98 25.6454 197.863C25.8722 207.041 30.1663 214.631 43.109 215.795C43.109 215.795 42.8973 216.294 42.5495 217.247C39.9187 224.595 30.2116 258.267 62.6894 280.569Z" fill="#FFF1E6"/>
<path d="M239.125 175.861C256.631 175.174 270.265 160.425 269.577 142.919C268.889 125.413 254.14 111.779 236.634 112.467C219.128 113.155 205.495 127.903 206.182 145.409C206.87 162.915 221.619 176.549 239.125 175.861Z" fill="#FD9DB4"/>
<path d="M105.203 222.119C112.646 206.259 105.822 187.368 89.9625 179.925C74.1027 172.483 55.2121 179.306 47.7693 195.166C40.3265 211.026 47.1498 229.916 63.0097 237.359C78.8696 244.802 97.7602 237.978 105.203 222.119Z" fill="#FD9DB4"/>
<path d="M288.431 137.852C282.701 131.516 276.532 127.389 272.585 125.136C276.229 119.647 277.272 114.068 275.685 108.504C273.387 100.505 265.66 93.0965 252.702 86.4588C246.987 83.5407 241.544 81.439 238.142 80.2294C239.805 73.5463 238.036 67.332 232.925 62.0854C230.219 59.3033 226.545 56.8236 222.054 54.6766C224.262 48.9461 226.59 40.6906 226.046 32.1024C225.305 20.5508 219.438 11.4636 209.066 5.79361C195.655 -1.52447 178.902 -1.22206 164.235 6.56474C148.435 14.9715 137.972 30.5602 136.173 48.3111C126.239 50.0499 116.97 52.5447 109.062 55.7199C101.14 58.88 92.7026 63.4462 84.2959 69.0406C70.7484 57.4133 52.4229 53.3158 35.1861 58.1088C19.1892 62.5541 6.85125 73.879 2.14893 88.4244C-1.47987 99.6737 0.531087 110.318 7.95501 119.194C13.4738 125.801 20.8524 130.201 26.4014 132.817C24.6172 137.459 23.6647 141.798 23.6193 145.669C23.5286 153.002 26.5224 158.732 32.3284 162.422C30.6955 165.642 28.1856 170.904 26.0536 176.967C21.2304 190.696 20.7314 201.386 24.587 208.765C27.2632 213.89 31.8597 217.217 38.3008 218.683C35.0349 229.721 29.0172 261.805 60.6784 283.533C73.0768 292.045 86.5336 295.296 99.8846 295.296C119.843 295.296 139.59 288.008 155.209 280.04C156.993 279.133 157.703 276.941 156.796 275.156C155.889 273.372 153.697 272.662 151.912 273.569C127.6 285.982 92.7631 296.733 64.7911 277.545C51.924 268.715 44.6361 257.058 43.109 242.89C41.8994 231.565 44.742 222.025 46.012 218.456C46.2993 217.685 46.4808 217.247 46.4959 217.201C46.9495 216.128 46.8739 214.903 46.2842 213.905C45.6945 212.907 44.6512 212.257 43.487 212.151C37.1971 211.592 33.1298 209.384 31.0432 205.408C25.1464 194.113 35.806 170.768 40.4176 162.709C40.9317 161.817 41.0376 160.728 40.7049 159.745C40.3723 158.763 39.6465 157.961 38.694 157.553C33.2961 155.24 30.8164 151.49 30.892 145.729C31.0281 134.661 40.8864 117.954 57.2462 101.004C73.7724 83.8884 94.1541 69.464 111.754 62.4332C129.353 55.4024 154.06 51.8189 177.828 52.8471C201.37 53.8601 220.028 59.1974 227.739 67.1203C231.746 71.233 232.532 75.6631 230.219 81.061C229.811 82.0135 229.826 83.0871 230.264 84.0245C230.703 84.962 231.519 85.6726 232.517 85.9599C241.393 88.6059 265.222 98.1768 268.73 110.454C269.969 114.763 268.533 119.179 264.36 123.911C263.589 124.788 263.286 125.967 263.543 127.101C263.8 128.235 264.587 129.188 265.645 129.642C265.736 129.687 275.125 133.8 283.245 142.872C293.904 154.771 297.503 169.286 293.95 186.009C286.858 219.349 253.927 235.557 227.558 243.283C225.638 243.843 224.534 245.869 225.093 247.789C225.653 249.709 227.679 250.813 229.599 250.254C257.873 241.968 293.209 224.353 301.056 187.521C306.152 163.571 297.004 147.271 288.446 137.806L288.431 137.852ZM51.9844 95.9995C41.8692 106.478 34.158 116.82 29.3498 126.194C5.3846 114.869 6.30692 99.1143 9.02852 90.6471C12.9597 78.4453 23.453 68.8894 37.0912 65.0943C51.3796 61.1328 66.5147 64.2173 78.0664 73.3347C68.9491 79.9572 60.0132 87.6684 51.9844 95.9845V95.9995ZM143.596 47.1771C145.683 32.6165 154.528 19.9459 167.622 12.9907C180.111 6.33794 194.294 6.03553 205.558 12.1742C213.36 16.423 224.867 27.2187 215.311 51.9247C205.362 48.4471 192.661 46.2548 178.115 45.6197C166.564 45.1208 154.77 45.6802 143.596 47.162V47.1771Z" fill="#D3A98C"/>
<path d="M136.445 191.966C140.527 194.37 145.169 196.049 149.856 196.759C155.027 197.545 160.274 197.137 164.885 195.308C173.64 191.77 180.353 182.834 183.045 173.278C184.859 166.943 184.904 160.335 182.636 154.847C181.775 152.76 180.61 150.855 179.053 149.192C166.231 135.145 159.866 151.127 148.858 155.587C137.836 160.018 122.187 152.911 122.67 171.917C122.897 180.218 128.673 187.43 136.445 191.996V191.966Z" fill="#5F5C5D"/>
<path d="M136.445 191.966C140.527 194.37 145.169 196.049 149.856 196.759C155.027 197.545 160.274 197.137 164.885 195.308C173.64 191.77 180.353 182.834 183.045 173.278C178.962 170.874 174.32 169.211 169.633 168.485C164.447 167.714 159.215 168.107 154.604 169.951C145.849 173.49 139.151 182.41 136.445 191.966Z" fill="#E27FA3"/>
<path d="M154.816 200.751C147.422 200.751 139.59 198.438 132.892 194.053C124.303 188.413 119.268 180.369 119.042 171.978L126.299 171.796C126.45 177.784 130.306 183.68 136.868 187.99C145.154 193.433 155.874 195.02 163.51 191.936C171.16 188.851 177.768 180.278 179.975 170.617C181.714 162.966 180.399 156.041 176.362 151.626L181.714 146.727C187.384 152.926 189.319 162.225 187.051 172.235C184.315 184.3 176.135 194.688 166.216 198.679C162.723 200.086 158.822 200.781 154.785 200.781L154.816 200.751Z" fill="#F8D4AE"/>
<path d="M181.744 146.712C170.48 134.389 161.877 141.496 155.602 146.697C154.014 148.012 152.396 149.343 150.733 150.447L147.014 141.133L140.27 143.824L144.005 153.168C142.039 153.531 139.937 153.697 137.881 153.849C129.762 154.453 118.633 155.3 119.057 171.993C119.102 173.958 120.72 175.531 122.686 175.531C122.716 175.531 122.746 175.531 122.776 175.531C124.787 175.485 126.36 173.807 126.314 171.811C126.057 162.029 129.928 161.726 138.425 161.091C142.145 160.804 146.379 160.486 150.234 158.929C154.09 157.372 157.356 154.68 160.244 152.291C166.806 146.863 169.799 144.384 176.392 151.611C177.737 153.093 180.036 153.199 181.517 151.838C182.999 150.492 183.105 148.194 181.744 146.712Z" fill="#D3A98C"/>
<path d="M133.436 138.804C134.585 136.068 137.745 134.782 140.482 135.931L141.147 136.204L141.419 135.538C142.568 132.802 145.728 131.516 148.465 132.666C151.202 133.815 152.487 136.975 151.338 139.711L150.34 142.055C148.42 146.591 143.188 148.723 138.652 146.818L136.309 145.82C133.572 144.671 132.287 141.511 133.436 138.774V138.804Z" fill="#E27FA3"/>
<path d="M180.051 134.828C179.567 134.828 179.083 134.737 178.614 134.525C176.77 133.739 175.923 131.607 176.709 129.762C181.775 117.954 195.519 112.465 207.327 117.53C209.172 118.317 210.019 120.464 209.232 122.293C208.446 124.138 206.314 124.985 204.47 124.198C196.335 120.706 186.885 124.486 183.392 132.62C182.803 133.996 181.457 134.813 180.051 134.813V134.828Z" fill="#5F5C5D"/>
<path d="M83.676 173.308C83.1921 173.308 82.7083 173.217 82.2395 173.006C80.3949 172.22 79.5482 170.072 80.3344 168.243C85.3996 156.434 99.1437 150.946 110.952 156.011C112.797 156.797 113.644 158.944 112.858 160.774C112.071 162.618 109.924 163.465 108.095 162.679C99.9602 159.186 90.5102 162.966 87.0175 171.101C86.4278 172.477 85.0821 173.293 83.676 173.293V173.308Z" fill="#5F5C5D"/>
</svg>
