<svg width="335" height="276" viewBox="0 0 335 276" fill="none" xmlns="http://www.w3.org/2000/svg">
<path d="M307.645 84.9671L313.663 90.0189C321.177 85.3894 336.993 72.9785 328.39 54.7468C317.775 32.2324 283.362 26.9544 264.16 48.5339L271.856 54.9881C261.317 48.6696 250.159 43.6178 239.847 40.9637C229.52 38.3096 217.303 37.3595 205.026 37.8119L214.884 35.8667C208.518 7.7123 175.829 -4.24615 155.629 10.3664C139.269 22.1891 147.101 40.6772 151.425 48.3529L159.167 46.8298C144.122 53.088 135.625 62.1963 141.945 72.8579C141.945 72.8579 97.22 92.6881 119.235 111.975C119.235 111.975 118.842 112.202 118.161 112.669C112.854 116.258 90.0682 133.811 100.788 164.273C111.448 194.569 145.634 203.994 170.189 206.768C154.585 211.775 143.638 223.477 143.638 237.109C143.638 255.296 163.143 270.044 187.199 270.044C211.255 270.044 235.81 255.296 235.81 237.109C235.81 231.56 229.036 222.934 230.76 223.507C252.835 230.821 281.246 234.335 301.884 215.937C329.085 191.673 311.047 161.257 311.047 161.257C339.669 154.968 310.094 116.062 310.094 116.062C320.799 109.759 317.775 97.7248 307.645 84.9822V84.9671Z" fill="#F8D4AE"/>
<path d="M285.449 64.0813C295.942 71.9229 304.939 80.6693 310.548 88.9029C317.292 82.5995 327.331 70.3998 318.562 59.889C309.263 48.7148 293.085 58.4112 285.434 64.0813H285.449Z" fill="#FFF1E6"/>
<path d="M154.676 48.8655C163.582 44.3717 175.678 41.039 188.681 39.2294C184.72 30.5735 175.239 14.2871 161.707 19.5952C148.93 24.5867 151.818 40.089 154.676 48.8655Z" fill="#FFF1E6"/>
<path d="M219.873 118.233C200.928 113.363 186.7 140.446 170.008 141.321C144.515 142.648 130.62 131.202 119.22 111.96C119.22 111.96 88.6924 129.905 100.773 164.243C118.01 213.238 196.785 207.643 196.785 207.643C196.785 207.643 263.056 250.485 301.869 215.892C329.07 191.628 311.032 161.211 311.032 161.211C291.739 172.582 274.033 175.899 252.351 162.463C238.169 153.656 238.819 123.089 219.873 118.218V118.233Z" fill="#FFF1E6"/>
<path d="M252.744 172.205C256.328 158.301 270.541 149.932 284.481 153.521C298.422 157.095 306.813 171.27 303.215 185.174C299.631 199.077 285.419 207.447 271.478 203.858C257.537 200.284 249.146 186.109 252.744 172.205Z" fill="#FD9DB4"/>
<path d="M160.629 158.717C169.23 147.203 166.845 130.915 155.301 122.336C143.757 113.758 127.425 116.137 118.824 127.65C110.222 139.164 112.608 155.452 124.152 164.031C135.696 172.61 152.027 170.231 160.629 158.717Z" fill="#FD9DB4"/>
<path d="M330.113 79.4176C335.36 71.2292 335.889 62.1661 331.656 53.2086C326.228 41.6875 314.797 33.6348 301.083 31.6744C286.492 29.5782 271.932 34.7507 261.983 45.5479C254.665 41.974 247.422 39.1993 240.724 37.4802C234.026 35.761 226.345 34.7054 218.195 34.3134C214.702 20.0778 204.466 8.52653 190.677 3.32393C177.719 -1.56199 163.809 -0.00871438 153.482 7.45588C145.438 13.2768 141.507 21.4652 142.142 31.1616C142.58 38.0532 145.196 44.3868 147.555 48.8505C144.273 51.022 141.658 53.3594 139.798 55.8325C136.154 60.6581 135.262 65.906 137.152 71.1689C129.411 75.0746 111.69 85.3139 109.709 98.2827C108.999 102.973 110.329 107.391 113.701 111.478C105.733 117.691 87.0443 136.073 97.3712 165.479C102.497 180.046 113.157 191.417 129.078 199.289C140.539 204.959 154.495 208.714 170.567 210.448C172.548 210.659 174.332 209.226 174.559 207.251C174.771 205.275 173.334 203.496 171.353 203.27C125.797 198.323 109.694 178.689 104.205 163.081C100.032 151.198 100.834 140.145 106.61 130.207C111.236 122.245 117.662 117.389 120.187 115.67C120.732 115.308 121.049 115.112 121.079 115.097C122.077 114.509 122.727 113.483 122.833 112.322C122.939 111.176 122.486 110.045 121.624 109.276C117.904 106.019 116.347 102.777 116.861 99.3684C118.388 89.3402 136.547 79.2216 143.412 76.1604C144.349 75.7381 145.075 74.9388 145.392 73.9586C145.71 72.9784 145.589 71.9078 145.06 71.0332C142.761 67.1425 142.928 63.6741 145.589 60.1454C150.957 53.0276 165.457 46.8297 184.357 43.5725C203.529 40.2699 223.941 40.6017 238.925 44.4471C253.924 48.2925 271.947 57.8381 287.127 69.9625C302.111 81.9209 311.803 94.3317 313.058 103.154C313.678 107.527 312.151 110.633 308.25 112.94C307.358 113.468 306.738 114.343 306.541 115.353C306.345 116.364 306.587 117.404 307.207 118.234C307.252 118.294 311.486 123.904 315.039 130.991C319.454 139.783 320.905 146.825 319.227 151.349C318.033 154.576 315.099 156.672 310.261 157.728C309.127 157.969 308.189 158.754 307.721 159.809C307.252 160.865 307.328 162.086 307.917 163.081C308.583 164.228 324.05 191.311 299.45 213.238C286.946 224.382 263.056 233.852 220.236 215.68C218.407 214.896 216.275 215.756 215.489 217.581C214.702 219.42 215.564 221.532 217.394 222.316C232.408 228.679 246.56 232.238 259.458 232.917C260.924 232.992 262.361 233.038 263.782 233.038C279.915 233.038 293.508 228.197 304.258 218.621C319.454 205.079 321.329 189.667 320.225 179.127C319.529 172.491 317.624 166.972 316.112 163.474C321.026 161.513 324.338 158.286 325.986 153.837C330.537 141.532 319.968 124.009 315.084 116.861C319.287 113.152 321.041 108.13 320.195 102.158C319.756 99.097 318.607 95.7794 316.778 92.311C321.011 89.5514 326.364 85.2536 330.083 79.4327L330.113 79.4176ZM183.132 36.4547C171.565 38.4453 161.586 41.4763 153.86 45.2614C149.399 36.8015 144.863 22.5811 157.73 13.2767C166.092 7.22966 177.462 6.02329 188.137 10.0496C199.083 14.1665 207.339 23.0486 210.665 34.1022C201.624 34.1022 192.234 34.8864 183.132 36.4547ZM313.028 86.1433C308.084 79.116 300.826 71.6514 291.663 64.3376C284.451 58.5771 276.589 53.3745 268.681 49.0164C276.951 40.9486 288.488 37.1484 300.055 38.8072C311.349 40.4358 320.709 46.9655 325.109 56.2698C331.867 70.6109 321.026 80.8804 313.013 86.1433H313.028Z" fill="#D3A98C"/>
<path d="M164.474 125.909C162.977 131.7 166.47 137.611 172.291 139.104C178.097 140.597 184.024 137.114 185.521 131.308C187.018 125.517 183.525 119.606 177.704 118.113C171.898 116.62 165.971 120.103 164.474 125.909Z" fill="#5F5C5D"/>
<path d="M243.627 146.237C242.13 152.028 245.623 157.939 251.444 159.432C257.25 160.925 263.177 157.442 264.674 151.636C266.171 145.845 262.678 139.934 256.857 138.441C251.036 136.948 245.124 140.431 243.627 146.237Z" fill="#5F5C5D"/>
<path d="M191.009 155.903C189.83 160.473 189.815 164.982 190.767 169.008C192.249 175.311 196.09 180.393 201.488 182.459C202.017 182.685 202.576 182.851 203.151 183.002C209.441 184.616 215.988 181.992 220.781 176.684C221.99 175.342 223.109 173.818 224.062 172.16C225.286 170.033 226.254 167.666 226.904 165.117C227.706 162.011 227.887 159.176 227.585 156.657C227.554 156.401 227.524 156.145 227.449 155.888C226.269 149.057 221.219 144.548 214.43 142.603C214.173 142.527 213.916 142.452 213.644 142.392C213.372 142.316 213.115 142.256 212.858 142.196C205.963 140.642 199.356 142.15 195.001 147.564C194.835 147.745 194.684 147.956 194.532 148.152C193.035 150.218 191.826 152.782 191.025 155.903H191.009Z" fill="#5F5C5D"/>
<path d="M190.768 168.993C192.249 175.296 196.09 180.378 201.488 182.444C202.017 182.67 202.576 182.836 203.151 182.987C209.441 184.601 216.003 181.977 220.781 176.669C219.299 170.365 215.459 165.283 210.061 163.217C209.531 162.991 208.972 162.825 208.398 162.674C202.108 161.061 195.545 163.685 190.768 168.993Z" fill="#E27FA3"/>
<path d="M206.84 187.059C205.313 187.059 203.771 186.863 202.244 186.471C190.42 183.44 183.812 169.31 187.502 154.984C188.394 151.515 189.77 148.499 191.599 146.011L197.435 150.264C196.15 152.013 195.167 154.199 194.502 156.778C191.796 167.259 196.075 177.438 204.043 179.489C212.011 181.539 220.69 174.678 223.396 164.198C224.062 161.634 224.258 159.251 223.986 157.11L231.153 156.205C231.531 159.251 231.289 162.539 230.397 165.992C227.177 178.463 217.182 187.044 206.84 187.044V187.059Z" fill="#F8D4AE"/>
<path d="M231.153 156.22C230.2 148.725 225.468 142.95 217.983 139.979L219.828 132.846L212.828 131.052L210.983 138.184C203.015 137.174 196.075 139.934 191.614 146.011C190.435 147.625 190.783 149.871 192.4 151.048C194.018 152.224 196.271 151.877 197.451 150.264C201.941 144.156 208.957 144.865 212.737 145.845C216.532 146.825 223.034 149.585 223.986 157.11C224.213 158.935 225.77 160.262 227.57 160.262C227.721 160.262 227.872 160.262 228.023 160.231C230.004 159.975 231.41 158.181 231.153 156.205V156.22Z" fill="#D3A98C"/>
<path d="M211.331 124.597C213.417 123.346 216.139 124.024 217.394 126.105L217.696 126.603L218.195 126.301C220.282 125.05 223.003 125.728 224.258 127.809C225.513 129.89 224.833 132.605 222.746 133.856L220.947 134.927C217.469 137.008 212.979 135.877 210.892 132.409L209.819 130.614C208.564 128.533 209.244 125.819 211.331 124.567V124.597Z" fill="#E27FA3"/>
<path d="M143.623 239.673C143.623 239.673 129.834 177.679 132.465 147.021L141.28 150.128L152.317 157.019L171.822 235.752L143.608 239.673H143.623Z" fill="#F8D4AE"/>
<path d="M166.026 237.272L182.255 233.251L144.383 81.1909L128.154 85.2116L166.026 237.272Z" fill="#FFBE8D"/>
<path d="M166.016 240.879C165.366 240.879 164.716 240.698 164.156 240.366C163.34 239.869 162.75 239.07 162.508 238.15L124.633 86.0981C124.224 84.4695 125.011 82.7654 126.507 82.0114C128.019 81.2574 129.849 81.6344 130.922 82.9313L155.508 112.458C155.855 112.88 156.097 113.363 156.233 113.891L185.748 232.404C186.231 234.334 185.052 236.295 183.117 236.777L166.878 240.804C166.591 240.879 166.303 240.909 166.001 240.909L166.016 240.879ZM135.474 99.6399L168.662 232.902L177.885 230.625L149.444 116.409L135.489 99.6399H135.474Z" fill="#EA9C71"/>
<path d="M152.741 114.735C102.709 92.9142 76.7475 167.786 26.7155 145.951C19.2764 116.107 11.8525 86.264 4.41345 56.4207C54.4455 78.2414 80.4066 3.36919 130.439 25.205C137.878 55.0484 145.302 84.8917 152.741 114.735Z" fill="#A3D676"/>
<path d="M45.1317 153.641C38.9022 153.641 32.3099 152.344 25.264 149.268C24.2358 148.816 23.4798 147.926 23.2077 146.84L0.905673 57.3104C0.573033 55.9833 1.02663 54.5658 2.08503 53.6912C3.14343 52.8015 4.61007 52.5903 5.86503 53.1483C29.0289 63.2519 46.6739 50.9315 65.3622 37.8873C84.8519 24.2701 105.022 10.2004 131.89 21.9327C132.918 22.3851 133.674 23.2748 133.947 24.3606L156.249 113.891C156.581 115.218 156.128 116.635 155.069 117.51C154.011 118.399 152.544 118.611 151.289 118.053C128.125 107.949 110.48 120.269 91.8071 133.314C77.428 143.357 62.6709 153.641 45.1468 153.641H45.1317ZM29.7849 143.327C52.1474 152.179 69.4144 140.13 87.6491 127.387C105.521 114.916 123.937 102.053 147.585 109.02L127.369 27.8289C105.007 18.977 87.7398 31.0259 69.5051 43.7685C55.126 53.8118 40.3689 64.0963 22.8448 64.1114C18.5961 64.1114 14.181 63.5082 9.56943 62.151L29.7849 143.342V143.327Z" fill="#87B758"/>
<path d="M132.979 150.475C131.27 139.21 133.856 129.483 145.15 127.779C156.445 126.075 166.984 133.826 168.692 145.106C170.401 156.371 162.629 166.882 151.319 168.586C140.025 170.29 134.672 161.754 132.964 150.49L132.979 150.475Z" fill="#F8D4AE"/>
<path d="M172.276 144.548C170.28 131.338 157.866 122.2 144.621 124.205C134.566 125.713 129.048 132.861 128.912 144.156C126.281 175.01 139.541 237.908 140.1 240.457C140.478 242.131 141.975 243.277 143.623 243.277C143.88 243.277 144.153 243.247 144.41 243.186C146.36 242.749 147.585 240.834 147.161 238.889C147.056 238.391 138.18 198.173 136.154 167.078C139.42 170.576 143.654 172.386 148.583 172.386C149.656 172.386 150.745 172.295 151.879 172.129C165.124 170.139 174.287 157.758 172.276 144.548ZM150.79 165.012C146.723 165.615 143.608 164.635 141.265 161.996C138.997 159.447 137.364 155.27 136.562 149.932C135.927 145.77 134.007 133.087 145.695 131.338C150.201 130.659 154.706 131.775 158.38 134.475C162.055 137.174 164.444 141.14 165.124 145.634C166.53 154.923 160.104 163.609 150.79 165.012Z" fill="#D3A98C"/>
<path d="M233.663 226.87C247.513 245.75 236.748 278.594 198.146 270.014C157.11 260.89 162.327 220.536 183.843 220.536C205.358 220.536 210.953 238.466 203.423 245.976C203.423 245.976 232.786 225.679 233.663 226.87Z" fill="#F8D4AE"/>
<path d="M210.257 275.066C206.432 275.066 202.153 274.613 197.36 273.542C172.079 267.918 162.372 250.847 163.96 236.4C165.23 224.94 173.395 216.932 183.843 216.932C195.833 216.932 205.162 222.18 208.806 230.957C211.437 237.29 210.333 244.197 205.978 248.525C204.572 249.927 202.274 249.927 200.868 248.525C199.461 247.122 199.461 244.83 200.868 243.428C203.136 241.166 203.635 237.35 202.123 233.716C199.628 227.729 192.794 224.14 183.843 224.14C176.071 224.14 171.867 230.685 171.157 237.185C169.433 252.777 183.873 263.137 198.947 266.485C214.944 270.044 227.343 266.244 232.967 256.035C238.169 246.579 236.173 233.942 228.205 225.995C226.798 224.593 226.798 222.301 228.205 220.898C229.611 219.496 231.909 219.496 233.315 220.898C243.506 231.062 246.016 247.303 239.303 259.503C236.46 264.66 228.477 275.035 210.272 275.035L210.257 275.066Z" fill="#D3A98C"/>
</svg>
