<svg width="337" height="326" viewBox="0 0 337 326" fill="none" xmlns="http://www.w3.org/2000/svg">
<path d="M305.521 96.5007L312.794 102.367C321.579 96.7118 340.04 81.6318 329.426 60.2182C316.332 33.783 275.433 28.3089 253.161 54.337L262.429 61.8016C249.804 54.5481 236.453 48.8177 224.161 45.9224C211.868 43.0119 197.368 42.1674 182.823 42.9968L194.465 40.4785C186.27 7.25722 147.26 -6.16396 123.658 11.6154C104.546 26.0017 114.253 47.732 119.576 56.7196L128.678 54.7442C111.003 62.5104 101.16 73.4886 108.901 85.9899C108.901 85.9899 56.3438 110.51 82.8794 132.859C82.8794 132.859 47.1206 154.83 62.2255 195.244C70.7381 218 90.3941 230.456 111.093 237.197C108.054 244.3 106.391 251.991 106.391 260.013C106.391 296.13 140.003 325.415 181.447 325.415C219.519 325.415 250.968 300.714 255.852 268.699C272.182 268.579 288.436 264.145 301.726 251.825C329.819 225.782 315.652 194.822 312.068 188.142C311.6 187.282 311.327 186.83 311.327 186.83C345.09 178.732 309.165 133.296 309.165 133.296C321.7 125.575 317.844 111.37 305.521 96.5007Z" fill="#F8D4AE"/>
<path d="M163.499 45.0627C148.152 47.5208 133.879 51.7281 123.431 57.2624C119.848 46.9326 116.068 28.6105 131.082 22.4126C147.018 15.8226 158.631 34.8988 163.499 45.0627Z" fill="#FFF1E6"/>
<path d="M309.09 101.13C302.24 91.5092 291.384 81.3603 278.759 72.2972C287.695 65.3906 306.655 53.5377 317.92 66.5669C328.549 78.8269 316.937 93.5148 309.09 101.13Z" fill="#FFF1E6"/>
<path d="M202.297 137.971C224.856 143.309 224.796 179.546 241.806 189.65C267.812 205.077 288.723 200.734 311.327 186.83C311.327 186.83 333.403 222.464 301.726 251.84C256.518 293.732 177.001 244.481 177.001 244.481C177.001 244.481 83.7715 252.91 62.2104 195.259C47.1055 154.83 82.8643 132.874 82.8643 132.874C96.805 155.418 113.543 168.658 143.722 166.502C163.484 165.084 179.723 132.662 202.282 137.986L202.297 137.971Z" fill="#FFF1E6"/>
<path d="M118.764 198.178C134.736 192.196 142.822 174.435 136.825 158.506C130.828 142.576 113.019 134.512 97.0477 140.493C81.0763 146.474 72.9904 164.236 78.9873 180.165C84.9842 196.094 102.793 204.159 118.764 198.178Z" fill="#FD9DB4"/>
<path d="M303.199 212.017C305.27 195.128 293.22 179.763 276.286 177.698C259.352 175.633 243.946 187.651 241.876 204.54C239.805 221.429 251.855 236.795 268.789 238.859C285.723 240.924 301.129 228.907 303.199 212.017Z" fill="#FD9DB4"/>
<path d="M331.452 89.0662C337.349 79.4602 337.757 68.9344 332.647 58.6347C326.039 45.3191 312.522 36.1806 296.465 34.1901C279.182 32.0487 262.112 38.5784 250.711 51.6829C241.821 47.5208 233.051 44.3389 224.992 42.4388C216.918 40.5388 207.665 39.453 197.852 39.1966C193.558 22.3975 181.25 8.916 164.83 3.09512C149.589 -2.30352 133.38 -0.192321 121.496 8.75012C112.288 15.6718 107.933 25.2627 108.871 36.4822C109.566 44.7913 112.968 52.3916 115.917 57.5792C111.91 60.2785 108.735 63.1738 106.527 66.22C102.339 71.9956 101.522 78.2237 104.063 84.4064C100.948 86.0502 96.0339 88.84 90.9687 92.4441C79.417 100.663 73.0363 108.896 71.9628 116.919C71.2219 122.483 73.0212 127.701 77.3002 132.451C73.8226 135.196 68.5004 140.021 63.9039 146.898C57.0092 157.213 50.5227 174.193 58.8538 196.496C63.8132 209.751 72.7642 220.73 85.465 229.099C95.6256 235.795 108.205 240.846 122.872 244.134C124.807 244.571 126.727 243.35 127.166 241.419C127.604 239.489 126.38 237.574 124.444 237.137C93.5088 230.215 73.7016 215.693 65.5822 193.993C59.7761 178.46 61.1672 164.029 69.7251 151.09C76.2418 141.243 84.6788 135.95 84.7544 135.905C85.7372 135.301 86.3722 134.261 86.4478 133.115C86.5385 131.969 86.0698 130.853 85.1777 130.114C80.4905 126.163 78.4947 122.167 79.0692 117.869C80.6871 105.639 102.248 93.0473 110.413 89.2321C111.335 88.7948 112.046 87.9955 112.333 87.0153C112.621 86.0351 112.484 84.9795 111.94 84.1049C108.946 79.2793 109.082 74.9212 112.333 70.4273C118.623 61.7261 135.815 53.9599 158.328 49.632C181.069 45.2588 205.367 45.1834 223.314 49.4209C241.261 53.6584 262.944 64.6064 281.299 78.6912C299.473 92.6251 311.343 107.268 313.051 117.869C313.943 123.358 312.099 127.294 307.26 130.28C306.383 130.823 305.794 131.697 305.612 132.708C305.431 133.718 305.688 134.743 306.323 135.543C311.902 142.615 325.495 163.501 321.443 175.158C320.022 179.26 316.423 181.944 310.466 183.377C309.347 183.648 308.424 184.432 307.986 185.488C307.548 186.543 307.638 187.75 308.243 188.73C308.273 188.775 308.5 189.167 308.878 189.861C310.617 193.118 314.714 201.88 315.168 212.903C315.727 226.716 310.375 238.931 299.262 249.231C283.945 263.436 262.641 268.171 235.939 263.331C233.989 262.984 232.114 264.266 231.766 266.211C231.418 268.156 232.704 270.026 234.654 270.373C241.881 271.685 248.746 272.333 255.263 272.333C274.949 272.333 291.339 266.362 304.161 254.464C331.513 229.114 321.231 199.195 316.483 188.971C322.456 186.634 326.402 182.788 328.247 177.465C330.908 169.82 328.897 159.595 322.274 147.079C319.371 141.59 316.226 136.9 314.185 134.035C319.235 129.646 321.292 123.72 320.158 116.678C319.553 112.968 318.026 108.957 315.667 104.749C320.626 101.432 327.098 96.1689 331.452 89.0511V89.0662ZM156.998 42.5745C143.102 45.2437 131.188 49.1645 122.101 53.8996C109.43 31.5963 118.941 19.6228 125.82 14.4504C135.769 6.9556 149.453 5.23648 162.426 9.83588C175.988 14.6464 186.3 25.504 190.398 39.1514C179.451 39.3173 168.035 40.4634 156.998 42.5896V42.5745ZM311.796 98.7476C305.824 90.4385 296.933 81.6016 285.699 72.9909C276.793 66.1596 267.117 60.0372 257.41 54.9854C267.207 44.6254 281.314 39.5435 295.588 41.3078C309.241 42.9968 320.687 50.6725 326.221 61.8166C330.046 69.5225 333.176 84.4819 311.796 98.7476Z" fill="#D3A98C"/>
<path d="M256.155 176.53C254.522 183.437 247.582 187.704 240.657 186.061C233.732 184.417 229.453 177.51 231.101 170.604C232.734 163.697 239.674 159.429 246.599 161.073C253.524 162.702 257.803 169.624 256.155 176.53Z" fill="#5F5C5D"/>
<path d="M161.881 154.257C160.249 161.164 153.308 165.431 146.383 163.788C139.459 162.159 135.18 155.237 136.828 148.331C138.461 141.424 145.401 137.156 152.326 138.8C159.251 140.429 163.53 147.35 161.881 154.257Z" fill="#5F5C5D"/>
<path d="M211.097 191.595C210.432 194.264 209.373 196.27 208.028 197.778C207.03 198.864 205.866 199.678 204.565 200.266C202.403 201.231 199.863 201.563 197.066 201.457C194.057 201.352 190.746 200.734 187.268 199.859C180.766 198.245 175.157 196.119 172.103 192.455C171.09 191.248 170.349 189.876 169.94 188.293C169.426 186.332 169.487 184.055 170.152 181.416C170.636 179.456 171.392 177.631 172.36 175.957C173.569 173.861 175.127 172.006 176.941 170.498C179.693 168.131 183.034 166.502 186.648 165.808C189.551 165.25 192.651 165.296 195.72 166.08C202.448 167.754 207.604 172.444 210.069 178.355C211.415 181.492 211.974 184.99 211.641 188.534C211.551 189.559 211.369 190.585 211.112 191.61L211.097 191.595Z" fill="#5F5C5D"/>
<path d="M204.55 200.266C202.388 201.231 199.848 201.563 197.051 201.457C194.042 201.352 190.73 200.734 187.253 199.859C180.751 198.245 175.142 196.119 172.087 192.455C174.718 190.268 177.909 188.79 181.326 188.142C184.229 187.584 187.328 187.629 190.398 188.413C196.945 190.042 202.01 194.551 204.565 200.266H204.55Z" fill="#E27FA3"/>
<path d="M197.958 205.077C194.057 205.077 190.005 204.277 186.376 203.373C178.241 201.352 168.61 197.899 166.417 189.167C165.767 186.574 165.828 183.663 166.614 180.542C167.521 176.937 169.169 173.665 171.528 170.815L177.062 175.384C175.399 177.405 174.219 179.712 173.584 182.276C173.085 184.251 173.025 186 173.388 187.433C174.371 191.369 178.922 194.144 188.115 196.421C197.156 198.668 202.418 198.396 205.185 195.561C206.274 194.445 207.075 192.817 207.604 190.736C208.285 188.036 208.315 185.307 207.695 182.607L214.696 181.009C215.557 184.749 215.512 188.715 214.575 192.47C213.743 195.802 212.322 198.517 210.341 200.553C207.03 203.961 202.6 205.092 197.958 205.092V205.077Z" fill="#F8D4AE"/>
<path d="M214.681 181.009C212.851 173.062 207.332 166.668 199.908 163.682L202.312 153.578L195.327 151.935L192.938 161.993C184.879 161.254 176.775 164.511 171.543 170.83C170.273 172.353 170.5 174.615 172.027 175.867C173.554 177.133 175.822 176.907 177.077 175.384C181.356 170.212 188.326 167.935 194.843 169.548C201.284 171.147 206.198 176.153 207.695 182.607C208.073 184.266 209.555 185.382 211.188 185.382C211.46 185.382 211.717 185.352 211.989 185.292C213.925 184.854 215.134 182.924 214.681 180.994V181.009Z" fill="#D3A98C"/>
<path d="M207.74 149.356C206.244 146.898 203.023 146.114 200.543 147.607L199.939 147.969L199.576 147.366C198.079 144.907 194.858 144.123 192.379 145.616C189.914 147.109 189.128 150.321 190.625 152.794L191.91 154.906C194.405 158.992 199.742 160.289 203.855 157.801L205.971 156.519C208.436 155.026 209.222 151.814 207.725 149.341L207.74 149.356Z" fill="#E27FA3"/>
<path d="M231.569 157.228H231.554C229.574 157.228 227.971 155.614 227.971 153.639C227.971 151.663 229.574 150.065 231.569 150.065C231.796 150.065 249.94 150.004 259.043 144.41C260.736 143.369 262.943 143.897 263.987 145.571C265.03 147.26 264.501 149.462 262.823 150.502C252.042 157.137 232.658 157.228 231.6 157.228H231.569Z" fill="#D3A98C"/>
<path d="M169.094 142.48C168.549 142.48 168.005 142.359 167.491 142.103C166.75 141.726 149.287 132.934 142.588 122.106C141.545 120.417 142.074 118.216 143.753 117.175C145.446 116.135 147.654 116.663 148.697 118.336C154.321 127.415 170.53 135.603 170.696 135.694C172.465 136.583 173.191 138.725 172.299 140.504C171.664 141.756 170.409 142.48 169.079 142.48H169.094Z" fill="#D3A98C"/>
<path d="M112.333 289.751C112.333 289.751 83.1064 231.949 79.9312 185.729L107.888 183.452C107.888 183.452 124.218 238.238 149.347 263.316L112.333 289.751Z" fill="#F8D4AE"/>
<path d="M149.347 266.905C148.425 266.905 147.502 266.558 146.807 265.849C138.642 257.706 122.675 237.484 107.374 193.39C106.724 191.52 107.722 189.484 109.597 188.835C111.471 188.187 113.513 189.182 114.163 191.052C129.555 235.372 145.673 254.584 151.887 260.782C153.293 262.185 153.293 264.447 151.887 265.849C151.192 266.543 150.269 266.905 149.347 266.905Z" fill="#D3A98C"/>
<path d="M91.8457 127.837L75.1683 134.065L110.126 225.254C111.849 229.838 116.99 232.175 121.602 230.456C126.213 228.737 128.542 223.625 126.818 219.026L91.8608 127.837H91.8457Z" fill="#95E0E8"/>
<path d="M118.472 234.603C113.407 234.603 108.629 231.512 106.754 226.52L71.7965 135.347C71.4487 134.457 71.479 133.462 71.8721 132.602C72.2652 131.728 72.991 131.049 73.8831 130.717L90.5604 124.489C92.4051 123.795 94.4765 124.73 95.172 126.57L130.129 217.759C131.309 220.896 131.188 224.273 129.812 227.305C128.436 230.336 125.941 232.643 122.827 233.819C121.39 234.362 119.908 234.618 118.457 234.618L118.472 234.603ZM79.8101 136.161L113.482 223.987C114.526 226.747 117.595 228.134 120.332 227.109C121.662 226.611 122.721 225.631 123.31 224.349C123.9 223.067 123.945 221.619 123.446 220.307L89.7742 132.451L79.8252 136.176L79.8101 136.161Z" fill="#63D3D6"/>
<path d="M86.9238 35.8635L18.2209 61.5234C8.60208 65.116 3.7245 75.8053 7.32657 85.3987L27.5664 139.303C31.1685 148.897 41.8862 153.761 51.505 150.169L120.208 124.509C129.827 120.916 134.704 110.227 131.102 100.634L110.862 46.729C107.26 37.1356 96.5426 32.271 86.9238 35.8635Z" fill="white"/>
<path d="M104.546 81.2095C98.4682 62.9929 78.6459 53.1004 60.3658 59.1626C51.5055 62.0881 44.3386 68.286 40.1504 76.6102C35.9773 84.9192 35.2968 94.3593 38.2452 103.181C43.1139 117.763 56.7824 127.007 71.4337 127.007C75.0776 127.007 78.782 126.434 82.4259 125.228C91.2862 122.303 98.4531 116.105 102.641 107.78C106.814 99.4714 107.495 90.0313 104.546 81.2095ZM45.0795 100.904C42.7359 93.8918 43.2802 86.3971 46.5915 79.8071C49.9027 73.2021 55.603 68.286 62.6489 65.9486C65.5368 64.9835 68.4852 64.5311 71.3883 64.5311C74.5181 64.5311 77.6026 65.0739 80.4905 66.0692L55.9054 115.079C50.9914 111.792 47.0904 106.906 45.0795 100.889V100.904ZM96.2153 104.568C92.904 111.173 87.2038 116.09 80.1579 118.412C77.27 119.377 74.3216 119.829 71.4185 119.829C68.2887 119.829 65.2042 119.287 62.3012 118.291L86.8863 69.2812C91.8003 72.5838 95.7012 77.4546 97.7122 83.4715C100.056 90.4837 99.5115 97.9785 96.2002 104.568H96.2153Z" fill="#DD528B"/>
<path d="M45.0341 154.905C36.0528 154.905 27.5705 149.416 24.229 140.549L3.93796 86.6685C1.8514 81.1341 2.06309 75.1172 4.51253 69.7337C6.96197 64.3501 11.377 60.2483 16.926 58.1673L85.6313 32.5011C97.0772 28.2335 109.884 34.0393 114.178 45.4398L134.469 99.3206C136.555 104.855 136.344 110.872 133.894 116.255C131.445 121.639 127.03 125.741 121.481 127.822L52.7755 153.488C50.2203 154.438 47.6045 154.89 45.019 154.89L45.0341 154.905ZM93.403 38.2617C91.6642 38.2617 89.8801 38.5633 88.1564 39.2117L19.4511 64.8779C15.7013 66.2803 12.7076 69.0551 11.0595 72.7044C9.39627 76.3387 9.26022 80.4103 10.6664 84.1652L30.9574 138.046C33.8604 145.767 42.5242 149.688 50.2657 146.808L118.971 121.141C122.721 119.739 125.714 116.964 127.363 113.315C129.026 109.681 129.162 105.609 127.756 101.854L107.465 47.9732C105.212 41.9713 99.4813 38.2617 93.403 38.2617Z" fill="#E2E2E2"/>
<path d="M79.9312 185.729C75.9395 172.262 77.4212 159.957 90.9234 155.961C104.426 151.98 118.608 159.656 122.6 173.107C126.591 186.558 118.895 200.718 105.408 204.7C91.9062 208.681 83.938 199.18 79.9312 185.714V185.729Z" fill="#F8D4AE"/>
<path d="M106.421 208.153C121.798 203.614 130.598 187.433 126.047 172.112C123.84 164.677 118.865 158.555 112.046 154.86C105.212 151.166 97.3645 150.336 89.9103 152.538C76.2418 156.579 71.3279 168.9 76.3931 186.377C77.7841 205.831 83.696 229.37 93.9776 256.364C101.659 276.526 109.067 291.229 109.143 291.379C109.778 292.631 111.033 293.355 112.348 293.355C112.893 293.355 113.437 293.234 113.966 292.978C115.735 292.088 116.446 289.932 115.554 288.167C115.297 287.67 93.6601 244.511 85.9489 203.704C89.8045 207.339 94.3859 209.239 99.5267 209.239C101.734 209.239 104.048 208.892 106.437 208.183L106.421 208.153ZM83.3785 184.719C79.2507 170.83 82.1386 162.31 91.9515 159.414C97.561 157.756 103.473 158.374 108.614 161.164C113.755 163.953 117.504 168.553 119.168 174.147C122.6 185.699 115.962 197.868 104.395 201.291C94.5824 204.187 87.5063 198.622 83.3785 184.719Z" fill="#D3A98C"/>
<path d="M275.327 272.198C272.923 262.35 268.568 253.891 263.352 248.009C260.766 237.333 254.552 229.928 242.804 231.195C228.803 232.703 218.687 245.25 220.215 259.214C220.986 266.271 224.584 272.349 229.755 276.42C230.058 278.561 230.466 280.733 230.995 282.935C236.106 303.956 250.182 318.614 262.43 315.643C274.677 312.687 280.453 293.234 275.327 272.198Z" fill="#F8D4AE"/>
<path d="M278.82 271.353C276.461 261.657 272.137 252.805 266.633 246.32C265.408 241.631 263.548 237.755 261.099 234.754C256.608 229.265 250.167 226.807 242.426 227.636C226.489 229.355 214.922 243.697 216.646 259.591C217.432 266.89 220.895 273.48 226.414 278.29C226.701 280.115 227.079 281.955 227.517 283.779C230.133 294.546 235.093 304.137 241.458 310.757C247.037 316.563 253.191 319.609 259.194 319.609C260.57 319.609 261.946 319.443 263.291 319.127C277.67 315.643 284.505 294.667 278.835 271.353H278.82ZM223.768 258.822C222.467 246.848 231.176 236.051 243.182 234.754C243.938 234.679 244.648 234.633 245.359 234.633C249.638 234.633 252.98 236.157 255.52 239.263C258.287 242.656 260.146 248.024 260.872 254.81C261.613 261.581 260.948 267.236 258.967 271.127C256.85 275.289 253.237 277.596 247.884 278.169C242.078 278.788 236.363 277.129 231.796 273.48C227.245 269.83 224.388 264.612 223.753 258.822H223.768ZM261.583 312.16C256.956 313.276 251.649 311.029 246.629 305.796C241.382 300.337 237.224 292.435 234.835 283.447C238.207 284.79 241.806 285.468 245.48 285.468C246.538 285.468 247.597 285.408 248.67 285.302C256.397 284.473 262.188 280.688 265.393 274.369C267.071 271.067 268.024 267.116 268.281 262.577C269.732 265.849 270.942 269.378 271.834 273.042C276.4 291.802 271.698 309.717 261.568 312.16H261.583Z" fill="#D3A98C"/>
</svg>
