<svg width="316" height="335" viewBox="0 0 316 335" fill="none" xmlns="http://www.w3.org/2000/svg">
<path d="M262.897 178.116C262.216 177.36 261.838 176.967 261.838 176.967C293.772 160.789 246.915 123.639 246.915 123.639C257.65 112.904 250.392 99.5224 234.501 87.502L243.195 91.6752C250.65 83.8884 265.573 64.3382 249.833 45.3324C230.404 21.851 188.068 26.0695 171.92 57.5342L183.003 62.8413C168.608 58.5472 153.851 55.9617 140.833 55.9617C127.815 55.9617 113.073 58.5472 98.6784 62.8413L109.761 57.5342C93.6283 26.0695 51.3074 21.851 31.848 45.3324C16.0929 64.3382 31.0164 83.8884 38.5008 91.6752L47.1645 87.5172C31.2885 99.5376 24.0309 112.904 34.7661 123.639C34.7661 123.639 -12.121 160.789 19.8275 176.967C19.8275 176.967 -10.8056 207.555 13.9761 244.629C29.4136 267.717 55.5712 274.884 80.1261 275.625C80.0808 276.517 80.0505 277.409 80.0505 278.316C80.0505 309.176 107.267 334.2 140.833 334.2C174.399 334.2 201.615 309.176 201.615 278.316C201.615 277.409 201.585 276.517 201.54 275.625C226.095 274.884 252.237 267.717 267.675 244.629C289.659 211.758 268.068 183.998 262.882 178.116H262.897Z" fill="#F8D4AE"/>
<path d="M79.7784 69.5093C64.9759 75.6178 51.6552 83.2534 42.4925 91.2972C36.4294 81.7565 28.2797 64.2324 41.8726 54.4346C56.2819 44.0169 72.4754 60.4373 79.7935 69.5093H79.7784Z" fill="#FFF1E6"/>
<path d="M35.8548 94.1851C31.5607 89.7096 25.8454 82.5427 22.9877 73.8335C19.3741 62.7959 21.4606 52.1364 29.0206 43.0039C38.8032 31.1952 54.5281 25.2379 71.0845 27.0523C89.0621 29.0179 104.726 39.7985 112.967 55.871L106.511 59.1823C99.3891 45.287 85.8415 35.9731 70.2982 34.2645C56.1761 32.7223 42.8403 37.7119 34.615 47.6306C28.8391 54.6009 22.02 69.2522 41.0863 89.1501L35.8397 94.17L35.8548 94.1851Z" fill="#D3A98C"/>
<path d="M140.833 153.743C164.738 153.743 173.296 190.212 192.785 196.336C222.541 205.665 242.485 196.336 261.853 176.967C261.853 176.967 292.487 207.555 267.705 244.629C232.339 297.504 140.833 266.856 140.833 266.856C140.833 266.856 49.3267 297.489 13.961 244.629C-10.8206 207.555 19.8125 176.967 19.8125 176.967C39.1812 196.336 59.1093 205.665 88.8806 196.336C108.355 190.212 116.928 153.743 140.833 153.743Z" fill="#FFF1E6"/>
<path d="M61.0341 238.691C78.1409 234.612 88.7023 217.438 84.6237 200.332C80.5452 183.225 63.3711 172.663 46.2643 176.742C29.1575 180.82 18.5961 197.995 22.6746 215.101C26.7532 232.208 43.9273 242.77 61.0341 238.691Z" fill="#FD9DB4"/>
<path d="M253.725 226.527C264.123 212.344 261.056 192.417 246.874 182.018C232.692 171.619 212.765 174.686 202.366 188.869C191.967 203.051 195.034 222.978 209.216 233.377C223.399 243.776 243.326 240.709 253.725 226.527Z" fill="#FD9DB4"/>
<path d="M197.079 279.314C195.764 279.314 194.418 279.299 193.073 279.269C191.062 279.224 189.489 277.545 189.535 275.549C189.58 273.538 191.258 271.966 193.254 272.011C227.017 272.858 251.043 262.97 264.651 242.603C273.36 229.585 275.824 215.992 271.969 202.217C268.884 191.21 262.685 183.363 260.16 180.505C259.616 179.9 259.283 179.553 259.253 179.522C258.436 178.691 258.058 177.527 258.24 176.377C258.421 175.228 259.147 174.245 260.175 173.716C265.845 170.843 268.809 167.275 269.262 162.785C270.547 150.038 251.92 132.257 244.632 126.466C243.815 125.816 243.316 124.864 243.256 123.835C243.195 122.807 243.588 121.794 244.314 121.053C248.487 116.88 249.395 112.45 247.187 107.128C242.938 96.8613 227.531 84.9468 205.97 75.2397C184.197 65.4269 159.824 59.5754 140.803 59.5754C121.782 59.5754 97.4234 65.4269 75.6355 75.2397C54.0744 84.9468 38.6671 96.8613 34.4184 107.128C32.2109 112.465 33.1181 116.895 37.2912 121.053C38.017 121.779 38.4101 122.792 38.3496 123.835C38.2891 124.864 37.7902 125.831 36.9737 126.466C29.6859 132.257 11.0429 150.069 12.3281 162.785C12.7817 167.275 15.7603 170.843 21.4152 173.716C22.4585 174.245 23.1843 175.228 23.3657 176.377C23.5472 177.527 23.1691 178.691 22.3527 179.522C22.2922 179.598 15.0648 186.931 10.8766 198.392C5.3729 213.452 7.41411 228.33 16.9397 242.588C30.5326 262.909 54.5129 272.813 88.1851 271.996C88.2154 271.996 88.2456 271.996 88.2759 271.996C90.2415 271.996 91.8593 273.569 91.9046 275.534C91.95 277.545 90.3624 279.209 88.3666 279.254C72.5057 279.632 58.3685 277.666 46.3027 273.418C31.1222 268.05 19.2077 259.038 10.9068 246.625C-2.74656 226.198 -0.297105 207.615 4.1633 195.61C7.15705 187.566 11.3755 181.412 14.203 177.859C8.75975 174.094 5.70554 169.286 5.11586 163.51C4.28426 155.209 8.72953 145.427 18.3307 134.419C22.5794 129.566 26.8735 125.574 29.5951 123.185C25.5581 117.576 24.8928 111.135 27.7051 104.331C32.7099 92.2346 49.0999 79.2012 72.6569 68.602C95.3218 58.396 120.799 52.3027 140.803 52.3027C160.806 52.3027 186.284 58.396 208.949 68.602C232.506 79.2012 248.88 92.2346 253.9 104.331C256.713 111.135 256.062 117.576 252.01 123.185C254.732 125.574 259.026 129.551 263.275 134.419C272.876 145.412 277.321 155.194 276.475 163.495C275.885 169.271 272.831 174.079 267.387 177.844C274.539 186.916 292.093 214.586 270.684 246.61C262.368 259.038 250.438 268.065 235.212 273.433C224.159 277.319 211.338 279.284 197.064 279.299L197.079 279.314Z" fill="#D3A98C"/>
<path d="M190.759 192.994C198.091 192.994 204.035 187.051 204.035 179.719C204.035 172.387 198.091 166.444 190.759 166.444C183.427 166.444 177.484 172.387 177.484 179.719C177.484 187.051 183.427 192.994 190.759 192.994Z" fill="#5F5C5D"/>
<path d="M90.8916 192.994C98.2233 192.994 104.167 187.051 104.167 179.719C104.167 172.387 98.2233 166.444 90.8916 166.444C83.5598 166.444 77.6162 172.387 77.6162 179.719C77.6162 187.051 83.5598 192.994 90.8916 192.994Z" fill="#5F5C5D"/>
<path d="M109.157 219.424C113.36 224.368 119.544 228.617 126.786 231.127C131.368 232.73 136.373 233.607 141.574 233.546C155.016 233.365 166.703 226.787 173.326 218.532C174.52 217.05 175.533 215.523 176.365 213.966C178.134 210.685 179.071 207.283 179.041 204.017C178.784 184.708 161.82 184.482 140.924 184.754C119.998 185.041 103.925 187.808 103.32 205.015C103.154 209.838 105.331 214.903 109.157 219.394V219.424Z" fill="#5F5C5D"/>
<path d="M176.365 213.981C170.861 224.247 157.404 233.334 141.574 233.546C128.162 233.728 116.021 227.483 109.157 219.424C118.833 210.7 141.09 197.409 176.365 213.981Z" fill="#E27FA3"/>
<path d="M141.014 237.175C128.677 237.175 116.429 232.155 108.128 223.688C102.458 217.897 99.4646 211.229 99.6914 204.924C99.9938 196.29 103.819 189.985 111.062 186.19L114.433 192.616C109.474 195.217 107.161 199.088 106.949 205.181C106.798 209.43 109.126 214.313 113.315 218.608C120.27 225.714 131.096 230.068 141.513 229.917C160.474 229.66 175.564 215.584 175.412 204.092C175.307 196.729 172.645 192.662 166.507 190.499L168.926 183.65C177.907 186.825 182.534 193.675 182.67 204.002C182.867 219.091 164.98 236.872 141.604 237.19C141.408 237.19 141.196 237.19 140.999 237.19L141.014 237.175Z" fill="#F8D4AE"/>
<path d="M168.941 183.635C162.5 181.352 154.365 181.05 144.537 181.11L144.462 167.714L137.204 167.744L137.28 181.216C127.996 181.488 118.123 182.471 111.062 186.175C109.293 187.113 108.597 189.305 109.535 191.074C110.185 192.314 111.44 193.025 112.755 193.025C113.33 193.025 113.904 192.888 114.433 192.601C121.056 189.124 131.564 188.519 140.969 188.398C151.719 188.247 160.428 188.322 166.522 190.469C168.412 191.135 170.483 190.152 171.149 188.262C171.814 186.372 170.831 184.3 168.941 183.635Z" fill="#D3A98C"/>
<path d="M148.998 163.903C146.896 161.787 143.479 161.756 141.362 163.858L140.848 164.357L140.349 163.843C138.247 161.726 134.83 161.696 132.714 163.798C130.597 165.899 130.566 169.316 132.668 171.433L134.467 173.263C137.945 176.786 143.615 176.816 147.138 173.338L148.952 171.539C151.069 169.437 151.099 166.02 148.998 163.903Z" fill="#E27FA3"/>
<path d="M103.245 272.253C103.698 270.847 103.985 269.35 104.076 267.808L104.62 259.144C105.256 248.999 97.5594 240.259 87.4139 239.624L86.159 239.549C85.9171 229.872 81.2903 222.887 74.4712 222.448C66.3215 221.934 62.9346 230.537 61.5134 248.515C60.2282 250.828 59.3966 253.459 59.2151 256.271L58.6708 264.935C58.5498 266.765 58.7162 268.534 59.1093 270.227C56.6901 278.982 57.9602 290.458 63.3278 301.45C72.3695 319.987 89.6366 330.163 101.884 324.175C114.131 318.203 116.716 298.32 107.675 279.798C106.359 277.092 104.847 274.567 103.229 272.238L103.245 272.253Z" fill="#F8D4AE"/>
<path d="M222.526 270.227C222.919 268.534 223.071 266.75 222.965 264.935L222.42 256.271C222.239 253.444 221.422 250.828 220.122 248.515C218.701 230.537 215.314 221.934 207.164 222.448C200.345 222.887 195.734 229.872 195.477 239.549L194.222 239.624C184.076 240.259 176.38 249.014 177.015 259.144L177.559 267.808C177.65 269.35 177.952 270.847 178.391 272.253C176.758 274.582 175.261 277.107 173.946 279.813C164.904 298.35 167.489 318.218 179.737 324.191C191.984 330.163 209.251 319.987 218.293 301.465C223.66 290.473 224.93 278.997 222.511 270.242L222.526 270.227Z" fill="#F8D4AE"/>
<path d="M107.176 271.603C107.448 270.439 107.629 269.26 107.705 268.035L108.249 259.371C108.975 247.895 100.75 237.901 89.5912 236.207C88.3665 226.152 82.636 219.303 74.7282 218.819C70.8878 218.577 65.5958 219.787 62.2089 226.984C60.1223 231.399 58.7767 237.916 57.9904 247.411C56.6599 250.012 55.8131 252.93 55.6166 256.045L55.0722 264.708C54.9513 266.568 55.0722 268.398 55.4049 270.152C52.9706 279.995 54.664 291.924 60.0921 303.053C64.7793 312.639 71.6892 320.486 79.5818 325.128C84.5412 328.061 89.5459 329.528 94.2784 329.528C97.5141 329.528 100.629 328.832 103.502 327.426C110.563 323.979 115.144 316.782 116.399 307.15C117.593 298.063 115.658 287.782 110.971 278.18C109.837 275.867 108.567 273.66 107.191 271.588L107.176 271.603ZM101.007 258.918L100.463 267.581C99.9484 275.716 92.9025 281.9 84.7831 281.386L76.1193 280.842C67.9847 280.327 61.8007 273.297 62.3147 265.162L62.8591 256.498C63.358 248.681 69.8747 242.664 77.5859 242.664C77.9035 242.664 78.2059 242.664 78.5234 242.694L87.1872 243.238C95.3217 243.752 101.506 250.783 100.992 258.918H101.007ZM74.2747 226.077C78.1907 226.319 81.124 230.023 82.1673 235.648L78.9921 235.451C74.4107 235.164 70.0713 236.298 66.3972 238.49C68.3325 227.468 71.3867 225.895 74.2747 226.077ZM109.187 306.228C108.249 313.365 105.104 318.581 100.311 320.925C95.5183 323.268 89.4703 322.542 83.2711 318.883C76.6032 314.952 70.6761 308.194 66.6239 299.878C63.736 293.966 62.0577 287.691 61.6797 281.855C65.3236 285.423 70.2074 287.751 75.6657 288.099L84.3295 288.643C84.7982 288.674 85.2669 288.689 85.7357 288.689C92.963 288.689 99.4797 285.151 103.517 279.617C103.834 280.206 104.137 280.796 104.439 281.401C108.506 289.732 110.2 298.547 109.187 306.243V306.228Z" fill="#D3A98C"/>
<path d="M226.246 270.152C226.578 268.398 226.699 266.568 226.578 264.709L226.034 256.045C225.838 252.975 225.021 250.042 223.66 247.381C222.874 237.886 221.528 231.384 219.442 226.984C216.055 219.802 210.763 218.577 206.938 218.819C199.015 219.303 193.284 226.152 192.059 236.207C180.901 237.901 172.676 247.91 173.401 259.371L173.946 268.035C174.021 269.26 174.203 270.454 174.475 271.603C173.114 273.675 171.829 275.882 170.695 278.211C166.008 287.812 164.087 298.093 165.267 307.181C166.522 316.812 171.103 324.009 178.164 327.456C181.037 328.863 184.137 329.558 187.387 329.558C192.105 329.558 197.125 328.076 202.084 325.158C209.977 320.516 216.887 312.669 221.574 303.083C227.017 291.94 228.695 280.025 226.261 270.182L226.246 270.152ZM207.391 226.077C210.249 225.895 213.318 227.468 215.254 238.46C211.489 236.222 207.134 235.164 202.659 235.451L199.483 235.648C200.527 230.023 203.475 226.319 207.391 226.077ZM194.448 243.238L203.112 242.694C203.43 242.679 203.747 242.664 204.065 242.664C207.663 242.664 211.08 243.949 213.802 246.353C216.766 248.953 218.535 252.567 218.777 256.498L219.321 265.162C219.835 273.297 213.636 280.327 205.516 280.842L196.853 281.386C188.733 281.915 181.687 275.701 181.173 267.581L180.629 258.918C180.115 250.783 186.314 243.752 194.433 243.238H194.448ZM198.38 318.883C192.18 322.542 186.132 323.268 181.339 320.925C176.546 318.581 173.386 313.365 172.464 306.228C171.466 298.547 173.144 289.717 177.212 281.401C177.514 280.796 177.816 280.191 178.134 279.602C182.171 285.121 188.688 288.659 195.915 288.659C196.384 288.659 196.853 288.659 197.321 288.613L205.985 288.069C211.458 287.721 216.327 285.393 219.971 281.824C219.593 287.676 217.915 293.935 215.027 299.847C210.959 308.178 205.048 314.922 198.38 318.853V318.883Z" fill="#D3A98C"/>
<path d="M271.636 4.14551H208.903C186.616 4.14551 168.548 22.2139 168.548 44.5008V65.3211C168.548 84.085 181.355 99.8551 198.697 104.376C192.755 113.176 186.677 125.226 195.295 128.508C206.242 132.666 229.965 119.239 241.819 105.691H271.636C293.923 105.691 311.991 87.623 311.991 65.3362V44.5159C311.991 22.229 293.923 4.16064 271.636 4.16064V4.14551Z" fill="white"/>
<path d="M217.189 62.4028L218.157 53.7845C219.291 43.6843 228.393 36.4115 238.493 37.5455L239.733 37.6817C241.668 28.2014 247.429 22.1232 254.218 22.8792C262.337 23.7864 264.167 32.8584 262.443 50.8058C263.305 53.3157 263.668 56.0373 263.35 58.8497L262.383 67.4832C261.249 77.5833 252.146 84.856 242.046 83.722L233.428 82.7544C223.328 81.6204 216.055 72.5181 217.189 62.418V62.4028Z" fill="#F8D4AE"/>
<path d="M266.132 50.322C267.009 40.8417 266.813 34.2041 265.543 29.5017C263.456 21.8359 258.451 19.7191 254.641 19.2957C246.749 18.3885 239.929 24.1341 236.966 33.826C231.795 33.7051 226.79 35.3683 222.708 38.6342C218.111 42.3084 215.208 47.5399 214.558 53.3913L213.59 62.0097C212.94 67.8612 214.588 73.6068 218.263 78.2184C221.937 82.8149 227.168 85.7179 233.02 86.368L241.638 87.3357C242.47 87.4265 243.301 87.4718 244.118 87.4718C255.17 87.4718 264.726 79.1407 265.996 67.8914L266.964 59.273C267.312 56.2188 267.009 53.1948 266.132 50.3371V50.322ZM253.825 26.4928C256.682 26.8104 259.419 28.8969 259.419 40.0706C256.093 37.2129 251.995 35.4136 247.535 34.8995L244.375 34.5518C246.386 29.1842 249.939 26.0544 253.825 26.4928ZM259.752 58.4414L258.784 67.0598C257.877 75.149 250.544 81.0005 242.455 80.0933L233.836 79.1255C229.92 78.6871 226.397 76.7517 223.948 73.6673C221.483 70.5828 220.379 66.7272 220.818 62.8111L221.785 54.1927C222.224 50.2766 224.159 46.7536 227.244 44.3042C229.89 42.2025 233.095 41.0837 236.422 41.0837C236.981 41.0837 237.541 41.1139 238.1 41.1744L246.718 42.142C250.634 42.5805 254.157 44.5159 256.622 47.6004C259.087 50.6849 260.19 54.5405 259.752 58.4565V58.4414Z" fill="#D3A98C"/>
<path d="M199.998 132.907C197.835 132.907 195.809 132.59 193.995 131.91C190.91 130.745 188.794 128.583 187.886 125.695C186.405 121.023 188.113 114.688 193.103 106.402C176.289 99.9458 164.919 83.707 164.919 65.3362V44.5159C164.919 20.2635 184.651 0.53186 208.903 0.53186H271.636C295.889 0.53186 315.62 20.2635 315.62 44.5159V65.3362C315.62 77.0844 311.039 88.1371 302.738 96.438C294.437 104.739 283.384 109.32 271.636 109.32H243.437C233.11 120.449 213.621 132.907 199.998 132.907ZM208.918 7.77431C188.673 7.77431 172.192 24.2551 172.192 44.5008V65.3211C172.192 82.0287 183.471 96.6497 199.62 100.853C200.754 101.155 201.691 101.987 202.099 103.091C202.507 104.195 202.371 105.434 201.706 106.402C193.934 117.893 194.464 122.384 194.811 123.473C194.978 124.002 195.325 124.622 196.58 125.09C204.957 128.266 227.198 116.85 239.083 103.272C239.778 102.486 240.761 102.032 241.819 102.032H271.636C281.449 102.032 290.672 98.207 297.612 91.2821C304.552 84.342 308.363 75.1188 308.363 65.3059V44.4857C308.363 24.24 291.882 7.75922 271.636 7.75922H208.903L208.918 7.77431Z" fill="#E2E2E2"/>
</svg>
