<svg width="313" height="364" viewBox="0 0 313 364" fill="none" xmlns="http://www.w3.org/2000/svg">
<path d="M241.145 138.513C236.11 128.307 228.157 121.987 225.269 119.915C224.558 119.416 224.165 119.159 224.165 119.159C247.737 99.4882 201.41 77.4735 201.41 77.4735C208.304 66.4359 199.671 56.6533 184.067 49.683L192.126 51.4822C196.859 43.5442 205.553 24.3267 188.724 11.4747C167.949 -4.40128 133.4 7.30159 125.976 36.71L136.242 39.0082C123.39 38.2069 110.569 38.8873 99.6974 41.3972C88.811 43.9071 76.9871 48.927 65.7832 55.2925L74.0236 48.7153C54.4583 25.5363 18.2913 30.1782 6.5733 53.5537C-2.92206 72.4839 13.3168 85.9256 21.0734 90.9908L27.5296 85.8349C16.5676 98.9439 13.09 111.524 24.1427 118.418C24.1427 118.418 -7.85117 158.517 21.9503 165.865C21.9503 165.865 15.2371 176.585 15.2068 190.707C15.1615 200.792 18.503 212.616 30.1151 223.533C51.6611 243.778 82.2489 240.346 105.745 232.952C101.875 238.365 99.5915 245.003 99.5915 252.155C99.5915 270.435 114.409 285.268 132.704 285.268C151 285.268 165.817 270.45 165.817 252.155C165.817 235.447 153.449 221.643 137.361 219.375C139.327 218.286 140.4 217.621 140.4 217.621C140.4 217.621 222.774 225.559 242.113 174.559C247.768 159.651 245.59 147.54 241.145 138.498V138.513Z" fill="#F8D4AE"/>
<path d="M51.3134 64.5308C40.1246 72.499 30.4629 81.435 24.3544 89.9324C17.4446 83.1284 7.22347 70.0647 16.7037 59.2388C26.7434 47.7476 43.451 58.3618 51.3134 64.5308Z" fill="#FFF1E6"/>
<path d="M188.694 51.9661C179.486 47.0067 166.876 43.1965 153.313 40.9738C157.667 31.9926 168.055 15.1186 182.101 21.0457C195.346 26.6401 191.914 42.8336 188.694 51.9812V51.9661Z" fill="#FFF1E6"/>
<path d="M242.113 174.574C222.774 225.574 140.4 217.636 140.4 217.636C140.4 217.636 69.8656 260.894 30.1 223.548C18.4879 212.631 15.1463 200.807 15.1917 190.722C36.3597 198.6 60.0528 196.861 81.8256 184.72C98.7448 175.27 99.5008 142.111 121.757 136.971C144.014 131.83 159.24 161.299 178.594 162.372C203.496 163.733 225.556 154.903 241.13 138.528C245.575 147.57 247.752 159.681 242.098 174.589L242.113 174.574Z" fill="#FFF1E6"/>
<path d="M78.1692 220.421C89.249 210.19 89.9368 192.914 79.7056 181.834C69.4743 170.755 52.1983 170.067 41.1186 180.298C30.0388 190.529 29.351 207.805 39.5823 218.885C49.8135 229.965 67.0895 230.653 78.1692 220.421Z" fill="#FD9DB4"/>
<path d="M232.013 160.558C228.626 145.861 213.959 136.699 199.263 140.101C184.566 143.487 175.403 158.154 178.805 172.85C182.192 187.547 196.859 196.71 211.555 193.308C226.252 189.921 235.415 175.255 232.013 160.558Z" fill="#FD9DB4"/>
<path d="M229.684 118.796C233.373 114.593 234.916 109.982 234.296 105.037C232.557 91.3688 214.11 80.1195 206.203 75.901C208.365 70.4276 207.594 64.8937 203.92 59.7378C202.014 57.0766 199.293 54.5214 195.876 52.1475C198.476 47.5359 201.425 40.9134 202.075 33.6406C202.982 23.5556 199.111 14.907 190.886 8.63216C180.302 0.558077 165.847 -1.42264 152.224 3.34016C137.649 8.4356 126.641 20.3048 122.665 35.1678C114.076 35.3643 105.957 36.2715 98.8809 37.9045C91.8047 39.5374 84.1087 42.2893 76.3067 45.8727C66.2066 34.2606 51.1168 28.4242 35.7851 30.2386C21.4363 31.9321 9.31002 40.0515 3.35274 51.951C-1.2891 61.1893 -0.956465 70.6695 4.27505 79.3333C8.05506 85.5778 13.6041 90.2499 17.9587 93.2437C15.9326 96.8876 14.602 100.365 14.0577 103.601C13.0144 109.845 14.7532 115.153 19.0927 119.129C13.846 126.387 2.17338 144.591 6.61866 157.64C8.22138 162.357 11.6385 165.82 16.7793 167.982C15.101 171.596 12.9086 177.402 11.9863 184.448C10.565 195.44 12.1223 211.618 27.6203 226.179C39.0208 236.899 54.0199 242.312 71.8161 242.312C80.873 242.312 90.6707 240.906 101.073 238.078C121.077 232.635 137.074 223.744 141.217 221.325C146.01 221.688 164.275 222.656 184.642 218.77C216.046 212.782 237.063 197.935 245.439 175.859C257.066 145.181 237.728 125.404 229.669 118.812L229.684 118.796ZM154.598 10.129C165.953 6.1676 177.883 7.74008 186.547 14.3475C192.459 18.8684 200.578 29.2407 189.722 48.4582C181.723 44.27 171.306 40.7924 159.179 38.3883C149.593 36.4832 139.69 35.4248 130.149 35.198C133.899 23.4951 142.88 14.2417 154.598 10.1442V10.129ZM9.77874 55.1866C14.6625 45.4645 24.7022 38.8117 36.6319 37.3904C48.9547 35.9238 61.096 40.3086 69.5935 49.184C61.1263 53.5688 52.6893 58.8759 44.9025 64.7878C35.0594 72.2722 27.2272 79.9532 21.8747 87.241C3.68538 74.7368 6.43722 61.8546 9.77874 55.2018V55.1866ZM238.756 173.304C231.226 193.172 212.629 206.084 183.492 211.679C161.236 215.958 140.945 214.083 140.748 214.068C139.977 213.992 139.191 214.173 138.526 214.582C138.359 214.688 120.941 225.256 99.0623 231.183C70.4251 238.94 48.0475 235.493 32.5646 220.932C7.2537 197.133 24.2486 168.965 24.9895 167.785C25.5943 166.802 25.7001 165.593 25.2767 164.534C24.8383 163.461 23.9311 162.675 22.8122 162.403C17.7016 161.148 14.6323 158.834 13.4529 155.342C9.99042 145.166 22.0259 126.871 26.9551 120.686C27.5901 119.885 27.8623 118.857 27.6808 117.844C27.5145 116.831 26.9097 115.939 26.0479 115.41C21.9352 112.839 20.393 109.483 21.1792 104.81C22.7215 95.5419 33.2299 82.7202 49.2873 70.5183C65.5413 58.1653 84.6983 48.5943 100.529 44.9504C108.089 43.2116 116.904 42.3346 126.248 42.3346C136.484 42.3346 147.325 43.3779 157.804 45.4645C177.581 49.3957 192.64 56.3055 198.098 63.9562C200.85 67.8118 200.941 71.5162 198.37 75.6289C197.826 76.4907 197.69 77.5491 197.977 78.5319C198.265 79.5147 198.96 80.3312 199.883 80.7697C207.019 84.1717 225.859 95.3302 227.204 105.99C227.673 109.649 225.934 113.066 221.882 116.453C221.005 117.194 220.521 118.298 220.597 119.447C220.673 120.596 221.292 121.639 222.26 122.244C222.305 122.274 222.638 122.486 223.198 122.879C225.828 124.769 232.466 130.061 237.108 138.573C242.914 149.218 243.473 160.906 238.771 173.334L238.756 173.304Z" fill="#D3A98C"/>
<path d="M179.924 147.902C181.345 154.026 177.52 160.15 171.396 161.556C165.273 162.977 159.149 159.152 157.743 153.028C156.337 146.905 160.147 140.781 166.271 139.375C172.394 137.954 178.518 141.779 179.924 147.902Z" fill="#5F5C5D"/>
<path d="M96.4768 167.18C97.8981 173.304 94.0727 179.428 87.9491 180.834C81.8255 182.255 75.7019 178.43 74.2958 172.306C72.8745 166.183 76.6999 160.059 82.8235 158.653C88.9471 157.232 95.0707 161.057 96.4768 167.18Z" fill="#5F5C5D"/>
<path d="M145.451 155.024C145.451 155.024 147.9 167.589 145.405 178.127C145.224 178.929 144.997 179.715 144.74 180.516C142.941 186.08 139.463 190.662 133.082 191.887C127.322 192.99 122.725 190.647 119.142 186.897C118.567 186.307 118.023 185.657 117.494 184.992C110.554 176.132 107.953 162.251 107.953 162.251C109.782 166.198 114.107 168.526 118.567 167.679C123.814 166.682 127.261 161.586 126.263 156.339C127.261 161.586 132.341 165.033 137.603 164.036C142.064 163.174 145.209 159.394 145.451 155.054V155.024Z" fill="#5F5C5D"/>
<path d="M144.74 180.501C142.941 186.065 139.463 190.647 133.082 191.871C127.322 192.975 122.725 190.632 119.142 186.882C120.956 181.333 124.434 176.721 130.799 175.496C136.575 174.393 141.156 176.721 144.74 180.516V180.501Z" fill="#E27FA3"/>
<path d="M130.225 195.742C126.717 195.742 123.406 194.684 120.321 192.597C108.618 184.644 104.581 163.778 104.415 162.901L111.476 161.571C112.459 166.787 116.723 181.469 124.373 186.67C126.868 188.364 129.484 188.908 132.402 188.348C135.32 187.789 137.558 186.307 139.236 183.797C144.437 176.101 142.941 160.921 141.912 155.719L148.958 154.344C149.125 155.221 153.101 176.101 145.178 187.819C142.411 191.932 138.556 194.472 133.733 195.394C132.538 195.621 131.359 195.742 130.21 195.742H130.225Z" fill="#F8D4AE"/>
<path d="M145.647 151.441C143.666 151.335 141.973 152.847 141.852 154.827C141.701 157.625 139.66 159.938 136.908 160.467C133.672 161.087 130.542 159.016 129.816 155.84L128.622 150.7L121.621 152.317L122.71 157.02C123.012 158.607 122.68 160.225 121.757 161.571C120.835 162.917 119.459 163.839 117.857 164.141C115.105 164.671 112.353 163.264 111.173 160.739C110.342 158.94 108.195 158.169 106.396 159.001C104.596 159.832 103.825 161.979 104.657 163.778C106.864 168.526 111.597 171.444 116.677 171.444C117.509 171.444 118.355 171.369 119.202 171.202C122.68 170.537 125.704 168.541 127.7 165.608C127.775 165.487 127.866 165.366 127.942 165.245C130.814 167.332 134.504 168.269 138.253 167.543C144.241 166.394 148.671 161.344 149.004 155.251C149.11 153.27 147.598 151.577 145.617 151.456L145.647 151.441Z" fill="#D3A98C"/>
<path d="M130.875 145.302C128.713 143.926 125.855 144.576 124.479 146.738L124.146 147.267L123.617 146.935C121.455 145.559 118.597 146.209 117.221 148.371C115.846 150.533 116.496 153.391 118.658 154.767L120.518 155.946C124.101 158.214 128.849 157.156 131.117 153.572L132.296 151.713C133.672 149.551 133.022 146.693 130.86 145.317L130.875 145.302Z" fill="#E27FA3"/>
<path d="M255.767 307.481C286.968 276.281 286.968 225.694 255.767 194.494C224.567 163.293 173.981 163.293 142.78 194.494C111.579 225.694 111.579 276.281 142.78 307.481C173.981 338.682 224.567 338.682 255.767 307.481Z" fill="#B5F6F8"/>
<path d="M258.185 191.826C242.43 176.132 221.519 167.498 199.278 167.498C199.278 167.498 199.202 167.498 199.172 167.498H199.111C199.021 167.498 198.915 167.498 198.824 167.498C176.628 167.619 155.808 176.343 140.128 192.083C124.388 207.883 115.755 228.87 115.8 251.172C115.906 297.152 153.328 334.483 199.293 334.483C199.353 334.483 199.414 334.483 199.474 334.483C245.515 334.377 282.876 296.85 282.785 250.809C282.74 228.507 274.001 207.566 258.2 191.826H258.185ZM243.428 286.78C246.165 276.755 247.722 265.823 247.964 254.468L275.498 254.408C274.757 271.191 268.558 286.583 258.654 298.845C254.042 294.204 248.917 290.167 243.428 286.765V286.78ZM140.113 299.118C130.149 286.886 123.889 271.524 123.073 254.756L150.606 254.695C150.909 266.035 152.512 276.982 155.294 286.976C149.82 290.393 144.71 294.461 140.113 299.118ZM155.127 215.202C152.391 225.226 150.833 236.158 150.591 247.513L123.043 247.574C123.753 231.199 129.62 215.761 139.856 203.106C144.483 207.747 149.608 211.8 155.112 215.202H155.127ZM258.472 202.833C268.769 215.443 274.696 230.866 275.482 247.226L247.934 247.286C247.631 235.946 246.029 224.999 243.247 214.99C248.735 211.558 253.846 207.49 258.457 202.818L258.472 202.833ZM240.767 247.316L202.861 247.392L202.816 227.6C214.745 227.056 226.327 223.956 236.821 218.634C239.134 227.555 240.495 237.231 240.767 247.301V247.316ZM202.801 220.418L202.695 174.967C212.084 176.464 220.945 183.858 227.945 196.196C230.606 200.868 232.874 206.069 234.734 211.633C224.936 216.819 214.035 219.859 202.801 220.418ZM195.528 174.982L195.634 220.433C184.4 219.919 173.483 216.925 163.655 211.784C165.5 206.205 167.737 201.004 170.383 196.317C177.339 183.949 186.154 176.51 195.543 174.982H195.528ZM195.634 227.63L195.679 247.422L157.773 247.498C158 237.443 159.316 227.751 161.599 218.815C172.107 224.092 183.704 227.131 195.634 227.63ZM157.788 254.68L195.694 254.604L195.74 274.381C183.81 274.926 172.228 278.025 161.735 283.347C159.421 274.427 158.061 264.75 157.788 254.68ZM195.755 281.563L195.861 327.014C186.471 325.517 177.611 318.123 170.61 305.786C167.949 301.113 165.681 295.927 163.821 290.348C173.619 285.162 184.521 282.123 195.755 281.563ZM203.043 326.999L202.937 281.548C214.171 282.062 225.088 285.056 234.916 290.197C233.071 295.776 230.833 300.977 228.187 305.665C221.232 318.033 212.417 325.472 203.027 326.999H203.043ZM202.922 274.351L202.876 254.574L240.782 254.498C240.555 264.553 239.24 274.245 236.957 283.181C226.448 277.904 214.851 274.865 202.922 274.366V274.351ZM253.664 197.481C249.824 201.427 245.575 204.905 241.039 207.899C239.119 202.425 236.836 197.315 234.19 192.643C231.045 187.124 227.537 182.437 223.742 178.672C234.674 182.361 244.698 188.53 253.105 196.906C253.286 197.088 253.468 197.284 253.649 197.466L253.664 197.481ZM174.496 178.793C170.716 182.573 167.223 187.275 164.109 192.809C161.478 197.481 159.225 202.622 157.32 208.095C152.769 205.117 148.52 201.654 144.649 197.723C144.831 197.541 145.012 197.345 145.193 197.163C153.57 188.742 163.564 182.527 174.481 178.793H174.496ZM144.921 304.485C148.762 300.554 152.995 297.076 157.516 294.083C159.436 299.541 161.72 304.667 164.366 309.324C167.495 314.827 170.988 319.499 174.768 323.249C163.368 319.378 153.177 312.877 144.921 304.47V304.485ZM224.105 323.158C227.87 319.378 231.347 314.706 234.447 309.188C237.078 304.515 239.331 299.39 241.221 293.916C245.757 296.88 250.005 300.342 253.861 304.258C245.636 312.695 235.475 319.242 224.09 323.158H224.105Z" fill="#95E0E8"/>
<path d="M262.132 221.9H136.409V280.081H262.132V221.9Z" fill="white"/>
<path d="M262.147 283.665H136.424C134.443 283.665 132.825 282.062 132.825 280.066V221.885C132.825 219.904 134.428 218.286 136.424 218.286H262.147C264.127 218.286 265.745 219.889 265.745 221.885V280.066C265.745 282.047 264.142 283.665 262.147 283.665ZM140.007 276.483H258.548V225.498H140.007V276.483Z" fill="#E2E2E2"/>
<path d="M176.976 239.136C175.282 239.136 174.556 239.968 174.027 241.525L169.688 254.302L165.424 241.556C164.88 240.013 164.23 239.152 162.612 239.136C161.009 239.152 160.283 240.013 159.694 241.525L155.263 253.969L151.121 241.525C150.863 240.724 150.501 240.119 150.047 239.726C147.885 238.154 144.256 239.711 145.435 242.705L151.816 260.471C152.391 262.784 155.218 263.525 156.972 262.285C157.441 261.907 157.834 261.302 158.136 260.501L162.43 248.647L166.634 260.471C167.42 263.676 172.077 263.646 172.908 260.501L179.289 242.705C180.045 240.845 179.002 239.091 176.961 239.136H176.976Z" fill="#DD528B"/>
<path d="M213.868 239.137C212.175 239.137 211.449 239.968 210.92 241.526L206.581 254.302L202.317 241.556C201.772 240.014 201.122 239.152 199.504 239.137C197.902 239.152 197.176 240.014 196.586 241.526L192.156 253.969L188.013 241.526C187.756 240.724 187.393 240.119 186.94 239.726C184.778 238.154 181.149 239.711 182.328 242.705L188.709 260.471C189.283 262.784 192.111 263.525 193.865 262.285C194.333 261.907 194.727 261.302 195.029 260.501L199.323 248.647L203.526 260.471C204.313 263.676 208.97 263.646 209.801 260.501L216.182 242.705C216.938 240.845 215.895 239.091 213.853 239.137H213.868Z" fill="#DD528B"/>
<path d="M252.969 240.18C251.563 238.229 248.297 239.076 247.828 241.526L243.489 254.302L239.225 241.556C238.68 240.014 238.03 239.152 236.412 239.137C234.81 239.152 234.084 240.014 233.509 241.526L229.079 253.969L224.936 241.526C224.679 240.724 224.316 240.119 223.863 239.726C221.701 238.154 218.072 239.726 219.251 242.705L225.632 260.471C226.206 262.784 229.034 263.525 230.788 262.285C231.256 261.907 231.65 261.303 231.952 260.501L236.246 248.647L240.449 260.471C241.236 263.676 245.893 263.646 246.724 260.501L253.105 242.705C253.468 241.722 253.438 240.891 252.969 240.18Z" fill="#DD528B"/>
<path d="M109.072 234.782C79.4366 259.065 74.7191 298.226 95.5696 300.297C116.405 302.368 164.471 297.772 153.389 276.997C142.306 256.222 107.363 269.316 107.363 269.316L109.072 234.782Z" fill="#F8D4AE"/>
<path d="M95.2067 303.865C87.8735 303.14 82.5967 298.634 80.3438 291.21C78.0002 283.484 79.24 272.975 83.7155 262.376C88.4935 251.066 97.0211 237.504 107.121 229.233C108.648 227.978 110.916 228.205 112.171 229.732C113.426 231.259 113.2 233.527 111.672 234.782C96.371 247.316 82.4606 273.383 87.2234 289.123C88.6144 293.735 91.5326 296.29 95.9174 296.714C113.578 298.467 144.316 295.05 150.455 285.888C151.317 284.602 152.239 282.44 150.228 278.675C140.763 260.94 108.951 272.552 108.633 272.673C106.774 273.368 104.702 272.416 104.007 270.571C103.311 268.711 104.248 266.64 106.108 265.944C106.486 265.808 115.452 262.482 125.991 261.771C140.748 260.788 151.317 265.46 156.564 275.288C160.087 281.896 158.439 286.87 156.428 289.879C146.826 304.228 108.195 305.15 95.2219 303.85L95.2067 303.865Z" fill="#D3A98C"/>
<path d="M249.068 166.893C260.816 171.006 268.89 178.46 264.793 190.193C260.695 201.926 247.828 208.141 236.08 204.028C224.332 199.915 218.132 187.063 222.245 175.315C226.358 163.567 237.32 162.781 249.068 166.878V166.893Z" fill="#F8D4AE"/>
<path d="M243.549 208.912C240.646 208.912 237.728 208.428 234.9 207.43C221.307 202.682 214.11 187.744 218.858 174.151C221.171 167.513 225.707 163.204 231.937 161.692C237.047 160.437 243.216 161.057 250.247 163.521C257.293 165.986 262.494 169.343 265.715 173.501C269.646 178.581 270.493 184.765 268.18 191.403C265.881 197.995 261.149 203.287 254.859 206.311C251.26 208.035 247.405 208.912 243.534 208.912H243.549ZM237.41 168.239C236.049 168.239 234.795 168.375 233.645 168.662C229.775 169.6 227.159 172.17 225.632 176.525C222.184 186.383 227.401 197.209 237.259 200.656C242.037 202.319 247.178 202.032 251.729 199.84C256.28 197.647 259.712 193.807 261.391 189.029C262.903 184.689 262.464 181.046 260.03 177.901C257.701 174.892 253.498 172.276 247.873 170.31C243.987 168.95 240.434 168.269 237.395 168.269L237.41 168.239Z" fill="#D3A98C"/>
</svg>
