<svg width="280" height="335" viewBox="0 0 280 335" fill="none" xmlns="http://www.w3.org/2000/svg">
<path d="M108.93 32.2042L38.5011 65.9369C31.1074 58.2409 16.3654 38.9175 31.9239 20.1385C51.1414 -3.07073 92.9785 1.10238 108.93 32.2042Z" fill="#FFD5AE"/>
<path d="M83.2562 49.3049C83.2562 49.3049 60.9542 15.3152 41.8274 29.1197C22.7158 42.9243 47.1346 72.1361 47.1346 72.1361L83.2411 49.3049H83.2562Z" fill="#FFF1E6"/>
<path d="M240.822 65.9369L170.378 32.2042C186.329 1.10238 228.181 -3.07073 247.384 20.1385C262.957 38.9326 248.2 58.256 240.822 65.9369Z" fill="#FFD5AE"/>
<path d="M196.067 49.3049C196.067 49.3049 218.369 15.3152 237.495 29.1197C256.607 42.9243 232.188 72.1361 232.188 72.1361L196.082 49.3049H196.067Z" fill="#FFF1E6"/>
<path d="M260.311 151.38C259.646 150.624 259.253 150.246 259.253 150.246C290.824 134.264 244.496 97.5378 244.496 97.5378C270.26 71.7733 191.258 30.6469 139.639 30.6469C88.019 30.6469 9.01703 71.7733 34.7966 97.5378C34.7966 97.5378 -11.5462 134.264 20.0244 150.246C20.0244 150.246 -10.261 180.486 14.2334 217.122C27.4634 236.914 48.6617 244.852 69.8901 247.105C61.9521 269.966 55.0121 301.249 68.0001 318.471C87.6108 344.447 116.006 321.873 100.327 294.748C100.327 294.748 98.1494 291.86 96.713 286.371C106.087 295.519 121.827 301.522 139.639 301.522C157.45 301.522 173.19 295.519 182.564 286.371C181.128 291.86 178.951 294.748 178.951 294.748C163.271 321.873 191.667 344.447 211.277 318.471C224.28 301.249 217.325 269.966 209.387 247.105C230.616 244.867 251.799 236.914 265.029 217.122C286.756 184.629 265.407 157.186 260.296 151.38H260.311Z" fill="#FFD5AE"/>
<path d="M139.654 127.279C163.286 127.279 171.754 163.325 191.001 169.373C220.425 178.596 240.126 169.373 259.268 150.231C259.268 150.231 289.554 180.471 265.059 217.107C230.102 269.361 139.654 239.076 139.654 239.076C139.654 239.076 49.206 269.361 14.2486 217.107C-10.2458 180.471 20.0395 150.231 20.0395 150.231C39.1814 169.373 58.8828 178.596 88.3063 169.373C107.554 163.31 116.021 127.279 139.654 127.279Z" fill="#FFF1E6"/>
<path d="M58.4723 211.733C75.6364 208.965 87.3071 192.807 84.5394 175.643C81.7717 158.479 65.6137 146.808 48.4496 149.576C31.2855 152.344 19.6149 168.502 22.3826 185.666C25.1502 202.83 41.3082 214.5 58.4723 211.733Z" fill="#FF9EB6"/>
<path d="M230.879 211.729C248.044 208.961 259.714 192.803 256.946 175.639C254.179 158.475 238.021 146.804 220.857 149.572C203.693 152.34 192.022 168.498 194.79 185.662C197.557 202.826 213.715 214.496 230.879 211.729Z" fill="#FF9EB6"/>
<path d="M266.148 151.35C271.258 147.555 274.146 142.777 274.721 137.061C276.324 121.246 258.799 103.918 250.861 96.9329C254.551 91.3083 255.095 84.7765 252.343 78.1237C250.922 74.6763 248.593 71.1685 245.449 67.6758C249.546 63.1549 254.46 56.5323 257.046 48.6245C260.72 37.3904 258.603 26.5342 250.907 17.2505C241.033 5.33599 225.188 -0.681773 208.495 1.13263C190.775 3.06799 175.292 13.5159 166.87 29.15C157.254 27.1844 147.985 26.1109 139.654 26.1109C131.323 26.1109 122.069 27.1844 112.453 29.15C104.031 13.5159 88.5482 3.06799 70.8276 1.13263C54.1502 -0.696893 38.2894 5.33599 28.416 17.2505C20.7199 26.5342 18.6031 37.3904 22.2773 48.6245C24.8628 56.5172 29.7768 63.1398 33.8743 67.6758C30.7445 71.1836 28.4009 74.6914 26.9796 78.1388C24.2277 84.7916 24.7721 91.3234 28.4614 96.9481C20.5082 103.934 2.98415 121.261 4.58687 137.077C5.16143 142.792 8.03424 147.57 13.1448 151.365C10.3325 155.039 6.47687 160.891 3.69479 168.375C-0.795846 180.441 -3.24527 199.144 10.4686 219.662C21.2794 235.825 38.0021 246.122 60.1831 250.295C61.3927 250.522 62.6023 250.718 63.8422 250.915C56.3426 274.351 51.2321 303.79 64.3865 321.223C71.5534 330.718 79.8391 334.498 87.263 334.498C91.6176 334.498 95.6546 333.198 98.9962 330.975C108.885 324.428 113.874 309.097 104.258 292.48C104.167 292.314 104.092 292.193 103.971 292.041C103.956 292.011 102.171 289.531 101.022 284.935C99.4649 278.721 99.6917 271.781 101.703 264.326C102.353 261.907 100.916 259.412 98.4972 258.762C96.078 258.112 93.5832 259.549 92.933 261.968C87.3537 282.667 95.065 295.126 96.5014 297.212C103.169 308.9 100.296 319.227 93.9763 323.415C87.2781 327.861 78.5086 324.852 71.6441 315.765C62.814 304.062 63.3281 281.488 73.0502 251.989C76.6185 252.261 80.2927 252.412 84.0576 252.412C93.3564 252.412 103.215 251.565 113.587 249.872C116.067 249.464 117.745 247.135 117.337 244.655C116.928 242.176 114.6 240.497 112.12 240.906C93.6437 243.93 76.2557 244.096 61.8614 241.389C42.1752 237.685 27.4181 228.689 18.0286 214.642C8.79025 200.822 6.80951 186.443 12.1015 171.883C16.1688 160.724 23.1845 153.572 23.2449 153.512C24.2731 152.484 24.7569 151.017 24.515 149.581C24.2882 148.144 23.381 146.905 22.0807 146.239C16.8038 143.563 14.0369 140.282 13.6135 136.2C13.0238 130.424 16.8341 122.652 24.6209 113.716C30.9108 106.489 37.5485 101.197 37.6241 101.136C38.6371 100.335 39.257 99.1253 39.3326 97.8401C39.4082 96.5398 38.9244 95.2849 38.0021 94.3625C34.1918 90.5523 33.3451 86.5001 35.3712 81.6315C39.4839 71.7128 54.5282 60.1157 75.6206 50.6204C97.0306 40.9889 120.95 35.2282 139.639 35.2282C158.327 35.2282 182.247 40.9889 203.657 50.6204C224.749 60.1157 239.794 71.7128 243.906 81.6315C245.917 86.5001 245.086 90.5523 241.275 94.3625C240.353 95.2849 239.884 96.5398 239.945 97.8401C240.005 99.1405 240.64 100.335 241.653 101.136C241.714 101.182 248.261 106.398 254.551 113.61C262.398 122.592 266.223 130.394 265.634 136.184C265.225 140.267 262.443 143.563 257.167 146.239C255.866 146.889 254.974 148.129 254.732 149.566C254.505 151.002 254.974 152.469 256.002 153.497C256.048 153.542 256.365 153.86 256.864 154.434C259.314 157.216 265.346 164.837 268.325 175.512C272.06 188.847 269.671 202.017 261.219 214.642C238.418 248.753 189.278 245.185 162.031 240.014C159.567 239.545 157.193 241.163 156.724 243.627C156.256 246.092 157.873 248.466 160.338 248.934C172.691 251.278 189.247 253.274 206.197 251.958C215.934 281.473 216.463 304.062 207.618 315.765C200.754 324.867 191.984 327.861 185.286 323.415C176.955 317.897 177.711 306.103 182.761 297.212C184.212 295.126 191.909 282.667 186.329 261.968C185.679 259.549 183.184 258.112 180.765 258.762C178.346 259.412 176.91 261.907 177.56 264.326C179.571 271.796 179.797 278.736 178.225 284.935C177.061 289.531 175.292 292.011 175.292 292.011C175.171 292.162 175.08 292.314 174.974 292.48C165.373 309.097 170.347 324.428 180.251 330.975C183.593 333.198 187.645 334.498 191.984 334.498C199.408 334.498 207.694 330.718 214.861 321.223C228.03 303.775 222.905 274.321 215.405 250.885C235.817 247.755 255.806 239.061 268.779 219.662C289.705 188.379 273.617 161.223 266.102 151.365L266.148 151.35ZM71.9011 42.2893C59.034 48.0802 48.3139 54.6121 40.4213 61.3405C32.7101 52.7825 23.3206 37.6323 35.4166 23.0264C43.3243 13.4705 56.2066 8.66239 69.8448 10.1441C83.7552 11.6713 95.9873 19.4883 103.215 31.2819C92.7062 34.0035 82.0315 37.7381 71.9162 42.2893H71.9011ZM238.886 61.3405C230.979 54.6121 220.259 48.0802 207.407 42.2893C197.291 37.7381 186.617 34.0186 176.108 31.2819C183.336 19.4883 195.568 11.6713 209.478 10.1441C223.116 8.64727 235.983 13.4705 243.906 23.0264C256.002 37.6323 246.613 52.7825 238.902 61.3405H238.886Z" fill="#E2AB8C"/>
<path d="M144.205 152.922V143.185C144.205 140.675 142.164 138.634 139.654 138.634C137.144 138.634 135.103 140.675 135.103 143.185V152.922C117.972 155.16 104.712 169.826 104.712 187.562C104.712 190.072 106.753 192.113 109.263 192.113C111.773 192.113 113.814 190.072 113.814 187.562C113.814 173.304 125.411 161.707 139.654 161.707C153.912 161.707 165.494 173.304 165.494 187.562C165.494 190.072 167.535 192.113 170.045 192.113C172.555 192.113 174.596 190.072 174.596 187.562C174.596 169.842 161.321 155.16 144.205 152.922Z" fill="#E2AB8C"/>
<path d="M147.728 137.334C145.657 135.232 142.285 135.217 140.183 137.288L139.669 137.787L139.17 137.273C137.099 135.171 133.727 135.156 131.625 137.228C129.523 139.299 129.508 142.671 131.58 144.773L133.364 146.572C136.796 150.05 142.406 150.095 145.883 146.648L147.683 144.863C149.784 142.792 149.799 139.42 147.728 137.318V137.334Z" fill="#FF7AA8"/>
<path d="M202.13 152.968C202.13 160.21 196.263 166.077 189.021 166.077C181.778 166.077 175.896 160.21 175.896 152.968H202.145H202.13Z" fill="#605C5D"/>
<path d="M103.411 152.968C103.411 160.21 97.5446 166.077 90.3021 166.077C83.0596 166.077 77.178 160.21 77.178 152.968H103.426H103.411Z" fill="#605C5D"/>
</svg>
