<svg width="330" height="334" viewBox="0 0 330 334" fill="none" xmlns="http://www.w3.org/2000/svg">
<path d="M239.463 185.813C238.843 185.119 238.495 184.772 238.495 184.772C267.601 170.069 224.902 136.305 224.902 136.305C234.685 126.548 228.062 114.394 213.592 103.461L221.515 107.246C228.319 100.173 241.912 82.409 227.563 65.1273C209.858 43.7891 171.287 47.6194 156.575 76.2262L166.675 81.0518C153.551 77.146 140.124 74.7936 128.255 74.7936C116.386 74.7936 102.959 77.146 89.8352 81.0518L99.9203 76.2262C85.2085 47.6345 46.6525 43.7891 28.9319 65.1273C14.583 82.409 28.1759 100.173 34.995 107.246L42.8876 103.476C28.4178 114.394 21.8103 126.548 31.593 136.305C31.593 136.305 -11.121 170.069 17.985 184.772C17.985 184.772 -9.92655 212.564 12.6476 246.268C23.7608 262.841 40.9674 270.381 58.7183 273.156C57.5238 276.7 56.8887 280.379 56.8887 284.164C56.8887 311.354 89.4572 333.4 129.646 333.4C169.835 333.4 202.404 311.354 202.404 284.164C202.404 280.213 201.708 276.383 200.423 272.703C217.236 269.612 233.279 262.012 243.832 246.268C263.866 216.395 244.18 191.166 239.463 185.828V185.813Z" fill="#F8D4AE"/>
<path d="M72.6136 87.114C59.1265 92.6635 46.9852 99.6003 38.6389 106.914C33.1201 98.2431 25.6811 82.3186 38.0644 73.4063C51.2037 63.9361 65.9457 78.8653 72.6136 87.114Z" fill="#FFF1E6"/>
<path d="M128.24 163.66C150.028 163.66 157.83 196.791 175.581 202.37C202.706 210.86 220.865 202.37 238.51 184.772C238.51 184.772 266.422 212.564 243.848 246.268C211.627 294.313 128.24 266.475 128.24 266.475C128.24 266.475 44.8683 294.313 12.6325 246.268C-9.94168 212.58 17.9698 184.772 17.9698 184.772C35.6149 202.37 53.774 210.845 80.8993 202.37C98.6502 196.806 106.452 163.66 128.24 163.66Z" fill="#FFF1E6"/>
<path d="M53.4328 241.304C69.2504 238.744 79.9918 223.879 77.4242 208.103C74.8566 192.327 59.9525 181.614 44.1348 184.175C28.3171 186.736 17.5758 201.601 20.1434 217.377C22.7109 233.152 37.6151 243.865 53.4328 241.304Z" fill="#FD9DB4"/>
<path d="M212.373 241.319C228.189 238.745 238.917 223.871 236.335 208.097C233.754 192.324 218.841 181.624 203.025 184.198C187.21 186.773 176.481 201.647 179.063 217.42C181.644 233.194 196.558 243.894 212.373 241.319Z" fill="#FD9DB4"/>
<path d="M244.044 185.662C248.913 182.224 251.649 177.835 252.179 172.587C253.66 158.05 237.089 141.99 229.998 135.853C233.581 130.725 234.141 124.859 231.57 118.661C226.974 107.593 211.99 95.6945 190.444 86.0131C169.744 76.7239 146.49 71.1744 128.21 71.1744C120.453 71.1744 111.805 72.1848 102.838 74.0396C95.2028 59.6231 81.0052 49.987 64.7058 48.2076C49.5102 46.5488 35.0857 52.0077 26.1044 62.8201C19.1341 71.2046 17.2139 81.0066 20.5403 91.1404C22.9595 98.5296 27.6467 104.697 31.4569 108.829C28.448 112.132 26.2103 115.434 24.8646 118.661C22.2942 124.859 22.8536 130.725 26.4371 135.853C19.3609 141.99 2.77429 158.05 4.25605 172.587C4.78525 177.835 7.52197 182.224 12.3906 185.662C9.80509 188.964 6.07045 194.469 3.40933 201.616C-0.673073 212.595 -2.92595 229.59 9.59341 248.274C28.5236 276.489 63.8137 279.761 90.0923 277.544C92.0881 277.378 93.5699 275.629 93.4036 273.623C93.2372 271.633 91.4833 270.14 89.4724 270.321C65.1443 272.387 32.5758 269.522 15.6263 244.248C7.00789 231.384 5.14813 217.963 10.1226 204.391C13.9177 194.031 20.4496 187.396 20.51 187.336C21.3416 186.521 21.7196 185.345 21.5231 184.199C21.3416 183.053 20.6159 182.058 19.5726 181.545C14.5225 178.996 11.8765 175.83 11.4683 171.879C10.304 160.463 27.1931 144.388 33.8005 139.155C34.617 138.507 35.116 137.557 35.1764 136.531C35.2369 135.506 34.8438 134.495 34.118 133.756C30.4136 130.077 29.6123 126.156 31.5628 121.451C35.4032 112.207 49.3741 101.425 68.9545 92.6483C88.7617 83.7512 110.897 78.443 128.195 78.443C145.492 78.443 167.643 83.7512 187.45 92.6483C207.03 101.44 221.001 112.207 224.842 121.466C226.792 126.186 225.991 130.092 222.286 133.772C221.561 134.495 221.168 135.506 221.228 136.546C221.289 137.572 221.787 138.537 222.589 139.17C229.196 144.403 246.07 160.478 244.906 171.894C244.498 175.86 241.852 179.012 236.802 181.575C235.758 182.103 235.048 183.083 234.866 184.229C234.685 185.375 235.063 186.536 235.879 187.366C235.91 187.411 236.212 187.713 236.696 188.256C238.979 190.834 244.604 197.922 247.386 207.86C250.878 220.285 248.641 232.546 240.763 244.293C233.702 254.834 223.345 262.344 209.994 266.626C199.183 270.095 186.422 271.467 172.043 270.728C170.047 270.607 168.338 272.161 168.232 274.151C168.127 276.142 169.669 277.846 171.665 277.951C174.296 278.087 176.881 278.163 179.406 278.163C210.447 278.163 233.657 267.923 246.796 248.334C266.225 219.366 250.682 194.288 243.999 185.722L244.044 185.662ZM66.0061 86.0131C53.9706 91.4118 43.9763 97.5192 36.7036 103.792C20.6159 86.3902 26.6185 73.5872 31.714 67.4497C39.1379 58.5223 51.1734 54.0134 63.9347 55.4158C77.1798 56.8635 88.8071 64.4035 95.5052 75.7587C85.6168 78.2771 75.5468 81.7455 66.0061 86.0282V86.0131Z" fill="#D3A98C"/>
<path d="M185.677 189.192C186.75 182.615 182.274 176.417 175.68 175.347C169.087 174.277 162.872 178.741 161.799 185.317C160.726 191.894 165.202 198.092 171.796 199.162C178.39 200.232 184.604 195.768 185.677 189.192Z" fill="#5F5C5D"/>
<path d="M94.6792 189.207C95.7496 182.63 91.2717 176.433 84.6776 175.366C78.0835 174.298 71.8702 178.764 70.7998 185.341C69.7294 191.917 74.2073 198.114 80.8014 199.182C87.3955 200.249 93.6089 195.783 94.6792 189.207Z" fill="#5F5C5D"/>
<path d="M144.222 211.539C144.222 215.128 143.451 218.491 142.09 221.386C139.353 227.283 134.212 231.234 128.346 231.234C122.479 231.234 117.338 227.283 114.572 221.386C113.211 218.491 112.455 215.128 112.455 211.539C112.455 200.666 119.561 191.86 128.346 191.86C137.131 191.86 144.237 200.666 144.237 211.539H144.222Z" fill="#5F5C5D"/>
<path d="M142.09 221.386C139.353 227.283 134.212 231.234 128.346 231.234C122.479 231.234 117.338 227.283 114.572 221.386C117.323 215.49 122.449 211.539 128.346 211.539C134.243 211.539 139.353 215.49 142.09 221.386Z" fill="#E27FA3"/>
<path d="M128.331 234.868C117.565 234.868 108.811 224.402 108.811 211.554C108.811 207.995 109.461 204.587 110.746 201.42L117.49 204.12C116.552 206.427 116.084 208.93 116.084 211.554C116.084 220.421 121.587 227.629 128.346 227.629C135.104 227.629 140.608 220.421 140.608 211.554C140.608 209.292 140.26 207.105 139.55 205.055L146.429 202.717C147.382 205.522 147.866 208.493 147.866 211.554C147.866 224.402 139.111 234.868 128.346 234.868H128.331Z" fill="#F8D4AE"/>
<path d="M146.414 202.717C143.874 195.283 138.401 190.08 131.944 188.648L131.884 176.357L124.626 176.388L124.687 188.648C118.639 189.99 113.483 194.619 110.746 201.405C110.005 203.26 110.897 205.371 112.757 206.11C114.617 206.849 116.734 205.959 117.475 204.105C119.622 198.781 123.78 195.479 128.331 195.479C133.154 195.479 137.554 199.234 139.535 205.055C140.049 206.563 141.455 207.513 142.967 207.513C143.36 207.513 143.753 207.452 144.131 207.317C146.036 206.668 147.049 204.617 146.399 202.717H146.414Z" fill="#D3A98C"/>
<path d="M135.679 172.889C133.774 170.959 130.659 170.944 128.724 172.844L128.255 173.311L127.786 172.844C125.881 170.913 122.767 170.898 120.831 172.798C118.896 174.699 118.881 177.805 120.786 179.735L122.419 181.394C125.579 184.591 130.75 184.621 133.955 181.469L135.619 179.841C137.554 177.941 137.569 174.834 135.664 172.904L135.679 172.889Z" fill="#E27FA3"/>
<path d="M105.53 282.566C90.3039 240.809 55.0895 170.039 33.362 188.617C11.6346 207.211 68.6067 313.646 68.6067 313.646L105.53 282.566Z" fill="#F8D4AE"/>
<path d="M68.3497 317.265C67.1552 317.174 66.0212 316.496 65.4164 315.365C65.2804 315.093 50.9466 288.236 39.4705 259.448C23.3073 218.898 20.5403 194.83 31.0033 185.873C35.1764 182.299 40.1509 181.153 45.3976 182.51C55.8908 185.255 67.9717 198.329 81.2773 221.356C91.1053 238.351 101.447 260.775 108.932 281.314C109.612 283.199 108.645 285.265 106.755 285.959C104.865 286.637 102.793 285.672 102.098 283.787C94.7492 263.61 84.6037 241.624 74.9723 224.96C63.0124 204.27 51.8387 191.679 43.5378 189.507C40.5743 188.738 38.0946 189.326 35.7056 191.347C25.2275 200.304 39.531 240.04 46.1687 256.704C57.4936 285.129 71.6459 311.67 71.782 311.927C72.7194 313.691 72.0541 315.878 70.2851 316.828C69.65 317.159 68.9696 317.295 68.3044 317.25L68.3497 317.265Z" fill="#D3A98C"/>
<path d="M151.449 283.697C165.722 241.609 199.334 170.054 221.47 188.15C243.606 206.246 189.068 313.947 189.068 313.947L151.464 283.697H151.449Z" fill="#F8D4AE"/>
<path d="M189.416 317.552C188.75 317.612 188.07 317.506 187.42 317.175C185.636 316.27 184.91 314.098 185.817 312.304C185.953 312.032 199.501 285.175 210.175 256.523C216.435 239.709 229.831 199.671 219.157 190.955C216.737 188.979 214.227 188.437 211.294 189.281C203.039 191.634 192.167 204.482 180.676 225.443C171.423 242.317 161.791 264.515 154.897 284.858C154.262 286.758 152.19 287.769 150.3 287.135C148.395 286.487 147.382 284.436 148.017 282.551C155.033 261.846 164.876 239.196 174.311 221.974C187.102 198.646 198.881 185.315 209.313 182.329C214.53 180.836 219.535 181.892 223.783 185.36C234.443 194.076 232.22 218.189 216.979 259.101C206.168 288.146 192.455 315.32 192.303 315.576C191.729 316.722 190.61 317.431 189.416 317.552Z" fill="#D3A98C"/>
<path d="M288.663 4.2041H175.248C154.942 4.2041 138.476 20.6262 138.476 40.8787V96.4786C138.476 113.534 150.149 127.86 165.949 131.962C160.536 139.954 154.987 150.917 162.85 153.888C172.814 157.658 194.435 145.474 205.246 133.153H288.678C308.984 133.153 325.45 116.731 325.45 96.4786V40.8787C325.45 20.6262 308.984 4.2041 288.678 4.2041H288.663Z" fill="#95E0E8"/>
<path d="M167.174 158.216C165.208 158.216 163.303 157.93 161.564 157.266C158.661 156.165 156.666 154.145 155.804 151.415C154.443 147.132 155.955 141.402 160.385 133.952C145.144 127.951 134.863 113.157 134.863 96.4787V40.8787C134.863 18.6659 152.991 0.584961 175.263 0.584961H288.678C310.95 0.584961 329.079 18.6659 329.079 40.8787V96.4787C329.079 118.692 310.95 136.772 288.678 136.772H206.864C201.27 142.774 193.362 148.671 185.394 152.772C180.162 155.457 173.313 158.216 167.174 158.216ZM175.248 7.82336C156.968 7.82336 142.105 22.647 142.105 40.8787V96.4787C142.105 111.513 152.281 124.678 166.856 128.463C167.99 128.765 168.928 129.594 169.336 130.695C169.744 131.796 169.608 133.033 168.943 133.998C163.379 142.201 162.079 147.253 162.698 149.244C162.835 149.681 163.107 150.133 164.12 150.51C171.65 153.36 191.729 143.031 202.494 130.771C203.19 129.986 204.173 129.534 205.231 129.534H288.663C306.943 129.534 321.806 114.71 321.806 96.4787V40.8787C321.806 22.647 306.943 7.82336 288.663 7.82336H175.248Z" fill="#63D3D6"/>
<path d="M181.856 64.2828C187.813 62.9709 191.275 55.5515 186.921 50.9069C185.061 48.6599 179.648 47.8305 176.548 47.167C170.848 46.2471 173.388 41.693 177.894 42.0097C179.633 42.0097 181.704 42.3867 183.292 43.0803C184.108 43.4272 184.819 43.5177 185.424 43.3819C188.009 42.7938 188.176 38.9635 185.847 37.8928C179.164 34.1228 166.282 35.7967 166.131 45.1915C166.04 52.0982 172.768 52.9577 178.333 54.0737C181.175 54.4959 182.99 56.3206 180.616 58.2207C177.985 59.7136 172.784 58.7334 169.941 57.4063C167.25 55.9737 164.755 59.2009 166.04 61.6137C166.841 63.1066 168.716 63.4836 170.349 64.0265C173.933 65.0217 178.348 65.3233 181.84 64.2979L181.856 64.2828Z" fill="white"/>
<path d="M196.099 64.8408C198.442 64.8558 199.727 63.4082 199.712 61.116V54.8126C203.764 54.7673 210.493 55.4459 213.23 52.3696C216.677 49.4139 216.677 41.889 213.23 38.9333C211.506 37.3047 209.072 36.4904 205.911 36.4904H196.129C193.74 36.4904 192.379 37.8023 192.394 40.2151V61.1009C192.394 63.4232 193.725 64.8408 196.083 64.8257L196.099 64.8408ZM199.712 42.085H204.596C207.166 42.085 208.83 43.0502 208.845 45.659C208.845 48.2528 207.166 49.2179 204.596 49.233H199.712V42.1001V42.085Z" fill="white"/>
<path d="M223.088 64.4487H236.605C237.512 64.4487 238.208 64.2074 238.692 63.74C240.249 62.0661 239.327 58.5826 236.605 58.8239H226.233V53.0784H235.698C237.527 53.0784 238.525 52.0681 238.525 50.2585C238.525 48.4036 237.558 47.4385 235.698 47.4385H226.233V42.1303H236.605C239.312 42.3716 240.264 38.9032 238.692 37.2143C238.208 36.7317 237.512 36.5055 236.605 36.5055H223.088C220.608 36.5055 219.262 37.8325 219.278 40.3057V60.6486C219.278 63.1217 220.608 64.4638 223.088 64.4487Z" fill="white"/>
<path d="M242.925 64.2526C243.999 65.0971 246.433 65.0368 247.295 64.1169C248.293 63.2574 249.351 60.181 249.986 58.8238H262.566C263.216 60.2112 264.229 63.2423 265.378 64.1018C266.346 65.0217 268.69 65.1273 269.793 64.2828C271.018 63.3629 271.048 61.8248 270.353 60.3771L260.419 39.1294C258.907 35.1181 253.676 35.1482 252.148 39.1294L242.245 60.3771C241.595 61.8549 241.655 63.3328 242.925 64.2677V64.2526ZM256.231 44.1058H256.306L260.117 53.1839H252.421L256.231 44.1058Z" fill="white"/>
<path d="M297.176 59.608L288.467 49.7607L296.647 41.0596C297.796 39.9135 297.992 38.1944 296.919 37.0031C295.422 35.4347 292.322 36.1887 290.992 37.8626L281.33 48.494H281.254V39.8532C281.254 38.6317 280.937 37.7118 280.302 37.0785C278.004 35.0276 273.634 36.2792 273.936 39.8532V61.1461C273.649 64.6749 278.064 66.017 280.317 63.8756C280.937 63.2121 281.254 62.3073 281.254 61.1461V51.8267H281.33L291.067 62.6843C293.925 66.967 300.805 64.4034 297.145 59.6381L297.176 59.608Z" fill="white"/>
<path d="M193.286 95.6945H183.549V77.4627C183.549 76.2714 183.231 75.3666 182.596 74.7332C180.344 72.6974 175.913 73.934 176.231 77.4627V98.0319C176.231 100.399 177.592 101.772 179.966 101.757H193.286C197.444 102.043 197.475 95.3929 193.286 95.6945Z" fill="white"/>
<path d="M220.472 75.1404C210.78 69.968 198.231 76.0301 198.73 87.7624C198.352 98.6501 209.087 104.984 218.809 101.184C229.378 97.3834 230.164 80.2978 220.472 75.1404ZM218.839 92.2411C217.327 96.6143 210.826 97.3985 208.104 93.8849C206.078 91.6379 205.806 86.179 207.136 83.2836C208.678 78.9406 215.225 78.1715 217.887 81.67C219.882 83.917 220.139 89.3458 218.839 92.2411Z" fill="white"/>
<path d="M252.814 73.4063C250.47 73.4063 249.215 74.7785 249.23 77.131V89.8887C249.23 93.6436 247.673 96.0413 243.938 96.0715C240.173 96.0413 238.646 93.6587 238.646 89.8887V77.131C238.646 75.9095 238.329 74.9897 237.694 74.3563C235.411 72.3054 231.026 73.5571 231.328 77.131V89.8133C231.343 93.4777 232.099 96.7049 234.549 99.1026C238.404 102.842 246.237 102.993 250.788 100.852C254.976 98.7105 256.352 94.6691 256.367 89.8133V77.131C256.367 74.7785 255.127 73.4063 252.784 73.4063H252.814Z" fill="white"/>
<path d="M272.893 73.8134H265.137C262.657 73.8134 261.311 75.1405 261.326 77.6136V97.9565C261.326 99.1931 261.644 100.143 262.294 100.792C262.944 101.44 263.897 101.757 265.137 101.757H272.893C281.632 102.058 288.497 96.7954 288.195 87.7624C288.225 78.4882 282.131 73.7531 272.893 73.8134ZM280.151 91.3364C278.654 96.2977 272.923 95.9358 268.644 95.8604V79.7248H272.455C279.637 79.393 281.829 85.3044 280.151 91.3364Z" fill="white"/>
</svg>
