<svg width="303" height="333" viewBox="0 0 303 333" fill="none" xmlns="http://www.w3.org/2000/svg">
<path d="M155.716 332.802C189.686 332.802 217.225 316.241 217.225 295.811C217.225 275.381 189.686 258.82 155.716 258.82C121.746 258.82 94.2083 275.381 94.2083 295.811C94.2083 316.241 121.746 332.802 155.716 332.802Z" fill="#FFD5AE"/>
<path d="M85.5597 320.15C96.5822 323.438 121.681 306.744 147.763 290.759C176.113 305.206 219.795 323.498 231.014 320.15C253.392 313.485 258.517 271.517 231.014 233.757L162.762 167.948L85.5597 233.757C58.0564 271.517 63.167 313.485 85.5597 320.15Z" fill="#FFD5AE"/>
<path d="M227.854 325.097C205.31 325.097 146.312 295.163 145.662 294.831C143.394 293.67 147.597 285.496 149.85 286.643C165.212 294.484 183.008 302.386 197.417 307.815C222.184 317.119 228.625 316.049 229.668 315.747C235.595 313.983 240.283 308.81 242.868 301.165C247.48 287.547 246.164 262.424 227.264 236.456C225.767 234.405 226.221 231.525 228.277 230.032C230.334 228.539 233.222 228.992 234.718 231.043C251.985 254.748 258.608 283.415 251.608 304.09C248.039 314.631 241.175 321.9 232.314 324.539C231.059 324.916 229.563 325.081 227.839 325.081L227.854 325.097Z" fill="#E2AB8C"/>
<path d="M52.5225 69.8675L56.0152 68.1937L98.079 48.092L128.606 33.5097C111.37 0.0169802 66.1758 -4.4769 45.4161 20.5107C28.6026 40.7782 44.5391 61.5886 52.4922 69.8524L52.5225 69.8675Z" fill="#FFD5AE"/>
<path d="M71.8005 64.1372L93.165 53.928C99.6061 50.8517 100.952 42.2712 95.7203 37.4154C86.8902 29.242 74.6581 22.1393 63.4391 30.2222C52.9912 37.7471 54.5788 49.5095 58.7065 59.3115C60.8233 64.3483 66.8411 66.5047 71.7853 64.1372H71.8005Z" fill="#FFF1E6"/>
<path d="M187.166 44.3068L225.389 62.5687L263.235 80.6496C266.319 77.4527 270.583 72.3858 273.683 66.203C278.642 56.3709 280.653 43.7338 270.326 31.3079C249.566 6.30523 204.373 10.7991 187.136 44.3068H187.166Z" fill="#FFD5AE"/>
<path d="M225.389 62.5687L263.235 80.6496C266.319 77.4526 270.583 72.3857 273.683 66.2029C274.983 58.8439 273.607 51.4095 266.244 46.0862C250.61 34.8365 233.04 53.023 225.374 62.5687H225.389Z" fill="#FFF1E6"/>
<path d="M16.431 222.975C64.6336 289.704 177.126 246.65 177.126 246.65C177.126 246.65 249.581 279.283 287.351 222.975C299.326 205.105 299.175 188.668 295.425 176.016C294.458 172.668 293.203 169.591 291.872 166.832C287.094 156.894 281.092 150.922 281.092 150.922C288.137 147.364 291.6 142.855 292.628 137.924C293.172 135.405 293.067 132.796 292.507 130.157C288.848 112.861 265.14 94.1312 265.14 94.1312C292.991 66.3689 207.623 22.0638 151.891 22.0638C96.1588 22.0638 10.7913 66.384 38.6272 94.1312C38.6272 94.1312 23.2955 106.271 15.3877 120.024H15.3726C9.00711 131.122 7.47999 143.247 22.6907 150.922H22.6756C22.6756 150.922 22.6453 150.983 22.6151 150.998C22.4488 151.164 22.0859 151.541 21.5567 152.144C16.0228 158.402 -8.24482 188.803 16.431 222.975Z" fill="#FFD5AE"/>
<path d="M16.431 222.975C64.6336 289.704 177.126 246.65 177.126 246.65C177.126 246.65 249.581 279.283 287.351 222.975C302.471 200.4 298.253 180.087 291.872 166.832C287.094 156.894 281.092 150.923 281.092 150.923C288.137 147.364 291.6 142.855 292.628 137.924L291.872 137.999C276.737 146.972 259.848 149.535 237.984 142.704C217.179 136.174 208.047 97.3433 182.524 97.3433C157.002 97.3433 147.521 135.179 127.064 142.704C53.7926 169.576 31.551 142.674 15.4029 120.024H15.3878C9.02224 131.122 7.49512 143.247 22.7058 150.923H22.6907C22.6907 150.923 22.6605 150.983 22.6302 150.998C22.4639 151.164 22.101 151.541 21.5718 152.144C16.0379 158.402 -8.22968 188.803 16.4462 222.975H16.431Z" fill="#FFF1E6"/>
<path d="M187.121 125.377V114.459C187.121 111.926 185.064 109.86 182.509 109.86C179.954 109.86 177.898 111.911 177.898 114.459V125.377C166.799 127.533 158.378 137.29 158.378 148.992C158.378 151.526 160.434 153.592 162.989 153.592C165.545 153.592 167.601 151.541 167.601 148.992C167.601 140.789 174.284 134.123 182.509 134.123C190.734 134.123 197.417 140.789 197.417 148.992C197.417 151.526 199.474 153.592 202.029 153.592C204.584 153.592 206.641 151.541 206.641 148.992C206.641 137.29 198.234 127.533 187.121 125.377Z" fill="#E2AB8C"/>
<path d="M241.628 154.889C241.628 173.603 255.146 188.788 271.838 188.788C281.394 188.788 289.891 183.812 295.41 176.031C294.442 172.683 293.188 169.607 291.857 166.847C287.079 156.909 281.076 150.938 281.076 150.938C288.122 147.379 291.585 142.87 292.613 137.939C293.157 135.42 293.051 132.811 292.492 130.172C287.109 124.457 279.821 120.974 271.838 120.974C255.146 120.974 241.628 136.159 241.628 154.904V154.889Z" fill="#FF9EB6"/>
<path d="M296.03 164.856C293.399 159.367 290.405 155.009 288.107 152.053C293.717 147.997 296.862 142.84 297.482 136.702C298.404 127.654 293.596 117.038 283.193 105.185C278.884 100.269 274.529 96.1821 271.581 93.5883C275.422 87.9635 276.208 81.5998 273.879 74.8892C285.144 58.452 285.189 42.0298 273.879 28.3975C265.261 18.0224 252.575 11.8095 238.151 10.9198C223.152 9.98482 208.274 14.9612 196.934 24.6426C181.073 20.0432 165.333 17.4946 151.891 17.4946C143.696 17.4946 134.639 18.4447 125.219 20.2392C114.514 7.66248 98.9862 0.348693 82.203 0.0320132C66.1153 -0.269587 51.4187 6.1545 41.8931 17.6153C31.4905 30.1317 30.7043 45.2117 39.5193 60.3822C35.3008 64.7252 32.2314 69.0833 30.4624 73.351C27.4384 80.6346 28.0432 87.5413 32.171 93.5883C29.2377 96.1821 24.8831 100.269 20.5739 105.185C10.1865 117.053 5.37831 127.654 6.30063 136.702C6.92055 142.855 10.0655 147.997 15.675 152.053C11.9253 156.834 6.33087 165.218 3.24639 175.835C-1.72809 192.981 1.53783 210.217 12.6964 225.674C24.2934 241.719 40.3811 253.014 60.521 259.227C72.7984 263.012 86.5878 264.927 101.632 264.927C106.047 264.927 110.568 264.761 115.18 264.43C145.148 262.303 170.232 254.009 177.005 251.597C182.237 253.708 198.294 259.559 217.845 260.524C249.445 262.077 274.786 249.968 291.177 225.538C307.552 201.079 302.849 179.047 296.03 164.856ZM237.576 20.0733C249.43 20.8123 259.818 25.849 266.788 34.2485C274.56 43.6132 275.225 54.1541 268.799 65.6602C260.755 54.9534 245.348 44.0656 224.936 34.897C219.311 32.3635 213.505 30.0864 207.669 28.0506C216.423 22.2901 226.947 19.4098 237.561 20.0733H237.576ZM48.9844 23.4513C56.7107 14.1469 68.7765 8.95938 82.0367 9.18558C94.2234 9.41178 105.987 14.2826 114.711 22.5012C102.706 25.472 90.4283 29.6793 78.8313 34.8819C65.8281 40.7178 54.8661 47.2626 46.5198 54.0033C40.6079 42.7989 41.4244 32.5445 48.9844 23.4362V23.4513ZM283.511 220.426C268.859 242.262 247.011 252.682 218.57 251.355C196.828 250.345 179.198 242.549 179.016 242.473C177.897 241.976 176.612 241.93 175.478 242.368C175.206 242.473 147.416 252.969 114.318 255.276C95.1004 256.618 77.8787 254.975 63.1367 250.405C45.0078 244.78 30.5531 234.662 20.1808 220.29C-1.81881 189.829 18.321 162.76 25.0192 155.19C25.4728 154.677 25.7903 154.346 25.8961 154.24H25.9113C25.9113 154.24 25.9718 154.165 25.9869 154.15C27.015 153.109 27.4837 151.631 27.2418 150.184C26.9999 148.736 26.0927 147.484 24.7773 146.836C18.9712 143.91 15.9321 140.291 15.4633 135.782C14.1177 122.572 33.7888 103.843 41.4849 97.7504C42.513 96.9361 43.1481 95.7297 43.2237 94.4177C43.2993 93.1058 42.8154 91.824 41.878 90.9041C37.6595 86.6968 36.7372 82.2331 38.975 76.8646C43.4505 66.1126 59.7498 53.5509 82.6113 43.2965C105.775 32.8913 131.676 26.6934 151.891 26.6934C172.107 26.6934 198.007 32.9064 221.171 43.2965C244.032 53.566 260.332 66.1126 264.807 76.8646C267.045 82.2331 266.108 86.6968 261.889 90.9041C260.967 91.824 260.468 93.1058 260.543 94.4177C260.619 95.7297 261.254 96.9361 262.282 97.7504C262.358 97.8107 269.54 103.526 276.359 111.322C284.826 121.019 288.969 129.479 288.319 135.782C287.865 140.291 284.811 143.91 279.005 146.836C277.69 147.499 276.782 148.751 276.54 150.214C276.298 151.661 276.782 153.139 277.826 154.195C277.886 154.255 283.375 159.805 287.714 168.853C293.505 180.886 297.482 199.601 283.511 220.456V220.426Z" fill="#E2AB8C"/>
<path d="M112.322 179.927C126.175 167.28 127.125 145.827 114.445 132.011C101.764 118.194 80.2543 117.246 66.4013 129.893C52.5484 142.54 51.5979 163.993 64.2785 177.81C76.9591 191.626 98.4688 192.574 112.322 179.927Z" fill="#FF9EB6"/>
<path d="M173.8 108.171C176.038 105.909 179.682 105.894 181.95 108.125L182.494 108.668L183.038 108.125C185.276 105.863 188.92 105.848 191.188 108.08C193.456 110.312 193.471 113.946 191.233 116.208L189.313 118.154C185.609 121.909 179.546 121.939 175.781 118.244L173.83 116.329C171.562 114.097 171.547 110.463 173.785 108.201L173.8 108.171Z" fill="#FF7AA8"/>
<path d="M126.913 132.827C120.048 132.827 113.592 130.157 108.739 125.317C106.939 123.522 106.939 120.612 108.739 118.817C110.538 117.023 113.456 117.023 115.255 118.817C118.37 121.924 122.513 123.628 126.913 123.628C131.313 123.628 135.456 121.924 138.57 118.817C140.37 117.023 143.288 117.023 145.087 118.817C146.886 120.612 146.886 123.522 145.087 125.317C140.234 130.157 133.777 132.827 126.913 132.827Z" fill="#605C5D"/>
<path d="M238.12 132.811C231.543 132.811 224.966 130.308 219.946 125.317C218.147 123.522 218.147 120.612 219.946 118.817C221.745 117.023 224.664 117.023 226.463 118.817C232.889 125.226 243.352 125.226 249.778 118.817C251.577 117.023 254.495 117.023 256.295 118.817C258.094 120.612 258.094 123.522 256.295 125.317C251.29 130.308 244.698 132.811 238.12 132.811Z" fill="#605C5D"/>
<path d="M85.5597 320.15C104.686 325.85 166.18 271.381 201.666 264.852C201.666 264.852 201.666 255.864 193.063 249.199C158.181 222.115 105.246 271.381 105.246 271.381L85.5446 320.15H85.5597Z" fill="#FFD5AE"/>
<path d="M214.019 267.687C213.883 267.581 210.92 265.41 206.021 262.198C205.552 259.348 204.252 254.688 200.532 250.104C199.398 248.656 197.992 247.254 196.359 245.942C196.283 245.881 196.238 245.851 196.147 245.791L196.087 245.746C195.996 245.685 195.921 245.61 195.83 245.55C184.626 236.879 170.791 234.405 154.703 238.221C152.314 238.794 149.88 239.502 147.416 240.332C134.73 238.025 118.461 238.733 110.296 254.085C108.829 256.829 108.164 259.755 108.285 262.801C104.505 265.817 102.267 267.898 102.116 268.034C100.256 269.768 100.166 272.678 101.889 274.533C103.628 276.388 106.546 276.494 108.406 274.759C108.466 274.699 114.363 269.255 123.36 263.088C123.632 262.892 123.934 262.68 124.252 262.484C135.652 254.824 146.917 249.516 156.85 247.163C170.096 244.026 181.345 245.927 190.235 252.848C190.281 252.893 190.296 252.893 190.356 252.939L190.417 252.984C190.417 252.984 190.553 253.09 190.629 253.15C191.702 254.024 192.594 254.929 193.335 255.864C194.923 257.825 195.845 259.785 196.359 261.384C179.047 265.998 157.788 279.148 137.179 291.89C117.297 304.181 94.7526 318.13 86.8751 315.777C82.0065 314.329 77.9997 310.635 75.2781 305.1C69.593 293.549 70.1675 276.403 76.7901 259.227C77.6973 256.86 69.1091 253.557 68.1868 255.925C60.6419 275.453 60.2034 295.359 66.9923 309.157C70.8782 317.059 76.8354 322.397 84.2291 324.599C85.5899 325.006 87.0717 325.202 88.6593 325.202C100.831 325.202 119.323 313.771 142.033 299.717C161.991 287.366 184.535 273.432 200.759 269.783C205.567 272.935 208.531 275.091 208.561 275.121C209.377 275.725 210.345 276.011 211.282 276.011C212.704 276.011 214.095 275.363 215.002 274.141C216.514 272.09 216.076 269.225 214.019 267.717V267.687Z" fill="#E2AB8C"/>
</svg>
