<svg width="302" height="335" viewBox="0 0 302 335" fill="none" xmlns="http://www.w3.org/2000/svg">
<path d="M240.72 302.675C240.72 272.072 216.482 248.53 216.482 248.53H85.407C85.407 248.53 61.1697 272.072 61.1697 302.675C61.1697 302.675 95.5374 334.2 151.648 334.2C207.758 334.2 240.735 302.675 240.735 302.675H240.72Z" fill="#FFD5AE"/>
<path d="M117.673 34.189L41.438 70.7038C33.4395 62.3727 17.4728 41.4617 34.3165 21.1253C55.1216 -3.98899 100.391 0.516749 117.658 34.189H117.673Z" fill="#FFD5AE"/>
<path d="M89.8975 52.711C89.8975 52.711 65.7509 15.9241 45.0667 30.8626C24.3675 45.8012 50.8123 77.4171 50.8123 77.4171L89.8975 52.6959V52.711Z" fill="#FFF1E6"/>
<path d="M260.436 70.7038L184.186 34.189C201.453 0.531854 246.752 -3.989 267.527 21.1253C284.371 41.4617 268.419 62.3727 260.436 70.7038Z" fill="#FFD5AE"/>
<path d="M211.992 52.711C211.992 52.711 236.138 15.9241 256.822 30.8626C277.522 45.8012 251.077 77.4171 251.077 77.4171L211.992 52.6959V52.711Z" fill="#FFF1E6"/>
<path d="M286.654 234.347C248.839 290.911 150.937 258.131 150.937 258.131C150.937 258.131 53.0502 290.911 15.2199 234.347C-11.2854 194.688 21.4796 161.968 21.4796 161.968C-12.6916 144.671 37.4615 104.92 37.4615 104.92C9.56505 77.039 95.0838 32.5106 150.937 32.5106C206.79 32.5106 292.309 77.0239 264.428 104.92C264.428 104.92 314.566 144.671 280.395 161.968C280.395 161.968 280.803 162.376 281.529 163.193C287.078 169.483 310.166 199.193 286.654 234.347Z" fill="#FFD5AE"/>
<path d="M150.937 137.111C176.505 137.111 185.668 176.12 206.518 182.682C238.361 192.677 259.68 182.682 280.395 161.968C280.395 161.968 313.175 194.688 286.654 234.348C248.824 290.911 150.922 258.131 150.922 258.131C150.922 258.131 53.0351 290.911 15.1898 234.348C-11.3156 194.688 21.4495 161.968 21.4495 161.968C42.1639 182.682 63.4982 192.677 95.3258 182.682C116.161 176.12 125.324 137.111 150.907 137.111H150.937Z" fill="#FFF1E6"/>
<path d="M63.113 228.522C81.68 225.484 94.2694 207.971 91.2323 189.404C88.1952 170.837 70.6815 158.247 52.1145 161.284C33.5475 164.322 20.9581 181.835 23.9952 200.402C27.0323 218.969 44.546 231.559 63.113 228.522Z" fill="#FF9EB6"/>
<path d="M252.128 228.065C270.428 223.702 281.727 205.329 277.364 187.028C273.001 168.728 254.628 157.429 236.327 161.792C218.026 166.155 206.727 184.528 211.091 202.829C215.454 221.13 233.827 232.429 252.128 228.065Z" fill="#FF9EB6"/>
<path d="M287.395 163.087C293.02 159.005 296.18 153.833 296.8 147.649C297.722 138.562 292.914 127.903 282.496 115.988C278.172 111.044 273.817 106.946 270.869 104.331C275.012 98.2524 275.617 91.3123 272.593 83.9942C271.035 80.2293 268.465 76.3889 265.002 72.5635C269.463 67.6797 274.861 60.4675 277.688 51.8491C281.634 39.7985 279.351 28.1561 271.096 18.192C260.482 5.37023 243.426 -1.10114 225.464 0.864462C206.307 2.96614 189.599 14.291 180.557 31.2254C170.079 29.0633 159.994 27.8991 150.937 27.8991C141.88 27.8991 131.795 29.0633 121.332 31.2254C112.29 14.291 95.5676 2.96614 76.4257 0.864462C58.4632 -1.10114 41.4078 5.38535 30.7936 18.192C22.5381 28.1561 20.2549 39.7985 24.2013 51.8491C27.0287 60.4675 32.4265 67.6797 36.8869 72.5635C33.4244 76.404 30.8541 80.2445 29.2967 84.0094C26.2727 91.3274 26.8775 98.2675 31.0204 104.346C28.072 106.946 23.7023 111.059 19.3931 116.003C8.97541 127.918 4.16726 138.577 5.07446 147.665C5.69438 153.849 8.85445 159.02 14.4791 163.087C11.44 167.018 7.16102 173.429 4.10678 181.685C-0.716503 194.673 -3.37763 214.812 11.4097 236.918C22.9614 254.2 41.1508 265.328 64.8287 269.864C59.3553 280.842 56.5883 291.864 56.5883 302.675C56.5883 305.215 58.6446 307.286 61.1999 307.286C63.7552 307.286 65.8115 305.23 65.8115 302.675C65.8115 292.439 68.7297 281.9 74.4753 271.316C79.7068 271.89 85.1651 272.193 90.8502 272.193C93.0275 272.193 95.2501 272.147 97.4879 272.057C123.298 271.059 145.191 264.769 150.982 262.97C156.773 264.769 178.682 271.059 204.477 272.057C212.642 272.374 220.368 272.102 227.641 271.286C230.06 276.109 236.153 289.566 236.153 302.675C236.153 305.215 238.21 307.286 240.765 307.286C243.32 307.286 245.377 305.23 245.377 302.675C245.377 289.641 240.311 276.623 237.182 269.849C260.829 265.298 278.988 254.185 290.54 236.918C313.265 202.943 295.469 173.505 287.456 163.102L287.395 163.087ZM226.477 10.0272C241.34 8.39424 255.371 13.656 264.004 24.0737C277.355 40.1916 266.832 56.869 258.38 66.1678C249.837 58.8346 238.164 51.713 224.133 45.3929C213.065 40.4184 201.377 36.3511 189.901 33.3876C197.733 20.339 211.175 11.6904 226.461 10.0121L226.477 10.0272ZM37.8849 24.0737C46.5184 13.656 60.5497 8.39424 75.4127 10.0272C90.699 11.7055 104.141 20.3541 111.973 33.4027C100.497 36.3662 88.809 40.4184 77.7412 45.408C63.7098 51.7281 52.0523 58.8497 43.5095 66.1829C25.0782 45.9977 32.0032 31.1952 37.8849 24.0888V24.0737ZM282.829 231.777C274.8 243.782 263.128 252.446 248.128 257.511C235.866 261.654 221.351 263.438 205.006 262.834C176.762 261.775 152.646 253.822 152.404 253.746C151.935 253.595 151.436 253.505 150.937 253.505C150.438 253.505 149.954 253.58 149.47 253.746C149.229 253.822 125.112 261.79 96.8831 262.834C80.5384 263.438 66.0232 261.654 53.7609 257.511C38.7618 252.446 27.0892 243.782 19.0453 231.777C8.99053 216.733 6.82838 201.053 12.6042 185.192C17.0344 173.066 24.6549 165.279 24.7305 165.219C25.7737 164.176 26.2576 162.694 26.0308 161.227C25.804 159.776 24.8817 158.506 23.5662 157.84C17.745 154.892 14.6908 151.263 14.2372 146.727C12.8915 133.452 32.6231 114.642 40.3343 108.519C41.3624 107.702 41.9975 106.478 42.0731 105.177C42.1487 103.862 41.6649 102.577 40.7274 101.654C36.4938 97.4208 35.5715 92.9453 37.8093 87.5323C42.2848 76.7215 58.6295 64.1114 81.5363 53.7996C104.745 43.3517 130.691 37.1071 150.952 37.1071C171.213 37.1071 197.159 43.3517 220.368 53.7996C243.275 64.1114 259.62 76.7215 264.095 87.5323C266.333 92.9301 265.411 97.4208 261.177 101.654C260.255 102.577 259.756 103.862 259.831 105.177C259.907 106.493 260.542 107.702 261.57 108.519C261.646 108.579 268.737 114.234 275.571 122.051C284.114 131.834 288.287 140.362 287.652 146.727C287.199 151.263 284.144 154.907 278.323 157.855C277.008 158.521 276.1 159.776 275.859 161.227C275.617 162.679 276.1 164.16 277.144 165.204C277.144 165.204 277.492 165.567 278.096 166.232C280.757 169.256 287.32 177.542 290.57 189.169C294.638 203.699 292.037 218.033 282.844 231.777H282.829Z" fill="#E2AB8C"/>
<path d="M164.696 176.982C161.325 176.982 158.24 175.44 156.652 172.96C156.652 172.945 156.622 172.915 156.607 172.9C155.912 171.841 155.549 170.677 155.549 169.437V154.302C155.549 151.762 153.492 149.691 150.937 149.691C148.382 149.691 146.325 151.747 146.325 154.302V169.437C146.325 170.692 145.963 171.872 145.237 172.975C143.634 175.455 140.55 176.982 137.178 176.982C134.638 176.982 132.566 179.039 132.566 181.594C132.566 184.149 134.623 186.205 137.178 186.205C142.485 186.205 147.52 184.089 150.952 180.551C154.384 184.104 159.389 186.205 164.681 186.205C167.221 186.205 169.293 184.149 169.293 181.594C169.293 179.039 167.236 176.982 164.681 176.982H164.696Z" fill="#E2AB8C"/>
<path d="M159.676 147.982C157.439 145.714 153.78 145.684 151.512 147.937L150.967 148.481L150.423 147.937C148.185 145.669 144.526 145.639 142.258 147.891C139.99 150.129 139.96 153.788 142.213 156.056L144.133 158.007C147.853 161.772 153.916 161.817 157.681 158.097L159.631 156.177C161.899 153.939 161.929 150.28 159.676 148.012V147.982Z" fill="#FF7AA8"/>
<path d="M109.13 158.914H81.8538C79.3136 158.914 77.2422 156.858 77.2422 154.302C77.2422 151.747 79.2985 149.691 81.8538 149.691H109.13C111.67 149.691 113.742 151.747 113.742 154.302C113.742 156.858 111.686 158.914 109.13 158.914Z" fill="#605C5D"/>
<path d="M220.035 158.914H192.759C190.219 158.914 188.147 156.858 188.147 154.302C188.147 151.747 190.204 149.691 192.759 149.691H220.035C222.576 149.691 224.647 151.747 224.647 154.302C224.647 156.858 222.591 158.914 220.035 158.914Z" fill="#605C5D"/>
<path d="M109.13 143.628H81.8538C79.3136 143.628 77.2422 141.571 77.2422 139.016C77.2422 136.461 79.2985 134.404 81.8538 134.404H109.13C111.67 134.404 113.742 136.461 113.742 139.016C113.742 141.571 111.686 143.628 109.13 143.628Z" fill="#605C5D"/>
<path d="M220.035 143.628H192.759C190.219 143.628 188.147 141.571 188.147 139.016C188.147 136.461 190.204 134.404 192.759 134.404H220.035C222.576 134.404 224.647 136.461 224.647 139.016C224.647 141.571 222.591 143.628 220.035 143.628Z" fill="#605C5D"/>
</svg>
